<svg id="Слой_1" xmlns="http://www.w3.org/2000/svg" xmlns:xlink="http://www.w3.org/1999/xlink" viewBox="0 0 32 13" enable-background="new 0 0 32 13" width="32" height="13"><g><path fill="#292929" d="M9.4913816 6.6859636c-29e-7-.1606345-57e-7-.321269-86e-7-.4819031.0108566-.0373983-.0020027-.0763292.0073566-.1138234 8936e-7-.0251827.0017862-.050365.0026798-.0755472.0095816-.0241055-.0010843-.0502205.007391-.0744357 8068e-7-.0158424.0016146-.0316858.0024223-.0475283.0099554-.0199194-8068e-7-.0423255.007493-.0624433.0105972-.1013179.0157509-.203577.0330639-.3037343.0262403-.1518226.052597-.303659.0876799-.454083.0433941-.18606.0920677-.3701544.150568-.5520658C9.8453197 4.3484602 9.9058628 4.1782904 9.9773102 4.012908c.068326-.1581569.1393452-.3153205.2224083-.4673138.1216354-.2225718.2472115-.442404.3915453-.6508322.1254711-.1811886.2592258-.3557844.4036055-.5232811.1590872-.1845598.3255386-.3612697.5019484-.5284936.1397772-.132498.2844362-.2601049.4406528-.373668.0118866-.0086418.0219584-.0197802.0328741-.0297581.0147734-.0071329.0256929-.0194436.0387735-.0288512.1555004-.1191791.3156185-.2323108.4828386-.3338912.4818945-.2927325.9901228-.5290135 1.5293922-.6963919.704114-.2185432 1.4251289-.3198006 2.1616592-.2968642 1.2844105.0399981 2.4635448.4123942 3.5290928 1.135036.0927811.0629227.1837101.1285757.2754974.1929607.0161915.0074172.0290775.0191346.0412807.0317376.0123768.0179673.0289612.030468.0493717.0379963.0152969.0086327.029213.018975.0403996.0326865.1038532.0950253.2144623.1821787.3183975.277313.1364403.1248848.2672501.2553222.3937092.3898044.1519833.1616268.2926807.3332262.4254646.5112429.2456627.3293419.459362.6780438.6366997 1.0486758.2010117.4201074.3561592.8561544.4577827 1.3113232.0527401.2362137.0955219.4736376.1192493.7144942.0021019.0213189.007473.0423164.0113277.0634632.0083332.0200663-.0025177.042448.0075207.0623088 7992e-7.0158868.0015965.0317745.0023956.0476618.0084763.0242066-.0021801.0503092.0073776.0744085 8926e-7.025187.0017834.0503745.0026779.0755615.009409.0374341-.0035114.0763159.0073681.1136546 19e-7.1607351 38e-7.3214703 95e-7.4822054-.0108967.0373464.0020332.0762386-.0073776.1136813-8945e-7.025187-.0017853.0503745-.002676.075561-.0095634.0240965.0010891.0501962-.0073719.0744019-7992e-7.0158839-.0015984.0317678-.0023975.0476518-.0100422.019865 8049e-7.0422511-.0075264.0623221-.0407448.3333044-.093708.6642313-.1812115.9891186-.1202984.4466381-.2850895.8757277-.5000343 1.2853413-.1864185.355258-.4046783.6894827-.6532383 1.0048847-.2072792.2630215-.4371586.5042686-.6801758.7333403-.1119328.1055126-.2317333.2026796-.3479671.3036308-.0111904.0137167-.0251102.0240583-.0404129.0326948-.0990372.0714054-.1977768.1432276-.2971706.2141333-.2414665.1722593-.49576.3231497-.7594833.4588165-.211977.1090441-.4291306.2059164-.6518955.2905197-.0106354.0040398-.0199547.0115499-.0298862.0174427-.0159283.0120049-.0354156.0135365-.0538101.0182753-.0117035-.0028849-.0179119.0066175-.0261269.01159-.0328941.0289078-.0782871.0204239-.1148415.0383825-.029211.0075674-.0587769.0141439-.0849571.0302334-.0550709.0131407-.1053448.0420418-.1621838.0493774l.0011635-7772e-7c-.0218983.0127296-.0473824.0134869-.0707817.0212049l.0010548-6142e-7c-.0225582.011097-.0474148.014101-.071373.0202627l.0011597-761e-6c-.1622124.0485363-.3275146.0838022-.4932213.1180105-.09729.0200853-.1955471.0351181-.2930107.0538216-.0654297.012557-.1331615.0230684-.2007618.0269508-.0393066.0022564-.0784111.0081482-.1174946.0116978-.1132126.0102825-.2257118.0262461-.3399029.0170603-.0195446-.0015736-.0399323-.0037031-.0592651.0038071-.1702995 19e-7-.340601 57e-7-.5109015 86e-7-.0478563-.006506-.0957632-.0080967-.1433859.0011883-.0133543.0026035-.0264053.0035715-.0395622.0014515-.1204453-.0194178-.2431183-.0179262-.3634214-.0363445-.2104235-.032217-.4205198-.0671473-.6283312-.1139088-.1103878-.0248384-.2209883-.0492163-.3289461-.083765l.0011539 7715e-7c-.023962-.0061522-.0488291-.0091238-.071372-.0202742l.0010509 6247e-7c-.0234089-.0076895-.0488863-.0084734-.0707912-.0211878l.001153 7763e-7c-.0568371-.0073309-.1071014-.0362453-.1621714-.0493813-.0299082-.0096569-.0598173-.0193138-.0897255-.0289707-.0333195-.0225725-.0793362-.0098972-.1100721-.0396452-.0100718-.0037708-.0229292 6771e-7-.0305433-.0103483-.0157537-.0083055-.0349598-.0078697-.0493927-.0195169-.1216354-.0400953-.2382736-.0927057-.3554325-.1437626-.0686264-.0299091-.1350327-.0649109-.2024374-.0976219-.015624-.0023317-.0292168-.0093737-.0420599-.0181484-.0140438-.0068474-.0280867-.0136948-.0421305-.0205412-.0216122-.0053787-.042635-.0119123-.0579576-.0296021-.2062654-.1081953-.4073544-.2253828-.6022673-.3527927-.1513939-.0989628-.2998619-.2023153-.4393892-.3178444-.0126638-.0098534-.0238094-.0216866-.0382061-.0292788-.238966-.1884727-.4610395-.3957243-.6688242-.617487-.1732693-.1849279-.3380518-.3773031-.4885063-.582262-.1149454-.1565847-.2231159-.3174191-.3247986-.4822693-.0713367-.115654-.1348763-.2365446-.1999292-.356245-.0810575-.149147-.152564-.302536-.2178154-.4586411C9.9152193 8.727109 9.8574333 8.5680799 9.8026342 8.407752c-.0625553-.1830177-.1131039-.3692913-.158742-.5563817C9.6131792 7.7254634 9.5917606 7.5962939 9.5704832 7.4676538 9.5523777 7.3581853 9.5440798 7.2473836 9.5220041 7.1384892 9.5169888 7.1137519 9.5249224 7.0859237 9.5187168 7.0597305 9.510417 7.0396109 9.5211754 7.0172048 9.5112247 6.997283 9.510417 6.981441 9.5096092 6.9655995 9.5088005 6.9497581 9.5003271 6.9255414 9.5109863 6.8994269 9.5014143 6.8753195c-8945e-7-.0251818-.00179-.0503631-.0026846-.0755453C9.4893761 6.7622833 9.5022202 6.7233586 9.4913816 6.6859636z"/><path fill="#fefefe" d="M14.2409048 12.5767899c.1697979.0386448.3382826.0826645.5097179.1145773.3126001.0581884.6271496.0973644.9449301.1101427.0163774 6599e-7.03263.0043602.0489712.0066509-.0543346.0060587-.1095304-.0087776-.1629953.0255346-.025507.0163689-.0719414.0190048-.098691-.0191317-.0139275-.0198565-.0288877-.0193548-.0451527-.0027514-.0034218.0034914-.0078392.0060806-.0120153.0087471-.0401754.0256224-.0675955-.0273561-.0879965-.0223188-.0307398.0075903-.0542088.0367308-.0830669-.0013208-.0049057-.0064697-.0129652-.0187473-.0177803-.013381-.0500469.0557823-.0827408-.027607-.1269464-.0151453-.00313 8821e-7-.0099726-.0079603-.01192-.0068283-.0867586.0504351-.1521187-.031538-.231019-.0394907-.1960316-.0197582-.3869047-.0749025-.5782042-.1232395C14.2716904 12.5945282 14.2521448 12.5942698 14.2409048 12.5767899z"/><path fill="#fefefe" d="M16.2554531 12.8081598c.1175041-.0091248.2350807-.0173998.352499-.0275326.3765068-.0324898.7470284-.0991545 1.1121292-.1964159.0127602-.0033979.0260048-.0049706.0390263-.0073967-.029808.0279312-.0702076.0248928-.1057796.0357103-.1500473.0456314-.3052654.0699835-.4574757.1068335-.0598259.0144844-.1239891.0178957-.185461.0331755-.0155087.0038548-.0204277.0130749-.0303955.0196457-.0107841.0071106-.0240612.020793-.0354176.0119505-.0477753-.0372028-.0829792 6199e-7-.1261711.0102787-.0385914.0086308-.0857372.026001-.1186905.0187941-.0343361-.0075083-.0543938-.0140114-.0777702.0130816-.0024643.0028553-.0106869.0040874-.0141621.0022182-.0462494-.0248785-.0867386-.0210114-.1330166.0079603-.0220242.0137854-.0580788.0024281-.0880184-.0172844C16.3482456 12.7938242 16.2993526 12.8146057 16.2554531 12.8081598z"/><path fill="#fefefe" d="M13.7401304 12.4195032c.0387383.0075302.0766706.0172997.1100721.0396452-.0255127-1812e-7-.0492172-.0116425-.0769939-.0018311C13.7431345 12.4679413 13.7384424 12.4435701 13.7401304 12.4195032z"/><path fill="#fefefe" d="M18.1450272 12.4578857c.0366306-.0177317.0746555-.0312881.1148415-.0383825.003849.0334663-.0118885.0491533-.0426464.0362225C18.1909962 12.4446993 18.1690636 12.4643784 18.1450272 12.4578857z"/><path fill="#fefefe" d="M13.9399281 12.4881191c.0561399.0096121.1093817.028739.1621656.049386C14.0390701 12.5505028 13.9936142 12.5057945 13.9399281 12.4881191z"/><path fill="#fefefe" d="M17.8978863 12.5374966c.0527973-.0206099.1060352-.0397711.1621838-.0493774C18.0063782 12.5057917 17.9609241 12.5505142 17.8978863 12.5374966z"/><path fill="#fefefe" d="M12.9601765 12.0799618c.0230885.00249.0426264.0119267.0579576.0296021C12.986865 12.1230888 12.9575176 12.1328516 12.9601765 12.0799618z"/><path fill="#fcfcfc" d="M9.4987297 6.0902371C9.4993391 6.1283607 9.5012312 6.1665683 9.491374 6.2040386 9.4931965 6.1660786 9.4817238 6.1272378 9.4987297 6.0902371z"/><path fill="#fcfcfc" d="M22.5086212 6.2038918c-.0097656-.0374107-.0080433-.0755672-.0073681-.1136546C22.5183239 6.1271744 22.5067558 6.1659689 22.5086212 6.2038918z"/><path fill="#fcfcfc" d="M9.4913816 6.6859636c.00982.0374613.0079622.075676.0073471.1138105C9.4817295 6.7627764 9.4931879 6.7239423 9.4913816 6.6859636z"/><path fill="#fcfcfc" d="M22.5012531 6.7997785c-6676e-7-.0380826-.0024109-.0762358.0073776-.1136608C22.5067425 6.7240281 22.5183315 6.7628331 22.5012531 6.7997785z"/><path fill="#fefefe" d="M13.6601944 12.3896379c.0188065 5789e-7.0362062.0047188.0493927.0195169C13.6871901 12.4176617 13.6702604 12.4123316 13.6601944 12.3896379z"/><path fill="#fefefe" d="M18.2859955 12.4079132c.0165539-.0101624.0336781-.0186424.0538101-.0182753C18.3288307 12.4162254 18.3084221 12.4150429 18.2859955 12.4079132z"/><path fill="#fefefe" d="M14.1009464 12.5367241c.0247593.0031748.0488453.0085945.0707865.0211916C14.1452961 12.5603495 14.1204033 12.5576172 14.1009464 12.5367241z"/><path fill="#fefefe" d="M17.8282681 12.5579243c.0219479-.0125589.0460129-.0180531.0707817-.0212021C17.8796005 12.55762 17.854702 12.5603333 17.8282681 12.5579243z"/><path fill="#fefefe" d="M14.1706867 12.5572872c.0250082.0024605.0491419.0080042.0713654.0202789C14.2154045 12.5808802 14.1907244 12.5772543 14.1706867 12.5572872z"/><path fill="#fefefe" d="M17.7579498 12.5775728c.0222988-.0120029.04632-.0179443.071373-.0202599C17.8092728 12.5772409 17.7845974 12.580884 17.7579498 12.5775728z"/><path fill="#fcfcfc" d="M9.5088005 5.9402542c864e-6.025125.002574.050334-.0073853.0744104C9.5030298 5.9897943 9.4924135 5.9636841 9.5088005 5.9402542z"/><path fill="#fcfcfc" d="M22.4985752 6.0146756c-.0098877-.0240669-.0082226-.0492787-.0073776-.0744095C22.5076103 5.9636865 22.496973 5.9897881 22.4985752 6.0146756z"/><path fill="#fcfcfc" d="M9.5014143 6.8753195c.0099583.0240688.0082493.0492954.0073862.0744386C9.4924126 6.9263268 9.5030289 6.9002166 9.5014143 6.8753195z"/><path fill="#fcfcfc" d="M22.4912052 6.9497414c-8602e-7-.0251122-.0025177-.0503039.00737-.0743771C22.4969749 6.9002252 22.5076046 6.9263225 22.4912052 6.9497414z"/><path fill="#fcfcfc" d="M12.0091181 1.4107101c-.0076427.016714-.0204554.0264812-.0387735.0288512C11.9794788 1.4248512 11.989747 1.4116646 12.0091181 1.4107101z"/><path fill="#fcfcfc" d="M20.0288792 1.4432975c-.0137596-.010579-.0275211-.021158-.0412807-.0317374C20.0098858 1.4110497 20.0221043 1.4236343 20.0288792 1.4432975z"/><path fill="#fcfcfc" d="M20.1186523 1.5139794c-.0134678-.0108958-.0269337-.0217913-.0404015-.0326864C20.1002941 1.4815896 20.1127033 1.4937932 20.1186523 1.5139794z"/><path fill="#fcfcfc" d="M9.5187168 5.8302827c.0013418.0212712.0012207.0423675-.007494.062438C9.5125065 5.8717661 9.5033722 5.849556 9.5187168 5.8302827z"/><path fill="#fcfcfc" d="M22.488802 5.8926053c-.0086689-.0200257-.0088501-.0410771-.0075207-.0623088C22.4966221 5.8495173 22.4874992 5.8716903 22.488802 5.8926053z"/><path fill="#fcfcfc" d="M9.5112247 6.997283c.0087252.0200682.0087996.0411749.0074921.0624475C9.5033712 7.0404558 9.5125074 7.0182443 9.5112247 6.997283z"/><path fill="#fcfcfc" d="M11.8803139 11.3800459c.0186224.0020781.0304003.0130873.0382061.0292788C11.8993292 11.4079876 11.8891287 11.3949203 11.8803139 11.3800459z"/><path fill="#fcfcfc" d="M20.0782413 11.4087257c.0134697-.0108995.0269413-.0217972.040411-.0326958C20.1127052 11.396225 20.1002865 11.4084253 20.0782413 11.4087257z"/><path fill="#fefefe" d="M13.0602646 12.130105c.0173378-.0016375.0297279.0081873.0420599.0181484C13.0799522 12.1615591 13.0699549 12.1461849 13.0602646 12.130105z"/><path fill="#fcfcfc" d="M22.4812813 7.0597153c-.0013256-.021234-.0011501-.0422864.0075264-.0623174C22.4874935 7.0183115 22.4966259 7.0404916 22.4812813 7.0597153z"/><path fill="#818181" d="M10.2603426 7.7925382c-.0378447-.1350117-.0660362-.2723503-.0880899-.4105-.0312281-.1956325-.0501089-.3927388-.0638409-.5906353-.0147791-.2129965-.0156918-.4264407-.0052023-.6384296.0211763-.4279962.0874853-.8503942.2088737-1.2626181.0712185-.2418551.1548014-.4796038.2551126-.710886.118434-.273068.2636089-.5320127.4225893-.7836394.1240635-.1963623.2568855-.3868303.4068918-.5633543.1817675-.2139008.3747416-.417896.5833378-.607151.1931896-.1752775.3934145-.3414301.6098194-.4862208.2177591-.1456959.4426603-.2802283.6760845-.4006301.3151579-.1625623.6422873-.295109.9803925-.399856.2766476-.0857073.559185-.1505185.8455772-.1927362.1434984-.0211533.2882986-.0380026.4339142-.0466565.292901-.0174071.5858746-.008291.8786354-.0057403.1362114.0011867.2725296.0275856.4086857.0418364.2115669.0221434.4177799.0686163.6232662.1176724.3377495.0806304.6649933.1939386.9827328.335283.326786.1453691.6366615.3202339.9361744.5149956.1741467.1132398.3356323.2423273.496027.373637.1844749.1510236.3539715.3179154.5168037.490829.2010708.2135177.3856831.4412541.5496445.6853898.1566906.2333057.3010406.4741633.4230003.7267725.1311703.271683.2372799.5537522.3250198.8434603.0720711.2379594.1241055.4796004.1692448.7230844.0191956.1035404.021492.2100925.0362511.3146005.0394611.2793512.0303917.560307.0265732.8406749-.0021763.1598806-.0267048.3190241-.043087.4783831-.0232391.2260327-.070673.4468508-.1266174.665771-.0854626.3344312-.2016773.6582713-.3455544.9727387-.1171665.2560873-.2566166.499465-.4092083.7347412-.1268959.1956577-.2661285.3831043-.4195671.5603323-.1537552.1775961-.3169746.3454723-.4853725.5083971-.0951672.0920753-.1993942.1747856-.2994518.261817-.0287609.0250158-.0471554.0224943-.073288-.0104799-.2429123-.3064928-.4878826-.6113605-.7335663-.9156418-.0192204-.0238028-.0147076-.0345039.006115-.0504751.1747665-.1340494.3322849-.2873363.4825687-.4473257.2617683-.2786732.4810963-.5883255.6665306-.9232225.1775646-.3206816.3095188-.6588068.4044151-1.0115271.0676708-.2515244.1100254-.5075798.1321507-.7680025.0173759-.2045426.0207558-.4089856.0124378-.6127782-.0093079-.2280459-.0391731-.4548402-.0850906-.679503-.0797005-.3899403-.2084198-.762816-.3858185-1.1179948-.1519547-.3042297-.3343277-.5912116-.5526333-.8520308-.178194-.2128923-.373085-.41101-.5846939-.592437-.2743683-.2352304-.5760651-.4277937-.8953648-.5949087-.3946095-.2065299-.8112602-.3494738-1.2476463-.435853-.1771278-.035061-.3557091-.058832-.5360832-.0717492-.2296314-.0164446-.4597702-.0142987-.6887703-.005071-.2848444.0114781-.5658379.0621605-.8429613.1319324-.3304386.0831952-.6488142.2000053-.9518871.354192-.3116808.1585655-.6089077.3416603-.8786564.5666566-.213829.1783538-.4100733.3740468-.5930023.5837834-.2064629.2367184-.376749.4975243-.5308218.7705293-.1777658.3149896-.3047571.6498628-.4017401.9966063-.0571537.2043395-.0943956.4132342-.1207705.6239734-.0318794.254703-.0386457.5108376-.0273619.7663736.0119829.2713518.04671.5409765.1127977.8054957.0035982.0144062.0042658.0295448.0062981.0443425-.05688.0415254-.1264563.0491638-.1910152.0683341-.3176956.0943384-.6351271.1895881-.9531918.2826891C10.2990818 7.7953329 10.2801647 7.8048744 10.2603426 7.7925382z"/><path fill="#08d281" d="M16.5299683 6.2629352c0 .9513364 706e-7 1.9026732-1431e-7 2.8540101-172e-7.0718489.0091381.0624418-.0646305.062521-.3349113 3548e-7-.6698332-.0010099-1.0047283.0014162-.0499678 3614e-7-.0591373-.0147047-.0590954-.0614185.0012779-1.4411645.0010853-2.8823295 9279e-7-4.3234954-86e-7-.0751271.0080109-.0654478-.0673189-.0655632-.2516012-3853e-7-.5032063-8988e-7-.754797 6833e-7-.0367622 2313e-7-.0485439-.0085502-.0481358-.0468354.001977-.1849146.0020056-.3698745-67e-7-.5547881-4263e-7-.039259.0104399-.0499301.0499153-.050631.210434-.003737.418417-.0247717.6171036-.1015639.2098818-.0811195.3626528-.225666.4684019-.4218357.0323544-.0600176.0620041-.1215916.090373-.1836045.0104685-.0228777.0225534-.0320616.0483437-.0319514.2282686 9773e-7.4565535.0016575.6848078-4146e-7.0421982-3829e-7.0392704.0212255.0392456.0494685-3757e-7.4381809-2632e-7.8763626-2632e-7 1.3145435C16.5299683 5.2232957 16.5299683 5.7431154 16.5299683 6.2629352z"/><path fill="#09d281" d="M10.2603426 7.7925386c.3798037-.112473.7595968-.2249775 1.1394348-.3373351.0206041-.0060949.0415678-.0109739.0623732-.016418.0329647.1093659.064106.2193179.0992393.3279796.0809488.2503552.1809883.4929271.3066473.7243285.1438875.2649651.3050985.5194426.4997272.7498026.2050066.2426443.4260149.4707127.6769323.6675282.0189276.0148478.0248184.0233984.0066977.0458641-.1453085.1801405-.281929.3678493-.4353104.5407295-.1124649.1267643-.2129908.2622576-.3209801.3920813-.0185585.0223131-.0296059.0211382-.0519381.0050383-.0726786-.0523949-.1373749-.1141396-.2049761-.172266-.1211538-.1041765-.2326717-.2188396-.3442459-.3330984-.2260904-.2315254-.4309959-.4803457-.6121035-.7489624-.1541195-.2285891-.2949228-.4651709-.415966-.712347-.1480303-.3022861-.2682838-.6161442-.35707-.9414654C10.2914619 7.9204545 10.2671528 7.8587327 10.2603426 7.7925386z"/></g></svg>