<svg id="Слой_1" xmlns="http://www.w3.org/2000/svg" xmlns:xlink="http://www.w3.org/1999/xlink" viewBox="0 0 32 13" enable-background="new 0 0 32 13" width="32" height="13"><g><path fill="#292929" d="M22.4812813 7.0597162c-.0407448.3333049-.0937061.6642327-.1812134.9891195-.1203003.4466381-.2850933.8757286-.5000362 1.2853432-.1864204.3552589-.4046783.6894836-.6532383 1.0048857-.2072792.2630215-.4371586.5042686-.680172.7333403-.1119328.1055107-.2317352.2026758-.3479671.303627-.0111923.0137138-.0251102.0240602-.0404129.0326948-.0990372.0714054-.1977787.1432266-.2971706.2141342-.2414665.1722603-.49576.3231525-.7594852.4588165-.211977.109046-.4291325.2059135-.6518936.2905216-.0106354.0040407-.0199547.0115499-.0298862.0174427-.0159283.0120068-.0354156.0135326-.053812.0182743-.0117016-.0028801-.01791.0066147-.026125.01159-.0329018.028883-.0782757.0204563-.1148396.0383825-.029213.0075712-.0587807.014142-.0849609.0302334-.0550709.0131378-.1053391.0420523-.1621799.0493784l.0011635-7782e-7c-.0219002.0127258-.0473843.0134869-.0707836.0212049l.0010548-6132e-7c-.0225563.011096-.0474129.0140982-.0713711.0202608l.0011578-7591e-7c-.1622124.0485315-.3275127.0837994-.4932194.1180096-.0972881.0200872-.1955471.0351105-.2930107.0538206-.0654259.0125618-.1331615.0230675-.2007599.0269518-.0393047.0022573-.0784111.0081491-.1174965.0116968-.1132126.0102768-.2257099.0262499-.339901.0170612-.0195465-.0015745-.0399323-.0037012-.0592651.0038061-.1703014 38e-7-.3406029 76e-7-.5109043 105e-7-.0478554-.0065098-.0957632-.0080957-.1433859.0011845-.0133524.0026035-.0264053.0035744-.0395622.0014524-.1204443-.0194168-.2431183-.0179243-.3634224-.0363445-.2104244-.032218-.4205208-.0671473-.6283331-.1139088-.1103878-.0248394-.2209864-.0492172-.3289452-.0837622l.001153 7715e-7c-.0239611-.0061579-.0488272-.0091257-.0713701-.0202742l.00105 6247e-7c-.0234089-.0076933-.0488863-.0084753-.0707922-.0211887l.0011539 7763e-7c-.056838-.0073328-.1071024-.0362453-.1621704-.0493822-.0299091-.0096569-.0598173-.0193138-.0897264-.0289707-.0333195-.0225706-.0793352-.0098982-.1100712-.0396442-.0100708-.0037737-.0229321 6819e-7-.0305443-.0103483-.0157528-.0083055-.0349588-.0078716-.0493917-.019516-.1216354-.0401011-.2382774-.0927019-.3554335-.1437654-.0686283-.0299101-.1350336-.0649099-.2024393-.09762-.0156231-.0023327-.0292139-.0093765-.0420589-.0181484-.0140419-.0068474-.0280848-.0136938-.0421286-.0205412-.0216122-.0053787-.042634-.0119123-.0579576-.0296021-.2062654-.1081944-.4073544-.2253809-.6022663-.3527927-.1513939-.0989637-.2998619-.2023144-.4393902-.3178453-.0126638-.0098534-.0238094-.0216856-.0382071-.0292788-.2389698-.1884661-.4610338-.3957253-.6688194-.6174841-.1732731-.184926-.3380556-.3773022-.4885092-.5822611-.1149445-.1565847-.2231121-.31742-.3247957-.4822693-.0713367-.115653-.134861-.2365522-.199934-.3562403-.0810833-.1491385-.1524811-.3025789-.2177982-.4586515-.0652885-.156003-.123024-.315053-.1778221-.4753819-.0625534-.1830206-.1131058-.3692942-.158742-.5563865C9.6131792 7.7254653 9.5917559 7.5962973 9.5704832 7.4676561c-.0181017-.1094689-.0264101-.2202678-.048481-.3291631C9.5169878 7.1137538 9.5249214 7.0859261 9.5187159 7.059732 9.5104179 7.0396128 9.5211763 7.0172067 9.5112238 6.9972858 9.510416 6.9814434 9.5096083 6.965601 9.5088005 6.9497585 9.5003271 6.9255438 9.5109863 6.8994312 9.5014143 6.8753252c-8945e-7-.0251832-.00179-.0503669-.0026855-.0755501C9.4893742 6.7622848 9.5022221 6.7233615 9.4913807 6.6859674 9.4913788 6.5253315 9.4913759 6.364696 9.4913731 6.2040606 9.5022297 6.1666632 9.4893713 6.1277332 9.4987288 6.090239 9.4996223 6.0650568 9.500515 6.0398746 9.5014086 6.0146923c.0095835-.0241055-.0010834-.0502219.0073919-.0744376 8068e-7-.0158434.0016146-.0316863.0024223-.0475292.0099554-.0199194-8059e-7-.0423245.007493-.0624423.0105972-.1013179.0157509-.2035761.0330629-.3037338.0262413-.1518226.0525961-.3036594.087678-.454083.043395-.1860609.0920687-.3701558.150569-.5520678C9.8453188 4.3484588 9.9058628 4.1782889 9.9773102 4.012907c.0683279-.1581566.1393452-.3153207.2224092-.467314.1216354-.2225718.2472134-.4424033.3915462-.6508317.1254702-.1811881.2592239-.3557844.4036036-.5232797.1590862-.1845591.3255377-.3612673.5019455-.5284919.1397762-.1324989.2844343-.2601068.4406509-.3736697.0118876-.0086423.0219622-.019781.0328789-.0297594.0147743-.007131.0256929-.0194432.0387735-.0288502.1554985-.1191813.3156204-.2323108.4828396-.3338923.4818935-.2927373.9901257-.5290133 1.5293951-.6963923.704114-.2185439 1.4251289-.3198007 2.1616592-.2968637 1.2844105.039999 2.4635468.4123944 3.5290928 1.1350378.0927792.0629228.1837082.1285763.2754955.1929606.0161915.0074171.0290737.0191356.0412788.0317357.0123768.0179669.0289612.0304693.0493736.0379974.0152988.0086316.0292091.0189773.0403976.0326854.1038551.0950229.2144604.1821792.3183975.2773128.1364384.1248847.2672462.2553248.3937092.3898039.1519852.1616218.2926731.3332276.4254627.5112407.2456665.3293378.4593582.6780448.6366959 1.0486746.2010136.4201086.3561687.8561561.4577885 1.3113267.0527401.2362142.0955219.4736376.1192493.7144952.0021.0213199.007473.0423179.0113239.0634661.0083408.0200639-.0025139.0424447.0075245.0623035 7992e-7.0158896.0015965.0317783.0023956.047668.0084763.0242043-.0021801.0503054.0073738.0744023 8945e-7.0251923.0017872.050384.0026817.0755763.009409.0374279-.0035133.076304.0073681.113637 19e-7.1607375 38e-7.3214746 95e-7.4822121-.0108967.0373416.0020332.07623-.0073776.113668-8907e-7.0251927-.0017834.0503855-.0026741.0755787-.0095615.0240951.0010872.0501928-.0073738.0743971-7992e-7.0158868-.0016003.0317736-.0023975.0476599C22.4787617 7.0172629 22.4896183 7.0396481 22.4812813 7.0597162z"/><path fill="#fefefe" d="M14.2409039 12.5767937c.1697969.0386429.3382826.0826654.5097189.1145773.3126011.0581865.6271524.0973644.9449329.1101427.0163755 659e-6.03263.0043602.0489683.0066519-.0543327.0060549-.1095285-.0087805-.1629934.0255308-.0255108.0163717-.0719433.0190048-.0986919-.0191288-.0139303-.0198565-.0288868-.0193548-.0451527-.0027552-.0034218.0034924-.0078392.0060806-.0120144.0087481-.0401745.0256233-.0676003-.0273552-.0879965-.0223188-.0307436.0075932-.0542107.0367317-.0830688-.0013189-.0049076-.0064707-.0129662-.0187492-.0177813-.013382-.0500469.0557775-.0827379-.0276079-.1269445-.0151443-.00313 8812e-7-.0099726-.0079603-.01192-.0068302-.0867586.050437-.1521187-.0315361-.23102-.0394888-.1960325-.0197573-.3869047-.0749044-.5782042-.1232395C14.2716904 12.5945301 14.2521429 12.5942755 14.2409039 12.5767937z"/><path fill="#fefefe" d="M16.2554569 12.8081617c.1175041-.0091257.2350807-.0173998.3524971-.0275326.3765087-.0324888.7470284-.0991516 1.1121292-.1964159.0127583-.0033989.0260029-.0049686.0390244-.0073938-.0298061.0279331-.0702076.0248899-.1057796.0357075-.1500473.0456324-.3052635.0699844-.4574757.1068354-.0598221.0144835-.1239891.0178928-.1854591.0331745-.0155087.0038557-.0204296.013072-.0303974.0196457-.0107841.0071106-.024065.020793-.0354176.0119514-.0477753-.0372019-.0829792 6161e-7-.1261692.0102777-.0385895.0086327-.0857334.0259914-.1186924.018795-.0343285-.0074968-.0543938-.0140228-.0777702.0130787-.0024605.0028563-.010685.0040903-.0141602.0022221-.0462475-.024869-.0867367-.0210218-.1330147.0079603-.0220203.0137882-.0580807.0024281-.0880203-.0172844C16.3482475 12.7938261 16.2993565 12.8146086 16.2554569 12.8081617z"/><path fill="#fefefe" d="M18.1450291 12.4578886c.0366287-.0177317.0746555-.0312862.1148396-.0383825.0038452.0334635-.0118866.0491562-.0426464.0362196C18.1909962 12.4446974 18.1690636 12.4643831 18.1450291 12.4578886z"/><path fill="#fefefe" d="M13.7401304 12.4195061c.0387383.0075312.0766697.0172987.1100712.0396442-.0255127-1793e-7-.0492163-.0116444-.0769939-.0018301C13.7431345 12.4679441 13.7384424 12.443573 13.7401304 12.4195061z"/><path fill="#fefefe" d="M13.9399281 12.488121c.056139.0096149.1093817.0287399.1621637.0493879C14.0390682 12.5505047 13.9936142 12.5057955 13.9399281 12.488121z"/><path fill="#fefefe" d="M17.8978882 12.5375004c.0527954-.0206118.1060333-.0397701.1621799-.0493784C18.0063763 12.5057955 17.9609222 12.550518 17.8978882 12.5375004z"/><path fill="#fefefe" d="M12.9601765 12.0799646c.0230865.0024929.0426264.0119286.0579576.0296021C12.986867 12.1230888 12.9575176 12.1328564 12.9601765 12.0799646z"/><path fill="#fcfcfc" d="M22.5012531 6.7997661c-6676e-7-.0380788-.0024071-.0762277.0073776-.1136479C22.5067406 6.7240243 22.5183334 6.7628255 22.5012531 6.7997661z"/><path fill="#fcfcfc" d="M9.4913807 6.6859674c.00982.0374599.0079613.0756741.0073481.1138077C9.4817295 6.7627783 9.4931879 6.7239447 9.4913807 6.6859674z"/><path fill="#fcfcfc" d="M22.5086212 6.203886c-.0097675-.037405-.0080376-.0755558-.0073681-.1136374C22.5183277 6.1271806 22.506752 6.1659689 22.5086212 6.203886z"/><path fill="#fcfcfc" d="M9.4987288 6.090239C9.4993391 6.1283627 9.5012293 6.1665688 9.491374 6.2040381 9.4931965 6.1660795 9.4817247 6.1272397 9.4987288 6.090239z"/><path fill="#fefefe" d="M13.6601944 12.3896418c.0188055 577e-6.0362053.0047169.0493917.019516C13.6871862 12.4176731 13.6702633 12.4123297 13.6601944 12.3896418z"/><path fill="#fefefe" d="M18.2859936 12.4079161c.0165558-.0101604.03368-.0186434.053812-.0182743C18.3288288 12.4162273 18.3084221 12.4150467 18.2859936 12.4079161z"/><path fill="#fefefe" d="M14.1009445 12.536727c.0247593.0031729.0488443.0086012.0707874.0211916C14.1452961 12.5603495 14.1204014 12.55762 14.1009445 12.536727z"/><path fill="#fefefe" d="M17.8282681 12.5579271c.0219479-.0125608.0460129-.0180511.0707817-.0212002C17.8796005 12.55762 17.8547039 12.5603409 17.8282681 12.5579271z"/><path fill="#fefefe" d="M14.1706867 12.557291c.0250082.0024614.0491419.0080013.0713634.0202789C14.2154045 12.5808811 14.1907234 12.5772591 14.1706867 12.557291z"/><path fill="#fefefe" d="M17.7579517 12.5775747c.0222988-.0120039.04632-.0179415.0713711-.020257C17.8092728 12.57724 17.7845993 12.5808849 17.7579517 12.5775747z"/><path fill="#fcfcfc" d="M22.4912052 6.9497418c-8602e-7-.0251107-.0025158-.0503011.00737-.0743728C22.4969749 6.900228 22.5076027 6.9263244 22.4912052 6.9497418z"/><path fill="#fcfcfc" d="M22.4985752 6.0146728c-.0098877-.0240645-.0082226-.0492749-.0073776-.0744028C22.5076065 5.9636879 22.4969749 5.9897866 22.4985752 6.0146728z"/><path fill="#fcfcfc" d="M9.5088005 5.9402547c864e-6.0251255.0025711.0503349-.0073862.0744123C9.5030298 5.9897957 9.4924135 5.963685 9.5088005 5.9402547z"/><path fill="#fcfcfc" d="M9.5014143 6.8753252c.0099573.0240674.0082493.0492921.0073862.0744333C9.4924154 6.9263287 9.503027 6.9002204 9.5014143 6.8753252z"/><path fill="#fcfcfc" d="M22.488802 5.8926024c-.0086708-.0200243-.0088463-.0410738-.0075207-.062305C22.496624 5.8495173 22.4874992 5.8716893 22.488802 5.8926024z"/><path fill="#fcfcfc" d="M9.5187159 5.8302832c.0013418.0212712.0012197.042367-.0074949.0624361C9.5125074 5.8717656 9.5033712 5.849556 9.5187159 5.8302832z"/><path fill="#fcfcfc" d="M20.1186504 1.5139791c-.0134659-.0108949-.0269318-.0217901-.0403976-.0326853C20.1002979 1.4815872 20.1126995 1.4937977 20.1186504 1.5139791z"/><path fill="#fcfcfc" d="M20.0782413 11.4087267c.0134716-.0108986.0269413-.0217972.0404129-.0326958C20.1127033 11.396225 20.1002865 11.4084253 20.0782413 11.4087267z"/><path fill="#fefefe" d="M13.0602627 12.1301079c.0173359-.0016336.0297289.0081835.0420589.0181484C13.0799484 12.1615639 13.0699577 12.1461792 13.0602627 12.1301079z"/><path fill="#fcfcfc" d="M20.0288792 1.4432961c-.0137596-.0105786-.0275192-.0211571-.0412788-.0317355C20.0098858 1.4110519 20.0221043 1.4236349 20.0288792 1.4432961z"/><path fill="#fcfcfc" d="M12.0091181 1.4107105c-.0076437.0167134-.0204563.0264795-.0387735.0288506C11.9794798 1.4248525 11.9897451 1.4116632 12.0091181 1.4107105z"/><path fill="#fcfcfc" d="M9.5112238 6.9972858C9.5199499 7.017354 9.5200243 7.0384598 9.5187159 7.059732 9.5033712 7.0404577 9.5125065 7.0182467 9.5112238 6.9972858z"/><path fill="#fcfcfc" d="M22.4812813 7.0597162c-.0013237-.0212312-.0011501-.0422812.0075264-.0623093C22.4874916 7.0183177 22.4966297 7.0404949 22.4812813 7.0597162z"/><path fill="#fcfcfc" d="M11.8803129 11.3800478c.0186234.0020781.0304003.0130892.0382071.0292788C11.899332 11.4079857 11.8891296 11.3949213 11.8803129 11.3800478z"/><path fill="#818181" d="M10.1180162 5.9897885c.0248089-.3924332.0985374-.7755785.2115231-1.1521249.0668068-.2226424.1456614-.4406614.2359924-.6543703.0905819-.2143075.2016201-.4186532.3197517-.6190436.1137447-.1929469.2392731-.3780601.3734446-.557265.103384-.1380837.219348-.2655478.3339167-.3943613.1097383-.1233823.2262049-.2402484.3468571-.3519342.2545023-.2355909.5263662-.4495107.8218565-.6331978.1805649-.1122458.363327-.2208972.5533152-.3150986.3259258-.1616042.6628828-.2961034 1.0140638-.3959932.2502327-.0711764.5034246-.1257991.7589664-.1707006.1040144-.0182763.2102833-.0235297.3154163-.035658.3168068-.0365469.6347809-.0154382.9521828-.0175611.1535282-.0010269.3058147.0275012.4586086.0432096.2116089.0217547.4178371.0682834.6232929.1174262.3376999.0807744.6650181.1939636.9826736.3355027.3297367.1469209.6426029.3232251.9442596.5209072.1959476.1284078.3773994.2747301.5556507.4260824.1576309.1338406.3042278.2791364.4454136.4291718.2021523.2148249.3881168.443531.5530338.6890485.1567135.2333031.3009777.4742141.4229374.726814.1311722.2716784.2371464.5538187.3249378.8434973.072113.2379518.1252594.4794483.1687927.723177.024025.1344957.0290298.2722888.0458431.4081945.0299244.2418618.0193119.4847069.0174046.7270765-.0013142.1667361-.0270138.3323288-.0435619.4983439-.0227089.2278037-.0705051.4504118-.1273518.6706481-.0858212.3324718-.2012138.6550474-.344923.9678516-.1175575.2558851-.2566929.4994354-.4093685.7346621-.1269665.195612-.2662868.3829851-.4197006.5602303-.1548328.1788816-.3194599.3477087-.4889603.5118837-.0939121.0909634-.1969509.1725197-.2961006.2580566-.0255299.0220251-.0430984.0263453-.0699329-.0075808-.2426186-.3067236-.4874649-.6116962-.7335987-.9156122-.0234127-.0289097-.0143833-.0393019.0082436-.0573368.1837025-.1464243.3513889-.3095036.5108089-.4821005.1561203-.1690216.2980537-.3484926.4249725-.5399704.2515793-.3795519.4452496-.7858047.5750923-1.2233734.0771599-.2600398.1305122-.5241747.1625347-.7925162.0287991-.2413568.0334492-.4849935.0206432-.7271943-.0211697-.4003687-.0904617-.7933125-.2184315-1.1746616-.1040096-.309948-.2353573-.606863-.4031429-.88835-.1203632-.2019315-.2499142-.3975022-.4002304-.5772216-.1438675-.1720054-.2984085-.335125-.4652767-.4864368-.1505699-.1365309-.3058205-.2664223-.4736786-.3808529-.188467-.1284785-.3834991-.2468562-.5874138-.3486893-.3811207-.1903291-.7810097-.3285141-1.1995564-.410295-.178791-.0349344-.3589878-.059284-.5410519-.072166-.2313137-.0163665-.4631443-.0145662-.6937637-.0048221-.2830849.0119612-.5624399.0625116-.8379383.1319817-.3287916.0829089-.645792.1987047-.9473362.3521619-.3355408.1707578-.6540232.3694139-.9400063.6173916-.2533855.2197099-.4864893.4585216-.6907854.7242446-.1583452.2059555-.2942476.4268596-.4168568.6560748-.1560965.2918186-.2710037.5998249-.3593092.9176641-.0576773.2075982-.0966415.4195223-.1224718.6337795-.0063782.0529008-.0065184.1059256-.0121384.15868-.0414915-.055079-.100522-.0437975-.1565542-.0398974-.1720886.0119781-.3444681.0188036-.516572.0296755-.0926313.0058513-.1858177.0047717-.2779655.0180426-.0431948-1493e-7-.0865469-.0055819-.12953.0036335-.0057001.0018525-.0114994.0030675-.0174065.0039606C10.2120829 6.0013762 10.1630459 6.0176263 10.1180162 5.9897885z"/><path fill="#3dd3ee" d="M12.7222013 10.3603086c-.0581713.0975742-.1482067.1683674-.2164249.2576618-.0687103.0899363-.141181.1769943-.2106743.2663479-.016161.0207815-.0253267.026453-.0501146.0079145-.0742111-.0555038-.1424026-.1179581-.2120333-.178565-.1255159-.109251-.2425852-.2276907-.3574266-.3479338-.1748781-.1831036-.3396492-.374527-.488163-.5805387-.1882124-.2610788-.3549452-.5347281-.5001373-.8212442-.1459074-.2879314-.2587423-.5891266-.3534021-.8980465-.0724115-.2363076-.1243219-.4766078-.1677685-.7190342-.0185528-.1035228-.0264044-.2090564-.0365419-.3139253-.0023584-.0243955-.0177984-.0474415-.008172-.073019.0334511-.0128217.0430183.0163112.0566959.0343146.1309195.1723299.2613344.345047.39186.5176759.3303318.4368834.6607895.8736711.990901 1.3107228.3000069.397192.6004066.7940893.9009371 1.1908855.0833902.1101017.1640873.2223396.25212.328908C12.7181759 10.3476639 12.7209091 10.3536558 12.7222013 10.3603086z"
		/><path fill="#3dd9ed" d="M12.7222013 10.3603086c-.0721416-.0559559-.114768-.1364155-.1688156-.2069473-.237628-.3101072-.4725981-.6222534-.7082033-.9339075-.1977005-.2615156-.3947515-.5235224-.5924463-.7850418-.2355986-.3116598-.4716024-.6230149-.7073832-.9345345-.1279001-.1689844-.2558832-.3379073-.383255-.5072889-.0111876-.0148773-.0195799-.0311575-.0407553-.0326624-.0332651-.2641873-.0202703-.5296931-.0185299-.7946224 3786e-7-.0575109-.0020943-.1181741.0152206-.1755209.0505667-1569e-7.1011505-3185e-7.1517344-4807e-7.0442038.049654.0808783.1050858.1208248.15799.3546352.4696856.7107801.9382305 1.0644932 1.4086142.0188074.0250115.0403547.0477595.0589676.0729008.0520964.1521606.0999413.3057556.1610746.4547997.1573696.3836813.3667765.7370148.6184025 1.065876.1498938.1959038.3213482.3724127.498682.5429144.0787401.0757084.1600552.1495399.2480326.215229.011981.0089464.0353117.0153561.0142336.0411377C12.9428864 10.0852642 12.8328066 10.2230015 12.7222013 10.3603086z"/><path fill="#3deeea" d="M16.4815102 4.3198419c-.0306416-.0260253-.0612831-.0520496-.0919266-.0780749-.1865864-.1744924-.3767052-.3451157-.5654268-.5172718-.1078711-.0984018-.2158146-.1967704-.3226366-.2963343-.0106745-.0099497-.0241194-.020015-.0114908-.0375364.1361866-.0382686.2763481-.0506558.4165249-.0570793.1219759-.005589.2445707-.010725.3665037.0054696-.030117.0284026-.0711002.0016801-.1117992.0238333.5186615.4763119 1.0366554.9474385 1.5536995 1.4193738.0225163-.0091357.0074444-.0368829.0265179-.0452266.0135078.1259255-.0030785.2505732-.0162697.3753233C17.71591 5.200232 17.692131 5.2851076 17.6693363 5.3701491c-.0193329.0134292-.031002-.0022674-.042984-.0123787-.105442-.0889893-.2047329-.1848345-.3071346-.2772145-.1443405-.1302156-.286953-.2623487-.4310684-.3928394-.0849876-.0769515-.1701088-.1538649-.253624-.2323809C16.5847816 4.4085698 16.5325279 4.3649802 16.4815102 4.3198419z"/><path fill="#3da4f4" d="M16.0197964 9.2383518c-.0799189 6075e-7-.1598387.0017099-.2397575.0017405-.4464455 1659e-7-.8928947-5503e-7-1.3393345.0010872-.0421352 1545e-7-.0519686-.011219-.05161-.0523396.0021238-.2431746-.0014582-.4864159.0021086-.729557.0030479-.2077732.04006-.4097376.1264153-.6006393.0279894-.0089469.0434847.0116572.059639.0270972.1719866.1643825.3505497.3216214.5254288.4828525.1895237.1747313.3806849.3477325.5711336.5214872.103199.0941534.2063437.1884127.3099184.282176C16.0024681 9.1892118 16.0270576 9.2059097 16.0197964 9.2383518z"/><path fill="#3ddfec" d="M11.5140533 7.6288071c-.0702705-.041194-.1041403-.114491-.1507645-.1755509-.2443132-.3199458-.4856443-.6421666-.7282257-.9634356-.1148052-.1520457-.2300825-.3037338-.3451624-.4555726-.0101862-.0134397-.0182333-.027802-.0201302-.0449419-29e-7-38e-7 544e-7 1702e-7 544e-7 1702e-7.0429096-.0100322.0872774.0022578.1301413-.0084877.1638308-.0101714.3276367-.0207791.4915018-.0303741.130825-.0076613.2619324-.0115495.3924799-.0223613.0496902-.0041151.0739231.0080566.0736141.0588593-.0053511.0590787-.0139933.1181331-.0153408.1773539-.0024967.1097445-.0021715.2196088-4425e-7.3293824.0039902.2532969.032218.5041389.0818415.7524958.0129824.0649767.0125427.1324525.0366173.1953139.0088758.0221381.0109444.0463052.0203533.0682845.0025749.0028334.002965.0059414.0011702.0093236.0038071.0132513-.0013447.0287986.0102644.0400505l-6599e-7-8736e-7c.0042982.0173507.0122681.0335031.016592.0508456C11.5099897 7.6157951 11.5120201 7.6223011 11.5140533 7.6288071z"/><path fill="#3df4e9" d="M17.7414761 4.7369952c-.0059433.0220599.0098972.0567913-.0095901.0647283-.0247478.0100799-.0379791-.0248876-.0555191-.0406241-.1713753-.1537542-.3424263-.3078737-.5128307-.4627051-.0920181-.0836124-.1820145-.1694484-.2739563-.253149-.1739368-.1583507-.3490353-.315428-.5227871-.4739821-.0698586-.0637472-.137579-.1298442-.2058659-.1952968-.0076828-.0073657-.0217152-.0145597-.0145321-.0281491.0065708-.0124323.0209141-.0067556.0318985-.0071294.0315666-.0010741.0631676-.0011804.094759-.0016704.3119335.0149868.6097069.0823321.8782234.2483735.3285789.2031803.5037498.5073514.5678463.8816614C17.7342834 4.5575876 17.7453308 4.6467409 17.7414761 4.7369952z"/><path fill="#3da9f3" d="M16.0197964 9.2383518c-.0176487-.0413895-.0528345-.0682049-.0843096-.0971079-.0914202-.0839548-.1852798-.165246-.277257-.2486038-.1852903-.1679268-.3702517-.3362188-.55478-.504981-.0953865-.0872364-.1894531-.1759148-.284296-.2637463-.0875311-.0810585-.1750851-.1620941-.2632589-.2424469-.0107574-.0098028-.0254202-.0153189-.0382748-.0228219.0307465-.0930514.0784416-.1774139.1325388-.2584944.082921.0911431.178216.1692457.2684507.2525864.0964851.0891104.194006.1771722.2912369.2655053.0996914.0905676.1987467.1818361.2992706.2714882.0019789.0021439.0024233.0045691.0013332.0072737.0490646.0172272.0997334.0038433.1495199.0076513.0179882.0013752.0361738 2928e-7.0541744 1669e-7.0259104-.0014982.0366592.021183.0520029.034852.0981588.0874472.1941071.1773491.2916374.2654963.1382465.1249437.2741356.2524786.4136429.3760395.0411053.0364056.0786095.0767097.1216297.1111946.0129452.0103769.0305271.0236712.0169144.0459394C16.4132462 9.2383461 16.2165222 9.238349 16.0197964 9.2383518z"/><path fill="#3de9eb" d="M16.4815102 4.3198419c.039938.0142097.0713558.042057.1014919.0695176.138382.126102.2746811.2544851.4125042.3812084.1536007.141232.307848.2817626.4622021.4221721.0612087.0556793.1235256.1101365.1851387.1653714.0077763.0069695.015995.0116806.0264893.0120378-.0327282.1333127-.0789967.2613225-.1488724.3800879-.0212193.0085621-.0347023-.0059214-.0484085-.0172849-.0665855-.0552115-.1298332-.1143312-.193121-.1731067-.2046928-.1901054-.4137821-.3753967-.6176548-.5663738-.0134373-.0125895-.0317001-.0185661-.0429401-.0336528.001276-.1131368.0031357-.2260695-.0145569-.3386536C16.5864201 4.5106702 16.5502758 4.4089298 16.4815102 4.3198419z"/><path fill="#3dd1ee" d="M14.3990002 4.6365495c.0049973-.140234.0296974-.2765818.0804443-.4077921.1354008.1318831.2772055.2569017.4168606.3841224.169158.1540952.3360605.3107319.5084238.4613085.0162992.0142403.0310211.0299463.0454283.0460081.0031033.080008.0054541.1600118-.0012522.2399688-.1177206.0109506-.2357092.0019274-.3535376.0047259-.0190964 4535e-7-.0289583-.0142779-.0411844-.0252695-.1893177-.1701922-.3773527-.3417869-.5637884-.515131-.0085487-.0079484-.016716-.0167403-.0268087-.0223713C14.3963041 4.7645807 14.3832254 4.7062793 14.3990002 4.6365495z"/><path fill="#3de9eb" d="M15.4900293 3.3906245c.0300407.0458052.0717545.0817995.1130819.1150367.055809.0448859.1048021.0966814.1583357.1436582.1408682.1236181.2757807.2540021.4137774.3809164.057312.0527072.1164703.1034017.1747112.1551003.0176334.0156522.0325298.0333376.0396481.0564303-.2196712-.1035614-.4428015-.0963268-.6680613-.0208511-.0317144.0121903-.0507259-.011075-.0692959-.0280528-.1252365-.1145029-.2515154-.2278593-.375865-.3433473-.0804453-.0747125-.164607-.1454523-.2419586-.2234859-.0138216-.0139434-.0375748-.0259151-.0242453-.0532801C15.1592102 3.4833143 15.3188267 3.4217098 15.4900293 3.3906245z"
		/><path fill="#3de0ec" d="M15.0101576 3.5727491c.0224457.0502815.0675936.0808518.1055269.1166017.1022377.0963516.2078495.1891177.3118486.2836068.0795641.0722876.1581964.1456141.2384987.2170668.0154543.0137501.0325146.0287309.0554905.0308909-.1646957.0823793-.2376404.2252212-.2631845.3993001-.0195618.0130544-.0307074-.0032716-.0427761-.0131364-.0720654-.0589099-.1382408-.1244264-.2069664-.1870418-.1755257-.1599174-.3508492-.3200641-.5261326-.4802489-.0163746-.0149641-.0344944-.0276015-.0239296-.0538373C14.7513151 3.754132 14.8705044 3.6519563 15.0101576 3.5727491z"/><path fill="#3dd8ed" d="M14.6585331 3.885951c.0010662.0180826.011961.0294003.0249052.0409648.0949097.0847895.1895304.1699073.2836418.2555835.1565275.1425023.3125486.285563.4691048.4280357.0056448.0051379.0146914.0065384.0221529.0096803-.0112886.1665201-.0015669.333384-.0081806.4999809-.0435658-.0184793-.0748844-.0532098-.1086159-.0840774-.1358681-.1243362-.270134-.2504258-.405983-.374783-.1406412-.1287451-.2825556-.2560987-.4235353-.3844771-.0143852-.0131001-.0320129-.0251369-.0325775-.0481005C14.5169134 4.1028786 14.5762482 3.9884207 14.6585331 3.885951z"/><path fill="#3db2f2" d="M17.5497265 9.2383575c-.1732597-105e-7-.3465214-21e-6-.5197811-324e-7-.0945835-.0887728-.1904392-.1761551-.2864838-.2633438-.1416092-.1285572-.2822094-.2582188-.4239178-.3866749-.0492649-.0446577-.1004257-.0875063-.1463623-.1355972-.0121021-.0126696-.0431728-.0368547.0048466-.0478792.1571598 963e-7.3141994 706e-7.4711189 48e-7.0160561-.0014868.0280342.0051985.0394878.0166674.1822948.1824932.3785114.3499174.5678635.5247736.0867748.0801344.174818.1588736.2610016.239625C17.5323906 9.199851 17.5536785 9.2119474 17.5497265 9.2383575z"/><path fill="#3db1f2" d="M14.7962265 7.388247c.0869617-.119976.1858797-.2294245.2924738-.3321147.1572008.1423616.3136778.2855101.4696884.4291821.07059.0650086.142951.1281157.2121515.1946654-.0717144.0892725-.1348848.1845393-.1950788.281724-.012661.020442-.0179777.0454307-.0266781.0683255-.0262117.0348864-.0478754.0076933-.0661011-.00776-.0378962-.0321321-.0740128-.066555-.1103401-.1004152-.1880283-.1752663-.3802366-.3459444-.5686064-.5208144C14.8001099 7.3976746 14.7981148 7.3928785 14.7962265 7.388247z"
		/><path fill="#3dc8ef" d="M16.6920338 6.8006783c-.1039867.1071219-.214344.207181-.3318863.2992764-.0251598.005578-.0412083-.0115981-.0561428-.0257978-.128767-.1224236-.2624092-.2395196-.392766-.3602047-.0559959-.0518422-.1115446-.1042886-.1698313-.1537151-.0190897-.0161877-.0461044-.0290751-.0421629-.0618362.1070995-.1052518.2142-.2105026.3213015-.3157544.0877552.097311.1902905.1790104.2858906.2679477.0944729.0878897.1901093.1747298.2860184.2611699C16.6255035 6.7415495 16.6584892 6.7714291 16.6920338 6.8006783z"
		/><path fill="#3de3eb" d="M16.6183395 4.9598188c.0154896-4597e-7.0287666.0031953.0409184.0144124.0768337.0709257.1542988.1411667.2314529.2117462.1971817.1803803.3942165.3609219.5917149.5409555.0107899.0098381.0252724.0156293.0380363.023304-.0448895.1121979-.1103516.2123971-.1806984.3097477-.0290623.003859-.0460777-.0179892-.0632248-.0338664-.0854397-.0791068-.1717739-.1572127-.2578564-.23561C16.8736 5.6583772 16.7302475 5.5243521 16.583498 5.3940377c-.0135651-.0120473-.0366249-.0188246-.0336914-.0441923C16.5837879 5.2217932 16.6054649 5.091579 16.6183395 4.9598188z"/><path fill="#3dbff0" d="M15.6992445 6.4984007c.0431356.0600362.1045542.1017017.1583252.1501865.0527515.0475659.103487.0976787.1577196.1439805.1007996.0860591.1949959.1798296.2925949.2696819.0156898.0144463.0347576.0252285.0522633.0377049-.0387344.0522079-.0934238.0875907-.1396904.1318774-.056118.0537181-.1146126.1049557-.1720772.1572671-.0250473.0048599-.0410252-.012054-.0559568-.0264263-.1304026-.1255264-.2667875-.2445388-.4000216-.3669615-.0573835-.0527282-.1122704-.1083674-.1731052-.1574903-.0181732-.0146737-.0433388-.0274487-.0392742-.0583029C15.4864292 6.686079 15.5928373 6.5922399 15.6992445 6.4984007z"
		/><path fill="#3db8f1" d="M15.380022 6.7799187c.0489693.0613303.1140757.1057916.1688042.1613655.0615196.0624681.128459.1198063.1951065.1769671.1031361.0884557.195982.1884313.3044472.2708478-.0926132.0969601-.1852264.1939206-.2778397.2908807-.0393448-.0096612-.0629997-.0425868-.0903196-.0670676-.1395874-.1250787-.2736959-.2563243-.4145536-.3799043-.0522938-.0458798-.0966539-.1006913-.155427-.1392708-.0130711-.0085812-.0207481-.0214038-.0215387-.0375996C15.1803045 6.9582582 15.276701 6.865437 15.380022 6.7799187z"/><path fill="#3daef3" d="M16.1600704 8.4113007c.0026722.0263214.0247402.038763.0411587.0539494.1165466.1078005.2339153.2147121.3512325.3216772.1478424.1347961.296032.2692099.4435902.404315.0141792.0129814.0326729.0241985.0338936.0470829-.1399899 67e-7-.2799816 124e-7-.4199734 181e-7-.0021-.0246277-.0223083-.0362778-.0378265-.0503912-.0980549-.0891743-.1969337-.1774378-.2951775-.2664032-.1756496-.1590614-.3510208-.3184338-.5266075-.4775658-.0100346-.0090933-.0199823-.0178013-.0202198-.0327425.0164547-.0122852.0353842-.0059109.0530233-.0060196.1096306-6742e-7.2192698-617e-6.3289022-353e-7C16.1280594 8.4052706 16.1453838 8.3993483 16.1600704 8.4113007z"/><path fill="#3dddec" d="M16.5498066 5.3498454c.1226673.1110444.2438946.2237358.3683834.3327003.1419525.1242518.2737904.2597508.4215736.377439-.0602531.096911-.1300449.1866112-.2056141.2719445-.0278358.009654-.0435791-.0107565-.0596104-.0260873-.1723976-.1648374-.3532505-.3204718-.526741-.4841447-.0396805-.0374341-.0814114-.0729427-.1204414-.1112218-.0108356-.0106277-.0301399-.0188007-.0172997-.0401216C16.4634972 5.5665073 16.5105305 5.4598675 16.5498066 5.3498454z"/><path fill="#3db8f1" d="M17.5497265 9.2383575c-.0994225-.1072493-.2133503-.1989946-.320631-.2977953-.0413322-.038064-.0823078-.0769129-.1247177-.1140623-.1334991-.1169405-.2620277-.2395535-.3925877-.3598528-.0173283-.0159674-.0321331-.0336342-.0417118-.0553436.0147095-.0120325.0320816-.0060568.0480957-.006115.14995-5436e-7.2999058-2556e-7.4497185-3519e-7.0174332-.0014753.0325298.0042295.0449486.0164633.1388798.1367865.2910461.259306.4277878.3983822 7515e-7.1290197 9594e-7.2580462.0027103.3870525 3529e-7.0260382-.0082378.03619-.0341759.0336599C17.5894718 9.2384739 17.5695477 9.2389488 17.5497265 9.2383575z"/><path fill="#3dd1ee" d="M16.6920338 6.8006783c-.0205574-.0024509-.0374336-.0120587-.0523911-.0260296-.0990524-.092515-.1975212-.1856713-.2975616-.2771077-.0913658-.0835104-.1850262-.1645141-.2763805-.2480392-.0196762-.0179896-.0485039-.0322895-.0451546-.066855.0727921-.0850377.145586-.1700764.2183781-.2551155.0547981.0328956.0952988.0826054.1413898.1250591.1758766.1619945.3550587.3203869.5290718.4844036.0072956.0068765.0140953.0141115.0189915.0229483C16.8575172 6.6479635 16.7753201 6.724854 16.6920338 6.8006783z"/><path fill="#3dabf3" d="M14.7962265 7.388247c.0675125.0296283.1073666.0924039.1618385.1376958.1016684.0845356.1950102.1790586.2922306.2689772.0801649.0741444.160759.14783.2415771.2212629.0158958.0144434.0329971.0296898.0569105.0138464-.0412884.1168051-.050107.2371912-.0396662.3597002-.0159721.001399-.0282955-.0046806-.0401001-.0156965-.0896454-.0836515-.1792145-.1673994-.2698898-.2499266-.1738749-.1582479-.348444-.315732-.5227957-.4734573-.01511-.01367-.0294714-.0274301-.0261726-.0504999C14.6907034 7.5239029 14.7407503 7.4542041 14.7962265 7.388247z"/><path fill="#3dd6ed" d="M16.9283772 6.5599422c-.0528908-.020762-.0831566-.06952-.1244888-.1041784-.0989914-.0830045-.190712-.1746559-.2857361-.2624159-.0864754-.0798631-.1732597-.1593938-.2604542-.2384682-.0088711-.0080447-.0182743-.0142131-.018774-.027348.057045-.0857263.11409-.171452.171133-.2571778.0315857.0331941.0614452.0682578.0950527.0992622.1546249.1426482.3078232.2870255.4669704.4244866.0535049.0462122.0943909.1082397.1620674.137825C17.070734 6.4126024 17.0053349 6.491487 16.9283772 6.5599422z"/><path fill="#3dc8ef" d="M14.3990002 4.6365495c-.0128717.0749173.0261889.1184564.0820494.1635308.0953159.0769091.1817055.1648645.2719746.2480402.1096563.1010389.2195864.2017803.3289919.3030896.0131254.0121546.0279608.0086021.0423203.0086579.1081886 4148e-7.2163801 2675e-7.3245697 2966e-7-.0127287.0168371-.0308304.0082097-.0460711.0082359-.3214493 5431e-7-.6429033-4029e-7-.964345.0012469-.0398998 205e-6-.0496826-.0109878-.0492754-.0498495.0020733-.1981626 8564e-7-.3963575.0016356-.5945377C14.3909655 4.6956515 14.3869715 4.6652398 14.3990002 4.6365495z"/><path fill="#3dbff0" d="M17.6406288 8.8196821c-.0526409-.0151014-.0805149-.0628195-.1169224-.0964279-.1118164-.1032238-.2314301-.198391-.333643-.3118935.0110893-.0107698.0250359-.006238.0377083-.0062733.1253834-3405e-7.2507648-2632e-7.3761463-1125e-7.0113525 143e-7.0232239-.0024023.0336971.0046034C17.6485691 8.5462065 17.6424141 8.6829605 17.6406288 8.8196821z"/><path fill="#3da4f4" d="M17.6376152 8.4095783c-.1491852 5856e-7-.2983704.0011711-.4475536.00177-.1733265-143e-7-.3466568-42e-6-.5199833-572e-7-.170002 29e-7-.3400059-67e-7-.5100079-29e-7-.1433105-162e-7-.2866211-439e-7-.4299307-591e-7-.0582609-4768e-7-.1165285-5732e-7-.1747789-.0017138-.0156326-3052e-7-.034132.0065203-.0449095-.0125017.0205936.009654.0425587.0058928.0639553.0058966.6685114 1087e-7 1.3370237-763e-7 2.0055342 3042e-7C17.5990753 8.4032259 17.6197166 8.3959866 17.6376152 8.4095783z"
		/><path fill="#3dd9ed" d="M11.4805908 7.509943c-.0169935-.0197201-.0207081-.0433979-.0203533-.0682864C11.4779072 7.4611759 11.4773722 7.4861188 11.4805908 7.509943z"/><path fill="#3dd9ed" d="M11.5079575 7.6092892c-.0132036-.0144401-.0196476-.0310874-.0165977-.0508394C11.5040779 7.5730491 11.5082693 7.5904341 11.5079575 7.6092892z"/><path fill="#3dd9ed" d="M11.4920254 7.5593171c-.0133696-.0108004-.0210953-.0230479-.0102644-.04005C11.4922485 7.5308061 11.4916039 7.545198 11.4920254 7.5593171z"/><path fill="#3dd9ed" d="M10.3999662 5.9809885c-.0424919.0164361-.0865078.0095153-.1301394.0084906C10.3123732 5.9739032 10.3564892 5.982347 10.3999662 5.9809885z"/></g></svg>