<svg id="Слой_1" xmlns="http://www.w3.org/2000/svg" xmlns:xlink="http://www.w3.org/1999/xlink" viewBox="0 0 32 13" enable-background="new 0 0 32 13" width="32" height="13"><g><path fill="#292929" d="M22.4812813 7.0597148c-.0407448.3333044-.0937042.6642318-.1812134.9891181-.1203003.4466381-.2850876.8757296-.5000343 1.2853451-.1864223.355258-.4046841.6894817-.6532383 1.0048857-.2072773.2630215-.4371605.5042667-.6801739.7333393-.1119328.1055107-.2317333.2026768-.3479671.303627-.0111923.0137138-.0251102.0240612-.0404129.0326967-.0990353.0714073-.1977768.1432276-.2971706.2141342-.2414665.1722593-.49576.3231487-.7594833.4588156-.2119751.109046-.4291344.2059116-.6518955.2905197-.0106354.0040417-.0199547.0115499-.0298862.0174427-.0159283.0120077-.0354156.0135336-.053812.0182753-.0117016-.0028801-.01791.0066166-.026125.01159-.0329018.028883-.0782757.0204601-.1148415.0383835-.029213.0075684-.0587788.0141449-.084959.0302324-.0550709.0131378-.1053391.0420523-.1621799.0493774l.0011635-7782e-7c-.0219002.0127249-.0473843.0134869-.0707836.0212049l.0010548-6123e-7c-.0225563.011095-.0474129.0140982-.0713711.0202608l.0011578-7591e-7c-.1622124.0485315-.3275127.0837984-.4932194.1180086-.0972881.0200882-.1955471.0351114-.2930107.0538206-.0654259.0125618-.1331596.0230684-.2007599.0269518-.0393047.0022583-.0784111.0081491-.1174965.0116978-.1132126.0102768-.2257099.0262499-.339901.0170603-.0195465-.0015745-.0399323-.0037003-.0592651.0038071-.1703014 38e-7-.3406038 76e-7-.5109053 95e-7-.0478563-.0065098-.0957642-.0080957-.1433849.0011864-.0133553.0026007-.0264053.0035725-.0395622.0014515-.1204443-.0194168-.2431183-.0179262-.3634224-.0363436-.2104235-.032217-.4205198-.0671492-.6283312-.1139088-.1103897-.0248384-.2209883-.0492182-.3289471-.0837631l.001153 7706e-7c-.0239601-.0061569-.0488272-.0091257-.0713701-.0202742l.00105 6256e-7c-.0234089-.0076933-.0488863-.0084753-.0707922-.0211887l.0011539 7763e-7c-.0568352-.0073404-.1071024-.0362434-.1621704-.0493803-.0299091-.0096579-.0598192-.0193148-.0897264-.0289726-.0333195-.0225716-.0793352-.0098991-.1100712-.0396442-.0100718-.0037718-.0229301 679e-6-.0305443-.0103493-.0157528-.0083055-.0349588-.0078707-.0493917-.019516-.1216326-.0401039-.2382784-.0926991-.3554335-.1437645-.0686255-.029912-.1350336-.0649099-.2024393-.097621-.0156231-.0023317-.0292139-.0093756-.0420589-.0181475-.0140419-.0068474-.0280848-.0136948-.0421286-.0205421-.0216122-.0053787-.042634-.0119123-.0579576-.0296011-.2062654-.1081963-.4073553-.2253828-.6022673-.3527937-.1513939-.0989647-.2998619-.2023134-.4393892-.3178444-.0126638-.0098515-.0238075-.0216885-.0382061-.0292778-.2389641-.1884727-.4610367-.3957214-.6688204-.6174841-.1732712-.1849298-.3380556-.3773041-.4885111-.5822611-.1149473-.1565857-.223114-.3174219-.3247976-.4822731-.0713367-.1156521-.1348734-.2365427-.1999273-.3562422-.0810595-.149147-.1525631-.302537-.2178164-.458642C9.9152193 8.7271118 9.8574333 8.5680847 9.8026342 8.4077559c-.0625534-.1830196-.1131058-.3692913-.158742-.5563827-.0307131-.1259084-.0521345-.2550769-.0734091-.383718-.0181036-.1094694-.0264082-.2202687-.048481-.329164-.0050144-.0247388.0029192-.052567-.0032864-.0787611C9.5104179 7.0396109 9.5211763 7.0172057 9.5112238 6.9972844 9.510416 6.981442 9.5096083 6.9655991 9.5088005 6.9497566 9.5003271 6.9255424 9.5109873 6.8994298 9.5014143 6.8753242c-8945e-7-.0251827-.00179-.0503669-.0026855-.0755501C9.4893742 6.7622848 9.5022221 6.7233615 9.4913816 6.6859674 9.4913788 6.525331 9.4913759 6.3646941 9.4913731 6.2040582c.0108566-.0373974-.0020027-.0763268.0073557-.1138206C9.4996223 6.0650549 9.500515 6.0398731 9.5014086 6.0146904 9.5109921 5.9905849 9.5003252 5.964469 9.5088005 5.9402533c8068e-7-.0158434.0016146-.0316868.0024223-.0475302C9.5211782 5.8728046 9.510416 5.8504 9.5187159 5.8302827c.0105972-.1013179.0157509-.2035766.0330639-.3037343.0262413-.1518235.0525961-.303659.087678-.4540839.0433922-.1860614.0920687-.3701563.150568-.5520682.0552921-.1719389.1158352-.3421102.1872845-.5074911.0683279-.1581569.1393461-.315321.2224112-.4673147.1216345-.2225709.2472124-.4424036.3915443-.6508319.1254702-.1811891.2592249-.3557856.4036064-.5232811.1590872-.1845577.3255358-.361269.5019455-.5284923.1397772-.1324981.2844381-.2601053.4406528-.3736694.0118866-.0086408.0219593-.0197784.0328741-.029755.0147743-.0071312.0256929-.0194434.0387735-.0288506.1554985-.1191823.3156214-.2323108.4828415-.3338934.4818926-.2927388.9901247-.5290121 1.5293932-.6963911.704114-.2185445 1.4251289-.3198004 2.1616592-.2968636 1.2844105.0399988 2.4635448.4123963 3.5290909 1.1350387.0927792.062923.1837082.1285751.2754974.1929597.0161915.0074182.0290756.0191346.0412807.0317372.0123768.0179663.0289593.0304682.0493717.0379957.0152969.0086327.0292091.0189753.0403976.0326852.1038532.0950251.2144623.1821785.3183975.2773122.1364384.1248848.2672462.2553257.3937092.3898042.1519852.161622.292675.3332267.4254627.5112405.2456703.3293376.4593601.6780424.6366959 1.0486729.2010117.4201083.3561707.8561554.4577923 1.3113265.0527363.2362142.0955181.4736376.1192455.7144947.0021.0213203.007473.0423188.0113277.063467.008337.0200644-.0025177.0424452.0075207.062304 7992e-7.0158892.0015965.0317793.0023956.0476689.0084763.0242033-.0021801.0503044.0073776.0744014 8907e-7.0251923.0017834.0503855.0026779.0755777.009409.0374274-.0035133.076303.0073681.1136355 19e-7.160738 38e-7.3214755 95e-7.482214-.0108967.0373406.0020332.0762286-.0073776.1136661-8907e-7.0251932-.0017834.0503869-.0026741.0755806-.0095654.0240941.0010891.0501924-.0073738.0743961-7992e-7.0158868-.0015984.0317731-.0023975.0476604C22.4787617 7.0172625 22.4896145 7.0396476 22.4812813 7.0597148z"/><path fill="#fefefe" d="M14.2409039 12.5767918c.169796.0386467.3382826.0826626.5097179.1145754.3126001.0581903.6271505.0973644.944931.1101446.0163774 658e-6.03263.0043592.0489712.0066519-.0543346.0060549-.1095304-.0087795-.1629963.0255308-.0255079.0163689-.0719404.0190058-.09869-.0191307-.0139275-.0198565-.0288877-.0193548-.0451527-.0027514-.0034218.0034914-.0078392.0060806-.0120153.0087471-.0401754.0256224-.0675983-.0273571-.0879965-.0223188-.0307417.0075951-.0542088.0367308-.0830669-.0013208-.0049057-.0064697-.0129652-.0187473-.0177803-.013381-.0500469.0557823-.0827408-.027607-.1269464-.0151453-.00313 8821e-7-.0099726-.0079603-.01192-.0068283-.0867586.0504351-.1521187-.0315351-.231019-.0394897-.1960325-.0197592-.3869047-.0749035-.5782051-.1232405C14.2716894 12.5945282 14.252142 12.5942726 14.2409039 12.5767918z"/><path fill="#fefefe" d="M16.2554569 12.8081598c.1175041-.0091257.2350807-.0174017.3524971-.0275326.3765087-.0324869.7470284-.0991545 1.1121292-.1964149.0127583-.0033989.0260029-.0049686.0390244-.0073957-.0298061.0279331-.0702076.0248909-.1057796.0357084-.1500473.0456314-.3052635.0699835-.4574757.1068354-.0598221.0144825-.1239891.0178928-.1854591.0331736-.0155087.0038557-.0204296.013072-.0303974.0196457-.0107841.0071106-.024065.020793-.0354176.0119514-.0477753-.0372019-.0829792 6161e-7-.1261692.0102777-.0385895.0086336-.0857334.0259914-.1186924.018795-.0343285-.0074959-.0543938-.0140219-.0777702.0130796-.0024605.0028563-.010685.0040903-.0141602.0022211-.0462475-.024868-.0867367-.0210209-.1330147.0079603-.0220203.0137882-.0580807.002429-.0880203-.0172834C16.3482475 12.7938232 16.2993565 12.8146067 16.2554569 12.8081598z"/><path fill="#fefefe" d="M13.7401304 12.4195042c.0387392.0075274.0766697.0173006.1100712.0396442-.0255127-1793e-7-.0492163-.0116453-.0769939-.0018311C13.7431345 12.4679422 13.7384424 12.4435701 13.7401304 12.4195042z"/><path fill="#fefefe" d="M18.1450272 12.4578876c.0366287-.0177345.0746574-.0312862.1148415-.0383835.0038452.0334635-.0118866.0491543-.0426464.0362206C18.1909962 12.4446974 18.1690636 12.4643736 18.1450272 12.4578876z"/><path fill="#fefefe" d="M13.9399281 12.4881201c.056139.009614.1093817.028738.1621637.049386C14.0390682 12.5505037 13.9936161 12.5057907 13.9399281 12.4881201z"/><path fill="#fefefe" d="M17.8978882 12.5374975c.0527954-.0206108.1060333-.0397711.1621799-.0493774C18.0063763 12.5057936 17.9609241 12.5505161 17.8978882 12.5374975z"/><path fill="#fefefe" d="M12.9601765 12.0799627c.0230885.0024891.0426254.0119295.0579576.0296011C12.986867 12.1230869 12.9575176 12.1328545 12.9601765 12.0799627z"/><path fill="#fcfcfc" d="M22.5012531 6.7997642c-6676e-7-.0380783-.0024071-.0762267.0073776-.113646C22.5067406 6.7240233 22.5183334 6.7628241 22.5012531 6.7997642z"/><path fill="#fcfcfc" d="M9.4913816 6.6859674C9.5011997 6.7234273 9.499342 6.7616405 9.4987288 6.7997742 9.4817305 6.7627778 9.493187 6.7239447 9.4913816 6.6859674z"/><path fill="#fcfcfc" d="M22.5086212 6.2038841c-.0097675-.037405-.0080376-.0755553-.0073681-.1136355C22.5183296 6.1271791 22.5067501 6.1659675 22.5086212 6.2038841z"/><path fill="#fcfcfc" d="M9.4987288 6.0902376C9.4993382 6.1283607 9.5012283 6.1665664 9.491374 6.2040358 9.4931974 6.1660776 9.4817238 6.1272373 9.4987288 6.0902376z"/><path fill="#fefefe" d="M13.6601944 12.3896389c.0188065 5779e-7.0362053.0047178.0493917.019516C13.6871862 12.4176712 13.6702633 12.4123278 13.6601944 12.3896389z"/><path fill="#fefefe" d="M18.2859936 12.4079142c.0165558-.0101585.03368-.0186453.053812-.0182753C18.3288288 12.4162235 18.3084221 12.4150448 18.2859936 12.4079142z"/><path fill="#fefefe" d="M14.1009445 12.536725c.0247593.0031719.0488453.0085974.0707874.0211906C14.1452961 12.5603476 14.1204014 12.5576181 14.1009445 12.536725z"/><path fill="#fefefe" d="M17.8282681 12.5579243c.0219479-.0125618.0460148-.0180492.0707817-.0212021C17.8796005 12.5576172 17.8547039 12.5603371 17.8282681 12.5579243z"/><path fill="#fefefe" d="M14.1706867 12.5572882c.0250082.0024595.04914.0080042.0713634.0202799C14.2154045 12.5808773 14.1907234 12.5772572 14.1706867 12.5572882z"/><path fill="#fefefe" d="M17.7579517 12.5775728c.0222969-.0120087.04632-.0179396.0713711-.020257C17.8092728 12.5772381 17.7845993 12.5808821 17.7579517 12.5775728z"/><path fill="#fcfcfc" d="M9.5014143 6.8753242c.0099564.0240679.0082493.0492921.0073862.0744324C9.4924154 6.9263272 9.503027 6.9002194 9.5014143 6.8753242z"/><path fill="#fcfcfc" d="M9.5088005 5.9402533c864e-6.025126.0025711.0503354-.0073862.0744128C9.5030298 5.9897947 9.4924135 5.9636831 9.5088005 5.9402533z"/><path fill="#fcfcfc" d="M22.4912052 6.9497409c-8602e-7-.0251107-.002512-.0503006.00737-.0743718C22.4969749 6.900228 22.5076008 6.9263239 22.4912052 6.9497409z"/><path fill="#fcfcfc" d="M22.4985752 6.0146708c-.0098858-.0240645-.0082226-.049274-.0073776-.0744023C22.5076103 5.9636865 22.496973 5.9897857 22.4985752 6.0146708z"/><path fill="#fcfcfc" d="M22.488802 5.8926005c-.0086708-.0200243-.0088463-.0410743-.0075207-.062304C22.4966316 5.8495145 22.4874935 5.8716879 22.488802 5.8926005z"/><path fill="#fcfcfc" d="M9.5187159 5.8302827c.0013409.0212708.0012217.0423656-.0074949.0624342C9.5125065 5.8717642 9.5033731 5.8495545 9.5187159 5.8302827z"/><path fill="#fcfcfc" d="M20.1186504 1.5139785c-.0134659-.0108949-.0269318-.0217899-.0403976-.0326852C20.1002979 1.4815879 20.1127014 1.4937946 20.1186504 1.5139785z"/><path fill="#fcfcfc" d="M20.0288811 1.4432974c-.0137596-.0105797-.0275192-.0211588-.0412788-.0317374C20.0098877 1.4110497 20.0221043 1.4236383 20.0288811 1.4432974z"/><path fill="#fcfcfc" d="M12.0091181 1.4107101c-.0076437.016713-.0204563.0264794-.0387735.0288506C11.9794788 1.4248511 11.9897451 1.4116628 12.0091181 1.4107101z"/><path fill="#fcfcfc" d="M9.5112238 6.9972844C9.519949 7.0173526 9.5200243 7.0384583 9.5187159 7.0597301 9.5033731 7.0404558 9.5125055 7.0182452 9.5112238 6.9972844z"/><path fill="#fcfcfc" d="M22.4812813 7.0597148c-.0013256-.0212312-.0011482-.0422807.0075264-.0623083C22.4874916 7.0183163 22.4966316 7.0404944 22.4812813 7.0597148z"/><path fill="#fcfcfc" d="M11.8803139 11.3800468c.0186224.0020771.0303993.0130873.0382061.0292778C11.8993311 11.4079876 11.8891325 11.3949165 11.8803139 11.3800468z"/><path fill="#fcfcfc" d="M20.0782413 11.4087267c.0134716-.0108976.0269413-.0217972.0404129-.0326958C20.1127052 11.396224 20.1002865 11.4084244 20.0782413 11.4087267z"/><path fill="#fefefe" d="M13.0602627 12.130106c.0173359-.0016346.0297289.0081825.0420589.0181475C13.0799484 12.161561 13.0699577 12.1461763 13.0602627 12.130106z"/><path fill="#818181" d="M10.4180317 4.5777941c.0365152-.1420469.0970964-.2752995.1549873-.4090142.0513582-.1186275.1058874-.236151.1684179-.3498199.1392279-.2530944.2886887-.4994514.4591427-.7330768.1213446-.1663165.2553234-.3215322.3932428-.4740474.1408138-.1557167.2893543-.3036363.4460421-.4426877.2495527-.2214639.5171824-.418856.8032532-.5919638.1563206-.0945927.3145075-.1859134.4772911-.2676334.2357988-.1183757.4795017-.2195305.7293806-.3062205.2854824-.0990427.5778074-.1707374.8732862-.2297797.1619501-.0323607.3269873-.0468556.491415-.0643667.3320856-.0353667.665328-.0239305.9971418-.0140459.2948742.0087842.5874405.0586324.8770485.1229216.3557987.0789829.7014179.188199 1.0370445.3282511.2312622.0965033.4547348.210164.6716881.3361382.2497902.1450409.4920712.3012733.7186852.4808646.2335701.1851057.4500103.3892585.6541214.6057426.2219124.235364.4227333.4886506.5990753.7600639.081295.125123.1551991.2551455.2300339.3845053.1335106.2307954.2426319.4726651.3361912.7210753.1079311.2865696.1944542.5798874.2562656.8807793.0402737.1960382.0648727.3937421.0872498.5918326.0314083.2780948.0288849.5581589.0175686.8367991-.0094185.2319694-.0332699.4644008-.0783596.693006-.0399284.2024527-.0828419.4041181-.1439419.6020956-.0601921.1950483-.1257286.3877401-.2031784.5763865-.0769634.1874609-.1629677.3703947-.2645626.5463371-.0664406.1150665-.1319923.2304173-.2035275.342494-.0963154.1509008-.1993046.2967491-.308836.4383812-.1896343.2452154-.4049339.466692-.6274719.6811962-.0941525.0907555-.1968575.172657-.2960243.2581778-.0261116.022521-.0449944.0293818-.0736008-.0068073-.2425213-.3068094-.4875832-.611619-.7334995-.9157219-.021101-.0260925-.0154457-.0364952.0066395-.0540771.2322922-.1849298.4400616-.3945522.6333008-.6198845.2716942-.3168201.4879074-.6684265.6636581-1.0452366C20.3642426 8.032402 20.43853 7.8153296 20.502573 7.5945268c.0690136-.237947.1144943-.480391.143362-.7256107.0286102-.2430258.0327644-.4881897.0211124-.732203-.0147972-.3099041-.0611153-.6166792-.1415386-.9167123-.0676403-.2523355-.1551819-.4982786-.2645378-.7360396-.1641903-.356976-.3712139-.6881883-.620121-.991035-.1433411-.1744034-.3027325-.3355238-.4693947-.4894555-.2223244-.2053404-.4647999-.3820317-.7231274-.537672-.3651276-.2199874-.752079-.3905468-1.1629963-.5060762-.2368355-.0665861-.4774952-.1149058-.72118-.1453433-.2911835-.0363706-.5847816-.030092-.8767672-.0194484-.2646904.0096489-.5264978.055755-.7847519.1187067-.3308935.080658-.6497049.1934767-.9555464.3436561-.3054991.1500123-.5955362.3248584-.8627996.5358169-.2421761.191155-.4600868.4077134-.6624422.6405902-.2049408.235852-.3741608.4952884-.5283413.7662745-.1023045.1798105-.1802015.370029-.2620401.5588813-.0194826.0068727-.039113.0049305-.0590305.0018835-.3660183-.0559773-.7328262-.1065092-1.0992384-.1598654C10.4549475 4.592896 10.4313631 4.5975032 10.4180317 4.5777941z"
		/><path fill="#5371f4" d="M12.5901833 10.5180531c-.0728636.0897207-.1456633.1794949-.218667.2691021-.0092993.0114145-.01966.021965-.0295296.0329151-.034955.013175-.0474567-.0156527-.0625639-.0355272-.0977564-.1285934-.1937647-.2585068-.2912693-.387291-.4322109-.5708628-.8623533-1.1432877-1.2943602-1.7142992-.0872059-.1152639-.1675243-.2361727-.2664623-.3424063-.0914192-.2337618-.1580324-.4747291-.2078581-.7204442-.0222015-.1094832-.0523891-.2176504-.0574675-.3301396.0330763.0172825.0553017.0457778.0770035.0747452.2107038.2812328.4229374.561316.6346464.8417892.4284286.5675831.856657 1.1353159 1.2850428 1.7029314.1364403.1807842.2722921.3620081.408432.5430164C12.5813417 10.4713402 12.6040516 10.4886808 12.5901833 10.5180531z"/><path fill="#4f7bf4" d="M10.1021252 6.2504954c-.0029469-.1253705.0091457-.2497182.0261345-.3736711.0039606-.0288944-.009305-.0601215.0115376-.0867243.0290394-.0147743.0382605.011343.0502176.026485.1216192.154016.2365026.3131475.3550797.4694829.292429.3855467.583663.771996.8742323 1.1589465.0089788.0119562.0178823.0239987.0317869.0390019.0016365-.0177751-.0047989-.0353131.009922-.0459957.0206566.0697036.0410852.1394768.0620108.2090998.0911369.3032393.2090721.5947971.3603983.8738823.0933094.1720877.1987514.334795.3091917.496027.1704874.2488947.3756475.4659071.5899277.6751938.0881729.0861177.1861429.1622076.2782316.2416286-.0466261.0579348-.0939779.1167746-.1413317.1756134-.0315924.0148106-.0409498-.0135307-.0539799-.0299416-.1232119-.1551714-.2389517-.3160219-.3586178-.473897-.2986641-.3940277-.5955944-.7893658-.893446-1.1840067-.2797956-.370717-.5594349-.7415524-.8393345-1.1121893-.2166901-.2869358-.4320765-.5748692-.6512852-.8598948C10.109436 6.4321589 10.105505 6.41535 10.1051311 6.3947101 10.1042604 6.3466406 10.1096554 6.2984152 10.1021252 6.2504954z"/><path fill="#5176f4" d="M10.1021252 6.2504954c.0176001.0381932.0066996.0785289.0073185.1177058 4921e-7.0310698.0082951.0540037.0281448.0798192.1646118.2140903.3265581.4302316.4892654.6457877.2335501.309413.4672823.618691.7005301.9283323.2183075.2898073.4357405.5802736.654191.8699722.2613468.3465872.5233431.6926851.7851171 1.03895.0379534.0502033.0765038.0999575.1142054.1503477.0101995.0136318.0194645.0272493.0385685.0280552-.0458584.0721006-.1013298.1366577-.1574879.2006769-.0287457.0137186-.0388222-.0109873-.0512133-.02668-.1227922-.1554842-.2386694-.3162127-.3583784-.474041-.2977715-.3925867-.5936298-.7866163-.8905153-1.1798706-.2677803-.354701-.5343695-.71031-.8034582-1.0640087-.1743555-.229178-.3425083-.463068-.5223331-.6880751-.0094709-.0118494-.014926-.025898-.0244074-.0374994-.0037699-.0301132.0014467-.0611811-.0096235-.090518.005703-.062995.0056143-.1259918 725e-7-.1889906C10.1021223 6.4571376 10.1021242 6.353817 10.1021252 6.2504954z"/><path fill="#5175f4" d="M10.1116724 6.8399677c.0651026.0502901.1065121.1208935.1549273.1848764.2479.3276091.4934759.6569748.740303.9853964.1413145.1880302.2835569.3753624.4252205.5631323.2783661.368969.5565748.7380571.8349352 1.1070318.1416664.1877861.2827845.3759966.4261665.5624628.0190506.0247774.0311871.0600786.0687523.0672731-.052331.0733805-.1127768.1400576-.1717939.2079124-.0240774-.0651703-.0741119-.1129541-.1143732-.1668167-.2369032-.316927-.4756927-.6324415-.7139416-.9483604-.2422075-.3211699-.4845018-.6422729-.7268009-.9633732-.1775064-.2352362-.3551846-.4703398-.5325756-.7056613-.0966482-.1282105-.1927881-.2568035-.2893324-.3850927-.0156345-.0207763-.0421076-.0322123-.051156-.0587873-.0204315-.0655637-.0194397-.1343489-.0287905-.2015085C10.1217642 7.0062189 10.1184845 6.9228468 10.1116724 6.8399677z"
		/><path fill="#4b85f4" d="M10.4180317 4.5777941c.0175114.0050468.0376396-.001617.0532579.011898.001359.0173783.0099974.0316405.0200834.0450029.2850151.377593.5695009.7555866.8550625 1.1327381.0207729.0015883.0101538-.0340662.0338507-.0273266-.0417995.2919049-.0410404.5857368-.039855.8795891-.0226231.0142083-.0271721.0141273-.0492411-.0130925-.034586-.0426593-.0679026-.0864015-.1007938-.1303563-.262331-.3505621-.5284004-.6983047-.7902899-1.0491977-.046793-.0626969-.0960951-.1234913-.1425877-.1864262-.0095959-.0129895-.02388-.0240855-.0186586-.0434799.0112915-.1018658.0424719-.1991239.0715876-.296545C10.3429165 4.7919545 10.3697815 4.6812477 10.4180317 4.5777941z"/><path fill="#3fa2f4" d="M15.5797119 3.3618972c.1490288-.027761.299427-.0347991.4506226-.0297854.0708447.0476928.1270847.1121094.1900082.1686792.1866894.1678424.3717766.337518.5567093.5073028.1384068.1270704.2771015.2538929.4153976.3810916.1517429.1395655.3054771.2770004.4566288.4172459.0109673.0101752.0234566.0188355.0291634.0335078.0032082.1477046.0066166.2954216-.0270119.4408698-.0212078.0085793-.035223-.0054889-.048399-.0172796-.1152325-.1031237-.2289562-.2079139-.3432789-.3120413-.140131-.1276317-.2801456-.2553816-.4205704-.3826919-.086235-.0781822-.1716728-.1572599-.2577057-.2356834-.1450081-.1321793-.2902603-.2641058-.4347858-.3967931-.1323032-.121464-.2654915-.2419767-.3973827-.3639007-.0561247-.0518827-.1115627-.1046581-.1700735-.1540518C15.56007 3.402359 15.5312796 3.3799522 15.5797119 3.3618972z"/><path fill="#3da8f4" d="M17.6782417 4.8399391c-.0596066-.0293827-.0983276-.0838652-.1468754-.126081-.1377811-.1198153-.2691097-.2470307-.4036598-.3705883-.1956387-.1796536-.3914547-.3591177-.5879879-.5377893-.162056-.147326-.3253784-.2932556-.4876575-.4403355-.0094566-.008569-.0145836-.0219119-.0217266-.0330331.0067101 365e-7.013422 732e-7.0201302 1097e-7.0537014.0099041.1084633-.0035326.162117.0073867.3381233.0169787.6588192.0933216.9395828.2916481.3007965.2124758.4532604.5141599.5071068.8717029.0066757.0443301.0145168.0886326.0116673.1338267.0104485.0439162-.0024986.0890894.0071468.133049C17.6781387 4.7932029 17.6781902 4.8165708 17.6782417 4.8399391z"/><path fill="#419df4" d="M15.5797119 3.3618972c-.026577.0170023-.0138464.0313683.00282.0459113.1550159.1352701.3045149.2765853.4564428.4152415.1531563.1397774.3063335.2795277.4594307.4193711.1530952.1398425.3072987.2784486.4591198.4197187.1481342.1378422.2987919.2729783.4485359.4090891.0674877.0613432.1351681.1224794.2034416.1829424.0122013.0108061.0277328.0178542.0417271.0266371-.0160503.0667696-.0276947.134685-.0519257.1993227-.0274811.015132-.0447102-.0053296-.0604267-.020474-.1318569-.1270418-.269249-.2480822-.4043827-.3715086-.169508-.1548243-.3377552-.3110857-.5100193-.4628987-.0349541-.0308037-.0655785-.0663519-.1025791-.0949955-.0130596-.034132-.0244255-.0690308-.0394745-.102263-.0653114-.1442418-.182415-.2195864-.3340969-.2478046-.0228863-.0042577-.0459023-.007833-.0688591-.0117235-.0030003-.0015974-.0062885-.0034246-.0093956-.002871-.1026373.0182767-.1697588-.032402-.2423677-.1006336-.197587-.185678-.398571-.3679907-.600152-.5495014-.017704-.0159419-.0485201-.0323822-.0177269-.0636585C15.3290691 3.4051726 15.4526243 3.3762674 15.5797119 3.3618972z"/><path fill="#556cf4" d="M10.427331 8.3405466c.0548105.0142794.0724936.0663433.1015987.104578.1896734.2491798.3765507.5004873.5649443.7506456.2771101.3679619.5546875.7355728.8321419 1.1032772.122756.1626854.2455988.325304.3686962.487731.0119715.0157986.0244293.0322866.0472746.0332918-.0657635.1012878-.0692606.1016397-.1640577.020752-.1667433-.1422796-.325325-.29319-.478878-.449563-.2511883-.2558002-.4746122-.5341368-.6706238-.833889-.136096-.2081251-.2604246-.4237719-.3695383-.647275-.0834751-.1709871-.1565008-.3469801-.2209444-.5262566C10.4329462 8.3699341 10.4308033 8.3550014 10.427331 8.3405466z"
		/><path fill="#488cf4" d="M11.3802862 5.7401066c-.021162.0118346.0026932.0518312-.0255299.0508704-.0143433-4878e-7-.0286427-.0287437-.0413904-.0456333-.2732267-.3620262-.5462265-.7242222-.8192863-1.0863729-.0109615-.0145383-.0218544-.0291381-.0331993-.043375-.0120764-.0151563 165e-6-.0199924.0104027-.0258985.1128006.0065742.2234745.0292826.3350954.0446482.2233696.0307488.4464779.0634193.6695604.096199.0520992.0076551.1051426.0109067.1555185.0283289-.0652037.1953797-.1341162.3896074-.1780243.5914812C11.4253178 5.4796042 11.4000921 5.6093302 11.3802862 5.7401066z"/><path fill="#6543f4" d="M14.3299866 7.6898041c-6628e-7-.1004343-.0014496-.2008677-.0018015-.3013034-381e-7-.0107074-.0035658-.0239587.0118876-.028739.0601568.0342913.1024857.0894165.1527357.1347952.1331577.1202512.265274.2417688.3977356.3628325.1324425.1210465.2648392.242178.3980446.3624105.0900307.0812616.1794205.163312.2687254.2454157.1406679.1293221.2824326.2574368.4236984.3860989.0896816.0816813.1797733.1629734.2680035.246212.0471573.0444889.1003017.0825672.1424694.1322651.0119438.0140772.0334949.0258904.0184898.0503712-.0649529.0153465-.1309185.0207939-.1975021.0202217-.0784855.015831-.1401176-.003088-.2003956-.0632439-.1353188-.1350451-.2807207-.2598772-.4223003-.3885593-.0861845-.0783329-.1722641-.1568136-.258069-.2355738-.1446295-.1327562-.2901888-.2644949-.4348545-.3971844-.094409-.0865936-.1901054-.1718302-.2831907-.2599077-.0833921-.0789061-.1715326-.1526818-.253808-.2328568C14.3490858 7.7125645 14.3380795 7.7025747 14.3299866 7.6898041z"/><path fill="#683df4" d="M15.7700129 9.2990789c-.3608103-.0222101-.6995859-.1107035-.9854031-.3441772-.2531395-.2067814-.3839827-.4830236-.4338417-.8012791-.0094919-.0605888-.0199194-.1212912-.0181875-.1830888.0599842.0113611.0951262.0598111.1351995.0971332.2105675.196105.4252663.3876743.6368427.5826616.1883125.1735487.3792181.3443184.5671282.5183496.0268154.0248346.0585709.044404.0813551.0735159C15.7658815 9.2585163 15.7842646 9.2742643 15.7700129 9.2990789z"/><path fill="#5371f4" d="M17.6782475 7.7595115c-1507e-7.0469832-2995e-7.0939655-4501e-7.1409488-.0064049.0211806-.0016117.0428891-.0030231.0643086-.0021629.032824-.0135422.0398583-.038929.0200329-.0287189-.0224271-.0564613-.0466485-.0827389-.071732-.1321201-.1261158-.2687626-.2473025-.4036942-.3702922-.1704922-.1554031-.3390636-.3129435-.5121002-.4655719-.048481-.0427647-.0911827-.0921149-.1462841-.1272817-.0769539-.1768575-.2190781-.2698507-.4010277-.3116007-.0964947-.0913014-.194787-.1806302-.2932568-.2697978-.1082993-.0980682-.2134533-.1996446-.325182-.2938681-.0199842-.0168524-.0276957-.0343585-.0269728-.0598378 7906e-7-.0279756.0044155-.056365-.0026131-.0842156-5827e-7-.0247941-.0015955-.0495858-.0016661-.0743809-2251e-7-.0787215-896e-7-.0787225.0797386-.0744658.0853882.0790896.1721668.1566567.25807.2351704.1448269.1323671.289732.2646418.4347687.3967738.0884972.0806231.1768589.1614504.2650967.2423854.1409092.1292443.281786.2585111.4238491.3865042.0815144.073442.1628456.1472034.2431507.2219315.16679.1552052.336895.3067541.5040951.4614849C17.660059 7.7361703 17.6725254 7.7448502 17.6782475 7.7595115z"/><path fill="#5077f4" d="M17.6782455 7.7595115c-.0522346-.0248985-.0868206-.0716467-.1293068-.1080818-.0994473-.0852809-.192276-.1782203-.2892704-.2664275-.1680374-.1528144-.3376141-.303936-.5057259-.4566693-.0945759-.0859246-.1868725-.1743517-.2813206-.2604175-.1752586-.1597066-.3515148-.3183141-.5269966-.4777756-.0847197-.0769858-.1687202-.1547637-.2528543-.2323918-.04879-.0450187-.0974035-.0902348-.1456366-.135848-.0118074-.0111647-.0265989-.0210333-.0270863-.0401425.0999928.0.1999874 5e-7.2999802 14e-7.1234255.1063156.2410011.2190914.3621368.3279119.1335087.1199355.2649193.2421594.3983536.3621793.0889378.0799947.177002.1610684.265049.2421007.1418266.1305242.2849941.2595735.427351.3895054.0908241.0828977.1826267.1648068.27145.2498388.0443649.0424724.0972157.075994.1338768.1265459C17.6782455 7.5730643 17.6782455 7.6662884 17.6782455 7.7595115z"/><path fill="#6447f4" d="M16.4099751 9.2801628c-.0186863-.0510674-.064703-.078639-.1008396-.113966-.0496941-.0485811-.1047001-.0916719-.1559734-.1387053-.1724386-.1581879-.343997-.3173389-.5163603-.4756117-.1099644-.100976-.2205305-.2013035-.3312244-.3014812-.1696911-.1535692-.3400087-.3064466-.5094986-.4602375-.0884972-.0802994-.176774-.1608915-.2633076-.2432871-.0648241-.0617261-.1379814-.114975-.1926985-.1871119.0599957-14e-7.1199903-24e-7.179986-29e-7.0828981.0792489.1691837.1547923.2537451.2322202.1422682.1302671.2842121.2608705.4277048.3898096.0803738.0722232.1567593.1488824.2406988.2171874.0941038.1926222.2612114.2617178.4623318.2719603.0513334.002614.1028614.0013781.1543026.0019112-.0132198.0344896-.0492153.006813-.0739975.0303211.0475903.040803.0921783.0845299.1388779.1254807.0937786.0822392.1850777.1672354.2768421.2515726.1016026.0933819.2067604.1830101.304285.2808218.0135193.0135612.0339546.0237465.0252476.0488701C16.6263924 9.247015 16.519556 9.2698355 16.4099751 9.2801628z"/><path fill="#4d80f4" d="M10.2388601 5.1971431c.2862749.3784761.5725107.7569823.8588533 1.1354065.0668545.0883532.1342707.17628.2009268.264781.0109158.0144916.0190592.0312395.041791.0223651.0162439.0623055.0117903.1267147.019228.1899352.0109539.0931001.0206556.186347.0308905.279532.0081453.0342574-.0113707.028173-.0292492.0185337-.0163879-.0088353-.0252829-.0261898-.0361757-.0408082-.2567282-.3445053-.517355-.6860757-.775466-1.0295405-.1030302-.1371031-.2039824-.2759013-.3109007-.4099312-.0489683-.0613871-.0766649-.1217828-.0490761-.1990604C10.2006931 5.350141 10.2146235 5.2725458 10.2388601 5.1971431z"
		/><path fill="#6740f4" d="M15.7700129 9.2990789c-.0026655-.0226974-.0144815-.0404358-.0309153-.0552864-.1327209-.1199455-.2655287-.2397957-.3983564-.3596239-.0443163-.039979-.086483-.0821514-.1311855-.1218891-.1362734-.1211386-.2680941-.2472706-.4026299-.3703852-.1417818-.1297455-.2848711-.2580595-.4268427-.3875971-.0146866-.0134001-.0376606-.0142269-.0475035-.0337639-.0065966-.093523-.0059338-.1871138-.002593-.2807293.0620079.0289369.1003313.0862575.1509609.128767.1016331.0853324.1949358.1805067.2932396.2699003.1669445.1518126.3355503.301795.5025663.4535294.0958824.0871096.1897306.1764526.2849865.2642584.1744967.1608467.3494329.3212147.5238829.48211.0111294.0102654.023428.0111418.0368443.0112295.0299911 1955e-7.0599823 5131e-7.0899887 783e-6-.0722294.0161085-.1456337.0084772-.2184324.0088329C15.9193459 9.3095789 15.8440914 9.3148565 15.7700129 9.2990789z"/><path fill="#4d80f4" d="M10.189682 5.4283562c-.0337238.1333799.0733156.2036014.1362085.289772.1950846.2672873.3965664.5299058.5956211.7942958.1443167.1916866.2885303.3834519.4336395.5745363.0073881.0097299.0213594.0429769.0353966.0022044.0253372.0549936.0147018.1161027.0296144.1730614.0152311.0581803.0273752.1171675.0408726.1757975.0019388.020927.0038757.0418558.0059204.0639486-.0366869 3967e-7-.0448723-.0330482-.0600176-.0531011-.2585096-.3422723-.5152597-.6858726-.7728395-1.0288477-.1422119-.1893606-.2844343-.3787284-.428936-.5663342-.0178986-.0232382-.0292244-.0574651-.0653639-.0635891C10.144311 5.6678486 10.161334 5.5473218 10.189682 5.4283562z"/><path fill="#4d7ff4" d="M16.0495968 5.7718468c.0632896-.0144653.1265812-.0289311.1898708-.0433974.0617561.0430584.1130886.0983005.1677608.1490574.2110023.1958818.4254951.3879352.637207.5830302.1835289.1691217.369009.336195.5529499.5049138.0135708.0124464.0299397.0211968.0428333.034359.0206184.0708513.0315552.1430693.0306377.2169614.0034008.0223517.0156498.0518169-.0058384.0641661-.0241356.0138741-.0398598-.0158558-.0564766-.0305996-.1754341-.1556468-.3472214-.3153262-.5206909-.4731369-.1316357-.1197538-.2623787-.2405481-.3939495-.3603849-.1352463-.1231818-.2695141-.2474422-.4058876-.3694134-.0805626-.0720534-.1586399-.146915-.2395992-.2186303C16.030611 5.8130016 16.0008183 5.7896004 16.0495968 5.7718468z"/><path fill="#4a86f4" d="M17.6402187 6.9998097c-.01581.0013838-.0285034-.0036821-.040514-.0147676-.0767441-.0708408-.1539841-.1411443-.2311993-.211472-.185051-.168539-.3703709-.3367834-.555191-.5055733-.0893993-.081645-.1776066-.1645927-.266922-.2463303-.0965843-.0883923-.1936874-.1762209-.2910213-.2637868-.009409-.0084639-.0152626-.0170851-.0159035-.029429.0667572-.0383.1357918-.0733495.1883678-.1319008.0179291 9904e-7.0309238.0115933.0429173.023159.1302547.1256137.2687092.2423458.3987904.3681259.0286942.0277452.0634766.0485969.0892506.0794182.011034.0131965.0303802.0228963.0224304.0456386-.0283604.0125232-.0567207.0250463-.0871601.0384889.010128.0247369.0331631.0234189.0497322.030004.3614292.1436687.5985451.3971868.6907578.779222C17.6376381 6.9733853 17.638382 6.9867296 17.6402187 6.9998097z"/><path fill="#4b85f4" d="M14.4393759 4.1689444c.0337095-.0995131.0835114-.1902192.1490593-.2723069.108758.0923359.2109547.1919112.3169355.287312.1504602.135438.2986202.273407.4489155.4090347.0151529.0136733.0282965.0121074.0442238.007637-.0145626.1428099-.0049038.2861915-.0101318.4292216-.0448818.0039163-.0685701-.0322371-.0943308-.0566549-.1325903-.1256733-.2698154-.2462506-.4043579-.3697276-.1296082-.118948-.2582588-.2390499-.3904991-.3551817C14.4745817 4.2266669 14.4391518 4.2104149 14.4393759 4.1689444z"
		/><path fill="#614df4" d="M16.7300968 9.2099142c-.0347633-.0514355-.0837135-.0894709-.1280975-.1312532-.0905037-.0851974-.184967-.1661787-.2773132-.2494364-.1071701-.0966234-.2138348-.1938086-.3206558-.2908201-.00739-.006712-.0146084-.0136881-.0212584-.021121-.0074682-.0083427-.0217943-.0153961-.0173922-.027812.0058146-.0163984.0229416-.0078754.0352173-.0096407.019352-.0027819.04006.0057449.0582466-.0069847.1034203-.0101604.2025585-.0339909.2912216-.0912437.0876217.0811577.1760921.1613789.2648048.2413435.1577091.1421595.3094215.2909756.4733124.4262772C16.9780064 9.1232529 16.8582916 9.1760302 16.7300968 9.2099142z"
		/><path fill="#5e56f4" d="M17.0881824 9.0492229c-.0464973-.0059824-.0726662-.042902-.1035805-.070857-.0969925-.0877075-.1915379-.1781158-.2879391-.2664881-.104845-.0961132-.2108784-.1909351-.3159218-.2868376-.0130539-.0119171-.0297394-.0224533-.0306759-.0434389.0980263-.0741749.1464806-.17875.179554-.2927561.0514202.0703764.1216698.1219501.1850243.1797667.0918541.0838261.1831512.1683683.2760201.2511559.1101646.0982065.2167301.2004538.3282318.2972336.0075951.0065928.0143871.0137587.0192604.0226164C17.2696686 8.9271793 17.1833019 8.9934196 17.0881824 9.0492229z"/><path fill="#4e7cf4" d="M16.0495968 5.7718468c-.0208912.013834-.0184402.0267482-7114e-7.0424891.0892467.0792494.1775742.1595354.26688.2387171.0434532.0385299.0851326.0789866.1282578.1178751.1799335.1622462.3552303.3296294.5349483.4921203.1538239.1390781.308218.2774749.4592381.4196272.0639706.0602145.1304359.117785.196022.1762753.0080605.0071902.0143623.0213861.0283222.0147839.0107994-.0051074.0065365-.0174932.0072422-.026978 7362e-7-.009953 7362e-7-.0199604.0010605-.0299644.0164909.087275.0073547.1752911.0073891.2630486-.0452518-.016654-.0731754-.0563631-.1070766-.0863304-.1391659-.1230249-.2733536-.2516594-.4102039-.3773251-.1941948-.1783237-.3890247-.3559542-.583765-.5336795-.1089821-.0994611-.2180958-.1987801-.3275757-.2976894-.1315842-.1188779-.2637806-.2370782-.3952389-.3560939-.0143251-.012969-.0327959-.0241313-.0343571-.0469637C15.8965511 5.7784548 15.9730749 5.7751508 16.0495968 5.7718468z"
		/><path fill="#4e7cf4" d="M14.4393759 4.1689444c.0482492.0667052.1162481.1135511.1760435.1678538.0513067.0465932.101759.0947843.1541328.1405196.1373262.1199222.2664223.2492733.4038696.3690486.0709267.0618091.1302147.1378131.2149563.1834769.0048304.0901651.0048304.090313-.0844221.0900755-.0315018-834e-7-.0630007-.001081-.0945015-.0016603-.0478783-.0071812-.0960588-.0028958-.1440392-.0025702-.0255404 1736e-7-.0422173-.0092039-.0606232-.0263104-.1361599-.126543-.2737141-.2515845-.4113531-.3765297-.0737505-.0669484-.1474276-.1340165-.2199507-.2023277-.0163813-.0154319-.0228195-.032023-.0144262-.0533977C14.3709364 4.3569126 14.3971205 4.2606893 14.4393759 4.1689444z"/><path fill="#5767f4" d="M17.6386223 8.2395096c-.0089607.0809803-.0405865.1551418-.0692787.2301865-.019352.0133896-.0307426-.0025387-.0430927-.0123672-.0638847-.0508413-.1226482-.1076813-.1822281-.1631556-.210741-.1962185-.4259872-.3874946-.6372948-.5830889-.0449333-.041594-.0864563-.0880313-.1387177-.121624C16.5588207 7.5835528 16.5541 7.5754619 16.5550594 7.5642776c1431e-7-.0874386 95e-7-.1747789 572e-7-.2620683-172e-7-.0079274 38e-7-.0159059-153e-7-.0238042.0203362-.0269113.0361862-.0014148.0478153.0078354.0376148.0299201.0741367.0615487.1091652.0944862.2092209.1967511.4241123.3873153.6351547.5820842.0877438.0809789.1736145.1643195.2661819.2400575C17.6254864 8.2127419 17.6315861 8.2263632 17.6386223 8.2395096z"
		/><path fill="#4496f4" d="M15.2098236 3.4517987c-.0115404.0234866.0040569.0376139.0186987.0509913.1074495.0981655.214819.1964254.3229551.293833.1266394.1140761.2555122.2257268.3759174.3465245.0161018.0161538.0344982.0161624.0546246.0175352.0324917.0022168.066143-.0088067.0974483.0077806-.130785-.001914-.2615852-.006381-.3875999.0406756-.0245295.00916-.0474901.0205088-.0708714.0315518-.0239906.0122929-.0374231-.0057664-.0512543-.0190983-.1701193-.1639657-.3499241-.3173971-.5216255-.4796658-.0362129-.0342224-.0760298-.0647902-.1097584-.1017416-.0127954-.0140171-.0322495-.0268235-.0187778-.0510283C15.0107317 3.5315495 15.1059837 3.4826031 15.2098236 3.4517987z"/><path fill="#5961f4" d="M16.5610199 7.5797963c.0159798-.0013475.0282688.0048256.0400505.01583.0908051.0848093.1814785.1697745.2733727.2533946.1726265.1570826.3461246.3132057.5190773.4699287.0454197.0411577.0901585.0830688.1352425.1245985.012001.0110569.0214157.0261879.0405807.0261478-.0229359.0721569-.0564079.1389713-.1014099.1999378-.0219765.013361-.0342922-.0051527-.0472641-.0159702-.104866-.0874481-.2022762-.1831903-.3037834-.274395-.1398888-.1256876-.2769966-.2544422-.4174671-.3794975-.0422611-.0376215-.0799961-.0802736-.1265163-.1131988-.0096149-.0068069-.0178432-.0160069-.0174294-.0288577C16.5584393 7.7650957 16.547657 7.6722007 16.5610199 7.5797963z"/><path fill="#4495f4" d="M17.5208893 5.6602902c-.0350094.0719705-.0815296.135469-.1400013.1901674-.0233517.0137691-.0375099-.0051827-.0526104-.0161891-.0552254-.0402536-.1016121-.0907693-.1515942-.1368227-.1722431-.1587019-.3486061-.3129268-.5178299-.4749074-.0048141-.0046082.0019817-2141e-7-.0037403-.0032225-.0929241-.0488544-.1122265-.1285543-.1010933-.2256312.0064049-.0558386 3853e-7-.1129432.0016422-.1694527.0248413-.0178947.0404015.0025554.054615.0159154.1272068.1195698.2573261.2359753.3863277.3535528.131443.1198072.260376.2424517.3954639.3582282C17.4346638 5.5884366 17.4662266 5.6381407 17.5208893 5.6602902z"/><path fill="#429bf4" d="M17.5208893 5.6602902c-.0253277.0119166-.0400829-.0054111-.0559082-.0200839-.1371574-.1271834-.2738953-.2548256-.4116535-.3813567-.1498661-.1376505-.3005753-.274384-.451313-.4110785-.0120773-.0109525-.0272331-.018507-.0409603-.0276408-.014967-.0320339.0013752-.066956-.0091705-.0993981-.0099964-.0634923-.0199909-.1269851-.0299873-.1904778.0161858-.0015068.0281563.005537.039835.0164709.0945072.0884728.1887035.1773024.2844677.2644014.1692715.1539559.3399048.3064146.5092926.4602447.0614586.0558152.1212234.1135125.181242.1708922.0182419.0174417.0358067.0349679.0625706.0378675C17.5859165 5.5457335 17.5566826 5.6044388 17.5208893 5.6602902z"/><path fill="#5b5cf4" d="M16.5610199 7.5797963c-3471e-7.0831556 3281e-7.1663361-.0016689.2494521-5989e-7.02496.0107441.038415.02775.0536327.109869.0983281.2186241.1979008.3279057.2968903.1767941.1601467.3536625.3202124.5308018.4799805.0057049.005146.014677.006669.0221252.009882-.0316963.0654888-.07724.1204052-.1297779.1699839-.0304718-.0104609-.0533409-.0323029-.0761356-.0532904-.1375923-.1266899-.273962-.254714-.4119511-.3809671-.0890255-.0814524-.1808147-.1598835-.2697926-.2413845-.0221004-.0202427-.0536804-.0368156-.0506554-.0751276.0412464-.2470789.0159512-.4961839.022707-.7443118 4959e-7-.0181885.001091-.0363736.0016403-.0545607.0017719-224e-7.0035458-443e-7.0053177-653e-7C16.559864 7.386539 16.560442 7.4831676 16.5610199 7.5797963z"/><path fill="#488cf4" d="M15.39851 4.6006212c-.0111351.0305953-.0271626.0242271-.0461807.006988-.0661383-.0599489-.1330376-.1190629-.199008-.1791945-.1833324-.1671062-.3662777-.3346386-.549674-.5016735-.0094471-.0086052-.0135002-.0183671-.0152111-.0300984.0435438-.0685179.0985565-.1266572.1610622-.1780174.1407747.1410568.2933922.2693505.4380922.4062209.0771694.0729909.1593685.1407099.234663.2158222.0162334.0161929.0375481.0204186.0567207.0297832-.0248451.0554471-.0496054.1107273-.0690269.1686387C15.4029007 4.5601006 15.4064817 4.5810747 15.39851 4.6006212z"/><path fill="#4691f4" d="M16.5518837 4.7207322c.0167847.0318694.0034637.0665092.0091591.0993991-3357e-7.0730691.0047226.1466894-.0026417.2190452-.0065536.0643897.016386.1076818.0669403.1408443C16.685421 5.2194314 16.730938 5.2751851 16.78442 5.3219976c.1369572.1198797.2662182.2485518.4031811.3684249.0547371.0479064.1015797.1046858.1626549.1455011.0097771.0065331.0181694.0143366.0306301.0145335-.0515156.0606146-.1123505.1099281-.1812592.1494532-.0442142-.0066261-.0702171-.0413961-.0991592-.0686984-.172699-.1629176-.3532467-.3172979-.5235958-.4826908-.016367-.0158906-.0481262-.0180135-.0477715-.049922C16.5719299 5.1738276 16.5454617 4.9467273 16.5518837 4.7207322z"/><path fill="#4691f4" d="M15.4789743 4.3704519c-.0265503.0167975-.0437536-.0015211-.0606565-.0171409-.1376324-.1271906-.2747917-.2548914-.412488-.3820119-.0755072-.0697093-.1519184-.1384394-.2275658-.207998-.0132256-.0121613-.0287399-.023653-.0287657-.0446742C14.79951 3.6666923 14.8578739 3.62573 14.9195805 3.5891576c.0166941.0502608.0613003.0772393.0966272.1105509.097393.0918369.1987495.1794541.2976265.2697392.0928669.0847955.1846189.1708107.2766991.256464.0088263.0082121.018013.0145664.0304623.0147781C15.5689096 4.2787514 15.5178967 4.3179851 15.4789743 4.3704519z"/><path fill="#624bf4" d="M15.3883772 7.6798172c8717e-7.102304.0017424.2046089.0026121.3069129.0031939.0155997.0134897.0353274-.006258.0437436-.0161314.006875-.0314493-.0072155-.0435848-.0186605-.076148-.0718198-.155344-.1402922-.2321739-.2113333-.1390324-.1285577-.2792625-.255794-.4191847-.3833718-.016902-.0154114-.0380707-.028769-.0297289-.0573359.1266651-33e-7.2533312-62e-7.3799963-1e-5C15.1557369 7.4669108 15.2742968 7.5709267 15.3883772 7.6798172z"/><path fill="#488bf4" d="M16.5291004 5.3985991c.10993.0847073.206089.1848822.3100128.2763615.1214294.1068897.240448.2165132.3605137.3249502-.066246.0503287-.1410179.0841799-.2184048.1129785-.0526848-.0734715-.1305904-.120914-.1919956-.1857338-.0451488-.047657-.0993042-.0866618-.1479492-.1311584-.0718422-.0657167-.1423569-.1328878-.2134418-.1994433C16.4729614 5.5363827 16.5045776 5.4693046 16.5291004 5.3985991z"
		/><path fill="#556cf4" d="M17.6386223 8.2395096C17.51614 8.13797 17.4023514 8.0268202 17.2847309 7.9198985c-.1690617-.1536856-.3399601-.3053637-.5082741-.4598589-.0707588-.064949-.1371288-.1346679-.216156-.1901512-.0096664-.0078826-.0016937-.0207429-.0083218-.0294828-.0069828-.0534158-.0139656-.1068316-.0209503-.1602478.0667267.0298624.1116028.0872912.1636639.1344752.1872845.169735.3744583.3396363.5603676.5108685.1356697.1249571.2760792.2448463.4063816.3756118C17.66576 8.1492109 17.6427746 8.1928082 17.6386223 8.2395096z"/><path fill="#5176f4" d="M14.3590622 4.4571228c.0012426.0148268.0022154.0283818.0152254.040216.1484737.1350541.2956095.271584.444622.4060364.0713692.0643959.1457701.1254745.2113791.1959901.0139837.015029.0305958.0091496.0464697.0108066.0441141.0046043.0893688-.0094814.1326962.0080872C15.1027918 5.118257 14.99613 5.1182556 14.8894672 5.1182551c-.0495281-.0073223-.0993385-.0023413-.1489944-.002727-.024929-1936e-7-.0449104-.0070086-.0625668-.0245814-.1117945-.1112647-.2312155-.2142878-.3475008-.3207035C14.3273115 4.6647124 14.3341579 4.560092 14.3590622 4.4571228z"/><path fill="#546df4" d="M17.6614418 8.1011133c-.046875-.0142851-.0731106-.0561552-.1076717-.0854654-.0972576-.08248-.1877346-.1728992-.2821388-.2588086-.1714973-.1560602-.3442497-.3107429-.5157681-.4667797-.0758362-.0689893-.1499443-.1398768-.2248344-.2099023-.0133343-.0434113-.0266685-.0868225-.0400028-.1302333.0280056-.0022764.0478382.0157509.064785.0322509.0795612.0774636.1632843.1502471.2455902.2246594.1891003.1709638.3771133.3431325.5652962.5151091.0867958.07932.1728306.1594729.2595673.2388587.0103874.0095091.0184631.029325.0347996.0228286.0168324-.0066934.0066757-.0265222.0086689-.0404677.0020561-.0143809-.003973-.0301995.0080643-.0427041.0040665.0504293-6332e-7.1002908-.0096989.1498685-.0081081.015995.0016899.0346155-.0074043.0504646L17.6614418 8.1011133z"/><path fill="#556bf4" d="M15.4419756 5.930604c-.0165558.1245828.0890255.1713929.1563025.2410827.0457592.0473986.1002083.0862756.1488142.1310863.105998.0977206.210844.1966944.3158751.2954607.0118198.0111151.0265102.0210347.0270329.0400901-.0502052-.0067701-.1004066-.0135398-.15061-.0203094-.0495024-.0072227-.0992765-.0015922-.1489086-.0029707-.0169163-4692e-7-.0317678-.001852-.045661-.0143905-.0947495-.085505-.1855364-.175415-.284071-.2566895-.0151186-.0124702-.0153313-.0276656-.0157547-.0445514C15.4436722 6.24647 15.4489717 6.193397 15.4419546 6.1405735 15.4419622 6.0705833 15.441968 6.0005941 15.4419756 5.930604z"/><path fill="#6447f4" d="M14.660059 7.3597722c.0334597.0590963.0898285.0970178.1387615.1398444.0535374.0468554.1038551.09724.1575527.1439581.1336679.116292.2616377.2391291.3918381.3594007.0097866.0090408.0201473.0222292.0333557.0182858.0162716-.0048571.0051756-.0229974.0094204-.0345106.0153513.0711441.0226412.1442528.0512171.2122269-.0214167-582e-7-.0377188-.0108967-.0526848-.0247736-.1373625-.1273756-.2741241-.2554088-.412323-.3818703-.1368608-.1252356-.2751951-.2488642-.4128475-.3732367-.0186434-.0168457-.0352983-.0352521-.0442905-.0593371C14.5667257 7.3597636 14.6133919 7.3597679 14.660059 7.3597722z"
		/><path fill="#5371f4" d="M14.3304043 4.7702432c.0189428.002048.0345449.0109539.0482187.023675.0969725.0902209.1958103.1785636.289876.2717218.0337973.0334711.0668545.0479674.1135759.0457253.0354204-.0016994.072649-.0100899.1073933.0068903-.1763783 5612e-7-.3527565 8578e-7-.52913.0020103-.0226898 1483e-7-.0330591-.006042-.0326767-.0307083C14.3293104 4.9831309 14.3296118 4.8766832 14.3304043 4.7702432z"
		/><path fill="#5f52f4" d="M15.3883772 7.6798172c-.0263557-.0037537-.043437-.0242724-.0609207-.0397153-.0887127-.0783572-.1749907-.1594758-.2618494-.2399211-.0118847-.0110064-.0258741-.0213828-.0255518-.0404186.1048832-6623e-7.2097836-4382e-7.3146372-.0025544.0295753-5965e-7.0363178.010879.0358124.037931C15.388731 7.4900117 15.3889294 7.5849218 15.3883772 7.6798172z"/><path fill="#5766f3" d="M15.4419546 6.1405735c.0172777.0484591.0052986.0985379.0073738.147799.0010061.023869.0087023.0367761.0283298.0521331.0521345.0407925.1003399.0867028.1491632.1316051.0451603.0415316.0897179.0837688.1332188.127027.0145035.0144215.0306807.0091228.0465651.0107741.0441446.0045905.0894279-.0094433.1327848.0081029-.153017-195e-6-.3060369-9909e-7-.4590464-529e-7-.0289516 1774e-7-.0412588-.0061178-.0407906-.0383668C15.4416752 6.4332738 15.4413795 6.2869172 15.4419546 6.1405735z"
		/><path fill="#5175f4" d="M10.1021214 6.5604591c.0135231.0630026.01367.1259995-734e-7.1889911C10.1020737 6.6864524 10.1020975 6.623456 10.1021214 6.5604591z"/><path fill="#3fa2f4" d="M16.2125816 3.3396082c-.0540447-.0023131-.1087379.0095658-.162117-.0073867C16.1046524 3.3314507 16.1590347 3.3263686 16.2125816 3.3396082z"/><path fill="#3fa2f4" d="M17.6780853 4.769835c-.0172939-.0435333-.0047836-.0886679-.0071487-.1330261C17.6842442 4.6805487 17.6788826 4.7253146 17.6780853 4.769835z"/><path fill="#5961f4" d="M16.5519791 7.2404056c.0098991.0078182.007494.0191054.0083179.0294828-3281e-7.0066738-6618e-7.0133471-.0010033.0200219-.0017815-76e-7-.0035534 138e-7-.0053253 644e-7C16.5533066 7.2734518 16.5526428 7.2569289 16.5519791 7.2404056z"/><path fill="#556cf4" d="M17.6606941 8.1007919c.0010166-.0170345-.0066261-.0353403.0074043-.0504646C17.6685543 8.0675783 17.6726646 8.0853653 17.6606941 8.1007919z"/></g></svg>