<svg id="Слой_1" xmlns="http://www.w3.org/2000/svg" xmlns:xlink="http://www.w3.org/1999/xlink" viewBox="0 0 32 13" enable-background="new 0 0 32 13" width="32" height="13"><g><path fill="#292929" d="M9.5187159 5.8302827c.0105972-.1013179.0157518-.2035766.0330639-.3037343.0262403-.1518226.0525961-.303659.087678-.4540834.0433931-.1860609.0920687-.3701568.150568-.5520692.0552921-.1719398.1158361-.3421106.1872854-.5074916.0683279-.1581564.1393452-.3153203.2224092-.4673138.1216345-.2225704.2472105-.4424016.3915434-.6508293.1254702-.1811883.2592239-.3557835.4036045-.523279.1590872-.1845579.3255348-.3612685.5019445-.5284917.1397772-.132498.2844343-.2601064.4406519-.3736682.0118885-.0086427.0219631-.0197824.0328798-.0297616.0147743-.0071304.025692-.0194442.0387735-.0288506.1554985-.1191834.3156214-.2323105.4828415-.3338943.4818916-.2927403.9901257-.5290112 1.5293941-.6963909.704113-.2185442 1.425128-.3198001 2.1616583-.2968632 1.2844086.0399989 2.4635429.4123952 3.5290909 1.1350377.0927792.0629232.1837082.1285759.2754974.1929607.0161915.0074182.0290756.0191348.0412807.0317372.0123768.0179662.0289593.0304682.0493717.0379958.015295.0086333.0292091.018976.0403976.0326849.1038551.0950238.2144585.1821818.3183975.2773143.1364403.1248842.2672539.2553177.3937092.3898048.1519756.1616309.2926807.3332229.4254646.51124.2456646.3293412.4593658.6780407.6367016 1.0486736.201004.4201081.356163.8561523.4577847 1.311322.0527325.2362156.09552.4736381.1192455.7144961.0021019.0213208.007473.0423203.0113239.0634689.0083408.0200629-.0025139.0424433.0075245.0623012 7992e-7.0158901.0015965.0317802.0023956.0476704.0084782.0242033-.0021839.0503039.0073776.0744004 8907e-7.0251927.0017834.0503864.0026779.0755792.009409.0374274-.0035114.0763021.0073681.1136346 19e-7.160738 38e-7.3214769 95e-7.4822149-.0108967.0373402.0020332.0762267-.0073776.1136637-8907e-7.0251942-.0017834.0503888-.0026741.075583-.0095654.0240936.0010891.0501924-.0073738.0743957-7992e-7.0158868-.0016003.031774-.0023975.0476608-.0100479.0198612 8106e-7.0422463-.0075264.0623136-.0407448.3333039-.0937061.6642308-.1812134.9891176-.1202984.44664-.2850914.8757315-.5000362 1.285347-.1864204.355257-.4046783.6894808-.6532364 1.0048828-.2072811.2630205-.4371605.5042658-.6801739.7333374-.1119328.1055126-.2317333.2026796-.3479671.3036299-.0111942.0137119-.0251064.0240612-.040411.0326958-.0990372.0714054-.1977787.1432266-.2971725.2141342-.2414665.1722603-.49576.3231497-.7594814.4588156-.2119789.1090422-.4291325.2059183-.6518974.2905207-.0106354.0040407-.0199547.0115499-.0298862.0174427-.0159283.0120087-.0354156.0135288-.0538101.0182743-.0117016-.002882-.01791.0066185-.0261269.011591-.0328979.0288916-.0782795.0204411-.1148396.0383816-.029213.0075703-.0587807.0141439-.0849609.0302343-.0550709.0131388-.105341.0420475-.1621799.0493774l.0011635-7782e-7c-.0219002.0127249-.0473843.0134869-.0707836.0212049l.0010548-6123e-7c-.0225563.011095-.0474129.0140982-.0713711.0202608l.0011578-7591e-7c-.1622124.0485287-.3275127.0837984-.4932175.1180077-.09729.0200872-.1955471.0351143-.2930107.0538216-.0654278.0125589-.1331615.0230656-.2007599.0269518-.0393047.0022593-.0784111.0081491-.1174965.0116968-.1132126.010273-.2257118.0262547-.339901.0170603-.0195446-.0015745-.0399342-.0037022-.0592651.003808-.1703033 19e-7-.3406067 57e-7-.5109091 86e-7-.0478563-.0065069-.0957642-.0080948-.1433859.0011883-.0133533.0026035-.0264044.0035725-.0395613.0014505-.1204443-.0194187-.2431173-.0179234-.3634205-.0363426-.2104235-.0322199-.4205198-.0671501-.6283312-.1139088-.1103878-.0248384-.2209883-.0492182-.3289471-.0837641l.001153 7706e-7c-.0239601-.0061569-.0488281-.0091248-.0713711-.0202742l.0010509 6256e-7c-.0234089-.0076933-.0488863-.0084753-.0707922-.0211887l.0011539 7763e-7c-.0568352-.0073404-.1071024-.0362434-.1621704-.0493803-.0299091-.0096579-.0598192-.0193148-.0897264-.0289726-.0333195-.0225716-.0793352-.0098991-.1100712-.0396442-.0100737-.0037699-.0229311 679e-6-.0305462-.0103493-.0157518-.0083055-.0349588-.0078707-.0493898-.019516-.1216354-.0400982-.2382774-.0927-.3554354-.1437626-.0686264-.0299101-.1350336-.0649109-.2024374-.0976229-.0156231-.0023317-.0292139-.0093756-.0420589-.0181475-.0140429-.0068474-.0280876-.0136957-.0421305-.0205441-.0216141-.005373-.0426311-.0119152-.0579557-.0295992-.2062664-.1081934-.4073572-.2253819-.6022701-.3527927-.151392-.0989628-.2998619-.2023134-.4393864-.3178453-.0126638-.0098515-.0238075-.0216885-.0382061-.0292778-.2389641-.1884727-.4610395-.3957186-.6688213-.6174841-.1732693-.1849298-.3380527-.3773031-.4885082-.5822611-.1149454-.1565857-.2231131-.3174219-.3247976-.4822712-.0713377-.115653-.1348581-.2365513-.1999311-.3562393-.0810843-.1491365-.1524801-.302577-.2177973-.4586496-.0652876-.156002-.1230259-.315052-.1778231-.4753819C9.7400827 8.2247381 9.6895275 8.0384645 9.6438904 7.8513718 9.6131773 7.7254634 9.5917606 7.596293 9.5704823 7.4676533c-.0181084-.1094685-.0264006-.2202702-.04848-.3291645C9.5169868 7.1137509 9.5249214 7.0859237 9.5187159 7.0597305 9.5104179 7.0396113 9.5211763 7.0172062 9.5112238 6.9972858 9.510416 6.9814434 9.5096083 6.9656005 9.5088005 6.9497581 9.5003281 6.9255424 9.5109863 6.8994288 9.5014143 6.8753228c-8955e-7-.0251827-.001791-.0503659-.0026865-.0755486C9.4893751 6.7622848 9.5022211 6.7233624 9.4913816 6.6859684 9.4913788 6.5253315 9.4913759 6.3646941 9.4913731 6.2040572c.0108566-.0373964-.0020008-.0763259.0073547-.1138191C9.4996214 6.0650549 9.500515 6.0398722 9.5014095 6.0146894c.0095825-.0241051-.0010843-.0502205.007391-.0744352C9.5096073 5.9244103 9.5104151 5.908566 9.5112228 5.8927221 9.5211782 5.8728042 9.510417 5.8504 9.5187159 5.8302827z"/><path fill="#fefefe" d="M16.2554588 12.8081598c.1175041-.0091257.2350807-.0173998.3524971-.0275326.3765068-.0324879.7470264-.0991526 1.1121254-.1964149.0127602-.0033989.0260048-.0049706.0390263-.0073957-.0298061.0279331-.0702076.0248909-.1057796.0357084-.1500473.0456314-.3052635.0699835-.4574757.1068354-.0598221.0144825-.1239891.01789-.1854591.0331736-.0155067.0038557-.0204296.0130711-.0303974.0196447-.0107822.0071135-.0240612.0207939-.0354156.0119524-.0477734-.0371971-.0829792 6132e-7-.1261692.0102758-.0385914.0086355-.0857315.0259895-.1186924.0187969-.0343266-.0074911-.0543957-.0140238-.0777721.0130787-.0024624.0028553-.0106831.0040894-.0141582.0022211-.0462494-.0248661-.0867405-.0210247-.1330166.0079594-.0220184.0137892-.0580807.0024328-.0880184-.0172815C16.3482475 12.7938242 16.2993565 12.8146076 16.2554588 12.8081598z"/><path fill="#fefefe" d="M14.2409039 12.5767918c.1697969.0386429.3382807.0826664.5097179.1145782.3125982.0581875.6271496.0973625.9449301.1101418.0163774 659e-6.03263.0043583.0489693.006649-.0543337.0060577-.1095285-.0087767-.1629944.0255337-.0255089.0163689-.0719404.0190048-.098691-.0191317-.0139284-.0198593-.0288887-.0193529-.0451536-.0027504-.0034208.0034924-.0078402.0060806-.0120173.0087442-.0401735.0256271-.0676069-.0273609-.0879889-.022315-.0307503.0076113-.0542173.0367298-.0830717-.0013218-.0049095-.0064716-.0129662-.0187502-.0177822-.013382-.0500479.0557833-.0827379-.0276031-.1269445-.0151463-.0031281 8831e-7-.0099726-.0079584-.011919-.0068283-.0867586.050437-.1521187-.0315371-.231019-.0394897-.1960325-.0197573-.3869057-.0749025-.5782042-.1232386C14.2716904 12.5945292 14.252142 12.5942726 14.2409039 12.5767918z"/><path fill="#fefefe" d="M18.1450291 12.4578857c.0366287-.0177298.0746555-.0312843.1148396-.0383816.0038452.0334644-.0118885.0491543-.0426464.0362206C18.1909943 12.4446955 18.1690636 12.4643745 18.1450291 12.4578857z"/><path fill="#fefefe" d="M13.7401304 12.4195042c.0387383.0075312.0766697.0172987.1100712.0396442-.0255127-1793e-7-.0492163-.0116453-.0769939-.0018311C13.7431345 12.4679422 13.7384424 12.4435701 13.7401304 12.4195042z"/><path fill="#fefefe" d="M17.8978882 12.5374975c.0527954-.0206108.1060333-.0397711.1621799-.0493774C18.0063763 12.5057898 17.9609241 12.550518 17.8978882 12.5374975z"/><path fill="#fefefe" d="M13.9399281 12.4881201c.056139.0096149.1093817.028738.1621637.049386C14.0390682 12.5505037 13.9936161 12.5057898 13.9399281 12.4881201z"/><path fill="#fefefe" d="M12.9601765 12.0799627c.0230885.0024862.0426226.0119295.0579557.0295992C12.986865 12.1230869 12.9575176 12.1328535 12.9601765 12.0799627z"/><path fill="#fcfcfc" d="M9.4913816 6.6859684c.0098171.0374599.0079613.0756731.0073462.1138058C9.4817295 6.7627783 9.4931879 6.7239451 9.4913816 6.6859684z"/><path fill="#fcfcfc" d="M22.5012531 6.7997622c-6676e-7-.0380774-.0024071-.0762248.0073776-.1136441C22.5067406 6.7240233 22.5183334 6.7628236 22.5012531 6.7997622z"/><path fill="#fcfcfc" d="M9.4987278 6.0902381C9.4993391 6.1283607 9.5012283 6.1665664 9.491374 6.2040348 9.4931974 6.1660771 9.4817238 6.1272378 9.4987278 6.0902381z"/><path fill="#fcfcfc" d="M22.5086212 6.2038836c-.0097675-.0374045-.0080376-.0755539-.0073681-.1136351C22.5183277 6.1271801 22.506752 6.165967 22.5086212 6.2038836z"/><path fill="#fefefe" d="M13.6601944 12.3896389c.0188084 5722e-7.0362024.0047216.0493898.019516C13.6871872 12.4176626 13.6702604 12.4123297 13.6601944 12.3896389z"/><path fill="#fefefe" d="M18.2859955 12.4079132c.0165539-.0101614.03368-.0186405.0538101-.0182743C18.3288288 12.4162226 18.308424 12.4150467 18.2859955 12.4079132z"/><path fill="#fefefe" d="M14.1009445 12.536725c.0247593.0031719.0488453.0085983.0707874.0211906C14.1452961 12.5603476 14.1204014 12.5576181 14.1009445 12.536725z"/><path fill="#fefefe" d="M14.1706858 12.5572882c.0250092.0024586.04914.0080061.0713644.0202799C14.2154036 12.5808811 14.1907234 12.5772552 14.1706858 12.5572882z"/><path fill="#fefefe" d="M17.7579517 12.5775728c.0222988-.012002.04632-.0179424.0713711-.020257C17.8092728 12.5772381 17.7845993 12.5808821 17.7579517 12.5775728z"/><path fill="#fefefe" d="M17.8282681 12.5579243c.0219479-.0125618.0460148-.0180464.0707817-.0212021C17.8796005 12.5576172 17.8547039 12.5603371 17.8282681 12.5579243z"/><path fill="#fcfcfc" d="M9.5088005 5.9402542c864e-6.025125.0025702.050333-.0073862.0744104C9.5030298 5.9897933 9.4924145 5.9636841 9.5088005 5.9402542z"/><path fill="#fcfcfc" d="M22.4912052 6.9497409c-8602e-7-.0251107-.002512-.0503001.00737-.0743713C22.496973 6.900228 22.5076046 6.9263244 22.4912052 6.9497409z"/><path fill="#fcfcfc" d="M9.5014143 6.8753228c.0099554.0240679.0082493.0492935.0073862.0744352C9.4924135 6.9263272 9.5030279 6.9002185 9.5014143 6.8753228z"/><path fill="#fcfcfc" d="M22.4985752 6.0146699c-.009882-.0240645-.0082226-.049273-.0073776-.0744014C22.5076103 5.9636865 22.4969749 5.9897842 22.4985752 6.0146699z"/><path fill="#fcfcfc" d="M9.5187159 5.8302827c.0013409.0212698.0012207.0423651-.0074949.0624342C9.5125065 5.8717632 9.5033731 5.8495545 9.5187159 5.8302827z"/><path fill="#fcfcfc" d="M22.488802 5.8925991c-.0086708-.0200233-.0088463-.0410719-.0075207-.0623026C22.496624 5.849515 22.4874992 5.8716865 22.488802 5.8925991z"/><path fill="#fcfcfc" d="M11.8803139 11.3800468c.0186214.00208.0303984.0130892.0382061.0292778C11.8993311 11.4079876 11.8891325 11.3949165 11.8803139 11.3800468z"/><path fill="#fcfcfc" d="M20.0782433 11.4087257c.0134716-.0108986.0269413-.0217962.040411-.0326958C20.1127033 11.3962193 20.1002903 11.4084253 20.0782433 11.4087257z"/><path fill="#fcfcfc" d="M22.4812813 7.0597153c-.0013218-.0212307-.0011559-.0422816.0075264-.0623088C22.4874916 7.0183167 22.4966297 7.0404944 22.4812813 7.0597153z"/><path fill="#fefefe" d="M13.0602627 12.130106c.0173359-.0016336.0297289.0081825.0420589.0181475C13.0799494 12.1615591 13.0699558 12.1461802 13.0602627 12.130106z"/><path fill="#fcfcfc" d="M9.5112238 6.9972858C9.519949 7.017354 9.5200233 7.0384593 9.5187159 7.0597305 9.5033712 7.0404572 9.5125065 7.0182467 9.5112238 6.9972858z"/><path fill="#fcfcfc" d="M12.0091181 1.4107101c-.0076437.0167131-.0204563.0264791-.0387735.0288504C11.9794788 1.4248506 11.989748 1.4116651 12.0091181 1.4107101z"/><path fill="#fcfcfc" d="M20.1186504 1.5139781c-.0134659-.0108949-.0269318-.0217899-.0403976-.0326849C20.1002979 1.481586 20.1126995 1.4937968 20.1186504 1.5139781z"/><path fill="#fcfcfc" d="M20.0288811 1.4432975c-.0137615-.010579-.0275211-.021158-.0412807-.0317373C20.0098877 1.4110514 20.0221043 1.4236362 20.0288811 1.4432975z"/><path fill="#818181" d="M10.8927069 3.5591805c.0896387-.1669259.1996822-.3204846.3093624-.4743919.119503-.1676927.2543163-.322345.3932314-.4739664.2034273-.2220342.4220047-.4270914.6551619-.618028.2811241-.2302167.5870619-.4218285.9039955-.5960993.3455162-.1899866.7086468-.3413587 1.085989-.4560459.2913427-.088549.5883522-.1535822.8895674-.2006574.4227495-.0660688.8483009-.0501752 1.2731285-.0467453.1378975.0011134.2758236.0279235.4136333.0425811.2098179.0223166.4143887.068353.6183052.1169208.339447.080848.6682682.1946448.9873524.3369585.3281097.1463393.6393852.3221166.93997.5183345.1725655.1126474.3323402.2411455.4915161.3712699.1833019.1498458.3513718.3157825.5131664.487366.2023602.2146029.3878098.4437513.5525494.6893783.155611.2320111.299057.4714181.4204197.7224655.1313133.2716308.237627.5536075.3253212.8433108.0662594.2189012.1146736.4410987.1595192.6644583.0246754.1228967.0303593.2488604.0469131.3730469.0368271.2762518.0296974.5536523.0263119.8307118-.001997.1633258-.0260658.325706-.0433617.4883509C21.82794 7.4306574 21.7748699 7.677268 21.7085304 7.9209199c-.0836754.3073049-.1922626.6058898-.3251228.8961234-.1172085.2560434-.256464.4995031-.4090252.7348089-.1268711.1956854-.265625.3834915-.4193935.5604229-.1441841.165906-.2963772.3234835-.4528408.4772654-.1053162.103507-.2189045.197958-.3317909.2930479-.0267754.0225563-.0454426.0279465-.0735683-.0076208-.2425632-.3067455-.4875565-.611578-.7335033-.9156218-.0215816-.0266781-.014101-.0369005.0073395-.0539932.2321453-.1850729.4399605-.3946066.6331635-.6199522.2716408-.3168354.4878273-.6684227.663538-1.0452213.0970192-.2080479.1712971-.4251089.2352982-.6459107.068964-.2379408.1145878-.4803395.1433411-.7255654.028492-.2430191.0327663-.4881601.0210781-.7321587-.0148411-.3098793-.0611954-.616621-.1415939-.9166408-.0611229-.2280893-.1392746-.4508629-.2339039-.6677217-.121542-.2785358-.274189-.5392642-.446537-.7888117-.1068516-.154712-.2265854-.2988997-.3533478-.4380414-.2112961-.2319276-.4402294-.4439988-.6930733-.6293044-.178545-.1308553-.3675766-.246207-.5624218-.3513303-.2567635-.1385298-.5242367-.252758-.8024864-.3406765-.269558-.0851722-.5449371-.144454-.8251038-.1830682-.3061619-.0421963-.6141787-.0362024-.9208889-.0258416-.288126.0097334-.5723391.0633986-.8524981.1347604-.323657.0824425-.6358967.1968338-.9329967.3479054-.3011742.1531432-.5888634.3289979-.8522654.5434656-.1734114.1411943-.3352394.2940714-.4887629.4556053-.2066193.2173998-.3878269.4551427-.5445099.711231-.0050945.0083277-.0120373.0155253-.0181189.0232491-.0229836.0121961-.042037-.0027218-.0610704-.0104828-.2531691-.1032271-.5051975-.209235-.7588015-.3114097-.0660906-.0302322-.1342421-.0553706-.2017679-.082093C10.946785 3.5954227 10.9134026 3.5880353 10.8927069 3.5591805z"/><path fill="#f1c732" d="M12.7610865 10.3112402c-.0722017.1127872-.1715488.2030344-.2547674.3066826-.0351038.0437231-.0710735.08675-.1066494.1300955-.0223951-.0043879-.030879-.0242071-.0426579-.0396709-.2441816-.3205566-.4857893-.6430597-.7288542-.9644604-.3595686-.4754515-.7190123-.9509974-1.0784016-1.4265823-.0730047-.0966091-.1420307-.1965704-.2238455-.2863874-.0494471-.1323123-.0752592-.2707834-.1068821-.4077868-.0413179-.1790051-.0683994-.3605428-.0877457-.5427637-.0095034-.0895104-.0265007-.1793313-.0196209-.2703543.0326309-.0119624.0391016.0187855.0514736.0345483.1131439.1441512.2213831.2920485.332056.4380951.3632097.4793072.724925.9597435 1.0874882 1.439538.3494968.4625025.6996574.9245033 1.0482159 1.3877134.0360479.047904.0746603.0939064.1087942.1432199C12.7515068 10.2702026 12.7694149 10.2862453 12.7610865 10.3112402z"/><path fill="#f0bf30" d="M12.7610865 10.3112402c-.0582199-.1030483-.1386375-.1898594-.2088175-.2841148-.1968908-.2644329-.3954563-.5276203-.5938635-.7909203-.2283211-.3030005-.4569693-.6057568-.6858702-.9083195-.2329054-.3078537-.4663553-.615294-.6994448-.9230084-.1420298-.1875024-.2836027-.3753567-.4262629-.5623789-.0092907-.0121794-.0147181-.031301-.0351658-.032486-.0244074-.2194762-.0075464-.4396696-.0099173-.6594968-8993e-7-.0833097.0126925-.1667752.0196791-.2501702.0434494-.0050044.0607891.0294623.0809107.056365.1506567.2014351.3034515.4012527.4551725.6018772.2783146.368022.5548468.7373924.8350906 1.1039529.0213003.0278606.0340385.0611877.0579233.087193.0573845.150321.1085091.3029361.1743011.4501557.1519537.340024.3435879.6559038.5700302.9511309.1501589.1957712.3214741.3723803.4988384.5428686.0787477.075696.1599274.1497545.2483511.2148972.0135365.0099726.0311775.0175047.0110664.0418415C12.954587 10.0698557 12.8582172 10.1908627 12.7610865 10.3112402z"/><path fill="#f0b92e" d="M11.5505209 7.7497334c-.0127144-1521e-7-.0213575-.0062323-.0286865-.0166812-.2396622-.3416667-.5009489-.6672072-.7485695-1.0029721-.1926003-.2611585-.3909636-.5180678-.5868826-.7767773-.0172787-.0228171-.0379181-.0419164-.0649595-.0529575.0101891-.0814905.0218229-.1628313.0302601-.244503.0165606-.1603136.0531101-.3168836.0858402-.4742012.0029306-.0140853.0053768-.0282712.0080481-.0424104.0210314-.0382137.0324354-.0396638.0630436-3428e-7.0736055.0945578.1440191.1915622.2164087.2870622.2573652.3395348.5145617.6791954.7700605 1.0201383.0139933.018672.0298433.0357375.0443726.0539246.0121527.3520031.0602283.6987967.1515141 1.0392365C11.5098543 7.6096697 11.5306206 7.6795855 11.5505209 7.7497334z"
		/><path fill="#f1cc33" d="M10.3259106 8.0309172c.0623426.0317726.0924368.093564.1318693.1455727.2609863.3442068.5199699.6899309.7801037 1.0347853.2242537.2972908.4491882.5940676.6737795.8911028.1627045.2151861.3253403.4304256.4880066.6456404-.0364933.0473137-.0738325.0940075-.1090794.142231-.0150776.020627-.0247002.0166264-.0433283.0032539-.0766764-.0550356-.1451235-.1197577-.2160053-.1814089-.1292839-.1124487-.2498589-.2343893-.3677826-.3584623-.1697531-.178607-.3299189-.3652468-.4746284-.5655899-.1942263-.2688961-.3658056-.551302-.5138397-.8473063-.1187248-.2373991-.2214527-.4824076-.295701-.7382088-.0097513-.0275993-.0151424-.056776-.0298958-.0825644C10.3415756 8.0902805 10.3337431 8.0605993 10.3259106 8.0309172z"
		/><path fill="#efb22c" d="M11.3394575 6.5000129c-.0210581-8225e-7-.0325022-.0163984-.043252-.0306907-.2259569-.300427-.4514151-.6012297-.6772385-.9017587-.1054544-.1403403-.2112398-.2804337-.3174877-.4201741-.0146618-.0192852-.0317583-.0436244-.0558968-.0081625.0555363-.2201295.1204863-.4373703.1999884-.650136.0200834-.0187297.0357542-.009376.0496254.0082026.0236702.0299973.0460711.0609617.0690842.0914621.2571173.3407907.5162439.6800709.7710552 1.0225935.0202265.0271902.0619478.0459094.0460567.091989 7935e-7.0943532-.0174465.187139-.0259657.2806344-.0126581.1389246-.0134611.2775717-.0140257.4165478C11.3412666 6.4336872 11.3401327 6.4668489 11.3394575 6.5000129z"/><path fill="#eea028" d="M15.551156 4.0204215c.0671005-.1299658.134201-.2599313.2013016-.3898966C15.769598 3.618207 15.7806606 3.6316314 15.7914 3.640909c.1070232.0924537.2099028.1895158.3149576.2841642.1347141.121367.268549.2437105.4028854.3654957.119566.1083937.2392292.2167096.358057.3259048.0857735.0788174.1731815.155817.2585258.2350988.0148087.0137572.031826.0250583.0289898.048923-572e-7.1766939-61e-6.3532634 114e-7.5296941.0017891.0242596-.0103073.0295215-.0306816.0211639-.0186996-.0076718-.0341377-.0205097-.0487194-.0342407-.1995468-.187902-.4045906-.3698049-.6069183-.5546589-.2243748-.2049961-.4501495-.4084668-.6737347-.6143456C15.7129974 4.1728091 15.6248589 4.1043577 15.551156 4.0204215z"
		/><path fill="#efa82a" d="M15.551157 4.0204215c.0601578.0305338.1006861.0846953.1498165.1279836.1839981.1621222.3642654.3284883.5454826.4937539.0894375.0815649.1772633.1649008.2669373.246202.1669197.1513424.3345222.3019371.5021572.4524932.0427456.0383916.0748634.0898442.1330681.1094875.0124798.0215898.0056114.0451412.0057697.0676231 8602e-7.1205373 3433e-7.2410841 4368e-7.3614774-.0048809.0486894-.0321293.0280352-.0510406.0135884-.0303173-.0231595-.0580997-.0499368-.0859928-.0759525-.1253548-.1169095-.2532692-.2309985-.3800602-.3463006-.1292343-.1175208-.2580509-.235518-.3882122-.3520408-.0842743-.0754457-.1678028-.1518078-.2510176-.2284508-.1394949-.1284785-.2808037-.2549605-.4205055-.3831749-.0635862-.0583587-.1323385-.1114912-.1891403-.1771631C15.442956 4.2267723 15.497056 4.1235967 15.551157 4.0204215z"/><path fill="#efa82a" d="M10.8927069 3.5591805c.0950632.0421662.1955605.0713539.2877131.1204672.0304861.015882.0481024.0434406.0683937.0699749.1648035.2155137.3237257.435487.4917402.6485584.0117579.0149117.030674.0272732.0196486.0510406-.0891638.2069473-.1667452.4182959-.2399197.6313186-.2593412-.3530922-.5284796-.6988177-.7895889-1.0505724-.0217733-.0293326-.0418806-.049531-.0795755-.0295372.049305-.1153827.1150885-.2220857.1752987-.331701C10.8469486 3.6313534 10.8705235 3.595649 10.8927069 3.5591805z"/><path fill="#efad2b" d="M10.6511183 4.0004301c.0387573-.0411255.0423536-.0403774.0769196.005444.2437906.3231831.4883089.6458187.7310877.9697595.0239792.0319943.0601254.058805.0611572.1049061-.050107.2003779-.1024466.4002714-.13027.6054573-8221e-7.006052-.0056591.0115595-.0086222.0173316-3805e-7-.0456867-.0414152-.0655532-.0640526-.0960708-.1932449-.2605281-.3889494-.5192351-.5842552-.7782335-.0806999-.107017-.1626081-.2131262-.2429562-.3204045-.0122681-.0163817-.023181-.0276909-.0445433-.0195298.0495892-.1405749.1070395-.277916.1701708-.4129167C10.6275578 4.0509329 10.6393309 4.0256782 10.6511183 4.0004301z"/><path fill="#efad2b" d="M15.3888559 4.3299479c.0518036.0162611.080514.0628257.1184282.0956922.1329193.1152244.2597895.2374067.3895655.3562808.1921568.1760125.3846979.3516021.5773401.5270815.1042614.0949736.209095.1893196.3136272.2839961.1070004.0969148.2140903.1937313.3207245.29105.0118771.0108414.0239773.0174646.0400429.0161233.0130768.0350318.0052071.0713744.0057468.1070137.0013733.0906248 4158e-7.1812825 4826e-7.2717805.0017757.0331392-.0175304.026072-.034708.0164304C17.096859 6.2823496 17.0761242 6.264914 17.056921 6.2467594c-.1257019-.1188326-.2553043-.2333946-.3831902-.3498068-.1278458-.116375-.2557163-.2327604-.3842583-.3483901-.0889168-.0799856-.17733-.1605997-.2658253-.2410989-.0151634-.0615602-7286e-7-.1246548-.0093765-.1919036C15.9774036 5.1503882 15.976263 5.20467 15.936861 5.2324486c-.0426149-.0310397-.0803785-.0677814-.1192532-.1031227-.1746216-.1587505-.3479605-.3189096-.5243959-.4756703-.0166016-.014751-.0353889-.0241213-.0546122-.0336709C15.2886858 4.5233059 15.3387709 4.4266267 15.3888559 4.3299479z"
		/><path fill="#ee9a26" d="M17.1487026 4.8803821c-.0511818-.023562-.0842209-.0696492-.1257076-.1047816-.0961819-.0814538-.1853981-.1710706-.278883-.2557874-.162199-.1469932-.3258018-.2924404-.488203-.4392133-.0861912-.0778975-.1709309-.1573989-.2566319-.2358429-.075882-.0694551-.1521015-.1385422-.2285233-.2074029-.0044994-.0040526-.012126-.0046325-.0182962-.006829.0535727-.1048992.1081667-.2092955.1601181-.3149912.0164833-.0335336.0422344-.0243268.0677252-.023406.0820103.0725198.1621571.1470947.243412.2204518.1356411.1224625.2705994.2456892.4059372.3684893.1205921.1094189.241188.2188559.3611889.3289242.0477772.0438237.0953865.0877023.1465683.1274619.0116005.0090132.0192337.0177941.0174141.0329623-973e-7.1540875 1812e-7.3080282-3204e-7.4619675C17.1544476 4.8483739 17.1599941 4.8655567 17.1487026 4.8803821z"
		/><path fill="#f2dc37" d="M16.0316505 8.3897629c-5512e-7-.0947542-.0021553-.1895199-.0010109-.2842531 3414e-7-.0282402-.0076637-.0370245-.0362053-.0363979-.0681057.0014954-.1362896-4501e-7-.2044411-.0010061-.0897198-.0841827-.1814556-.166163-.2725992-.2487855C15.3855906 7.6998358 15.2540512 7.58005 15.122386 7.4604187c-.0639648-.0581188-.1315956-.1126013-.1895628-.1770353-.0127125-.0141296-.0441751-.0310345-.0067043-.0537529.0891981-.0066609.1783762-.0043039.2674875-.0016146.0156374.0028229.0255508.0139728.0366306.0242834.1571465.1462202.3173332.2891178.4757586.4339223.1277218.1167407.2553682.2336192.3835011.3498931.163847.1486797.3272343.2978849.4917965.4457893.1200275.1078787.2384472.2175837.358345.3256445.0654697.0590076.1274376.1219311.1973038.1760054.0094261.0072918.0182457.0147724.0178871.0282516-.0030365.0382299.0060234.0769224-.0050392.1147289-.1000271.0059624-.2000942.0033512-.3001575.0014343-.0669022-.0445576-.1207085-.1043978-.1793232-.1581411-.1654491-.1516905-.3333817-.3006639-.4977894-.4535151C16.1263962 8.4734316 16.0805111 8.4298124 16.0316505 8.3897629z"/><path fill="#f0bf30" d="M17.6810989 7.2389536c.0117779.0107412.0070362.0249496.0070553.037641 3548e-7.2516031 4635e-7.5032053 572e-7.7548079-172e-7.0119867.0071888.0269814-.008337.0358829-.021843-.0300007-.0117512-.0645294-.0111523-.096673 7133e-7-.0381885-.0118542-.0622001-.0421944-.0879774-.0885487-.0752392-.1728783-.1555133-.2592049-.2334423-.1405716-.1268983-.2799873-.2550774-.4199924-.3825984-.1265049-.1152277-.2528553-.2306643-.3794765-.3457661-.1290703-.1173263-.2586269-.2341714-.3871193-.3520951-.0546017-.0501113-.1176128-.0919757-.1618176-.1533933-.0067959-.1028085-.0066128-.2055531-3986e-7-.3082223.0135326-.03617.0343952-.0152359.0503826-.004283.0384235.0263247.0708294.0603614.1047401.0918245.1277637.1185422.2574158.2350221.3864574.3521185.163435.1483078.324976.298737.4910316.4441514.0299282.0262084.0555305.0574098.0903778.0779767.0112839.00666.0142784.0176682.0133171.0302248-1049e-7.031755.0021915.06358-6294e-7.0949535-.003109.0345616.0117207.041821.0431538.0415411.1464787-.0013065.2929764-6762e-7.4394665-4315e-7C17.6515942 7.235219 17.6668262 7.2321329 17.6810989 7.2389536z"/><path fill="#f3e53a" d="M13.9020052 7.1999578c.05583-.1151199.1137972-.229126.1773853-.3402014.0205412-.0253806.0343561-.003623.0495043.0072222.058382.0417924.1077023.0941644.1600981.1424785.1649332.1520834.3312874.3026371.4975033.4532614.2019215.1829805.401413.3686557.6053133.5494657.0157528.0139685.041997.0257397.0281811.0559311-.1834087-1e-6-.3668156-1e-6-.5502243-19e-7-.0701008-.0483437-.1269779-.1118464-.1897888-.1683526C14.500864 7.7386236 14.3238478 7.57515 14.1443567 7.4143953 14.0639963 7.3424234 13.9890356 7.2643933 13.9020052 7.1999578z"/><path fill="#f3df38" d="M15.4199905 8.0681152c-.0015268-.0228596-.020092-.0339231-.0343494-.0469933-.1088171-.0997376-.2178669-.1992254-.3275156-.2980466-.1613359-.1454053-.3236542-.2897224-.4847155-.4354286-.0910692-.0823851-.1801186-.166997-.2707291-.2498956-.0636044-.0581913-.1285934-.1148686-.1922388-.1730165-.0105333-.0096245-.0195246-.0106049-.0310516-.0049782.0350752-.0791984.075285-.1557364.1193371-.2302837.0213413-.0161657.0370646-.0013757.0533743.0097637.0550728.0376153.0998859.0872393.1484699.1319327.1292019.1188521.2613354.2344966.3890352.3550191.0384693.0363073.0798063.0697265.1173601.1072187.0010796.0021334.0021114.0042973.0031443.0064616.0651894.0825167.1492386.1456947.2260618.2159181.044982.0411177.0897646.0830545.1357498.1233377.1344442.1177711.2633381.2418566.3953905.3623872.0435781.0397758.0955687.0709958.1226797.1265941C15.6666594 8.0681086 15.5433245 8.0681124 15.4199905 8.0681152z"
		/><path fill="#f1cb33" d="M15.2104082 7.2413192c-.1000996-4835e-7-.2001982-967e-6-.3002968-.0014505l-86e-7-153e-7c-.0011654-.0123568.0076084-.0165.0167475-.0203648.0259905-.0075593.0527267-.0053778.0792217-.0053921.3089695-1745e-7.6179399-62e-7.9269094-1674e-7.0792618-41e-6.0801659-.0018344.0812874-.0805817 967e-6-.068027-.0041103-.1361661.0033169-.2039676.0139122-.040844.0357037-.0231891.0562477-.0067582.0701523.0561061.1333656.1200151.1998749.1801786.1773682.1604395.3544865.3211727.5311413.4823904.1275749.1164255.2571945.2306685.3821487.3499479.0312824.0298638.0687027.0528622.0963058.0865736.0107555.013135.030138.0241852.0165863.0464029-.0348358 555e-6-.0698032.0032215-.1044655.0010328-.0309429-.0019531-.0393696.0090647-.0389957.0392752.0015469.124505 6866e-7.2490406 7172e-7.3735647 458e-7.1992388 3033e-7.3984785-2594e-7.5977154-439e-7.015523.0075817.0331726-.0070992.0468321-4463e-7-.0422726-8945e-7-.0845451-.0013428-.1268167-.026701-.0538559-.0092239-.1113338-.0138321-.1669827.0013008-.0473881-7935e-7-.0948305 6542e-7-.1421843.0034866-.1164761 2823e-7-.2330503.0017662-.3495932 3471e-7-.0272675-.0097466-.0459661-.0305576-.0640793-.1907635-.1660252-.3748856-.3394318-.5628262-.5085859-.163208-.1468949-.3283997-.2919421-.48633-.4441504-.0629005-.0606232-.1237869-.0758829-.203023-.0720911-.0980558.004693-.1964636-4606e-7-.2947721.0024018-.0538721.0013232-.1076803 1812e-7-.1615162 6175e-7C15.3354321 7.2508502 15.2712946 7.2680793 15.2104082 7.2413192z"/><path fill="#f1c431" d="M16.0316696 6.4300365c.0330887.0098715.055542.0359516.0793762.0574651.1329803.1200352.2634563.2428398.3955746.3638372.1467228.1343732.2943363.2677746.4414845.4016867.1496048.1361513.2986717.2728958.4488297.4084325.0873146.0788116.1758194.1563315.2650337.2329831.0149422.0128369.0181808.025753.018013.0430079-4253e-7.0432749-1183e-7.0865579-1068e-7.1298366-.0433273 2766e-7-.0866528 5531e-7-.1299801 8307e-7-.1249371-.1243701-.2588234-.2390075-.3886662-.3580475-.0858192-.0786777-.1720943-.1568437-.2581882-.2352123-.1340446-.1220207-.2686405-.2434421-.402523-.3656278-.1265354-.1154819-.2555504-.2283359-.3787956-.3472972-.0342369-.0330491-.0828037-.0514669-.1033726-.0988498-.0074234-.0627041-.0032139-.1255088-.0029907-.18823C16.0154152 6.4584785 16.0166435 6.4414635 16.0316696 6.4300365z"/><path fill="#f3eb3b" d="M13.9020052 7.1999578c.0279531-.001936.0469799.0166297.0646706.0326419.0920925.0833516.182004.1691127.2740393.2525301.1642809.1489029.3308029.295361.4935942.4458637.0469637.0434198.0998306.0820899.135457.1371198C14.6965342 8.0681152 14.523303 8.0681171 14.350071 8.068119c-.0903559-.0809169-.1802044-.1624227-.2690773-.244935-.0462933-.0429807-.0968666-.0812755-.1397982-.1279516-.0074577-.00811-.016263-.0201435-.028985-.0148926-.0132666.0054765-.0087566.0202699-.0088129.0312157-4988e-7.0981541 372e-7.1963129-4807e-7.294466-1125e-7.0211716.0041828.0437756-.0127764.0616779-.018712-.0116568-.0087986-.029994-.0088387-.0447445-6752e-7-.2495427-2136e-7-.4990888-7334e-7-.7486324C13.8805113 7.2468357 13.8830233 7.2213554 13.9020052 7.1999578z"/><path fill="#f1c732" d="M16.0316601 6.679985c.0282192.0077333.0487309.0281739.0689774.0466108.1324215.1205812.2630882.2430878.3952427.363966.1846809.1689243.3701153.3370247.5553131.5053825.1447124.1315546.2895641.2629576.4343319.3944497.0251465.0228391.0610485.0367999.0643692.0777221-.0833359.0-.1666698.0-.2500038-1e-6-.0063877-.0325327-.0343914-.0485048-.055685-.0680618-.1844921-.1694708-.3700714-.3377562-.55546-.5062485-.143631-.1305404-.2873688-.2609653-.4312153-.3912649-.0676117-.0612426-.1354752-.1222091-.2036476-.1828241C16.04813 6.9146023 16.0391445 6.913126 16.0316601 6.9099593c-.0102787-.0074563-.0154972-.0185966-.0150623-.0302191C16.0190945 6.8129835 15.9972067 6.7443061 16.0316601 6.679985z"
		/><path fill="#f1ca33" d="M14.5657845 5.9187088c.0552692-.1060719.1105375-.2121434.1658058-.3182154.0323992-.0012798.0506067.0242457.0699148.0421901.1239233.1151752.2508726.2270079.3751221.3418078.0743074.068656.1500397.1357579.2248688.2038512.0135269.0123105.0285196.0235634.0281258.044631-.0388603.1082716-.0971203.2071848-.1495705.3089013-.0031166.006042-.009428.0091329-.0161295.0107131-.1028881-.0808072-.1954784-.173336-.2923241-.26091-.1289597-.1166139-.2587376-.2324162-.3855247-.35145C14.5788431 5.9334397 14.5703611 5.9279542 14.5657845 5.9187088z"/><path fill="#f2d235" d="M14.5657845 5.9187088c.0601978.0218225.0953207.0755596.1405706.1151776.1807756.1582718.3569736.3217692.5349865.4832006.0102081.0092578.0187387.0189023.0189362.0335431.0107183.0125318.0048389.0253634-8354e-7.0369358-.0348539.0710754-.0695581.1422358-.1063261.2123518-.0062265.0118742-.0149536.0217547-.0282173.0264344-.0402002.0033607-.0636806-.0263066-.0879717-.0491581-.1667347-.1568413-.3397923-.3067646-.5060863-.4640641-.0382051-.0361381-.086792-.0620866-.1098614-.112926C14.4692488 6.1063724 14.5175161 6.0125403 14.5657845 5.9187088z"/><path fill="#ed9525" d="M17.1487541 4.3504534c-.0563602-.0078554-.0839291-.0574217-.1207314-.089962-.171526-.151659-.3379745-.3090491-.5068893-.4636779-.1455975-.1332829-.2916298-.2660978-.4384632-.3980134-.0369091-.0331578-.0805378-.0592632-.1023693-.106673.1032276-31e-7.2064533-64e-7.3096809-93e-7.1285744.1326003.270731.2505102.4061527.3757038.0855083.0790491.1718559.1571553.2583294.2351372.0604801.054543.1180363.1123834.1823425.1625934.0112934.0088191.0196972.0177002.0180206.033021C17.150835 4.1825662 17.1626339 4.2668195 17.1487541 4.3504534z"/><path fill="#f0b42d" d="M15.2386007 4.6199846c.0164833-.0092969.0290852-.0066776.043889.0069203.0559378.0513787.1142769.1001415.1702843.1514468.131691.1206307.2626581.2420497.3936749.3634152.0296125.0274305.0720053.0428777.0833302.0877171.0102386.0102363.0072737.0221043.0014601.0320983-.0392227.0674319-.0705881.138938-.1082144.2071757-.0040588.00736-.0101433.0130444-.0178308.0167694-.0207357.0065556-.0353174-.0049167-.0487309-.0177388-.1213474-.1160135-.2482815-.2259197-.3714266-.3399792-.0841103-.0779033-.1706104-.1532307-.2539864-.2319674-.0083742-.0079074-.019186-.0135646-.0220728-.026051C15.1521854 4.7865224 15.1953926 4.7032537 15.2386007 4.6199846z"/><path fill="#f0b92e" d="M15.1089773 4.8697906c.0612221.0267363.0975437.0835195.1470022.1244621.0966797.0800352.1855259.1695123.2779531.254714.0790176.0728374.1585722.1450911.2377005.2178087.0089579.0082321.0185699.0137229.0308313.0140886.0080395.0133128.0024424.0258412-.0033178.0375667C15.7627773 5.592454 15.7259493 5.666254 15.688345 5.7396603c-.0052586.0102649-.0116043.020174-.0242367.0230422-.0639448-.0396719-.1129913-.0969768-.1677961-.1468935-.1604776-.146162-.3229427-.2901855-.4811153-.4388723-.0145912-.0137153-.03374-.0212216-.0463181-.0371032C15.0155783 5.0498195 15.0622768 4.959805 15.1089773 4.8697906z"/><path fill="#f3e239" d="M16.0316486 8.3897629c.022522.003149.0388832.0163975.0550423.0313559.1274548.1179838.2546577.2362528.3832169.3530264.1186409.1077642.2390308.213603.3580971.3209066.0094337.0085039.0145206.0218306.0216274.032917-.1566544-29e-7-.3133068-38e-7-.4699593-57e-7-.0790215-.0607195-.1485558-.1321316-.2211113-.1999159-.0422001-.0394239-.0941887-.0686045-.1269035-.118124C16.0316563 8.6698704 16.0316525 8.5298166 16.0316486 8.3897629z"/><path fill="#f0c030" d="M14.9688787 5.1398335c.0154839-545e-6.0286102.0033817.0406618.0145526.0812511.0753098.1627731.1503339.2447329.2248697.1296043.1178637.2595091.2353973.3897057.3526058.009306.0083771.0158024.0165434.0163221.0290041.0080843.0085516.0067682.0187845.002594.0277166-.0321007.068697-.0650015.1370125-.1025219.2029729-.0033522.0058932-.0092726.009182-.0157595.0111423-.0599356-.0313878-.101018-.0854802-.1497221-.12959-.1290655-.1168914-.2592402-.2326589-.3863039-.3518085-.0530405-.049736-.110899-.0943537-.1573811-.150918C14.8904314 5.2935324 14.9296551 5.2166829 14.9688787 5.1398335z"/><path fill="#f1c431" d="M14.8512068 5.3703809c.0611448.0300245.1005812.0860648.1504545.1292176.1354303.1171799.2634344.2428951.3967476.3625946.0489893.0439868.099823.0855694.1413603.1370468.0102272.0102067.0073767.0220866.0015488.0320845-.0351105.0602107-.0632524.1240387-.09694.1849594-.0048246.0087252-.011611.0162997-.0230608.0165739-.0105238-.0320301-.0403395-.0473108-.0626364-.0678749-.1861477-.1716743-.3737316-.341795-.5612555-.5119729-.0207453-.0188265-.0438328-.0350738-.065835-.0525169C14.7680597 5.5220208 14.8071632 5.4449172 14.8512068 5.3703809z"/><path fill="#f2d736" d="M14.4209795 6.2002039c.0872355.0791383.1743374.1584249.2617378.2373791.1353979.1223092.2710524.2443323.4064054.3666902.0102587.0092735.0208483.0164423.0350046.0170088-.0072031.0703244-.0534191.1240807-.0797205.1862984-.0087519.0207062-.0153933.0447502-.039464.0553231-.0376759-.0124936-.0625248-.0434375-.08957-.068666-.1272507-.1187024-.2578697-.2336888-.3857784-.3516555-.0644999-.0594864-.1277866-.1206002-.1965694-.1753945-.0129271-.0102973-.0275221-.0190864-.0315666-.0369368C14.3378248 6.3517637 14.3769016 6.2746849 14.4209795 6.2002039z"/><path fill="#ed9224" d="M17.1487541 4.3504534c343e-7-.0900531 687e-7-.1801062 1049e-7-.2701592-.0231762-.0474153-.0101299-.0979421-.0104408-.1468115-2728e-7-.0425923-.0118732-.0708635-.0456314-.1013892-.1266003-.1144764-.2540302-.2281182-.3791428-.3442831-.0497761-.0462172-.1004868-.0915091-.1504288-.1375933-.0166187-.0153353-.0376358-.0299194-.0232391-.0581033.1948986-5472e-7.3897991-6433e-7.5846901-.0021505.0277939-2148e-7.034914.0112977.032814.0357599-.0011368.0132294-1926e-7.0266376-1907e-7.0399649 1907e-7 1.2644536 2995e-7 2.5289071 7591e-7 3.7933605 305e-7.0844331-.0115547.0722499.0751286.0727282.1316166 7262e-7.2632408-31e-6.3948593 5627e-7.0176945 801e-7.0367279-.0060353.0530624.0066185-.164217 3729e-7-.3284397 1349e-7-.4926472.0016623-.0314941 2933e-7-.0401955-.0122337-.0391655-.0413136.0014114-.0397353-33e-5-.0795841-721e-6-.1193833-.0134106-.0166907-.0144138-.0366564-.0144024-.056653 629e-7-.097785-.001461-.1955748 5703e-7-.2933578-.0018711-.1196136-8659e-7-.2392325-6657e-7-.3588457 401e-7-.024466-.0038891-.0503736.0145855-.0713434-134e-7-.1331844-286e-7-.2663684-553e-7-.3995519 57e-7-.1499438 248e-7-.2998881 305e-7-.4498315 248e-7-.1899858 61e-6-.3799729 858e-7-.5699592C17.1487198 4.7037392 17.148737 4.5270963 17.1487541 4.3504534z"/><path fill="#eea228" d="M11.7602024 4.4492216c-.0372849-.064332-.0900631-.116971-.1334009-.1767969-.1356106-.187211-.2823277-.3661692-.4142275-.5561731-.0092001-.0132527-.0213671-.0244448-.032155-.0365996.1474562.049664.2879181.1168017.4326458.1733453.1293621.0505407.2570477.1053693.3854733.1583166C11.9190912 4.1572905 11.8396473 4.303256 11.7602024 4.4492216z"/><path fill="#f2dc37" d="M14.3014584 6.4302506c.0840464.0543203.1515112.1282377.2260771.1935759.14571.1276779.2878075.2594852.430933.3900957.0157518.0143752.0284538.032094.0425711.0482616-.0047026.0664668-.037672.1193733-.080411.167593-.0035095.0033593-.0070171.0067182-.0105267.010077C14.860364 7.223804 14.8331814 7.178545 14.7957802 7.1473846c-.0940886-.0783873-.1808376-.1655264-.2715797-.2480006-.0930939-.0846095-.1876392-.1676211-.2809992-.2519417-.0132332-.011951-.0267591-.0190973-.0444736-.0179696C14.2286196 6.560822 14.2606392 6.4932685 14.3014584 6.4302506z"/><path fill="#ed9525" d="M16.5399761 3.292114c.022871.0625498.0831032.0914447.1253338.136292.0450344.0478222.099556.0865715.1482811.1310916.0940056.0858922.1817913.17962.2822533.2569909.0520077.0400529.0560017.081389.0542564.1344297-.0014153.0430932-8888e-7.0862503-.0012341.1293774-.0207329-.0026674-.0367222-.0136824-.0517235-.0275755-.1313114-.1216199-.2621155-.2438023-.3945465-.3641932-.1224899-.1113544-.2468624-.2206399-.3702412-.3310175-.0199375-.0178361-.0386696-.0368512-.0423737-.065392C16.3733139 3.2921164 16.456646 3.2921152 16.5399761 3.292114z"/><path fill="#f4ef3c" d="M13.8901405 8.0676994c95e-7-.1229615-3262e-7-.2459254 474e-6-.3688817 982e-7-.0151119-.0098438-.0371895.0106936-.043879.0133028-.0043325.0271883.0090346.0383997.0194564.0921936.0856934.1844263.1713409.2768698.2567625.0352459.032568.0713673.0641928.1064663.0969148.0118532.0110502.0265656.0209694.0270271.0400467C14.1967611 8.0679789 14.0434504 8.0678387 13.8901405 8.0676994z"
		/><path fill="#f3e63a" d="M16.0316582 8.8099232c.0369053.0136003.0611954.0448494.0896339.0688543.0817051.0689659.1591797.142972.2375813.2157888.0092735.0086126.013979.0221443.0207996.0333967-.1063633 555e-6-.2127342 5198e-7-.3190804.0021152-.023859 3586e-7-.0314579-.0071306-.0310497-.0310249C16.0311909 9.0026932 16.0311031 8.9063025 16.0316582 8.8099232z"/><path fill="#f1c732" d="M10.3494091 8.1199627c.0233641.0226688.029294.05165.0298967.0825615C10.3629189 8.17733 10.3579454 8.1480007 10.3494091 8.1199627z"/><path fill="#292929" d="M14.9206285 7.2297769c.026803-.0558653.053607-.1117301.080411-.1675944.0464144-.0775476.0839376-.1596389.1230841-.2409019.04881-.0884948.0952244-.178194.1361542-.2706509.0584097-.1035285.111515-.2097449.1610394-.3177743.0438013-.0756807.0830574-.1536684.1184521-.2336144.0447502-.077147.0849247-.1566076.120532-.2383761.0520878-.0909467.0986605-.1846943.1421614-.2800007.0462742-.081852.0890121-.165493.1273165-.251379.0232992-.0437059.0465813-.0874186.0699091-.1311083.0046492-.008708.0093431-.0198078.0210447-.0171757.0130348.0029325.0089417.0158587.009058.0249538 885e-6.0680132.0013065.1360326.0018749.2040501.0119762.0152631.01404.033319.0140343.0517373-362e-7.1258698.0020695.2517457-948e-6.3776069.0027122.0964065.0010815.192831.00103.289247-134e-7.0213423.001894.0436745-.0141201.0615945 19e-7.113215 38e-7.2264309 76e-7.3396459-38e-7.0833163-57e-7.1666322-95e-7.2499485.0.0766582.0.153316.0.2299743-5646e-7.0946407-.0011768.189281-.0016518.2839212-1011e-7.0198684.0039654.0394025-.0282097.0392518C15.6414118 7.231442 15.2810192 7.2307429 14.9206285 7.2297769z"/><path fill="#efb42d" d="M16.0316563 5.7401414c19e-7-.143312 57e-7-.2866244 95e-7-.4299364.0330925.009769.0554714.0358944.0792637.0573597.1328182.119833.2630329.2425447.3950424.3632832.1844769.1687279.3691902.3372135.5553188.5041103.026638.0238862.0530777.05024.0873718.0647693-134e-7.1433039-172e-7.2866116-21e-6.4299202-.0466156.0033622-.0708561-.0343714-.0980911-.05972-.165308-.1538634-.3335781-.3044925-.5007286-.4562812-.1646538-.1495237-.3259869-.3027849-.4949131-.4475942C16.0459423 5.7583671 16.0392933 5.7488747 16.0316563 5.7401414z"/><path fill="#f2d736" d="M15.2104082 7.2413192c.063385-86e-7.12677-176e-7.190155-272e-7.0751247.0628548.1456785.1308212.2183781.1963687.1382132.1246128.2760067.2497182.4133654.3752594.1263428.1154737.2528381.230804.3794746.3459487.1290684.1173534.2579479.2349386.3876514.3516073.087698.0788851.1762333.1570349.2608624.2391968.0285416.02771.06493.0463448.0882359.0794783-21e-6.0568562-42e-6.1137133-744e-7.1705685-.0249901-.0063076-.0441017-.0223122-.062315-.0390882-.1317501-.1213427-.2628155-.243433-.3949242-.3643827-.1454887-.1331968-.2918777-.2654057-.4378395-.3980827-.1471939-.1337938-.2943478-.2676344-.4415178-.4014535-.147171-.133821-.2936687-.2683907-.4418583-.4010739C15.3147535 7.3461714 15.2555485 7.3011208 15.2104082 7.2413192z"/><path fill="#f0ba2e" d="M16.0316563 5.7401414c.0282269.0076485.0487137.0280948.068903.0465245.1358089.1239634.2697926.2499237.4054184.3740902.1843987.1688151.3691711.3372326.5553036.504128.0266361.0238838.0530624.0502563.0873699.0647678-286e-7.1167545-458e-7.2335138-744e-7.3502722-.0651531-.0202332-.1025658-.0769739-.1501713-.1187487-.1804161-.1583138-.356987-.3210201-.5344543-.4826765-.0906315-.0825567-.1791077-.1675005-.2705078-.2491875-.0529594-.0473342-.1021461-.0992908-.1617813-.1389208C16.0316582 5.9736409 16.0316582 5.8568912 16.0316563 5.7401414z"/><path fill="#f2d335" d="M15.5699234 7.2413263c.1349106-423e-6.2698221-9341e-7.4047318-.0011072.0111094-138e-7.0223894-.0020328.0320473.0086007.1618557.1781898.3502293.3279166.5269394.4901772.0843525.0774555.1677189.1560154.2532024.2322001.1162128.1035738.2240429.2166986.3499317.3092031.0139961.0102854.0128727.0219355.0128536.0346603-1888e-7.1215754-7076e-7.2431507-.0011311.3647261-.0196037.0129328-.0312347-.0028811-.0428257-.0133038-.0705147-.0634174-.1409607-.1269274-.2110615-.1907921-.1389694-.1266031-.2786903-.252389-.4173527-.379302-.1264172-.115705-.2532253-.2310019-.3799019-.346417-.1278877-.1165209-.2546215-.2343507-.38482-.3483291-.042573-.0372701-.0804739-.0795722-.1253958-.1144571C15.5740967 7.2770548 15.5565538 7.2636533 15.5699234 7.2413263z"/><path fill="#f2d736" d="M15.5699234 7.2413263c.0016432.0227866.0200281.0340066.0343342.0470791.105319.0962343.2109699.1921115.3170013.2875605.1614742.1453567.32374.289835.4848824.4355574.0898781.0812788.1778107.1647053.2672443.2464819.1506157.1377268.3016701.2749758.4528637.4120674.0056877.0051537.0147724.0065603.0222607.0097141 76e-7.0497923 248e-7.0995855 343e-7.1493711-.0706921-.0251942-.1107693-.0890894-.1653271-.1341953-.0971165-.0802879-.1855793-.1709557-.2790928-.2557001-.1622581-.1470413-.3258762-.2925816-.4883919-.4393406-.0837822-.0756588-.166048-.1529927-.2496443-.2288589-.1732426-.1572251-.3469057-.3139873-.5204315-.4709001-.018672-.0168843-.0357523-.0349102-.0451002-.0588818C15.457016 7.2413039 15.5134706 7.2413154 15.5699234 7.2413263z"/></g></svg>