<svg id="Слой_1" xmlns="http://www.w3.org/2000/svg" xmlns:xlink="http://www.w3.org/1999/xlink" viewBox="0 0 32 13" enable-background="new 0 0 32 13" width="32" height="13"><g><path fill="#292929" d="M20.0782433 11.4087267c-.0990372.0714064-.1977806.1432266-.2971725.2141333-.2414665.1722593-.4957581.3231506-.7594833.4588156-.2119751.1090441-.4291306.2059174-.6518936.2905207-.0106373.0040407-.0199566.011549-.0298882.0174427-.0159283.0120068-.0354137.0135326-.0538082.0182743-.0117016-.002883-.0179119.0066175-.0261288.011591-.0328999.0288811-.07827.0204573-.1148319.0383797-.0292149.0075722-.0587845.0141449-.0849686.0302362-.0550709.0131397-.105341.0420456-.1621799.0493784l.0011635-7782e-7c-.0219002.0127239-.0473843.0134869-.0707836.0212049l.0010548-6123e-7c-.0225582.0110912-.0474129.0140982-.0713711.0202608l.0011578-7591e-7c-.1622143.0485296-.3275166.0837965-.4932213.1180067-.09729.0200872-.1955471.0351171-.2930088.0538244-.0654278.0125589-.1331615.0230703-.2007599.0269499-.0393066.0022554-.0784111.0081482-.1174965.0116959-.1132126.0102749-.2257118.026247-.339901.0170603-.0195465-.0015726-.0399342-.0037022-.059267.003809-.1703014 29e-7-.3406057 48e-7-.5109081 76e-7-.0478563-.0065069-.0957623-.0080957-.1433849.0011873-.0133543.0026045-.0264053.0035715-.0395622.0014515-.1204443-.0194178-.2431173-.0179234-.3634205-.0363455-.2104216-.032218-.4205179-.0671473-.6283283-.1139069-.1103897-.0248384-.2209873-.0492201-.3289471-.0837622l.001152 7696e-7c-.0239611-.0061569-.0488272-.0091257-.0713701-.0202742l.0010509 6256e-7c-.0234089-.0076914-.0488844-.008481-.0707922-.0211878l.0011539 7753e-7c-.056838-.0073309-.1071005-.0362482-.1621723-.0493803-.0299091-.0096579-.0598183-.0193148-.0897264-.0289726-.0333176-.0225735-.0793362-.0098953-.1100693-.0396442-.0100737-.0037689-.0229311 679e-6-.0305462-.0103493-.0157518-.0083055-.0349588-.0078707-.0493898-.019516-.1216364-.0400982-.2382784-.0927019-.3554363-.1437635-.0686264-.0299101-.1350336-.0649109-.2024393-.0976219-.0156212-.0023346-.029212-.0093737-.0420542-.0181475-.0140438-.0068483-.0280886-.0136957-.0421324-.0205441-.021615-.0053701-.0426302-.0119171-.0579557-.0295992-.2062674-.1081915-.4073582-.2253819-.6022701-.3527927-.1513939-.0989628-.2998629-.2023125-.4393873-.3178453-.0126638-.0098534-.0238066-.0216885-.0382051-.0292778-.238965-.1884708-.4610348-.3957195-.6688194-.6174812-.1732712-.1849289-.3380527-.3773041-.4885092-.5822611-.1149454-.1565847-.2231083-.317421-.3247948-.4822693-.0713387-.1156521-.134861-.2365522-.199935-.3562403-.0810843-.1491365-.1524801-.302578-.2177973-.4586506-.0652885-.156002-.1230278-.315052-.1778231-.4753838-.0625515-.1830215-.1131077-.3692932-.1587448-.556385C9.6131783 7.7254663 9.591754 7.5962987 9.5704832 7.4676571c-.0181007-.1094694-.026412-.2202692-.04848-.3291645C9.5169888 7.1137524 9.5249214 7.0859251 9.5187159 7.0597305c-.0082979-.0201187.0024624-.0425239-.007493-.0624433C9.5104141 6.9814439 9.5096073 6.9656005 9.5087996 6.9497571 9.5003281 6.9255419 9.5109873 6.8994288 9.5014133 6.8753228c-8945e-7-.0251832-.00179-.0503659-.0026855-.0755491C9.4893742 6.7622848 9.502223 6.7233624 9.4913807 6.6859694 9.4913778 6.5253325 9.491375 6.3646946 9.4913721 6.2040582c.0108576-.0373964-.0020008-.0763259.0073557-.1138196 8945e-7-.0251842.0017881-.0503678.0026817-.0755525.0095816-.0241041-.0010834-.0502186.00739-.0744328 8078e-7-.0158434.0016146-.0316877.0024223-.0475316.0099564-.0199184-8039e-7-.0423222.007493-.0624399.0105972-.1013184.0157509-.2035775.0330629-.3037353C9.5780201 5.374723 9.6043758 5.222887 9.6394577 5.0724621c.0433931-.1860633.0920706-.3701587.150568-.5520725.0552902-.1719408.115839-.3421097.1872883-.5074911.0683279-.1581569.1393471-.3153195.2224102-.4673131.1216316-.2225709.2472105-.4423995.3915415-.6508269.1254692-.1811891.2592239-.3557844.4036036-.5232801.1590872-.1845579.3255367-.3612683.5019455-.528491.1397762-.132498.2844362-.2601054.4406519-.3736675.0118885-.0086424.0219622-.0197811.0328779-.0297598.0147743-.0071297.025692-.019443.0387726-.02885.1554995-.1191828.3156233-.2323108.4828444-.3338957.4818897-.2927428.9901257-.5290106 1.5293932-.6963903.704113-.2185449 1.425128-.3197997 2.1616573-.296863 1.2844067.0399987 2.463541.4123933 3.5290871 1.1350355.092783.0629231.183712.1285771.2755013.1929629.0161915.0074184.0290756.0191364.0412807.031737.0123749.0179681.0289612.0304664.0493717.0379961.015295.0086337.0292091.0189757.0403976.0326847.1038551.0950247.2144623.1821816.3183975.2773156.1364403.1248844.2672482.2553251.3937111.3898041.151989.161623.292675.3332298.4254627.5112448.2456646.3293378.4593639.6780386.6366978 1.0486689.2010098.4201102.3561668.8561563.4577885 1.3113289.0527363.2362142.0955181.4736371.1192474.7144938.0021.0213203.007473.0423183.0113258.0634665.008337.0200648-.0025196.0424476.0075226.0623064 7973e-7.0158877.0015945.031776.0023937.0476637.0084782.0242019-.0021839.0503016.0073738.0743961 8945e-7.0251946.0017853.0503902.0026817.0755849.009409.0374246-.0035114.0762963.0073643.1136265 57e-7.1607418 95e-7.3214836 134e-7.4822254-.0108986.0373383.0020332.0762234-.0073776.113658-8907e-7.0251918-.0017796.0503836-.0026684.0755754-.0095749.0241013.0010815.0502081-.0073776.07442-8011e-7.0158825-.0016022.0317645-.0023994.0476475-.0100479.0198593 8106e-7.042244-.0075264.0623093-.0407429.3333039-.093708.6642289-.1812115.9891162-.1202984.4466419-.2850895.8757334-.5000343 1.2853508-.1864223.3552589-.4046822.6894836-.6532402 1.0048866-.2072811.2630215-.4371624.5042639-.6801739.7333374-.1119328.1055126-.2317333.2026777-.3479671.303627C20.1074619 11.3897448 20.093544 11.4000902 20.0782433 11.4087267z"/><path fill="#fefefe" d="M16.255455 12.8081608c.1175041-.0091257.2350807-.0174007.352499-.0275326.3765068-.0324888.7470264-.0991535 1.1121273-.1964159.0127602-.0033989.0260048-.0049686.0390263-.0073957-.02981.0279274-.0702076.0248909-.1057796.0357084-.1500473.0456276-.3052635.0699835-.4574757.1068335-.059824.0144835-.1239891.0178947-.1854591.0331755-.0155087.0038557-.0204296.013073-.0303974.0196466-.0107841.0071087-.0240612.020793-.0354176.0119505-.0477734-.0372028-.0829792 6161e-7-.1261692.0102768-.0385933.0086317-.0857372.0259972-.1186924.0187979-.0343342-.0075026-.0543938-.0140171-.0777702.0130777-.0024624.0028563-.010685.0040874-.0141602.0022192-.0462494-.0248737-.0867386-.0210171-.1330166.0079603-.0220222.0137892-.0580788.0024309-.0880184-.0172815C16.3482475 12.7938261 16.2993546 12.8146057 16.255455 12.8081608z"/><path fill="#fefefe" d="M14.2409039 12.5767927c.169796.0386457.3382807.0826635.509716.1145773.3125982.0581884.6271486.0973635.9449282.1101418.0163774 658e-6.0326309.0043583.0489712.006649-.0543346.0060577-.1095304-.0087767-.1629953.0255346-.0255051.0163689-.0719414.0190048-.0986891-.0191345-.0139275-.0198603-.0288916-.0193481-.0451536-.0027485-.0034199.0034924-.0078392.0060825-.0120144.0087481-.0401773.0256271-.0675945-.0273619-.0879965-.0223198-.0307436.0075951-.0542116.036725-.0830669-.0013237-.0049067-.0064697-.0129671-.0187483-.0177832-.0133791-.0500488.0557823-.082737-.0275993-.1269426-.0151453-.0031309 8812e-7-.0099726-.0079603-.011919-.0068302-.0867586.0504408-.1521187-.0315361-.231019-.0394878-.1960316-.0197582-.3869038-.0749035-.5782032-.1232395C14.2716904 12.5945282 14.2521429 12.5942717 14.2409039 12.5767927z"/><path fill="#fefefe" d="M18.1450367 12.4578838c.0366268-.0177279.0746498-.0312834.1148319-.0383797.0038452.0334606-.0118866.0491571-.0426426.0362215C18.191 12.4446945 18.1690693 12.4643755 18.1450367 12.4578838z"/><path fill="#fefefe" d="M13.7401304 12.4195042c.0387383.0075293.0766687.0173006.1100693.0396442-.0255117-1793e-7-.0492153-.0116425-.076993-.0018311C13.7431326 12.4679422 13.7384443 12.4435692 13.7401304 12.4195042z"/><path fill="#fefefe" d="M13.9399261 12.4881201c.0561399.0096159.1093826.0287399.1621656.049386C14.0390682 12.5505037 13.9936161 12.5057898 13.9399261 12.4881201z"/><path fill="#fefefe" d="M17.8978882 12.5374985c.0527954-.0206127.1060352-.0397673.1621799-.0493784C18.0063763 12.5057898 17.9609241 12.5505142 17.8978882 12.5374985z"/><path fill="#fefefe" d="M12.9601765 12.0799627c.0230846.0024958.0426254.0119247.0579557.0296001C12.986865 12.123085 12.9575176 12.1328516 12.9601765 12.0799627z"/><path fill="#fcfcfc" d="M9.4987278 6.0902386C9.4993382 6.1283612 9.5012274 6.1665668 9.491374 6.2040358 9.4931974 6.1660776 9.4817247 6.1272383 9.4987278 6.0902386z"/><path fill="#fcfcfc" d="M22.5086174 6.2038774c-.0097618-.0374022-.0080338-.0755491-.0073643-.1136265C22.5183277 6.1271791 22.5067558 6.1659632 22.5086174 6.2038774z"/><path fill="#fcfcfc" d="M9.4913807 6.6859694C9.5011978 6.7234282 9.499342 6.7616415 9.4987278 6.7997737 9.4817305 6.7627783 9.4931879 6.7239451 9.4913807 6.6859694z"/><path fill="#fcfcfc" d="M22.5012531 6.7997608c-6638e-7-.0380754-.0024071-.0762205.0073776-.1136379C22.5067406 6.7240257 22.5183334 6.7628241 22.5012531 6.7997608z"/><path fill="#fefefe" d="M13.6601944 12.3896389c.0188065 5789e-7.0362034.0047197.0493898.019516C13.6871872 12.4176636 13.6702623 12.4123287 13.6601944 12.3896389z"/><path fill="#fefefe" d="M18.2859974 12.4079132c.016552-.0101633.03368-.0186367.0538082-.0182743C18.3288269 12.4162159 18.3084278 12.4150543 18.2859974 12.4079132z"/><path fill="#fefefe" d="M14.1009445 12.536726c.0247612.003171.0488443.0085993.0707874.0211897C14.1452961 12.5603485 14.1204033 12.5576153 14.1009445 12.536726z"/><path fill="#fefefe" d="M17.8282681 12.5579252c.0219479-.0125599.0460129-.0180502.0707817-.0212002C17.8796024 12.55762 17.8547039 12.5603361 17.8282681 12.5579252z"/><path fill="#fefefe" d="M14.1706858 12.5572882c.0250082.0024624.04914.0080061.0713644.0202799C14.2154036 12.5808792 14.1907244 12.5772505 14.1706858 12.5572882z"/><path fill="#fefefe" d="M17.7579517 12.5775738c.0222969-.0120087.04632-.0179386.0713711-.0202579C17.8092747 12.5772467 17.7845993 12.5808821 17.7579517 12.5775738z"/><path fill="#fcfcfc" d="M9.5087996 5.9402533c8659e-7.0251241.0025692.0503316-.0073843.0744081C9.5030289 5.9897919 9.4924145 5.9636827 9.5087996 5.9402533z"/><path fill="#fcfcfc" d="M22.4985752 6.0146661c-.0098858-.0240626-.0082207-.0492702-.0073776-.0743961C22.5076065 5.9636855 22.4969788 5.9897819 22.4985752 6.0146661z"/><path fill="#fcfcfc" d="M22.4912071 6.9497561c-864e-6-.0251193-.0025177-.0503163.0073719-.0743952C22.4969749 6.9002271 22.507597 6.9263306 22.4912071 6.9497561z"/><path fill="#fcfcfc" d="M9.5014133 6.8753228c.0099564.0240679.0082483.0492935.0073862.0744343C9.4924154 6.9263268 9.503027 6.9002185 9.5014133 6.8753228z"/><path fill="#fefefe" d="M13.0602646 12.130106c.0173349-.0016365.0297251.0081863.0420542.0181475C13.0799446 12.1615639 13.0699558 12.1461773 13.0602646 12.130106z"/><path fill="#fcfcfc" d="M20.0288811 1.4432964c-.0137615-.0105791-.0275192-.021158-.0412807-.0317369C20.0098877 1.4110495 20.0221024 1.4236381 20.0288811 1.4432964z"/><path fill="#fcfcfc" d="M9.5112228 6.9972873c.0087252.0200672.0087996.0411725.007493.0624433C9.5033712 7.0404572 9.5125074 7.0182471 9.5112228 6.9972873z"/><path fill="#fcfcfc" d="M9.5187159 5.8302817c.0013428.0212708.0012169.0423646-.0074949.0624337C9.5125084 5.8717628 9.5033703 5.8495536 9.5187159 5.8302817z"/><path fill="#fcfcfc" d="M12.0091171 1.4107101c-.0076437.0167118-.0204554.0264788-.0387726.02885C11.9794779 1.4248489 11.989747 1.4116652 12.0091171 1.4107101z"/><path fill="#fcfcfc" d="M22.4888039 5.8926063c-.0086651-.0200257-.008852-.0410757-.0075226-.0623074C22.4966259 5.8495188 22.4874935 5.8716927 22.4888039 5.8926063z"/><path fill="#fcfcfc" d="M20.1186504 1.5139773c-.0134659-.0108949-.0269318-.0217898-.0403976-.0326847C20.1002979 1.4815862 20.1126995 1.493796 20.1186504 1.5139773z"/><path fill="#fcfcfc" d="M20.0782433 11.4087267c.0134697-.0108976.0269394-.0217972.040411-.0326958C20.1126995 11.3962173 20.1002903 11.4084282 20.0782433 11.4087267z"/><path fill="#fcfcfc" d="M11.8803139 11.3800468c.0186205.00208.0303993.0130873.0382051.0292778C11.8993282 11.4079876 11.8891325 11.3949156 11.8803139 11.3800468z"/><path fill="#fcfcfc" d="M22.4812813 7.0597129c-.0013237-.0212293-.0011501-.0422778.0075264-.0623035C22.4874916 7.0183172 22.4966297 7.040494 22.4812813 7.0597129z"/><path fill="#818181" d="M12.2110147 2.0277936c.1388855-.1181817.2845583-.2268234.4372663-.3269833.2167044-.142134.4393454-.2741706.6703415-.390671.2386055-.120337.4857254-.2221236.7387342-.3097076.2823429-.0977383.5716591-.1682301.8639021-.2265966.1619625-.0323471.3269835-.0469842.4914064-.0645566.3320742-.0354902.6649179-.0158079.9972734-.0155476.1343365 1053e-7.2691841.0274487.4036789.0416474.2115288.0223314.4178104.0685672.6232853.1176856.3377304.0807328.6650162.1940072.9827328.3354343.3282871.1461321.6397133.321702.9402599.5179727.1975441.1290059.3802986.276433.5597534.4289831.1575527.1339316.3042221.2791581.445425.4291894.202179.2148187.3881226.4435549.5530701.6890595.156744.233295.3009815.4742258.4229736.7268262.1312084.2716782.2371521.553838.3249493.8435218.0721226.2379546.125309.4794488.1688213.7231898.0240097.1345057.0290375.2722988.0458565.4082108.0299301.2418699.0193081.4847226.0174026.7271008-.0013103.1667418-.02701.3323402-.0435562.4983616-.0227089.2278123-.070507.450429-.1273556.6706734-.0858231.3324833-.2012291.6550646-.3449383.9678812-.1175594.2558947-.2567139.4994431-.4093914.7346802-.1269627.1956215-.2663097.3829842-.4197235.5602427-.1548309.1788979-.3195477.3476429-.4889679.5119114-.0926781.0898571-.1946163.1701508-.29212.2550516-.0294151.0256166-.0478439.0287657-.07728-.0085011-.2424088-.3069029-.4876232-.6115961-.7333908-.9158258-.0202179-.0250254-.0118809-.0352364.0077209-.0503025.1746349-.1342344.3321819-.2874947.4824448-.4475098.2617359-.2787256.4808979-.5885201.6663036-.9234428.1775398-.3207169.3093605-.6589198.4042282-1.0116482.0672169-.2499132.1092987-.5043817.1316071-.7630911.0176373-.2045331.0210609-.4089932.0126381-.6127934-.0092239-.2230134-.037632-.4448609-.0817852-.6648965-.0475521-.2369642-.1144981-.4676442-.1973324-.6938496-.0893784-.2440667-.2017441-.4774799-.3341732-.7015729-.1203938-.2037232-.2511177-.4003839-.4024391-.5818913-.1458511-.1749444-.3023605-.3403935-.4712029-.4943261-.1489773-.1358218-.3031845-.2643769-.4695549-.3780465-.1897278-.1296268-.3859062-.2494528-.591608-.3514044-.4072437-.2018383-.8348198-.3418257-1.2827377-.4259458-.3806667-.0714903-.7637024-.0729878-1.1467628-.0613794-.2831602.0085813-.5626307.0616711-.8381367.1308659-.3320704.0834016-.6521406.2006718-.9565916.3559016-.3115215.1588349-.6097355.340661-.8782673.5672381-.0061283.005172-.0140438.0082293-.0211258.0122726-.0601768-.0444746-.1092205-.1008632-.1587076-.155772-.0801897-.0889735-.1642437-.1742094-.2455988-.2620206-.1129913-.1219568-.2251911-.2446938-.3414898-.3635752C12.2339869 2.064642 12.2187958 2.0486321 12.2110147 2.0277936z"/><path fill="#d600c8" d="M12.1207743 3.8217964c-.0779877.12888-.1584873.2561154-.232235.3877087-.0763798.1362882-.1413307.2774363-.2034245.4202957-.0032282.0074277-.0079231.0142169-.0119352.0213032-.0144634.0151782-.0285034.0127397-.0431337-2251e-7-.0151024-.013382-.0266819-.029582-.0385723-.0455823-.2211113-.297524-.4471903-.5913076-.6690102-.8882992-.0159035-.0212929-.0318174-.0425708-.0494471-.0625837-.0104342-.0118449-.0250206-.0239468-.0123816-.0430491.153656-.2728686.331811-.5288641.5307674-.7705336.0316954-.0031943.0413313.0237408.0556965.0424376.1629324.2120516.3227415.4264672.4834385.6402099.0568867.0756636.1157856.1498063.1718826.2260809C12.1184282 3.7713273 12.134943 3.792551 12.1207743 3.8217964z"/><path fill="#d600c8" d="M17.6682453 6.0897241c.0174026.081738.0237274.1645031.0230083.2479219.0077934.1272416.0013962.2546139.0035381.3817592-.0026379.041328-.0248852.027009-.0422516.0127215-.0333595-.0274401-.0648232-.0573449-.0963879-.0867281-.1314754-.1223836-.2648926-.2426453-.3975716-.3636808-.1326542-.1210098-.2649269-.2424641-.3983345-.3626709-.0889187-.080121-.1770515-.1611962-.2652836-.2421207-.1421204-.130352-.2832451-.2617931-.4278507-.3894157-.0274849-.0242562-.0534458-.0501537-.0778322-.0774641-.0139236-.0155954-.0259447-.0331545 6056e-7-.0491714.088871-.0355487.1829185-.0488248.2768803-.0575838.1074886-.0100193.2157001-.0150433.3236179-.001328.0295391.0011787.0503025.0150089.0716171.0365367.1029129.1039457.2145023.198699.3224335.2973456.0846291.0773506.1696243.1543403.2538605.2320743.1306763.1205907.2634926.2388353.3936214.3600206C17.6508808 6.0456009 17.6664696 6.0630131 17.6682453 6.0897241z"
		/><path fill="#9b00ae" d="M10.1402359 7.1098881c-.0216379-.0395174-.014184-.0846248-.0179243-.1259513-.0136328-.1506071-.0304127-.3015661-.0203152-.4534125.0263767.0055676.0219955.0287914.0195322.0438142-.0162907.0993204.0302076.1709375.0879564.2470403.3654814.4816418.7297974.9641848 1.0933352 1.4473076.2864161.3806334.5732746.7609425.8607264 1.1407938.2080431.2749166.4140997.5513401.6240358.8248253.0060844.0079279.0128632.0153847.0141487.0258942-.0400839.0598736-.0869884.1143608-.1335669.1691065-.0327787.0138063-.0398703-.0170164-.0520144-.0329638-.1058979-.1390657-.209837-.2796183-.3153324-.418992-.4310026-.569416-.8603649-1.1400709-1.2906485-1.7100296-.2828369-.3746486-.5651741-.7496753-.8487177-1.1237898C10.1533165 7.1327982 10.1488867 7.1200829 10.1402359 7.1098881z"/><path fill="#a200b2" d="M12.8017311 10.2601995c-.0660868-.0547724-.1074219-.1298265-.1583223-.1966639-.2539968-.3335218-.5054817-.6689539-.7579517-1.0036402-.1776447-.2354946-.3555031-.4708281-.5331659-.7063084-.2524967-.3346634-.5048075-.6694674-.7573824-1.0040717-.1367817-.1812048-.2696829-.3655939-.4130163-.5414743-.0581779-.0713887-.0817232-.142364-.0720396-.2298989.0017366-.0157003.0055056-.0335822-.0078583-.0476193.0-.126647-19e-7-.2532964-29e-7-.3799453.0392408.0254126.0163298.0648565.022254.0977573-.0147676.1020417.015523.1836314.0804443.2686148.388073.5079966.7721968 1.0190425 1.1566458 1.5298195.2793236.3711061.5593357.7417021.839344 1.1122971.2237988.2962027.4471626.5927343.6708126.8890505.016037.021245.0348625.0400915.0501823.0618334C12.8853502 10.1629524 12.8455257 10.2131596 12.8017311 10.2601995z"
		/><path fill="#9000a9" d="M10.446434 8.4006824c-.078783-.2130022-.1494112-.4284778-.1973524-.6508307.038373.0131674.0563574.0480695.0785475.0770416.1690292.2206979.3351002.4436412.5026693.6654458.4304686.5697851.8604031 1.1399708 1.290699 1.7098846.1152925.1527004.2275505.3077641.3473129.4570875-.0388517.0720205-.1073866.1204987-.1502171.1893635-.0344143 4568e-7-.0467243-.0281782-.0629082-.0498295-.2481394-.3319616-.4986134-.6621656-.7484827-.9928179-.3311377-.4381933-.6601839-.8779659-.9930201-1.3148746C10.4909134 8.4612627 10.4623413 8.4356747 10.446434 8.4006824z"/><path fill="#d600c8" d="M15.5009079 4.7328401c.0018578.0025311.0017967.0050154-1822e-7.007453-.0190239.0136375-.031435-977e-6-.043148-.0115814-.1133137-.102572-.2259769-.2058597-.3391104-.3086348-.1438599-.1306887-.2872267-.2619357-.430501-.3932505-.0598478-.0548527-.1244478-.1049783-.1781607-.1664929.0100775-.1810269.0205173-.3620358.0297766-.5431046.0011501-.0224955.0104723-.028717.0306473-.0273819.0198927.001317.0398712.0013137.0598125.0018892.1309576.1201487.2620401.2401817.3937349.3594987.1329222.1204288.2632685.2436936.398386.3617294.0424013.0370412.0819387.0774312.1218386.1172924.0010405.007278.0011864.0144391-.0027819.0210519-.0109653.1631317-.0219307.3262634-.032896.4893951C15.4987249 4.6708422 15.5113258 4.7027674 15.5009079 4.7328401z"/><path fill="#9b0092" d="M15.5412197 4.1513085c-9241e-7-.0070953-.0018463-.0141907-.0027704-.021286.0080585-.0283723.0328493-.0240116.0527325-.0245576.0624361-.0017157.1249352-.0019846.1873837 3104e-7.0600939-.0019546.1201944-.001543.1802912 396e-7.0502396-.0026598.1004982 43e-7.1507492-5288e-7.0534153-.001009.1068249-9418e-7.1602325 5007e-7.059864-.0022793.11973-8998e-7.1795979-3829e-7.0598106-.0018783.1196194-1636e-7.1794205-587e-7.0528374-9975e-7.1056767-.0011201.1584759 5827e-7.0557976-.0011249.1116238-.0014768.1673431 4025e-7.071146.0021362.1423721.0030932.2134476 1564e-7.0029736-.0194554-.0106544-.0263667-.0196228-.0346065-.1370869-.1259475-.2745304-.2515061-.4123592-.3766456-.0923061-.0838087-.1847401-.1675162-.2756119-.2528508-.0364037-.0341868-.0779324-.0626473-.1108913-.1003754-.012228-.0139956-.0326767-.0259328-.0197048-.0502765.3812447-5417e-7.7624893-8574e-7 1.1437321-.0020926.0278397-901e-7.0375366.0082712.0374393.0368102-8659e-7.2547147-.0012054.5094378 2537e-7.7641475 2213e-7.0387511-.0203495.0376606-.0472527.0375981-.163166-3791e-7-.3263321-796e-7-.4894981 486e-7-.4578648 3595e-7-.9157295 6986e-7-1.3735933.001267C15.5788212 4.1295385 15.5530539 4.121933 15.5412197 4.1513085z"/><path fill="#d000c7" d="M10.8606348 3.6113646c.0506659.0687315.1007948.1378672.1520939.2061238.1994696.2654126.3990755.5307238.5995007.7954133.0144777.0191212.0254259.0500112.0609465.0382018-.0422115.1200676-.085804.239677-.1259432.3604345-.0153255.0461044-.0391426.0894866-.0459375.1384001-.0093708.0233092-.0234213.030643-.0438213.0118661-.0159273-.0146599-.0297527-.0313749-.0426664-.048686-.253418-.3396835-.5112381-.6760559-.7644587-1.0158868-.0089083-.0119557-.0188828-.0233212-.0232353-.0380816.0488844-.1383357.1296549-.2604773.1984129-.3886762C10.8362503 3.6504767 10.8415852 3.6266172 10.8606348 3.6113646z"
		/><path fill="#cf00c7" d="M15.9898853 5.1608748c-.0124226.0173407-.0055285.0301228.0084953.0429163.1091232.0995531.2175121.1999145.3270512.2990046.0430775.0389695.0851765.0790277.1283188.1179338.1800137.1623454.3553772.3298435.5352249.4923816.1526985.1380019.3058014.2755051.4558678.4163923.0713692.0670047.1448746.1317329.2172356.1976886.0076847.0070033.0156498.0122676.0262737.0125751.0140076.0584536.0036736.1177845.0060787.1766644.0016861.0412655 2632e-7.082653 3662e-7.1238475-.0108662.0493221-.0367088.0251093-.0557022.0088658-.0391827-.0335045-.0761299-.0696983-.113903-.1047831-.131731-.122364-.2651291-.2429118-.3979607-.3640389-.1721706-.1570005-.3435287-.3149037-.5168533-.4706545C16.5224915 6.0306911 16.4361 5.9500184 16.3487015 5.8704686c-.1439857-.1310544-.287323-.2628183-.4313755-.3938031-.0529213-.0481195-.1082077-.0938697-.1578741-.1455159-.0132303-.0137582-.0327787-.0248046-.0289793-.0490403C15.808342 5.2232962 15.8962946 5.1860552 15.9898853 5.1608748z"/><path fill="#8900a6" d="M10.446434 8.4006824c.1109982.1099033.1960611.2406635.2902117.3639135.2471771.3235722.4917269.6491537.7368269.9743099.1225653.1625957.2438765.3261347.3660574.4890203.1460009.1946421.2921619.3891659.4388409.5832968.0108185.0143175.0263758.0250549.0397263.0374546-.0029869.0057755-.0051928.012146-.0090742.0172386-.0383663.0503397-.0379963.0497208-.0862961.0107956-.2099638-.1692085-.4038153-.3560696-.5884867-.5517321-.2035389-.2156496-.3894587-.4461613-.555028-.6930647C10.9245901 9.4013357 10.7842751 9.162487 10.66119 8.9141684 10.5788364 8.748023 10.5051203 8.5772343 10.446434 8.4006824z"/><path fill="#c900c4" d="M10.6271133 4.0591497c.0631275.054873.1039515.1276588.153594.1931806.2168398.2862077.4320583.5736442.6480341.860507.0099525.0132184.0221577.0247335.0322018.037889.0143118.0187407.0271702.0127664.040349-7868e-7-.0336819.1500602-.0673656.3001227-.1010494.4501843-.0108204.0193005.0024347.0541234-.0248966.0593071-.0275984.0052347-.0397873-.0256691-.054286-.0450211-.2195444-.2930307-.4420633-.5838165-.6611576-.8771887-.0597191-.0799646-.1186008-.1607661-.1831217-.2369175-.0216408-.0255427-.015976-.0477834-.0076904-.0732899C10.5171623 4.3024163 10.5626144 4.176692 10.6271133 4.0591497z"/><path fill="#c800c4" d="M15.7304726 5.2821093c.0993032.1100359.2182913.1991315.3230038.3035178.0445042.0443668.0953102.0823383.1416397.1249714.1783962.1641707.3546829.3306618.5345707.4931707.1527367.1379795.3052406.2761497.4559746.4163275.151926.1412873.3062706.2799711.459219.4201632.012804.0117388.0249519.0220466.0435619.0193906.0143242.0702105.0025673.1411934.0061588.2117314.0010109.0198183 877e-7.0397286 2003e-7.0594616.0014858.0254421-.0122757.0279827-.031559.0198765-.0186253-.0078297-.034029-.0207238-.0485725-.0345097-.1688538-.1600537-.3421955-.315259-.5141487-.4719086-.1694641-.1543779-.3362637-.3117523-.5096359-.4618254-.0114117-.0098767-.0203323-.0219116-.03092-.0324564-.0045605-.0175524-.0091286-.0351024-.0136833-.0526567-.0494728-.1906462-.1723633-.3044672-.3632793-.3470912-.0177975-.0039735-.0356083-.0078692-.0534153-.0118012-.0273895-.0016723-.0473824-.0143609-.0683689-.0331473-.131279-.1175094-.2580252-.2400041-.3912745-.3553195-.0365305-.0316148-.0682735-.0682173-.1043558-.100327-.0090847-.0080833-.0154486-.0179987-.0059032-.030333C15.6089935 5.3641167 15.6643953 5.3164711 15.7304726 5.2821093z"
		/><path fill="#a400b3" d="M12.9216747 10.1099501c-.0188656-5074e-7-.0293388-.0128727-.0396652-.0266514-.215621-.2877064-.431035-.5755711-.6472988-.8627958-.2760696-.3666496-.5528669-.7327499-.8293285-1.0991049-.2864408-.3795815-.5724001-.7595277-.8594732-1.1386309-.1399841-.1848598-.2816906-.3684206-.423789-.5516601-.0107622-.0138774-.0115499-.0265808-.0116577-.0411434-3204e-7-.0433087-1183e-7-.0866203-1202e-7-.129931.0324421-.0150466.0406275.0150633.0527449.0312557.156559.2092228.315855.4163737.4727211.6253619.3457079.4605751.6946077.9187446 1.0398579 1.3796668.0847034.113081.1743059.2224655.2555227.338191.0048208.0068693.0112209.0122662.0204859.0123014.1126671.1802845.2264919.3598967.3598442.5258961.1573591.1958799.3277779.3796682.5142899.5484419.0726376.0657272.143713.1331053.2221746.1920443.0125952.0094604.0223055.0177193.0070324.0354776C13.0095425 10.0015459 12.9659824 10.0560703 12.9216747 10.1099501z"/><path fill="#bc00be" d="M10.2398777 5.1901951c.0201778-.1236367.0514641-.2442918.0969515-.3611345.0356407-.0141444.0469379.0162387.0616322.0359235.1335659.1789246.2704878.3553143.4038115.5344129.1641693.2205329.3322983.4380765.4966488.6584692.014884.0199599.0310135.0391102.0412464.0621634-2565e-7.1599674-5131e-7.3199344-7696e-7.4799018-.0315647.0146937-.0407696-.0136776-.0537405-.0300336-.1250572-.1577163-.2419014-.321672-.3643084-.4814067C10.6927338 5.7901635 10.4708242 5.4867525 10.2398777 5.1901951z"
		/><path fill="#9300ab" d="M12.4683104 10.6593113c-.0209312-.001339-.0321035-.0171309-.0428257-.0314007-.2366867-.3150177-.472579-.6306314-.709487-.9454813-.2767296-.367775-.5539436-.7351847-.8315954-1.1022625-.1927624-.2548466-.3868237-.5087137-.5796556-.7635083-.0175819-.023232-.0438585-.0389714-.0556602-.0668044-.0235767-.0957127-.0463181-.1915941-.0598402-.2893825.0358629-.0047402.047204.025691.0634832.0464778.1437359.1835403.2809458.3720269.4215822.5579214.4319468.5709524.862668 1.1428308 1.2941561 1.7141285.1826239.2417955.3628588.4854069.5479307.7253571.0130444.0169153.0290108.0324802.0333281.0548744C12.5225878 10.5925903 12.4954481 10.6259518 12.4683104 10.6593113z"/><path fill="#c200c1" d="M11.340168 6.1200294c-.0639267-.0545096-.1049213-.1277528-.1549253-.1932707-.2463322-.3227615-.4900665-.6475062-.734623-.9716225-.0239582-.031754-.0478802-.063571-.0706244-.0961914-.0110197-.0158038-.0226345-.0287404-.0431614-.0298839.0036631-.0517774.0244761-.0986757.041584-.1466517.0303411-.0850835.060463-.1702452.0906754-.2553849-.0087767.0348077.0120535.0553784.0317726.0811362.1578465.206183.31318.414289.4693079.6217871.1262903.1678429.2526398.3356404.3788395.503551.0060167.0080051.0108318.016912.014616.0228858.0334311-.0125113.0182648-.0435619.0366135-.0562606-.0160856.133419-.0321722.2668386-.0482597.4002576-.0175381.0365152.001565.076396-.0104198.1134214C11.3426008 6.1162148 11.3421354 6.1182899 11.340168 6.1200294z"/><path fill="#b400bb" d="M10.2398777 5.1901951c.0236568 9046e-7.0319462.0196095.0440598.0356646.3018551.4000549.6041765.799757.9063807 1.1995487.0378847.0501184.0756159.1003537.1133032.1506205.0091801.0122447.0187941.0235004.03578.0239024.0162897.0757279.0134211.1532612.0216446.2297492-.0089188.0167651-.0100937.0334315 638e-6.0499458l-5674e-7-7234e-7c.0106735.0191722-.0035896.0421677.0093536.0609913l-83e-6-1521e-7c.0124989.0185733-.0037184.0421348.0104952.06041-6361e-7.0131702-.0167027.0261011-6142e-7.0395312.0061188.0156975.0131226.0341244-.0062208.0430198-.016016.0073647-.027215-.0082884-.0363407-.0200024-.0419283-.0538206-.0822563-.1088572-.1232862-.1633615-.3282175-.4360218-.6582136-.8707047-.9855652-1.3073807-.0079813-.0106483-.0148525-.0225372-.0245695-.0314093-.0257826-.0235386-.0385942-.0485797-.0207453-.0834727.0074244-.0145149-.0023966-.0331492.0061092-.048707C10.200963 5.3478332 10.2159615 5.268074 10.2398777 5.1901951z"/><path fill="#7c009e" d="M15.6400681 8.2893257c.1985054.0821266.4008961.0894842.6063366.0303602.0284634-.0081902.0555897-.0210133.0833359-.0316916.0253506.0610228.0775414.0994434.1243668.1406431.0937366.0824757.184269.1684141.2771111.2518301.0928307.0834036.1847973.1678638.2764072.2526617.0136318.012619.0365047.0215244.022665.0475292-.1494293.0866003-.3107204.1392956-.4803905.1680441-.1402264-.1302252-.2824802-.2582455-.4232349-.3879032-.1505251-.1386595-.30474-.2733316-.4521093-.4154224C15.658946 8.3303261 15.634613 8.3183079 15.6400681 8.2893257z"/><path fill="#af00b8" d="M10.1896496 5.4283695c-.0220699.0685544.0169163.1139865.055192.1644855.248229.3274994.4935846.6571736.7406158.9855843.1195412.1589231.2406769.3166471.3610678.4749317.0066652.0087643.0095253.0254188.0237522.0210867.0170631-.005198.0072918-.0227842.0099907-.0347729.0279856.0793257.0313129.1637874.0510445.244925.0187569.0771308.0333967.1552629.0498457.232955.0094337.0295072-.0076408.0273762-.0257187.0202913-.0211563-.0082898-.0323095-.0279312-.045558-.0449185-.1390791-.1783252-.27213-.3612013-.4088125-.5413342-.2763786-.3642383-.5514431-.7294674-.8259115-1.0951443-.013916-.0185409-.0300474-.0357008-.0387287-.0577912C10.1482105 5.6743789 10.1581068 5.549819 10.1896496 5.4283695z"/><path fill="#aa00b6" d="M10.1364288 5.7986679c.0634909.0523171.1026754.1245089.1514416.1885076.24368.3197875.4849443.6414165.7270708.9623852.1385069.1836066.2768393.3673444.4159355.5505028.011569.015234.0209665.0482526.0502768.0175157.0534859.1648245.1068335.3297062.1606655.4944296.0050135.0153379.0131025.0296726.019763.0444727.0022364.0045071.0024929.0091238 7744e-7.0138464-.043582-5465e-7-.0604534-.0369778-.0817995-.0643654-.1023769-.1313467-.2019377-.2648635-.3021088-.3979068-.3375807-.4483581-.6763783-.8958015-1.0135794-1.3444476-.0509834-.0678339-.1046715-.1336341-.1532249-.2033081C10.1125784 5.9723949 10.1232128 5.8854089 10.1364288 5.7986679z"/><path fill="#d300c3" d="M12.1207743 3.8217964c-.0021267-.057143-.0474443-.0901809-.0771685-.1300659-.2047977-.2748144-.4123688-.5475647-.6194611-.8206644-.0088358-.0116541-.0217361-.0202277-.0327425-.0302353.0603046-.0685778.1206408-.1371288.180892-.2057521.0159245-.0181384.0315971-.0364985.0473862-.0547559.0389786-.0116696.0472956.0249317.0622301.0440454.0788593.1009259.1544886.2043641.2315617.3066878.1331129.1767261.2681522.3520036.3995667.5300045.0132303.0179203.0340958.0333679.027853.060653C12.26752 3.6217415 12.1941481 3.7217693 12.1207743 3.8217964z"/><path fill="#bf00c0" d="M15.5596848 5.4193439c7677e-7.0108447.0076962.0167518.0154428.0238819.1051245.0967431.2089272.1949296.3146095.2910519.0674438.0613437.1383562.1189642.2005262.1858716.0116558.0125465.0299587.0046248.0393257.018322-.1029911-.0118165-.2058868-.0098562-.308712.0021234-.0177374.0059028-.0281296-.0066719-.0383329-.0167031-.13274-.1304984-.2732239-.252646-.4104357-.3782616-.1310492-.1199756-.2615471-.2406249-.3944092-.3586793-.0819082-.0727792-.1620169-.1476903-.2429533-.2216172-.0748053-.068326-.1482553-.1381154-.2248755-.2044768-.019949-.0172787-.0405216-.0348134-.0505457-.0607095 8297e-7-.0201159.0016603-.0402317.00249-.0603476.0097103-.033474-.003171-.0685806.0073719-.1019945.0017548-.0534906-.0038004-.1074171.0095568-.1602159.0061979.0721602.064394.1068082.1103468.1487327.1375408.1254854.2746553.2514477.4127169.3763733.0924568.0836582.1840782.1683044.2758951.2527008.0522423.0480194.105257.0952563.1552696.1424294.0248423-.0107746.006629-.0447359.0352306-.0472417-.0044489.0771456-.0091028.1542797-.0131273.2314477-6218e-7.0119076-.0110941.0285039.0053864.0347705.0154591.0058789.0208817-.012394.029376-.0213499C15.5135345 5.4704728 15.5312185 5.4399753 15.5596848 5.4193439z"/><path fill="#7c009e" d="M14.5001059 7.2499852c.2864227-5178e-7.5728483-5217e-7.8592634-.0022378.0340338-2036e-7.0416632.0119796.0413876.0434303-.0013552.1548557 6027e-7.3097425-.0011177.464592-.0014429.1297746.0168371.2549925.0731134.3731232-.0317745.017046-.050293-.0086803-.0681801-.0248318-.0813341-.0734396-.1621294-.1474915-.2431107-.2213345-.144762-.1320033-.2893963-.2641501-.43402-.3962994-.0686159-.0626974-.1408157-.1218381-.2033892-.190999C14.5124502 7.2826052 14.4939833 7.2725072 14.5001059 7.2499852z"
		/><path fill="#9700ad" d="M10.1402359 7.1098881c.0696402.056006.1123781.1342835.1652851.2036643.243926.3198833.4848948.6420221.7270374.9632659.2581139.3424301.5163803.6847448.7745314 1.0271463.242177.3212137.4842787.6424875.7264538.9637032.034893.0462809.070508.0920277.1046715.1388359.0081758.0112038.0145512.0222311.0299568.0228033-.01898.02351-.0379524.0470209-.0569248.0705318-.0344934.0139542-.0428267-.0175734-.0565195-.0349827-.1389999-.1767035-.2710333-.358696-.4067526-.537899-.4322929-.5707932-.8627787-1.1429539-1.2940207-1.7145405-.223629-.2964082-.4465733-.5933452-.6719303-.8884487-.008214-.0107565-.0141191-.0224853-.0202513-.0342684C10.1460686 7.2307835 10.1408787 7.1706085 10.1402359 7.1098881z"
		/><path fill="#d600c8" d="M15.547678 9.1605148c-.591114-.0878029-1.0498762-.4245749-1.1755371-1.0475063-.0026054-.0129156-.0023251-.026413-.0033894-.0396395-.0049677-.0411196.0169525-.0328817.0365028-.017664.0274458.0213623.0537663.0446243.0790205.0684099.1317167.1240578.2666063.2446566.4001637.3666725.1310844.1197567.2621698.2395554.3939295.3585939.0911236.0823259.1816874.16535.2720251.248579.008543.0078707.0167408.0162163.0236645.0255995.006937.0094023.0153189.0198402.0087214.0316334C15.5742941 9.1703596 15.5603447 9.1646519 15.547678 9.1605148z"/><path fill="#a700b4" d="M10.1116438 6.0602999c.0224657.0069785.0338879.0265794.046627.0434012.1670465.2205915.3334913.4416375.5001316.6625381.2424479.3213949.4849148.6427751.7274036.9641404.0688438.0912375.1375065.1826124.2068615.2734609.0191593.0250959.0408525.0481653.0674868.0658855.0083132.0088511.011797.0208912.0197725.0299664.0409002.1137819.0898151.2243004.1483984.3297691.0404177.0727663.0724936.1504831.1233425.2173567-.0144987.0162601-.0201759-.0010147-.0257292-.0082397-.1544495-.2008705-.3093119-.401433-.4623652-.6033659-.23312-.3075743-.4648981-.6161652-.697319-.9242692-.2075062-.275075-.4152088-.5500026-.6223564-.8253465-.0092468-.012291-.015707-.0256834-.033556-.0255642-.0044594-.0363584.0096893-.0741363-.0083523-.1094565C10.1052094 6.1204848 10.108427 6.0903926 10.1116438 6.0602999z"
		/><path fill="#8200a1" d="M14.5001059 7.2499852c.0723782.0893102.162487.1604881.2472382.2367005.0478468.043026.0941954.0879192.14258.1304898.1403294.1234651.2726221.2561197.4139442.3783774.0537958.0465384.0939236.1129332.168869.1333418.0442924.0654612.0989342.1201191.1673307.1604319.0721769.0900249.1628742.1611195.2478266.2376604.0479794.0432281.0944471.0883141.1429987.1310558.1407852.1239424.2762337.2539425.4139729.3813562.0371819.0343924.0856342.0578613.1050358.1093063-.0592232.0134068-.1181526.0286036-.1794472.029335.0134792-.0217209.0015087-.0355234-.013731-.0502434-.0957928-.0925102-.1963024-.1798983-.2942562-.2700396-.0979156-.090107-.1961479-.1799459-.2950659-.2689981-.1397257-.1257906-.2775822-.2536373-.417037-.3797369-.0888577-.0803471-.1766462-.1619024-.2652578-.2425451-.1427298-.1298952-.2857428-.2595115-.4275627-.3903689-.1063309-.0981131-.217762-.1908932-.3173819-.2962213-.0050869-.025053.0071449-.0323167.0302238-.0316172C14.4136038 7.2495794 14.4568644 7.2494917 14.5001059 7.2499852z"
		/><path fill="#cf00c7" d="M14.5098057 3.8603334c.0411568.0167022.070467.050086.1019583.0784349.1393442.1254363.2753181.2546082.4134483.3814063.1478195.1356921.2967253.2702026.4450169.4053826.0088997.0081134.0178614.0149102.0304956.0147352.0014629.0671225-.004137.1338115-.01229.2003436-.0098.0301714.0028734.0621614-.0074673.092289.0018396.0024734.0018005.0049162-1183e-7.007329-.0244389.0180917-.0408916 3896e-7-.0561323-.0142155-.1308823-.1254196-.2663698-.2458863-.4004087-.3678117-.1696815-.1543465-.3366508-.3117332-.5098-.4622617-.0088997-.0077362-.0154114-.0174313-.0236425-.02565 3481e-7-.01015 6971e-7-.0202999.0010452-.0304499.0091715-.030417-.0027399-.0624456.0070982-.0928116C14.5001497 3.9846716 14.4970045 3.9220417 14.5098057 3.8603334z"/><path fill="#cd00bd" d="M12.3408918 3.5217135c-.1654291-.2206237-.330636-.4414146-.496397-.6617889-.0665073-.0884204-.1343842-.1758084-.2011547-.2640326-.0064793-.0085607-.0128241-.0148196-.0236597-.0155687.0634651-.063277.1269302-.1265543.1903944-.1898315.0320501-.0043948.0416937.0228047.0557938.0414801.201004.2662268.4036131.5312498.6020775.7993815.0199699.0269797.0530434.0471289.0517054.0870788C12.4627104 3.3885179 12.4039364 3.4569929 12.3408918 3.5217135z"/><path fill="#9600ac" d="M10.1617727 7.2896996c.0779305.070991.1311655.1618686.1943054.2445092.2351761.3078132.4674482.6178441.7007008.9271255.2073593.2749481.4145155.5500517.6218681.8250046.2422142.3211832.4844513.6423492.726902.9633551.0568733.0753021.1150436.1496277.1716051.2251606.0093832.0125313.0167179.0247383.03409.0249834-.020505.0197983-.0410109.0395966-.0615177.0593929-.071126-.0743713-.1280613-.1600161-.189827-.2416677-.2669706-.3529215-.5321102-.7072268-.7982159-1.0608025-.1305485-.1734591-.2617626-.3464165-.3926573-.5196161-.2408199-.3186541-.4816236-.6373205-.722436-.9559813-.0699301-.0925369-.1396704-.1852188-.2099743-.2774715-.0130091-.0170712-.0266294-.0342455-.0473642-.04322-57e-7.0 4826e-7 1979e-7 4826e-7 1979e-7-.0074024-.0367703-.0101995-.0743809-.0201931-.1106782C10.1545706 7.3314891 10.1651993 7.3096886 10.1617727 7.2896996z"/><path fill="#b700bc" d="M14.4593248 4.7001472c.076828.0682707.1545467.135571.2303057.205009.1750174.1604185.3488016.3221822.5236444.4827933.1075315.0987778.2161379.1963873.3241768.2946138.0945349.0859442.1889515.1720138.2834225.2580299-.0687876.0182056-.1370277.0379453-.2002659.0716629-.066534-.0477715-.1218042-.1083679-.1818361-.1632795-.1719332-.1572695-.3443375-.3140559-.5158157-.4718385-.1469507-.1352172-.294651-.2696753-.4430056-.4033666-.0314636-.0283561-.0421934-.0572181-.0308752-.0962667C14.4510098 4.8183002 14.4454784 4.7586637 14.4593248 4.7001472z"/><path fill="#c900c4" d="M14.4908657 4.1703153c.0297823.0084176.051466.0297432.0730028.0495067.1382723.126884.2751532.255281.4133072.3822937.1527462.1404281.3064909.2797704.4593792.4200444.0131397.0120549.0262833.0199566.0442924.0180936.0018759.0704756-.0055923.1403899-.0126429.21033-.0010834.0012674-.0022144.0024953-.0032387.0038071-.0146618.0187745.00984.0548463-.0175638.0615659-.0286198.0070171-.0418873-.0276871-.0608778-.0448418-.1809511-.1634555-.3615561-.3272963-.5417032-.4916368-.0919743-.0839047-.1828604-.1690049-.2741222-.2536883-.0122023-.0113235-.021678-.0281587-.0359192-.0342503-.0526314-.022511-.0601282-.0648203-.0560293-.1139402C14.4796705 4.3083158 14.4790831 4.2389536 14.4908657 4.1703153z"
		/><path fill="#c100b2" d="M12.8399715 2.9978473c-.0564194.0547068-.1128387.1094134-.1692581.1641202-.0597715-.0650866-.1078701-.13919-.161068-.2093251-.1610708-.2123563-.3228159-.4242144-.4813499-.6384788-.0225935-.0305369-.0419798-.0631282-.0880795-.0535691.069849-.06006.1336546-.1271415.2094412-.1803057.0251703-.0019505.0323772.020139.0435314.0347037.2112217.2758241.4176083.5553083.6284637.8314185C12.8325129 2.9606321 12.8539505 2.9736958 12.8399715 2.9978473z"/><path fill="#c800b8" d="M11.9402161 2.2605946c.0368547-.0202498.0576735-.0082843.0831156.0259225.2060337.2770262.4151783.551739.6226187.8277245.0104589.0139165.0248899.0275426.0247631.0477235-.050354.0521576-.1007071.1043134-.1510611.1564682-.2253876-.2995439-.4506912-.5991476-.6764631-.8983979-.0087385-.0115831-.0219736-.019773-.0331144-.0295436C11.8534546 2.3471925 11.8968363 2.3038933 11.9402161 2.2605946z"
		/><path fill="#ae00b8" d="M14.4490757 4.8775048c-.0110607.0728579.0518818.1002288.0920782.1351299.0537138.046638.104166.0968838.1576052.1437573.1406202.1233454.2749195.2538629.4130363.3801012.1636486.1495738.3285751.2977533.4932966.4461489.0094414.0085063.0148344.0173731.0155153.0296102-.0374498.0324244-.0749025.0648456-.1123543.0972667-.0249529.0043602-.0409803-.0123091-.0561218-.0266814-.0832195-.0789804-.1690636-.1550617-.2537479-.2324262-.1435719-.1311641-.2874136-.2620387-.4308605-.3933282-.1042337-.0953994-.2106218-.1885505-.3114586-.2876306-.0395947-.0389056-.0164804-.0869746-.0168085-.1315193C14.441184 4.984375 14.4347095 4.9303021 14.4490757 4.8775048z"/><path fill="#c000c0" d="M16.5599651 6.3500199c.0334358.0059013.0534763.0333252.0760422.0531878.0946083.0832753.1851864.1711011.2784233.25596.1728382.1573029.3468018.3133717.5196705.4706402.061388.0558472.1211567.1134815.1812515.1707349.0216808.0206575.0432434.040957.0732174.0489726.0136929.0671868.0024681.1351404.0062351.2025099 5989e-7.0268378-.0147877.0271544-.0322437.0170584-.021574-.0124774-.0413017-.0283537-.0592709-.0454903-.1323204-.1261897-.2688351-.247848-.4040184-.3708715-.1708012-.1554375-.340126-.3125205-.5123463-.4664283-.0404778-.0361743-.0844898-.0698586-.1153088-.1160598C16.5677338 6.4968295 16.5638504 6.4234242 16.5599651 6.3500199z"/><path fill="#9400aa" d="M16.2702465 9.1880245c-.0563164.0075846-.1126595.0146837-.169693.0097075-5608e-7-.0197992.0191822-.0141087.0310688-.0251846-.0471363-.0439968-.0949459-.0872087-.1424341-.1302595-.231432-.2098103-.4613428-.4212713-.6919479-.631978-.1901207-.1737156-.3807821-.346839-.5705814-.5209169-.118763-.1089253-.2399549-.215199-.3565807-.3264785-.0108604-.0103631-.0220432-.0201583-.0299654-.0330629.0-.0399942.0-.0799885.0-.1199827.0192242-.0135221.0310965.0018086.0430975.0120597.0657711.0561824.1298676.1144371.1928453.1735487.1734495.1628032.3509636.3211441.5258379.4823647.1907425.175848.3830442.3500528.5746765.5249624.1510973.1379108.3023729.275629.4535475.413456.0454998.0414839.0908623.0830679.1353264.1256409C16.2795982 9.1554537 16.2996101 9.169467 16.2702465 9.1880245z"/><path fill="#8100a2" d="M17.0302906 8.9806585c-.0168591-.0418615-.0558147-.0648222-.087677-.0903511-.0557632-.0446777-.1045761-.0964622-.1577778-.1434889-.1487751-.1315136-.2920456-.2692566-.4373226-.4047203-.0155201-.014473-.0352669-.0283899-.0177727-.0540943.0582504-.0329504.1065292-.0773411.1483383-.1291599.0228519-.0076447.0329914.0113497.0454254.0230722.0665817.0627823.1361389.1223106.203146.1845284.1645908.1528263.3308887.3037491.4975147.4543247.0061798.0055828.0124836.0110493.0159035.0189419C17.1769447 8.8968163 17.1075783 8.9446316 17.0302906 8.9806585z"/><path fill="#d200c2" d="M15.7796936 4.118607c-.0630884 4196e-7-.1261826 5174e-7-.1892624.0014658-.0176859 2656e-7-.0369682-.0053253-.0519714.0099535-.0637016-.0323672-.1051083-.0910964-.1574278-.1366093-.1414671-.1230588-.2760057-.2540524-.4142065-.3809028-.1014194-.0930889-.2044506-.1844211-.3062973-.2770474-.013133-.0119431-.0297127-.0226588-.0304861-.0437307.0900736 26e-7.1801453 55e-7.2702179 81e-7.0738144.0540414.136014.1212199.2036676.182133.1847935.1663828.366025.3367164.5520382.5017917.0384521.0341244.0717001.0737834.1127434.1053081C15.7798223 4.0895133 15.7924919 4.1013365 15.7796936 4.118607z"/><path fill="#8700a5" d="M17.2400684 8.8397112c-.0427895-.0109158-.0665264-.0485439-.0969391-.0746584-.0980644-.0842009-.1902027-.1752663-.2856712-.262538-.1259346-.1151237-.2528648-.2291603-.3793736-.343667.0399761-.0650053.0612545-.1372662.0814819-.2099342.0811348.0478826.1421299.1196432.2110729.1815262.1865711.1674747.3692055.3393288.5564709.5060959.0206833.0184202.0450573.0347967.0539207.0636892C17.342453 8.7552176 17.2938862 8.8001165 17.2400684 8.8397112z"/><path fill="#a000af" d="M14.3401127 7.5298514c.0648232.0307713.1044598.0913177.1577778.1358204.1017609.0849357.1948118.1802192.2929993.269537.1679745.1528001.3375139.3038783.5056143.4565396.093338.0847645.1845026.1719189.2776937.2568464.1764364.1607924.3535919.320797.5305672.4809971.0172081.0155764.0352459.0302315.05616.0480986-.0223255.0193682-.0467033.0037794-.0603752.0200443-.0203381 792e-7-.0406799 1602e-7-.0610218 2403e-7C15.969656 9.1628256 15.9191227 9.10326 15.8634548 9.0517168c-.1343079-.1243582-.269783-.2474661-.4051275-.3706474-.1710157-.1556435-.34161-.3117867-.5127449-.4672966-.0984573-.089468-.1978827-.1780777-.2943411-.2698927-.0903425-.0859957-.1851587-.167273-.276372-.2524433-.0136499-.0127459-.0253305-.0259275-.0347729-.0416026C14.3401022 7.6098399 14.3401079 7.5698457 14.3401127 7.5298514z"
		/><path fill="#8c00a7" d="M15.309885 6.6790724c-.0965986-1e-6-.1931982-24e-7-.2897968-33e-7-.1332684-.124393-.26933-.2457371-.4032345-.3694453-.0693712-.0640874-.1378689-.1293736-.2111435-.1890068-.0287476-.0233951-.037282-.0485311-.0263004-.0822892 9537e-7-.0662045-.002492-.1326556.0110846-.198154.0424795-.0043364.0664654.0280552.0913048.0517073.1335688.127182.2718496.2492127.4076691.3738847.1296682.1190248.2585602.239006.3908787.3551683C15.2974424 6.635942 15.3173265 6.6509528 15.309885 6.6790724z"/><path fill="#d200c2" d="M17.6682453 6.0897241c-.0283108-.049861-.0764542-.0809913-.1158352-.1201162-.0481033-.0477905-.1026134-.0890536-.1526241-.1350198-.177227-.1628966-.353035-.327343-.5308018-.4896469-.0796356-.0727091-.1658306-.1384845-.2360821-.2209005-.0128365-.0150595-.0319443-.0083871-.0425186-.022078.1198978.0051608.237114.0245862.3502331.0658107.206913.1939359.4147606.3868465.6294003.5722885C17.62286 5.8509698 17.6530819 5.9682326 17.6682453 6.0897241z"/><path fill="#ae00b8" d="M16.5716114 7.0901704c38e-7-.0567565 95e-7-.1135125 153e-7-.170269.0318966-.012063.0499992.012393.0677395.0293212.1324615.1264119.2693863.2479916.404665.3712687.1697254.154665.3374577.3115721.5100174.4631295.0238094.0209117.0454006.0441136.0680313.0662398.0186157.0182047.0397243.0297484.0661545.0303016-.0031967.0609746.0014954.1232662-.029974.1795206-.029953.0131645-.0477028-.0102129-.0638599-.0258875-.0884171-.0857778-.1816292-.1662621-.2723789-.2494369-.1373272-.1258607-.2754402-.2508926-.4128647-.3766317-.1092262-.0999403-.2204342-.1978045-.3269405-.3007216C16.5773907 7.1023436 16.5745392 7.0961676 16.5716114 7.0901704z"/><path fill="#9000a9" d="M17.381031 8.7002249c-.0788898-.0703592-.1585712-.1398535-.2365036-.211257-.1731529-.1586409-.3454075-.318264-.5180912-.4774179-.022459-.0206981-.0559006-.0296535-.0668678-.0626321.0040035-.0662608.008007-.1325169.0120125-.1987729.0211334-.0069237.0349007.0066004.0482082.0186701.0774307.0702252.1544971.1408486.2318459.2111659.1436234.1305642.2870808.2613339.4299355.3927178.0669842.0616064.1398277.1173029.1990623.1872244C17.458231 8.6143551 17.4210148 8.6582727 17.381031 8.7002249z"/><path fill="#a20098" d="M16.3299332 3.2917321c4082e-7.0190613.0148201.0292857.0268288.0401945.1752052.1591735.3510876.3176048.5259457.4771564.0991421.0904617.1967945.1825554.2948475.2742043.0080376.007513.0213242.0149403.0168571.027874-.004879.0141249-.0199432.0087476-.0307388.0087762-.0648212 1721e-7-.1296463-3796e-7-.1944695-6895e-7-.0823193-.0725384-.1619625-.1480153-.2433243-.2216139-.1431561-.1294951-.2852802-.2601318-.4278336-.3902864-.0601959-.0549603-.123848-.1064353-.1792068-.1665993-.0128918-.0140097-.0330067-.0246248-.0286293-.0490372C16.1701164 3.291718 16.2500248 3.2917249 16.3299332 3.2917321z"
		/><path fill="#b400bb" d="M17.6882343 7.8801622c-.011364.0155983-.0208054.0185351-.039875.005733-.0515728-.0346212-.0906639-.0826674-.1372833-.122551-.1033802-.0884423-.1994476-.1853647-.300127-.27704-.1680241-.1529994-.3371773-.3047633-.5061913-.4566722-.0427818-.0384502-.0749149-.0899687-.133131-.1097307-19e-7-.0532074-57e-7-.1064148-76e-7-.1596222.0211658-.0068827.0347538.0068693.0483131.0187192.0688324.0601482.1364746.1216846.2036934.1835713.1870556.172224.375164.3432755.5633888.5142155.0836487.0759654.1656704.1537404.2503681.2285767.0106907.0094466.0187187.0227818.0349159.0266147.0106544-.022644.0027733-.0442576.004076-.0653362.0011063-.0328059-.0084457-.0669184.0123863-.0971141-553e-7-.0733352-1106e-7-.1466699-1774e-7-.2200079-477e-7-.0966229-82e-6-.1932435-1297e-7-.289866-324e-7-.1066284-534e-7-.2132554-877e-7-.3198833 9499e-7-.1340365.001915-.2680712.0028839-.4021144.0117931.025425.0064831.0525436.0064983.0787687 2651e-7.4397554 1869e-7.8795118-7153e-7 1.3192663C17.6969337 7.7838526 17.6913013 7.832005 17.6882343 7.8801622z"/><path fill="#a700b4" d="M14.4392557 5.0379333c-.0243225.0980673.0471745.1468582.1053829.2009149.1094036.1016021.2203159.2015862.3310289.3017712.1697206.1535792.3399754.3065686.5096073.4602461.0405531.0367379.0746469.0807266.1229811.108654-.0106153.0418429-.0580702.0634561-.0603456.1098766-.0210505.006537-.0347271-.0067706-.0484314-.0186739-.0676889-.0587945-.1338882-.1193252-.199831-.1799893-.1881514-.1730962-.3773212-.3450594-.5661983-.5173521-.0514917-.0469685-.1020498-.0953684-.1548891-.1405869-.0510588-.043695-.0625896-.0939736-.0493622-.1551051C14.4314337 5.1510372 14.4244385 5.0938396 14.4392557 5.0379333z"
		/><path fill="#9b00af" d="M15.4107809 6.3400812c-.0040741.0532818-.0081482.106565-.0122223.1598468-.0249615.0180788-.0407181-.0012174-.0555811-.015543-.1303463-.125627-.2658014-.2457523-.3998442-.3672867-.1709204-.1549726-.3373842-.3149357-.5134087-.4642215-.0401688-.0340657-.0223665-.0750504-.0204163-.1148086.0024281-.0566587-.0050716-.1138959.0099001-.1698236.0056953.0040331.0109653.009984.0100098.0163136-.0090122.0596676.0336046.0895786.0703354.1224136.1559296.1393948.3085413.2824359.4637461.4225883.1330166.1201172.2628365.243783.3985987.3608646C15.3795261 6.3056278 15.3948965 6.3231244 15.4107809 6.3400812z"/><path fill="#a100b1" d="M16.5715981 7.440134c38e-7-.0534239 95e-7-.1068482 153e-7-.1602721.0217133-.0136395.0341339.0052881.0475502.0151963.0549526.0405812.1026802.0897474.1523781.136116.1738091.1621604.3518467.3196721.5256042.4818954.1104164.1030855.2254257.2012768.3335724.3069048-.0069523.0454254-.0227432.0879822-.0420189.1294069-.0212135.0074053-.0352097-.0061455-.0482674-.0183973C17.4167347 8.2149105 17.2904205 8.1016855 17.16506 7.987443c-.1351624-.1231756-.2705154-.2461896-.4052029-.3698502C16.696434 7.5593657 16.6261597 7.5078893 16.5715981 7.440134z"/><path fill="#bb00ad" d="M12.8399715 2.9978473c-.0458794-.0785379-.1070232-.1459255-.1611462-.2183642-.1749439-.2341449-.3525734-.4662826-.5291681-.6991942.015625-.0231199.0368147-.0397356.0613441-.0524788.0525999.0525711.106513.1039078.1575165.1579888.135457.1436288.2709503.2872658.4038486.433248.0737619.0810239.1546898.1554809.2222633.2421634C12.9463778 2.9104736 12.8935032 2.9545319 12.8399715 2.9978473z"
		/><path fill="#a100b1" d="M15.4107809 6.3400812c-.0432158-.0101042-.066678-.0481586-.0969801-.074192-.0991812-.0852098-.1922016-.1775451-.2889299-.2656693-.1724882-.1571393-.3459358-.3132238-.5190363-.4696889-.0245514-.0221939-.0482492-.0453067-.0731096-.0672164-.0278711-.0245624-.0065355-.0633483-.0135117-.0950603.0025377-.053565-.0048294-.1077385.0099888-.1605468-.0203075.0972581.0547304.1416335.1105089.1951919.0488605.046917.1025248.0887885.1524353.1346631.1768732.1625729.3510342.3281674.5304556.4878607.0739117.065784.1407595.1403847.2253103.1939745C15.4405327 6.2611623 15.4142027 6.2970982 15.4107809 6.3400812z"/><path fill="#ab00b5" d="M14.3400965 7.6498342c.0769758.0479231.1335211.1191549.2008648.178081.1847448.1616521.3659801.3274183.5455303.494854.082571.0769997.1661892.15273.2497997.228549.1905069.1727543.3802528.3463516.5699282.5200195.0451975.0413818.088912.084383.1333084.1266384-.0771055 2947e-7-.1544342.0079813-.231081-.0069447.0216513-.0231695.0508509-.0077477.0805264-.0164595-.0118523-.0204182-.0294371-.034565-.0455055-.0488415-.2126589-.1889524-.42066-.3830338-.6312313-.5742741-.1354485-.1230145-.269722-.2474499-.4048681-.3708143-.1301994-.1188478-.2583246-.2400684-.3918924-.3552523-.0288553-.0248842-.0578041-.0504103-.0753775-.0855684C14.3400984 7.709826 14.3400974 7.6798301 14.3400965 7.6498342z"
		/><path fill="#9a00ae" d="M16.5715981 7.440134c.0436134.019196.0739861.0561576.1080303.0865378.1396179.1245904.2750854.2538166.4128857.3804584.1523533.1400204.3054829.2792006.4586716.4183073.010828.0098314.0249367.0160484.0375156.0239439-.0079517.0407763-.0404892.0703344-.0503159.1102552-.0195255.0132513-.0310841-.0027351-.0426044-.0130548-.0765953-.0686045-.1520424-.1384792-.228159-.2076187-.1804428-.1638966-.3594303-.3293824-.540308-.4928155-.0527592-.0476713-.1073532-.0938129-.155714-.1463408C16.5716 7.5465827 16.5715981 7.4933581 16.5715981 7.440134z"/><path fill="#cb00bb" d="M15.7796936 4.118607c-.0375242-.054769-.0894938-.0963211-.1386499-.1385143-.050231-.0431161-.0978193-.0892515-.1470642-.1331873-.1804047-.1609461-.3560028-.3272722-.5340061-.4909232C14.938242 3.3360038 14.9099798 3.3226938 14.90026 3.291744c.0632544 55e-7.1265087 107e-7.1897631 162e-7.1299324.1189103.2598553.2378433.3902683.3562143.1328764.1206076.263279.2439542.3986931.3617587.0239019.0207934.0464077.0430121.0676394.0663838.0103598.0114045.0266218.0229206.0131483.0425167C15.8997469 4.1186247 15.8397198 4.1186156 15.7796936 4.118607z"/><path fill="#ba00bb" d="M14.3400984 7.7398214c.0824986.074162.1653261.1479607.2474279.222558.1863728.1693316.3731241.3382578.5581903.5090065.0767307.0707922.1536694.1412849.2311487.2112627.1697149.153285.3371239.3091269.5050316.4644022.0114756.0106125.0271568.019227.030858.0439701-.0358782.0-.0700855.0-.1042995 48e-7-86e-7 57e-7.0012789-3767e-7.0012789-3767e-7-.0561113-.0339499-.0979624-.0847225-.1454086-.1282234-.1348362-.1236229-.2698956-.2470779-.4051447-.370223-.1709194-.1556187-.3409691-.3122139-.5128889-.4667587-.1248188-.1122055-.2463999-.2280164-.3721857-.3382092-.0194578.0060544-.0099154.0295525-.0256538.0356536C14.3341837 7.86239 14.3400412 7.8009729 14.3400984 7.7398214z"/><path fill="#8500a3" d="M14.3794098 6.0383277c-.012619.0536733.0345221.0706754.0625038.0973482.0491247.0468273.1027718.08887.1528559.1347384.133419.1221881.2660246.2452631.3987045.3682547.011941.0110688.0264063.0212588.0266142.0404024-.1067295 91e-7-.213459 215e-7-.3201885 334e-7-.0777006-.0669384-.1539383-.1356702-.2275276-.2069283-.0367355-.0355721-.0812902-.0621295-.1133261-.1025176C14.3597641 6.258842 14.3652763 6.1483202 14.3794098 6.0383277z"/><path fill="#a8009d" d="M16.09021 3.2917111c.0705318.0822144.1544609.1502559.2353249.2214613.046093.0405867.0892563.0842168.1352081.1250644.1401367.1245694.2757931.2541714.4136944.3812678.0338707.0312166.0770969.0532627.0947762.0997534-.0598812-72e-6-.1197548-134e-6-.1796284-196e-6-.1358223-.1226885-.2705669-.2465539-.4055786-.3701332-.1472759-.1348047-.2965527-.2674334-.4414902-.4047799-.0148067-.01403-.0362635-.0259624-.0322971-.0524137C15.9702158 3.2917268 16.0302124 3.291719 16.09021 3.2917111z"/><path fill="#bb00ad" d="M16.4491692 4.1188803c-.059845-582e-7-.1196899-1163e-7-.179533-174e-6-.1268921-.1126585-.2506332-.2287886-.3765831-.3424561-.1309013-.1181369-.2599783-.2382739-.3912029-.3560627-.041913-.0376203-.0940809-.0686991-.1116247-.1284401.0599146 41e-7.1198282 79e-7.1797428 119e-7.1176529.0976853.2265663.2050581.3403893.306987.137332.1229827.2710886.2499027.4094648.3717287.0386658.0340416.0726719.0730455.1135769.1048133C16.446209 4.0852365 16.4565754 4.0998068 16.4491692 4.1188803z"/><path fill="#b400a7" d="M16.4491692 4.1188803c-.0320473-.0581946-.0880871-.0941381-.1355991-.1360068-.0520725-.0458899-.1017628-.0946343-.153965-.1404181-.1406689-.1233728-.2753534-.253552-.4131794-.3801968-.0486774-.0447288-.0997286-.0868697-.1493511-.1305845-.0122681-.010807-.0264816-.0209246-.0271063-.0399158.0599995 2e-7.119998-2e-7.1799974-1e-6.131259.1203146.2625675.2405908.3944149.3602419.1318512.1196513.2622414.2409172.3950367.3595564.0344467.0307746.0803356.0547047.0897636.1074495C16.5691776 4.1189637 16.5091724 4.1189222 16.4491692 4.1188803z"/><path fill="#9600ac" d="M16.5716 7.5998068c.0323715.0078435.053154.0340004.0755672.0541778.1367607.123117.2705898.2494769.4061394.3739495.1537971.1412306.3083153.2816772.4628448.4221067.0056515.0051365.0147476.0064831.0222359.0095959-.0096626.0389519-.0315037.0708885-.0577564.1002855-.0539818-.0224628-.0880051-.0703869-.1298447-.1070957-.1396523-.1225195-.273571-.2515516-.4103699-.377347-.111084-.10215-.2230225-.203373-.3350048-.3045402-.0096588-.0087247-.0224819-.013947-.0338345-.0207958C16.5715866 7.7000322 16.5715942 7.649919 16.5716 7.5998068z"/><path fill="#ad00a2" d="M16.6291809 4.1190052c-.0625362-.0780287-.1421947-.138473-.2157211-.2047515-.0477543-.0430481-.0941143-.0879366-.1425076-.1304517-.1403694-.1233215-.2754431-.252677-.412365-.3799117-.0381527-.0354524-.0881863-.0594988-.1086216-.1121342.0534172-74e-7.1068354-16e-6.1602535-229e-7.0735836.0857317.1614857.1563385.2451611.2313571.0431004.0386386.0845909.0789585.1279678.1173861.1547031.1370571.3064728.277441.4584122.4175866.018734.0172787.0442257.0311236.0478306.0610108C16.7361183 4.1190429 16.6826496 4.1190238 16.6291809 4.1190052z"/><path fill="#c200b3" d="M15.3902254 3.2917473c.0741529.0857608.161397.1576717.2461882.232136.0461788.0405543.0893497.0842581.1352997.1251817.1401224.1248002.2762604.2540767.4137096.3818684.0297203.0276303.0718346.0435147.0842171.0877867-.0534687-124e-7-.1069317-11e-6-.1603966-95e-7-.0583897-.030849-.0987492-.083436-.1459618-.1267393-.1344528-.1233208-.2698259-.2456956-.4041748-.3691418-.0927763-.0852489-.1844044-.1718781-.2796774-.254503-.0224276-.0194511-.0606527-.0334866-.0494232-.0765781C15.2834129 3.2917478 15.3368187 3.2917476 15.3902254 3.2917473z"/><path fill="#8b00a6" d="M14.3401623 7.2798872c.0579758.0276723.0967579.0789876.1431437.120163.1896029.1683102.3758698.3403835.5630426.5114264.0881224.0805278.1750679.1623435.2633238.2427239.1788559.1628981.35919.3241844.5369644.4882488.0767469.0708284.153348.1417131.2312593.211298.1026497.0916824.2018185.1872635.3023739.2812872.0083714.0078287.0159035.0165567.0235558.0245819-.0070438.0167599-.0269432.0047035-.0333729.0184278-.0101452 6981e-7-.0202923.0014-.0304394.0021019-.1350403-.1304569-.2756176-.2549677-.4143934-.3813229-.1694956-.1543245-.3379049-.3098726-.5087194-.4627829-.089097-.0797567-.1763077-.1617117-.2647476-.2422647-.1412258-.128634-.2819014-.2578712-.423522-.3860822-.0898991-.0813866-.1801987-.1624579-.2677612-.2463408-.0396032-.0379386-.086585-.067791-.1207371-.1114755C14.3401413 7.3265471 14.3401508 7.3032169 14.3401623 7.2798872z"/><path fill="#9400ab" d="M15.309885 6.6790724c-.0393791-.0674963-.1078281-.1064129-.1600513-.1614552-.0464888-.0490012-.102047-.0892682-.1519747-.13516-.1769361-.1626329-.3528442-.3263865-.5300894-.4886789-.022912-.0209785-.0513821-.0358863-.0772762-.0536051 4387e-7-.0135427 8764e-7-.0270848.0013132-.040628.007556-.0244746.0011978-.0496583.0037889-.0743637.020916-.0237379.0356455-.003232.0490475.008647.0694981.0615973.1389456.1233592.2067823.1867003.209713.195817.4250927.3854322.6343851.5817051.0361576.0339074.075717.0643849.1126013.0977278C15.3999453 6.6911197 15.4167976 6.682035 15.309885 6.6790724z"/><path fill="#ba00be" d="M17.6887608 7.5695262c42e-6.0366101 82e-6.0732207 124e-6.1098309-.0460854.0029421-.0709133-.0327139-.0986195-.0585976-.1711216-.1598735-.3453579-.3163509-.5179863-.4745541-.1664467-.1525359-.3330669-.3049312-.5006485-.4562459-38e-7-.0399089-95e-7-.0798168-134e-7-.1197257.0642128.0395322.1130867.0971131.1684036.1467118.1789532.1604586.3533077.3260312.5307274.4882193.1271248.1162119.2563534.2301254.3845329.3451848C17.6651688 7.5592246 17.6736603 7.5699916 17.6887608 7.5695262z"
		/><path fill="#8b00a6" d="M14.3401327 7.3498774c.0379333.0087314.0601015.0409522.0864954.0640054.09869.086206.1923056.1781859.2892752.2664056.1692228.1539559.3407793.3053675.5088263.4605865.0816526.0754213.1635036.1505632.2459869.2250834.1895018.1712017.3778601.3436728.5662708.5160789.0918102.0840092.1828365.1688757.273838.2537642.0130367.0121603.0294056.0230522.0291882.044343-.0223045.0110493-.0460262.009552-.0697689.007884.0031948-.0087757.0118465-.0170116.0012608-.0267487-.0757999-.0697136-.1492043-.1422796-.2280483-.2083559-.0497122-.0416594-.0948486-.0879745-.1434031-.130702-.1408377-.1239357-.2758884-.2544222-.4141283-.38134-.1919718-.1762486-.3847656-.3516026-.5772285-.5273161-.1140022-.1040792-.22789-.2082863-.3421297-.3121047-.0663071-.0602579-.1332741-.1197901-.1997643-.1798477-.0077991-.0070457-.0162001-.0114427-.0266905-.0117445C14.3401194 7.3898716 14.340127 7.3698745 14.3401327 7.3498774z"
		/><path fill="#c500c0" d="M14.3484526 7.9228883c5894e-7-.0099597 9584e-7-.0199394.0018311-.0298738 8326e-7-.0094776-.0036001-.0218663.0071487-.0270143.0139494-.0066805.0203533.0074573.0283079.0147271.1591721.1454759.3171635.2922606.4774256.4365211.157815.1420546.3148575.2848864.4701309.4297333.145505.1357327.2941513.268096.44102.4023743.0132828.012146.0236788.0274496.0354176.0412893-.0374641-.0016632-.0755129.0035419-.11201-.0095158-.0937481-.0964518-.197463-.1822062-.2960653-.2734146-.095046-.0879183-.1904383-.1756287-.2870007-.2619877-.177001-.1582966-.3508759-.3200521-.5265083-.4798594-.0807495-.0734749-.1669416-.1418991-.2378073-.226017C14.3497133 7.9341969 14.349082 7.9285421 14.3484526 7.9228883z"/><path fill="#c700b8" d="M15.2300062 3.2917483c.0019369.0247149.0223312.0365548.0376644.0507212.1182594.1092703.2371998.2178056.3560963.3263869.1507387.1376626.3017139.2750659.4523115.4128859.0121593.0111289.0221691.0246077.0331726.0369811-.0498295-3e-5-.0996532-467e-7-.1494761-768e-7-.0159321-.0445962-.0554485-.0692945-.0874605-.0991035-.0894566-.0832992-.1822948-.1629546-.2729216-.2450154-.1495104-.1353817-.2988157-.2710011-.4469576-.4078753-.023592-.0217993-.0540028-.0397115-.0624123-.0748928C15.1366844 3.2917562 15.1833458 3.2917521 15.2300062 3.2917483z"/><path fill="#ce00c4" d="M14.3503428 7.9398508c.0648413.0411782.1161995.0982361.1727228.1489515.1885605.1691942.3750019.3407507.5622177.5114431.077095.0702925.1541662.1406126.2311182.2110615.1209431.1107216.2420406.2212772.3621387.3329086.0093327.0086746.0332069.0143309.019187.0369101-.0127153-.0010748-.0254297-.0021534-.0381422-.003232-.0161753-.0083847-.03514.0018797-.0511427-.0076532C15.5878468 9.1691685 15.5665627 9.17239 15.5476894 9.160512c.0272493-926e-6.0413857-.0085783.0149603-.033021-.0999403-.0924463-.1987057-.1862535-.3010788-.2759352-.0461569-.0404348-.0903368-.0830612-.1362228-.1237373-.140377-.1244373-.2757406-.2545137-.4139709-.3813982-.1014404-.0931139-.2042446-.1847429-.3066607-.2767916-.0125389-.0112677-.0278339-.0343504-.0359621.0037241C14.355422 8.0298548 14.3491774 7.9853635 14.3503428 7.9398508z"
		/><path fill="#9500ab" d="M15.3984108 6.5999618c-.0528727-.0107188-.0817127-.0561085-.1184292-.0876198-.0994911-.0853872-.1924953-.1782789-.2895613-.2665586-.1681614-.1529408-.3371639-.3049641-.5065498-.4565496-.0267277-.0239191-.0441542-.0594206-.0828085-.0691247-.0052052-.0033617-.0058508-.0074439-.001936-.0122476.0028257-.0566216-.0055208-.113914.0101862-.1697779-.0084944.0599036.017024.0968876.0652466.1355009.0968904.0775852.1837015.1676707.2757235.2514424.1740913.1584849.3490715.3159938.5232973.4743328.0270767.0246081.0523405.0512395.0780029.0773664.0131216.0133581.0260305.0261459.046977.0232019C15.398509 6.5332723 15.3984594 6.5666175 15.3984108 6.5999618z"/><path fill="#a700b4" d="M16.5716114 7.0901704c.0595913.0293961.0983791.083817.1468487.1260886.14011.1221905.2738285.2516866.4106998.3776164.1575871.1449862.315649.2894554.4741688.4334159.0155315.0141048.0325565.0285397.0549316.0323915.0114632.0315189-.0109463.0595484-.0092773.0900574-.0193901.0133343-.0312557-.0021915-.0427532-.0126715-.1189232-.1083984-.237608-.2170701-.3567352-.3252397-.136301-.1237645-.2721558-.2480316-.4081726-.3720999-.0904617-.0825171-.1832752-.1626096-.2697144-.2495131C16.5716095 7.1568675 16.5716095 7.1235189 16.5716114 7.0901704z"/><path fill="#a600b4" d="M16.5716076 7.1902161c.0367432.0197921.0680046.0465279.0986977.0746017.1844635.168736.369833.3364825.5542831.5052333.0965729.0883522.1901131.1801047.2885818.2662563.0442562.038723.0815639.086503.1358128.1134329-4711e-7.0248718-.0069923.048171-.0182648.0702333-.0470371-.0137529-.0733089-.0555525-.1075325-.0848932-.1017895-.0872574-.1968384-.1823163-.2960339-.2726636-.1700554-.1548824-.3413391-.3084159-.5119267-.4627137-.0462914-.0418696-.0837612-.0942411-.1436138-.1198411C16.5716114 7.24998 16.5716114 7.2200985 16.5716076 7.1902161z"/><path fill="#b800bd" d="M16.5716305 6.6899595c.0187836.0027184.0342026.0118418.0478954.0246029.0970192.0904064.1932602.1816692.2913494.270896.1678143.1526446.337904.3027992.5048008.4564285.0780201.0718169.1536579.146215.2355003.2137866.0113544.0093756.0250912.0158687.0377159.0236897-.0024929.0253119.0144367.0620317-.0098648.072804-.0199852.0088577-.0368214-.0272565-.0548553-.0434618-.1701221-.1528835-.3402977-.3057175-.5094337-.4596915-.0993786-.0904698-.1949654-.1851835-.2958755-.2738709-.0819912-.0720582-.1559639-.1534982-.2472439-.2148643C16.5716228 6.7368398 16.5716267 6.7133994 16.5716305 6.6899595z"
		/><path fill="#cd00bd" d="M17.5700169 5.7400618c-.0487232-.0063701-.0754929-.0470629-.107851-.0752201-.1021137-.0888638-.1988297-.1838984-.2984982-.275609-.0606823-.0558376-.1229916-.1099048-.1844788-.1648688-.0174942-.0156355-.032526-.0330839-.0385723-.0565882C17.2399807 5.2600503 17.450531 5.4499879 17.5700169 5.7400618z"/><path fill="#7e00a0" d="M14.359046 6.3696589c.0344181.0165653.0648823.0382605.0917702.0657277.0644493.0658364.1338568.1262956.2045403.1853204.0191631.0160017.0351067.0348129.0445442.0584002-.1092129 4745e-7-.2184248 9027e-7-.3276358.0014777-.0177031 925e-7-.0333538-6533e-7-.0326643-.0252743C14.3422775 6.559823 14.3464918 6.4644637 14.359046 6.3696589z"/><path fill="#9300ab" d="M10.1695414 7.3499913c.0186768.0347114.0224018.0721507.020195.1106749C10.1746292 7.4253044 10.1721935 7.3876281 10.1695414 7.3499913z"/><path fill="#bc00be" d="M11.3415632 6.1138029c.0030279-.0378475-.0133944-.0774813.0104179-.113421C11.3433027 6.0377102 11.3602839 6.0773964 11.3415632 6.1138029z"/><path fill="#b700bc" d="M14.4691868 4.5378051c-.0017605.034049.009202.0690174-.0073719.101995C14.4614143 4.6055951 14.4567289 4.5710807 14.4691868 4.5378051z"/><path fill="#8c00a7" d="M14.3991261 5.7078614c639e-6.0040827.0012789.0081649.0019255.0122476-.0053997.0262098.0078812.0545979-.0092468.0794387C14.3917751 5.7687869 14.3854437 5.7375255 14.3991261 5.7078614z"
		/><path fill="#cf00c7" d="M15.5009079 4.7328401c.0019255-.0307565-.0092554-.0625677.0074158-.0921369C15.508831 4.6716557 15.512722 4.7028794 15.5009079 4.7328401z"/><path fill="#c900c4" d="M14.4990091 4.0470538c-.0015211.031002.008997.0629244-.0070982.0928121C14.4913616 4.1087055 14.4870367 4.0772567 14.4990091 4.0470538z"/><path fill="#c900c4" d="M15.4809675 5.0329251c.001812-.030818-.0093641-.0626869.0074673-.0922894C15.4888315 4.971633 15.4931335 5.0029449 15.4809675 5.0329251z"/><path fill="#af00b8" d="M11.3808823 7.0001521c-.0191946-.0174093-.0074434-.040195-.0104961-.0604095C11.3857536 6.9578171 11.3753033 6.9803767 11.3808823 7.0001521z"/><path fill="#af00b8" d="M11.37047 6.9398942c-.0185156-.0179639-.0074091-.0404744-.0093584-.060986C11.3789473 6.8969774 11.3672562 6.9195786 11.37047 6.9398942z"/><path fill="#a400b3" d="M11.6799269 8.0996923c-.0131645-.0056515-.0196095-.0157356-.0197706-.0299664 473e-6-.004406 946e-6-.008812.0014238-.0132313C11.6729727 8.0686455 11.6765947 8.0841074 11.6799269 8.0996923z"/><path fill="#af00b8" d="M11.3616838 6.8796263c-.0171719-.0164289-.016017-.0330939-6409e-7-.0499439C11.3612595 6.8463292 11.3614712 6.8629775 11.3616838 6.8796263z"/><path fill="#c500c0" d="M15.6084423 9.1702404c.0172806 9928e-7.0358391-.0065422.0511427.0076542C15.6419697 9.1791315 15.6242924 9.180788 15.6084423 9.1702404z"/></g></svg>