<svg id="Слой_1" xmlns="http://www.w3.org/2000/svg" xmlns:xlink="http://www.w3.org/1999/xlink" viewBox="0 0 32 13" enable-background="new 0 0 32 13" width="32" height="13"><g><path fill="#292929" d="M13.7401419 12.4192705c-.0100737-.0037689-.022933 6809e-7-.0305462-.0103483-.0157518-.0083055-.0349579-.0078716-.0493898-.019515-.1216326-.0401011-.2382755-.0926991-.3554316-.1437607-.0686264-.0299091-.1350346-.064908-.2024403-.0976162-.0156212-.0023355-.029212-.0093737-.0420542-.0181475-.0140429-.0068474-.0280876-.0136938-.0421305-.0205412-.0216112-.0053797-.0426331-.0119114-.0579567-.0296001-.2062674-.1081877-.4073572-.2253723-.6022673-.3527803-.151392-.098959-.29986-.2023048-.4393816-.3178329-.0126648-.0098534-.0238075-.0216885-.0382061-.0292778-.2389641-.1884632-.4610357-.3957024-.6688147-.6174593-.1732674-.1849232-.3380518-.3772888-.4885054-.5822382-.1149445-.15658-.2231083-.3174105-.3247938-.4822531-.0713396-.1156492-.13486-.2365446-.199934-.3562288-.0810833-.1491318-.1524782-.3025675-.2177954-.4586344C9.9152079 8.7270403 9.8574696 8.567996 9.8026733 8.4076729 9.7401218 8.224658 9.6895676 8.0383921 9.6439314 7.8513064 9.6132193 7.7254019 9.5917988 7.5962381 9.5705233 7.4676018c-.0181055-.1094651-.0264044-.2202621-.04848-.3291531C9.5170288 7.1137114 9.5249624 7.085885 9.5187569 7.0596924c-.008297-.0201187.0024614-.0425229-.0074911-.0624428C9.510457 6.9814072 9.5096493 6.9655657 9.5088415 6.9497228 9.50037 6.9255085 9.5110283 6.8993969 9.5014553 6.8752918c-8945e-7-.0251822-.00179-.0503645-.0026855-.0755467C9.4894161 6.7622576 9.502264 6.7233372 9.4914227 6.685946 9.4914198 6.5253134 9.4914169 6.3646817 9.4914141 6.2040496c.0108576-.037395-.0020018-.0763216.0073557-.1138139 8945e-7-.0251832.0017881-.0503669.0026817-.0755501C9.511034 5.990582 9.5003681 5.964469 9.5088415 5.9402561c8068e-7-.0158439.0016146-.0316868.0024223-.0475307.0099564-.019917-8049e-7-.0423203.007493-.0624371.0105972-.1013145.015749-.2035699.033062-.3037243.0262432-.1518173.052597-.3036489.0876799-.4540682.0433941-.1860552.0920687-.3701444.1505661-.5520515C9.845356 4.3485107 9.9059019 4.1783476 9.9773493 4.0129719c.068327-.1581511.139348-.3153071.2224102-.4672959.1216326-.2225642.2472115-.4423854.3915405-.6508069.1254663-.1811821.2592211-.3557696.4035997-.5232589.1590881-.18455.3255348-.3612535.5019426-.5284705.1397734-.1324931.2844305-.2600964.4406462-.373654.0118885-.0086423.0219631-.0197806.0328798-.029759.0147743-.0071293.025692-.0194421.0387716-.0288485.1554985-.1191798.3156223-.232303.4828415-.333884.4818869-.2927327.990119-.5289909 1.5293846-.6963648.7041092-.2185372 1.4251194-.3197885 2.161644-.2968517 1.2844009.0399986 2.4635258.4123802 3.5290642 1.1349989.0927792.0629203.1837063.1285689.2754917.1929507.0161915.0074185.0290737.0191354.0412788.0317359.0123787.0179651.0289612.0304668.0493717.0379946.0152969.0086339.0292091.0189754.0403976.0326834.1038532.0950216.2144604.1821716.3183956.2773023.1364384.1248804.267252.2553105.3937054.389791.1519775.1616223.292675.333214.4254608.5112226.2456646.3293271.4593639.6780183.6366978 1.0486374.2010059.4200943.3561649.8561242.4577789 1.3112805.0527363.2362051.0955296.4736171.1192474.7144651.0021.0213203.0074749.0423188.0113297.0634661.0083332.0200648-.0025196.0424452.0075188.0623035 7992e-7.0158877.0015965.031775.0023937.0476627.0084801.0242009-.0021801.0502992.0073776.0743928 8926e-7.0251946.0017872.0503883.0026798.075583.009409.0374227-.0035076.0762911.0073624.1136184 57e-7.1607375 95e-7.321475 153e-7.4822125-.0108986.0373363.0020332.0762191-.0073776.1136518-8907e-7.0251913-.0017796.0503821-.0026703.0755739-.009573.0241003.0010834.0502062-.0073757.0744171-7973e-7.0158825-.0015984.031765-.0023994.0476475-.010046.0198588 8087e-7.0422401-.0075245.0623055-.0407448.3332901-.0937042.6642041-.1812115.9890771-.1202965.4466248-.2850876.8757-.5000305 1.2853012-.1864204.3552475-.4046783.6894608-.6532364 1.0048523-.2072773.2630119-.4371548.5042505-.6801701.7333126-.1119328.1055069-.2317314.2026701-.3479633.3036175-.0111904.0137138-.0251102.0240583-.040411.0326948-.0990372.0714025-.1977768.1432219-.2971706.2141266-.2414627.1722536-.4957561.3231354-.7594757.4587984-.2119751.1090441-.4291344.2059031-.6518917.2905111-.0106354.0040398-.0199547.011549-.0298862.0174408-.0159283.0120039-.0354156.0135279-.0538082.0182734-.0117016-.0028811-.0179119.0066175-.0261288.01159-.0328999.0288801-.0782681.0204563-.11483.0383778-.0292168.0075693-.0587845.0141468-.0849686.0302353-.0550709.0131369-.1053391.0420485-.1621799.0493774l.0011654-7792e-7c-.0219002.0127239-.0473843.0134869-.0707836.0212049l.0010548-6132e-7c-.0225563.0110931-.0474129.0140972-.0713692.0202608l.0011578-7591e-7c-.1622124.0485277-.3275127.0837946-.4932175.1180029-.09729.0200872-.1955452.0351152-.2930088.0538206-.0654259.012557-.1331596.0230665-.200758.0269489-.0393066.0022583-.0784111.0081501-.1174946.0116987-.1132126.0102758-.2257099.0262423-.339901.0170574-.0195446-.0015736-.0399303-.0037022-.0592632.003809-.1703014 29e-7-.3406048 48e-7-.5109072 76e-7-.0478563-.0065069-.0957613-.0080957-.143384.0011883-.0133543.0026035-.0264053.0035715-.0395622.0014505-.1204453-.0194149-.2431154-.0179272-.3634176-.0363455-.2104216-.032217-.420516-.0671434-.6283236-.113903-.1103878-.0248375-.2209845-.0492182-.3289433-.0837574l.0011501 7696e-7c-.0239592-.0061588-.0488253-.0091238-.0713682-.0202732l.0010509 6247e-7c-.0234089-.0076904-.0488834-.0084801-.0707912-.0211859l.0011539 7753e-7c-.0568371-.0073318-.1071005-.0362482-.1621714-.0493793-.0299091-.0096579-.0598173-.0193138-.0897255-.0289717C13.8168917 12.4363403 13.770875 12.4490185 13.7401419 12.4192705z"/><path fill="#fefefe" d="M14.2409115 12.5765533c.169796.038641.3382778.0826626.5097122.1145735.3125954.0581856.6271439.0973587.9449215.1101389.0163765 658e-6.032629.0043573.0489683.0066471-.0543337.0060558-.1095276-.0087767-.1629915.0255346-.0255089.0163679-.0719423.0189981-.09869-.0191345-.0139313-.0198612-.0288897-.0193462-.0451527-.0027456-.0034208.0034914-.0078392.0060816-.0120163.0087452-.0401764.0256243-.0675592-.0273418-.0880003-.0223227-.0307236.0075464-.054204.0367432-.0830593-.0013218-.0049057-.0064697-.0129652-.0187454-.0177832-.0133772-.0500479.0557814-.082737-.0275965-.1269426-.0151472-.00313 8821e-7-.0099726-.0079575-.011919-.0068264-.0867586.0504379-.1521177-.0315361-.2310181-.0394878-.1960297-.0197573-.3869009-.0749006-.5781984-.1232347C14.2716961 12.5942888 14.2521534 12.5940294 14.2409115 12.5765533z"/><path fill="#fefefe" d="M16.2554493 12.8079128c.1175041-.0091257.2350788-.0174007.3524952-.0275316.3765049-.0324869.7470226-.0991507 1.1121216-.1964092.0127583-.0033989.0260048-.0049667.0390244-.0073938-.029808.0279284-.0702095.0248871-.1057835.0357046-.1500454.0456285-.3052597.0699825-.4574699.1068316-.0598221.0144815-.1239872.0178928-.1854572.0331745-.0155067.0038557-.0204296.013072-.0303955.0196457-.0107841.0071115-.024065.0207911-.0354195.0119495-.0477734-.0372009-.0829773 6151e-7-.1261673.0102777-.0385914.0086308-.0857334.0259924-.1186905.0187941-.0343323-.0074978-.0543957-.01402-.0777721.0130787-.0024643.0028563-.0106831.0040913-.0141602.0022221-.0462456-.0248671-.0867348-.0210209-.1330128.0079594-.0220184.0137873-.0580807.002429-.0880184-.0172834C16.3482399 12.7935762 16.2993488 12.8143568 16.2554493 12.8079128z"/><path fill="#fefefe" d="M18.1450157 12.4576483c.0366268-.0177259.0746479-.0312824.11483-.0383778.0038471.0334597-.0118866.0491552-.0426426.0362206C18.190979 12.4444599 18.1690483 12.4641399 18.1450157 12.4576483z"/><path fill="#fefefe" d="M13.7401419 12.4192705c.0387373.0075302.0766668.0172987.1100683.0396423-.0255117-1793e-7-.0492153-.0116425-.076993-.0018311C13.7431431 12.4677067 13.7384548 12.4433346 13.7401419 12.4192705z"/><path fill="#fefefe" d="M13.9399357 12.4878836c.056139.0096188.1093826.0287371.1621647.049386C14.0390778 12.5502634 13.9936237 12.5055532 13.9399357 12.4878836z"/><path fill="#fefefe" d="M17.8978672 12.537261c.0527954-.0206108.1060352-.0397673.1621799-.0493774C18.0063572 12.5055532 17.9609032 12.5502758 17.8978672 12.537261z"/><path fill="#fefefe" d="M12.9601927 12.0797415c.0230865.002491.0426254.0119286.0579567.0296001C12.9868813 12.1228657 12.9575338 12.1326284 12.9601927 12.0797415z"/><path fill="#fcfcfc" d="M9.4914227 6.685946C9.5012398 6.723403 9.499383 6.7616138 9.4987698 6.7997451 9.4817724 6.7627506 9.4932299 6.7239203 9.4914227 6.685946z"/><path fill="#fcfcfc" d="M22.5011997 6.7997308c-6638e-7-.0380735-.0024052-.0762167.0073776-.1136327C22.5066872 6.724 22.5182819 6.7627959 22.5011997 6.7997308z"/><path fill="#fcfcfc" d="M22.5085621 6.2038665c-.009758-.0373998-.0080318-.0755434-.0073624-.1136184C22.5182705 6.1271739 22.5067043 6.1659551 22.5085621 6.2038665z"/><path fill="#fcfcfc" d="M9.4987698 6.0902357C9.4993811 6.1283565 9.5012684 6.1665602 9.491416 6.2040277 9.4932404 6.1660714 9.4817648 6.1272335 9.4987698 6.0902357z"/><path fill="#fefefe" d="M13.6602058 12.3894072c.0188055 576e-6.0362034.0047188.0493898.019515C13.6872005 12.4174271 13.6702728 12.4120979 13.6602058 12.3894072z"/><path fill="#fefefe" d="M17.828249 12.5576868c.0219479-.0125618.0460148-.0180473.0707817-.0212002C17.8795834 12.5573816 17.8546848 12.5600967 17.828249 12.5576868z"/><path fill="#fefefe" d="M14.1706934 12.5570498c.0250072.0024652.04914.0080023.0713615.020278C14.2154093 12.5806398 14.190731 12.5770092 14.1706934 12.5570498z"/><path fill="#fefefe" d="M17.7579346 12.5773344c.0222969-.0120077.0463181-.0179377.0713692-.0202579C17.8092537 12.5770006 17.7845802 12.5806398 17.7579346 12.5773344z"/><path fill="#fefefe" d="M18.2859745 12.4076805c.0165539-.0101595.0336781-.0186415.0538082-.0182734C18.328804 12.4159822 18.308403 12.4148169 18.2859745 12.4076805z"/><path fill="#fefefe" d="M14.1009531 12.5364885c.0247593.0031719.0488434.0085993.0707865.0211887C14.1453037 12.560112 14.12041 12.5573807 14.1009531 12.5364885z"/><path fill="#fcfcfc" d="M22.4911537 6.9497218c-8621e-7-.0251179-.0025196-.0503144.0073719-.0743923C22.4969234 6.9001946 22.5075455 6.9262972 22.4911537 6.9497218z"/><path fill="#fcfcfc" d="M9.5014553 6.8752918C9.5114098 6.8993592 9.5097046 6.924583 9.5088415 6.9497228 9.4924574 6.9262938 9.5030689 6.9001865 9.5014553 6.8752918z"/><path fill="#fcfcfc" d="M22.4985218 6.0146651c-.009882-.0240617-.0082207-.0492678-.0073776-.0743928C22.5075569 5.9636869 22.4969234 5.9897828 22.4985218 6.0146651z"/><path fill="#fcfcfc" d="M9.5088415 5.9402561c865e-6.0251231.0025692.0503292-.0073843.0744047C9.5030708 5.9897919 9.4924564 5.9636836 9.5088415 5.9402561z"/><path fill="#fcfcfc" d="M20.078207 11.4085302c.0134716-.0108986.0269413-.0217972.040411-.0326948C20.1126652 11.3960209 20.1002541 11.4082308 20.078207 11.4085302z"/><path fill="#fefefe" d="M13.0602798 12.1298828c.017334-.0016346.029726.0081825.0420542.0181475C13.0799599 12.1613388 13.069972 12.1459541 13.0602798 12.1298828z"/><path fill="#fcfcfc" d="M9.5187569 5.8302884c.0013418.0212693.0012197.0423632-.007494.0624313C9.5125494 5.871768 9.5034122 5.8495593 9.5187569 5.8302884z"/><path fill="#fcfcfc" d="M22.4887524 5.8926096c-.0086727-.0200238-.0088482-.0410738-.0075226-.062304C22.4965763 5.8495245 22.4874401 5.8716979 22.4887524 5.8926096z"/><path fill="#fcfcfc" d="M12.00914 1.4108781c-.0076427.0167116-.0204563.0264773-.0387716.0288488C11.9795027 1.4250184 11.9897699 1.4118321 12.00914 1.4108781z"/><path fill="#fcfcfc" d="M20.1186142 1.5141411c-.0134659-.0108945-.0269318-.021789-.0403976-.0326834C20.1002598 1.4817528 20.1126633 1.4939606 20.1186142 1.5141411z"/><path fill="#fcfcfc" d="M20.0288448 1.4434631c-.0137596-.0105786-.0275173-.0211573-.0412788-.0317359C20.0098553 1.4112155 20.0220661 1.4238079 20.0288448 1.4434631z"/><path fill="#fcfcfc" d="M22.4812298 7.0596747c-.0013218-.0212278-.0011539-.0422754.0075245-.0623002C22.4874363 7.0182815 22.4965801 7.0404568 22.4812298 7.0596747z"/><path fill="#fcfcfc" d="M9.5112648 6.9972496c.0087233.0200672.0088005.041172.0074921.0624428C9.5034122 7.0404191 9.5125494 7.0182099 9.5112648 6.9972496z"/><path fill="#fcfcfc" d="M11.8803377 11.3798504c.0186205.00208.0303984.0130892.0382061.0292778C11.8993568 11.4077864 11.8891544 11.394721 11.8803377 11.3798504z"/><path fill="#818181" d="M15.7888832.6927989c.20825-5369e-7.4171772-.0119638.6245937 9137e-7.3198547.0198585.6366882.0671813.9494896.1416186.3641834.0866647.7175694.203015 1.0597019.354857.3283463.1457247.6393871.321969.9399586.5181677.1725636.1126405.3322811.2411709.4914513.3712766.1832962.1498284.3513508.315753.5131207.4873312.2023277.2145953.3877602.4437277.5524883.6893361.1555958.2319922.2990398.4713748.4203701.722405.131279.2716119.2376366.5535429.3252907.8432329.0662346.2188873.1146564.4410601.1595097.6643958.0246773.1228819.0303612.2488365.0469055.3730125.0365829.2745638.0295467.5502553.0264263.8256369-.0018673.165031-.0260983.3290062-.0434875.4932961-.0267029.2522545-.0798798.4988184-.1462021.7424541-.0836487.3072829-.1922112.605844-.3250561.896049-.117197.2560186-.2564163.4994707-.4089775.7347488-.1268711.1956654-.2655201.3835325-.4193497.5603876-.1420441.1633062-.2917767.3185825-.4456501.4702454-.1075668.1060228-.2236385.2026119-.3389072.3000174-.0264702.0223675-.0451717.0288391-.0736046-.0071239-.242506-.3067465-.4875202-.6115179-.7334061-.9155703-.0211372-.0261374-.0153351-.0365286.0066948-.0540667.2322521-.1849117.4399967-.3944969.6332188-.6197863.2716751-.3167591.4878445-.6683178.6636105-1.0450478.0970516-.2080145.1713963-.425034.2353859-.6458149.0689545-.2379093.1146164-.4802823.1434231-.725482.0287399-.2446647.0327492-.491446.0207558-.7370701-.0117798-.2412143-.0433521-.4810991-.0952415-.7177439-.0517139-.2358589-.1225681-.4657645-.2096786-.6908274-.0769501-.1988201-.1668053-.39148-.2741108-.5758314-.1541481-.2648304-.3230419-.5187924-.5290051-.747462-.0958538-.1064186-.1934891-.2107701-.2958317-.3107064-.2256298-.2203221-.4731655-.412426-.7413521-.5788326-.3422337-.2123525-.7029343-.3842568-1.0868301-.5062881-.2694054-.0856371-.5448875-.1445169-.824976-.1834328-.2528896-.0351367-.5069675-.0287151-.7609739-.0290737-.0132799-188e-7-.0265579-.0011759-.0398369-.0018029-.0190802-.0414242-.0240316-.0865908-.0235147-.1304049.003499-.2970353-.0088549-.5938312-.010828-.8907622C15.7742863.7430635 15.7694759.7154211 15.7888832.6927989z"/><path fill="#00ad12" d="M10.1018152 6.5104551c286e-7-.1199489 572e-7-.2398987 858e-7-.359848.0279703.0309858.0448084.0693622.0699539.1026807.2837954.3760343.5681009.7516913.8524446 1.1273065.2551966.3371096.5069456.6768503.7670135 1.0102634.0072517.0092974.0095348.0272694.0286932.0211906.0634308.1088448.12502.2188158.1906881.3262949.1257658.2058401.2659292.4012203.4250412.5831289.1030588.1178246.2105551.231226.3235092.3392677.0887203.0848608.1784773.1691217.2775688.2421265.0283995.0209217.0288229.0340366.0058069.0611868-.0762901.0899944-.1490803.1829538-.2232132.2747765-.0320415.0039158-.0416555-.0233459-.0558939-.0420732-.1411543-.1856556-.2812538-.3721123-.4220343-.5580482-.3408871-.450222-.6809416-.9010715-1.0214148-1.3516054-.3113432-.4119878-.6232109-.8235769-.9343166-1.2357459-.0822906-.1090217-.1638165-.2186646-.2480364-.3261786-.0244236-.0311799-.0342722-.0620084-.0328941-.1005831C10.1061716 6.5866795 10.1097069 6.5482941 10.1018152 6.5104551z"/><path fill="#00a412" d="M10.1018152 6.5104551c.0180578.0414824.0048332.0850568.0082846.1275325.0014772.0181875.0014191.0347338.0139523.0512099.1735039.2280946.3461571.4568353.5189276.6854873.2177238.2881451.4353085.576395.6530542.8645244.2257309.2986965.4516201.5972738.6773682.8959579.2177601.2881193.4353647.576355.6531858.8644276.0519476.0686998.1041603.1372051.1570454.2051821.0099993.0128517.023757.0227804.035778.0340557-.0584183.0844011-.1278715.1599998-.1915722.2401886-.031949.0140762-.0404377-.0149221-.0531788-.0312576-.1116638-.1431599-.2195063-.2892303-.3291159-.4339581-.3419008-.4514437-.6828737-.9035873-1.0242777-1.3554058-.322319-.4265652-.6458941-.8521814-.966814-1.2798033-.0220041-.0293198-.0429039-.0599647-.068574-.0857487-.0211954-.0212889-.0304317-.0454559-.0356302-.0730395-.0165215-.1569018-.035821-.3135819-.0483961-.4707994C10.0955324 6.6699953 10.1014376 6.590004 10.1018152 6.5104551z"/><path fill="#009d12" d="M10.1502485 7.2198081c.0464125.0778108.1089468.1435475.1625872.2159901.1784525.2410011.3598881.4797978.5405016.7191968.2175369.2883406.4353695.5764599.6531372.8646259.2257538.2987366.4514341.5975285.6774406.8960743.1359949.1796446.2725801.3588419.4087944.5383215.0092115.0121393.0181103.0241404.03514.0250072-.0537167.0529976-.1010208.1116095-.1488256.1697807-.0355587.013752-.0462761-.0171366-.0608292-.0363111-.1308813-.1724434-.2616005-.3450146-.3920488-.517787-.3411655-.4518623-.6826258-.9035034-1.0242653-1.3550062-.2300911-.3040829-.4584217-.6095037-.6904612-.9121151-.0201664-.026299-.0469236-.0472941-.0619955-.0776124C10.2094269 7.5745487 10.1655521 7.3998504 10.1502485 7.2198081z"
		/><path fill="#006c12" d="M17.5790787 8.4495583c-.1071587.2161102-.2674694.3819361-.4752102.5031681-.2292252.1337729-.4792461.197566-.7407799.2284365-.1607513.0189743-.3217258.0244589-.4823799.016428-.2558498-.0127907-.5074701-.0533829-.7463989-.152112-.0227718-.0094109-.0436935-.0233011-.0654745-.0351114.0130281-.0316172.0437403-.0336714.0704126-.039834.2270412-.0524578.4546938-.10221.6821737-.1527243.5573263-.1237621 1.1146345-.2475967 1.6720381-.3710079C17.5218315 8.4405193 17.5512943 8.4263592 17.5790787 8.4495583z"
		/><path fill="#007312" d="M17.5790787 8.4495583c-.0835056.0024624-.1623936.0294504-.2429047.0470476-.4440517.0970545-.887804.1954775-1.3315582.2938948-.2565947.0569105-.5131063.1142235-.7694044.1724539-.056181.012763-.1146812.0184231-.1663647.0474043-.1277094-.0506325-.2377615-.1281719-.3375502-.2213583.0112133-.0281582.0378551-.0296612.0617599-.0350685.4105501-.0928783.8216305-.1833839 1.2325153-.2747707.5294361-.1177549 1.0589218-.2352867 1.5884819-.3524857.025301-.005599.0515175-.0179071.0760403.0030375C17.6732292 8.2433167 17.6309376 8.3480978 17.5790787 8.4495583z"/><path fill="#00ce16" d="M15.4461432 4.722867c7057e-7.1395326.0018311.2790647.0020208.4185977 2928e-7.2160492-3901e-7.4321008 7429e-7.6481438 658e-7.0124264-.0177479.0543456.0275984.0293546.0278444-.0173907.0604467-.0168128.0910015-.0236878.4992428-.1123309.9993687-.2207022 1.4983063-.3343883.017849-.0040674.0364189-.0025339.0536289-.0092597.1074829.0472074.2027054.1115441.280262.2005596.0063362.0392361-.0277596.036056-.0478611.0410423-.1001453.0248399-.2011852.04599-.3019295.0683532-.8335743.185039-1.6671963.3698778-2.5006142.5556269-.0568609.0126724-.1137257.0253363-.1706533.0377035-.0193586.0042057-.039196.0108018-.0569248-.004981-19e-7-.0833058-38e-7-.1666112-48e-7-.2499175.0219555-.0208788.051199-.0229883.0783978-.0289888.3133039-.0691204.6262712-.1397538.9396887-.2083573.0113716-.0024891.0225391-.0065737.0340033-.0077891.0435238-.0046158.0592756-.0270076.0530691-.0707197-.0041647-.0293336-.0012798-.0597286-.0010576-.0896988-.0017986-.0480142-.001255-.0959797-2174e-7-.1439571-.0015011-.039813-.0012836-.0796151-849e-7-.1194158-.0010967-.0367546-.0012321-.0735092 172e-7-.1102595-.0013304-.0366955-8793e-7-.0733871 1116e-7-.1100774-.0014486-.0366726-.001174-.0733438-1097e-7-.110014-.0011187-.0366259-.0012131-.0732503-19e-7-.1098685-.0010147-.0393147-.0013037-.0786324 1192e-7-.1179304-5236e-7-.0353889-.0010672-.0707936 5131e-7-.1061859C15.4291744 4.750484 15.4230394 4.7299857 15.4461432 4.722867z"/><path fill="#00c813" d="M14.3217211 6.3499317c.1083527-.0231795.2168226-.045825.325037-.0696316.4105825-.0903244.8211966-.180511 1.2315741-.2717605.2892189-.0643086.5779896-.1306181.8671169-.1953402.2002697-.0448318.4008427-.0883098.6011639-.132916.0197697-.0044017.0445499-.0015774.053093-.0281014.0683174.0614123.1215954.1339798.1609211.2168946-.0074806.0355096-.0400715.0301313-.0630436.0353374-.1932259.043787-.3866253.0868268-.5800705.1296554-.1918163.042469-.3834515.085772-.5754948.1272106-.0342903.0074-.0666142.0206842-.1000843.0305209-.0564728-6433e-7-.1116238-.0156999-.1678677-.0170999-.1654577-.004118-.324894.0157976-.4603453.1239843-.0064611.0051589-.0142593.0084119-.0222158.0109887-.2115879.0350351-.4190092.0896244-.6284695.1346536-.1900606.0408578-.3796492.0839367-.5694408.1260595-.0233574.0051837-.0481091.0170889-.0718842-4921e-7C14.3217134 6.4965744 14.3217173 6.4232531 14.3217211 6.3499317z"
		/><path fill="#00b312" d="M11.8200064 8.4120483c-.0164614.0306845-.0223818.0055485-.0314913-.005724-.1229286-.1521006-.2370825-.310853-.3549557-.4667959-.2447414-.3237872-.4916048-.6459699-.736743-.9694581-.1851158-.2442813-.3683147-.4900179-.5541306-.7337623-.0204592-.0268364-.0320292-.0548501-.0407896-.0857048.0091448-.1077662.0185204-.215517.0271282-.3233299.0010834-.0135736.0027094-.0261617.0109377-.0372505.0258732-.0058036.0342398.015882.0455265.030633.2163239.2827067.4297571.5676041.6444407.8515539.1956158.2587318.3913937.5173435.5873384.7758265.0120792.0159349.0206499.048069.052804.0246215.0478897.1566553.09305.3141799.1495285.4680963.0141945.0386839.0278568.0775633.0417643.1163521.0041142.0150957.0077457.0304022.0186462.0425224C11.7176094 8.2078295 11.7659445 8.3112211 11.8200064 8.4120483z"
		/><path fill="#01d118" d="M10.4692945 4.4276195c.0598059-.1637034.128705-.3234668.2075062-.4789424.0227346-.0066864.0279245.013557.0369024.0255711.2497101.3341644.5035191.6652358.7537384.9990151.0199556.0266218.0414848.0518427.063158.0769992-.0269194.1051788-.0564241.2097883-.0797682.3157544-.0135183.061367-.0441313.1191158-.0406151.1841722-.0121222.0148849.0017757.0349483-.0099354.0499148l-2e-5 339e-7c-.01367.0105257.0068483.0387988-.0172625.0403433-.0210094.0013466-.0349998-.0182619-.0468197-.0339031-.0882492-.1167741-.1780472-.2323661-.2660398-.3493361-.193985-.2578664-.3877754-.515882-.5844631-.7717018C10.4721622 4.4679646 10.4576511 4.4517951 10.4692945 4.4276195z"/><path fill="#00bb12" d="M11.4700718 7.4726577c-.0012379.0110564.0050135.027874-.0075397.031363-.0192175.0053415-.0290823-.0143666-.0383701-.0263882-.0638056-.0825853-.1260672-.1663618-.1890917-.2495522-.2390327-.3155198-.4783087-.6308551-.7172041-.9464793-.1159534-.1531959-.2314062-.3067703-.3465872-.4605479-.0091057-.0121565-.0170565-.0245013-.0313148-.0310297.0088177-.152916.0273628-.3043528.0688095-.4523053.0218868.0046625.0316877.0230832.0435209.0388389.2850723.3795462.5733738.7566547.8582678 1.1363358.0689678.0919123.1395845.1825967.2082634.2747407.011981.0160756.0244064.0317011.0419846.0422058C11.3867998 7.0458841 11.4180832 7.2610307 11.4700718 7.4726577z"/><path fill="#007912" d="M17.690094 8.1297131c-.079855.0048532-.1558094.0297222-.233202.0466537-.4444695.0972338-.8886642.1957235-1.3328419.2942953-.2568378.0569963-.513423.1151304-.7702017.1723995-.1905165.04249-.3810883.0847292-.5718536.1260767-.0184994.0040112-.0340271.0127573-.0507078.0198679-.0636816-.050499-.1121111-.1145515-.1595049-.1795235.0187559-.0226498.0467052-.0240068.0721216-.0295925.3440142-.0755959.6876059-.1531 1.0315037-.229229.0299683-.0066347.0633011-.007472.0854101-.0345936.0699539-.0016298.1364365.0233793.2060461.0262356.1602612.0065765.3152199-.0077085.4517365-.1036406.0301666-.0211992.0563011-.0463114.0771198-.0769596.0111561-.0164232.0221157-.0335398.0432262-.0392818.2278843-.0416031.4524727-.0984287.6788654-.1469078.1514931-.0324392.3025093-.0670829.4537621-.100637.0193825-.0042992.0392151-.0107799.0570621.0047655C17.723938 7.9642549 17.7162533 8.0484076 17.690094 8.1297131z"/><path fill="#07d71e" d="M11.5305996 5.0502625c-.0211477-205e-6-.0328617-.0154943-.0436287-.029788-.1760616-.2337165-.3513718-.4679966-.5275736-.7016053-.0934782-.1239319-.1883402-.2468209-.2825851-.3701863.0703068-.1435359.1459503-.2840893.2335911-.4179389.2206926.2896361.4402142.5801575.6586752.8714788.0319395.0425916.066637.0830479.0973759.1265101.0110464.0156202.0241356.0271502.0428104.031867-.0196552.0738177-.0556917.1413946-.081172.2129803C11.5953016 4.8657036 11.5630722 4.9580259 11.5305996 5.0502625z"
		/><path fill="#0bda22" d="M11.7092648 4.5605998c-.0230989.0278721-.0337973 8445e-7-.0435858-.0119944-.1133566-.1487007-.2258186-.2980809-.3385305-.4472728-.1326542-.1755905-.2651262-.3513184-.3983545-.5264719-.0104618-.0137544-.0206146-.0258784-.0183907-.0441179.0666599-.1235731.1420956-.2414379.228961-.3518665.0283079.0078328.0410213.0325484.0569086.0534093.2219076.2913823.4430904.5833139.6626759.8764522.0151062.0201674.0306511.0392294.0528231.0518961-.0360222.0684595-.0728559.136507-.1078262.2054992C11.7713547 4.4304328 11.7407465 4.4957376 11.7092648 4.5605998z"/><path fill="#00c212" d="M11.3608103 6.8298392c-.024353.0127516-.0308552-.0072546-.0416842-.0216784-.1650057-.2197695-.3299751-.4395685-.495636-.6588435-.2045698-.2707782-.4097729-.5410771-.6147089-.8115907.0181093-.1277499.0506802-.2522988.0832539-.3768468.0255375.0049734.0274591.0308518.0397615.0468717.2450476.3190756.4859238.6413183.729166.9617624.0863991.1138215.1687975.2307811.2606955.3404055.0076075.0090737.0112448.0203314.01789.0298748C11.3378973 6.5035219 11.3464594 6.6668062 11.3608103 6.8298392z"/><path fill="#61fa70" d="M14.6502705.834094c.1421318-.0335187.2842083-.0673249.4297981-.0829226.0067225.029839.0230579.054323.0412807.0783709.2068138.2729237.4123621.5468041.6197615.8192855.0271711.0356958.071826.0631813.0586214.119212-.0019541.0082963-.0036449.0160421-.0097561.0222099-.1187496.0072552-.2374992.0145105-.3562489.0217658-.0428085.0115893-.0737953 8452e-7-.1022959-.0371075-.2153063-.286713-.4327679-.5718104-.6474113-.8590266C14.6664419.8923595 14.6370373.871326 14.6502705.834094z"/><path fill="#009212" d="M10.6308403 8.8396883c-.0941715-.1828814-.1664791-.3745527-.229229-.5700665.0334806-.0125971.0427599.0167141.056675.0345716.1114731.1430616.2191172.2890396.3286047.4336157.3415241.4509726.682375.9024525 1.0235014 1.3537226.1715612.2269564.3419981.4547758.5152006.6804962.0086107.0112209.0230494.0208311.0154619.0388021-.0075331.0322065-.0373383.0487537-.0533562.0753469-.0117016.0194254-.0332384.015357-.0480518.0026159-.053504-.0460224-.1151304-.0828114-.1595297-.1392307-.1965532-.2562819-.3897276-.5151205-.5847273-.7725763-.2202187-.2907505-.4401083-.5817451-.6597919-.8728981C10.768465 9.0151138 10.7007093 8.9265699 10.6308403 8.8396883z"/><path fill="#13df29" d="M11.9117718 4.160634c-.0260706.0129447-.0362558-.0087767-.0473976-.0235929-.1969786-.2619321-.3932571-.5243895-.5902777-.7862899-.0437527-.0581601-.0897589-.1146245-.1347294-.1718724.0475245-.0821896.1074009-.1555126.1654778-.230109.0210676-.0270617.0429497-.0534904.0644608-.0802078.0288315.0095329.0444384.0338643.0612755.0561707.2081366.2757335.4160614.5516279.6252594.82656.0190525.0250406.0359945.0520811.0635767.069329-.0576544.0955527-.1152163.1911619-.1730461.2866089C11.9353848 4.1253629 11.9233322 4.1428494 11.9117718 4.160634z"/><path fill="#67fc74" d="M15.7899761 1.7902499c.0028038-.0417811-.0077267-.0732191-.0370073-.109838-.1382647-.1729169-.2690334-.3518252-.4024906-.5285865-.087636-.1160721-.1746731-.2326044-.2635679-.3477048-.01437-.0186071-.0198536-.0332549-.0068417-.0529494.0942259-.0135542.1880808-.0312727.2827635-.039686.141593-.0125816.2833471-.0287079.426053-.018687.0066423.3658072.0132875.7316136.0199223 1.0974202C15.8025255 1.7902287 15.7962513 1.7902392 15.7899761 1.7902499z"/><path fill="#52f662" d="M14.379612 4.2395906c.0026388-.0463443.0207348-.0880551.0389061-.1297426.0193405-.0178699.0441666-.0225377.0685081-.0279274.7933283-.1756608 1.5863686-.3526165 2.3796692-.5284071.0909367-.0201509.1818104-.0405881.2727489-.0607405.0546169.0260243.0992889.0648861.1401978.1086028-.0020103.0356295-.0325699.0339622-.0548134.0389707-.1835747.0413306-.3672981.0820074-.5509624.1229479-.5997448.1336887-1.1999378.2653697-1.7993488.4005611-.1413221.0318737-.2825146.064435-.4245291.0930367C14.4265556 4.261611 14.3942165 4.280231 14.379612 4.2395906z"/><path fill="#5cf96b" d="M14.6502705.834094c.0283279.0741943.0851564.1293167.1309462.1913734.1490841.2020501.3014498.4016804.4527512.6020924.0348377.0461475.0725574.0902764.1050444.1379929.0239201.0351367.0524206.0527009.094698.0464613-.0867519.0250216-.177721.0257229-.265399.0460188-.0447016.0103481-.0904188.0163082-.1356773.0242512-.0222511.0051056-.0278168-.0143039-.036952-.0265378-.2120228-.2839381-.4267159-.5658594-.6402521-.8486545-.018528-.0245375-.0504599-.0466508-.035326-.0862504C14.4283514.8850449 14.5379791.8545038 14.6502705.834094z"/><path fill="#00c813" d="M11.3395481 6.3397942c-.0741129-.0588784-.1194735-.1416345-.1755676-.2150331C10.9396 5.8311605 10.7182064 5.5352798 10.4954443 5.2404404c-.0599461-.0793424-.1197948-.158814-.1822119-.2361889-.0113354-.0140495-.0078211-.0322895-.0212011-.043375.0337944-.0893869.045434-.1858807.0874557-.2726307.1091194.1610317.2299337.3134456.34692.4686351.1932888.2564101.3881016.5116739.5808449.7685027C11.31598 5.9370136 11.32269 5.9505191 11.336235 5.959981c.004775-.0220561-9041e-7-.0437012.0026026-.0646162.0023937-.0142775-.0046787-.0363278.0226002-.0352817C11.3583097 6.0201769 11.3340073 6.1793051 11.3395481 6.3397942z"
		/><path fill="#00cc15" d="M11.3614378 5.8600831c-.0256643.0376506-.0015678.0810833-.0157032.1247921-.0423632-.0297909-.0648508-.0747175-.0937786-.1129403-.2808266-.3710647-.5601711-.7432523-.8409729-1.1143355-.016407-.0216842-.0353365-.0395994-.0314932-.0693464.024848-.0886259.0547953-.175488.0898085-.2606182.0022326.0423846.0379515.0647755.0598497.0940533.2128048.2845325.4264221.56849.6431084.8500714.0681581.0885696.1293726.1832314.2071733.2638474.0164804-.0101027.0061235-.0292864.0208311-.0354691C11.3866863 5.6866913 11.3831472 5.7747436 11.3614378 5.8600831z"/><path fill="#57f766" d="M14.3201036.9208414c.0175943.0649762.0684481.108251.1064701.1593333.1981974.2662736.3985157.5309699.5981979.7961372.0019026.0025252.0052013.0039978.0078564.0059673-.1071119.0263319-.2142315.0526589-.3213501.0789858-.0217094.0112401-.029501-.0062567-.0391541-.0192325-.2106047-.2831434-.4245987-.5637296-.6373711-.8452373-.0163956-.0216918-.0404453-.0413195-.0341597-.0740887C14.1064434.9867032 14.2100039.9435179 14.3201036.9208414z"/><path fill="#29e93d" d="M12.9219408 2.9244547c-.076869.0722492-.1537371.1444983-.2306061.2167478-.0241585.0056655-.031352-.015132-.0415859-.0285063-.2120695-.2771547-.4221983-.5557821-.631485-.8350396-.0138998-.0185449-.0368814-.0373595-.0176897-.0659633.076889-.0779772.1575041-.1515641.2495623-.2116618.0357189.0820704.0974131.1463799.1504421.2162359.1700439.2240052.3374338.4500237.5094652.6725206C12.9181499 2.8992734 12.9278631 2.9092693 12.9219408 2.9244547z"/><path fill="#1ee433" d="M11.5705976 2.6412823c.0618048-.0812147.135397-.1512291.209672-.2205946.0256195.0116324.0388336.0358734.0544605.056612.2109165.2798915.4220514.5596161.6343946.8384266.0080795.0106082.0166292.0208004.0192308.0344-.0589123.0862167-.137475.1560686-.1995926.2396162-.0301161.0034463-.0382748-.0228639-.0512609-.0401096-.159008-.2111588-.3197803-.4209855-.4779568-.6327734-.0556984-.0745783-.1141472-.1470973-.1688471-.2224431C11.5792999 2.6787145 11.5628662 2.6644275 11.5705976 2.6412823z"
		/><path fill="#4cf45d" d="M14.379612 4.2395906c.0334597.0278826.0683718.0047231.0994816-.0020566.300396-.0654635.5999355-.1348438.9000607-.2015705.4920692-.1094017.9844284-.2174954 1.4765835-.3265109.1274662-.0282342.2546043-.05794.3819542-.0867047.0159969-.0036132.0339432-.0024705.0419502-.0213733.0429726.0226054.0733547.0584941.101778.0964499-.0035934.0343299-.0338364.0324204-.0555897.0376742-.174715.0421996-.3505974.0793152-.5260201.1184366-.3150635.0702631-.6303043.139739-.9454021.2098479-.4823675.1073251-.964736.2146358-1.4471321.3218288C14.3877897 4.3899422 14.368 4.3956184 14.3502426 4.3803458 14.3526278 4.3318825 14.363265 4.285141 14.379612 4.2395906z"/><path fill="#17e12d" d="M11.5705976 2.6412823c.0618935.100148.1393375.1888363.2094097.2829354.160018.2148879.3220892.4282479.4836292.6419995.0068169.0090206.0166826.015738.0251284.0235264-.056448.0769582-.112896.1539173-.1693449.2308774-.0270405.013185-.0353031-.011076-.0459957-.0252309-.2199669-.2911723-.4392872-.5828331-.6590118-.8741889-.0138836-.01841-.0300159-.0351257-.045104-.0526342C11.4324608 2.7893112 11.4997292 2.7137032 11.5705976 2.6412823z"/><path fill="#009812" d="M10.249424 7.7499728c.083848.0631428.1353731.1538811.1973982.2350869.2242308.2935762.4456406.589304.6681967.8841591.1676836.2221594.3353338.4443445.5032797.6663055.2358847.3117514.4720678.6232777.7080259.9349737.0349979.0462322.0695419.0928087.1041346.1393452.0128422.0172787.023756.0367222.0485716.0389643-.0228987.0268192-.0457907.0536404-.0686827.0804615-.0305128.0046921-.038414-.0220928-.0514622-.0391369-.2145872-.2803221-.4262438-.5628633-.639267-.8443708-.3406448-.4501534-.6806993-.9007521-1.0214653-1.3508101-.1236153-.1632595-.2432623-.3295689-.3714294-.489377-.00632-.0078793-.0100279-.017252-.015461-.0256209C10.282568 7.9054661 10.2626181 7.8286276 10.249424 7.7499728z"/><path fill="#52f662" d="M14.0005932 1.0227065c.0662346.1113048.1536303.2070733.2293663.3114421.1505098.2074122.3133411.4056838.4603395.6157736.0053797.0076886.0125999.0101267.0209751.0113412-.0961227.0302081-.1922474.0604148-.2883739.0906212-.0342007.0115936-.0428352-.0190227-.0567846-.0367835-.1048193-.1334503-.204793-.2706033-.3077564-.4054743-.107007-.1401694-.2132292-.2809237-.3183432-.422509-.011694-.0157518-.0343285-.0298734-.0197582-.0558356C13.8109064 1.0878692 13.9053898 1.0543596 14.0005932 1.0227065z"
		/><path fill="#22e637" d="M12.4883556 3.3501263c-.0766277-.0738535-.1325264-.1642685-.1967506-.2479248-.1649523-.2148626-.3279123-.4312551-.4914055-.647234-.0079203-.0104611-.0133448-.02281-.0199299-.0342798.070899-.0723383.1369581-.149776.2203035-.2089958-.0046206.0228677.0112066.0382214.0226164.0533743.218133.2896624.4369516.5788081.6558256.8679123.0028143.0037184.0081549.0055237.0123186.0082231C12.6236744 3.2108436 12.556015 3.2804847 12.4883556 3.3501263z"/><path fill="#009812" d="M10.3112631 7.9799533c.0739164.0589175.1193333.141499.1753149.2148528.2339659.3065653.4651661.615243.697298.9232092.1594057.2114792.3183661.4232931.478076.6345415.2415609.3195124.4835606.6386909.725667.9577885.005805.0076513.0150747.0126734.0227289.0189238-.0154524.033679-.0349874.0638924-.0692978.0815525-.168643-.2234201-.3372173-.4469042-.5059557-.6702642-.2167015-.28685-.4334974-.5736265-.6503191-.8603849-.2158213-.2854328-.4316854-.5708332-.6476297-.8561735C10.5031595 8.3790913 10.468708 8.3345356 10.43435 8.2899103c-.0083027-.0107841-.0178871-.0199022-.0327444-.0202885C10.3611012 8.1763067 10.337204 8.0778112 10.3112631 7.9799533z"/><path fill="#4cf45d" d="M13.7202578 1.1312823c.0452471.0831864.1088409.1532724.164813.228695.1372042.1848851.2752047.3692396.4165945.5509205.0378218.0485997.0645027.1081852.1212263.1409839-.074523.0353065-.1523657.0621498-.2298317.0899589-.0361948.0181067-.059082.0053802-.0829592-.0261924-.204771-.270775-.4093008-.5417325-.6133966-.8130165-.0132904-.0176665-.03473-.0332081-.0261431-.0608479C13.5501642 1.1967512 13.6345568 1.1625385 13.7202578 1.1312823z"/><path fill="#59f868" d="M17.1394444 3.4927731c-.0530453.0435741-.1211853.0403867-.1825199.0550706-.2010384.0481303-.4036846.0895159-.6055889.1340654-.3763218.083035-.7526588.1660042-1.1287899.2499027-.2599144.057976-.5194826.1174998-.779253.176127-.0079937.0018039-.0165024.0013247-.0247736.0019097.0102053-.0516009.0332947-.0978513.0593491-.1428704.2489738-.0460122.494688-.1070564.7418642-.1613328.5903807-.1296394 1.1799412-.2629764 1.769989-.3941197C17.0476284 3.4238701 17.0920734 3.461014 17.1394444 3.4927731z"/><path fill="#2feb42" d="M12.9219408 2.9244547c-.2161455-.2851734-.4324999-.5701902-.647975-.8558683-.0144987-.0192213-.0425062-.0366106-.0238295-.0685525.0523787-.0564183.1150904-.0998857.1785212-.1424533.0209618.0060049.0315313.0234905.0435228.039399.2115402.2806377.422616.5616267.6359463.8409107.0051937.0068007.0080824.0144567.0105619.0224185C13.0577011 2.8205314 12.9878464 2.8701267 12.9219408 2.9244547z"
		/><path fill="#43f154" d="M13.9524097 2.2516925c-.0769119.0399582-.1538219.079916-.2307339.119874-.0302782.0049424-.0387592-.0211768-.0516748-.0383763-.1498575-.1995683-.3025665-.3969786-.4514914-.5972531-.0526075-.0707496-.1091795-.1385665-.1593475-.2110975-.0126276-.018259-.0379171-.0384982-.0090303-.0641952.0678415-.0498927.1436939-.0849782.2200928-.1190557.0270472.0732502.0819836.1279868.1277428.1883135.1624317.2141517.3238802.4290484.4862661.6432335C13.9052887 2.2009068 13.926959 2.2278674 13.9524097 2.2516925z"/><path fill="#48f359" d="M13.9524097 2.2516923c-.0273457.0042031-.0376873-.0181603-.0499725-.0343845-.1576385-.2081962-.3145247-.4169616-.4718332-.6254083-.0487738-.0646296-.0981922-.1287727-.1474285-.1930517-.0131731-.0171951-.0289984-.0335606-.0129509-.0572598.0593805-.048117.1342554-.0651368.2003374-.0998046.076272.1042792.1516008.2092644.229044.3126678.109273.1459043.2201214.2906291.3302755.4358747.0350323.0461929.0713844.0914752.1044254.1390533.017477.0251663.0395069.0074372.0587435.0124593C14.1128435 2.178458 14.0326262 2.2150753 13.9524097 2.2516923z"/><path fill="#34ed47" d="M13.1186886 2.7603087c-.0737476-.0657775-.1228256-.1513369-.1818533-.2287545-.1705933-.223736-.3389416-.4491842-.5081739-.673967.0626812-.0523363.1250563-.1051174.2012711-.1376694.0388613.0300316.063098.0723741.0920668.1105617.1898899.2503077.3782969.5017389.5690622.7513846.0090618.011858.01863.0235958.0202827.0393376C13.2471256 2.6675713 13.1829081 2.7139401 13.1186886 2.7603087z"/><path fill="#00c012" d="M16.2391682 6.1803932c.1284904-.0507655.265686-.0669937.3988438-.098907.2011852-.0482183.4040165-.0895538.6060505-.1342621.0985737-.0218134.1969566-.044508.2953186-.067266.0075169-.0017395.0141792-.0071645.021244-.010879.0466423.0631742.0634613.1390853.0900478.2108254-.0160866.0200124-.0403175.0222483-.0626106.0272169-.3521233.0784645-.7046051.1553102-1.0560951.2365932-.0081139.0018778-.016367.0028844-.0246239.0035944-.0144253 1912e-7-.0250874-.0072842-.0345802-.0171976-.057724-.0602779-.1274872-.1007013-.2066078-.1260519C16.2543831 6.2002869 16.2385445 6.199163 16.2391682 6.1803932z"/><path fill="#3ef050" d="M13.0501318 1.4606445c-.0141153.0340726.0146418.0529343.0299673.0733712.203289.2710462.4079905.5410326.6126995.8110113.0077705.0102489.019165.0177519.0288734.0265372-.0682821.0396469-.1365681.0792913-.204854.1189361-.0324593.0122218-.0391083-.0181267-.0517206-.0339665-.1097183-.1377916-.2122421-.2810771-.3193235-.4208922-.0990019-.1292659-.1971064-.2592032-.2940531-.3900101-.0122843-.0165749-.0316143-.0313354-.0225286-.0567966C12.8997478 1.5407788 12.9715681 1.4949014 13.0501318 1.4606445z"
		/><path fill="#48f358" d="M14.3502426 4.3803458c.109889-.0233178.2199802-.0457239.3296299-.0701199.3695688-.0822253.7389307-.1653767 1.1084652-.2477551.3291683-.0733802.6584606-.14621.9876995-.2192726.1840038-.0408332.3680229-.0815947.552-.1225522.0191135-.0042553.039608-.0058272.0533829-.0228186.0412846.0382314.0745049.0827293.102169.1315398-.0118713.0194726-.0325623.0214717-.0518665.0258193-.3298798.0743008-.6599426.1477926-.9903393.219753-.0363064.0079069-.0713921.0307336-.1111832.0153804-.1646709-.0425706-.330265-.0450168-.4963045-.0096459-.0658016.0140176-.1274071.0389776-.1811972.0807061-.1234407.0351219-.2497158.0580344-.3747473.0862236-.2746849.0619311-.5497541.1221685-.8245525.1836114-.0178833.0039988-.0358057.0080271-.0539055.0108209-.0487156.0075183-.0559378-4764e-7-.0502005-.054122C14.3479385 4.3851819 14.3482561 4.382659 14.3502426 4.3803458z"/><path fill="#39ee4b" d="M12.8291922 1.5888348c.0699081.1107963.1535835.2115946.2316952.3163559.1405077.1884444.2846413.3741848.4267387.5614498.0082111.0108216.0136471.0229242.0291958.0238605-.0655737.0481603-.135004.0902517-.2054806.1306994-.0896358-.0955744-.1604385-.2058175-.240036-.3091896-.1444235-.1875637-.2867908-.3767101-.4296741-.5654544-.0056934-.0075209-.0078783-.017697-.0116978-.0266373C12.6921911 1.6699002 12.7596436 1.6277741 12.8291922 1.5888348z"/><path fill="#008012" d="M17.7286358 7.879642c-.1146126.0243979-.2293949.0480351-.3438053.073349-.2627792.0581431-.5252972.1174645-.7882195.1749482-.0181808.0039759-.038662.0120802-.0582409.0013657-.0037899-.0056982-.0063725-.0122929-.0041294-.0186577.0252171-.071558.0487385-.1434965.0579166-.2193365 9937e-7-.0082059.0085182-.0137525.0176659-.0149326.0232735.0050516.0459156.0017481.0689392-.0033174.3212433-.0706725.6421165-.1430101.9633121-.2138915.073616-.0162454.0734634-.0167971.0736599-.0911727 1278e-7-.048173-309e-6-.0963464-1736e-7-.1445765-.0018711-.0612206-.0016575-.122386-3033e-7-.1835661-.001545-.0533228-.0015507-.1066318-515e-7-.1599431-.0015564-.063169-.0016727-.1263328 19e-7-.1894975-.001606-.0602732-.0016403-.120544-305e-7-.1808243.0040741-.0504141-.0158291-.1033635.0159016-.1508446.0134087.0178409.0079021.0385861.0079155.0580359 2289e-7.3646364 4539e-7.7292743-5531e-7 1.0939078C17.738287 7.767015 17.7320557 7.8233242 17.7286358 7.879642z"/><path fill="#04d41b" d="M17.119442 5.4516273c-.0583992.0397677-.1286469.0411515-.1938457.0563955-.2334156.0545774-.4680367.1039743-.7020912.1558294-.2308044.0511346-.4614239.1031089-.6923075.1538758-.0174685.0038414-.0364084 9837e-7-.0546789.0012374.0423841-.0848627.1046009-.1537724.1743469-.2166257.3766384-.0828905.7536888-.1639433 1.1291256-.2522125.1009655.0117097.1983547.0357156.2894402.0824156C17.0852146 5.4406343 17.1027279 5.4453516 17.119442 5.4516273z"/><path fill="#00b212" d="M17.7004147 6.2798533c.0143833.0484824.021244.0979843.0201435.1485658.0103645.0773058.0095844.0803843-.0606651.0961037-.3315296.0741839-.6632328.1475978-.9948769.221271-.0194702.0043254-.0392933.0094805-.0577011-.003984-.0160179-.0787129-.0302582-.15768-.0315628-.2383614.3516998-.0647163.6984425-.1525273 1.0481987-.2263813C17.6495304 6.2716665 17.6756382 6.2597885 17.7004147 6.2798533z"
		/><path fill="#008f12" d="M10.6308403 8.8396883c.0712662.05196.1148357.1278486.1668062.1960058.2367373.310462.4722281.6218786.7073231.933589.1663723.2205915.3317566.4419327.496665.6636219.0279169.0375309.0715637.0649033.0784836.1166544-.0571232-.0296822-.0970755-.0805025-.143115-.1226072-.1055269-.0965071-.2078457-.1972485-.3041325-.3029499-.1180935-.1296396-.2353792-.2602444-.3418999-.400197-.1819592-.2390652-.348278-.4878197-.4913778-.7523165C10.7404766 9.0622234 10.6739836 8.9569855 10.6308403 8.8396883z"
		/><path fill="#00a912" d="M16.6114693 6.7398367c.1083527-.0231667.2168369-.0457435.3250313-.0696206.2392044-.0527897.4779587-.1076627.7176228-.1582594.0509377-.0107536.0772228-.0293369.0664291-.0835247.0176659.0422921.0059128.086967.0105171.1303186-6084e-7.050354-.0012264.1007137-.0018444.1510739C17.7096767 6.7309461 17.6825199 6.734293 17.656723 6.739995c-.3234768.0714989-.6468182.1436157-.970295.2151079-.0284348.0062838-.0588169.0182939-.0836411-.0102458C16.5933113 6.8759751 16.5803757 6.8069634 16.6114693 6.7398367z"
		/><path fill="#00ba12" d="M17.7004147 6.2798533c-.0796509.0047493-.1553497.029789-.2325478.0465627-.2821102.0612965-.5638275.1244106-.8452854.1886282-.0213718.0048766-.0304146-.0030217-.041729-.0151296-.0401249-.0466471-.0657597-.1006026-.0807076-.1599493.1381798-.03304.2760448-.0674739.4146137-.0987902.2030888-.0458961.4066753-.0895863.6100655-.1341515.041914-.0091853.0838947-.0180864.125845-.0271192C17.6830349 6.1426287 17.6847782 6.2129683 17.7004147 6.2798533z"/><path fill="#63fb71" d="M14.6060762 3.7592552c.0437603-.067044.0979309-.1241543.1630411-.170825.0874414-.0026717.170228-.0303645.2544956-.049042.4358406-.0966012.8719654-.1919291 1.3072472-.2910366.0129719-.0029535.0266418-.0022781.0390892-.0077562.0980167.0091438.1936703.0317898.2899742.0507197.0103817.038429-.0206127.0394135-.0429249.0448105-.1116695.0270159-.2241039.0507329-.336235.0757437-.5167809.1152637-1.033989.2285941-1.5505247.3449693C14.6900978 3.7658825 14.6479397 3.7898731 14.6060762 3.7592552z"
		/><path fill="#00c212" d="M14.3217106 6.5698953c.2177439-.0476441.4355927-.0948186.6532011-.1430774.185401-.0411158.370451-.0838141.5558834-.1247845.0190916-.0042181.039731-.0014215.0596533-.0018802.0032625.008687 8459e-7.0168185-.0045376.0232782-.0420971.0505066-.0706701.1083269-.0931492.1695886-.0047407.0129228-.0133057.0229268-.0266008.0282102-.2049761.0527496-.4127188.0932231-.618947.1403832-.1445417.0330553-.2893753.0648756-.4342537.0964255-.0295897.0064445-.0604935.0236287-.0912609.0018163C14.321703 6.6965351 14.3217068 6.6332154 14.3217106 6.5698953z"/><path fill="#007e12" d="M15.7599621 8.3204298c.0134687.0314569-.0119705.026639-.0282955.0303707-.1722088.0393438-.3443155.0791435-.5166483.117938-.2077227.0467625-.4156332.0926971-.6234932.1388512-.0064154.0014238-.0131741.001298-.0197582.001894-.0395508-.0531073-.0737619-.1093864-.1007109-.1699686.013133-.0210867.0359335-.0220213.0566664-.0266752.3159933-.0709171.6322851-.1405001.9482908-.2113609.0227518-.0051012.0454121-.0101318.0657549-.0221224.0141182-.0067806.0273275-.0018082.036006.0082064C15.6283712 8.2459612 15.6938162 8.2835913 15.7599621 8.3204298z"/><path fill="#00b012" d="M14.321619 7.2897434c134e-7-.0633154 267e-7-.1266308 401e-7-.1899462.0139914-.0162616.0335903-.0201216.0531559-.0244994.3256006-.0728464.6514568-.1445413.9771938-.2167711.030798-.0068293.0642004-.0235872.0942345.0046797.0127592.0604658.0112724.1210165.0012989.1816192-.0155973.0233479-.0417194.0260506-.0655622.0313644-.3313017.0738449-.6627445.1470556-.9940166.2210307C14.365262 7.30229 14.3419447 7.3079915 14.321619 7.2897434z"/><path fill="#00a812" d="M14.321619 7.2897434c.083416-.0022721.1621008-.0295935.2425318-.0470104.2919579-.0632191.5834684-.1284986.8751488-.1930013.0277815.0636239.013998.1290522.0085258.1941023-.0118732.0198541-.0332909.0200014-.0522623.0241728-.3309326.0727739-.6615391.1470208-.9924011.220109-.0264673.0058475-.0540838.0202837-.0815802.0015898C14.3215942 7.4230514 14.3216066 7.3563976 14.321619 7.2897434z"
		/><path fill="#5cf96b" d="M16.9897213 3.4115255c-.0392056.0409133-.0949879.0351856-.1430779.046375-.2754269.0640833-.5519562.1234207-.8280792.184515-.4052429.0896626-.8104744.179394-1.215682.2692201-.0936403.0207574-.1872492.0416622-.2806721.063369-.0168085.0039051-.0322952.0101523-.0443382-.0080225.0124617-.0350506.0284395-.0682354.0517054-.0975578.2934694-.0603721.5853195-.1281295.8777981-.1930037.4339018-.0962436.8678455-.1923039 1.3016815-.288847.0503654-.0112073.0996933-.0266271.1505718-.0355237C16.9029922 3.371875 16.9463558 3.3917003 16.9897213 3.4115255z"/><path fill="#008512" d="M15.5503979 8.1786861c-.0029135.0233898-.0212288.0267496-.0394506.0307961-.2950153.065505-.5900002.1311598-.8850203.1966476-.0515585.0114441-.1032534.0222731-.1548786.0333862-.0312958-.0569277-.0571203-.1160221-.0711069-.1797962.009347-.0161428.0257473-.0199432.0420084-.0235872.3338833-.07479.6681499-.147871 1.0018301-.2235842.006505-.0014763.0131598-.0016899.0198011-.001298.0048075 8984e-7.0114012.0011311.0135002.0049448C15.5058126 8.0683985 15.5381985 8.1190195 15.5503979 8.1786861z"
		/><path fill="#68fc75" d="M16.3699493 3.2405953c-.0069084.0161836-.0212345.0177717-.0364418.0211375-.2982445.0660043-.5963774.1325178-.8944731.1991947C15.2392063 3.505625 15.0396023 3.5513422 14.83951 3.594815c-.0222588.0048356-.0499706.0263116-.0703926-.0063841.0606289-.0625575.1354885-.105248.2105236-.1466417.2068653-.114116.4318237-.170567.6642437-.1995931.2268944-.0283363.4545727-.0288517.6823292-.0101132C16.3409271 3.2332928 16.3553772 3.2376838 16.3699493 3.2405953z"/><path fill="#009112" d="M14.3587503 8.1002512c-.0190468-.0587673-.0263052-.1193509-.0278692-.1808119.0100746-.0214596.0311098-.0230322.0503578-.027246.3315334-.0725741.6627321-.1466436.9939995-.2204151.0222368-.0049529.0450697-.013844.0680122-.0014763.019866.0566468.0122375.1149764.0062065.1720791-.0038328.0362716-.0405788.0401325-.0693703.0466151-.121624.0273852-.2434044.0540786-.3650551.0813498-.1881475.0421767-.3760462.0854754-.5645256.1261439C14.420599 8.1029434 14.3900824 8.118762 14.3587503 8.1002512z"/><path fill="#009912" d="M15.4394979 7.6695561c-.1283102.0298362-.2564173.0605884-.3849792.0892973-.2026825.04526-.4056873.0890594-.60851.133687-.0384903.0084682-.0767641.01791-.1151333.0269008-.0119009-.0628171-.0125704-.1261864-.0093584-.1897473.043498-.0282593.0950956-.0287395.1432028-.0395117.2957678-.0662231.5915556-.1323881.8875933-.1973991.0305414-.0067067.0634508-.0265865.0944262.0014739C15.4546013 7.5531316 15.4659472 7.6121335 15.4394979 7.6695561z"/><path fill="#00bc12" d="M14.3216991 6.7598553c.1327038-.0196962.2620964-.0551434.3930092-.0832829.2522306-.0542154.5039473-.1108241.7558765-.16644.0210257.0299907.0020561.0596118-.0015011.0891328-.002326.0192914-.0049095.0387478-.0095377.0577769-.0042725.0136342-.0085583.027287-.0194836.0374656-.1043243.0351982-.2131796.0517721-.3201017.0761948-.2337637.0533943-.4679785.1048422-.7021933.1562366-.0311413.0068336-.0634565.0251255-.0960875.0028968C14.3216858 6.8731756 14.3216934 6.8165154 14.3216991 6.7598553z"
		/><path fill="#008b12" d="M15.4397068 6.6899028c7277e-7-.0107737-.0010128-.0222578.008769-.0304213.024725.0244193.017314.0560179.0173578.0850196 5684e-7.3741646.0013132.7483349-7496e-7 1.1224885-2832e-7.0512061.0209312.1011386.0060787.1525083-.3265104.073328-.653019.1466656-.9795361.2199697-.0305376.006855-.061121.0135059-.0916843.0202513-.0209799-.0512857-.0378799-.1036243-.0411816-.1594725.1645899-.0364695.3291988-.0729094.4937897-.109427.1807623-.0401044.3613071-.0812268.5424337-.1196065.0349436-.0074039.0472994-.0222006.0455627-.0569024-.0024109-.0481472-8793e-7-.0964899-.0010424-.1447515-305e-7-.0599666-553e-7-.1199307-792e-7-.1798949-.023778-.0343623-.0120916-.0731888-.013979-.1103201.0024881-.043447-.0117378-.0887036.0139008-.1296606-114e-7-.0666494-21e-6-.1332984-391e-7-.1999493-21e-6-.0633159-334e-7-.1266303-439e-7-.1899452C15.4160662 6.8030996 15.4156466 6.746469 15.4397068 6.6899028z"/><path fill="#00b612" d="M15.4397068 6.6899028c-1411e-7.0566297-2842e-7.1132588-4358e-7.1698875-.1073465.0098257-.2103043.0415092-.3150549.0639944-.2677774.0574784-.5350761.1171932-.8025618.1760125 95e-7-.0566535 134e-7-.113307 219e-7-.169961.1324472-.0196104.2616053-.0548916.39223-.0830722.2339678-.0504756.4672852-.1039586.7009335-.15592C15.4228048 6.6890726 15.4314032 6.6901522 15.4397068 6.6899028z"/><path fill="#3ef050" d="M14.3293114 4.5581408c6456e-7-.009284.0012894-.0185676.001936-.0278516.0434303-.0282097.0949364-.0287771.1429749-.0394349.3343554-.0741758.6680889-.1511312 1.0027113-.2240925.025176-.0054898.0515471-.0180249.0754519.0043612-.0280781.0547023-.0518761.1112328-.0722742.1692142-.0152493.0145764-.0349598.018311-.0545034.0226359-.3427105.075841-.6852312.1525445-1.0280447.2279243-.0129929.0028572-.025878.0063167-.0392046.0073524-.0223427.0017357-.0349445-.0063949-.0332069-.0310669C14.3277035 4.6308928 14.3207932 4.5942254 14.3293114 4.5581408z"/><path fill="#03d41a" d="M15.4392118 5.7000566c2575e-7.0183191 7153e-7.0366378 7372e-7.0549569 1144e-7.0999427 2184e-7.1005683-.0950851.1218657-.3326759.0743451-.665451.1482491-.9982424.2220845-.007987.0017719-.016592 7625e-7-.0249062.0010505 67e-7-.0533166 143e-7-.1066337 219e-7-.1599503.0139627-.0163579.0336123-.0201516.0531912-.0245352.3243093-.0726156.6489305-.1438365.9733391-.2160115C15.3778219 5.6929421 15.4091187 5.6770921 15.4392118 5.7000566z"/><path fill="#3ff051" d="M16.3302002 4.0903201c.1428375-.0332499.28549-.067328.4285564-.0995643.2414646-.054409.4831944-.1076515.7248211-.1613863.0281944.0336757.0494328.0714457.0660076.1119652.0130463.0218186.0017986.034039-.0171986.0428827-.0167332.0077894-.0347252.0116227-.0526047.0155592-.3041477.0669587-.608242.1341512-.911911.2032578-.0193958.0044146-.039032.010932-.0576286-.0027504C16.4574585 4.1517949 16.3950138 4.1191158 16.3302002 4.0903201z"/><path fill="#07d71e" d="M15.4392118 5.7000566c-.1073446.0097103-.2102766.0414629-.3150101.0639467-.2677488.0574789-.5350113.1172228-.8024673.1760607 38e-7-.0466714 38e-7-.0933428 48e-7-.1400142.0126581-.0180044.0323429-.0217757.0519753-.0261612.337513-.0753765.6751251-.1502976 1.012826-.2248187.0173693-.0038323.0353966-.011867.0526676.00109C15.439209 5.6001253 15.4392099 5.6500912 15.4392118 5.7000566z"/><path fill="#00a112" d="M15.4393473 7.2496834c124e-7.0433569 257e-7.0867147 391e-7.1300716-.0236301.0214019-.0544729.0236702-.0832958.0300636-.321125.0712347-.6421719.1428328-.9633427.213871-.02388.0052824-.0484915.0155754-.0711956-.0039501 67e-7-.043344 124e-7-.0866885 238e-7-.1300325.2176456-.0475807.4353476-.0948806.6529036-.142839.1418123-.0312614.2833738-.0636501.4251719-.0949788C15.4124212 7.2490673 15.4260931 7.2503214 15.4393473 7.2496834z"/><path fill="#1de432" d="M16.8201904 4.8390493c-.0049267 4921e-7-.0098457.0013099-.01478.0014296-.1626968.0039616-.1626968.0039525-.1535702-.1595464.026474.0279412.0568752.0140448.0861874.0075808.3032761-.0668845.6061935-.1353874.9093189-.2029586.0177288-.003953.0352783-.0100989.0539703-.0072999.0142822.049993.0085621.1012702.0097675.1521029-.0183563.0165253-.0419407.0188227-.0645657.0238075-.2708855.0596819-.5410786.1225066-.8127079.1787977C16.828968 4.8339663 16.8246231 4.8367701 16.8201904 4.8390493z"
		/><path fill="#0cdb22" d="M15.439208 5.5501604c-.2693367.0600638-.5386858.120069-.8080025.1802216-.1031942.0230489-.206315.0464354-.3094673.0696678 29e-7-.0433106 38e-7-.0866213 48e-7-.1299319.0192709-.0215979.0466185-.024435.0723133-.0301213.3230467-.0714984.6460104-.1433682.9690247-.2150121.0256882-.0056973.0520334-.0150938.0761347.0051851C15.4392128 5.4701662 15.4392099 5.5101633 15.439208 5.5501604z"/><path fill="#29e93d" d="M15.4397411 4.760406c-877e-7.0366516-1764e-7.0733027-2651e-7.1099539-.0131483.0141292-.0304537.0192518-.048584.0232983-.3342838.0746036-.6684179.149869-1.0028324.2238779-.0226707.0050173-.045969.0109-.0663118-.0073357 19e-7-.0366573 29e-7-.0733142 48e-7-.1099715.0139647-.0163774.0336294-.0201559.0532169-.0245419.3244715-.0726547.6492424-.14397.9738302-.2160954C15.3783722 4.7530198 15.4097185 4.7371855 15.4397411 4.760406z"/><path fill="#38ee4a" d="M14.3293114 4.5581408c1879e-7.0033216 4892e-7.0066414 5465e-7.0099654.0022097.1261339.0017128.1239505.1237001.0963254.3336267-.0755534.6677046-.1491227 1.0016575-.2232318.0079689-.0017686.0165834-6394e-7.0248957-8626e-7-.0072327.0367823-.0144644.0735641-.021697.1103458-.007514.018292-.0243196.0206156-.0407391.0242138-.3464947.0759444-.6926908.1532359-1.0389481.2302451-.0193338.0042996-.0392017.0108867-.0569677-.0048857C14.3214712 4.7194638 14.3134804 4.6384311 14.3293114 4.5581408z"
		/><path fill="#1ee433" d="M15.4393911 4.9903121c-2e-5.0366573-391e-7.0733147-591e-7.109972-.0137072.0136113-.0316296.0174241-.0495138.0215006-.3335743.0760274-.6679621.1484094-1.0017576.2234426-.0224075.0050368-.0454969.0133195-.0663099-.005065 1e-6-.0366569 1e-6-.0733142 1e-6-.1099706.0192738-.021605.046628-.024436.0723257-.0301237.3230982-.0715075.6461086-.1434088.9691801-.2150383C15.3889637 4.9793301 15.4153128 4.9699998 15.4393911 4.9903121z"/><path fill="#23e738" d="M15.4393902 4.9903121c-.0834522.0019989-.1621466.0293927-.2425728.046783-.2919559.0631289-.5834188.1285439-.8750658.1930966-19e-7-.0399971-38e-7-.0799942-48e-7-.1199913.0834007-.0024309.1620903-.0297103.2425356-.047112.2919693-.0631585.5835037-.1283226.8751993-.192729C15.4394474 4.9103441 15.4394188 4.9503279 15.4393902 4.9903121z"/><path fill="#19e22e" d="M14.3217506 5.3401623c.0794954-.0057845.1553326-.0300546.2325287-.0470376.2869244-.063127.5734673-.1279855.8602095-.1919394.0079565-.0017743.0165567-6666e-7.0248499-9022e-7-248e-7.0366697-42e-6.0733385-591e-7.1100073-.0130558.0173798-.0324669.0216475-.0521727.0260267-.3375416.0750279-.6749754.1505408-1.0127163.2246699-.0173149.0038018-.0353346.0120749-.0526409-8817e-7C14.3217506 5.4201241 14.3217506 5.3801432 14.3217506 5.3401623z"/><path fill="#2feb42" d="M17.631218 4.1375499c.0155735.0321641.0265617.0656438.0291557.1015339.0148163.0430942-.0162544.0519824-.0460205.0593901-.0967903.0240879-.1945782.0438619-.2918892.0657067-.2059803.0462399-.412014.0922599-.6183758.1367626-.0210457.0045385-.0457287.0187216-.0621376-.0102286-.0071316-.0335054-.0142612-.0670104-.0213928-.1005158.0149879-.0301991.0459156-.0309334.0725117-.0369034.279171-.0626707.5585594-.1243916.8379459-.1861038C17.5652561 4.1596289 17.5984421 4.1495385 17.631218 4.1375499z"/><path fill="#009f12" d="M14.3215523 7.6197395c.0795469-.0055995.1553764-.0300183.2325888-.0469933.2869978-.0630941.573596-.128005.8604002-.1919847.0079632-.0017767.0165596-7329e-7.0248518-.0010056 114e-7.0366364 286e-7.0732741 391e-7.1099095-.1870909.0407028-.3742723.0809569-.5612278.1222415-.1724424.0380807-.3446083.0774102-.5170107.1156735-.0127583.002831-.0264378.0015059-.0396824.0021138C14.3215284 7.6930428 14.3215408 7.6563907 14.3215523 7.6197395z"/><path fill="#10dd26" d="M15.4392157 5.4301696c-.0834064.0022335-.1621122.0294805-.2425308.0468788-.2919073.0631595-.5833349.1285315-.8749428.1930685 19e-7-.0366588 19e-7-.0733185 19e-7-.1099782.0139561-.0163698.0336075-.0201569.0531874-.0245419.3243227-.0726204.6489544-.1438456.9733763-.2160177.0295496-.0065732.0608559-.022459.0909224 6127e-7C15.4392252 5.3568511 15.4392204 5.3935108 15.4392157 5.4301696z"/><path fill="#08d81f" d="M16.7799911 5.3501272c-.0225048.03368-.0614567.0307388-.0936413.0380516-.2322311.0527668-.4651222.1026101-.6976671.1539984-.0952549.02105-.1900988.0439548-.285306.0652256C15.685936 5.6113 15.667222 5.6155496 15.6508627 5.6023364c.1443081-.1406727.3225899-.212822.5162725-.2501087.1954346-.0376248.3924522-.0343351.5893593-.0098634C16.7645245 5.3433623 16.7721672 5.3474693 16.7799911 5.3501272z"
		/><path fill="#28e83c" d="M16.6419506 4.4907146c.0357761.0167007.0683479-.0052347.1004639-.0122137.2925148-.0635576.5842266-.130795.8764744-.1956038.0267372-.0059295.0437984-.0137968.0414829-.043807.0253963.0473685.0161514.1015821.0298748.1512613-.0137615.0143209-.0327797.0155015-.0504017.0195065-.3005142.0682802-.6016598.1337299-.9022465.2016878-.0282154.0063791-.0616379.0257134-.0859337-.0108814C16.6484261 4.5640144 16.6451893 4.5273643 16.6419506 4.4907146z"/><path fill="#2feb42" d="M15.4397411 4.760406c-.1075096.0090008-.2103939.0412583-.3151693.0636878-.2678995.0573492-.5352497.1172528-.8028202.1761346 1e-6-.0366583 1e-6-.0733166 1e-6-.1099749.0181618-.0172362.042428-.0184011.0647936-.0233936.3376999-.0753775.6755123-.1502533 1.0132055-.2256637.0160894-.0035925.0324116-.0087042.0487547-5798e-7-782e-6.0273976-.0015659.0547953-.0023556.082222C15.4366913 4.7341323 15.4422865 4.7479634 15.4397411 4.760406z"/><path fill="#47f358" d="M15.5523853 4.2711229c-.078661.001008-.1527319.0273738-.2283106.0437894-.3165178.0687451-.6322403.1411581-.9483433.2118187-.0143757.0032134-.0296373.0024629-.044486.0035582 1783e-7-.0034833 3538e-7-.0069666 5312e-7-.0104499.0089121-.0197077-.0022583-.0418944.0075922-.0614867.0013952-.0237398-.0028477-.0482745.0099258-.0704241-.0057907.0491352.0200844.0478959.0570812.0395417.3937178-.0889072.7876358-.176919 1.1816931-.2643113.0206547-.004581.0430393-.0013661.0646238-.0017796C15.6192608 4.1979613 15.5858231 4.2345424 15.5523853 4.2711229z"/><path fill="#38ee4b" d="M16.5102425 4.200284c.1839771-.0406451.3679771-.0811853.5519238-.1219687.1468258-.0325532.2936878-.0649567.4402542-.0986345.0203075-.0046663.0501823-.0027649.0471649-.0383482.0226994.0337427.0391808.0703285.0500946.109462-.0035.0414391-.0390625.0409064-.0660877.0471797-.1249447.029007-.2502708.0564046-.3755341.0840354-.1708107.0376782-.3414516.076118-.5122833.1136913-.0209885.0046158-.0418053.0126915-.0636635.0040755C16.5581551 4.2666121 16.5342007 4.233448 16.5102425 4.200284z"/><path fill="#14e02a" d="M15.43923 5.3201919c-.1073828.0094862-.2102757.041441-.3150101.0638981C14.8564558 5.441504 14.5892 5.501297 14.321743 5.5601387c1e-6-.0333443 29e-7-.0666885 48e-7-.1000328.2531786-.0566831.5063457-.1134028.7595339-.1700306.119318-.0266867.2386742-.0531979.3580046-.0797868C15.4392624 5.2469244 15.4392462 5.2835579 15.43923 5.3201919z"/><path fill="#5ffa6e" d="M14.6060762 3.7592552c.0695095.0064824.1341829-.0188897.199955-.0332549.4313574-.0942097.8621531-.1909869 1.2931223-.2869716.1775322-.0395393.3549938-.0793846.5326195-.1184909.017231-.003794.026804-.0117204.0281506-.029223.0383301.0040193.0749264.0143387.1099911.0302355.0073013.0394073-.026804.0369391-.0471077.0419481-.101881.0251341-.2046528.0465815-.3070774.0694723-.5722771.1278956-1.1446257.2554686-1.7170973.382493-.0276537.0061362-.05515.0140777-.0833673.0158329-.0177174.0011024-.0414791.0082173-.0457048-.0217786C14.5766668 3.7890842 14.5891924 3.7725875 14.6060762 3.7592552z"
		/><path fill="#5ffa6e" d="M14.5695601 3.8095181c.0373611.0274746.0742912.0029254.1090202-.0046663.3183413-.069587.6360216-.1421778.9540844-.2130549.3632488-.0809469.7267275-.1608672 1.0899305-.2420197.0176144-.0039358.0417862-.0018995.0473194-.0282273.0316048.0051653.0613384.015836.0897141.0304997-.01227.0220695-.0359077.0231707-.0560532.027663-.4230499.0943358-.8463078.1877358-1.2694225.2817814-.2568026.0570793-.5134497.1148496-.7701216.1725094C14.699481 3.8485041 14.63517 3.8640785 14.5705938 3.8784621c-.0143995.0032074-.0300245.006005-.0410166-.0090375C14.540369 3.8477635 14.5520468 3.8266935 14.5695601 3.8095181z"/><path fill="#23e738" d="M16.6516647 4.6006641c.0291996.0219221.0591221.0031037.0860691-.0027909.2708397-.0592422.5409565-.1218019.8116722-.1816249.0464725-.0102692.0919323-.0281591.1408386-.025897.0131664.0281134.0096302.0583267.0110664.0879097-.0711231.0383039-.1517773.0421119-.2280979.0603137-.2153702.0513644-.432106.0970073-.6483307.1447821-.0419025.0092592-.084444.0160995-.125721.0275536-.0298557.0082841-.0401421-.0064917-.0473232-.0299792C16.6517811 4.6541767 16.651722 4.6274204 16.6516647 4.6006641z"
		/><path fill="#16e12c" d="M16.8201904 4.8390493c.0218391-.0311379.0586739-.0291681.0892181-.036067.2522621-.0569811.5050812-.111496.757782-.166513.014389-.0031328.0292454-.0041237.0438881-.0061116.0119076.0541725.0028629.1092515.0071621.1636395.002943.0372267-.0094986.0478072-.0470829.0475564-.2455254-.0016389-.4910641-7176e-7-.736599-8383e-7C16.8964348 4.8406963 16.8583126 4.8396306 16.8201904 4.8390493z"
		/><path fill="#33ed46" d="M15.4485064 4.6406164c-.1522617.0450015-.3088398.071631-.4631271.1080308-.2025757.0477924-.4065609.0895982-.6096706.1351719-.0181513.0040727-.0357294.0062871-.053957.0064344 38e-7-.0299993 48e-7-.059998 76e-7-.0899973.1146374-.0244198.2294607-.0480032.3438749-.0734334.2450838-.0544739.4899387-.1099849.7349529-.1647739.019146-.0042815.0402689.0012865.0578289-.0113664C15.4551115 4.5806608 15.4518099 4.6106386 15.4485064 4.6406164z"/><path fill="#34ed46" d="M16.5821114 4.2997766c.1561203-.0444031.3158817-.0730567.4739113-.1091857.1661892-.0379944.3328762-.0738077.4992619-.1109524.0179176-.0040007.0353947-.0103331.0443974-.0288444.0163803.0267925.0262985.0559316.0315304.0867653-.0061874.0307641-.03339.0282083-.0546303.0329685-.2982006.0668311-.5965462.1330061-.8947487.1998234-.0208607.004674-.0408726.0131435-.0612774.0198479C16.6077423 4.3600583 16.5949268 4.3299174 16.5821114 4.2997766z"/><path fill="#3ef050" d="M14.3393688 4.4583526c-.0015545.020617.0077744.0425777-.0075932.0614877C14.3310795 4.4989452 14.3274202 4.4776855 14.3393688 4.4583526z"/><path fill="#00cc15" d="M11.400281 5.6001039c.0022964-.0168409-.0066986-.0359278.0099354-.0499153C11.406498 5.5667467 11.4136105 5.5854592 11.400281 5.6001039z"/><path fill="#00ad12" d="M11.6800108 8.0996284c-.0191584-.0084829-.0210648-.024538-.018652-.0425053C11.6727676 8.069005 11.6774817 8.0838375 11.6800108 8.0996284z"/><path fill="#292929" d="M15.4711628 8.0194979c-.0138092-.044364-.021699-.0891714-.0216103-.136241 7401e-7-.3896375 2871e-7-.7792759 1135e-7-1.1689143-86e-7-.0182872-7677e-7-.0365739-.0011835-.0548611.0073624-.0497832.0147314-.0995665.0221004-.1493492.0287971-.0763612.0632286-.1495061.1198635-.2099791.1546812-.1317816.3382769-.150527.5303307-.1348448.0396137.0032344.0789394.0099626.1183949.0150833.1002998.031424.191515.0777097.260973.1595736.0337009.0498862.0586643.1041794.0807037.1599493.0159817.0792375.0305862.1586509.0306168.239923-57e-7.0699892-172e-7.1399798-286e-7.2099695.0268669.0581427.0098743.1194954.0132122.1793599.0014973.0632448.0016899.1264949-21e-6.1897416.0014534.0536222.0015564.107245 76e-7.1608686.0016079.0634227.0016727.1268411 42e-6.1902676.0023003.0511627.0011215.1023388 6561e-7.1534972-1793e-7.0195956 6313e-7.0401015-.0158195.0553265-.0150509.0859375-.0330677.1710324-.0711308.2504382-.0872707.1348705-.2172127.1976662-.3712387.2198277-.1378059.0198278-.2733097.0071392-.4071827-.0287113-.0657578-.0132589-.1176863-.0493307-.1626835-.0974731-.0146446-.0156689-.0312014-.0295496-.0468826-.0442562C15.5166502 8.1292744 15.493926 8.0743771 15.4711628 8.0194979z"
		/><path fill="#008712" d="M16.6095123 7.8788686c5741e-7-.0697355.0011482-.1394711.0017242-.2092061.0205536-.0196748.047924-.0221953.0735435-.027874.3260498-.0722771.6520672-.1447067.9780674-.2172208.0225716-.0050211.0455818-.0126405.0665455.0050364 1335e-7.0648479-629e-7.1296983 5856e-7.1945415 2079e-7.0206771-.0041103.0312443-.028574.0366297-.351675.0774221-.7029991.1564445-1.0543594.2352958C16.6294498 7.9000182 16.6133995 7.9034829 16.6095123 7.8788686z"/><path fill="#009012" d="M17.729393 7.4296041c-.0779686.0051322-.1523762.0288777-.2280025.0454125-.2887516.063127-.5768871.1290722-.8653107.1937122-.0079556.0017829-.0165577 6876e-7-.0248508 9341e-7 248e-7-.0633049 42e-6-.1266088 61e-6-.1899128.0113811-.0113239.0264988-.012958.0411263-.0161843.3383293-.0746112.6762829-.1509075 1.0146885-.2251625.0206089-.0045218.0418453-.0145211.062233.0013466C17.7293568 7.3030343 17.7293739 7.3663197 17.729393 7.4296041z"/><path fill="#009c12" d="M16.6113453 7.3197317c153e-7-.063313 324e-7-.126626 477e-7-.189939.0113525-.0113788.0264931-.0129547.0411129-.0161781.3382721-.0745926.6761646-.1508899 1.0145168-.2251277.0205994-.0045199.0418301-.0145421.0622253.0013075 134e-7.0633082 267e-7.1266165 381e-7.1899247-.0167809.0158968-.0390511.0176091-.0598564.0222397-.3337688.074296-.6674728.1488857-1.0013103.2228751C16.6488018 7.3291159 16.6290035 7.3354225 16.6113453 7.3197317z"/><path fill="#00a212" d="M17.729248 6.8897948c-.2014923.0444093-.4030628.0884795-.6044559.1333361-.1546726.034451-.3090649.0701571-.4637623.1045008-.0159245.0035353-.0330696.0015731-.0496426.0021615 172e-7-.0599952 286e-7-.1199908 439e-7-.179986.0834293-.0022764.1621227-.0295949.2425613-.0470095.2919903-.0632095.5835342-.1284785.8752384-.1929722C17.7292347 6.7698145 17.7292404 6.8298044 17.729248 6.8897948z"/><path fill="#009412" d="M16.6113453 7.3197317c.112999-.0238628.2262192-.0467148.3389473-.0717931.2465439-.0548515.492815-.1109352.7392979-.1660671.0127602-.0028529.0264511-.0015283.0397015-.0021505 153e-7.0533423 381e-7.1066861 515e-7.1600294-.2015343.044404-.4031391.0884681-.6045666.1333246-.1546993.0344505-.3091202.0701637-.4638424.1045103-.0159283.0035367-.0330753.0015755-.0496521.0021648C16.6113071 7.4264107 16.6113281 7.3730712 16.6113453 7.3197317z"/></g></svg>