<svg id="Слой_1" xmlns="http://www.w3.org/2000/svg" xmlns:xlink="http://www.w3.org/1999/xlink" viewBox="0 0 32 13" enable-background="new 0 0 32 13" width="32" height="13"><g><path fill="#292929" d="M9.4913816 6.685967C9.4913788 6.525331 9.4913759 6.3646955 9.4913731 6.2040596c.0108566-.0373974-.0020027-.0763283.0073557-.1138225 8936e-7-.0251822.0017872-.050365.0026808-.0755467.0095825-.0241055-.0010843-.0502214.007391-.0744371C9.5096083 5.9244118 9.510416 5.9085698 9.5112228 5.8927279 9.5211782 5.872807 9.510416 5.8504 9.5187168 5.8302808c.0105963-.1013179.0157499-.2035766.033061-.3037338.0262432-.1518221.052598-.303658.0876808-.4540815C9.6828527 4.8864059 9.7315264 4.702311 9.7900257 4.5203996 9.8453178 4.3484597 9.9058609 4.1782894 9.9773092 4.012908c.0683279-.1581569.1393442-.315321.2224092-.4673138.1216364-.2225707.2472124-.4424038.3915453-.6508319.1254711-.1811891.2592258-.3557842.4036055-.5232811.1590862-.1845591.3255377-.3612678.5019455-.5284923.1397753-.1324981.2844362-.2601054.4406509-.3736668.0118895-.0086423.0219622-.0197821.0328789-.029761.0147734-.0071322.0256929-.0194439.0387735-.028851.1554985-.1191809.3156185-.2323105.4828396-.3338913.4818935-.2927336.9901218-.5290137 1.5293894-.6963921.7041149-.2185432 1.4251299-.3198005 2.1616592-.2968642 1.2844105.0399979 2.4635448.4123947 3.5290928 1.1350365.0927811.0629231.183712.1285756.2755013.192961.0161896.0074182.0290756.0191334.0412788.0317369.0123768.0179667.0289612.0304699.0493736.037997.0152988.0086316.0292091.0189764.0403976.0326856.1038532.0950248.2144623.18218.3183975.2773141.1364403.1248845.2672539.255319.3937092.3898031.1519794.1616278.2926807.3332264.4254646.5112431.2456627.3293419.459362.6780457.6366997 1.048677.2010078.4201071.3561592.8561528.4577808 1.3113201.052742.2362146.0955219.4736376.1192513.7144942.0021.0213203.007473.0423183.0113239.0634656.008337.0200658-.0025139.0424471.0075245.0623069 7992e-7.0158887.0015965.0317769.0023956.0476661.0084763.0242047-.0021801.0503068.0073776.0744047 8907e-7.0251904.0017834.0503802.0026779.0755706.009409.0374308-.0035114.0763092.0073681.1136446 19e-7.1607351 38e-7.3214698 95e-7.4822049-.0108967.0373459.0020332.0762377-.0073776.1136799-8907e-7.0251889-.0017834.0503774-.0026741.0755663-.0095654.0240955.0010872.0501952-.0073738.0744004-7992e-7.0158849-.0016003.0317702-.0023975.0476556-.0100441.0198631 8068e-7.0422497-.0075264.0623188-.0407448.3333025-.0937061.6642284-.1812134.9891138-.1203003.4466391-.2850876.8757324-.5000324 1.2853479-.1864223.3552589-.4046822.6894817-.6532402 1.0048866-.2072773.2630243-.4371624.5042667-.6801758.7333403-.1119328.1055098-.2317333.2026749-.3479652.3036251-.0111923.0137148-.0251102.0240602-.0404129.0326958-.0990372.0714054-.1977768.1432285-.2971706.2141352-.2414665.1722593-.49576.3231525-.7594833.4588156-.211977.1090431-.4291325.2059164-.6518955.2905197-.0106354.0040417-.0199547.0115499-.0298862.0174427-.0159283.0120049-.0354156.0135365-.0538101.0182753-.0117035-.0028849-.0179119.0066175-.0261269.01159-.032896.0289068-.078289.0204229-.1148415.0383844-.0292149.0075655-.0587788.0141449-.084959.0302315-.0550709.0131426-.1053429.0420427-.1621799.0493774l.0011616-7772e-7c-.0218983.0127296-.0473824.0134869-.0707817.0212049l.0010548-6142e-7c-.0225563.0110989-.0474148.0140991-.071373.0202627l.0011578-7591e-7c-.1622124.0485325-.3275146.0837975-.4932194.1180077-.0972881.0200891-.1955452.0351143-.2930088.0538244-.0654278.0125589-.1331615.0230675-.2007618.0269489-.0393047.0022564-.0784111.0081511-.1174946.0116978-.1132126.0102768-.2257137.0262451-.3399029.0170593-.0195446-.0015736-.0399323-.0037041-.0592651.003808-.1703014 19e-7-.3406048 48e-7-.5109072 76e-7-.0478563-.0065031-.0957632-.0080948-.1433849.0011911-.0133553.0026026-.0264063.0035677-.0395632.0014467-.1204443-.0194149-.2431173-.0179243-.3634205-.0363436-.2104235-.032217-.4205179-.0671482-.6283283-.1139069-.1103878-.0248384-.2209883-.0492163-.3289461-.0837631l.001152 7696e-7c-.0239601-.006156-.0488281-.0091219-.0713701-.0202742l.00105 6247e-7c-.0234089-.0076904-.0488844-.0084772-.0707903-.0211868l.001153 7763e-7c-.0568371-.0073328-.1071033-.0362463-.1621733-.0493822-.0299072-.0096569-.0598154-.0193138-.0897236-.0289707-.0333195-.0225725-.0793362-.0098972-.1100721-.0396452-.0100718-.0037708-.0229301 6771e-7-.0305443-.0103483-.0157528-.0083065-.0349607-.0078688-.0493917-.0195169-.1216354-.0400991-.2382765-.0927019-.3554325-.1437635-.0686264-.0299101-.1350336-.0649099-.2024384-.097621-.015624-.0023317-.0292158-.0093746-.0420609-.0181475-.0140419-.0068474-.0280848-.0136948-.0421286-.0205421-.0216122-.0053787-.042635-.0119123-.0579576-.0296021-.2062654-.1081953-.4073544-.2253819-.6022663-.3527927-.1513939-.0989647-.299861-.2023163-.4393902-.3178444-.0126638-.0098534-.0238094-.0216866-.0382061-.0292788-.2389641-.1884747-.4610395-.3957186-.6688213-.6174841-.1732702-.1849308-.3380566-.3773022-.4885101-.582263-.1149435-.1565857-.223115-.31742-.3247976-.4822712-.0713358-.115653-.1348724-.2365427-.1999273-.3562412-.0810585-.149147-.1525631-.302537-.2178154-.458642C9.9152203 8.7271128 9.8574324 8.5680857 9.8026342 8.4077568c-.0625525-.1830196-.1131039-.3692923-.158742-.5563836C9.6131792 7.7254658 9.5917568 7.5962973 9.5704851 7.4676557 9.5523825 7.3581872 9.5440741 7.2473874 9.5220032 7.1384926 9.5169897 7.1137528 9.5249233 7.0859256 9.5187168 7.059731 9.510416 7.0396118 9.5211763 7.0172062 9.5112247 6.9972854 9.510417 6.9814429 9.5096092 6.965601 9.5088005 6.9497585 9.5003281 6.9255424 9.5109854 6.8994279 9.5014143 6.8753209c-8945e-7-.0251822-.00179-.0503645-.0026855-.0755467C9.4893751 6.7622838 9.5022211 6.7233615 9.4913816 6.685967z"/><path fill="#fefefe" d="M16.255455 12.8081598c.1175041-.0091257.2350807-.0174026.352499-.0275345.3765068-.032486.7470264-.0991507 1.1121254-.196413.0127602-.0033989.0260067-.0049706.0390263-.0073957-.029808.0279312-.0702057.0248909-.1057777.0357084-.1500473.0456305-.3052635.0699844-.4574757.1068354-.059824.0144825-.1239891.0178928-.1854591.0331745-.0155067.0038557-.0204296.013072-.0303974.0196457-.0107822.0071125-.024065.020792-.0354176.0119505-.0477753-.0372019-.0829792 6161e-7-.1261692.0102768-.0385933.0086317-.0857391.0259991-.1186924.0187979-.0343342-.0075054-.0543938-.0140171-.0777702.0130777-.0024624.0028563-.010685.0040884-.0141602.0022192-.0462475-.0248737-.0867367-.0210152-.1330166.0079613-.0220184.0137882-.0580788.00243-.0880184-.0172825C16.3482475 12.7938232 16.2993546 12.8146067 16.255455 12.8081598z"
		/><path fill="#fefefe" d="M14.2409048 12.5767918c.1697979.0386429.3382816.0826635.509717.1145754.3125982.0581875.6271496.0973644.9449291.1101427.0163774 6599e-7.03263.0043592.0489693.0066509-.0543346.0060596-.1095285-.0087767-.1629944.0255346-.025507.0163708-.0719433.0190039-.098691-.0191326-.0139303-.0198603-.0288897-.0193481-.0451536-.0027504-.0034218.0034924-.0078373.0060835-.0120134.0087481-.0401764.0256262-.0675726-.0273447-.0880013-.0223198-.0307283.0075588-.0542059.0367355-.0830631-.0013218-.0049057-.0064707-.0129642-.0187502-.0177822-.013381-.0500479.0557823-.082737-.0275993-.1269436-.0151453-.0031309 8812e-7-.0099726-.0079603-.011919-.0068302-.0867586.0504408-.1521187-.0315351-.2310209-.0394869-.1960306-.0197573-.3869038-.0749025-.5782032-.1232386C14.2716894 12.5945301 14.2521448 12.5942698 14.2409048 12.5767918z"/><path fill="#fefefe" d="M18.1450272 12.4578876c.0366287-.0177355.0746574-.0312853.1148415-.0383844.003849.0334654-.0118847.0491543-.0426464.0362225C18.1909962 12.4447021 18.1690636 12.4643717 18.1450272 12.4578876z"/><path fill="#fefefe" d="M13.7401304 12.4195032c.0387392.0075293.0766706.0173006.1100721.0396452-.0255127-1812e-7-.0492172-.0116425-.0769939-.0018311C13.7431345 12.4679413 13.7384424 12.4435701 13.7401304 12.4195032z"/><path fill="#fefefe" d="M17.8978882 12.5374966c.0527954-.0206108.1060333-.0397682.1621799-.0493774C18.0063801 12.5057955 17.9609241 12.5505133 17.8978882 12.5374966z"/><path fill="#fefefe" d="M13.9399261 12.4881191c.0561409.0096149.1093836.028738.1621675.049387C14.0390682 12.5505028 13.9936142 12.5057917 13.9399261 12.4881191z"/><path fill="#fefefe" d="M12.9601765 12.0799618c.0230865.002492.0426264.0119276.0579576.0296021C12.986865 12.1230888 12.9575176 12.1328516 12.9601765 12.0799618z"/><path fill="#fcfcfc" d="M9.4987288 6.0902371c6113e-7.0381236.0025015.0763307-.0073547.1138C9.4931965 6.1660781 9.4817247 6.1272378 9.4987288 6.0902371z"/><path fill="#fcfcfc" d="M22.5012531 6.7997742c-6695e-7-.0380826-.0024071-.0762353.0073776-.1136599C22.5067406 6.7240248 22.5183334 6.7628298 22.5012531 6.7997742z"/><path fill="#fcfcfc" d="M9.4913816 6.685967c.009819.0374603.0079613.0756736.0073471.1138072C9.4817286 6.7627778 9.4931879 6.7239442 9.4913816 6.685967z"/><path fill="#fcfcfc" d="M22.5086212 6.2038894c-.0097675-.0374079-.0080395-.0755606-.0073681-.1136446C22.5183277 6.1271787 22.506752 6.1659703 22.5086212 6.2038894z"/><path fill="#fefefe" d="M14.1009464 12.536725c.0247593.0031738.0488434.0085983.0707855.0211906C14.1452951 12.5603523 14.1204033 12.5576191 14.1009464 12.536725z"/><path fill="#fefefe" d="M14.1706867 12.5572872c.0250082.0024633.04914.0080032.0713634.0202789C14.2154026 12.5808849 14.1907244 12.5772524 14.1706867 12.5572872z"/><path fill="#fefefe" d="M17.7579498 12.5775728c.0222988-.0120077.0463219-.0179386.071373-.0202599C17.8092728 12.5772419 17.7845993 12.580884 17.7579498 12.5775728z"/><path fill="#fefefe" d="M17.8282681 12.5579243c.0219479-.0125599.0460129-.0180511.0707817-.0212021C17.8796005 12.55762 17.854702 12.5603333 17.8282681 12.5579243z"/><path fill="#fefefe" d="M13.6601944 12.3896379c.0188074 576e-6.0362053.0047188.0493917.0195169C13.6871881 12.4176617 13.6702585 12.4123383 13.6601944 12.3896379z"/><path fill="#fefefe" d="M18.2859955 12.4079132c.0165539-.0101614.0336781-.0186443.0538101-.0182753C18.3288288 12.4162235 18.3084221 12.4150419 18.2859955 12.4079132z"/><path fill="#fcfcfc" d="M9.5014143 6.8753209c.0099573.0240688.0082493.0492954.0073862.0744376C9.4924135 6.9263272 9.5030289 6.900218 9.5014143 6.8753209z"/><path fill="#fcfcfc" d="M22.4912052 6.9497409c-8583e-7-.0251117-.0025177-.0503035.00737-.0743761C22.4969788 6.9002252 22.5076008 6.926322 22.4912052 6.9497409z"/><path fill="#fcfcfc" d="M22.4985752 6.0146742c-.0098877-.024066-.0082226-.0492759-.0073776-.0744057C22.5076103 5.9636874 22.4969749 5.9897876 22.4985752 6.0146742z"/><path fill="#fcfcfc" d="M9.5088005 5.9402533c865e-6.025126.0025721.0503354-.0073862.0744128C9.5030308 5.9897947 9.4924135 5.9636831 9.5088005 5.9402533z"/><path fill="#fcfcfc" d="M20.1186504 1.5139796c-.0134659-.010895-.0269318-.0217903-.0403976-.0326856C20.1002979 1.4815881 20.1126995 1.4937962 20.1186504 1.5139796z"/><path fill="#fcfcfc" d="M12.0091181 1.4107101c-.0076427.016714-.0204554.0264807-.0387735.028851C11.9794788 1.4248511 11.989747 1.4116646 12.0091181 1.4107101z"/><path fill="#fcfcfc" d="M9.5187168 5.8302808c.0013418.0212727.0012197.0423698-.0074959.0624409C9.5125065 5.8717666 9.5033731 5.8495555 9.5187168 5.8302808z"/><path fill="#fcfcfc" d="M11.8803139 11.3800459c.0186214.002079.0304003.0130863.0382061.0292788C11.8993282 11.4079885 11.8891296 11.3949194 11.8803139 11.3800459z"/><path fill="#fcfcfc" d="M20.0782433 11.4087257c.0134697-.0108986.0269413-.0217972.040411-.0326967C20.1127052 11.3962221 20.1002884 11.4084225 20.0782433 11.4087257z"/><path fill="#fcfcfc" d="M9.5112247 6.9972854C9.5199499 7.0173531 9.5200253 7.0384593 9.5187168 7.059731 9.5033693 7.0404572 9.5125093 7.0182462 9.5112247 6.9972854z"/><path fill="#fefefe" d="M13.0602627 12.130106c.0173388-.0016394.0297289.0081863.0420609.0181475C13.0799503 12.161561 13.0699577 12.1461773 13.0602627 12.130106z"/><path fill="#fcfcfc" d="M22.488802 5.8926034c-.0086708-.0200253-.0088463-.0410757-.0075207-.0623069C22.4966297 5.8495154 22.4874954 5.8716898 22.488802 5.8926034z"/><path fill="#fcfcfc" d="M20.0288792 1.4432968c-.0137596-.010579-.0275192-.0211577-.0412788-.0317367C20.0098858 1.4110509 20.0221043 1.4236346 20.0288792 1.4432968z"/><path fill="#fcfcfc" d="M22.4812813 7.0597153c-.0013256-.0212331-.0011501-.0422845.0075264-.0623136C22.4874916 7.0183129 22.4966297 7.0404925 22.4812813 7.0597153z"/><path fill="#818181" d="M17.5018597.8707723c.1675758.0402563.3321171.0906411.4941998.1490307.2031002.0731664.401968.1557193.5967941.2495401.2666702.1284176.5206146.2776563.7685604.4383917.1979771.1283451.3801975.2764781.5596352.4290216.1575508.133935.3041973.2791626.4453259.4292314.2020721.2148769.3879852.4436169.5527439.6892405.1556206.2320039.2990761.4713981.4204807.722436.1313591.27162.2380543.5534756.3254662.843262.0655708.2173648.1141224.437789.1581669.6597409.0250797.1263847.031311.2553334.0485821.382709.0336151.2479553.0275116.4968748.0276775.7457595 1278e-7.1906028-.025774.379066-.0445919.5683174-.0226498.2277799-.0705471.450273-.1270924.6706924-.0853424.3326693-.2009144.6550646-.3440094.9680462-.1170864.2560959-.2564526.4994993-.4089127.7348709-.1267948.1957502-.2656193.3835163-.4192791.5605192-.1419086.1634665-.2918549.3185606-.4456596.4703169-.1075249.1060925-.2236843.2026005-.3389225.3000574-.0260181.0220022-.0446987.0304184-.0736809-.0062571-.2424622-.3068295-.4875584-.6115847-.7334023-.9157171-.0205898-.0254688-.0168438-.0360594.0058956-.0541563.2323132-.184865.4399338-.3945932.6334629-.6196518.2412243-.2805262.4368668-.5903044.6032429-.9191093.1256771-.2483778.2196426-.5092635.2968788-.7768164.0691853-.2396703.1150208-.4836321.1432724-.7306232.024374-.2131033.0285263-.4278498.0217037-.6422911-.0078068-.245398-.035881-.488503-.082922-.7299047-.0465279-.2387733-.114666-.4709649-.1984043-.698616-.089716-.2439051-.2019215-.4773445-.3342705-.7014809-.1160812-.1965902-.2419758-.3865459-.3866405-.5625763-.1520138-.1849737-.318222-.3571668-.4941978-.5204887-.2230568-.2070174-.4673309-.3840394-.7270947-.5405498-.3200531-.1928365-.657835-.347409-1.014164-.4607942.0209694-.2246383.0277176-.4500844.0397015-.6752536.0078316-.1471362.0172424-.2942141.0243549-.4414175C17.4948406.8800432 17.4972267.8748878 17.5018597.8707723z"/><path fill="#006c6b" d="M16.6985035 7.120204c-.0761871.2320113-.1523991.4640145-.2285576.6960359-.1368103.4167914-.2743244.8333535-.4093437 1.2507243-.0150471.0465136-.0340023.0644817-.0857182.0640621-.3363962-.0027313-.6728287-.0020704-1.0092411-5732e-7-.0427561 1898e-7-.0532751-.0047979-.0379524-.0505724.1334639-.3986788.2643223-.7982302.3957691-1.1975818.0524664-.159399.1043577-.3189859.1568499-.478375.0051146-.0155263.0126286-.0302606.0190296-.0453629.0282192.0057878.0556469.0028853.0837831-.0034328.3504171-.0786867.7015095-.1543355 1.051918-.2330709C16.6558628 7.1173797 16.6770611 7.1104417 16.6985035 7.120204z"/><path fill="#00c4b8" d="M10.1020002 6.3503981C10.1014547 6.2843938 10.101285 6.2183828 10.1000919 6.15239c-2832e-7-.0156846.0045004-.0289884.0117569-.0420761.0315943-.0026088.0414009.0241642.0555735.0430837.189642.2531586.3810301.505003.5717478.7573457.2991199.395771.5969381.7925282.8976517 1.1870952.016819.0220671.0310097.0484209.0635128.0516882.0899696.2017336.1916275.397315.3078728.5852318.1311445.2119989.274704.4145594.4409399.6011591.1836529.2061501.3776617.4009743.5936003.5734901.009264.0074015.0325632.0139771.0157795.0337114-.077363.0909691-.1434011.1912689-.2278318.2763939-.0362158.0142231-.0459328-.0178995-.060298-.0369892-.1682434-.2235689-.3376713-.4462414-.5061417-.6696377-.3900824-.5172577-.7805681-1.034214-1.1710854-1.5511441-.303174-.4013138-.603591-.8047585-.9116964-1.2022648-.0570631-.0736203-.0849485-.1439028-.0772934-.2349834C10.1090078 6.4670382 10.1099672 6.4083304 10.1020002 6.3503981z"
		/><path fill="#00beb2" d="M10.1020002 6.3503981c.0175629.0415883.0119123.0861497.0068588.1274805-.014185.1160164.026783.2050161.0980244.2968321.2904844.3743777.5727978.7550926.8582649 1.1333656.246541.3266907.4932709.6532383.7399178.9798489.2466469.3266125.4932165.6532831.7399855.9798012.0819187.1083927.1644564.2163162.2464161.3246775.010314.0136347.0200949.0268002.0392265.0271091-.0508356.0833902-.1175394.1544552-.1785955.2299099-.0050564.0062475-.0098162.0127382-.0147152.0191154-.0345631.0056067-.0449696-.024003-.0602989-.0436468-.128005-.164031-.2508698-.3319645-.3764505-.497839-.3807573-.5029268-.7606421-1.0065117-1.1405878-1.5100527-.2265654-.3002672-.4541521-.5997624-.6801558-.900456-.0769558-.102387-.1570206-.2024369-.2309065-.3071351-.0385733-.2684312-.0553036-.538178-.0486917-.8093257C10.1006956 6.3835173 10.1014233 6.3669596 10.1020002 6.3503981z"/><path fill="#00b9ae" d="M10.148984 7.2094088c.0719099.058423.1163149.1393681.1711445.211493.2405214.3163872.4790096.6343207.7185526.9514527.1197796.1585751.2406178.3163538.360321.474987.2503595.3317785.5001307.6639996.7504549.9958048.1196814.1586409.2386684.3178415.3609333.4744768.0403347.0516729.0709381.1122637.126997.150918-.0614405.0586338-.1119385.1268597-.1672926.1908274-.0397072.0131779-.0522499-.0211382-.0687065-.0426512-.099185-.1296644-.1958895-.261219-.2944679-.3913536-.3822117-.5045643-.7632322-1.0100279-1.144393-1.5153866-.20963-.2779388-.4201717-.5551901-.6295662-.8333092-.022974-.0305138-.0451841-.0617394-.0755796-.0857286-.0243025-.0925298-.0450583-.185781-.0571556-.2807946-.012454-.0146055.0044336-.0361638-.0118189-.0498691C10.1679258 7.3778067 10.1562176 7.2939591 10.148984 7.2094088z"/><path fill="#01d1c5" d="M10.2212458 5.2803035c.0114603-.1064262.0402594-.2092066.0698166-.3113747.0382099-.1320748.0706291-.2662382.1274328-.3923488.0219316.0133886.0350876.035049.0499239.0547071.2773085.3674173.5558853.7338762.8321676 1.1020689.0134306.0178995.0233335.0399222.0437593.0497122.0222692-.0084753.0060129-.0439911.0359993-.0429797-.0417757.2918577-.0410872.5856423-.0399122.8794484.0099096.0274091.0037613.0557637.0042105.0836225 432e-6.0269508-.0164089.0249987-.0335541.0151868-.0177965-.0101843-.0282173-.0279036-.0401287-.0438352-.1881971-.2516999-.3778057-.5023522-.5681448-.7524176-.1560783-.2050571-.3060856-.4147415-.4678049-.6155014C10.2285805 5.2986083 10.2244177 5.2898068 10.2212458 5.2803035z"
		/><path fill="#00b4aa" d="M10.2573814 7.7909393c.0301256-.0012569.0438404.0226536.0581427.0416365.2073507.2752342.4134111.5514412.620719.8267069.2451811.3255568.4913378.6503792.7369423.9756165.2476091.3278885.4949064.6560106.7429962.9835348.0135069.0178299.027174.0389347.0539131.0409346-.0606699.0766077-.1213388.1532154-.1820087.2298241-.0344181.0120783-.0418568-.01968-.0549889-.0368748-.1364555-.1786461-.2715998-.3582935-.4070492-.5377073-.3912992-.5183048-.7834578-1.0359583-1.1738977-1.5549116-.0430231-.0571823-.0878267-.1130438-.1313086-.1699028C10.4098253 8.3311596 10.3258476 8.0636063 10.2573814 7.7909393z"
		/><path fill="#07d7cb" d="M11.3803453 5.7400885c-.0012589.0010877-.0028009.0019755-.0037327.0032935-.0132093.0186691.0015707.0548224-.0247355.0601463-.0291891.0059075-.0361109-.0302787-.0498648-.0484347C11.0832043 5.4662519 10.8662682 5.1759925 10.6481829 4.8866c-.0706949-.0938096-.1433201-.1861677-.2154989-.2788506-.0074711-.0095925-.0125847-.0193434-.0141859-.0311651.0260744-.120039.0830917-.2287946.1265001-.3424234.0303907-.0795588.0701437-.1555433.1057167-.2331238.0322571-2403e-7.0444174.0260687.0598774.0467296.2060223.2753296.4150496.5483894.6211309.8236761.0596437.0796742.1217556.1575055.1792669.2387929-.0145121.0610309-.0285931.1221671-.0436192.1830707C11.4309816 5.4408073 11.4032316 5.5899696 11.3803453 5.7400885z"
		/><path fill="#5df9f6" d="M16.869873 1.8600655c-.1374836-.0181367-.2743816-.039798-.4124737-.0545397-.1093216-.0116702-.2183762-.0087658-.3274059-.0150499-.0592651-.063176-.1075897-.1350925-.1594601-.2039376-.1980219-.2628291-.398098-.5241133-.5944195-.7882174-.0169649-.0228203-.0437794-.0427305-.036108-.0776862.0391378-.0222936.0837002-.012289.1252651-.0183099.1082296-.0156774.2181425-.0117907.3275423-.0115068.1996212 5181e-7.3992434-914e-7.5988646 4724e-7.0173931 491e-7.0367203-.0072554.0522213.0077315-.0165081.0200613-.0397053.0140364-.0604801.01419-.1015873 751e-6-.2031803 1706e-7-.3047714 5227e-7-.0128632 445e-7-.0293941-.0052846-.0374413.0068905-.0092239.0139601.0058022.024438.0133286.0343042C16.3120804 1.0925452 16.566 1.4328997 16.822298 1.7714552 16.8423634 1.7979612 16.8758736 1.8189261 16.869873 1.8600655z"/><path fill="#63fbf8" d="M16.869873 1.8600656c-.0720119-.0968527-.1435566-.1940571-.2161255-.2904892-.187048-.2485483-.3744984-.4967921-.5619373-.7450445-.0209217-.0277095-.0432262-.0543783-.0640259-.0821751-.0075989-.0101555-.0192947-.0219043-.010704-.0353492.0069523-.0108792.0214214-.0059414.0326099-.0060137.1314011-8496e-7.262804-.0013666.394207-.0019715.0486851.0043707.0986004-.0053449.1460838.0127606.0236092.0192621.0383358.0457709.0563011.0695679.2404842.3185382.4816666.6365497.7222252.9550301.013382.0177145.0243683.0498265.0481358.043561.0204487-.0053905.012167-.0381777.0139294-.0582966.0113106-.1290926.0190449-.2585074.025629-.3878958.0068359-.1343503.0147552-.2686414.0216064-.4029891.0010185-.0199679.0035477-.0401669.023201-.0522934.0159225.024606.0074902.0518249.006218.0773818-.0082321.1654455-.0181236.3308082-.0274353.4962001-.009779.1736861-.0196209.3473686-.0290871.5210719-7992e-7.0146799-.0040569.0260979-.0200214.0297964C17.246767 1.9435045 17.0582466 1.9020728 16.869873 1.8600656z"/><path fill="#00c8bc" d="M11.7003345 8.1495266c-.0093012.0343456-.0230417.0112839-.0332422.0016136-.0472231-.0447741-.0812731-.1003408-.1201706-.1517105-.2517481-.3324709-.5016432-.6663427-.7527113-.999331-.2151995-.2854161-.4310741-.5703254-.6470318-.8551688-.0098534-.0129967-.0234671-.0231428-.0353298-.034616-.002903-.1381197.0154114-.2743087.0373411-.4101686.0289831-.0151711.0383949.0108194.0504875.0260262.1119843.1408272.2166529.2872152.3257599.4302397.2879238.377429.5712366.7583442.8592911 1.1356721.0150003.0196495.0279255.0420732.0551081.047874.0503359.2048249.1084719.4073405.1813841.6053729C11.6464376 8.0138206 11.6738987 8.0814848 11.7003345 8.1495266z"/><path fill="#56f7f3" d="M15.3400059.7206346c.0656252.1098596.1489191.2069457.2249203.3092374.1363087.1834563.2752914.3649268.4132318.5471697.0389643.0514786.0783815.1026148.117198.1542046.0137939.0183322.0307121.0350438.0346375.0592295-.0941582 7708e-7-.1883574.0036724-.2824583.0017179-.0957727-.0019892-.1910067.0065169-.2865229.0088365-.0177107.0089298-.030467.004483-.0422649-.0118549-.2257376-.3125783-.4643202-.6155288-.6937418-.9253468-.0132332-.0178713-.0323105-.0350242-.0247669-.061914.0353928-.0127037.0725164-.0164897.1094532-.021239.0183744-.0127607.042181.0043304.0601006-.0109359C15.0919189.7437338 15.2149239.7243576 15.3400059.7206346z"/><path fill="#00cdc1" d="M11.4398365 7.3399572c-.0203571.0140247-.0332479.0036049-.0455647-.0128269-.145092-.1935906-.2901173-.3872333-.4357147-.5804429-.2483416-.3295522-.4965715-.6591935-.7468052-.9873047-.0165319-.0216761-.0267315-.0557089-.0625601-.0592375 8764e-7-.0103354-.012763-.0196452-.0021687-.0306673.0203648-.0194578-.001749-.0476174.0139399-.0680332l8268e-7-.0011368c.0096111-.0193391-.0026016-.0415978.0081329-.0607872l-3023e-7 4859e-7c.009655-.0364428.0131855-.0739813.0198545-.1109576l-5255e-7 8111e-7c.0151138-.0141411-8802e-7-.035265.0112438-.0500774 124e-7-.0346413.0074148-.0677195.0210524-.0994792.0716114.0608621.1195059.1414042.1754551.2148781.2337027.3069005.465167.6155052.6973448.9235663.065774.0872722.1312122.1747961.1967297.2622609.0107813.0143943.0215063.0380154.0392513.0324969.0205812-.0064011.0076361-.0320354.0098181-.0490689.0018883-.0147495 5169e-7-.0299158 5884e-7-.0448985.0167332.0738878.0129824.1498227.0224228.2244377.0145988.1153984.0301981.2306657.0461082.3458743C11.4160433 7.2411184 11.4316454 7.289556 11.4398365 7.3399572z"/><path fill="#10ddd2" d="M11.9118643 4.1606646c-.066925.1309509-.1342211.2617135-.2004423.3930187-.0123453.0244789-.0203781.0511332-.0304041.0767827-.0402594 8283e-7-.0546303-.033041-.0735016-.0579486-.1624575-.2144227-.3247929-.4289417-.4867153-.6437709-.0828896-.1099739-.1646566-.2208707-.2507734-.328408.0684261-.1356215.1540976-.2605431.2395163-.3856077.0129013-.0188882.0268478-.037061.0403118-.0555644.2345715.3217731.4783049.6366549.7178574.9546819C11.880765 4.131176 11.8945513 4.1475034 11.9118643 4.1606646z"/><path fill="#16e1d6" d="M11.9118643 4.1606646c-.0176249.0088305-.0244045-.0010653-.0347652-.0148597-.1309462-.1743617-.2631683-.3477657-.3948145-.5216026-.0997095-.1316643-.1992159-.263483-.2984123-.3955345-.0156221-.0207951-.0359249-.0398788-.0340166-.0695007.0948305-.1308682.1836462-.2664726.2997236-.3806121.020339.0126352.0332031.0324311.0471468.050818.2171516.2863479.4324741.5740788.6502237.8599763.0120831.0158651.024559.0315437.0313969.0506842C12.0848637 3.8772948 11.9981737 4.0188594 11.9118643 4.1606646z"/><path fill="#3befe8" d="M14.0805445 2.1908286c-.1583586.0773983-.315527.1570964-.4694624.2430375-.0585394-.0660033-.1074905-.1393797-.1606083-.209532-.1617661-.2136369-.3246899-.4264071-.4837179-.6420997-.0154076-.0208973-.0443926-.0435719-.0066881-.0708221.1338835-.0845543.272851-.1597707.4165564-.2262181.0070286-.0032493.0156488-.0030596.0235262-.0044714.0214491.0142132.0343246.0360144.0491934.0559713.1950321.2617991.3947067.5201012.5892973.7822284C14.0550795 2.1410675 14.0790787 2.1596396 14.0805445 2.1908286z"
		/><path fill="#0bdace" d="M10.8700275 3.6003385c.0190897 4554e-7.0287952.0136662.0390615.0273123.2389221.3175719.4778957.6351047.7174797.9521775.0148287.0196266.031908.0384941.0544481.0506368-.0421104.1111588-.0783987.2244272-.1251011.3339829-.0198326.0465255-.0302372.0970693-.0449257.1457877-.0498104-.0277262-.0725088-.0796714-.1047153-.1220021-.2411289-.3169289-.4797668-.6357541-.7196264-.9536524-.0097208-.0128837-.0238562-.0224385-.0359335-.0335441.0 5e-7 3586e-7-4849e-7 3586e-7-4849e-7.0103493-.0176656.0219526-.0346949.0277824-.0546575C10.735507 3.826797 10.7972717 3.7105286 10.8700275 3.6003385z"/><path fill="#32ece4" d="M12.9600677 1.5114121c-.0110369.0174463-.0094566.031311.0040779.0491747.2040834.2693539.4071674.5394629.6104078.8094543.0148306.0197005.0329409.0376375.0365276.0638227-.1340418.0854664-.2680845.1709301-.4021282.2563937-.0297546.0016053-.0373755-.0249803-.0503054-.0421996-.1779375-.2369576-.3587933-.4717162-.5352488-.709787-.0257816-.0347856-.0548096-.0670792-.0793161-.1027658-.0106297-.0154793-.0286827-.0303971-.0132933-.0529457C12.6695423 1.685308 12.8101578 1.5910045 12.9600677 1.5114121z"
		/><path fill="#1de4da" d="M12.1783466 3.7400334c-.0741253-.0758061-.1324816-.1642337-.19664-.2478924-.1748371-.2279758-.3475714-.4575663-.5207968-.6867754-.0056705-.0075047-.007637-.0178094-.0113297-.0268095.0879993-.1075344.1770039-.2141488.2810555-.3069897.0222979.0044947.0307255.0242805.0424414.0397339.2037544.2687473.4059772.5386498.6102562.8070011.0210905.0277042.0438747.0539913.0649157.0816925-.0849085.1049819-.1698809.2099128-.2545929.3150537C12.1875782 3.7225914 12.1834049 3.7316687 12.1783466 3.7400334z"
		/><path fill="#67fcfa" d="M17.501009.878467c-.0227509.0570779-.0146255.1186749-.018013.1769928-.0084953.146278-.0154877.2928061-.023365.4392087-.0052204.097003-.0131474.1938605-.0198784.290782-5684e-7.0081824 553e-7.0172079-.0091114.0214245C17.417202 1.8130563 17.407629 1.8045983 17.400528 1.7957305c-.0392971-.0490766-.0786686-.0981312-.1165524-.1482961-.2223759-.2944599-.4442387-.5893048-.6667347-.8836727-.0121994-.0161421-.0246735-.0312149-.0272598-.0519787.0644894-.0067992.1268311.0114182.1899738.0182349.1576748.0170228.3140049.0442532.468668.0797189.08461.0194018.1706257.0331643.2532234.0610288C17.5014782.8733262 17.5011921.8758911 17.501009.878467z"/><path fill="#42f1eb" d="M14.0805445 2.190829c-.1001539-.131846-.2004766-.2635643-.3004179-.3955704-.1239882-.1637648-.2477245-.3277212-.3712358-.4918449-.0046892-.0062287-.0059061-.0150684-.0087404-.0226911.086216-.062355.1879377-.0929142.2828436-.1374056.0280581-.0131532.0580215-.0222368.0871134-.0331855.2038488.2837704.4189377.559114.6284761.8386177.021636.0288584.0498714.054546.0544386.093603C14.3288622 2.0918446 14.2047033 2.1413367 14.0805445 2.190829z"/><path fill="#51f6f1" d="M14.8002386.8019146c.0748577.1211244.1671753.2295576.2511902.3440019.1074791.1464081.2188549.2899565.3285789.4347167.051775.0683109.1096716.1322148.1511393.2079344.0073729.0134624.018816.0110366.0298643.0124625-.1000261.0137869-.2000704.0274467-.3000708.0414199-.0436773.0061033-.087266.0128475-.1308956.0193005-.1413145-.1791739-.2755575-.3637112-.4137754-.545231-.0918427-.1206148-.1838837-.2410818-.2737141-.3631935-.0129519-.0176046-.0410099-.0361559-.0128183-.0637134C14.5508213.8501728 14.675313.8251307 14.8002386.8019146z"/><path fill="#22e6dc" d="M12.4482489 3.3999939c-.0228882-.0018208-.0337505-.0195975-.0456305-.0353014-.2137899-.2825944-.4274435-.5652933-.6409845-.8480763-.0109749-.0145321-.0206938-.0300119-.0309982-.0450499.0898609-.0935357.1772251-.1896574.2798347-.2699811.0047998.0374515.0249386.0668314.0473413.0960701.2014246.2629018.3989487.5287585.5994072.7923977.0119553.0157247.0270338.0297797.0317421.0502081-.0610771.066375-.1220846.1328151-.1832762.1990857C12.4867983 3.3598011 12.4674082 3.379791 12.4482489 3.3999939z"/><path fill="#00afa5" d="M10.5208416 8.5897961c.0720224.0510778.1143064.1280956.1659985.1959515.2287188.300231.4535322.6034317.6806431.904892.2440443.3239365.4890471.6471491.7336979.9706278.053916.0712891.1081963.1423006.162034.2136488.0065298.0086527.0142832.0135298.0248766.0142775-.0111752.0287733-.0245657.0157156-.0410748.0039377-.0769854-.0549212-.1457825-.1196375-.2168293-.1814795-.1306581-.1137295-.2526407-.2368994-.3716402-.3624716-.1675091-.1767607-.3257561-.3614855-.4686613-.5594873-.1965961-.2723904-.3688898-.5592365-.5200882-.8585768C10.6139393 8.8205271 10.5590658 8.7085361 10.5208416 8.5897961z"
		/><path fill="#2ceae1" d="M12.5307894 1.7825594c.0224295.0681957.0774736.1142197.1182537.1694317.1806717.2446077.3650055.4865119.5481739.7292728.002861.0037913.0077782.0060306.0117359.0089934-.088068.0784454-.1819553.1496851-.2749577.2220221-.023262.0067294-.0332394-.0110779-.0437822-.0252118-.2079487-.27878-.4199085-.5545406-.6275539-.8335438-.0113783-.0152876-.0270987-.0313601-.0126886-.0535748C12.3344679 1.9157209 12.4320393 1.8483783 12.5307894 1.7825594z"/><path fill="#48f3ed" d="M14.453022 2.0423515c-.1708117-.2268975-.341527-.4538687-.5124989-.6806462-.0487309-.0646375-.0979223-.1289341-.1475344-.1928978-.01367-.017624-.0241899-.0356199-.0228815-.058676.1078234-.0455906.2160616-.0900315.3299379-.1188189.2210197.3034171.4529514.598654.6752338.9011163.0124378.0169232.0313864.024001.0450182.0383044C14.6978722 1.9679393 14.5754471 2.0051455 14.453022 2.0423515z"/><path fill="#4cf4ef" d="M14.8202972 1.9307333c-.0217476.0027324-.0362158-.0054426-.0499258-.0237925-.2198553-.2942609-.4404821-.5879463-.6613512-.8814483-.0082703-.0109906-.0186434-.0193803-.008975-.0341799.1061974-.0458935.2181187-.0732308.3296919-.1017-.0124426.0236927.0074062.0380552.0181494.0523005C14.667161 1.232672 14.887249 1.5228174 15.107399 1.8129169c.01126.0148396.021245.0296946.022646.0488331C15.0267954 1.8847446 14.9235468 1.907739 14.8202972 1.9307333z"/><path fill="#66fcfa" d="M14.3217592 3.8203526c-1e-6-.059989-29e-7-.1199777-48e-7-.1799667.0477104-.02652.1021748-.0280647.153616-.0394883.4552126-.1010883.9103603-.2024837 1.3659725-.3017716.0065832-.0014343.0125198-.0044355.0184755-.0074122.2666216-1e-6.5332422-19e-7.7998648-26e-7-.0107975.0383835-.0460796.0396669-.0751514.0462058-.1869125.0420442-.3737984.084233-.5609322.1252916-.5337362.1171067-1.0673618.2347231-1.6008377.3530154C14.3900652 3.8234742 14.3563061 3.8428659 14.3217592 3.8203526z"
		/><path fill="#61faf8" d="M14.3217592 3.8203526c.1325731-.0197473.2619038-.0549262.3926535-.0832453.3601685-.0780094.7199316-.1578894 1.0797787-.2373779.2437096-.0538344.4874001-.10776.7308273-.1628549.0461235-.0104392.0962238-.0110354.1346645-.0451634.1966724-26e-7.3933449-5e-6.5900173-74e-7-.003809.0374057-.0366058.0346675-.0601368.0401742-.167057.0390921-.3346767.0757425-.5022449.1125889-.7581205.1667027-1.5160618.3342168-2.2739887.5017929-.0297785.0065842-.060216.0228512-.0915737.0040808C14.3217573 3.907011 14.3217583 3.863682 14.3217592 3.8203526z"/><path fill="#6cfefc" d="M15.8598185 3.2917135c-.0210123.0281706-.0548773.030458-.084239.0370402-.2467327.0553114-.4940071.1082015-.7409678.1625035C14.813489 3.5398779 14.592597 3.5895448 14.371459 3.6380937c-.0159664.0035057-.0331087.0016537-.0497046.0022922-5522e-7-.1032548 1211e-7-.2065396-.0023851-.309747-7849e-7-.0323696.0080013-.0418496.0410662-.0415752.1915932.00159.3832054 5553e-7.5748119 8266e-7C15.2434368 3.2903268 15.5516281 3.2910888 15.8598185 3.2917135z"/><path fill="#08d8cc" d="M16.0897083 5.5596566c.0182343-.0715365.0407791-.141655.0690517-.2098894.0199566-.0171089.0452595-.0203843.0694027-.0257978.3619022-.0811353.7242756-.1601391 1.086504-.2397966.0175381-.0038571.0351124-.0117955.0536194-.0037513-.0227051.0811424-.0485802.1612368-.0793266.2397184-.0237064.021452-.0546169.0238233-.0835438.0300875-.3435268.0743995-.6864529.1514969-1.0295467.2278457-.0178986.003983-.0358295.008563-.0541916.008656C16.1041336 5.5868182 16.0873127 5.5840364 16.0897083 5.5596566z"/><path fill="#5af8f5" d="M14.3234663 4.1202569c-.0059605-.0199142-.0035572-.0400658-.0017071-.0602007.0094957-.0222635.0309944-.0231242.0500898-.0273499.736558-.1629841 1.473218-.3255062 2.2098351-.4882174.3317242-.0732741.6635609-.1460383.995203-.2196772.0373516-.0082932.0759182-.0303264.1153641-.0046597.0045033.022747.0027599.0455928.0011387.0684304-.0141392.0197668-.0366631.0213776-.0575333.026-1.0165138.2251351-2.0331526.4497137-3.0498114.6741951-.047039.0103865-.0950899.0174093-.140131.035944C14.4050961 4.1227694 14.3639345 4.13097 14.3234663 4.1202569z"/><path fill="#17e1d6" d="M16.227438 5.1395874c.0193558-.0747142.043745-.1477633.0725765-.2193427C16.34828 4.89568 16.4024773 4.8948607 16.4538136 4.8831758c.320612-.0729775.6419601-.1426873.9631386-.2131405.0276394-.006063.0573578-.0223913.0854778 989e-6-.0201187.0744109-.0435104.1477404-.0724335.2192426-.0443993.0257421-.095644.0261021-.1437531.0369406-.3209572.0723085-.6425953.1415777-.9636726.2133822C16.2917366 5.1474853 16.2587814 5.164825 16.227438 5.1395874z"/><path fill="#02d2c6" d="M16.0897083 5.5596566c.0088043.0207658.0230026.0163484.0410557.0123143.174284-.0389366.3489571-.076128.523325-.1146889.2034111-.0449848.4066181-.0908914.6099739-.1361265.0079803-.0017753.0165844-7415e-7.0248966-.0010161-.0184765.0715423-.0421162.1413803-.0692997.2100496-.0093689.017067-.0269184.017601-.0429211.0211473-.3616638.080143-.7233906.160008-1.0853863.2386222-.0226879.0049276-.0563679.0318623-.0731335-.0129294C16.0373917 5.7030406 16.0603619 5.6302996 16.0897083 5.5596566z"
		/><path fill="#20e5dc" d="M17.50243 4.6710243c-.1040306.0099964-.2040081.0403252-.305584.0622225-.2793541.0602212-.5580311.1235828-.8371563.1848755-.019125.0042-.0397472.001574-.0596752.0021224.0179882-.0720267.0412846-.1423092.0693798-.2110138.1889477-.0451102.3790264-.0851946.5686417-.1273136.1880398-.0417695.376173-.0831542.5644627-.1237984.0227642-.0049148.0491047-.0192137.0661755.0119348C17.5506802 4.5383911 17.5288029 4.6054487 17.50243 4.6710243z"/><path fill="#0fddd1" d="M16.227438 5.1395874c.0981483-.005024.1913147-.0358768.2863617-.0564284.289072-.0625048.5776024-.1275101.866478-.190927.0159473-.0035005.0331192-.0014381.0497189-.001965-.0152836.0651002-.0377312.1278749-.0617104.1901541-.1048889.0369358-.2149925.0527587-.3227024.077909-.220541.0514975-.4421692.0984073-.663681.1456537C16.307663 5.319819 16.2347794 5.342556 16.1587601 5.3497672 16.1769905 5.2781844 16.2001362 5.2082076 16.227438 5.1395874z"/><path fill="#28e8df" d="M12.2499704 1.999949c.0205936.0653355.0712461.1110535.11026.1636751.1786432.2409527.3604603.479553.5408669.7191997.0091991.0122199.0183392.0236263.032896.0294547-.0435543.0473952-.0907583.0907412-.1428223.128695-.0322113.0049262-.0420799-.0223038-.0560932-.0410411-.1802406-.2409847-.3651896-.47842-.5436068-.7207761-.0207033-.0281222-.042984-.0550499-.0639906-.0828946-.0166178-.0220265-.0371609-.0440989-.0275316-.0762274C12.1488686 2.0786459 12.1908779 2.0286286 12.2499704 1.999949z"
		/><path fill="#29e9e0" d="M17.5686741 4.4700537c-.0407562-.021327-.0779724.0049524-.1146183.0127306-.2744675.0582528-.5480709.1205816-.8219414.1816487-.078886.0175896-.1577816.0351353-.236618.0529461-.0106735.0024114-.0196896.0019259-.0261021-.0081482.0183773-.072011.0412464-.1425452.0695095-.2113051.0267277.0051546.0528488.0010905.0790253-.0045505.3443832-.0742145.6875381-.1540174 1.0320892-.2274675.0289879-.0061793.0579185-.016293.088028-.0053554C17.6184978 4.3315697 17.5958977 4.401577 17.5686741 4.4700537z"/><path fill="#33ece4" d="M17.6380463 4.2605524c-.1354866.0298548-.2709599.0597639-.4064617.0895529-.2503872.0550466-.5008221.1098742-.7511196.1653171-.019392.0042949-.0367184.0099244-.0415611-.0174956.013031-.0624576.0359039-.1216865.059267-.1807556.0974312-.0019031.1895771-.032814.2834511-.0532374.2743282-.0596852.5487404-.1190434.8224659-.1814728.071991-.0164189.0719891-.0165672.0717335-.0923038-496e-7-.0149508-1163e-7-.0299001-82e-6-.0448985-.0015755-.0387061-.0011997-.0773661-3471e-7-.1160469-.0016956-.0463374-.001112-.0926514-57e-7-.138973-.001749-.0532196-.0015068-.1064312-1354e-7-.1596513.0025291-.0469062-.0117455-.095377.0129871-.1402128-57e-7-.0233245-95e-7-.0466483-172e-7-.0699728-.006134-.0095387-.0068893-.0186846.0019798-.0271292.0147057.0155818.0067863.0347188.0068302.051903 5341e-7.2089643-.0035419.4180226.0016232.6268578C17.7011948 4.0748301 17.6746426 4.1678543 17.6380463 4.2605524z"
		/><path fill="#5df9f6" d="M14.3217564 3.9503405c.2341661-.0509093.4684086-.1014693.7024794-.1528094.3600245-.0789652.7199707-.1582892 1.0798731-.2377987.2437496-.0538483.4874153-.108072.7310276-.1625311.1258163-.0281253.2513752-.0573969.3772202-.0853825.0149879-.0033329.0297794-.0042303.037344-.0201151.0999966 31e-7.1999931 6e-6.2999916 88e-7-.0075817.0420833-.0452137.0394061-.0734806.045815-.1461105.0331287-.2926483.0643845-.4388981.0969369-.7101154.1580591-1.4208632.3132615-2.1310062.4711964-.1738758.0386698-.3479052.0766771-.5218782.1149194-.0203943.0044832-.0418835.0138087-.0626698-2465e-7C14.3217583 3.9970026 14.3217573 3.9736714 14.3217564 3.9503405z"/><path fill="#007270" d="M16.6985035 7.120204c-.1577892.0362964-.315382.0734687-.4734154.1086793-.2210674.0492549-.4424086.0972767-.6637897.1451058-.0219555.0047431-.0494967.0222049-.0619535-.0154171.0074778-.0414586.0204191-.0811234.038888-.1189814.0104494-.0140748.0246677-.0204382.0417719-.0241017.3605928-.07723.7201548-.1591582 1.0806704-.2367339.0262299-.0056429.054409-.0205541.0808029.0016708C16.7271538 7.0270185 16.7128277 7.0736108 16.6985035 7.120204z"/><path fill="#28e8df" d="M12.0999489 2.1200342c.03971.0945845.1136236.1655478.1728745.2463148.1572056.2142944.319066.425173.4789734.6374869.0110626.014689.0224981.0287311.0393744.0371375-.02493.0425024-.0730619.061125-.10221.0992875-.0604868-.0527194-.099781-.1226087-.1477413-.1852252-.1736002-.2266533-.3438139-.4559007-.5172024-.6827183-.0185318-.024241-.0257807-.0438688-.0135469-.0707324C12.0324001 2.1657386 12.0718155 2.149075 12.0999489 2.1200342z"/><path fill="#40f1ea" d="M17.6883488 3.8301864c324e-7.0400062 629e-7.0800128 935e-7.120019-.0151577.0151682-.0356808.0170536-.0549107.021419-.3355312.0761623-.6719036.1485205-1.0078983.2225852-.0281391.0062027-.0581627.0194659-.0856476-.0038781.002737-.0112095.0048618-.022613.0083408-.0335875.0067959-.0214343 4654e-7-.0316496-.0229626-.0301833-.0132771 8311e-7-.0266495 806e-7-.039978 83e-6-.7014551 1135e-7-1.4029102 3099e-7-2.1043644-601e-7-.0190687-1e-5-.0397444.0076246-.0575562-.0063291.0424242-5889e-7.0848465-.0011797.1272697-.001771.0297651-.012022.0611944-.0135603.0926161-.01371.1753826-8354e-7.3507662-.00143.5261478 911e-7.2474327-5889e-7.4948664-.0013113.7422447-3891e-7.1944704.0027537.3894224.0082779.5833521-.0025654.094347-.0052748.1871662-.0428505.2811775-.0638595.3180599-.0710762.6366253-.1398387.9547844-.2104514C17.6501751 3.8233564 17.6698914 3.8155262 17.6883488 3.8301864z"
		/><path fill="#3befe8" d="M16.5399857 4.1903315c.1049061-.0047116.2043037-.0380244.3057785-.0600219.2679214-.0580769.5352993-.1186457.8029861-.1778023.0127831-.002825.0264549-.0016248.0397015-.0023007.0052586.1235697.005764.125807-.1134834.1527216-.338419.0763841-.6772003.1511889-1.0162411.2247601-.0180378.0039139-.046011.0231647-.0605564-.0105157C16.5077877 4.2734671 16.5212822 4.231041 16.5399857 4.1903315z"/><path fill="#007876" d="M16.741478 6.9804258c-.1183224.0131412-.2326965.0459948-.3485508.0711064-.2642345.0572739-.5278053.1176033-.7917452.1762452-.0207806.0046163-.0432749 6361e-7-.0629358.0118146.0067091-.045558.0228386-.0880847.0417776-.129705.1497164-.038765.3012762-.0694737.4523058-.1023798.2258511-.0492077.4511261-.1010275.6773338-.1485634.0232773-.0048928.0481529-.017549.0715828.0013804C16.7733402 6.9021292 16.7602024 6.9422021 16.741478 6.9804258z"/><path fill="#009790" d="M15.7089949 6.7186384c.0069714-.0423012.0216722-.0820718.0395393-.1208072.0825033-.0018983.1604204-.0285988.2400045-.0455804.2964458-.0632582.5920906-.130209.8880291-.195797.0238361-.0052819.0484886-.0162077.071373.0034075-.0088215.0414524-.0232143.0810652-.0396328.1200094-.009922.0100698-.0229549.0126524-.036068.0155578-.3643303.0807309-.7289581.1601071-1.0932741.2409062C15.7554674 6.7415466 15.7232571 6.7594242 15.7089949 6.7186384z"/><path fill="#00bcb1" d="M17.1184025 5.8400087c-.0089207.0414233-.0230217.08113-.0397415.1199698-.0087719.0084772-.0197849.0114112-.0314083.0137858-.3569031.0729113-.7114258.1566987-1.0674744.2335186-.021142.0045614-.0421638.0107107-.0637188.0116739-.0148077 6614e-7-.0354977.0072317-.0365849-.0196762.006011-.0425787.0221643-.0818353.0395422-.1206908.241786-.0397019.478919-.1013484.7182436-.1526327.1400604-.0300121.2796459-.0622573.4197636-.0920248C17.0778542 5.8295083 17.0995445 5.8219995 17.1184025 5.8400087z"
		/><path fill="#5cf9f5" d="M14.3217592 4.0203338c.2388124-.0531828.4775763-.1065803.7164497-.1594858.2211304-.0489759.4423485-.0975602.6635799-.1460741.3584967-.0786142.7171068-.156708 1.075532-.2356436.2373447-.0522692.4744835-.1054635.7115955-.1587656.0219688-.0049386.046936-.0055819.0607758-.0286522.0468616-.0021429.0937271-.0048189.1405029.0015571-6447e-7.0090466-.001297.01809-.0019608.027133-.1009941.0088842-.1977844.0387051-.2961788.0601926-.382885.0836143-.7653866.1689668-1.1481304.2532265-.4359808.0959783-.872159.1910615-1.3080654.2873716-.2049236.0452762-.4094133.0925138-.6141005.1388628C14.3217592 4.0468149 14.3217592 4.0335746 14.3217592 4.0203338z"/><path fill="#00ccc0" d="M16.018219 5.777029c.0222187.0273471.0482903.0047956.0685959 4334e-7.2748222-.0590501.5489178-.1214623.8233776-.1822171.1029129-.0227814.2062988-.0434337.3094673-.0650563-.0059261.0349264-.0179462.0679202-.0318317.1003208-.0117989.0236306-.0340786.0294747-.0572853.0347486-.3634644.0826101-.7280521.1601415-1.091732.2417779-.0208321.0046763-.0426807.0110064-.0610533-.0074716C15.985075 5.8566828 16.0003414 5.8164248 16.018219 5.777029z"/><path fill="#00908a" d="M15.7089949 6.7186384c.0502958.0314541.0972967-.0029373.142622-.0125928.3346739-.071301.6682405-.1478109 1.0022764-.2221322.0175705-.0039091.0362568-.00281.0544186-.0040426-.0027752.0402751-.033432.0707226-.0388031.1100817-.0468388.0285392-.1011734.031158-.1526508.0422807-.3266697.0705757-.6518841.1477695-.9793167.2147617-.0214214.0043826-.0493879.0261898-.0681753-.0078769C15.6759377 6.7967749 15.6907406 6.7571387 15.7089949 6.7186384z"/><path fill="#00a098" d="M16.9479408 6.3598614c-.0764542.0046082-.1493053.0282922-.2233963.0443778-.3052464.0662766-.6096821.1362767-.9148521.202909-.0181046.003952-.0456505.0232754-.0611506-.0093083.0051441-.0310054.0149336-.0604987.0287533-.0886846.0176592-.0169001.0401077-.0218883.0630913-.0268784.3475084-.0754519.6941977-.1546268 1.0419188-.2290835.0323563-.0069284.0662518-.0274196.1001244-.0024128C16.9709339 6.2871404 16.9594364 6.3235016 16.9479408 6.3598614z"/><path fill="#00b3a9" d="M15.8794746 6.1992807c.0268393.0261755.0554037.0028696.0794296-.0023379.3359375-.072824.6711349-.1490374 1.0067177-.2235069.0369434-.0081983.0743237-.0178323.113039-.0134573-.0054302.0315671-.0160332.0614333-.0296974.0902929-.0193539.0313692-.0539055.0307918-.0836639.0374198-.2986412.0665131-.5975609.1317863-.8962364.1981587-.0551796.0122619-.109868.0275378-.1658535.0349765-.0218229.0029001-.0563669.0137835-.0534639-.031395C15.8548794 6.2578063 15.8637247 6.2274055 15.8794746 6.1992807z"
		/><path fill="#00c7bb" d="M15.9777575 5.8995647c.0786924-.0016184.1528521-.0278983.2286444-.0440965.3123074-.0667486.62393-.1366925.9356747-.2060461.0158691-.00353.030529-.0124841.0457516-.0189128-.0092621.0376911-.0196266.075006-.0375214.1097455-.0160332.0165663-.0373325.0205016-.0586147.0251021-.3530369.0763159-.7052937.1561971-1.0581551.233314-.0195065.0042624-.03899.0098605-.0590258.0094194-.0121679-2675e-7-.0288639.0016737-.0256996-.0199332C15.9539928 5.9571667 15.9635735 5.9276142 15.9777575 5.8995647z"
		/><path fill="#00c2b6" d="M15.9488115 5.9881573c.0229073.0252352.0484352.0035887.0690565-8726e-7.3050652-.0659981.6094589-.1350837.9141693-.2027335.0724621-.0160885.1454983-.0296001.2182693-.0442967-.0049248.0350776-.017807.0676103-.0319023.0997543-.1069813.0126071-.210722.0412803-.3155823.0642228-.2777576.0607686-.5552273.1228523-.8329535.1837645-.0170889.0037475-.0366278.0081997-.0508509-.0094047C15.9211893 6.0458894 15.9340343 6.0167055 15.9488115 5.9881573z"/><path fill="#00a69d" d="M16.9824295 6.2507806c-.0926533.0072784-.181242.0353007-.2714539.0545554-.3115311.066494-.6224861.1356692-.933671.2038212.00774-.0340929.0170164-.0676799.0327568-.0991302.0138731-.0133762.0317135-.0174761.0496883-.0213346.3723021-.0799003.7432814-.1658006 1.1156893-.245213.0143948-.0030694.0286217-.0098929.0437965-.0033407C17.0111294 6.1784039 16.9989262 6.2153063 16.9824295 6.2507806z"
		/><path fill="#008883" d="M15.6693659 6.839118c.0865393.0015965.1679087-.0270314.2507954-.0450211.3035288-.0658755.6063967-.1347909.9096079-.202136.0127678-.0028358.026474-.0014353.0397415-.0020084-.0063972.0359488-.010807.0726604-.0385609.1004086-.0762959.0301528-.1578007.0392823-.2369785.0573955-.2890129.0661101-.5789757.1280231-.8683443.192574-.0178709.0039873-.035799.0089755-.0541296.0089593-.0137939-124e-7-.0315781.0030293-.0319233-.0199313C15.6441145 6.8974991 15.6534767 6.8672318 15.6693659 6.839118z"
		/><path fill="#00aea4" d="M17.0192356 6.1401386c-.0857582.0374503-.1790752.045517-.2688007.0668492-.2235756.0531564-.448431.1010761-.6733322.1484303-.0888796.018714-.1762781.0450511-.2670412.0546088.0082455-.0418367.020628-.0823131.0396852-.1205935.012002.0371141.0424547.0217428.0627642.0172815.3341856-.0734143.6679258-.1488566 1.0019636-.2229538.0451736-.0100198.0907726-.0178323.1344891-.0334911C17.0432835 6.0816259 17.0329399 6.1114383 17.0192356 6.1401386z"/><path fill="#007e7a" d="M16.7812462 6.8603244c-.1451931.030807-.290556.0608387-.4355412.0925941-.2465343.0539966-.492837.1090379-.7391949.163835-.0104828.0023313-.019619.0030479-.0264864-.0068665.0013657-.0329084.0136662-.0622077.0297966-.090241.1460028-.0395637.2944756-.0684419.4420366-.1011386.2206402-.0488911.441391-.0972886.6621017-.1458607.0311184-.0068479.063448-.0248022.095993-.002687C16.8076935 6.8024035 16.796133 6.831892 16.7812462 6.8603244z"/><path fill="#00837f" d="M16.8099518 6.7699599c-.1017532.0123072-.2002888.0404563-.3000603.0621943-.2915401.063518-.5825405.1295118-.8737125.1947117-.0105371.0023599-.019619.0027146-.0263567-.0072188.0016108-.0328336.0139561-.0621281.0297537-.0902863.0268517.0258389.0552921.0026879.0793076-.002511.3351688-.0725489.6696072-.1484728 1.004425-.2226563.0351925-.0077982.0705528-.0187798.1076374-.013834C16.8320179 6.7190218 16.8135223 6.7425232 16.8099518 6.7699599z"/><path fill="#00c8bc" d="M10.1894751 5.429049c.0029602.0386982-.0013552.0760942-.0198517.1109562C10.1725292 5.502357 10.1747904 5.4645915 10.1894751 5.429049z"/><path fill="#00c8bc" d="M10.1609631 5.6014447c-.0058508.0224295.0115166.0496082-.0139294.0680318C10.1610174 5.6487155 10.1434793 5.6214929 10.1609631 5.6014447z"/><path fill="#07d7cb" d="M10.6788559 3.9458947c5341e-7.0231974-.0078249.0418749-.0277834.0546575C10.6550455 3.9796448 10.6647635 3.9616582 10.6788559 3.9458947z"/><path fill="#51f6f1" d="M14.9697924.7697397c-.0170269.02017-.0400171.0075645-.0601006.010936C14.9271345.762796 14.950161.7755951 14.9697924.7697397z"/><path fill="#00c8bc" d="M10.1699228 5.5395207c-.0019503.0203648.0075407.0422602-.0081348.0607877C10.165947 5.5802388 10.1542273 5.5580459 10.1699228 5.5395207z"/><path fill="#00c8bc" d="M10.2001934 5.3797827c-.0025921.0169482.0078316.0368161-.0112371.0500741C10.1937943 5.413414 10.1832047 5.3935027 10.2001934 5.3797827z"/><path fill="#00b4aa" d="M10.1884069 7.4602757c.0199842.0128207.0090294.0329728.0118189.0498686C10.1832933 7.4966006 10.1940136 7.4765038 10.1884069 7.4602757z"/><path fill="#56f7f3" d="M15.0705395 4.1185827c-.2066078-248e-7-.4132147-501e-7-.619813-873e-7.039856-.0396209.0952787-.0346427.1435013-.0457129.2786903-.0639806.5584955-.1230936.83778-.1845067.4213104-.0926437.842536-.1856842 1.2637377-.2788255.2727757-.0603194.5454292-.1211939.8181763-.1816466.0580273-.012861.1162243-.0249722.1743298-.0374289-38e-7.046623 38e-7.0932467 114e-7.1398699-.0529728.0312948-.1140289.0345731-.1718903.0473149-.7895679.1738746-1.5789232.3487062-2.3683233.5233319C15.1221876 4.1066122 15.0950489 4.106936 15.0705395 4.1185827z"/><path fill="#4ef5f0" d="M15.0705395 4.1185827c.024189-.0309806.0622549-.0292983.0947495-.0366163.2498903-.0562763.5003281-.1101177.7505274-.16503.3599405-.0789981.719861-.1580954 1.0797167-.2374773.2130451-.0469961.4260311-.094274.6387787-.1425848.0181484-.0041211.0357685-.0061548.0539646-.0066283 76e-7.0533566 305e-7.1067142 515e-7.1600721-.0137901.0197988-.0357037.0226183-.0567913.0272779-.4756317.1050985-.9511681.2106192-1.4269123.3152075-.1281528.028173-.2565079.0554538-.3841572.0858822C15.5704908 4.1186514 15.3205147 4.1186171 15.0705395 4.1185827z"/><path fill="#46f3ed" d="M15.820467 4.1186857c.0223274-.0306606.0591002-.0288939.0898523-.0358176.2759027-.062119.5523252-.1219149.828599-.1823795.3069592-.0671804.6139259-.134326.9208622-.2016158.0096817-.0021231.0190544-.0056722.0285587-.0085554 38e-7.0466247 172e-7.0932484 21e-6.1398709-.2178059.047744-.4356995.0950441-.6533642.1433718-.1854248.0411699-.3714943.080014-.5553341.127423-.0573978.014802-.1129227.019197-.1703415.0191255C16.1463699 4.119905 15.9834185 4.1191959 15.820467 4.1186857z"/></g></svg>