<svg id="Слой_1" xmlns="http://www.w3.org/2000/svg" xmlns:xlink="http://www.w3.org/1999/xlink" viewBox="0 0 32 13" enable-background="new 0 0 32 13" width="32" height="13"><g><path fill="#292929" d="M16.2554073 12.8082161c-.1703014 1e-6-.3406019 38e-7-.5109034 67e-7-.0478544-.0065031-.0957603-.0080976-.1433821.0011911-.0133524.0026045-.0264034.0035696-.0395594.0014486-.1204433-.0194178-.2431116-.0179262-.3634119-.0363455-.2104187-.032218-.4205084-.0671492-.6283131-.1139088-.1103859-.0248375-.2209826-.0492163-.3289394-.0837603l.0011511 7706e-7c-.0239592-.0061588-.0488253-.0091248-.0713673-.0202742l.0010509 6256e-7c-.0234079-.0076942-.0488844-.0084782-.0707903-.0211878l.001153 7763e-7c-.0568361-.0073328-.1070976-.0362501-.1621685-.0493813-.0299082-.0096579-.0598164-.0193148-.0897236-.0289736-.0333176-.0225735-.0793343-.0098944-.1100674-.0396433-.0100737-.0037689-.0229321 6809e-7-.0305452-.0103493-.0157518-.0083055-.0349569-.0078707-.0493898-.019515-.1216307-.0401011-.2382717-.092701-.3554239-.1437645-.0686274-.0299101-.1350327-.0649109-.2024384-.097621-.0156231-.0023317-.029212-.0093775-.0420561-.0181475-.0140429-.0068483-.0280848-.0136948-.0421276-.0205421-.0216112-.0053806-.0426321-.0119123-.0579557-.0296011-.2062626-.1081924-.4073505-.225379-.6022577-.3527927-.1513882-.0989647-.2998552-.2023115-.4393768-.3178444-.0126629-.0098534-.0238066-.0216885-.0382042-.0292778-.2389555-.1884737-.461031-.3957109-.6688051-.6174793-.1732626-.1849318-.3380442-.3773022-.4884987-.5822573-.1149445-.1565838-.2231007-.3174248-.3247871-.4822721C10.326932 9.5824461 10.2634125 9.461545 10.1983395 9.341857c-.0810823-.1491365-.1524763-.302577-.2177925-.4586496C9.9152603 8.7272062 9.8575211 8.5681572 9.8027277 8.4078274c-.0625496-.1830206-.1131048-.3692932-.15874-.556386C9.6132765 7.7255321 9.5918503 7.5963645 9.5705805 7.4677229c-.0181007-.1094699-.0264111-.2202682-.04848-.3291645C9.517087 7.1138196 9.5250196 7.0859914 9.518815 7.0597973 9.5105181 7.0396781 9.5212765 7.0172729 9.511323 6.9973526 9.5105152 6.9815097 9.5097075 6.9656672 9.5088997 6.9498243 9.5004282 6.9256096 9.5110865 6.8994966 9.5015135 6.875391c-8955e-7-.0251832-.00179-.0503669-.0026855-.0755501C9.4894753 6.7623525 9.5023222 6.7234311 9.4914808 6.6860385 9.491478 6.5254006 9.4914751 6.3647628 9.4914722 6.2041249c.0108576-.037396-.0020018-.076324.0073557-.1138177C9.4997215 6.0651231 9.5006151 6.039938 9.5015097 6.0147538c.0095816-.0241041-.0010843-.0502176.00739-.0744314 8068e-7-.0158443.0016146-.0316882.0024214-.0475321.0099573-.019918-8039e-7-.0423222.007494-.0624394C9.5294113 5.7290325 9.5345659 5.6267743 9.551878 5.5266161c.0262413-.151823.0525951-.3036594.087677-.4540839.0433931-.1860609.0920668-.3701563.1505642-.5520687.0552902-.1719398.1158342-.3421087.1872816-.5074906.068325-.1581566.1393442-.3153193.2224054-.4673123.1216316-.2225709.2472057-.4424019.3915358-.6508293.1254654-.1811883.2592173-.3557842.403595-.5232787.1590862-.1845555.325531-.3612673.501935-.5284903.1397734-.1324974.2844286-.2601035.4406424-.3736652.0118876-.008642.0219593-.0197811.0328751-.029759.0147743-.0071299.025692-.0194432.0387716-.0288498.1554966-.1191828.3156166-.2323102.4828339-.3338947.4818783-.2927452.9901056-.5290104 1.5293617-.6963905.7040977-.218545 1.4250965-.3197985 2.1616096-.2968613 1.28438.0399994 2.4634895.4123949 3.5290127 1.1350365.0927773.0629227.1837044.1285757.2754898.1929601.0161896.0074188.0290718.0191356.0412769.0317359.0123768.0179666.0289612.0304685.0493736.0379968.0152931.0086342.0292053.018976.0403957.0326838.1038494.0950264.2144547.1821796.3183899.2773128.1364384.124885.2672424.2553245.3936996.3898047.1519814.1616235.2926712.3332269.425457.5112417.2456589.3293381.4593525.6780405.6366844 1.0486708.201004.4201078.3561573.8561525.4577732 1.3113222.0527325.2362146.0955219.4736366.1192474.7144933.0021.0213208.007473.0423203.0113277.063468.0083313.0200658-.0025215.0424471.0075207.0623059 7973e-7.0158892.0015945.0317774.0023937.0476661.0084743.0242014-.0021858.0502996.0073757.0743937 8926e-7.0251951.0017853.0503902.0026798.0755858.009407.0374236-.0035095.0762939.0073624.1136222 38e-7.1607428 95e-7.3214865 134e-7.4822292-.0108967.0373378.0020351.0762224-.0073757.1136565-8926e-7.0251918-.0017815.050384-.0026722.0755754-.0095711.0241013.0010853.0502086-.0073738.07442-8011e-7.0158834-.0016003.0317669-.0023994.0476499-.0100441.0198646 8049e-7.0422516-.0075245.062324-.0407467.3333011-.0937042.6642275-.1812096.9891105-.1203003.4466372-.2850914.8757267-.5000305 1.2853403-.1864166.3552551-.4046669.6894798-.6532211 1.0048809-.2072754.2630186-.4371471.5042648-.6801567.7333355-.1119308.1055098-.2317295.2026749-.3479576.3036251-.0111923.0137138-.0251102.0240593-.040411.0326958-.0990353.0714054-.197773.1432276-.2971649.2141342-.2414627.1722565-.4957485.3231497-.7594662.4588156-.2119713.1090441-.4291248.2059145-.6518822.2905188-.0106354.0040417-.0199547.011549-.0298862.0174427-.0159283.0120039-.0354137.0135288-.0538063.0182743-.0117016-.002882-.0179119.0066175-.0261288.01159-.032896.0288906-.0782757.020442-.1148338.0383816-.029213.0075703-.0587807.0141449-.0849628.0302353-.0550709.013134-.1053371.0420513-.1621761.0493774l.0011654-7792e-7c-.0219002.0127239-.0473843.0134869-.0707817.0212059l.0010529-6132e-7c-.0225563.0110941-.047411.0140972-.0713673.0202608l.0011559-7591e-7c-.1622086.0485296-.327507.0837984-.4932098.1180086-.0972881.0200872-.1955395.0351152-.2930031.0538216-.0654259.012558-.1331577.0230675-.2007561.0269499-.0393047.0022583-.0784092.0081511-.1174927.0116987-.1132088.0102768-.2257061.0262442-.3398952.0170584C16.295126 12.8028336 16.2747383 12.800705 16.2554073 12.8082161z"/><path fill="#fefefe" d="M16.2554073 12.8082161c.1175003-.0091257.235075-.0174007.3524895-.0275326.3764992-.0324869.7470112-.0991554 1.1121044-.196413.0127583-.0033979.0260029-.0049706.0390244-.0073967-.029808.0279293-.0702095.024888-.1057816.0357056-.1500435.0456305-.3052559.0699844-.4574642.1068354-.0598221.0144825-.1239853.0178938-.1854553.0331764-.0155048.0038548-.0204277.0130711-.0303955.0196447-.0107822.0071125-.0240631.020792-.0354176.0119505-.0477734-.0372019-.0829754 6151e-7-.1261654.0102777-.0385914.0086317-.0857334.0259943-.1186886.018795-.0343304-.0074978-.0543938-.01402-.0777702.0130796-.0024643.0028563-.0106831.0040913-.0141602.0022221-.0462456-.024868-.0867329-.0210218-.1330109.0079594-.0220184.0137882-.0580788.002429-.0880184-.0172834C16.3481941 12.7938786 16.299305 12.814661 16.2554073 12.8082161z"
		/><path fill="#fefefe" d="M14.2408981 12.576848c.1697922.0386438.3382711.0826664.5097027.1145773.3125906.0581875.6271343.0973616.9449072.1101418.0163765 659e-6.032629.0043583.0489683.006649-.0543327.0060577-.1095247-.0087757-.1629896.0255356-.0255041.0163689-.0719404.0190048-.0986872-.0191374-.0139275-.0198622-.0288925-.0193453-.0451527-.0027428-.0034208.0034904-.0078392.0060797-.0120144.0087452-.0401764.0256233-.0675726-.0273504-.0879984-.0223207-.0307302.0075655-.0542059.0367289-.0830603-.0013256-.0049057-.0064697-.0129623-.0187473-.0177832-.0133762-.0500479.0557814-.0827351-.0275955-.1269398-.0151501-.0031309 8821e-7-.0099726-.0079565-.011919-.0068264-.0867577.0504398-.1521149-.0315371-.2310143-.0394888-.1960268-.0197554-.3868942-.0749016-.5781889-.1232376C14.2716827 12.5945854 14.25214 12.5943251 14.2408981 12.576848z"
		/><path fill="#fefefe" d="M18.1449394 12.457942c.0366268-.0177317.0746536-.0312834.1148338-.0383816.0038452.0334616-.0118866.0491552-.0426445.0362206C18.1909046 12.4447498 18.1689739 12.4644327 18.1449394 12.457942z"/><path fill="#fefefe" d="M13.7401361 12.4195604c.0387363.0075331.0766678.0172987.1100674.0396433-.0255117-1793e-7-.0492153-.0116425-.076992-.0018301C13.7431383 12.4679985 13.7384491 12.4436255 13.7401361 12.4195604z"/><path fill="#fefefe" d="M13.9399271 12.4881754c.056138.0096169.1093798.0287399.1621628.0493879C14.0390673 12.5505581 13.9936142 12.505847 13.9399271 12.4881754z"/><path fill="#fefefe" d="M17.8978004 12.5375547c.0527954-.0206108.1060314-.0397682.1621761-.0493774C18.0062866 12.5058451 17.9608345 12.5505714 17.8978004 12.5375547z"/><path fill="#fefefe" d="M12.9601994 12.08002c.0230865.002491.0426235.0119314.0579557.0296011C12.9868879 12.1231461 12.9575405 12.1329088 12.9601994 12.08002z"/><path fill="#fcfcfc" d="M22.5084267 6.2039418c-.009758-.0374012-.0080318-.0755463-.0073624-.1136222C22.5181351 6.1272464 22.5065689 6.1660295 22.5084267 6.2039418z"/><path fill="#fcfcfc" d="M9.4988279 6.0903072C9.4994383 6.1284294 9.5013256 6.1666341 9.4914742 6.204103 9.4932985 6.1661453 9.481823 6.1273065 9.4988279 6.0903072z"/><path fill="#fcfcfc" d="M9.4914808 6.6860385C9.501298 6.7234969 9.4994411 6.7617092 9.4988279 6.7998409 9.4818316 6.762846 9.4932871 6.7240138 9.4914808 6.6860385z"/><path fill="#fcfcfc" d="M22.5010643 6.7998276c-6657e-7-.038075-.0024052-.07622.0073757-.113637C22.5065517 6.7240934 22.5181446 6.7628908 22.5010643 6.7998276z"/><path fill="#fefefe" d="M18.285902 12.4079704c.0165539-.0101595.0336781-.0186424.0538063-.0182743C18.3287296 12.4162722 18.3083305 12.4151068 18.285902 12.4079704z"/><path fill="#fefefe" d="M13.6602011 12.3896961c.0188065 5779e-7.0362034.0047169.0493898.019515C13.6871967 12.417717 13.670269 12.4123869 13.6602011 12.3896961z"/><path fill="#fefefe" d="M17.8281841 12.5579815c.021946-.012557.046011-.0180531.0707798-.0212002C17.8795166 12.5576763 17.8546181 12.5603924 17.8281841 12.5579815z"/><path fill="#fefefe" d="M14.170682 12.5573444c.0250063.0024633.0491381.0080042.0713596.0202789C14.2153969 12.5809355 14.1907187 12.5773048 14.170682 12.5573444z"/><path fill="#fefefe" d="M17.7578697 12.5776291c.0222969-.0120039.0463181-.0179386.0713673-.0202579C17.8091888 12.5772963 17.7845154 12.5809355 17.7578697 12.5776291z"/><path fill="#fefefe" d="M14.1009426 12.5367823c.0247583.0031719.0488434.0085974.0707855.0211916C14.1452923 12.5604067 14.1204004 12.5576735 14.1009426 12.5367823z"/><path fill="#fcfcfc" d="M22.4910183 6.9498229c-8621e-7-.0251184-.0025196-.0503163.0073719-.0743947C22.4967861 6.9002938 22.5074081 6.9263973 22.4910183 6.9498229z"/><path fill="#fcfcfc" d="M9.5088997 5.9403224c864e-6.0251241.0025692.0503306-.0073843.0744061C9.50313 5.9898601 9.4925146 5.9637508 9.5088997 5.9403224z"/><path fill="#fcfcfc" d="M22.4983845 6.0147338c-.009882-.0240622-.0082188-.0492687-.0073757-.0743937C22.5074177 5.9637547 22.4967861 5.9898505 22.4983845 6.0147338z"/><path fill="#fcfcfc" d="M9.5015135 6.875391c.0099554.0240674.0082483.0492921.0073862.0744333C9.4925146 6.9263945 9.5031281 6.9002862 9.5015135 6.875391z"/><path fill="#fcfcfc" d="M22.4810944 7.0597968c-.0013275-.021235-.001152-.0422873.0075245-.0623183C22.4873047 7.0183916 22.4964333 7.0405707 22.4810944 7.0597968z"/><path fill="#fcfcfc" d="M11.8803606 11.380105c.0186186.0020819.0303993.0130863.0382042.0292778C11.8993759 11.4080439 11.8891783 11.3949747 11.8803606 11.380105z"/><path fill="#fcfcfc" d="M20.0781078 11.4087849c.0134697-.0108976.0269394-.0217972.040411-.0326958C20.1125641 11.3962755 20.1001549 11.4084854 20.0781078 11.4087849z"/><path fill="#fefefe" d="M13.0602827 12.1301632c.0173359-.0016384.029727.0081844.0420561.0181475C13.0799646 12.1616211 13.0699778 12.1462307 13.0602827 12.1301632z"/><path fill="#fcfcfc" d="M22.488615 5.892674c-.0086708-.0200243-.0088463-.0410748-.0075207-.0623059C22.496439 5.849587 22.4873047 5.8717608 22.488615 5.892674z"/><path fill="#fcfcfc" d="M9.518815 5.8303509c.0013409.0212703.0012188.0423646-.007494.0624337C9.5126076 5.8718319 9.5034704 5.8496227 9.518815 5.8303509z"/><path fill="#fcfcfc" d="M20.118515 1.5140547c-.0134659-.0108945-.0269318-.0217892-.0403957-.0326838C20.1001606 1.481665 20.1125622 1.493875 20.118515 1.5140547z"/><path fill="#fcfcfc" d="M20.0287457 1.4433743c-.0137577-.0105786-.0275173-.0211574-.0412769-.0317361C20.0097561 1.4111264 20.0219688 1.423717 20.0287457 1.4433743z"/><path fill="#fcfcfc" d="M9.511323 6.9973526C9.5200462 7.0174208 9.5201225 7.0385261 9.518815 7.0597973 9.5034704 7.0405235 9.5126066 7.0183134 9.511323 6.9973526z"/><path fill="#fcfcfc" d="M12.009161 1.4107881c-.0076437.0167122-.0204563.0264779-.0387716.0288497C11.9795237 1.4249289 11.9897909 1.4117422 12.009161 1.4107881z"/><path fill="#818181" d="M21.820776 5.4808111c.0243931.0875368.0275917.178278.0398865.2676067.0424576.3084111.044014.6187639.0379448.9290838-.0032978.1685019-.0273743.3356366-.0442448.5032835-.0227528.2260761-.0704842.4468327-.1264687.665699-.0855236.3343611-.2017174.658185-.3456287.9725962-.1171932.2560349-.2566357.4993811-.4092178.7346182-.1268883.1956244-.2661114.3830376-.4195518.5602207-.1537571.1775494-.3169041.3454571-.4852982.5083408-.0951672.0920534-.1993923.1747332-.2994156.261776-.0289249.0251722-.0472527.0221472-.0732536-.0106573-.2428989-.3064404-.4878235-.6112795-.733469-.9155264-.0191994-.023778-.0147629-.0344868.0060844-.0504742.1747494-.1340237.3323212-.2872314.4823818-.4473801.1911125-.2039614.3611317-.4246387.511385-.6613369.2144012-.3377552.3834095-.6955557.5026951-1.0771427.0778141-.2489171.1325245-.5024376.1679115-.7611761.0368652-.269526.0418816-.5398345.0341206-.8103366-.0034027-.1184902-.011385-.2381506-.0328121-.3557968-.002636-.0144744-.0010586-.0297155-.0014343-.0446019.0292816-.033608.0727482-.0298514.1100426-.0380254.3495121-.0766039.6997032-.1500988 1.0488682-.2283282C21.8011684 5.4810424 21.8107548 5.4793191 21.820776 5.4808111z"/><path fill="#3fcfe6" d="M17.8798046.9915715c.0984154.0124509.1830578.0645618.2750645.0954341.1714191.057518.3377113.1280755.4984112.2099645.1763172.0898458.3527451.1803889.5171909.2916796.1097984.1528163.2240124.3023555.3376198.4523139.2454548.3239911.489851.648777.7347755.973166.4015198.5317936.8036003 1.0631666 1.2044296 1.5954819.066124.0878177.132391.1755619.1992836.2628098.0128822.0168014.0223675.0373559.0435009.0466957.041441.0967278.0570755.2004924.0805588.3019419.0190773.082418.0317516.1663156.0472679.2495575-.029871.0188851-.0649586.0201993-.0978069.0290637-.0205517.0039063-.0419884.0027609-.0617886.0109639-.0956249.0237026-.1922989.0423384-.2891006.0601511-.0501957.0046873-.0793324-.0260382-.1061897-.0621185-.2208366-.296658-.4449329-.5908699-.6676083-.8861461-.397192-.5266953-.7950001-1.0529277-1.1922665-1.5795686-.2427673-.3218257-.4856472-.6435683-.7286835-.965193-.2560863-.3389024-.5126152-.677472-.7672195-1.0174916C17.8924828 1.0405632 17.8664188 1.0233569 17.8798046.9915715z"
		/><path fill="#81a7ef" d="M10.2861166 7.9009628c-.0618877-.2351723-.1131248-.4722967-.1401167-.7144599-.0147896-.1326857-.0346413-.26477-.0363989-.3986311-1678e-7-.012795-.0048637-.0255303-.0074577-.0382934.0076447-.0311847.0012465-.0628877.0035448-.0942578 6742e-7-.0092068-.0042553-.0215602.0083294-.0257583.0104618-.0034914.0189743.0041819.0267458.0103736.0184183.0146747.0324335.0333309.0463991.052053.2399588.3217111.4824429.6415277.7243509.9617667.3994884.5288415.7985773 1.057982 1.1978102 1.5870156.230711.3057194.462781.6104155.6918869.9173431.0142307.0190659.0370617.0353518.0305252.0647326-.0727854.0930195-.1385651.1928759-.2205782.2768869-.0650902.066678-.1150198.1448488-.1808872.2097988-.0239439-.0049477-.0338964-.0255537-.046731-.0425043-.2855282-.3770905-.5701265-.7548828-.8550596-1.1324215-.3952942-.5237684-.7915249-1.0468302-1.1857519-1.5714025C10.3257866 7.9406629 10.3074741 7.9194493 10.2861166 7.9009628z"
		/><path fill="#7da9ee" d="M12.8317356 10.222847c-.1312752-.1850853-.2710028-.3638382-.4077291-.5448465-.228569-.3026018-.4559727-.6060848-.6841259-.9090023-.2590294-.3439121-.5181713-.6877403-.7776031-1.0313501-.1297264-.1718187-.2605581-.3428011-.3902388-.5146523-.1366415-.181078-.27244-.362792-.408823-.5440655-.0125818-.0167212-.0267239-.0322685-.0447168-.0538492-.0164928.0498281.0031013.0894513-.0163555.1244974-536e-6-.1994848-.0031471-.3989949-6199e-7-.5984406.0010614-.0837288.0129976-.1673183.01999-.2509713.0343437-.0125699.0423031.0189099.0554094.0362244.1778288.2349205.3554554.4699965.5329113.7051973.2556543.3388448.5119619.6771975.766715 1.0167212.0201712.0268836.0444441.0493722.0690908.0717168.052742.1711879.1180687.3377171.1924906.5003881.1644859.359539.3689299.6953316.620595 1.0003147.2042656.2475443.4291391.47575.6808033.6763573.0114536.0091305.0368271.0151567.0154352.0410233C12.9797707 10.0390406 12.9060287 10.1311722 12.8317356 10.222847z"/><path fill="#43cde6" d="M17.8798046.9915716c.0395298.0811053.1015129.1464806.1546135.2178727.1878319.2525337.3777714.5035018.5672131.7548355.2582474.34262.5166759.6851047.775219 1.0275024.1307678.1731801.2621975.3458622.39291.5190854.2594204.3437963.5183811.687942.7778759 1.0316825.129755.1718831.2605572.3429756.390358.5148253.1168022.1546412.2326775.3099794.3494911.4646106.0175781.0232701.0405865.0395188.0720387.0382161.0010281.0023704.0020542.0047407.0030861.0071025-.0022507.0048485-.0058365.0083385-.0107212.0104918-.1040077.0207105-.2078724.042491-.3108025.0679069-.0578728.0142889-.0978985-.0010586-.1331978-.0486774-.1215611-.1639752-.2434597-.3277202-.3683281-.4892249-.0249119-.0322213-.0534115-.0616679-.0749702-.0964823-.0420513-.1036124-.0726948-.2112637-.1147308-.315062-.0863056-.2131085-.1878643-.4178925-.3041267-.6164308-.118782-.2028348-.2492809-.3976116-.3994141-.5773697-.1443939-.1728857-.2991028-.3370795-.4669209-.4889939-.151226-.1368892-.3078098-.2659588-.4751492-.382257-.0282764-.0196514-.0566235-.0392015-.084938-.0587986-.0953636-.1423185-.2008286-.2772565-.3042355-.4136231-.3177166-.4189851-.6331596-.8396844-.9504719-1.2589726-.0149326-.0197317-.0404587-.0377482-.0247555-.0693032.1366806.0361067.2737522.070828.4098225.1091073C17.7943821.9521936 17.8365002.9739904 17.8798046.9915716z"/><path fill="#85a4ef" d="M10.2861166 7.9009628c.0202188.0044303.037096.0141063.0496559.030941.1218443.1633253.2430935.3270998.3657522.4898129.2413263.3201351.4836092.6395512.7251759.959507.1487236.1969862.296525.3946686.4453363.591589.1857576.2458143.3721275.4911671.5582333.7367201-.0429983.0553246-.0862103.1104832-.1288977.1660471-.0198364.0258198-.0385609.0371637-.0686426.0106325-.0642786-.0566921-.1336355-.1078234-.195961-.1664944-.1279669-.1204643-.2574005-.239954-.3775873-.3679581-.1672382-.1781139-.3275862-.3625145-.4694204-.5625572-.1429863-.2016668-.2745104-.40975-.3959656-.6252689-.1760063-.3123226-.3141832-.6397991-.4228115-.9805832-4826e-7-.0015163-944e-7-.0033092-1135e-7-.0049734-.0093374-.0186443-.007473-.0413933-.0213842-.058362C10.3283634 8.046998 10.3072395 7.9739799 10.2861166 7.9009628z"/><path fill="#3cd1e5" d="M21.6900806 4.919117c-.0193653.0200291-.0238819-8554e-7-.0320091-.0116448-.193367-.2567325-.3865089-.5136342-.5801392-.7701712-.2405396-.3186917-.4816036-.636986-.7221947-.9556403-.1497364-.1983187-.2987118-.3972116-.4485664-.5954416-.2317886-.3066151-.4642029-.6127574-.6957512-.919553-.0176353-.0233641-.039875-.0454587-.0409489-.0780152.0900135.0588734.1786308.120031.2703972.1760341.1097984.0670066.2026157.1552284.3038883.232811.2146072.1644063.4062805.3538904.5957699.5447969.1699181.1711881.3258553.3559678.4662037.553205.1438522.2021677.2764034.4110351.3973179.6278908.0793591.1423235.1478443.2894444.2153416.4372168.0399361.0874357.0743904.1773748.1113091.2661891.0037632.0183339.0114059.0354099.0172157.0530806.0304928.0680985.0486469.1403823.0715885.211041.0069408.0158181.0134277.0317945.0171185.0487528C21.6557732 4.7990885 21.679884 4.8570304 21.6900806 4.919117z"/><path fill="#a591f4" d="M14.8298607 8.9103527c-.1220522-.0732555-.2255917-.1668024-.3092766-.282114-.0080156-.0403156.0268764-.0357113.0467367-.0404139.121273-.0287161.2430906-.0551414.3648863-.0816002.2370958-.051506.4737711-.1049128.7107353-.1570129.0290403-.0063858.0587482-.0114813.0853767-.0261555.0183573-.0057116.0361404-9851e-7.0539846.0030231.1314259.0295305.2641497.0284929.3960981.0088968.1230698-.0182791.2325706-.0673208.3137074-.166996.0095749-.0117636.0207005-.0215921.0359898-.025445.2272301-.040719.4507275-.0987406.6765289-.1460676.1641045-.0343947.3271427-.0737185.4915066-.1068306.0588226-.0118504.0620365-.0072536.0547199.053627-.0128345.111207-.0261669.2223053-.0711098.3265209-.0722122.0260696-.1481266.037096-.2225895.0536451-.8500748.1889181-1.7006845.3754139-2.5508108.5641012C14.8802299 8.8933268 14.8548975 8.9012146 14.8298607 8.9103527z"/><path fill="#79abee" d="M10.162199 5.6000719c.0047636-.1139779.0353031-.2236433.0578384-.3344755.0270987-.133265.0559282-.2663665.1010828-.3951392.0317993-.0034757.0414534.0235167.0557184.0422478.1620531.2127981.3213654.42769.4840136.6400127.1545572.2017608.3021965.408751.460885.6073499.0073786.009234.0112438.0203152.0177879.0299115 6609e-7.0997634 7353e-7.1995344.0021038.2992878.0029955.2184939.0253916.4351673.062438.6504259.0022345.0129867.0024939.0263133.0036726.0394816-.064703-.0410476-.1037188-.105885-.1479836-.1647625-.2329578-.3098636-.4676247-.6184373-.7006044-.9282846-.1149807-.1529188-.230504-.3054466-.3454571-.458396C10.2006807 5.610415 10.1892805 5.590857 10.162199 5.6000719z"/><path fill="#65b8eb" d="M11.6507244 2.5519269c.1342478-.1401145.2692156-.2793207.4181347-.4044697.0630846-.053014.1207523-.1124692.1907873-.1570423.024087-.0054122.0312328.0153341.0415192.0286863.2098055.2723498.4142952.5487266.622386.8223794.0174198.0229089.0352325.0459869.0077667.0737221-.1187744.1099801-.23594.2216809-.3474627.3390136-.0765219.080508-.1500998.1638126-.2249947.245867-.0244827-482e-7-.0322819-.0213363-.0434656-.0363481-.2124777-.2851801-.4297619-.5667369-.641614-.8523762C11.6614532 2.5947366 11.6351709 2.5805504 11.6507244 2.5519269z"/><path fill="#74aeed" d="M11.3395252 6.1899791c-.0739565-.0588989-.1193266-.1415339-.1753473-.2148762-.2351255-.3078222-.4669695-.6181479-.7012005-.9266577-.0458393-.0603752-.0832109-.1277485-.1418571-.1779881.0658655-.2362452.1493349-.4661489.2486877-.6903319.0369244-.0074005.0478363.0243654.0637693.0450215.138052.1789818.2715778.361424.4093409.5406008.133708.173903.2605705.3529882.3982487.5238461.0074224.009212.0121346.0197701.0171204.0302629-.0305471.158329-.0651617.3158274-.0840836.4763479C11.3587627 5.9271979 11.3509941 6.0587187 11.3395252 6.1899791z"/><path fill="#49c9e7" d="M15.5565186.6989247c.0122547-.0128108.0281401-.0076111.0424318-.0076285.2674923-3248e-7.5349855-3285e-7.8024778-188e-7.0142803 165e-7.0302086-.005169.0423126.0079252-.0106316.0188907-.0352669.0067268-.0487347.0221843.0044689.0238504.0229836.0395222.0365982.0576085.2771988.3682714.5564175.7350211.8322754 1.1042997.0170422.0228134.0437737.0428909.035902.0779042-.1288757-.029763-.2573681-.0613234-.3867245-.0888164-.148653-.0315939-.2986736-.0552649-.4507046-.0640224-.0043068-248e-6-.0083847-.0044816-.0125675-.0068564-.0776844.0102869-.1102638-.0461745-.1483364-.0975721-.2366562-.3194652-.4798088-.6340525-.7166195-.9534056C15.573081.7346833 15.5578165.7205801 15.5565186.6989247z"
		/><path fill="#2bdce3" d="M17.149828 3.4923823c.0850601.0453568.161726.1011004.224535.1753387.0245018.0289617.0532646.0543184.0800858.0813174-.0185833.0228894-.0466518.0241606-.0719624.0296693-.3731365.0812097-.745533.165776-1.1187897.2464283-.0453377.0097957-.0915527.0173321-.1321259.0422716-.0491314.0132504-.0993557.0070601-.148983.0065241-.1558018-.0016813-.3009224.029037-.4244776.1309648-.0077486.006393-.0168095.0107284-.0268507.01264-.0284405-.0010939-.0563765.002749-.084034.0090189-.3601713.0816565-.7213345.1588321-1.0818529.2389264-.0342531.0076103-.0693913.0277729-.1056414.0048771 617e-6-.0067949.0012341-.0135903.0018511-.0203853.0089178-.016058-.0018616-.0351925.0079832-.0511065.0094032-.0931292.0321741-.1828885.0679216-.2693758.060997-.028687.1278582-.0355697.1924505-.0499597.6577215-.1465352 1.3159533-.2907636 1.9738522-.436506.1786842-.0395837.3574028-.0790575.5362453-.1179404C17.0774727 3.5169458 17.1146965 3.5082092 17.149828 3.4923823z"/><path fill="#6db3ec" d="M10.8689384 3.6000016c.0705738-.1340954.1534405-.2606039.2404184-.3843489.0584288-.0831273.1134939-.1688929.1813898-.2450695.0384893-.0140584.0487289.0202167.0641298.0403588.1627636.2128708.3237152.4271181.4847374.6413119.0699615.0930631.1414766.1849656.2110949.2783003-.1377373.2237151-.2644262.4532087-.3644638.696645-.0036383.0088549-.0042057.0198455-.0159426.023128-.1232872-.1505222-.2350531-.3098154-.3533335-.4641519-.1345263-.1755371-.2673464-.3523695-.3994255-.5297494C10.9025679 3.6363132 10.8825979 3.6209617 10.8689384 3.6000016z"/><path fill="#ac8cf5" d="M14.8298607 8.9103527c.0030079-.0235014.0215187-.0264664.03971-.0304718.3099632-.0682383.6198511-.1368256.929862-.2048492.4052582-.0889254.8106728-.1771355 1.2158928-.2662268.1953983-.0429602.390667-.0865374.5855598-.1317167.0266228-.0061712.0524673-.006218.0788593-.0073032-.044487.1448278-.1170692.2743568-.2132282.3909931-.0051613.0062609-.011631.0114403-.0174942.0171223-.6642494.1429071-1.3269196.2929955-1.990737.4378824-.0202408.0044184-.0441818.0016909-.0585451.0224352C15.1955166 9.0979328 15.0030537 9.0282373 14.8298607 8.9103527z"/><path fill="#5ebcea" d="M12.9313183 2.9152024c.0098038-.0222504.0034008-.0406287-.0108204-.0593765-.1876125-.2473335-.3746014-.4951398-.5622196-.74247-.0317392-.0418422-.0656986-.0820026-.0986319-.1229407.0616055-.0645177.1369247-.1120051.2074804-.1651833.1380033-.104015.2878761-.190266.4331455-.2833923.0022421-.0014374.0064268 1544e-7.0097046 3325e-7.0280962.0652406.076375.1168329.1187038.1720793.1742115.2273672.3432226.4586533.5180998.6855084.0121584.0157719.0238638.0321016.0314751.0508213C13.5013437 2.5014465 13.4252853 2.5536625 13.347331 2.60288c-.1374922.0868063-.26371.1881554-.3868723.2937007C12.9517918 2.9040084 12.9410791 2.9090507 12.9313183 2.9152024z"/><path fill="#50c5e8" d="M14.2394342.943827c.2194405-.0732507.4452877-.1206595.6713085-.1676311.0198593-.0041273.0394135-.0026926.0588446-.0061123.039959.0733589.0953426.135767.1446209.2024425.1877604.254047.3818846.5033184.5697117.7573193.0131187.0177397.0348196.0330623.0260286.0607152-.2487574.0224234-.4969702.048508-.7402401.1084915-.00945.0023307-.0197544.0012015-.0296612.0016844-.0198917.0120108-.0261211-.0051033-.0344782-.0165637-.2127771-.2917943-.4359159-.5758147-.6496563-.8668658C14.2415962.9978119 14.2025452.9774218 14.2394342.943827z"/><path fill="#46cbe7" d="M17.2997818 1.9611992c-.0648823-.1100302-.1483841-.206632-.2241364-.3087462-.1575336-.2123501-.3176899-.4227526-.476902-.6338551-.0656738-.0870822-.131588-.1739863-.1976509-.2607754-.0117149-.015391-.0346489-.0298871-.023592-.0498365.0089951-.0162287.0338345-.0043815.0513496-.0074259.0048923-8504e-7.0099201-9248e-7.0148869-.0013564.2145138.0067863.4256382.0425366.6371727.0746999.0023518 3574e-7.0041122.0045984.0061474.0070266-.039444.014779-.0298748.0338159-.0094929.0609452.341053.4539707.6853771.9054732 1.0253315 1.3602656.0172482.0230732.0496445.0445006.0258865.081867-.151247-.0639408-.2980595-.1379442-.4522991-.1952553C17.5520954 2.0425334 17.4255371 2.0031466 17.2997818 1.9611992z"
		/><path fill="#71b0ed" d="M10.8689384 3.6000013c.0569925.0173893.0750179.072942.1059542.1136229.2187004.2875869.4343901.577462.6515331.866236.0168104.0223556.0413895.0393648.0438766.070467-.0549755.1583405-.1105471.3164544-.159729.4767704-.0195627.0637641-.0458975.1254859-.0522852.1927595-.083889-.0744176-.1398029-.1713967-.2068939-.25914C11.038558 4.7823577 10.8284855 4.501884 10.6170034 4.222486c-.0127783-.016881-.0245094-.0360246-.0471954-.0423608.0638275-.1528463.1325245-.3032606.2197208-.4445918.01721-.0278964.0323238-.0570853.0484056-.0856781.0149231-.0090592.0150509-.0264096.022294-.0397735C10.8631315 3.6067216 10.8660355 3.6033614 10.8689384 3.6000013z"/><path fill="#25dfe2" d="M17.149828 3.4923823c-.001936.0245287-.020422.0256813-.0390167.0298278-.2487431.0554712-.4972134.1121774-.746027.1673222-.2181072.0483387-.4366446.0947392-.6548529.1426349-.3620405.0794666-.7239857.1593685-1.0859318.2392716-.0759811.0167737-.1520386.033339-.2275047.0522256-.019928.0049868-.0390387.0068736-.0590067.005827.0450706-.1382878.1144505-.2627671.2111864-.3717043.1308002-.015125.2576151-.0501673.3856955-.0784693.5341368-.1180291 1.0685234-.2349305 1.6024189-.354039.0383301-.0085506.07934-.0097449.1132145-.0338228C16.8283939 3.3291249 16.9972229 3.390578 17.149828 3.4923823z"/><path fill="#4ec6e8" d="M15.7099485 1.7905606c-.071804-.1110798-.1558456-.2131956-.2348394-.3189696-.1640139-.2196232-.3301029-.4376993-.4954662-.6563128-.0104246-.0137811-.0190344-.0273739-.0100546-.0451932-1e-6-14e-7-3061e-7 319e-6-3061e-7 319e-6.0157833-.0100925.0351181.0013116.0509624-.0084162l8793e-7-585e-6c.0178795-.0134777.0409527.0025729.0589285-.0103621.100584-.0214607.203146-.0284141.3049555-.0405591.0568218-.0067784.1143198-.0078896.1715126-.0115556.1133318.1486031.2271662.2968279.3398743.4459043.1497097.1980162.3013248.3947062.4455204.5966793.0308723.0432441.0695534.0447859.1078701.059994C16.2033768 1.7840241 15.9564991 1.7983679 15.7099485 1.7905606z"/><path fill="#56c1e9" d="M14.2394342.943827c-.0190716.028267.0083094.0438123.0201283.0595948.2148323.286883.4307823.5729339.6476202.858305.0100298.0131996.0075388.0385276.0328646.0390098-.1468744.0432675-.2962799.0778334-.4409494.1287041-.0419331.0147448-.0843353.0281508-.126523.0421705-.0241528.0108755-.031908-.0085349-.0425329-.0229042-.1915207-.2590369-.3891497-.5134795-.5809937-.7722758-.0187721-.025321-.0402384-.0486391-.0581837-.0746052-.0101223-.0146466-.0244694-.0279484-.0202866-.0487168C13.8563786 1.0729713 14.0442848.9985539 14.2394342.943827z"/><path fill="#69b6ec" d="M12.0507088 3.9305542c-.0454149-.0149922-.0597506-.0599737-.0847521-.0927699-.211895-.2779462-.4212837-.5578022-.6317883-.8368104-.0107803-.0142887-.0222874-.0298276-.0434217-.0303907.1061926-.1514165.2352428-.2831821.3599777-.4186566.0431652.0803144.1042948.1479483.1582699.2204058.1816292.2438202.3663378.4853475.5498667.7277515C12.2531042 3.6413982 12.1479759 3.7831621 12.0507088 3.9305542z"
		/><path fill="#5bbeea" d="M13.5782557 2.4505811c-.0525827-.0414977-.0830679-.1011424-.1228266-.152822-.1763258-.2291873-.3500309-.4603959-.5236692-.6916355-.0132484-.0176417-.0407372-.0339122-.0217829-.0639516.1031046-.0718994.2164278-.1259183.3261251-.1862768.0215721-.0118698.0434704-.0231491.065218-.0347011.03234-.0141761.0400705.0158789.0523376.0319165.0908461.1187738.1792383.2394204.27001.3582492.1159878.1518368.2308073.3045459.3449697.4577479.0133047.0178542.0340633.0329738.0310812.0597522C13.8541451 2.2931001 13.7170324 2.3734226 13.5782557 2.4505811z"/><path fill="#6eb3ec" d="M14.2911177 6.8600392c.0123739-.0734453.0342817-.1438003.0681696-.2102718.0350962-.0217581.076128-.0229025.1146889-.0314302.8226223-.1819277 1.6454029-.3631325 2.4680176-.545084.0409946-.009068.0820446-.02983.1262226-.0131083.0700455.0357184.1417198.0686684.2029514.1193681-.0097656.0237126-.0322056.0275297-.0530205.0320745-.4148617.0905986-.8291702.1837254-1.2442217.2734551-.0173473.0037508-.0348387.0072746-.0418425.0074039.0333261-.007679.0779228-.0082717.1224136-.0056992.0180302.0010409.0419502-.0042419.0463409.0245628-.0103378.0100226-.0236912.012917-.0369186.012116-.1537437-.0093231-.3009958.0162711-.4412022.0807142-.0175285-.006988-.0347004-.0059662-.0532856-.0019011-.3961048.0866365-.7916794.1756687-1.1879168.261692C14.3514042 6.8704681 14.3202505 6.8838096 14.2911177 6.8600392z"
		/><path fill="#7caaee" d="M10.162199 5.6000719c.0110493-.0163174.0142908-.0425835.0408335-.0070505.2306309.308753.4634018.6159077.6955509.9235263.149415.1979866.2988653.3959446.4482641.5939431.0184927.0245099.0537443.034142.0608931.0686851.0389652.1853685.0823374.3696351.1379004.5508504-.0337944 6218e-7-.0500565-.0265446-.0660582-.0476727C11.252739 7.3828311 11.0273962 7.08217 10.8013163 6.7820663c-.2170868-.2881694-.43466-.5759745-.6517353-.8641529-.0075321-.0100012-.015233-.0172992-.0280676-.0177469.0079269-.0710092.017025-.1419253.0226917-.2131143.0010128-.0127277.0024042-.0214114.0114746-.0291739.0025978-.0186729-.006134-.0384283.005373-.0562506L10.162199 5.6000719z"/><path fill="#64b9eb" d="M17.5804024 5.6103535c-.0450916.0794911-.100132.1508985-.1705322.2098231-.0977211.0342345-.2002392.0485625-.3007164.0709343-.8464451.1884708-1.6935339.3740325-2.5401888.5615706-.0210934.0046716-.0421476.0122485-.0639086.0083032-.0152597-.0027661-.0368433-.0036297-.0247326-.030211.0516729-.0778408.1138239-.1457734.189786-.2006431.3660154-.0798669.7317429-.1610441 1.0975208-.241982.5805273-.1284552 1.1614714-.2550278 1.7417746-.3844976C17.5333843 5.5983009 17.558466 5.5900636 17.5804024 5.6103535z"/><path fill="#5ebdea" d="M17.5804024 5.6103535c-.0821514 2832e-7-.1594067.0278902-.2382927.0448918-.4201126.0905404-.8397236.1834297-1.2593594.2761788-.2743979.0606484-.5484619.1228113-.822835.1835828-.1823378.0403881-.3650446.0791044-.5472851.1199164-.0163116.0036535-.0289574.0023494-.0425205-.0047927.071991-.0640392.1548128-.111125.2400875-.154633.0129175-.0065908.0422792-.008379.0198641-.0361342-.0081778-.0427804.0279579-.0386858.0502558-.0440869.1309738-.0317249.2630701-.058557.3946218-.08778.7146034-.1587462 1.4298859-.314425 2.1442547-.4742241.0357265-.0079913.0714607-.0163145.1077328-.0210528.0161591-.002111.0374012-.0095668.0426922.0176287C17.6500187 5.4950266 17.6201649 5.5551381 17.5804024 5.6103535z"/><path fill="#1fe3e1" d="M16.6500034 3.291456c.0116806.0257697-.0062351.0256352-.0237675.0294313-.1824055.0394926-.3646622.0796812-.5469532.119698-.4727154.10377-.9453716.2078121-1.4182549.3108153-.0365305.0079575-.0731878.0365031-.1123533.006387.1261425-.1612957.2904396-.2724001.4744558-.3559244.234726-.1065423.4834909-.1549413.7393494-.1728947.2871838-.0201519.5722961-.0091751.8544025.0521502C16.6281414 3.2835662 16.6389732 3.2879658 16.6500034 3.291456z"/><path fill="#43cde6" d="M18.1287823 2.284008c.006424-.0266604-.0117645-.0446556-.0250759-.0623991-.2143345-.2856845-.4294167-.5708079-.6443825-.8560171-.1323547-.1756006-.2647476-.3511711-.3973007-.5266218-.011734-.0155327-.0346279-.0300632-.0255108-.0498099.0082264-.0178126.0332317-.0053352.0505447-.0082297.0842628.016526.1685276.0330519.2527905.0495777.0188541.0643197.068882.1085369.1069679.1595425.2644272.3541195.5313625.7063653.7979031 1.0589042.10882.1439307.2187271.2870395.3279572.4306602.0212593.0279524.0372486.0587652.0466347.0927906-.1511993-.0946252-.3027649-.1886044-.4628048-.2679951C18.1463814 2.2993886 18.1379833 2.2908895 18.1287823 2.284008z"/><path fill="#58c0e9" d="M13.9997187 2.2288599c-.0994215-.1318307-.1989021-.2636182-.2982531-.3955028-.1241636-.1648203-.2483044-.329659-.3721199-.4947405-.0074921-.0099897-.0150614-.017405-.0280256-.0174226.122467-.0573884.2400236-.1255622.3692579-.168085.2177916.2888012.4352283.577872.6542101.8657684.0139589.018352.0160894.0498037.0477781.0527313C14.2482891 2.1240275 14.1240044 2.1764438 13.9997187 2.2288599z"/><path fill="#b289f6" d="M15.3997402 9.1382179c-.0267687-.0254164.0038614-.0248203.0144358-.0273867.0594749-.014432.119422-.0269194.1792088-.0400734.2343588-.0515661.4686842-.1032915.7030859-.1546621.3458843-.0758038.6917553-.1516647 1.0378361-.2265615.0374489-.0081034.0739384-.0336342.1147156-.0116339-.1433716.1742325-.3280563.2896328-.535162.3713703-.295557.1166477-.6049118.1525431-.9201002.1506414-.0848637-5121e-7-.1699543.0019732-.254221-.0119743-.0205479-.0082655-.0431032.0013781-.0636244-.0071287-.0121202-9384e-7-.0242414-.0018768-.0363617-.0028152-.0165148-.0082493-.0356121.0014544-.0520287-.0074806C15.5229502 9.1712627 15.461133 9.1559725 15.3997402 9.1382179z"/><path fill="#32d7e4" d="M14.2597313 4.4703588c.1018867-.0121379.2004795-.0405078.3003731-.06217.3080215-.0667949.6155615-.1358004.9231405-.2046146.0178833-.0040011.0325546-4954e-7.0476494.0071106.0043077.0169477-.0065336.0285907-.0154867.0399227-.0599623.0758948-.092639.1633091-.110755.2571883-.0043383.0224853-.0066786.0464983-.0296059.0601649-.3576374.0788031-.7150955.1583152-1.0728731.2363682-.0513725.0112076-.057538.0056181-.0566349-.0482688 6666e-7-.0397658-.0048323-.0797687.0035133-.1193118C14.2467546 4.5809093 14.246088 4.5251751 14.2597313 4.4703588z"/><path fill="#31d8e4" d="M16.12994 4.0593967c.0112095-.0189962.0299339-.0247726.0498791-.0291467.3344688-.0733469.6689262-.1467454 1.0033379-.2203481.0905075-.0199201.1808567-.040555.2712841-.0608623.0755997.0832047.1351357.1765406.1772423.2808728-.0174351.021297-.0435448.0231009-.0673714.0284081-.3211498.0715308-.6427288.1411247-.9637375.2132993-.0209694.0047145-.0419979.0105681-.0639267.0089073-.0177193-.0023141-.0295467-.0136867-.0400143-.0268025-.0797443-.0999298-.1886654-.1463361-.3103561-.1693635C16.1655369 4.0804362 16.142622 4.0814786 16.12994 4.0593967z"/><path fill="#5abfe9" d="M17.6696186 5.4298482c-.0488319-.019752-.0935497.0064402-.1382599.0160933-.4336109.0936151-.8667049.1896358-1.2997799.2857165-.3054237.0677605-.6105194.1369891-.915905.204915-.114687.0255094-.2297583.0492897-.3447075.0736074-.0181608.0038414-.0369062.0059214-.040905.0291834-.0580139-.0208297-.1116095-.0499496-.1614637-.086082.0012121-.0426984.0378313-.04143.0640812-.0475359.1362028-.0316787.2730312-.0606632.409441-.0914569.2224083-.0502086.4466658-.0923805.6666775-.1529951.0719938-.0117273.1449175-.0029716.2175703-.0126185.1121006-.0148835.2168884-.0440478.307972-.1135416.0131474-.0100317.0273094-.0188208.0444241-.0209112.1041927-.0016026.2022324-.0364013.3027611-.0571985.287878-.0595584.5739384-.1275325.8615017-.1885839.0248833-.0052838.0513916-.0184617.0762844.0017953C17.7110043 5.3260098 17.6945953 5.3792629 17.6696186 5.4298482z"/><path fill="#9d95f3" d="M17.7508545 7.943264c.0060596-.0399914-.010994-.0509424-.0489731-.0424466-.2595139.0580516-.5192184.1152444-.7788372.1728263-.1128616.025033-.2255039.0511036-.3386555.0747366-.0182743.0038176-.0388641.0118771-.0581779 1068e-7-.0063114-.0137939-.0011063-.0262718.0054302-.0379229.0403595-.0719185.0659561-.1487207.0779629-.2302485.0024242-.0164733.0072021-.032515.0176144-.0462236.0145092-.015635.034399-.019465.0537605-.0237789.3402863-.0758119.680872-.1502676 1.0213394-.2252531.0211754-.0046639.0458527-.0164061.06213.011343-.0016766.065619.0046082.1313272-.0035686.1967726C17.7625484 7.8435392 17.7642059 7.8939028 17.7508545 7.943264z"/><path fill="#39d3e5" d="M14.249052 4.6367483c3729e-7.0431986.0012312.086401 9375e-7.1295953-1726e-7.0252137.0048676.0348945.0349302.0280194.1754131-.0401173.3515024-.0772648.527195-.1161795.1724176-.0381899.3445816-.0775228.5170221-.1156058.0159369-.0035191.0330706-.0016246.0496473-.002244.0085487.0063362.0140591.0159383.0127392.0254054-.0119925.0860677.0029354.1735554-.0139589.2592764-.015439.0235872-.041646.0262041-.0655012.0315824-.3267107.0736561-.6541195.1441569-.9810734.2167249-.0237751.0052776-.0487385.0152121-.0721302-.0026073-.0144348-.0832572-.0166578-.1674085-.0154018-.2514973C14.2444658 4.7717366 14.2357826 4.703898 14.249052 4.6367483z"/><path fill="#9e95f3" d="M15.7299767 8.3300409c-.0253401.0323105-.065362.0293636-.0989389.0368509-.3557491.0793467-.7120762.1560984-1.0680275.2345467-.015625.0034437-.0386105.0018196-.0424261.0268002-.0647182-.0773382-.1157417-.1627169-.1511011-.2572937-2823e-7-.0374393.0314398-.0337515.053257-.0387869.2041197-.0471106.4087381-.092042.6134357-.1365643.1186008-.0257931.2369194-.0528383.3555622-.0784225.019453-.0041943.0385923-.0105734.0589132-.0081053.0180302.0024977.0290222.0148172.0388308.0285435.0534983.0748472.1225414.129878.2080793.1641846C15.7113686 8.307332 15.7254848 8.3134022 15.7299767 8.3300409z"/><path fill="#39d3e5" d="M16.5279808 4.2710466c.1888275-.0411854.3776646-.0823202.5664768-.12357.1790905-.0391254.3581524-.078371.5372257-.1175642.0441132.0846777.0732365.1743479.0893955.2683377.0035667.0233274-.015955.0224147-.0288296.025166-.3399773.0726547-.6784821.1520119-1.0186958.2235732-.0130234.0027394-.026165.0051279-.0395546.0024066-.0168152-.0042243-.0234413-.0170808-.0258923-.0324254-.0117912-.0738688-.0380726-.142539-.0732403-.2081904C16.5286922 4.297255 16.5236759 4.2848177 16.5279808 4.2710466z"/><path fill="#929df1" d="M17.7608795 7.7931757c-7858e-7-.0677319-.0015697-.1354647-.0023556-.2031965-.02351-.0403399-.0090008-.084578-.0128193-.1269293-.0011883-.0131917 38e-7-.0265846-2327e-7-.0398798-9766e-7-.0542989-.0041771-.0569048-.0583305-.0453868-.3268242.0695157-.6523647.144886-.9790993.2148118-.0250397.0053592-.0517368.018384-.0746136-.0065823-.0157814-.0864782-.0128784-.1730471-.0016975-.2596531.0107765-.0198245.0310249-.0243659.0501938-.0286746.337368-.07583.6751823-.1496663 1.0129395-.2237349.0513287-.0112562.0551701-.0064492.0632153.0456448.0171738.2197027.0065613.4397211.0072823.6596079C17.765377 7.7838564 17.7624397 7.788518 17.7608795 7.7931757z"/><path fill="#89a2f0" d="M17.7580795 7.1195951c-.0090885-.0298033-.0202103-.0415821-.0587311-.0327425-.3133774.0719128-.6276646.1398535-.9417057.2088704-.0386047.0084848-.077383.0161777-.1160812.0242367-.0189705-.015923-.0167904-.0383439-.0169811-.0592961-5493e-7-.0607762-.0014687-.1215701 452e-6-.1822996.0011196-.0424681.0305309-.0542274.0654964-.0620856.2567348-.0577025.514082-.1126122.7708683-.1700702.0633774-.0141821.126545-.0294008.1903534-.0415435.0208473-.0039668.0436611-.0107212.0571117.0151849C17.7377319 6.9177189 17.7556114 7.0173917 17.7580795 7.1195951z"/><path fill="#41cee6" d="M14.2588596 5.0907154c.1342325-.0201077.2651567-.0558848.3976135-.0843668.2374926-.0510674.474596-.1039386.7118635-.1560559.0103426.0073557.0147877.018424.0150213.0300736.0016174.0808678.0092974.1618886-.0046692.2424231-.0127411.0235467-.0371075.0269957-.0593796.0318971-.3171721.0697947-.6341867.1402912-.9513121.2102938C14.3467197 5.369678 14.3246279 5.37532 14.3106565 5.3503485 14.2795801 5.2665591 14.2639799 5.1796827 14.2588596 5.0907154z"/><path fill="#919df1" d="M14.2519426 7.8802724c-4091e-7-.0101738-8173e-7-.0203466-.0012255-.0305204.0100498-.0214195.0309935-.0231786.0502777-.0274248.3363733-.0740819.6728363-.1477594 1.0091677-.2220306.0215712-.0047636.0448561-.0176334.0657759.0032697.0101767.0183988.0109453.0388527.0089569.0584841-.0072126.0712481.0157213.1421046.0020056.213285-.0114536.0174475-.0308418.0182052-.0483799.0220714-.3221149.071003-.6441212.1424913-.9662809.2132912-.0274305.0060282-.0546818.0157385-.0836601.0116158-.0178537-.0584221-.0292568-.1179066-.0294924-.1792274C14.2501469 7.9228945 14.260191 7.9005427 14.2519426 7.8802724z"
		/><path fill="#7babee" d="M14.2487087 7.7924733c-.0088348-.0207419-.0058584-.042727-.0054922-.0640845.0034809-.2029357-.0091553-.4061055.0086632-.6088305.0046139-.0326362.0284805-.0405746.0562363-.0465708.2681961-.0579367.5355816-.1195612.8038979-.1769652.0796795-.0170479.1589489-.0360346.2387171-.0526276.0265417-.0055208.0580912-.0159001.0680027.0259724-.0143862.0810647-.0153313.1646972-.0458231.242763-.0953875.0350981-.1959734.0492787-.2944965.0714779-.2511024.0565777-.5029373.109889-.7538767.1672273-.0574913.0131373-.0596342.0159035-.0600567.0772605-3901e-7.0564604 124e-6.1129241 1497e-7.1694522.0025597.0465951.0014162.0931573 8068e-7.1396928C14.2651796 7.7569127 14.2662277 7.7777061 14.2487087 7.7924733z"
		/><path fill="#9899f2" d="M14.2885799 8.1223135c.0756741-.0347424.1585836-.042284.2382803-.0608759.2188892-.0510654.43888-.0974536.6586924-.1444931.0644855-.0138006.1275625-.0355802.1944275-.0370779.0394115.0757384.0634108.1566229.0801191.2399406-.1130171.0238142-.2262011.0468693-.3390179.071599-.2386475.0523138-.4770555.105732-.7157555.1578112-.0156345.0034113-.0289927.0059509-.0358429.0217266C14.3293858 8.2923393 14.3031874 8.2092123 14.2885799 8.1223135z"/><path fill="#73b0ed" d="M16.0999489 6.5080247c-.0617466-.0183649-.1252499-.0013542-.1940241-.0106077.0658283-.0348887.1345778-.0408664.199851-.0557652.2497444-.0570064.500288-.1105046.7505684-.1651502.1178398-.0257292.2358322-.0507636.3535728-.0769243.0208721-.0046377.0408573-.0132742.0612507-.0200644.0799217.0518603.1526661.1115108.2072659.1908655-.0132732.0316014-.0440941.032908-.0707264.038693-.293499.0637684-.5864735.1298976-.8797874.1945004-.0293484.0064645-.0581055.0136781-.0842896.0289078-.0177956.0050278-.0326691-.0028801-.0462208-.0123043-.0737362-.0512753-.1573925-.0747261-.2445068-.0894394C16.1338615 6.5275202 16.1129684 6.5263052 16.0999489 6.5080247z"/><path fill="#89a2f0" d="M14.2487087 7.7924733c8688e-7-.0675139.0017385-.1350288.0026073-.2025428.0152645-.0149436.0357294-.0168676.0549526-.0212202.3319435-.0751648.6648378-.1460433.996933-.2205377.0243893-.0054703.0517588-.0187459.0740967.0073276.0159311.0728745.0083971.146306.0051756.2195826-4282e-7.0097642-.0054169.0188289-.0141287.0248342-.2387857.0532498-.4775867.1064348-.7163525.1597733-.1337891.0298886-.26752.0600328-.4012775.0900617C14.2500467 7.8306594 14.2493782 7.8115659 14.2487087 7.7924733z"/><path fill="#74afed" d="M15.4100304 6.8701425c-.0051136-.0282488-.0262403-.0212016-.042985-.0175047-.2707262.0597854-.5413179.1201944-.8119526.1804018-.0853491.0189886-.1704016.0396399-.2563381.0554671-.0229607.0042281-.0347824.0154138-.046875.0310526.0037975-.0879107.0131464-.1749811.039238-.2595201.0873365.0010624.1690655-.0289831.2527313-.0471368.3470621-.0753064.6936235-.1529245 1.0403681-.2296963.0149431-.0033083.0303268-.0077825.0357313.0137272-.0032454.0143147-.0147009.0222039-.0253983.0295792-.0757179.0522032-.1191158.1280475-.1555624.2093816C15.4328499 6.8495903 15.4340181 6.8709621 15.4100304 6.8701425z"
		/><path fill="#48cae7" d="M14.3106565 5.3503485c.0407982.0212092.0781736-.0047441.1149311-.0125256.2734947-.057899.5461283-.1198664.8190546-.1804533.0419264-.0093069.0839701-.0180826.1259604-.0271039.0081291.0032649.0161095.0090208.0167866.0170856.0061407.0731039.0350475.1415381.0433874.21416-.0067358.0324917-.0335417.037961-.0597115.0438757-.2103968.0475469-.4210024.0941629-.6317596.1400762-.0875483.0190711-.1748934.0390568-.2625322.0576949-.0192108.0040851-.0388136.0117507-.0572176-.0027695C14.3684416 5.5234928 14.3326178 5.4399395 14.3106565 5.3503485z"/><path fill="#7caaee" d="M16.4396229 6.6310105c.003767-.0260286.0247307-.0272722.0443439-.031599.2856483-.0630126.5713501-.125783.8567486-.1899095.0464535-.010438.0956841-.0125942.1377182-.039124.0630226.0681372.116209.1427126.1504173.2297134-.0115471.0189338-.0312157.0246539-.0506268.0288758-.3271008.0711665-.6534786.1456022-.9806881.2161069-.017664.0011659-.0275669-.009841-.0334301-.0240283-.0249329-.0603266-.063921-.1104145-.1101894-.1556082C16.4447269 6.6564603 16.4353447 6.6462116 16.4396229 6.6310105z"
		/><path fill="#68b6eb" d="M17.0682163 6.0601449c-.2388649.0531869-.477663.1066675-.71661.1594753-.2195911.0485296-.4393291.0963917-.6590233.1444449-.345665.0756073-.691371.1510348-1.0370111.226759-.0743303.0162835-.1487341.0323815-.2225122.0509233-.024682.0062022-.0487823.008986-.0737724.0080199.0096464-.0365529.0271482-.069396.0476227-.1008358.0141659-.0093637.0301275-.0135331.0465183-.0171471.8943052-.1972079 1.7887287-.3938813 2.6828632-.5918694.0391273-.0086646.0801926-.0278192.1200867 206e-6-.0448265.0397401-.0996666.0626817-.1515446.0906396C17.0909977 6.0382161 17.0719032 6.0397987 17.0682163 6.0601449z"
		/><path fill="#50c5e8" d="M14.4195557 5.6003881c.1869612-.0406251.3739605-.0810819.560873-.1219339.1337233-.0292263.2673254-.0590196.4010029-.0884628.0182781-.0040259.036334-.0079207.0391483-.0311742.012084-.0015874.0191879.0064473.0231619.0152354.031414.0694594.0828657.123281.1356602.1761847.0081902.0082088.0163555.0169263.0124083.0303974-.0200615.030591-.0545559.0299416-.0843086.0365601-.2679968.0596142-.5361738.118432-.8044033.1769891-.0380516.0083084-.0748091.0311356-.116415.01724C14.5186214 5.7508602 14.4613895 5.6817207 14.4195557 5.6003881z"/><path fill="#68b6eb" d="M17.2563782 5.9401212c-.1124229-3095e-7-.2179432.0375152-.3259201.0606403-.3829823.0820189-.7654896.1662755-1.1479483.2507148-.305028.0673442-.609705.1362748-.9145746.2043338-.1387072.0309653-.2774496.0617757-.4163437.0918884-.0143089.0031018-.0297585 9489e-7-.0446796.0012341.0183344-.0431991.0438557-.0819321.0734119-.1181593.0073195.0306158.0319452.020772.0487585.017118.2118597-.0460439.4233618-.0937309.6350708-.1404791.3603325-.079566.7207918-.1585646 1.0811129-.2381835.2731171-.0603499.5458927-.1222506.8192425-.1815176.1146088-.0248499.2271862-.0607452.3453617-.0675344C17.3636093 5.8664317 17.3077507 5.9004064 17.2563782 5.9401212z"/><path fill="#3fcfe6" d="M16.6289139 4.5405974c.1745758-.0374856.3491554-.0749493.5237255-.1124625.1842194-.0395865.3684425-.0791535.5525742-.1191406.0057907-.0012574.0105972-.0070577.0158634-.0107422.0181885.058301.0293465.1177702.0296936.1790314.0122948.0349803-9403e-7.0510192-.0367565.0588446-.3347301.0731349-.6694527.1463194-1.0038357.2210469-.0256672.0057364-.0524864.0133433-.075531-.0085368C16.6262226 4.6794658 16.6036854 4.610682 16.6289139 4.5405974z"/><path fill="#82a6ef" d="M16.5894852 6.8410978c.0885201-.0378432.1842728-.04775.2767849-.0694017.2183914-.0511136.438158-.0963459.6572609-.1444454.0353889-.0077686.0702286-.018044.10532-.0271597.0378456.0691848.06427.1425276.0800114.2197585-.0296497-.018671-.0584965-.00106-.0859451.0048747-.3131313.0677032-.6259079.1370392-.9386749.2064152-.0218983.004858-.048111.0078664-.0453949.0411816-.009306-.0010042-.0161304-.0068097-.0173206-.0151033-.009367-.0653195-.0248089-.1293478-.0395584-.1935472C16.5801125 6.8555965 16.5832825 6.8474002 16.5894852 6.8410978z"/><path fill="#4fc5e8" d="M17.7612057 4.6275253c.0105686.1514502.010231.3026786-.0092258.4535184-.0264206.0197206-.0585289.0231242-.0891342.0297995-.3135948.0683985-.6269684.1377907-.9401531.2080312-.0243244.005455-.0486012.0118284-.0736141.0129595-.0229034.0010357-.0438061-.0027413-.0497894-.030303.009779-.062005.0056973-.1268649.0374565-.1844492.0710144-.0298443.1474876-.0385938.2217484-.0554194.2690849-.0609665.53862-.1199408.8082867-.1782999.0787697-.0170465.0787601-.0171518.0788155-.0979314 191e-7-.0299172-1011e-7-.059834-534e-7-.0897985C17.745718 4.6717463 17.7407837 4.646699 17.7612057 4.6275253z"/><path fill="#55c2e9" d="M16.6093731 5.2989426c.0076866.0333061.0338707.0226221.0524464.0186.1809864-.0391917.3616695-.0797982.5424042-.1201425.1726437-.038537.3452282-.0773339.5179272-.1156178.0095291-.0021124.019865-577e-6.0298271-7391e-7-.0023918.0645313-.0126457.1277051-.0326672.1891923-.119688.0156302-.2360249.0476513-.3536434.0731993-.278944.0605907-.5573902.1234689-.8361874.1847363-.0169239.0037198-.0366364.0085073-.0502892-.0100737-.0029221-.0171275.0095253-.0271125.0182095-.0387239.0346661-.0463495.0663586-.0942564.0853462-.1496739C16.5871868 5.3167372 16.5892048 5.2993178 16.6093731 5.2989426z"
		/><path fill="#45cce7" d="M17.7612057 4.6275253c-864e-6.0242858-.00173.0485711-.002594.0728569-.0128651.017694-.0324097.0217543-.0520916.0261803-.3360424.0755572-.6729488.147213-1.0089397.2230191-.0211124.0047636-.045248.0168486-.0649948-.0058866-.008522-.0650144-.0224152-.1302619.0089874-.1933823.082058-.0015669.1593285-.0289364.2383938-.045764.281559-.059926.5623837-.1233063.8439064-.183404.0307026-.0065546.024231-.0255079.0268955-.0438457C17.7644444 4.5266562 17.7618217 4.5771604 17.7612057 4.6275253z"/><path fill="#56c1e9" d="M14.5866833 5.8114238c.2651739-.0695004.5341797-.1220694.8016415-.1814675.0596266-.0132413.1191444-.0269599.1787281-.0403891.0104618-.002358.0175581-.0088339.022912-.0176859.0172567-.0097818.0322495-258e-6.0463228.0070791.0740519.0386066.1534595.0578847.2356625.0682378.0150423.001895.034729-.0015001.0383234.021771-.0794582.0450749-.1705313.048933-.2564936.0692811-.2185297.0517282-.4386177.0968723-.658061.1447511-.0564556.0123181-.113061.0240774-.1691284.037991-.0215311.0053434-.047473.0058699-.057992.0322881C14.7005939 5.9154396 14.6393414 5.8689423 14.5866833 5.8114238z"/><path fill="#43cde6" d="M20.4645901 5.0113187c.0988655.0826874.1621723.1947637.2410851.2938104.076334.0958071.1469727.1961613.2196159.2948847.0268536.0364962.0593758.0456991.1043282.0361147.1097355-.0233955.2172089-.0587211.3302193-.0656385-.0197296.0301247-.0548859.0256004-.0824051.0312071-.1961212.0399532-.3908253.0863333-.5867443.1270947-.003252 6762e-7-.0067616 6204e-7-.0097866.0017557-.0380745.0142922-.0608082.0054793-.0599976-.0393639-.0331783-.220736-.0816574-.4379787-.1484985-.6510401C20.4694252 5.030653 20.4671783 5.0209327 20.4645901 5.0113187z"/><path fill="#68a0ab" d="M20.6209049 5.6911836c.0100765.0340185.0273151.0393353.0641212.0309701.1930161-.0438647.3872147-.0825067.5807972-.1239204.0318546-.006815.0627003-.0183792.0940132-.0277457 19e-7 24e-7-629e-7 1302e-7-629e-7 1302e-7.1097202-.0268846.2207184-.0478525.3311043-.0715666.0096684-.0039244.0209808-.0018792.0300293-.0081706.0309372-.0134397.0630322-.0213561.0970039-.0202761 948e-6.0034022.0018978.006793.0028572.0101953-.0103931.0120478-.0245686.0161986-.0394154.0193586-.1747417.0372-.3490143.076436-.5242195.1116691-.2090359.0420356-.4165745.0915217-.624752.1377797C20.6176643 5.7322736 20.6231556 5.7109675 20.6209049 5.6911836z"/><path fill="#81a7ef" d="M10.3494864 8.1200151c.0206537.0144997.0211372.0363894.0213842.0583639C10.3577127 8.1611319 10.3557339 8.1397915 10.3494864 8.1200151z"/><path fill="#50c5e8" d="M15.0800524.7510406c-.0171051.0178907-.0393772.0063927-.0589304.010362C15.0385132.745137 15.0608435.756965 15.0800524.7510406z"/><path fill="#ac8cf5" d="M15.6759148 9.180809c.0213413.0011921.0438719-.0082378.0636244.0071287C15.7179632 9.1888409 15.6961393 9.1919699 15.6759148 9.180809z"/><path fill="#79abee" d="M10.1610527 5.6016278c-.0028915.0186572.003952.038249-.0053911.0562677C10.1552782 5.6389189 10.1466827 5.6191769 10.1610527 5.6016278z"/><path fill="#3fcfe6" d="M21.6366215 4.7396688c-.0119553-.0140572-.0183601-.0300632-.0171185-.0487533C21.6322975 4.7046785 21.6393089 4.7204719 21.6366215 4.7396688z"/><path fill="#3fcfe6" d="M21.5479145 4.4798751c-.0148602-.014729-.0201588-.0325599-.0172176-.0530725C21.5409908 4.4430108 21.5482559 4.4602094 21.5479145 4.4798751z"/><path fill="#89a2f0" d="M14.2519426 7.8802724c.0150852.0194802.0058699.0417275.0071459.0627966C14.2484102 7.9230924 14.250802 7.9016109 14.2519426 7.8802724z"/><path fill="#50c5e8" d="M15.0202446.7619877c-.0149927.0148717-.0337448.0069923-.0509615.0084175C14.9841232.7546043 15.0033665.7654504 15.0202446.7619877z"/><path fill="#32d7e4" d="M14.2695656 4.3988671c-.0014019.0172324.0065956.0359325-.0079832.0511069C14.2604704 4.4323487 14.2593985 4.4147305 14.2695656 4.3988671z"/><path fill="#6db3ec" d="M10.8602285 3.6100824c7935e-7.0178654-.0011635.0341899-.0222921.039773C10.8453655 3.6365976 10.8527975 3.6233399 10.8602285 3.6100824z"/><path fill="#ac8cf5" d="M15.5875244 9.1705132c.0175591 9918e-7.0363894-.0068607.0520287.0074806C15.6216927 9.1791 15.6037378 9.1808586 15.5875244 9.1705132z"/><path fill="#43cde6" d="M21.6997681 5.5003095c-.1127205.0263977-.2246494.0566144-.3400002.0703039-801e-7-.0034676-1621e-7-.0069394-2441e-7-.0104113.0999928-.0200143.1999836-.0400286.2999763-.0600424C21.6729488 5.4930029 21.6863728 5.4929037 21.6997681 5.5003095z"/><path fill="#43cde6" d="M21.6997681 5.5003095c-.013422-496e-7-.0268459-992e-7-.0402679-1497e-7.0181961-.0180407.0407829-.0071034.0613918-.0092845C21.7158794 5.4985504 21.7083416 5.5005918 21.6997681 5.5003095z"
		/><path fill="#292929" d="M16.5894852 6.8410978c.0237598.0755105.0370693.1532512.0493641.231216 9022e-7.0825534.0018082.1651001.0027122.2476459.0.0899854.0.1799703.0.2699556.025032.0843215.0207348.1674991-.0097332.2496567-.0172501.1091099-.0460796.2142611-.1056175.3089151-.1335182.1786747-.3240108.215807-.5306149.2152081-.0901766-2604e-7-.1783133-.0127144-.2656193-.0336542-.1121788-.0415592-.204443-.1086769-.2698774-.2102337-.039094-.0758438-.061759-.1571736-.0801191-.2399406C15.3761024 7.78655 15.3722248 7.693234 15.3683453 7.5999174c1e-6-.0833197 29e-7-.1666389 38e-7-.249959-.0225019-.0800843-.0237875-.1600828 9689e-7-.2399764.0110321-.0803776.0172558-.161572.0407124-.23984.0342817-.0762486.068306-.1527567.1284294-.2133217.0239267-.0241017.0514355-.0438552.0814886-.059886.1322308-.0756102.2761879-.0951209.4255342-.0891576.0181293 7243e-7.0363083 196e-6.0544662 248e-6.1223717.0157366.2389812.0473814.339674.1229858C16.5047932 6.6901875 16.5530701 6.7614117 16.5894852 6.8410978z"/><path fill="#292929" d="M15.9102736 5.6689692c-.1123095-.0140872-.2205706-.0415311-.3203087-.0970879-.0744629-.0567117-.128562-.1296105-.169385-.2130628-.0249281-.0743771-.0386209-.1512098-.0499773-.2285528-7563e-7-.0933247-.0015097-.1866488-.002264-.2799735.0034819-.096653.0069647-.1933055.0104456-.2899585.0226612-.1287475.0619164-.250277.1521101-.349649.1376848-.1264787.3059521-.156477.4846334-.1535416.0381393 6266e-7.0762749.0014958.1144123.0022535.0497189.0112896.1002522.0198593.1489887.0344338.1026058.030683.1846905.0919228.249052.1772156.0535431.0824008.0800972.1749058.1009331.2695513.004221.0699053.00844.1398101.0126591.2097154-19e-7.0665617-57e-7.1331234-95e-7.1996851.0216122.0569816.0233994.1137609-.00173.1702681-.0101528.0595598-.0203075.1191201-.0304604.178678-.0304489.0807385-.0697784.1562042-.1301823.2191548-.1422443.124331-.314045.1525555-.4946575.152C15.9597788 5.6700225 15.9350271 5.6693606 15.9102736 5.6689692z"/><path fill="#9799f2" d="M16.6318283 7.839572c.0032444-.0832191.0064888-.1664376.0097332-.2496562.1293011-.0271792.2588062-.0534353.3878632-.0817389.230814-.0506229.4614506-.1020598.6918983-.1543174.0305443-.0069265.0391197.0030837.0386505.0315342-.0011253.0681844-.00103.1363883-.0014381.2045856-.1098061.023334-.2197266.0460868-.3293686.0701165-.2565422.0562239-.5129604.1130238-.7693806.1697984C16.6502228 7.8320107 16.6411381 7.8362975 16.6318283 7.839572z"/><path fill="#83a6ef" d="M15.369318 7.109982c-3233e-7.0799923-6466e-7.1599846-9689e-7.2399764-.2336893.0507302-.4674797.1010103-.7010298.1523705-.1256418.0276303-.2508297.0573111-.376358.0854602-.0127411.0028572-.0264215.0015287-.0396547.0021415-3872e-7-.0649552.0015316-.1300387-.0020618-.1948166-.0021067-.0379505.0170174-.0482445.0478621-.0549574.2797194-.060864.559166-.1229815.839015-.1832352C15.2136059 7.1402378 15.2895517 7.1154408 15.369318 7.109982z"/><path fill="#4ac9e7" d="M16.6398335 5.120266c576e-6-.056756.001152-.113512.00173-.1702681.1465054-.033277.2929039-.0670228.439537-.0997214C17.30686 4.799933 17.5327797 4.750308 17.7586212 4.7003803c391e-6.031641.0010719.0632801.0011368.0949197 1659e-7.0796981 4139e-7.0812969-.0772057.0986395-.3391247.0757723-.6784687.1505685-1.0177879.2254729C16.6567802 5.1211753 16.648159 5.1200461 16.6398335 5.120266z"/></g></svg>