<svg id="Слой_1" xmlns="http://www.w3.org/2000/svg" xmlns:xlink="http://www.w3.org/1999/xlink" viewBox="0 0 32 13" enable-background="new 0 0 32 13" width="32" height="13"><g><path fill="#292929" d="M16.2554569 12.8081608c-.1703033 29e-7-.3406076 48e-7-.510911 76e-7-.0478563-.0065069-.0957623-.0080957-.1433859.0011883-.0133533.0026035-.0264044.0035715-.0395613.0014505-.1204462-.0194149-.2431173-.0179272-.3634205-.0363464-.2104235-.032218-.4205198-.0671463-.6283283-.1139069-.1103888-.0248394-.2209864-.0492201-.3289461-.0837612l.0011511 7696e-7c-.0239601-.0061588-.0488262-.0091248-.0713692-.0202742l.0010509 6256e-7c-.0234089-.0076914-.0488844-.008481-.0707922-.0211878l.0011539 7763e-7c-.056838-.0073328-.1071005-.0362492-.1621723-.0493813-.0299091-.0096579-.0598183-.0193148-.0897264-.0289726-.0333176-.0225735-.0793362-.0098953-.1100693-.0396442-.0100737-.0037689-.022933 6809e-7-.0305462-.0103493-.0157518-.0083055-.0349569-.0078707-.0493898-.019515-.1216335-.0401039-.2382784-.0926991-.3554354-.1437654-.0686235-.0299139-.1350346-.0649099-.2024403-.097621-.0156212-.0023346-.029212-.0093737-.0420542-.0181475-.0140438-.0068474-.0280886-.0136948-.0421314-.0205421-.0216112-.0053797-.0426331-.0119123-.0579567-.0296011-.2062693-.1081915-.4073572-.2253819-.6022701-.3527927-.1513939-.0989628-.2998629-.2023125-.4393873-.3178453-.0126638-.0098534-.0238066-.0216885-.0382051-.0292778-.238965-.1884718-.4610367-.3957195-.6688213-.6174831-.1732712-.1849279-.3380556-.3773031-.4885101-.5822601-.1149464-.1565847-.2231112-.3174219-.3247938-.4822731-.0713387-.1156521-.134861-.2365503-.199934-.3562374-.0810862-.1491365-.1524801-.3025789-.2177973-.4586506-.0652876-.156002-.1230268-.315052-.1778231-.4753819C9.7400827 8.2247391 9.6895275 8.0384674 9.6438904 7.8513741 9.6131773 7.7254648 9.5917568 7.5962973 9.5704832 7.4676557c-.0181036-.1094689-.0264091-.2202692-.048481-.329165C9.5169878 7.1137519 9.5249214 7.0859241 9.5187159 7.0597305 9.5104179 7.0396113 9.5211763 7.0172062 9.5112238 6.9972858 9.510416 6.9814429 9.5096073 6.9656005 9.5087996 6.9497571 9.5003281 6.9255419 9.5109873 6.8994293 9.5014133 6.8753233c-8945e-7-.0251832-.00179-.0503664-.0026855-.0755496C9.4893742 6.7622852 9.5022221 6.7233629 9.4913807 6.6859703 9.4913778 6.5253325 9.491375 6.3646946 9.4913721 6.2040567c.0108576-.0373964-.0020018-.0763245.0073557-.1138182 8945e-7-.0251842.0017881-.0503688.0026817-.0755529.0095825-.0241041-.0010834-.0502181.00739-.0744324 8078e-7-.0158443.0016146-.0316877.0024223-.0475321.0099564-.019918-8039e-7-.0423217.007494-.0624394.0105963-.1013184.015749-.203578.033062-.3037357.0262432-.151823.052597-.3036604.0876808-.4540849.0433941-.1860609.0920687-.3701568.1505671-.5520697.0552902-.1719403.1158361-.3421097.1872845-.5074916.0683279-.1581557.139348-.3153181.2224121-.4673109.1216354-.2225716.2472124-.4424033.3915434-.6508322.1254692-.1811883.2592239-.3557835.4036036-.5232794.1590891-.184557.3255367-.3612666.5019455-.5284898.1397762-.1324984.2844362-.2601061.4406509-.3736683.0118895-.0086428.0219622-.019781.0328789-.0297594.0147743-.0071295.025692-.0194429.0387726-.0288497.1554995-.1191831.3156233-.2323116.4828444-.3338956.4818907-.2927415.9901257-.5290118 1.5293941-.6963915.7041149-.2185445 1.4251299-.3197993 2.1616602-.296862 1.2844086.0399994 2.4635429.4123962 3.529089 1.135039.0927811.062923.1837082.1285753.2754955.1929595.0161915.0074185.0290756.0191358.0412807.0317369.0123768.0179665.0289593.0304675.0493717.0379959.015295.0086342.0292091.0189761.0403976.0326846.1038532.0950266.2144623.1821792.3183975.2773131.1364384.1248865.2672482.2553217.3937054.3898051.1519833.1616256.2926788.3332274.4254665.5112419.2456665.3293393.4593658.6780434.6367016 1.048677.2010078.4201097.3561649.8561554.4577827 1.3113279.0527363.2362137.0955276.4736347.1192493.7144918.0021.0213203.0074749.0423183.0113297.0634661.0083313.0200653-.0025196.0424461.0075188.0623055 7992e-7.0158882.0015965.0317764.0023918.0476646.008482.0242019-.0021801.0503011.0073776.0743957 8945e-7.0251951.0017872.0503898.0026817.0755854.009409.0374236-.0035095.0762939.0073624.1136231 57e-7.1607432 95e-7.3214865 153e-7.4822292-.0108986.0373378.0020332.0762219-.0073776.1136565-8907e-7.0251923-.0017796.050384-.0026703.0755763-.009573.0241013.0010834.0502081-.0073757.07442-7992e-7.0158834-.0016003.0317659-.0023994.0476494-.010046.0198593 8068e-7.0422411-.0075245.0623074-.0407448.3333025-.093708.6642284-.1812134.9891143-.1202984.446641-.2850933.8757315-.5000362 1.2853479-.1864204.3552599-.4046783.6894846-.6532383 1.0048885-.2072773.2630243-.4371643.5042639-.6801758.7333393-.1119328.1055117-.2317333.2026787-.3479652.303628-.0111923.0137138-.0251102.0240593-.040411.0326958-.0990372.0714064-.1977787.1432276-.2971725.2141342-.2414665.1722584-.4957581.3231554-.7594833.4588175-.211977.1090422-.4291306.2059174-.6518955.2905197-.0106354.0040407-.0199547.0115499-.0298862.0174417-.0159283.0120039-.0354156.0135288-.0538082.0182743-.0117016-.002882-.0179119.0066175-.0261288.01159-.0328999.0288811-.07827.0204573-.1148319.0383797-.0292168.0075693-.0587845.0141468-.0849686.0302362-.0550709.0131378-.105341.0420494-.1621799.0493784l.0011635-7782e-7c-.0219002.0127239-.0473843.0134869-.0707836.0212049l.0010548-6123e-7c-.0225563.0110931-.0474129.0140972-.0713692.0202608l.0011559-7591e-7c-.1622124.0485296-.3275146.0837975-.4932213.1180077-.09729.0200882-.1955452.0351162-.2930088.0538216-.0654278.012558-.1331615.0230684-.2007599.0269508-.0393066.0022583-.0784111.0081511-.1174965.0116987-.1132126.0102768-.2257118.0262442-.339901.0170584C16.2951756 12.8027782 16.2747898 12.8006496 16.2554569 12.8081608z"/><path fill="#fefefe" d="M14.2409039 12.5767927c.169796.0386457.3382807.0826635.5097151.1145773.3125992.0581894.6271496.0973625.9449291.1101437.0163774 658e-6.03263.0043573.0489693.0066471-.0543337.0060568-.1095285-.0087767-.1629934.0255356-.0255089.0163689-.0719423.0189991-.09869-.0191355-.0139313-.0198612-.0288906-.0193462-.0451527-.0027456-.0034218.0034914-.0078402.0060816-.0120173.0087461-.0401754.0256252-.0675592-.0273438-.0880003-.0223236-.0307245.0075464-.0542049.0367441-.0830603-.0013218-.0049057-.0064697-.0129652-.0187464-.0177832-.0133781-.0500488.0557833-.082737-.0275974-.1269436-.0151482-.00313 8831e-7-.0099726-.0079575-.011919-.0068264-.0867596.0504398-.1521196-.0315371-.23102-.0394888-.1960306-.0197582-.3869038-.0749035-.5782022-.1232395C14.2716894 12.5945292 14.2521458 12.5942698 14.2409039 12.5767927z"/><path fill="#fefefe" d="M16.2554569 12.8081608c.1175041-.0091257.2350807-.0174007.3524971-.0275326.3765087-.0324879.7470284-.0991545 1.1121292-.1964159.0127602-.0033979.0260048-.0049677.0390263-.0073938-.02981.0279293-.0702114.0248871-.1057835.0357046-.1500473.0456314-.3052635.0699854-.4574738.1068354-.059824.0144835-.1239891.0178947-.1854591.0331764-.0155067.0038557-.0204296.013072-.0303974.0196457-.0107822.0071125-.024065.020792-.0354176.0119505-.0477753-.0372019-.0829792 6151e-7-.1261692.0102777-.0385914.0086317-.0857353.0259943-.1186924.018795-.0343304-.0074978-.0543938-.01402-.0777702.0130796-.0024643.0028563-.010685.0040913-.0141602.0022221-.0462475-.024868-.0867367-.0210218-.1330147.0079594-.0220203.0137882-.0580807.002429-.0880203-.0172834C16.3482475 12.7938232 16.2993565 12.8146057 16.2554569 12.8081608z"/><path fill="#fefefe" d="M13.7401304 12.4195042c.0387383.0075312.0766687.0172997.1100693.0396442-.0255117-1793e-7-.0492153-.0116425-.076993-.0018311C13.7431326 12.4679422 13.7384443 12.4435692 13.7401304 12.4195042z"/><path fill="#fefefe" d="M18.1450367 12.4578838c.0366287-.0177269.0746498-.0312834.1148319-.0383797.0038452.0334606-.0118866.0491571-.0426426.0362215C18.191 12.4446945 18.1690693 12.4643755 18.1450367 12.4578838z"/><path fill="#fefefe" d="M13.9399261 12.4881201c.0561399.0096159.1093836.028738.1621656.049387C14.0390682 12.5505028 13.9936142 12.5057907 13.9399261 12.4881201z"/><path fill="#fefefe" d="M17.8978882 12.5374985c.0527954-.0206108.1060333-.0397682.1621799-.0493784C18.0063763 12.5057907 17.9609241 12.5505142 17.8978882 12.5374985z"/><path fill="#fefefe" d="M12.9601765 12.0799627c.0230865.002491.0426254.0119295.0579567.0296011C12.986867 12.1230869 12.9575176 12.1328516 12.9601765 12.0799627z"/><path fill="#fcfcfc" d="M22.5086155 6.2038741c-.009758-.0374012-.0080318-.0755467-.0073624-.1136231C22.5183239 6.1271782 22.5067577 6.1659608 22.5086155 6.2038741z"/><path fill="#fcfcfc" d="M9.4987278 6.0902386C9.4993391 6.1283607 9.5012264 6.1665659 9.491374 6.2040348 9.4931984 6.1660771 9.4817228 6.1272378 9.4987278 6.0902386z"/><path fill="#fcfcfc" d="M9.4913807 6.6859703C9.5011978 6.7234292 9.499342 6.7616415 9.4987278 6.7997737 9.4817305 6.7627783 9.4931879 6.7239466 9.4913807 6.6859703z"/><path fill="#fcfcfc" d="M22.5012531 6.7997599c-6638e-7-.038075-.0024052-.0762196.0073776-.113637C22.5067406 6.7240257 22.5183334 6.7628236 22.5012531 6.7997599z"/><path fill="#fefefe" d="M13.6601944 12.3896399c.0188065 577e-6.0362034.0047188.0493898.019515C13.6871901 12.4176617 13.6702623 12.4123316 13.6601944 12.3896399z"/><path fill="#fefefe" d="M18.2859974 12.4079142c.0165539-.0101595.0336781-.0186424.0538082-.0182743C18.3288269 12.4162159 18.3084259 12.4150505 18.2859974 12.4079142z"/><path fill="#fefefe" d="M14.1009445 12.536726c.0247593.0031729.0488443.0086002.0707874.0211897C14.1452951 12.5603504 14.1204014 12.5576191 14.1009445 12.536726z"/><path fill="#fefefe" d="M17.8282681 12.5579252c.0219479-.0125608.0460148-.0180473.0707817-.0212002C17.8796024 12.55762 17.8547039 12.5603361 17.8282681 12.5579252z"/><path fill="#fefefe" d="M14.1706858 12.5572882c.0250072.0024633.049139.0080042.0713615.0202799C14.2154026 12.5808802 14.1907234 12.5772486 14.1706858 12.5572882z"/><path fill="#fefefe" d="M17.7579536 12.5775738c.0222969-.0120039.0463181-.0179396.0713692-.0202579C17.8092728 12.5772409 17.7845993 12.5808802 17.7579536 12.5775738z"/><path fill="#fcfcfc" d="M9.5014133 6.8753233c.0099554.0240674.0082483.049293.0073862.0744338C9.4924154 6.9263272 9.503027 6.900219 9.5014133 6.8753233z"/><path fill="#fcfcfc" d="M22.4912071 6.9497561C22.490345 6.9246373 22.4886875 6.8994398 22.498579 6.875361 22.4969749 6.9002271 22.507597 6.9263306 22.4912071 6.9497561z"/><path fill="#fcfcfc" d="M22.4985752 6.0146656c-.009882-.0240631-.0082207-.0492697-.0073776-.0743957C22.5076103 5.963685 22.4969749 5.9897819 22.4985752 6.0146656z"/><path fill="#fcfcfc" d="M9.5087996 5.9402533c8659e-7.0251241.0025692.0503311-.0073843.0744081C9.5030289 5.9897909 9.4924145 5.9636822 9.5087996 5.9402533z"/><path fill="#fcfcfc" d="M22.4812832 7.0597129c-.0013313-.0212293-.0011501-.0422759.0075245-.0623026C22.4874897 7.0183182 22.4966316 7.040494 22.4812832 7.0597129z"/><path fill="#fcfcfc" d="M22.4888039 5.8926053c-.0086708-.0200248-.0088463-.0410752-.0075207-.0623064C22.4966297 5.8495188 22.4874935 5.8716927 22.4888039 5.8926053z"/><path fill="#fcfcfc" d="M9.5187159 5.8302817C9.5200567 5.851552 9.5199347 5.8726463 9.5112209 5.8927155 9.5125074 5.8717628 9.5033712 5.8495536 9.5187159 5.8302817z"/><path fill="#fcfcfc" d="M12.0091171 1.4107101c-.0076437.0167123-.0204563.0264783-.0387726.0288498C11.9794788 1.4248511 11.989747 1.4116642 12.0091171 1.4107101z"/><path fill="#fcfcfc" d="M11.8803139 11.3800468c.0186205.0020809.0303984.0130892.0382051.0292778C11.899332 11.4079838 11.8891296 11.3949175 11.8803139 11.3800468z"/><path fill="#fcfcfc" d="M20.0782433 11.4087267c.0134697-.0108976.0269394-.0217972.040411-.0326958C20.1126995 11.3962173 20.1002903 11.4084282 20.0782433 11.4087267z"/><path fill="#fcfcfc" d="M20.0288811 1.4432964c-.0137615-.0105791-.0275192-.021158-.0412807-.0317371C20.0098896 1.4110476 20.0221004 1.4236404 20.0288811 1.4432964z"/><path fill="#fefefe" d="M13.0602646 12.130106c.017334-.0016346.029726.0081835.0420542.0181475C13.0799446 12.1615639 13.0699558 12.1461773 13.0602646 12.130106z"/><path fill="#fcfcfc" d="M20.1186504 1.5139769c-.0134659-.0108949-.0269318-.0217898-.0403976-.0326846C20.100296 1.4815875 20.1126995 1.4937959 20.1186504 1.5139769z"/><path fill="#fcfcfc" d="M9.5112228 6.9972858c.0087233.0200682.0088005.0411735.007493.0624447C9.5033712 7.0404568 9.5125074 7.0182467 9.5112228 6.9972858z"/><path fill="#f9b879" d="M17.3799191.8403335c.2277355.0499538.4499664.1185166.6687584.1985206.1803932.0659633.3567524.1410549.5304337.2235292.313097.1486771.6090698.3261297.8949928.5207587.1325493.0902259.2558689.1928552.3791256.2956271.1597538.1332002.3088722.2773182.4528255.4267349.1815186.18841.353672.384758.505928.5985813.1422272.199743.2710438.4070861.3925133.6199629.1887589.3308032.3287067.6816204.4455223 1.042659.0831318.2569304.1422291.5199704.1855125.7860246.0221748.1362939.0324326.2747974.0468674.412436.0269661.257143.0124073.5144587.0165863.7716556 5054e-7.0309772-.0069141.0620823-.0106602.0931277-.0357285.0196257-.0471745-.012289-.0616817-.0314064-.1186714-.156405-.2373219-.3128328-.3557549-.4694214-.3171616-.4193435-.6323776-.8401556-.9508705-1.2584934-.0132236-.0173693-.0255871-.0350547-.0483093-.0408759-.0539742-.1518512-.105154-.3046827-.1692028-.4528399-.1298428-.3003473-.2942009-.5808668-.481741-.8484385-.1735344-.2475889-.3784752-.4677544-.5959225-.6761463-.1691799-.1621325-.3512383-.309602-.5452976-.4416375-.1322975-.1774764-.2648678-.3547566-.3985767-.5311661-.2384205-.3145605-.4765301-.6293519-.7134933-.9450119-.0579777-.0772324-.1201096-.1513799-.1736965-.231846C17.3816776.8844977 17.3608418.8662823 17.3799191.8403335z"/><path fill="#818181" d="M21.6616993 8.0616264c-.004694.0793962-.0423832.1491652-.066082.2228889C21.528511 8.4932537 21.444149 8.69557 21.3497086 8.8929892c-.0938568.1962013-.2028522.3847713-.3181629.5693779-.1299515.2080498-.2710686.4086838-.4287109.5962877-.130209.1549568-.2683849.3033304-.4131241.4455395-.1327438.1304207-.2714558.253746-.4135666.3735666-.0290337.0244827-.048233.0371056-.0810719-.0045252-.2420845-.3069096-.4874973-.6111946-.732708-.9156256-.0155392-.0192919-.0198803-.0303555.0020123-.0471487.1706657-.1309137.324688-.280324.4721889-.436039.1945724-.2054005.3682404-.4274254.5201187-.6668081.1724205-.2717581.3176727-.5566015.4312534-.857657.0537891.0213304.1115341.0182872.1670494.021163.1772137.0091796.3541927.0217886.5311508.0341439.1752872.0122375.3508797.0207195.5257568.0385504C21.6297264 8.0456314 21.6489811 8.0448923 21.6616993 8.0616264z"/><path fill="#fa9795" d="M11.6702986 8.0796556c.0618334.1303177.1164103.2639198.1857853.3908529.1676769.3067942.3560972.5988655.5891333.8609838.1856947.2088728.3816986.4067583.6013937.580163.0193548.0152769.0179234.0247345.0032139.043045-.1448565.1803083-.285697.3639536-.4346037.540822-.0408306.0484972-.0839701.0966387-.1279984.143157-.0321198 315e-7-.0442963-.0263367-.0596752-.0468531-.191885-.2559814-.3859091-.5103483-.578228-.7660036-.0991564-.1318102-.1987152-.2633324-.2983303-.394804-.0113144-.0149317-.0188684-.0379705-.0459318-.0287437-.0048618-8154e-7-.0084696-.0033693-.0109262-.0076132.002984-.04175-.0218019-.0701799-.045188-.1008291-.2482042-.3252831-.4930515-.6531191-.7406969-.9788189-.1529999-.2012262-.3013935-.4059429-.4580116-.6044188-.0030956-.003922-.0066538-.0074286-.0103693-.0107679-.031147-.1019225-.0506649-.2067666-.0667248-.3115191-.0303936-.1982641-.0523787-.3975177-.0650177-.5981607-.0133829-.2124805-.0026588-.4246664-.0070782-.6369224-6437e-7-.0308881.0068836-.0619464.0106297-.0929255.0393963.0018072.0543985.0347185.0734997.0602522.2106028.2815437.4233761.5614514.6351757.8420901.2700157.3577785.5406332.7151017.8102102 1.0732126C11.6423435 8.0515089 11.6508951 8.0706835 11.6702986 8.0796556z"
		/><path fill="#fa9b92" d="M11.6702986 8.0796556c-.0292892.0013714-.0408058-.0238628-.0538492-.0411444-.2371845-.3142514-.4727707-.6297092-.7095051-.9443026-.2466822-.3278136-.4940615-.6551032-.7418013-.9821181-.0148077-.0195475-.0355091-.0346313-.0534687-.0517912-.0016346-.1073065.0160027-.2131767.0275078-.3192186.0244408-.2253098.0687532-.4475722.1237793-.6673112.0716696-.286202.1679354-.5644917.2801847-.8372717.0011215-.0027275.0046091-.0044818.0069923-.006691.0393934.0384703.0695887.0845037.102354.1281223.2397985.3192377.4822979.6364393.7211208.9564099.0189619.0254049.0376701.0509663.0670052.0657544-.0036469.089674-.0324736.1750317-.0450134.2633185-.0204792.1441855-.0353813.288691-.0471525.4338608C11.337121 6.217 11.3411245 6.3565345 11.3423758 6.4960194c.0022726.2536392.0331268.5045776.0814753.7536316.0206232.1062403.0387573.2130423.0689993.3169498C11.5434628 7.7404914 11.6017971 7.9118724 11.6702986 8.0796556z"
		/><path fill="#fab57c" d="M21.6616993 8.0616264c-.1636639-.0106888-.3274841-.0194559-.4909554-.0325489-.2048168-.0164051-.4096832-.0310044-.6149235-.0412273-.0428066-.0021319-.0857258-.0085793-.1288719-.0087566-.0208664-863e-7-.035759-.0063763-.0390053-.0291514.1018791-.2808614.1814213-.5678034.2279263-.8631282.0223427-.1418943.0350628-.2849951.0458241-.4284387.0108414-.1445446.0087376-.2889514.0057011-.4331346-.008007-.3804345-.0669842-.7535763-.1753559-1.1186476-.0075359-.0253873-.013588-.0512152-.0203304-.0768385.0198326-.0271435.0308876-.00318.0400314.0088511.1253185.1648908.2499504.3303051.3746624.4956584.2324505.308198.4647007.6165495.6973362.9246078.0868683.1150346.1750431.2290878.2614021.344501.0118713.0158672.0216846.0290976.0431843.0265784-.0087624.1067219-.0143337.2138219-.0269585.3200846-.0250187.2105551-.0644646.4187584-.1149044.6247005C21.7227364 7.8716016 21.7041893 7.9702153 21.6616993 8.0616264z"
		/><path fill="#fab57c" d="M17.3799191.8403335c.0066853.0546489.0472736.0903102.0772877.130392.2650795.3539948.531683.7068504.798624 1.059448.1319695.1743157.2661209.346983.3975811.5216794.0121059.016089.0360374.0312316.0261326.0588388-.0811253-.0500584-.1617374-.1009712-.2434635-.1500285-.3594341-.2157569-.7393665-.3847907-1.1432133-.4987909-.2502899-.0706531-.5047398-.1204287-.7631035-.1502091-.0208111-.0083982-.0404263-.014942-.0559387-.0356572-.2490273-.3325422-.5001621-.6635022-.7497683-.9956138-.0165186-.0219793-.048317-.0454403-.0356236-.0720822.0134764-.0282855.0510588-.0106122.0776005-.0116262.10112-.0038633.2024403.0035924.3035688-.0039782.2023411-.0049263.4037342.0012648.6054306.0246156C16.9126873.7448349 17.1476307.7839784 17.3799191.8403335z"/><path fill="#faa08d" d="M11.4406185 5.3800936c-.0191441.0135574-.0283861.0015841-.0394621-.0130506-.0890121-.1176152-.1790762-.2344351-.2681389-.3520136-.1830997-.2417288-.3658304-.4837389-.5485191-.7257781-.0138206-.018312-.0307417-.0351162-.0343599-.0594444.0625839-.1640735.1404171-.3210392.2260132-.4739885.0726738-.1298611.1466017-.2591436.2283115-.3837023.058672-.0894372.114109-.1811638.1848879-.2620628.0307379-.00559.0383854.0215583.0513582.0384219.1408863.183151.2783041.3689463.4185867.5525446.0948477.1241326.185668.2513647.2846479.3723359.0042906.0052428.0070553.0111985.0083818.0178323-.1118355.2018886-.2176962.4064326-.3003263.6226521-.0741806.1941056-.1384115.3910313-.1888046.5925651C11.4569721 5.3312936 11.4482059 5.355546 11.4406185 5.3800936z"/><path fill="#fb7dac" d="M15.680172 8.3296747c.1396284.0375013.2810383.0416956.4238777.0239067.1525574-.0190001.2772236-.0846167.3643723-.214385.0488396-.0233603.1029835-.0252304.1546097-.0365105.3303204-.0721703.6599445-.1474862.9905224-.2184715.0146637-.003149.0293331-.0071468.0444431-.0047688.0189991.0029898.0321007.0107555.022953.0334163-.0153179.2156086-.0685196.420042-.1792393.6075077-.1147118.0354252-.2329617.0559559-.3498478.0820198-.6454315.1439266-1.2915707.2846546-1.9370356.4284325-.029213.0065069-.058835.0122299-.0847559.0286665-.2504902-.0927286-.4568262-.2423153-.6035728-.4686375.0157032-.0236788.0421591-.0252352.0659752-.0305901.3429375-.0770912.6864967-.1513834 1.0295105-.2281389C15.6410608 8.3278532 15.6604481 8.3224201 15.680172 8.3296747z"/><path fill="#f9c56d" d="M14.2888689 4.476244c.0164766-.2104063.0755396-.4072137.1875229-.5871212.0325079-.018836.0695829-.0224049.1051331-.0302432.7336912-.1617665 1.4676905-.3221388 2.2007799-.4866319.0159187-.0035722.0337715-489e-6.0477085-.0120666.1645985.0508862.3069592.1406782.4357548.2527432.0702457.0611198.1345177.1284027.1835194.2086475-.0070133.0326116-.0368938.0297894-.0589161.0350897-.174509.0419972-.3502445.0786264-.5253811.1179082-.2010021.045084-.4033031.0844698-.602541.1373386-.068037-.0049891-.133688-.0242543-.2018909-.0313282-.0963602-.0099945-.1893206.0018167-.2823668.0200167-.0957317.0187244-.1781187.063921-.245615.1350417-.0092802.009779-.0187426.0190206-.0326891.0216966-.077507.0014138-.1506481.0266309-.2254028.0424056-.3081055.0650182-.6146402.1372533-.922761.202251-.0130348.0027494-.0259495.0069499-.0393658.0063329C14.291831 4.5073819 14.2806101 4.4987059 14.2888689 4.476244z"/><path fill="#fa9597" d="M11.5003748 9.3997068c.0130749-.029973.0265598-.0234938.042717-.0017233.0819073.110363.1639967.2205954.246664.3303909.2190905.2909832.4384089.5817957.6581001.872324.0108652.0143671.026144.0253973.0393667.037981-.0656528.0837278-.1318636.1670303-.1965494.2514992-.015377.0200806-.0245428.0169067-.0433197.0034084-.0766287-.0550861-.1451263-.1197376-.2160006-.1813898-.1305351-.113554-.2523479-.2366333-.3712702-.3620358-.1681223-.1772823-.327424-.3620358-.4706163-.5609484-.1898365-.2637062-.3587141-.5399027-.5047493-.829505-.1444883-.2865362-.2599926-.5850849-.3502293-.8935719-.0332184-.1135612-.0668974-.2267976-.0931988-.3421493-.0017691-.0077577-.0010071-.0160933-.0014238-.0241599.056448.0179782.0746222.0731096.1055431.1138358.2283239.3007207.4536228.6037354.6806965.9054074.1453972.193161.2910261.3861771.439496.5769663.0255747.0328646.0491352.0600758.0345573.1034822-.0073566.0221653-.0129871.0447969-.0182486.067502-.0099525.0176544-.0086756.038147-.0144472.0482998 29e-7-.0105362.0090771-.027544.0128622-.0458202C11.4892225 9.4468441 11.4918518 9.4224291 11.5003748 9.3997068z"/><path fill="#faa38b" d="M11.9523258 4.091188c-.0721598-.057991-.1163607-.1389873-.1712942-.2108493-.1908121-.2496176-.3791437-.501132-.5687504-.7516739-.0057688-.0076225-.0152044-.0124698-.0229301-.0186112.0329342-.0746744.090168-.1327732.139986-.194706.1902151-.236479.4016628-.4537497.6195087-.6647813.005599-.0054238.0139713-.0079827.0210514-.0118775.0040216.0062408.0046101.0142381-2174e-7.0184639-.0430679.0377011-.0226955.0677159.0052919.104908.1939697.2577639.3897371.5141714.5829496.7725012.0199099.0266187.0421162.0511427.0636311.0763266-.1042719.1177738-.2146254.2302995-.3107729.355087-.1245623.1616642-.2425146.3279214-.3428612.5060589C11.9639368 4.0791035 11.9575768 4.0848341 11.9523258 4.091188z"
		/><path fill="#fab17f" d="M16.069603.6927059c-.0415649.0170835-.0849838.0063584-.1274605.0075907-.0680809.0019751-.1362658 1171e-7-.2043953 8697e-7-.0140467 1552e-7-.033247-.0079386-.041132.0076593-.0076752.0151822.0095758.027229.0176516.0380226.0861406.1151374.1739597.2290168.2605133.3438478.171113.2270166.3419161.4542677.5121145.68197.0121784.0162941.0280075.0266618.0428696.0389971-.2812576-.0322151-.5636358-.0174389-.8455143-.0173564-.1034727 303e-7-.2069426.0178552-.3104124.027563-.0246286.0097029-.0403767-.0011415-.0548811-.0208182-.2223177-.3016142-.4523716-.5974184-.6749868-.8988066-.0130997-.0177364-.0329876-.0347705-.0239849-.0619065.1384869-.0356637.2787371-.0633553.4196739-.0865991.3344364-.0551563.6714811-.0723824 1.0100698-.0626841C16.0563641.6912451 16.0629787.6921399 16.069603.6927059z"/><path fill="#fa9993" d="M16.5716267 6.7199469C16.571064 6.685307 16.5707569 6.6506591 16.569767 6.6160316c-2575e-7-.0090508.0041847-.0215731-.0085773-.0251641-.011591-.0032616-.0169544.0071392-.0224209.0153174-.0265274.0396619-.0498447.081686-.0848045.1151366-.0474186.0220766-.0996342.0251122-.1496258.0364141-.3827085.086513-.7663298.1689243-1.1493225.2541728-.0320463.007134-.0626373.0229416-.0969114.0189724-.1922626-.0512848-.3561659-.148303-.4855261-.3010268.0148954-.0241656.0407734-.0270948.064805-.032464.5782537-.1291866 1.1570539-.2559061 1.7356272-.3836503.4144325-.0915031.8286591-.1839523 1.243475-.2736983.0441914-.0095606.0608616-.0282645.0599155-.0735469-.0025368-.1214457-3796e-7-.2429743-.0012722-.3645353-.0016842-.133637-.0021877-.2672062 1354e-7-.4007792-.0025921-.1296606-.0010204-.2593265-6771e-7-.3889842 553e-7-.0209365-.0027676-.0441303.0189953-.0586271.0011368.0131397.0032616.0262794.0032673.0394201 1488e-7.4284439 1316e-7.8568878-725e-7 1.2853322-57e-7.0148163-.0021763.0296326-.003336.0444484.0030327.1064773-.0010967.2130251.0021553.319438.0011234.0367742-.0145016.0495377-.0468464.0561447-.1157703.0236487-.2307148.0511866-.3462505.0759478-.2196865.0470843-.4386787.0973258-.658392.1442561C16.6205273 6.7235932 16.5960312 6.7350135 16.5716267 6.7199469z"/><path fill="#faae82" d="M14.6199846.8403382c.0652399.1098716.1486053.2066554.2243729.3088593.1595182.2151756.3215942.4284551.4824257.6426585.0121355.0161629.0229673.0331172.0470438.0300127-.1296587.0243037-.2597332.0466499-.3889103.0733349-.236412.0488377-.4652014.1238581-.691411.2071334C14.2716246 2.107219 14.2653189 2.0886426 14.256114 2.07623c-.2055998-.2772309-.4169178-.5501595-.6222658-.8275729-.0149984-.0202594-.0394096-.0386083-.0251904-.0700072L13.608386 1.1793164c.0148706-.0028701.0285492-.0087115.0414009-.0166111.1277552-.0643864.2628012-.1104723.3973732-.1576091C14.234952.9393185 14.4254484.8827633 14.6199846.8403382z"/><path fill="#faa18d" d="M17.6886349 5.6101899c4177e-7.1298389-1869e-7.2596946.002018.3895035 5074e-7.0299664-.0122223.0422955-.0377522.0479255-.2599964.0573497-.5199566.1148653-.7800293.171874-.2180634.0477986-.4363136.0947433-.6543865.142499-.3779535.0827656-.7559748.1652336-1.1336823.2491117-.1710939.0379958-.3415041.0790715-.5122242.1187506-.1004438-.1099977-.1681967-.2381358-.2109642-.3801374.0169668-.0316157.0505152-.0295429.0782747-.0358801.2368889-.0540824.4748125-.1035295.7117138-.157589.1184244-.0270238.2376518-.0505185.3553085-.0808711.024456-3743e-7.0389376.0168467.053895.0320053.0628538.063695.1398783.09903.2263269.1178741.1404696.0306215.2804251.0295968.4194269-.0061727.1650333-.0424671.2708302-.1474667.3202057-.310266.0069637-.0229621.0053082-.050806.0319138-.0643191.3479843-.0750027.6955299-.1519718 1.043066-.2289901C17.6300297 5.6092386 17.6586285 5.5940337 17.6886349 5.6101899z"/><path fill="#faaa84" d="M13.6086578 1.1786498c.0208349.0651662.0712767.1110007.1102619.163637.1851892.2500401.3733797.4978588.560627.7463741.0038729.0051408.009264.0091386.0139532.0136733-.1331587.0593991-.2687588.1139524-.3988762.1794064-.1658497.0834291-.3275957.1750951-.4823923.2782564-.0067015.0044653-.014617.0071106-.0219669.0106037-.0336151.0135672-.0433006-.0157392-.0574846-.0337405-.1225882-.1555946-.2383709-.3163614-.3588371-.4735668-.0911083-.1188948-.1803246-.2392138-.2716103-.3579649-.0061054-.007943-.0126925-.0154639-.0146303-.0257112.1210566-.0875655.2512655-.1600821.3810568-.233482.1377611-.0779074.2788372-.1492215.4214678-.2175429C13.5288239 1.2101052 13.5691338 1.1951991 13.6086578 1.1786498z"
		/><path fill="#faa887" d="M12.6877022 1.6796174c.0670366.0535719.1071882.1292826.1582489.1956383.1712809.2225894.3390408.4478878.508112.6721774.0092468.0122647.0192871.0230124.0362015.0231676-.0887041.0634954-.1803808.122704-.2660875.1905529-.1650333.130646-.323.2689595-.4691629.4205732-.0102301.0106113-.0222664.0194812-.0334635.0291612-.0228996-8254e-7-.0351572-.017498-.0469952-.0332563-.2063818-.2747173-.4086723-.5526526-.6215105-.8222668-.0492344-.0623677-.0048599-.0806179.0168524-.1166747C12.1918459 2.0300989 12.4254322 1.8364475 12.6877022 1.6796174z"/><path fill="#fb77b1" d="M15.1300716 9.0594883c-.0105925-.0319834.0166836-.0263433.0314817-.0297585.1740112-.0401535.3480349-.0802917.5223904-.1189156.2162895-.0479155.433013-.0938845.6493406-.1416311.3713264-.0819578.7424641-.1647768 1.1138191-.2466021.0175152-.0038586.0363731-.0016136.0546074-.0022116-.0250015.0403194-.047348.0825987-.0754337.1206408-.1874695.2539129-.4470825.3971033-.7455673.4767418-.305233.08144-.6165962.0950384-.9303904.0743456-.2033195-.0134096-.402113-.0489435-.5937643-.1198921C15.1474113 9.06882 15.1388855 9.0637655 15.1300716 9.0594883z"/><path fill="#f9cb69" d="M16.8300133 3.3601809c-.0223064.0340285-.0613918.0309446-.0935555.0382359-.2517624.0570743-.5041008.1116152-.7562656.1669171-.358839.0786963-.717701.1572833-1.0765104.2361133-.1228619.026993-.2457485.0539222-.3682356.0825429-.0199928.0046716-.0391006.0064261-.0590515.0051329.0731354-.1377089.1811132-.2448516.3033085-.3378613.2227364-.1695361.4800406-.2564602.7530136-.2976401.3653708-.0551176.7300091-.0494533 1.0906563.0383155C16.6936283 3.3090353 16.7612019 3.3371487 16.8300133 3.3601809z"
		/><path fill="#f9be74" d="M14.2888689 4.476244c.0025988.0238996.0151339.022645.0351343.0181737.2857342-.06387.571723-.126595.8576212-.189733.0904465-.0199747.1809301-.0398107.2710915-.0610147.0178957-.0042086.0326204-.0010514.0477352.006783.0054998.0138984 839e-7.0261979-.006382.0378618-.0631371.1138973-.0794058.2377915-.0802107.3655229-247e-6.0392337.008872.0798345-.0104256.1175909-.0662575.0286555-.1379719.0360026-.2074747.051425-.2828579.0627632-.5655241.1264243-.8488684.1869569-.0231647.0049491-.0510187.0229588-.0717649-.0077171.0020962-.1250253-.0046453-.2500677.0036411-.3749638C14.2777843 4.57654 14.275733 4.5258942 14.2888689 4.476244z"/><path fill="#fb84a5" d="M17.6809502 7.9128618c-.004982-.0304904-.0265808-.0241346-.0459671-.0198393-.3190155.0706677-.6377811.142498-.9571037.2117395-.0689983.0149603-.1368313.0403175-.2094574.0344343.0861912-.1592917.0983505-.333581.1032028-.5093513.0140114-.0140743.0330791-.0141735.0506744-.0181479.330286-.0745883.6613846-.1455159.9917927-.219552.0251961-.0056453.0509949-.0174503.077446-.0034065.0057125.0140729.002243.0288138.0032063.0432391-8278e-7.0684543.0016956.1369195-.0013008.2053499C17.6999493 7.7296562 17.6942387 7.8214312 17.6809502 7.9128618z"/><path fill="#f9bd74" d="M16.2594261 4.1005621c.1981277-.0587649.4017944-.0937161.6028652-.1397936.1835403-.0420601.3675747-.081965.5512619-.1233914.0124664-.0028112.0238476-.0104251.0357342-.0158052.0947418.128176.1574421.2707481.1915016.4261866.0052433.0500302.0024853.0539398-.05443.0666771-.2275314.0509162-.4550724.1017833-.6830006.1508985-.0927963.0199957-.1852112.0417347-.2780895.0613647-.0294304.0062203-.0570984.0079556-.0713749-.0264683-.0162373-.0330644-.0198231-.0698819-.0299911-.1048002-.0355892-.1222272-.1125278-.2075863-.2259636-.2625856C16.283083 4.1256428 16.260294 4.1254144 16.2594261 4.1005621z"/><path fill="#faaf81" d="M14.278966 4.6271296c8087e-7.1276517.0016184.2553034.0024271.3829546.0159683.0200801.0130205.0440354.0130949.0670767 3519e-7.1098037-725e-7.2196097 2422e-7.3294134 1745e-7.0606389.0047321.0643444.0627623.0513988.3198891-.0713563.6403189-.1402578.9601164-.2120337.0299044-.0067129.0617018-.0201211.0890226.0082207.0065393.0119672.0085268.0250564.0086489.0382886.0011511.12534.0013132.2506819-744e-7.3760214-1287e-7.0115743-.0019617.0230036-.0063963.0337906-.0104418.0206418-.0314274.0233297-.0504398.0276642-.3371859.0768723-.675231.1498637-1.0129576.2242918-.0296535.0065346-.0620832.0143909-.0636292-.0337949-.0028982-.0565171-.0081749-.1130295-.0083065-.1695528-8097e-7-.3482199-576e-6-.6964421-2565e-7-1.0446634C14.2732449 4.679832 14.2690115 4.6528859 14.278966 4.6271296z"/><path fill="#fa9299" d="M17.6918716 7.4298644c-.0010738-.0133219-.0021458-.0266442-.0032158-.0399661-.0160351-.0200315-.0129948-.0439758-.0130844-.0669785-3872e-7-.0997024 458e-7-.1994081-2384e-7-.2991114-1888e-7-.0660963-.0039349-.0693808-.0684338-.0549846-.3211193.071671-.6427498.1410294-.9638634.2127199-.0236225.0052738-.0480556.0173526-.0714016-.0016437-19e-7-.1533179-38e-7-.3066354-76e-7-.4599538.2272396-.0499525.4544735-.0999293.6817207-.1498489.1370182-.0300999.2738457-.0611329.4112453-.0893807.0307026-.0063133.0248623-.025774.0251369-.0444598.0015316-.1044974.0025406-.209002.0037193-.3134961.0011559.0131655.003334.0263209.0033398.0394783 1869e-7.4093184 1965e-7.8186359 172e-7 1.2279544-76e-7.0131588-.0022888.0263162-.0035095.039474L17.6918716 7.4298644z"/><path fill="#faaf80" d="M17.6935806 4.7535686c-.0012093.1290417-.0023899.2580843-.0036621.3871255-1945e-7.0198703-8259e-7.0397363-.0012531.0596037-.0152416.0206923-.0386906.0247555-.0614128.0298014-.3334465.0740457-.667017.1475229-1.0007286.2203579-.0213203.0046525-.0453339.0180259-.0643082-.0069485-.0092068-.0204248-.0080166-.0421872-.0080624-.0636606-2403e-7-.111074-2575e-7-.2221484 57e-7-.3332224 458e-7-.0198569-452e-6-.0398784.0070534-.0588298.0166168-.0280094.0468502-.0296335.0736446-.0354528.3132858-.0680437.6258278-.1394901.9393387-.2065058.0081215-.0017362.0162716-.0033402.0243778-.0051532.0680637-.0152211.0680771-.0152164.0784626-.0830226.0017738-.0115876.0036182-.0230994.0143356-.0304594C17.7007999 4.6691723 17.6981049 4.7113543 17.6935806 4.7535686z"/><path fill="#fb84a6" d="M15.680172 8.3296747c-.2616472.0695143-.5282869.1170321-.7915287.1795664-.1203814.0285969-.2414055.0544891-.3621416.0816088-.0975018-.1393118-.1578608-.2938776-.1891193-.4603958.022212-.021142.0522461-.0201788.0791559-.0263062.2920942-.066514.5850306-.1292439.877636-.1934566.0246048-.0054002.0600863-.0292091.0738125.0186887.012455.0530186.0237417.1062541.0453615.1567559C15.4654846 8.2079182 15.5606575 8.2819929 15.680172 8.3296747z"/><path fill="#f9b879" d="M17.6913719 4.627202c-.0053024.1119418-.0058956.1091413-.1240139.1341352-.2146969.0454297-.4285774.0947237-.6428719.1420622-.1175423.0259647-.235239.0512276-.3528652.076807C16.5512295 4.96245 16.554842 4.9379582 16.5542393 4.9151607c-.003376-.1279588.0057564-.2561021-.0057373-.3839622-.001358-.0151033-288e-6-.0301485.0130329-.0409203.0104828.0238214.0231304.0312929.0530319.0245848.3267269-.073297.6540089-.1441207.9812088-.2153068.0286789-.0062394.0505142-.0166764.0450115-.0517917C17.6782722 4.371491 17.6927776 4.4982858 17.6913719 4.627202z"/><path fill="#fb8aa0" d="M16.5716343 7.1799002c.108202-.0231895.2164726-.046061.3245888-.069633.2503071-.0545692.5007229-.1086636.7505989-.1651406.0369473-.0083508.0436802.0031118.0433998.0354815-.0011864.1364241-.0011425.2728577-.0015564.4092889-.2415867.0533381-.4831657.1066732-.7247429.1600127-.1079407.0238328-.216095.0467577-.3236427.0722408-.0230694.005466-.0454865.0076637-.068655.0076947C16.5716286 7.4798636 16.5716324 7.3298817 16.5716343 7.1799002z"/><path fill="#fb8ba0" d="M15.3679867 7.9293799c-.0105743-.0174551-.0243979-.0147548-.0421352-.0108242-.1597013.0353942-.3198481.0687695-.4795752.1040454-.1548948.0342093-.3094091.0701418-.464222.1047297-.0144024.0032177-.0297546.0021839-.0446682.0031233-.0438156-.1726356-.042861-.3490267-.0443954-.5252447-1698e-7-.0195193.0080032-.0273585.0268707-.0259404.0066223 4983e-7.0133152 348e-7.0199757 348e-7.3247185-33e-7.6494408 6585e-7.9741516-905e-6.0375023-1812e-7.0476217.0094457.0467739.0468636C15.3584709 7.7266393 15.3565741 7.8282337 15.3679867 7.9293799z"/><path fill="#faa887" d="M14.2817831 5.9204216c.009635.0213137.0192318.0292397.0481806.0226417.2510109-.0572124.5027819-.1110907.7543831-.1657071.1047354-.0227346.2096033-.0448532.3144121-.0672517.02139.0224376.0197449.0523653.0224447.0793653.0087147.0871086.0318613.168963.0772543.2442245.0083981.0139236.0187922.0279751.0116472.0461082-.0484695.0368838-.1090736.0350523-.1641703.0479603-.2215786.051909-.4444065.0984654-.6666164.1477075-.1061754.0235295-.2135954.0418406-.3177042.0742464C14.3111734 6.2110491 14.2879629 6.0673184 14.2817831 5.9204216z"/><path fill="#fa9498" d="M15.0581045 7.0308809c.0807333-.042161.1713705-.0488567.2578077-.0691223.2186203-.0512562.4386768-.096365.6580124-.1446004.1419048-.0312071.2834663-.063972.4254246-.0949349.0174389-.0038033.0363693-7687e-7.0546112-9017e-7-.1224766.1589913-.285593.2588706-.475421.3130794-.2979193.0850763-.5980949.0814738-.8978806.0058494C15.0728502 7.0382805 15.0656109 7.0340543 15.0581045 7.0308809z"
		/><path fill="#fb8aa0" d="M17.6918716 7.4298644c0 0 .0014324-195e-6.0014286-1965e-7.0060406.0692201.0057735.1384459 1507e-7.2076674C17.6865482 7.5682211 17.6897087 7.4990392 17.6918716 7.4298644z"
		/><path fill="#faaa84" d="M13.6497869 1.1627053c-.0091219.0171713-.0241261.0197047-.0413933.0166179C13.6194038 1.1668476 13.6345644 1.164698 13.6497869 1.1627053z"/><path fill="#292929" d="M15.5101051 6.0798025c-.0794487-.1104846-.1026373-.2379117-.1113462-.369698-1268e-7-.1533108-2537e-7-.306622-3796e-7-.4599328-.0137863-.0165362-.0141592-.0366068-.0142422-.0564666-5093e-7-.1223354-5083e-7-.2446718-19e-7-.3670077 83e-6-.0198617 474e-6-.039927.0142345-.0564728.0045052-.089663-.001709-.1796341.010766-.2691407.012598-.0903788.0427494-.1736898.0913153-.2506309.1408768-.1681585.3325624-.1902452.5335569-.1855268.0767269.0018015.151289.0173717.2254181.0356359.1798458.0685644.27104.2058396.3021088.3897157.0160179.1630497.0039024.3266778.0100861.4899292 38e-7.1566381 76e-7.3132768 95e-7.4699144.009985.012074.0132198.0265145.0132084.0415511-687e-7.0888786.0044212.1778097-.0025349.2665925-.0049057.0195627-.0100193.0391436-.0094109.0596509-.0015602.0114627-.0038795.0225987-.014534.0296035-.0021057.0044394-.0051174.0086718-.0061836.0133486-.0521603.2288766-.1835041.3523493-.4158993.3877783-.1293278.0197163-.2580404.0154305-.3851852-.0181832C15.655117 6.2050905 15.5763512 6.1525435 15.5101051 6.0798025z"/><path fill="#fa9795" d="M11.4801388 9.4694977c-453e-6-.0253649.0034018-.0494976.0200205-.0699787-1e-6.0 2127e-7 185e-6 2136e-7 1869e-7 4883e-7.0253744-.0034771.0494785-.0199642.0700121L11.4801388 9.4694977z"/><path fill="#fa9795" d="M11.4804087 9.469718c.0015297.0216894-.0035372.041791-.016284.0644903-.0068188-.0273876.0031271-.0463963.0160151-.0647106C11.4801388 9.4694977 11.4804087 9.469718 11.4804087 9.469718z"/><path fill="#faa887" d="M16.569088 5.7673674c8488e-7-.1057487.0016956-.2114978.0025425-.317246.240242-.0534086.4805202-.1066589.7207108-.1602893.1321888-.0295157.2642326-.0596719.3963318-.0895367-114e-7.136632-153e-7.273262-286e-7.4098935-.256773.0566983-.5135231.1134548-.7703056.1700664-.1114368.0245695-.2229843.0486364-.3343353.0735793-.0106812.0023913-.0192528.0047989-.0256424-.0063138.0011864-.0093126.0023746-.0186243.0035629-.0279355C16.5695457 5.802897 16.5604534 5.7839165 16.569088 5.7673674z"/><path fill="#f9b779" d="M15.3983698 4.7702246c19e-7.1599822 57e-7.3199649 95e-7.4799471-.0819378.0013356-.1590853.028676-.2379255.0456939-.2744131.0592308-.5480795.1219068-.8221397.1827869-.0578842.0128584-.0582771.01191-.0581446-.0496702 2966e-7-.1396308 7906e-7-.2792625.001214-.4188957.2577133-.0566068.5154181-.1132107.7731218-.1698155.0982618-.0215836.1964741-.0434031.294836-.0645189C15.3653412 4.7723169 15.3820105 4.7719884 15.3983698 4.7702246z"/><path fill="#faa18d" d="M16.5690861 5.7673674c-9518e-7.0176029.006794.0363994-.0071621.052218C16.560976 5.8017216 16.5600891 5.7838669 16.5690861 5.7673674z"/></g></svg>