<svg id="Слой_1" xmlns="http://www.w3.org/2000/svg" xmlns:xlink="http://www.w3.org/1999/xlink" viewBox="0 0 32 13" enable-background="new 0 0 32 13" width="32" height="13"><g><path fill="#292929" d="M18.1450405 12.4578848c-.0292149.007575-.0587883.0141439-.0849705.0302391-.0550728.0131359-.105341.0420494-.1621819.0493774l.0011635-7772e-7c-.0219002.0127239-.0473843.013483-.0707836.0212049l.0010548-6123e-7c-.0225582.0110893-.047411.0140953-.0713692.0202589l.0011559-7591e-7c-.1622124.0485296-.3275127.0837984-.4932194.1180086-.0972881.0200872-.1955452.0351152-.2930088.0538216-.0654278.012557-.1331615.0230713-.2007618.0269518-.0393047.0022554-.0784111.0081501-.1174946.0116978-.1132126.010273-.2257118.026247-.339901.0170574-.0195446-.0015745-.0399342-.003705-.0592651.0038099-.1703053 19e-7-.3406096 48e-7-.5109148 67e-7-.0478554-.0065079-.0957623-.0080938-.143384.0011883-.0133533.0026026-.0264044.0035696-.0395603.0014486-.1204462-.0194139-.2431192-.0179224-.3634224-.0363426-.2104225-.032218-.4205189-.0671463-.6283293-.1139069-.1103878-.0248394-.2209854-.0492191-.3289442-.0837631l.001152 7715e-7c-.0239601-.0061598-.0488262-.0091267-.0713701-.0202742l.0010509 6247e-7c-.0234079-.0076942-.0488844-.0084791-.0707922-.0211868l.001153 7753e-7c-.0568371-.0073347-.1070995-.0362501-.1621714-.0493813-.0299091-.0096588-.0598183-.0193157-.0897274-.0289736-.0333185-.0225725-.0793333-.0098982-.1100683-.0396423-.0100746-.003768-.022933 6781e-7-.0305471-.0103502-.0157518-.0083046-.034956-.0078726-.0493889-.019515-.1216364-.0400953-.2382765-.0927019-.3554335-.1437616-.0686264-.029911-.1350336-.0649137-.2024393-.0976238-.0156231-.0023336-.0292139-.0093756-.0420589-.0181465-.0140438-.0068483-.0280876-.0136957-.0421305-.0205441-.0216103-.0053806-.0426331-.0119114-.0579557-.0296001-.2062674-.1081915-.4073582-.2253819-.6022701-.3527946-.151392-.0989628-.2998638-.2023096-.4393873-.3178453-.0126629-.0098534-.0238075-.0216875-.0382061-.0292768-.2389631-.1884699-.4610338-.3957186-.6688166-.6174803-.1732712-.1849279-.3380527-.3773031-.488512-.5822563-.1149483-.1565838-.2231035-.3174267-.3247919-.4822731-.0713406-.1156511-.1348619-.2365522-.199935-.3562393-.0810852-.1491375-.1524792-.3025789-.2177973-.4586506C9.9151716 8.7271471 9.8574276 8.568099 9.8026342 8.4077682 9.7400856 8.2247467 9.6895275 8.0384741 9.6438904 7.8513813 9.6131773 7.725472 9.5917511 7.5963039 9.5704823 7.4676609c-.0180988-.1094694-.0264158-.2202682-.0484819-.329164C9.5169878 7.1137557 9.5249195 7.0859275 9.5187159 7.0597324c-.0082979-.0201187.0024605-.0425239-.007493-.0624433C9.5104151 6.9814458 9.5096073 6.9656029 9.5087996 6.94976 9.5003281 6.9255452 9.5109873 6.8994327 9.5014143 6.8753271c-8955e-7-.0251837-.001791-.0503678-.0026865-.0755515C9.4893751 6.7622867 9.502223 6.7233644 9.4913797 6.6859717 9.4913778 6.5253334 9.491374 6.3646955 9.4913712 6.2040572c.0108595-.037396-.0019999-.0763245.0073566-.1138182 8945e-7-.0251846.0017881-.0503693.0026817-.0755544.0095835-.0241036-.0010843-.0502167.00739-.07443 8078e-7-.0158453.0016146-.0316906.0024223-.0475354.0099564-.0199175-8049e-7-.0423207.007494-.0624371.0105963-.1013184.0157499-.2035775.033062-.3037353.0262432-.1518235.052597-.3036609.0876799-.4540854.043395-.1860619.0920706-.3701582.150568-.552072.0552902-.1719403.1158381-.3421092.1872864-.5074911.0683279-.1581566.139349-.3153191.2224121-.4673131.1216316-.2225723.2472115-.4424021.3915405-.650831.1254673-.1811898.2592258-.3557835.4036055-.5232787.1590881-.1845574.3255367-.3612671.5019445-.5284904.1397762-.1324977.2844343-.2601042.44065-.3736656.0118885-.0086427.0219631-.0197812.0328798-.0297598.0147762-.0071292.025692-.0194429.0387726-.0288495.1554985-.1191846.3155642-.2324184.4828548-.3338773.4849405-.2941092.9961653-.5313181 1.5390148-.6990496.702939-.2171962 1.4222927-.3173429 2.1570282-.294036 1.2825909.0406857 2.4600582.4131892 3.5240974 1.1348555.0927753.0629246.1837025.1285738.2754898.1929569.0161896.007419.0290737.0191358.0412788.0317359.0123768.0179669.0289612.0304685.0493736.037997.0152931.0086344.0292072.0189769.0403957.0326836.1038513.0950267.2144623.182178.3183975.2773117.1364384.1248851.2672462.255326.3937054.3898051.151989.1616232.2926788.3332269.4254665.511241.2456665.3293362.4593601.6780427.6366959 1.0486722.2010136.420105.3561707.8561478.4577866 1.311317.0527363.2362137.0955315.4736362.1192513.7144947.0020962.0213208.0074749.0423188.0113297.063467.0083313.0200701-.0025196.0424552.0075245.0623188 7954e-7.0158896.0015926.0317788.0023918.0476685.0084763.0242-.0021877.0502977.0073757.0743904 8926e-7.0251966.0017834.0503936.0026779.0755901.0094109.0374279-.0035152.0763049.00737.1136379 19e-7.1607394 38e-7.3214779 76e-7.4822173-.0108986.0373383.0020332.0762229-.0073776.113657-8888e-7.0251923-.0017796.050385-.0026722.0755773-.0095692.0240993.0010853.0502019-.0073738.0744114-8011e-7.0158801-.0016003.0317612-.0023975.0476413-.0100479.0198684 8049e-7.0422597-.0075264.062335-.0407467.3333025-.0937061.6642303-.1812134.9891152-.1203022.4466352-.2850933.8757248-.5000362 1.2853365-.1864204.355258-.4046803.6894827-.6532383 1.0048866-.2072811.2630224-.4371624.5042639-.6801758.7333374-.1119308.1055117-.2317314.2026787-.3479652.3036289-.0111923.0137129-.0251102.0240574-.040411.0326939-.0990353.0714073-.1977749.1432314-.2971687.2141371-.2414703.1722584-.4957638.3231497-.7594872.4588146-.2119789.1090431-.4291344.2059164-.6518936.2905235-.0106373.0040388-.0199566.0115461-.0298882.0174389-.0159283.0120039-.0354137.0135317-.0538082.0182734-.0117016-.0028811-.0179119.0066185-.0261288.0115919C18.2269707 12.4483891 18.1816006 12.4399614 18.1450405 12.4578848z"/><path fill="#fefefe" d="M14.2409039 12.5767946c.169796.0386438.3382797.0826683.5097151.1145782.3125992.0581875.6271486.0973606.9449272.1101437.0163765 659e-6.0326309.0043573.0489702.0066471-.0543337.0060558-.1095276-.0087748-.1629934.0255356-.0255079.0163689-.0719414.019002-.0986891-.0191383-.0139294-.0198584-.0288906-.0193453-.0451536-.0027437-.0034189.0034924-.0078392.0060835-.0120163.0087481-.0401745.0256252-.0675745-.0273523-.0880003-.0223227-.0307302.0075665-.0542068.0367298-.0830603-.0013256-.0049067-.0064697-.0129642-.0187473-.0177841-.0133753-.0500498.0557804-.082737-.0275965-.1269436-.0151501-.0031309 8821e-7-.0099726-.0079575-.01192-.0068264-.0867586.0504389-.1521187-.0315342-.23102-.0394869-.1960297-.0197601-.3869038-.0749016-.5782022-.1232405C14.2716894 12.5945301 14.252141 12.5942793 14.2409039 12.5767946z"/><path fill="#fefefe" d="M16.2554588 12.8081636c.1175041-.0091248.2350807-.0173988.352499-.0275316.3765068-.0324879.7470245-.0991564 1.1121254-.1964159.0127583-.0033998.0260048-.0049706.0390263-.0073967-.0298119.0279284-.0702095.0248928-.1057835.0357103-.1500454.0456295-.3052616.0699816-.4574738.1068316-.0598221.0144825-.1239891.0178919-.1854591.0331755-.0155067.0038557-.0204296.013072-.0303936.0196457-.0107841.0071115-.024065.020793-.0354195.0119514-.0477734-.0371971-.0829792 6123e-7-.1261692.0102749-.0385914.0086355-.0857296.0259905-.1186943.0187988-.0343246-.0074902-.0543919-.0140276-.0777683.0130768-.0024624.0028553-.010685.0040913-.0141621.0022211-.0462475-.0248594-.0867348-.0210266-.1330147.0079594-.0220165.0137911-.0580807.0024347-.0880184-.0172806C16.3482475 12.7938271 16.2993565 12.8146086 16.2554588 12.8081636z"/><path fill="#fefefe" d="M18.1450405 12.4578848c.0366249-.0177269.0746479-.0312805.1148281-.0383768.0038528.0334682-.0118942.0491476-.0426426.0362225C18.1910019 12.4447031 18.1690712 12.4643784 18.1450405 12.4578848z"/><path fill="#fefefe" d="M13.7401304 12.419508c.0387363.0075331.0766687.0172968.1100683.0396423-.0255108-1831e-7-.0492153-.0116434-.0769939-.0018301C13.7431316 12.4679441 13.7384453 12.443572 13.7401304 12.419508z"/><path fill="#fefefe" d="M13.9399261 12.4881239c.0561399.0096159.1093826.0287371.1621647.049386C14.0390673 12.5505075 13.9936161 12.5057907 13.9399261 12.4881239z"/><path fill="#fefefe" d="M17.8978882 12.5375013c.0527954-.0206108.1060352-.0397701.1621819-.0493774C18.0063763 12.5057907 17.9609241 12.5505142 17.8978882 12.5375013z"/><path fill="#fefefe" d="M12.9601765 12.0799665c.0230856.002492.0426245.0119267.0579557.0296001C12.9868641 12.1230927 12.9575176 12.1328545 12.9601765 12.0799665z"/><path fill="#fcfcfc" d="M9.4913797 6.6859717C9.5011969 6.7234311 9.499342 6.7616434 9.4987278 6.7997756 9.4817314 6.7627802 9.493187 6.723948 9.4913797 6.6859717z"/><path fill="#fcfcfc" d="M22.5012531 6.7997651c-6618e-7-.038075-.0024052-.07622.0073776-.1136374C22.5067406 6.724031 22.5183334 6.7628284 22.5012531 6.7997651z"/><path fill="#fcfcfc" d="M22.5086231 6.2038908c-.0097694-.0374055-.0080338-.0755568-.00737-.1136389C22.5183296 6.1271839 22.5067501 6.1659737 22.5086231 6.2038908z"/><path fill="#fcfcfc" d="M9.4987278 6.090239c6104e-7.0381222.0024986.0763273-.0073547.1137958C9.4931974 6.1660776 9.4817257 6.1272383 9.4987278 6.090239z"/><path fill="#fefefe" d="M18.2859974 12.4079161c.0165558-.0101595.03368-.0186396.0538082-.0182734C18.3288307 12.4162292 18.3084259 12.4150467 18.2859974 12.4079161z"/><path fill="#fefefe" d="M13.6601944 12.3896427c.0188046 5798e-7.0362034.0047159.0493889.019515C13.6871862 12.4176693 13.6702623 12.4123297 13.6601944 12.3896427z"/><path fill="#fefefe" d="M17.7579536 12.5775757c.0222969-.0120058.0463181-.0179386.0713692-.020257C17.8092728 12.5772419 17.7845993 12.5808821 17.7579536 12.5775757z"/><path fill="#fefefe" d="M14.1706858 12.557292c.0250082.0024605.04914.0080051.0713644.0202789C14.2154045 12.5808773 14.1907234 12.5772562 14.1706858 12.557292z"/><path fill="#fefefe" d="M17.8282681 12.557929c.0219479-.0125618.0460129-.0180511.0707817-.0212021C17.8796024 12.5576239 17.854702 12.5603371 17.8282681 12.557929z"/><path fill="#fefefe" d="M14.1009445 12.5367298c.0247612.003171.0488443.0085983.0707874.0211906C14.1452961 12.5603533 14.1204033 12.55762 14.1009445 12.5367298z"/><path fill="#fcfcfc" d="M22.4985752 6.0146627c-.009882-.0240607-.0082188-.0492663-.0073776-.0743904C22.5076065 5.9636855 22.4969749 5.9897804 22.4985752 6.0146627z"/><path fill="#fcfcfc" d="M9.5087996 5.9402547c864e-6.0251231.0025692.0503297-.0073843.0744052C9.5030289 5.9897909 9.4924154 5.9636827 9.5087996 5.9402547z"/><path fill="#fcfcfc" d="M22.4912071 6.9497538c-864e-6-.025116-.0025139-.0503101.00737-.0743871C22.4969749 6.9002309 22.507597 6.9263306 22.4912071 6.9497538z"/><path fill="#fcfcfc" d="M9.5014143 6.8753271C9.5113668 6.8993945 9.5096626 6.9246192 9.5087996 6.94976 9.4924154 6.9263301 9.503027 6.9002223 9.5014143 6.8753271z"/><path fill="#fcfcfc" d="M9.5187159 5.8302822C9.5200567 5.851552 9.5199356 5.8726459 9.5112209 5.8927131 9.5125065 5.8717613 9.5033751 5.8495536 9.5187159 5.8302822z"/><path fill="#fefefe" d="M13.0602627 12.1301088c.0173359-.0016346.0297279.0081863.0420589.0181484C13.0799475 12.1615677 13.0699577 12.1461802 13.0602627 12.1301088z"/><path fill="#fcfcfc" d="M12.0091171 1.4107105c-.0076437.0167118-.0204563.026477-.0387726.0288495C11.9794779 1.4248492 11.989749 1.4116685 12.0091171 1.4107105z"/><path fill="#fcfcfc" d="M11.8803129 11.3800497c.0186224.002079.0303993.0130882.0382061.0292768C11.8993292 11.4079895 11.8891325 11.3949184 11.8803129 11.3800497z"/><path fill="#fcfcfc" d="M20.0782433 11.4087286c.0134697-.0108976.0269413-.0217962.040411-.0326939C20.1126995 11.3962212 20.1002884 11.4084272 20.0782433 11.4087286z"/><path fill="#fcfcfc" d="M9.5112228 6.9972892c.0087252.0200672.0087996.0411725.007493.0624433C9.5033712 7.0404592 9.5125074 7.018249 9.5112228 6.9972892z"/><path fill="#fcfcfc" d="M20.0288811 1.4432961c-.0137615-.0105783-.0275192-.0211569-.0412788-.0317359C20.0098896 1.4110488 20.0221004 1.4236393 20.0288811 1.4432961z"/><path fill="#fcfcfc" d="M20.1186504 1.5139765c-.0134659-.0108945-.0269299-.0217891-.0403957-.0326836C20.1002979 1.4815856 20.1126957 1.4937991 20.1186504 1.5139765z"/><path fill="#fcfcfc" d="M22.4888039 5.8926039c-.0086689-.0200295-.0088482-.0410838-.0075207-.0623198C22.4966145 5.8495102 22.4875011 5.871686 22.4888039 5.8926039z"/><path fill="#fcfcfc" d="M22.4812832 7.0597301c-.0013256-.0212383-.001152-.042295.0075283-.0623293C22.4874916 7.0183177 22.496624 7.0405011 22.4812832 7.0597301z"/><path fill="#622bfb" d="M13.0493803 1.4591597c.2047205-.1185313.4181585-.2184572.6352463-.3126749.3109531-.1349571.6318426-.2360531.9610739-.3129899.2233477-.0521936.4493275-.0873828.6770773-.116177.3149996-.0398248.6304989-.0205851.9457827-.0260621.1824245-.003169.3624611.0228428.5432396.044062.2483349.0291489.4909153.0837942.7324562.1449255.2281799.0577496.4514103.1321591.669199.2205672.1562366.0634227.3084297.1373816.4598503.2118737.0937729.0461309.1890221.0905284.2760448.1495471-.0038357.0258262-.0249805.0286462-.0444584.0322137-.0213642.0039128-.0432014.0026106-.0648556.002611-1.8931885 437e-7-3.786375 407e-7-5.6795616-68e-7-.0233164-6e-7-.0468922.0016679-.0697889-.0032611C13.071497 1.4896574 13.0499706 1.4863342 13.0493803 1.4591597z"/><path fill="#642cfa" d="M13.0493803 1.4591597c.0204887.0271841.0502787.0214428.0780411.0214471.8529062 1321e-7 1.7058125 108e-6 2.5587196 108e-6 1.0611353.0 2.1222715 18e-6 3.1834078-993e-7.0278454-32e-7.0573101.0055138.0798016-.0183853.0839729.0327073.1555252.0872442.2305202.1349983.0478897.0304939.1036053.0491695.1438198.0916133-.0095863.0219758-.0297718.0247447-.0498543.0268352-.0215664.0022444-.0432796.0013976-.0649338.001398-2.1392746 235e-7-4.2785463 236e-7-6.41782-4e-7-.0216541-1e-7-.0433683 8457e-7-.0649328-.0014045-.0201063-.0020977-.0402603-.0049617-.0496349-.0270963C12.794611 1.6020393 12.9194193 1.526413 13.0493803 1.4591597z"/><path fill="#612afb" d="M19.3679485 7.8998075c-.0089169.1487269-.0356712.2934136-.0974293.4301753-.0913944.0382624-.1895847.0500641-.2851162.0714903-.6953907.1559639-1.3915462.3084764-2.0872364.4631042-.0503979.0112009-.100502.0231934-.1497746.0385981-.1942539-.1068344-.3466358-.2550488-.448204-.4534769.1363335-.0354319.274683-.062005.4118862-.0936184C16.9205437 8.3080454 17.1306 8.2669764 17.33778 8.2133245c.0223694-.0038633.0372066.0103664.0532379.0220518.0759315.0553455.1628666.0789623.2546139.0913687.1288891.0174294.2544575.0063868.3770828-.0367355.0740795-.0260525.1346836-.0705671.1808357-.1344547.0096416-.0133457.0187416-.0277996.0370388-.0311213.1134357-.0070705.2215176-.0418453.331604-.0655193.2450447-.0526981.4894161-.1085577.7341461-.1627574C19.3270092 7.8915792 19.3483658 7.8827891 19.3679485 7.8998075z"
		/><path fill="#652dfa" d="M12.6765146 1.6885738c.0192642.012359.0407696.0122375.0626202.0122362 2.1739311-1355e-7 4.3478613-1364e-7 6.5217924 125e-7.0218716 15e-7.0433178-1467e-7.0627537-.0119771.0398846.0365295.0901337.0563972.135416.0842452-.0015144.0242625-.0200729.0282198-.0384388.0313915-.0214291.0037003-.0431976.002453-.0648346.0024544-.8911495 552e-7-1.7823029 4225e-7-2.6734524-6301e-7-.0777149-918e-7-.1556473-6506e-7-.2333698-.0052937-.1857681-.0129083-.3718338-.0061644-.5577593-.0088419-.3348751-.0048223-.6627579.0453311-.9875269.1214769-.0645084.0151249-.1287241.031504-.1930742.0473046-.7528906-.0090506-1.5058126-.001618-2.2587156-.0041773-.0249557-849e-7-.0501709.0020945-.0747423-.0032271-.0180855-.0039175-.0381451-.0083355-.027977-.0354602C12.450573 1.8305535 12.5577126 1.7512488 12.6765146 1.6885738z"/><path fill="#5c27fd" d="M16.7483921 8.9031754C16.7603073 8.8753109 16.7876434 8.87498 16.81106 8.869771c.3758392-.0836258.7518616-.1664295 1.1277084-.2500248.4291039-.0954418.8580589-.1915493 1.2871685-.2869606.0143585-.0031929.0296993-.0019684.0445824-.0028028-.0953312.2544241-.2694836.4404879-.5019913.5746222-.2006531.115756-.4199886.1751232-.6479759.2037983-.2640591.0332127-.5282822.0316401-.7915325-.0096197-.1947117-.0305176-.3822079-.0848541-.5569477-.178277C16.7635326 8.9159393 16.7562561 8.9090061 16.7483921 8.9031754z"
		/><path fill="#6b30f8" d="M13.6298666 2.4196103c-.2198057.1322296-.4309359.2768986-.6297798.4391818-.0224848-.0118344-.0457525-.0014963-.0684748-.0015345-.4785814-8049e-7-.9571648-3393e-7-1.4357481-972e-6-.0338268-443e-7-.0711145.0073884-.0965691-.0260427.1330185-.1504498.2633543-.3033955.4103794-.4408076.0197306-.0028286.0393705-.005348.0594788-.0053332.5540638 4091e-7 1.1081257 1752e-7 1.6621885 3033e-7.0182991 43e-7.0367804-9573e-7.0547647.0026069C13.6054602 2.390847 13.6267242 2.3934493 13.6298666 2.4196103z"/><path fill="#ae59e2" d="M19.1994209 10.2503719c-.0801125-.099371-.1597919-.1990957-.2407589-.2977667-.0136242-.0166054-.0142422-.0255861.0029373-.0393486.0631638-.050601.1252632-.1025286.1877632-.1539555.017664-.0055218.0357742-.0064135.054184-.0063839.5035534 7896e-7 1.0071087 1812e-7 1.5106621 4101e-7.0149555 67e-7.0299644-4902e-7.044838.0011339.0449581.0049076.0497265.0136223.0314655.056221l5245e-7-6981e-7c-.0205421.0194426-.0308475.0468159-.0513515.066288-.0696735.0926962-.1422863.1830368-.2200718.2690496-.0307026.0339489-.0481911.0793915-.0901642.103426-.3818283-.0075016-.7636967-.0013399-1.1455421-.0033989C19.2556 10.2451944 19.2276287 10.2494955 19.1994209 10.2503719z"
		/><path fill="#7738f4" d="M12.0899858 3.8669205c-.1039925.1504097-.1860609.3134432-.2729321.4737163-.0078278.0144434-.016819.0282574-.0252695.0423636-.0579271-.0076122-.116168-.006546-.1743917-.0065327-.3445768 792e-7-.6891527 2441e-7-1.0337296-3009e-7-.0291405-463e-7-.060585.0069666-.085598-.0165234.0644274-.1756415.1370239-.3475628.2319317-.5093269.0112772-.0182006.028739-.0197194.0480003-.0193717.4046555.0072978.80935.0012987 1.2140226.0032961.0232983 1149e-7.0469036-.0020425.0697355.0030158C12.0765057 3.8405247 12.09764 3.8409617 12.0899858 3.8669205z"/><path fill="#b35de0" d="M18.759779 3.7625353c.0911407.0463874.1710396.1082575.2453346.1778939.0087051.0081604.016449.0164738.0167503.0292573-.0130711.0211318-.0358238.0223835-.0566101.0269423-.6093445.1336527-1.2180367.2702379-1.8270168.4055309-.2923145.0649414-.5846157.1299467-.8770313.1944294-.0297089.0065508-.0601654.0229869-.0913811.0036697.0116425-.094398.0379524-.184536.0785866-.2705126.0573044-.0293274.1212425-.0345221.1825256-.0482774.7648277-.1716628 1.5306816-.3387117 2.2955761-.5100913C18.7376976 3.7688711 18.7500477 3.770561 18.759779 3.7625353z"/><path fill="#7134f6" d="M19.7295895 3.6010041c-.1300621-.1589553-.2677002-.3111315-.4105148-.4586761-.0101509-.0276501.0108814-.0308797.0285702-.0349429.0212326-.0048769.0431385-.0030973.0647793-.0031562.4532871-.0012352.9065819.0023429 1.3598633-.0019562.0134735-128e-6.0267277-2699e-7.0384121.0078514.0601749.0640054.1044216.1397285.1524391.2122893.0554733.0838308.1123371.1671906.1565628.2580028-.025425.0226128-.056776.0158274-.0860004.0158641-.3964558 4964e-7-.7929115 3552e-7-1.1893673 2692e-7C19.8060131 3.5965412 19.7677498 3.597209 19.7295895 3.6010041z"/><path fill="#aa57e3" d="M20.7905121 9.8106823c.0174923-.0478964-.0160809-.0411854-.0438232-.0411825-.5097561 458e-7-1.0195103 458e-7-1.5292645-67e-7-.0231533-29e-7-.0468712.003171-.0680618-.0101919.0707378-.0699148.1419106-.1393976.2120781-.2098818.0560055-.0562553.1107883-.1137295.1661129-.1706638.0137997-.0064592.0281334-.0086536.0435123-.0084372.4637012.006568.9274311.0011854 1.3911476.0030041.023243 906e-7.0467777-.0019932.069582.0032225.0173168.0039606.0390301.0066156.0285053.0345497C20.9791679 9.5502291 20.8901482 9.6840382 20.7905121 9.8106823z"/><path fill="#682ef9" d="M19.6605492 1.9283968c.1290512.0892774.2489376.1893922.3578243.3025163-.0368233.0211604-.0775566.0154302-.116909.0154626-.5772457 4771e-7-1.1544914 2155e-7-1.7317371 5429e-7-.0398083 224e-7-.0797234-.0027988-.1194725.0019875-.2042351-.0962441-.4132156-.1805005-.6285133-.2488093-.0408745-.0129683-.0816879-.0261277-.12253-.0391986.0352936-.0285625.0778828-.0260118.1190434-.0261449.2330875-7535e-7.466177-3407e-7.6992664-3505e-7.4778309-199e-7.9556637-131e-7 1.4334965 87e-7C19.5876446 1.9344132 19.6242523 1.9343131 19.6605492 1.9283968z"/><path fill="#b65fdf" d="M18.759779 3.7625353c-.0068207.025322-.0305157.0233207-.0483189.0272624-.3958473.0876479-.7919521.1741343-1.1878223.2616873-.2569523.0568299-.5136242.1149287-.7703915.1725998-.1550102.0348163-.3099174.070085-.4650097.1045294-.0127316.0028272-.0265236 8683e-7-.0398235.0011325.0459118-.1262889.1167622-.2368469.2101898-.3331633.0250702.0080767.0495586.001292.0736599-.0041347.5594959-.1259689 1.1199951-.2474022 1.6796017-.3728578.0266838-.0059819.0565796-.0058243.0782928-.027297C18.4560452 3.6232636 18.613575 3.6772749 18.759779 3.7625353z"/><path fill="#6d31f7" d="M20.8106995 3.1101241c-.0271282.0085194-.0547905.0106876-.0832729.0106604-.4503098-4315e-7-.9006214-4933e-7-1.3509312 3233e-7-.0200424 365e-7-.0490608-.0143986-.0574188.0212183-.136692-.1343248-.2829075-.2578886-.4299927-.38047 885e-6-.0270095.0223236-.0301766.0415077-.0344431.0195484-.004348.0397472-.003139.0597057-.0031421.480875-73e-6.96175-482e-7 1.442625-377e-7.0299664 1e-6.0602188-.001606.0868149.0163021.1038971.1076064.1931553.2270308.2805271.3479502C20.804884 3.0948753 20.807272 3.1028743 20.8106995 3.1101241z"/><path fill="#6e32f7" d="M11.3992949 2.8302429c.0271826.0084054.0548763.0106075.0833874.0105827.4874554-4239e-7.9749088-4702e-7 1.4623613 325e-6.0187283 305e-7.0450697-.0136623.0550451.017643-.0782394.0687099-.1595898.1338439-.2321987.2089586-.0539398.0558007-.1105633.1090057-.1659927.163367-.0122423.0061574-.0253325.0075521-.0388365.0074279-.4547358-.0041795-.9094839-4566e-7-1.3642216-.0022824-.0287895-1156e-7-.061595.0064609-.080287-.0265663.0626955-.1084776.1432371-.2041192.218647-.3034317C11.3569736 2.8802245 11.3785477 2.8555472 11.3992949 2.8302429z"/><path fill="#7c3bf2" d="M10.498065 4.3596435c.4094791 2203e-7.8189573 3495e-7 1.2284365 8945e-7.0237532 315e-7.0516281-.0084333.0652809.022459-.0638657.1515036-.1277361.3030033-.1916056.4545031-.0315857-.0136943-.0651398-.0109787-.0981579-.0110006-.3588152-2413e-7-.7176285-238e-7-1.0764427-3533e-7-.0294504-272e-7-.0603714.0050316-.0861921-.0159078.0286121-.1131988.069191-.2223253.1125011-.3305221.0058975-.0176301.0135164-.0347009.01723-.0530396C10.4769354 4.4035425 10.4807606 4.3786826 10.498065 4.3596435z"/><path fill="#ae5ae2" d="M16.1698246 4.6002588c.1889305-.0412273.3779297-.0821495.5667782-.1237473.3729191-.0821419.7458115-.1643991 1.1186047-.2471094.2566433-.0569406.5130711-.1148534.7696533-.1720772.1322689-.0295.2646637-.0584433.3970013-.0876379.0485172.0358424.079916.0868425.1173382.1325068-.0062523.0337052-.0361919.0298328-.0585804.0349145-.3173637.0720282-.6352901.1415534-.9529076.2124639-.0261536.0058389-.0513325.013392-.0747147.0265512-.0607548.0018206-.1154327-.0260601-.1739044-.0356355-.0208111-.0085168-.0425625-.006597-.06423-.0056515-.0394039 1307e-7-.0787868 3161e-7-.1181355 896e-7-.0210419-8788e-7-.0421638-.0028725-.062788.0036445-.0826855.0127769-.1606007.0391469-.2302017.0861206-.0646763.0436502-.1110153.1028891-.1402702.1754489-.0086212.0213823-.0157242.0436273-.0303326.0622363-.0169296.0210466-.0412731.0267138-.0658264.0321655-.3118629.0692368-.6242065.1363053-.9357338.2070613-.0113583.0025802-.022789.0049691-.0343399.0064335-.0452385.0057349-.0524654 525e-7-.0517845-.0463371 5112e-7-.0347066-.0048218-.0697041.0036812-.1041417C16.1487637 4.7041693 16.154459 4.6515779 16.1698246 4.6002588z"/><path fill="#6b30f8" d="M20.5197372 2.7405353c-.5191803.0-1.0383606-98e-7-1.5575409 269e-7-.0263805 17e-7-.0540009-.0038457-.0731125.0212932-.1623917-.1253815-.3383484-.2304204-.5108433-.3406537.0266838-.0243371.0598164-.0164535.0905075-.0164835.5320797-5212e-7 1.0641613-6552e-7 1.596241 1576e-7.0448418 684e-7.0893612-.0089478.1342316-.0030575C20.3158512 2.5054603 20.4191017 2.6217601 20.5197372 2.7405353z"
		/><path fill="#672ef9" d="M12.349206 1.9180877c.006218.0333213.0329409.0220934.0521488.0221341.2915106 6151e-7.5830221 4275e-7.8745327 4275e-7.4444799.0.8889599 2145e-7 1.3334398-4051e-7.0357561-497e-7.069396.0046831.1013126.0207076-.1496763.0483789-.2999411.0950739-.4456139.1549621-.0750303.0308459-.1500235.0617781-.2250338.0926709-.0363979-.0054681-.0729761-.0014758-.1094303-.0014997-.5959339-3884e-7-1.1918688-868e-7-1.7878017-6545e-7-.0389471-372e-7-.0809975.0079463-.1127386-.0258753C12.1332273 2.0891881 12.2352562 1.9963909 12.349206 1.9180877z"/><path fill="#a755e4" d="M21.0603008 9.4110947c-.0069275-.0332127-.0337811-.0209818-.0526829-.0210114-.4123478-6504e-7-.8246994-86e-7-1.2370472-9108e-7-.0810337-1774e-7-.1627083.0088959-.2430153-.010417.0958595-.1148233.1928768-.2287178.2814827-.3493853.023756-.0146914.0501423-.0160532.0770893-.0160494.4329453 629e-7.8658924-401e-7 1.2988396 2499e-7.0247154 162e-7.0503235-.002697.0723858.012969.0147209.0200291-.0037498.0351067-.0078983.0523405C21.1926003 9.1931467 21.1305809 9.3044701 21.0603008 9.4110947z"
		/><path fill="#954aea" d="M21.8694191 7.0099268c-.0061226.1523452-.0258675.3029103-.0590496.4517193-.0281715-.0262351-.0630569-.0258317-.0983582-.0258117-.3582649 2079e-7-.7165337 308e-6-1.0747986-165e-6-.029314-381e-7-.0605946.0064044-.0861797-.0157895.0185223-.0935283.0370464-.187057.0555687-.2805853.0184383-.0129757 3815e-7-.0353422.0128307-.0498581L20.6192112 7.089829c.0127239-.0153685-19e-7-.0353351.0092735-.0513258L20.627697 7.0394568c.0094547-.0450478.0439892-.0457764.0796757-.0457873.2441807-744e-7.4883595 329e-7.7325401-43e-7.1195984-181e-7.2392006-3905e-7.3587933 3009e-7C21.8231087 6.9941072 21.8491573 6.990088 21.8694191 7.0099268z"/><path fill="#7536f5" d="M19.7295895 3.6010041c.0075817-.0331101.0345287-.0199957.053215-.0200262.4456329-7231e-7.891264-562e-6 1.3368969-5617e-7.0757351.1186821.1423321.2424273.2042961.3687384-.0245857.0242257-.0560741.0170605-.0850887.017103-.3770237 5534e-7-.7540455 4354e-7-1.1310692 2306e-7-.0399227-215e-7-.0796909.0010347-.1192627.0065489-.0461254-.0660975-.0923004-.132158-.1383533-.1983049C19.8099384 3.7168734 19.7697945 3.6589177 19.7295895 3.6010041z"/><path fill="#7335f5" d="M12.0899858 3.8669207c-.0117531-.0294521-.0374374-.0158517-.0563488-.015892-.4022999-8593e-7-.8046017-.0012529-1.2068949 4871e-7-.0322895 14e-5-.0644855-.0211513-.0967436-.0011992.0590563-.1205647.1226559-.2385807.1968365-.3506575.0197582-.0215485.0454473-.0254793.0729427-.0254915.4346781-1888e-7.8693571-3479e-7 1.3040352 3164e-7.0213203 327e-7.0439034-.0014033.060317.0171955-.0738249.1013844-.1476126.2027957-.2215014.3041344C12.1252537 3.8196423 12.107543 3.8432252 12.0899858 3.8669207z"
		/><path fill="#9047ec" d="M21.8694191 7.0099268c-.392067.0-.7841358 2718e-7-1.1762009-5698e-7-.028265-606e-7-.0517445.0023336-.0655098.030097.0093365-.1011329.0158329-.2026529.0293884-.3032227.0056705-.0420713-.0089378-.0863056.0135937-.126245.0205994-.0189762.0464573-.0159822.0710773-.0160079.3577156-3691e-7.7154293-3967e-7 1.0731449-739e-7.0782967 706e-7.0787048.0011992.0796337.0811238 1373e-7.0115609-.0015717.0233531.0033302.0344753C21.888588 6.8096633 21.8934746 6.9111652 21.8694191 7.0099268z"/><path fill="#833ff0" d="M10.1695013 5.5400615c.0154018-.1358585.0504179-.267952.0771189-.4016414.034194-.0117288.0693235-.0041437.103919-.0041957.3555031-536e-6.7110062-5302e-7 1.0665092-5e-7.0291052 429e-7.060461-.0067968.0854626.0165129-.0304623.1265655-.0609245.2531304-.0913868.3796959-.0194559.0164266-.0431204.0157294-.0663538.0157747-.3788729 7434e-7-.7577477-7172e-7-1.1366205 7763e-7C10.1948776 5.5470362 10.1814384 5.5476384 10.1695013 5.5400615z"/><path fill="#bb61de" d="M13.0495195 4.7802472c19e-7-.0833216 48e-7-.1666431 67e-7-.2499652.0455809-.0274291.0985203-.0290065.1483202-.0402207.5506153-.1239967 1.1021566-.2438383 1.6531038-.3663621.0268164-.0059633.0565262-.0257974.08358.0020409 7401e-7.0792761 4101e-7.1585135 1726e-7.2377095-.0150194.0306339-.0465975.029603-.0728645.0353122-.2895842.0629463-.5786705.12813-.8680134.1921515-.2893429.0640206-.5785418.128685-.8679419.1924438C13.1003399 4.7889843 13.0741806 4.8003645 13.0495195 4.7802472z"
		/><path fill="#8c44ed" d="M11.3420839 6.113327c-8774e-7.1188927-.0017548.2377863-.002634.3566794-.0256157.0218463-.0567665.0157237-.086072.0157619-.3425121 4392e-7-.6850281 6065e-7-1.0275402-1292e-7-.0450859-973e-7-.0886984-3037e-7-.1237011.0338788-5684e-7-.1222782-.0015926-.2445583-.001195-.3668332 572e-7-.0175519.0069733-.0350814.0107155-.0526209.0188322-.0180774.0428925-.0160785.0658712-.0161037.3653994-4039e-7.7308006-7515e-7 1.0961943 701e-6C11.2979469 6.0847569 11.3328819 6.0720296 11.3420839 6.113327z"/><path fill="#9b4ee8" d="M21.739666 7.7887926c-.0172691.098959-.0478191.1943979-.0771141.2901583-.0023155.0075645-.0063572.0145998-.0095978.0218801-.0196476.0161047-.0433617.0151043-.0665169.0151224-.3968239 2985e-7-.7936478 3633e-7-1.1904716-1202e-7-.0228367-277e-7-.0470753.0026293-.065691-.0160465.0422821-.1169729.0845642-.2339454.1268463-.3509183.0199776-.0149384.0433521-.0152683.0667019-.0152798.3836536-1869e-7.7673073-5054e-7 1.150959 2446e-7C21.7382202 7.7339573 21.7450314 7.7410879 21.739666 7.7887926z"/><path fill="#bd63dd" d="M14.9290009 4.1203437c-.2532787.0565763-.5064831.1134953-.75986.1696234-.2178869.0482664-.4360275.0953889-.6539526.1434789-.1420317.0313425-.2838411.0636911-.4258804.0950022-.0127745.0028162-.0264969.0013251-.0397816.0018339-7696e-7-.0665345 1516e-7-.1331496-.0030136-.1995697-.0016174-.0339432.0113163-.0412664.0426559-.0416274.1315775-.0015154.2624245-.0123296.3917017-.0384955.1569996-.0317769.3016911-.0912809.4295139-.1891818.0271254.0045123.0525208-.0051651.0780525-.010869.2834616-.0633256.5671158-.1257951.8507767-.1881995.0304708-.0067039.0659447-.0320935.0955811.0053384C14.9313145 3.9519086 14.9425488 4.0364103 14.9290009 4.1203437z"/><path fill="#b15be1" d="M19.1994209 10.2503719c.0102158-.023654.0312061-.0209122.0511189-.0209112.3756027 95e-7.7512054-105e-7 1.1268063 572e-7.0196018 38e-7.0409565-.0040073.052103.0192299-.1545639.1781912-.3232498.3419847-.5012798.4966288-.0585957.0508995-.1158619.1030855-.1778526.150012-.0175667.013298-.0260887.0134153-.0397377-.0036736-.1675854-.2098227-.3357658-.4191675-.503706-.6287041C19.203846 10.2592344 19.2018814 10.2546053 19.1994209 10.2503719z"/><path fill="#a453e5" d="M21.2597923 9.0396137C21.243269 9.0224524 21.2220039 9.0300026 21.20294 9.0299816 20.738306 9.0294542 20.2736721 9.02946 19.8090382 9.0293703c.0667095-.0999374.1334209-.1998768.2001286-.2998152.0162354-.0240917.0413876-.025733.0667019-.0257664.426199-5589e-7.8523998-6742e-7 1.2785969 2317e-7.024353 525e-7.05126-.0020351.0654831.0257607-.0503616.1034622-.0924053.21101-.1521988.3098412C21.2650909 9.0444126 21.2624397 9.0444117 21.2597923 9.0396137z"/><path fill="#9f50e7" d="M20.3302746 8.0997877c.4408913 3462e-7.8817825 6943e-7 1.3226776.0010424 7725e-7.0068111.0062523.0147419-.0044746.0188169-.0107117.0261259-.0168514.0539055-.0288048.0795822-.0238895.0745592-.0475922.1491804-.0718422.2236233-.0044689.0137281-.0111427.0267401-.0167999.0400829-.0322227-.0160131-.0667019-.0172319-.1018486-.0172062-.3886108 2909e-7-.7772217 3729e-7-1.1658325-1478e-7-.0290813-391e-7-.0604362.0068979-.0854454-.016407C20.2286949 8.3193789 20.2794857 8.2095823 20.3302746 8.0997877z"
		/><path fill="#b65fdf" d="M13.0495195 4.7802472c.0782204-.0041051.1526394-.0284162.2283325-.0449295.4473934-.0976038.8942986-.1974382 1.3413715-.2965059.1032448-.0228782.2065048-.0456896.3097582-.068532.0136185.0835595.0022163.1677032.0058699.2514329-.0079527.0261621-.0320797.0265784-.0523291.0311031-.3446674.0770116-.6894569.1534762-1.0342054.2301202-.0258989.0057583-.0533638.0035172-.0779257.0156417-.228838 5517e-7-.4576788 7272e-7-.6865101.0021496-.0274649 1702e-7-.0394621-.0073233-.0369644-.0361238C13.0493422 4.8366199 13.0487738 4.8083768 13.0495195 4.7802472z"/><path fill="#b15be1" d="M12.800889 10.2612448c-.075407.098464-.1518755.1954508-.2364264.287035-.0957651.1037321-.1791887.2190599-.2650852.3315544-.0219135.0286989-.0375338.0290766-.0620337.0081949-.0666924-.0568447-.1345091-.1123867-.2007322-.1697655-.1246176-.1079788-.2390032-.2266626-.3559132-.3426971-.036375-.0361013-.073143-.0717449-.1006756-.1155005-.0097036-.0241556.0084743-.0286598.024456-.0330629.0177574-.0048933.0363321-.0038366.0546303-.0038424.3544989-1068e-7.7089977-1202e-7 1.0634966 67e-7.0182972 67e-7.0368567-9537e-7.0546055.0040703C12.7936478 10.2318907 12.81075 10.2376032 12.800889 10.2612448z"
		/><path fill="#ae5ae2" d="M12.800889 10.2612448c-.0029144-.0239363-.0209522-.0217571-.0376654-.0217571-.381608-134e-7-.7632141-391e-7-1.1448212 715e-7-.0161066 57e-7-.0350657-.0040216-.0383797.020505-.0914068-.0958185-.1836071-.1909542-.2590017-.3005705.036911-.0295162.0812292-.0258188.1239204-.0259151.282712-6399e-7.5654287-3414e-7.8481436-3128e-7.2178555 21e-6.4357195-8726e-7.6535625 885e-6.031558 2546e-7.0733442-.011673.0848789.0379515-.0700684.0829563-.1381178.1674805-.2009087.2561636C12.8221264 10.2402611 12.8108673 10.2503004 12.800889 10.2612448z"/><path fill="#652dfa" d="M19.6605492 1.9283968c-.0018272.0129697-.007885.0217264-.0222301.0219176-.0149689 1998e-7-.0299377 3201e-7-.0449085 3206e-7-.6487331 15e-6-1.2974663-3157e-7-1.9461994 3176e-7-.1160336 1134e-7-.2324066-.0073544-.3479977.009945-.1303692-.0308437-.25984-.0654131-.3916378-.0902681-.1461163-.027555-.2923203-.0537091-.4411182-.0619963-.0059395-3307e-7-.0116405-.0049825-.0174541-.0076208.980505-.0236557 1.9611645-.0037239 2.9417286-.0107147.0235119-1677e-7.0511417.0102719.0683651-.0172091C19.5289555 1.8213471 19.6002102 1.8677937 19.6605492 1.9283968z"/><path fill="#8a43ee" d="M20.6705627 6.2600365c-.0038528-.0859799-.0077038-.1719594-.0115566-.2579389-.0080585-.0285134-.0032883-.0574613-.002924-.0862799.0213718-.0300899.0538082-.0214124.0822945-.0214729.3473244-7348e-7.6946468-7286e-7 1.0419712 129e-7.0326462 696e-7.0663509-.010056.0982189.0057554.0120411.1628966.0285282.3256183.0193081.4893541-.0262337-.0074086-.0215988-.0303845-.0234585-.0489287-.0063992-.0637164-.0059566-.0642648-.0719261-.0643487-.2224808-2804e-7-.4449596-858e-7-.6674404-1125e-7-.1311607-162e-7-.2623253 2732e-7-.3934879-2265e-7C20.7169781 6.2757573 20.6912098 6.2787819 20.6705627 6.2600365z"
		/><path fill="#7f3df1" d="M11.502511 5.1507368c-.3944016-1817e-7-.7888012-3729e-7-1.1832018-5221e-7-.024888-1e-5-.0501232.0024481-.0726843-.0117922.0270081-.1105013.0553675-.2206197.092761-.3281841.4031382 1e-6.8062792-1669e-7 1.2094183 5045e-7.0198631 329e-7.0508127-.0135312.0513725.0267596C11.5676212 4.9419127 11.5350657 5.0463247 11.502511 5.1507368z"/><path fill="#8e46ed" d="M20.6705627 6.2600365c.3855572-1e-6.7711143 9694e-7 1.1566601-.0011892.0501747-2804e-7.0698071.0117102.0634079.0632086-.0027027.0217376-.008461.0464787.0072441.0674119.0.1066785 19e-7.2133579 19e-7.3200364-.0081539-.0076108-.0078049-.0176296-.0082779-.0276494-.0033951-.0718694-.0034599-.0718703-.0772629-.0718703-.3805504-5e-7-.761097 1e-6-1.1416454 19e-7C20.6706467 6.4933362 20.6706047 6.3766866 20.6705627 6.2600365z"/><path fill="#984ce9" d="M21.739666 7.7887926c.0058613-.0419731-.0220585-.0391955-.0500832-.0391736-.3892021 299e-6-.7784081 2179e-7-1.1676121 1616e-7-.021616-29e-7-.0432301-5937e-7-.0648479-9117e-7.0313015-.1096635.0626049-.219326.0939102-.328989.4021072-33e-7.8042145 1526e-7 1.2063198-3285e-7.0305786-362e-7.0584221-.0011163.0530167.0420933C21.7927418 7.571979 21.7723694 7.6817179 21.739666 7.7887926z"/><path fill="#a956e4" d="M11.0068159 9.5207815c-.0512667-.0788145-.1045914-.1563759-.1466675-.2407866-.0110264-.0301085.0141993-.0332012.0314484-.0395565.0237303-.0087423.0492964-.0069342.0742741-.0069485.4465351-246e-6.8930702 1926e-7 1.3396063-3119e-7.0184174-21e-6.036664 289e-6.0542326.00667.084218.0864105.1634703.1772585.240941.2696962-.0209904.0286512-.0525074.0258112-.0820665.0259819-.1466255 8516e-7-.2932568 3538e-7-.4398851 3691e-7-.328249 315e-7-.6564989 83e-6-.9847479-925e-7C11.0641584 9.5357876 11.033556 9.5391092 11.0068159 9.5207815z"/><path fill="#7d3bf2" d="M20.42136 4.890224c-.0372066-.0999689-.0744114-.1999373-.1116199-.2999063-.012434-.0258861.0014248-.0373402.0242882-.0425758.0229149-.0052481.0464249-.003644.0697193-.0036845.3748169-6466e-7.7496338.0011363 1.1244488-.0010242.0151119-873e-7.0299835-129e-7.0441723.0059781.0436039.1078634.083559.2168984.1064873.3314042-.0205231.0344839-.0552101.0254817-.0852261.025579-.2689781 8702e-7-.5379601 4821e-7-.8069401 4849e-7-.0979633 1e-6-.1959248 916e-7-.2938881-587e-7C20.4677582 4.9063821 20.442749 4.906323 20.42136 4.890224z"/><path fill="#682ff9" d="M12.0300217 2.1805553c.0488377.0122919.0986328.0101154.1483297.0101089.602128-782e-7 1.2042551-1862e-7 1.8063822 582e-6.0187426 238e-7.0449839-.0136862.0552588.0173392-.1367083.0703416-.2734165.1406841-.4101257.2110257-.0205812-.023005-.0481129-.0189965-.0745106-.0189981-.5614662-386e-7-1.1229334 727e-7-1.6843996-4377e-7-.0205193-188e-7-.0437336.0087962-.0612822-.01074C11.8768139 2.3131535 11.9514627 2.2447925 12.0300217 2.1805553z"/><path fill="#8f47ec" d="M10.1021376 6.5195179c.006259-.040813.0283689-.0510025.0702181-.0507736.3890228.00213.7780619.0012612 1.1670942.0012622-477e-7.1170554.0130548.2333298.0207863.3499231-.3908195-.0086098-.7816906-.0014138-1.1725283-.004065-.0261412-1774e-7-.053854.0043502-.0760517-.0159044C10.0911484 6.7070675 10.1024408 6.6130958 10.1021376 6.5195179z"/><path fill="#a252e6" d="M20.1779041 8.4291725c.4337101 185e-6.8674221 351e-6 1.3011322 598e-6.0241623 134e-7.053154-.0068712.0519924.0331583-.0359993.0893822-.0649624.1816874-.1110802.2668524-.0180225-.0111208-.0380516-.0101767-.0581074-.0101719-.4314842 963e-7-.8629665 103e-6-1.2944527-2e-5-.0200882-57e-7-.0400391-5522e-7-.0582218.0099659C20.0654106 8.629427 20.1216564 8.5293007 20.1779041 8.4291725z"
		/><path fill="#7a39f3" d="M21.5723686 4.5490112c-.0209942.0131321-.044426.0113158-.0676689.0113115-.3804188-663e-7-.7608376-2322e-7-1.1412544 4435e-7-.021368 377e-7-.054512-.0138993-.0537052.029551-.0504208-.1058445-.1008415-.2116899-.1512623-.3175359-.0019321-.0277448.0187054-.0322118.0385303-.0361047.0196266-.0038543.0397511-.0026393.0596867-.0026422.3722878-563e-7.7445793-1554e-7 1.116869 1864e-7.0294304 267e-7.0604267-.0052285.086134.0160847C21.4994755 4.3490367 21.5479946 4.4444704 21.5723686 4.5490112z"/><path fill="#692ff9" d="M17.3414516 8.2154818c-.0474072.0430918-.1107426.0386629-.1669064.0520544-.2023544.0482531-.4061127.0906105-.6093464.1351748-.077383.0169687-.1549168.0332909-.2320271.0514126-.0129147.0030346-.0224628 5112e-7-.0329838-.004425-.0643654-.1086063-.1032085-.2264042-.1260681-.3499594.0103378-.0180168.0286312-.0212622.0466118-.0252686.3071671-.0684662.6147938-.1348553.9217606-.2042189.0210133-.0047469.0425072-.0086808.0643044-.0041485.0147438.0092597.0143547.0249434.0163689.0394583.0138092.0995493.0389671.1945868.1063595.273366C17.3381844 8.1890488 17.343914 8.2012033 17.3414516 8.2154818z"/><path fill="#7838f4" d="M21.4596977 4.2503057c-.4120064 48e-7-.8240128-892e-7-1.2360172 2713e-7-.0236244 2e-5-.0515461-.0087428-.0652008.022202-.0579014-.099196-.1190414-.1965594-.1699009-.2997453.0062637-.0330877.032814-.0222344.0521221-.022269.316246-5662e-7.632494-299e-6.9487419-457e-6.1115112-556e-7.2230167-7493e-7.3345394-.0011525C21.373354 4.0476804 21.4195423 4.147634 21.4596977 4.2503057z"/><path fill="#7134f6" d="M12.36413 3.4916797c-.4628954-4134e-7-.9257889-921e-6-1.3886843-8507e-7-.0161972 26e-7-.0323925.0057566-.0486002.0088301.0597124-.0994189.1162949-.2009134.1917095-.2899597.0210934.0131783.0446501.0107787.067852.0107782.4440584-143e-7.8881187 1266e-7 1.3321772-3304e-7.0285444-296e-7.0561771.0024321.083312.0109713C12.5214195 3.3168578 12.4502087 3.4110501 12.36413 3.4916797z"/><path fill="#8641ef" d="M10.1695013 5.5400615c.0181818-.010385.0380745-.0100389.0581684-.0100274.3944845 2375e-7.788969 3004e-7 1.1834536 3986e-7-3481e-7.0065908-6962e-7.0131807-.0010424.0197721-.0119743.0148778.0019541.0348778-.0098457.0497909-.0131702.1034207-.0263424.2068424-.0395145.3102632-.0405197-.0555902-.10009-.0440369-.1562033-.0440564-.3291988-1116e-7-.6583986 1101e-7-.9875975-3147e-7-.0293446-386e-7-.0604506.0058513-.0861187-.0157952C10.1376886 5.7459984 10.1490536 5.6424632 10.1695013 5.5400615z"
		/><path fill="#ab58e3" d="M11.0068159 9.5207815c.5035028-4044e-7 1.0070066-9212e-7 1.5105104-9155e-7.0284529 1e-6.0561476-.0020103.0833244-.0103216.0458536.0306702.0794334.0744247.1189184.1118717.0443163.0420303.0875044.0852499.1311836.1279507-.0207567.0291376-.0524473.0257292-.0818739.025938-.1316023 9394e-7-.2632113 3853e-7-.3948183 3977e-7-.3581705 334e-7-.716342 381e-7-1.0745115-277e-7-.0366592-67e-7-.073266 5589e-7-.1096973.0051479C11.1218081 9.6990919 11.0617247 9.6117573 11.0068159 9.5207815z"
		/><path fill="#a453e5" d="M10.7176895 9.0208569c-.0502768-.0867672-.0954304-.1759377-.1272764-.271349.0026741-.0230026.021821-.022028.0373621-.0243196.0214252-.0031595.0432262-.0017071.0648718-.0017233.4197159-3185e-7.8394327 555e-6 1.2591476-4778e-7.0166292-41e-6.0334139-.0015917.0489597.0064487.0594912.0901451.1189823.1802902.1784744.2704353-.0172443.03158-.048296.0253706-.075387.0254993C11.9009542 9.02633 11.698061 9.0256128 11.4951696 9.0259104c-.244463 3586e-7-.4889288-.0012102-.7333899 9136e-7C10.7466965 9.0269547 10.7318411 9.0269032 10.7176895 9.0208569z"/><path fill="#954aea" d="M10.1470947 7.2205205c.0028067-.0371866-.0155764-.0730543-.0068874-.1106076.0176249-.0158048.0395145-.015974.06112-.015996.3769064-3829e-7.7538118-4821e-7 1.1307173-339e-7.0332489 391e-7.0638618.0037117.0689774.0458827.0193148.0933714.0386276.1867428.0579405.2801142-.018899.0180416-.0429859.0159106-.0659771.0159316-.3806362 3586e-7-.7612734 4177e-7-1.1419106 534e-7-.0166073-162e-7-.0332947-1478e-7-.0493231-.0057068-.0100193-.0036678-.0163031-.0111227-.0206709-.0204973l-3605e-7-5903e-7c-.0136299-.0178275.0035639-.0414228-.011054-.0590649l2947e-7 4578e-7c-.0108156-.0191693.0014553-.0414391-.0081644-.0607686l-8545e-7-.0011663C10.1453371 7.2680964 10.1672955 7.2400174 10.1470947 7.2205205z"/><path fill="#9248eb" d="M11.401022 7.1397657c-.012023-.0308399-.037384-.0302539-.0648985-.0302172-.3986387 5312e-7-.7972775 3643e-7-1.1959162 3643e-7-.0227413-.0371804-.01332-.080585-.0171146-.1198616-.0060635-.0627694-.0217085-.1260414-.0114365-.1900911.39534-1e-6.790679 234e-7 1.1860189-696e-7.0231447-57e-7.0469971-.0031815.062561.0200391 2127e-7.0032673 4263e-7.0065341 638e-6.0098014-.0084524.0168438-.0103893.0335112.0013561.0498052C11.3751621 6.966279 11.388092 7.0530229 11.401022 7.1397657z"/><path fill="#6b30f8" d="M19.3737659 6.2531481C19.3749275 6.266335 19.3771 6.27952 19.3771057 6.2927074c1736e-7.4614577 1717e-7.9229155-95e-7 1.3843732-38e-7.0131798-.0022316.0263581-.0034237.0395374-.0256367-.017622-.0162964-.0447521-.0175724-.0683475-.0027523-.0509119-.0060081-.0554228-.0561924-.0445857-.1654644.0357294-.3305569.0731783-.4958344.1097651-.145834.0322833-.2914562.0655427-.4375591.0965834-.0212975.0045247-.0450974.0179691-.0642166-.0065441-.0133419-.1126437-.0131092-.2252593-2842e-7-.3378668.0207119-.0290556.0543747-.0298152.0843964-.0364728.3017673-.0669222.6034718-.1341372.9051399-.2014985.0616341-.0137634.0634384-.0158448.0637569-.0792832 4101e-7-.0814257-267e-6-.1628528 954e-7-.2443285-.0023689-.0777931-.0013123-.1555405-5169e-7-.233294C19.353653 6.6110368 19.3535595 6.5513382 19.35532 6.4916477c-.0020313-.0599728-.0011177-.119966-4005e-7-.1799345C19.3551693 6.2908502 19.3513336 6.267415 19.3737659 6.2531481z"/><path fill="#9f51e7" d="M10.4455271 8.4006033c-.019928-.0560522-.0446892-.1105165-.055707-.1694975-.0108662-.0245333-5322e-7-.0380812.0233727-.0436411.0228624-.0053158.0462694-.0038691.0694904-.0038748.3454456-877e-7.6908903 286e-7 1.036335-1497e-7.0497999-257e-7.0996714.0021362.1493778-.0027361.0208445-.0020428.0399389 849e-7.0534601.0186386.0428553.0901098.0857086.1802206.1285629.2703314-.0191107.0327311-.0519133.0256519-.0806904.0257711-.2099333 8678e-7-.4198713 391e-6-.6298084 4587e-7-.2016058 658e-7-.4032106-1564e-7-.6048164 687e-7-.0181732 2e-5-.0367975.002799-.0539207-.0064259-.0064383-.0075979-.012743-.0152569-.0120783-.0261364C10.4615145 8.4423733 10.4601431 8.4190025 10.4455271 8.4006033z"
		/><path fill="#9b4ee8" d="M11.5313015 7.6896238c.0305624.089963.0611248.1799259.0916872.2698894-.0132847.0094171-.0285177.0072231-.0433426.0071526-.3802538-.0018148-.7605085-174e-6-1.1407642-8788e-7-.043211-801e-7-.0863228 6065e-7-.1292715.0057316-.0390501-.1006608-.0653076-.2045512-.0787125-.311687.0154829-.0164123.0361986-.01578.0559549-.0158153.3915749-7043e-7.7831488-5832e-7 1.1747236-2379e-7C11.4949827 7.6438084 11.5255527 7.6477346 11.5313015 7.6896238z"/><path fill="#8741ef" d="M21.8785667 5.9001131C21.8530579 5.9084644 21.826973 5.910399 21.8001213 5.910368c-.361227-4239e-7-.7224503-4077e-7-1.0836773 601e-7-.0190506 248e-7-.0403156-.0075417-.0568123.009654-.0030651.0045357-.0061302.0045342-.009201 62e-7-4272e-7-.0194473-8583e-7-.0388951-.0012875-.0583425-.0109024-.0194163.0027618-.0424151-.0090027-.0617056l-1755e-7-3943e-7c-.0130024-.0182023.0029297-.0413928-.0102711-.0595613-3395e-7-.0122809-679e-6-.0245624-.0010185-.0368433-.0072041-.015852-.0017662-.0329857-.0050354-.0492644-.0122185-.0608377-.0067482-.0694523.0554714-.0696206.3660927-9942e-7.7321873-68e-5 1.09828-1864e-7.0214882 286e-7.0437317-7229e-7.0608788.0163779.0189762.0793624.0229626.1607819.0323792.2414231C21.8729191 5.8614335 21.871397 5.881309 21.8785667 5.9001131z"/><path fill="#692ff9" d="M20.1992207 2.4018183c-.0256557.018945-.0553017.0188878-.0853405.0188894-.5785446 35e-6-1.1570892 2861e-7-1.7356377 4935e-7-.0771179-.0406733-.1542072-.0813992-.2313652-.1219957-.0321331-.0169072-.0644112-.0335395-.0966225-.0502982.0150394-.0264215.0407639-.0180135.0628662-.0180261.6055183-3419e-7 1.2110386-4513e-7 1.8165569 2644e-7.0295563 35e-6.059164-.00951.0886974-2327e-7C20.0907326 2.2751045 20.1411915 2.3424659 20.1992207 2.4018183z"/><path fill="#a252e6" d="M10.4811831 8.4895468c.0211706-.0136871.0449829-.0097284.0680246-.0097361.4110575-1287e-7.822114-753e-7 1.2331724-1411e-7.023118-29e-7.0468206.0032558.0680389-.0099955.0562925.0830107.1013584.1725168.1503353.2597618-.0211325.013279-.0447693.0102072-.0678663.01021-.4285774 477e-7-.8571529-696e-7-1.2857304 3815e-7-.0190125 2e-5-.0402126-.0075474-.0567446.0094805C10.5427561 8.6675797 10.5104923 8.5791836 10.4811831 8.4895468z"/><path fill="#a655e5" d="M10.7176895 9.0208569c.0226145-.0141897.0478973-.011198.0726824-.011199.4403114-219e-7.880621 181e-7 1.3209324-1125e-7.0230007-76e-7.0467806.0039921.0679245-.0096741.0601606.0799923.1203203.1599846.180481.2399769-.0212154.0132856-.0449247.0096836-.0679655.0096884-.4502125 973e-7-.900425 219e-7-1.3506374 1812e-7-.0304699 105e-7-.0633173-.0047464-.0809584.0302763C10.8132229 9.1933069 10.7564421 9.1120367 10.7176895 9.0208569z"/><path fill="#662dfa" d="M18.3115273 7.8098149c.2371979-.0532923.4743614-.1067414.7116127-.159802.0984478-.0220184.1975441-.0413365.2954159-.0656338.0429382-.0106597.0535583.0030828.0519104.0430527-.0012207.0295725-.0052338.0597825.0032196.0892024.009306.061398-.0022907.1221585-.0057373.1831732-.1144314.0243745-.2290497.0478978-.3432522.0732985-.2446232.0544076-.4889927.1099648-.7336178.1643806-.0170307.003787-.036335.0085564-.0512505-.007864-.010252-.012414-.0061054-.0257092-3147e-7-.0375643.0373173-.0763893.0471859-.1590281.056406-.2418957C18.2975578 7.8354387 18.2974243 7.8198128 18.3115273 7.8098149z"/><path fill="#813ef1" d="M13.871788 7.6798182c-19e-7-.1099815-57e-7-.2199626-95e-7-.3299441.0147648-.0155096.0348015-.0185571.0542727-.0227304.3106117-.0665693.6203833-.1369319.9306326-.2051268.02491-.0054755.0536013-.0247951.0779629.0041285 556e-6.1050549 2041e-7.2100635 1831e-7.3150225-.0043468.0250974-.0247631.0285063-.0444975.0328336C14.5746784 7.5432091 14.2591 7.6127548 13.9435501 7.6824422 13.9200401 7.6876349 13.89499 7.6988206 13.871788 7.6798182z"/><path fill="#7839f4" d="M13.871788 7.6798182c.1322041-.0196919.261013-.0555038.3916216-.0827851.2160816-.0451345.431694-.0925031.6474562-.1391573.0063276-.0013685.012105-.005281.0181398-.008008.0130711.0654035.0032406.1314874.005621.197217.0014982.0413551 3538e-7.0828109 227e-6.124157-.0062771.0229816-.0274153.0218511-.0442657.0256739-.3200512.0726094-.6406317.1428523-.9609737.2141643-.0188313.0041933-.0388918.012146-.0578232-.0013266C13.8717899 7.899775 13.871788 7.7897964 13.871788 7.6798182z"/><path fill="#bb61de" d="M18.2901573 3.592294c.0081425.0350385-.0235577.0272875-.0378323.0308194-.1091747.0270145-.2188053.0522761-.3286343.0765393-.2196541.0485244-.4395676.0958822-.6592999.1440589-.25527.0559683-.5105076.1120856-.7655888.1689012-.0190372.0042396-.0362778.0134802-.0401974-.0160241.1329212-.1539507.301981-.2544725.489336-.3259089.2943974-.1122484.6017513-.13921.9134731-.1291234.1308823.0042355.2624359.0082741.3894138.0476606C18.2630768 3.5930169 18.2770081 3.5913975 18.2901573 3.592294z"/><path fill="#ae59e2" d="M13.8717823 5.4301257c0-.1066465-1e-6-.2132931-1e-6-.3199391.0137978-.0139971.0324326-.0160141.0501747-.0199161.3004494-.0660753.6005764-.1336088.9011431-.1991348.0359583-.0078397.0760403-.0329127.1114836.0047345 6475e-7.1023741 3347e-7.2047024 164e-6.3069825-.0041504.0162196-.0182047.0175691-.031086.0202208-.3243828.0667901-.6467285.1428366-.9702921.2133532C13.9123049 5.4410176 13.8907642 5.447258 13.8717823 5.4301257z"/><path fill="#9d4fe8" d="M10.3096104 7.9715185c.0029459-.0238576.020936-.0217042.0376205-.0217047.4107952-72e-7.8215914-1025e-7 1.2323866 4072e-7.0144567 176e-7.028904.0060568.0433636.0092912.0329618.0799441.0659161.1598878.0988731.2398314-.0324097-.0186768-.0645952.0016193-.0969973.0014839-.3940039-.0016489-.7880192-.0011902-1.1820307-7563e-7-.022398 257e-7-.054163-.0112467-.0530062.0310326C10.3512535 8.1482315 10.3301926 8.0599489 10.3096104 7.9715185z"/><path fill="#7838f4" d="M16.1416416 7.5598388c0-.1033163.0-.2066326 19e-7-.3099489.0192184-.0215926.0465221-.0244346.072176-.0301404.3062916-.0681238.6130238-.1342607.9192619-.2026353.024931-.0055661.0517292-.0181618.0739517.0077338.0120831.0994353.0098858.1989045.0012321.2983809-.0145435.0245252-.0408306.0272293-.0646095.0324922-.3118057.0689998-.623394.1389666-.9352436.2077613C16.1863766 7.5683427 16.1629372 7.5778441 16.1416416 7.5598388z"/><path fill="#6f33f7" d="M14.92906 7.7798076c-114e-7-.1099801-238e-7-.2199602-448e-7-.3299398 229e-7-.1099639 544e-7-.2199278 858e-7-.3298917-.0233345-.0325642-.0131025-.0699859-.0144367-.105463-.0012951-.0344892-.0015478-.0691214 6695e-7-.1036501-.0014963-.0728955-.0018454-.1457973 1049e-7-.2186909-.0016565-.0605001-.001112-.1210217-2451e-7-.1815176 2937e-7-.0204711-.0033798-.0435219.0189428-.0572524.0011244.014823.0032244.0296464.0032282.0444689 1602e-7.5583606 1593e-7 1.1167202-238e-7 1.6750808-57e-7.0165024-.002183.0330029-.0033474.0495043-.0016451.1155176.0275974.1009989-.1029558.1302567-.2891359.0647984-.5783596.1292048-.8677368.1929188-.0297766.0065565-.0601873.0228195-.0915251.0040703.0-.0999823.0-.1999645.0-.2999468.0181437-.0173426.0423269-.0179977.0647736-.0230007.3034191-.0676413.6071463-.1339016.9106522-.2011528.0685587-.0151911.06637-.0158806.0692263-.0890431C14.9184694 7.8842769 14.902833 7.8301969 14.92906 7.7798076z"/><path fill="#ac58e3" d="M11.1898518 9.7808228c.0070543-.033371.0340595-.02073.0528936-.0207624.4015293-6933e-7.8030615-5255e-7 1.2045918-5255e-7.1066313.0.2132654-4673e-7.31989 3119e-7.0285444 2089e-7.0563107-.0019512.0835257-.0104799.0642576.0533819.127614.1079025.1931047.1597252.0404253.0319881.0018911.0441046-.012332.0630083-.0154991-.0222569-.0387039-.0226765-.06248-.0226717-.5197964 1059e-7-1.0395937-801e-7-1.5593901 5112e-7-.0295486 334e-7-.0590897.0062275-.0886345.0095549-.0243187-.0236444-.0431299-.0514545-.0606718-.080224-.0193577-.0217791-.0295773-.0507002-.0537262-.0687351C11.2010326 9.8006306 11.1954422 9.7907267 11.1898518 9.7808228z"/><path fill="#692ff9" d="M13.8717756 8.5497017c.2181864-.047843.4364042-.0955276.654541-.1435928.1131134-.0249233.2256174-.052927.3393259-.0746851.0488806-.0093527.0751572-.0264502.0648575-.0797434-.0017757-.0091801.0021992-.0194721.0035067-.0292368.0058441.0966454.0055599.1932802 696e-7.289917C14.933692 8.5488558 14.9389858 8.5855055 14.9311314 8.62181c-.0884705.0294638-.1804638.0444708-.2711678.0643358-.2341194.0512772-.4679232.1039619-.7020683.1551027-.0280781.0061321-.0578871.0209284-.0861034-.0015879C13.8717861 8.7430077 13.8717813 8.6463556 13.8717756 8.5497017z"/><path fill="#984ce9" d="M11.5312996 7.6896238c-.0124187-.0301127-.0373163-.0302429-.0650101-.0302024-.4117975 597e-6-.823595 411e-6-1.2353916 4101e-7-.019331-.0648932-.0336704-.1308246-.0412474-.1981635-.0057573-.0140471-.0070105-.0280037 843e-6-.0417762.422823-38e-7.8456478-76e-7 1.2684689-119e-7C11.4830742 7.5097947 11.5071869 7.599709 11.5312996 7.6896238z"/><path fill="#8943ee" d="M10.1308012 5.8500924c.3779535.0.7559118 8688e-7 1.1338558-.0010543.0495892-2518e-7.0898714-668e-7.0960627.0612202-.0062141.0676861-.0124302.1353712-.0186405.203063-.0161476-.0218363-.0397034-.0128436-.06001-.0128713-.3901367-5288e-7-.7802744-3886e-7-1.1704121-3862e-7C10.1047134 6.0157199 10.1210909 5.9331613 10.1308012 5.8500924z"/><path fill="#6e32f7" d="M17.1989365 7.3298798c38e-7-.1033182 76e-7-.2066364 114e-7-.3099542-.0141087-.0163288-.0146217-.0363765-.0146217-.0562158-19e-7-.0709887-.0017242-.1419868 8221e-7-.2129593-.0017071-.0867605-.0019131-.1735258 38e-7-.2602882-.0017357-.0930829-.0019855-.1861653 229e-7-.2792439-.0015945-.0735555-.0018044-.1471119 248e-7-.2206798-.0018616-.0360317-.0030193-.0722175 618e-6-.107996.0016365-.016099-.0050564-.0426893.0270996-.0402384.0154114.0202184.0131836.0441303.013195.067184 2861e-7.6288424 3281e-7 1.2576852-1507e-7 1.8865275-21e-6.0257382.0052567.0540571-.0194931.0737839-.1332626.0299625-.2664738.0601726-.3998051.0898328-.2108059.0468955-.4216919.0934234-.6325436.1401067-.0208073-.095314-.0348148-.1913786-.031971-.2893062.1344433-.0132084.2636223-.0525737.3950081-.0806861.1917706-.0410328.3833599-.0830159.5747795-.1257133.0713425-.0159144.0736465-.0182543.0738258-.0924983 992e-7-.041553-2327e-7-.0831065 1545e-7-.1246576C17.1861019 7.3670092 17.1848907 7.3466558 17.1989365 7.3298798z"/><path fill="#9f50e7" d="M16.1416512 5.7000766c0-.0966444.0-.1932888.0-.2899327.0178127-.0203476.0431786-.0238638.0673027-.0290432.3099861-.0665493.6191864-.1366487.9288082-.2048349.0235233-.0051808.0488358-.0159745.0691795.0086832.0121613.0928926.0100956.1858163.0010548.2787447-.0103016.0186439-.0298023.0196662-.0472908.0236244-.3201637.0724511-.6408062.1427665-.9612198.2140918C16.1806488 5.7056031 16.1605854 5.713562 16.1416512 5.7000766z"/><path fill="#803df1" d="M20.42136 4.890224c.3981304 14e-7.7962608 153e-7 1.1943893-257e-7.0215073-24e-7.0435333.0028872.0631065-.0097828.0352211.0834498.0539608.1714835.0722198.2596502-.0412636.0056486-.0827808.0060763-.1243248.0060749-.3346367-167e-7-.6692734 939e-7-1.0039101-1535e-7-.0383663-277e-7-.0765381.0011549-.1144714.0071468C20.4793682 5.0654974 20.4503632 4.9778609 20.42136 4.890224z"/><path fill="#8440f0" d="M21.8382702 5.6005478c-.3895416-1407e-7-.7790852-801e-7-1.1686268-7563e-7-.0355453-615e-7-.061161.0016775-.0428715.0490332.006176.0159912.0015812.0361423.0019073.0544043-.0190754-.0904613-.0384274-.1808763-.057024-.2714467-.0048504-.0236297-.0073376-.0477438-.0109119-.0716348.0170746-.0175581.0395603-.015748.0608673-.0158329.3809376-.0015221.761879.0015111 1.1428146-.0017314.0118504-1011e-7.0232563 9694e-7.0334816.0076237C21.8133354 5.4333353 21.835701 5.5153461 21.8382702 5.6005478z"/><path fill="#994de9" d="M16.1416512 5.7000766c.2535591-.0565944.5071049-.113256.7606907-.1697421.0807762-.0179925.1618595-.0346646.2423344-.0538988.018198-.0043497.0358543-.0060158.0540924-.0063581.0166893.013442.0144348.0326476.0146236.0506291 6084e-7.0582399-.0015106.1165581 7668e-7.1747079.0017414.0445166-.0166149.0669641-.0597324.0765491-.1478233.0328617-.2957325.0653362-.4436588.0977283-.1690617.0370197-.3379555.0747938-.5070019.1118755-.020565.0045114-.0418148.0144715-.0621147-.0015168C16.1416512 5.8867259 16.1416512 5.7934012 16.1416512 5.7000766z"/><path fill="#8943ee" d="M17.1990318 6.2100654c-134e-7.0933208-267e-7.1866417-401e-7.2799625-.0139771.0136032-.0325413.0159016-.0502396.0198727-.3127594.0701766-.6257229.1394572-.9386272.2089863-.0224209.0049829-.045557.0106988-.0684738 7463e-7.0-.0932097.0-.1864204 19e-7-.2796307.0192204-.021574.0464916-.0245423.0721607-.0300546.308239-.0661993.6157513-.1356945.9235611-.2038302C17.1581554 6.2015181 17.1794777 6.1933551 17.1990318 6.2100654z"/><path fill="#c065dc" d="M14.9290352 3.8603764c-.1031895.0133743-.2032404.0418952-.3046627.0636981-.2255516.0484872-.4507313.0987184-.676013.1484606-.0151892.0033536-.0325165.017344-.0379753-.0111279.1330223-.1162443.2195663-.2643516.2898531-.4234858.009676-.0219078.0177288-.0386102.0486898-.0383785.2208576.0016532.4417343 8965e-7.6626043.0010991.0064888 57e-7.0129766.002142.0194645.0032849C14.9362068 3.689455 14.9400187 3.7749722 14.9290352 3.8603764z"/><path fill="#8f46ec" d="M14.9290352 3.8603764c6428e-7-.08549.0012865-.17098.0019445-.2564595.0125322.0126004.0064182.0284522.006422.0426328 247e-6.9207182 144e-6 1.8414364-954e-7 2.7621551-38e-7.0148835-.0020542.0297666-.0031605.0446744-.0016689.0788927-.0033274.1577625-.0049858.2366319-.0195045.0210619-.0466299.0242438-.0723219.029933-.2996902.0663548-.5993929.1326509-.8990049.1993532-.0278816.0062075-.0573015.0217857-.0860538 6256e-7 29e-7-.0833182 48e-7-.1666365 76e-7-.2499547.0181913-.0173407.0424252-.017909.0648928-.0229645.3004694-.0676117.6016531-.1319847.9021883-.1992931.0768404-.0172105.076663-.0179.0769148-.0944157 1631e-7-.0499406-3452e-7-.0998816-1173e-7-.1498804-.0020542-.0746632-.0018101-.1492701-3099e-7-.2238922-.0018225-.0830431-.001893-.1660695-601e-7-.2490993-.001749-.0867405-.001894-.1734781-21e-6-.2602205-.0025005-.0678716-8917e-7-.1357565-8593e-7-.2036319 105e-7-.0198922 4826e-7-.0399961.0145445-.0564203 19e-7-.1066465 48e-7-.2132936 86e-7-.3199406-.0127964-.0147557-.0156317-.0329833-.0142221-.0510306.0054331-.0695953-.0159378-.1410508.014267-.2089114-48e-7-.0866623-95e-7-.1733251-229e-7-.2599874 29e-7-.0833125 153e-7-.1666245 191e-7-.2499366C14.9290133 4.0336876 14.9290237 3.947032 14.9290352 3.8603764z"/><path fill="#7e3cf2" d="M17.1989689 6.7499638c0 .0899873-38e-7.1799746-134e-7.2699618-.1148834.0244355-.2298698.0483651-.3446102.0734105-.2376366.0518708-.4751434.1043344-.7127018.1565537.0-.0933199.0-.1866393.0-.2799592.0233059-.0199413.0534954-.0160027.0804958-.022162.298069-.0679941.5971355-.1315112.8954487-.1984363C17.1440315 6.7434001 17.1720753 6.729516 17.1989689 6.7499638z"/><path fill="#823ef1" d="M21.7979069 5.3502069c-.02388.0077429-.0481853.0102906-.0734425.010262-.387907-4458e-7-.7758141-3166e-7-1.1637211-3214e-7-.0174561-.0690103-.0349083-.13802-.0523682-.2070212.0076828-.0355468.0364799-.0223589.0568447-.0223994.370409-7291e-7.7408199-8664e-7 1.1112251 2236e-7.0245514 72e-6.0525017-.014967.0746288.0091147C21.7666855 5.2101126 21.7822971 5.28016 21.7979069 5.3502069z"/><path fill="#7235f6" d="M17.1989365 7.3298802c33e-5.073266-.0018158.1466622.0020008.2197471.0020123.0385637-.0134716.0528283-.047863.0602565-.1972599.0426049-.3942833.0863066-.5913582.129766-.1260128.0277891-.2522163.0548091-.3777294.0847082-.0206051.004909-.0310574 309e-6-.0418396-.0139256-1678e-7-.0835304-3376e-7-.1670623-5054e-7-.2505937.1327343-.0199122.2622013-.0553279.393198-.0834284C16.7564831 7.428863 16.9775982 7.3788538 17.1989365 7.3298802z"/><path fill="#a856e4" d="M14.9289598 5.2101502c-29e-7.0866542-57e-7.1733074-76e-7.2599611-.0191116.0186839-.0447054.0215092-.0687933.0268312-.3055296.067502-.6109114.1356573-.916357.2035255-.0233917.0051975-.0481739.0171461-.0720272-3757e-7 29e-7-.0899892 48e-7-.1799774 76e-7-.2699666.0795689-.0059896.1555319-.0301652.2328405-.0471544.2550602-.0560474.509676-.1141133.7646542-.1705446C14.888402 5.2081938 14.90903 5.2107496 14.9289598 5.2101502z"/><path fill="#7e3cf2" d="M19.3737659 6.2531481c-.001646.0789776-.0032921.1579556-.0049381.2369328-.0129642.0174837-.0323887.0217514-.0520782.0261779-.3146439.0707507-.629694.1396799-.944458.2098842-.0238552.005321-.0493183.013484-.0692635-.0106454-.0140495-.0802679-.0139179-.1605258-2098e-7-.2407804.0155525-.0215006.0406284-.0206423.0627728-.0255008.3104248-.0681152.6202354-.1390061.9309559-.2057524.044117-.0094767.0605927-.0310936.0594387-.0754776-.002203-.0847969-6561e-7-.1696959-7706e-7-.2546072-.0019073-.1009111-.0019646-.201766-1545e-7-.3026261-.0016499-.0764799-.0018711-.1529536 248e-7-.2294221-.0016575-.0603242-.0015106-.1206474 1221e-7-.1809716-.0019474-.0701079-.0017452-.1402135-1488e-7-.2103314.0033741-.0442429-.0146904-.0911651.0164318-.1319337.0084343.0155277.0056.0325298.0056076.0488925 2041e-7.4355354 1717e-7.8710718-21e-6 1.3066072C19.3770695 6.2267795 19.374918 6.2399635 19.3737659 6.2531481z"/><path fill="#9e50e7" d="M19.3714905 4.8580942c-8926e-7.0440454-.0017853.0880909-.0026779.1321359-.0206356.0196362-.0480347.0222292-.0737171.0279565-.308794.0688596-.6180077.1358237-.9268627.2044139-.021822.0048456-.0454941.015995-.0650101-.0068288-.0149879-.0828795-.0129013-.1658487-.001667-.2488561.0201149-.0298438.0539818-.0301661.0838623-.0367827.2980824-.0660057.5960426-.1325393.8940659-.1987958.0276279-.0061421.0541267-.0154014.0811996-.0230393C19.3750763 4.7574511 19.3707943 4.8079524 19.3714905 4.8580942z"
		/><path fill="#833ff0" d="M17.1989689 6.7499638c-.1003113.0123491-.1974487.040225-.2958794.0615425-.2342033.0507226-.4677601.1044393-.7017727.1560655-.0191326.0042205-.0397491.0017304-.0596733.0023589 19e-7-.0834322 38e-7-.1668649 76e-7-.2502975.1316853-.0297184.2632771-.0598536.3950768-.0890598.2027702-.0449324.4057617-.088871.6083946-.1343994.0181408-.0040746.035717-.0059099.0538769-.0061464C17.1989841 6.576673 17.1989765 6.6633186 17.1989689 6.7499638z"/><path fill="#a956e4" d="M16.1491318 4.7575579c2899e-7.0349288.0015278.0698824 5856e-7.1047778-8278e-7.0306416.0076485.0409322.041214.0333018.2062626-.0468917.4129829-.0917826.6196041-.1370835.1210155-.0265317.2421436-.0525479.3631992-.0789013.021162-.0046072.0417271-.0106483.0554466-.0294218.0206776.0281916.0021858.0561814-.0010872.0840092-.0022659.0192647-.0042992.0386925-.0082588.057785-.0153847.0445032.0046787.0928764-.0148029.1369247-.0248489.0227523-.0576572.0241036-.0878868.030807-.2980232.0660911-.5958939.1328654-.8939781.1986775-.0264416.0058374-.0540047.0202632-.0815105.0017371C16.1424732 5.0259361 16.1310043 4.8914723 16.1491318 4.7575579z"/><path fill="#b35de0" d="M14.9290133 4.6302681c-95e-7.086647-2e-5.1732945-362e-7.2599421-.1082144.0054107-.2109261.0396314-.3157873.061872-.2343712.0497088-.4677811.1039429-.7016821.1558843-.0127773.0028372-.0264635.0015745-.0397263.0022202-555e-6-.054616-.0035477-.109355-8087e-7-.1638055.0018387-.036551-.0078535-.0520797-.0461082-.0466533-.017745.0025177-.0362902-5913e-7-.0544729-.0011497.0283842-.0306072.0692902-.0285125.1048489-.0366049.2638617-.0600495.5282745-.1176777.7925835-.1757612C14.7547846 4.6671019 14.8419447 4.648891 14.9290133 4.6302681z"/><path fill="#a453e5" d="M13.8717747 5.7000923c.2181931-.0478401.4363403-.0958819.6545944-.1434426.1341171-.0292263.2683954-.0577178.4025917-.0865383-114e-7.086648-143e-7.1732965-181e-7.2599444-.0434256.0282946-.0949411.029119-.1430349.0394945-.2796955.0603404-.5585995.1242204-.8380537.1856174-.0256195.0056281-.0520039.0155358-.0760679-.0051122C13.8717823 5.866734 13.8717785 5.7834134 13.8717747 5.7000923z"
		/><path fill="#9e50e7" d="M13.8717861 5.9500556c.0819693-.0014629.1591644-.0287704.2380953-.0456901.2601252-.0557599.5195494-.1147928.7793388-.1721349.012784-.0028224.026473-.0015435.039731-.0021749-29e-7.0833259 29e-7.1666522 95e-7.2499781-.0141802.0160737-.0337467.0200992-.0534039.0245018-.3103714.0695086-.62148.1356812-.9317102.205842-.0233736.0052857-.0481939.0171633-.0720634-3557e-7C13.8717842 6.1233664 13.8717842 6.0367112 13.8717861 5.9500556z"/><path fill="#a554e5" d="M16.1416569 5.1601715c.2181702-.0478334.4362965-.0958662.6545258-.1434283.1341019-.0292263.2683582-.0577326.4025459-.0865622.0117836.0089974.0141525.0221372.0144691.035521.0014191.0596223.0014172.1192598 38e-7.1788821-3166e-7.0133839-.0026817.0265241-.0144482.0355353-.1148491.0244727-.2298012.0484695-.3445244.0735173-.2375908.0518737-.4750595.1043053-.7125778.156507C16.1416531 5.3268194 16.141655 5.2434959 16.1416569 5.1601715z"/><path fill="#9349eb" d="M17.1987534 5.1801195c-19e-7-.0833125-19e-7-.1666255-153e-7-.249938.006525-.0463638-.008028-.0939813.0083065-.1397614.0217896.0168214.0188179.0415306.0188637.0642333 6294e-7.3077731 7458e-7.6155472-1431e-7.9233189-629e-7.0222149.0043678.0477729-.0209427.0623193-.0105133.0496078-9899e-7.0999837-.0057411.1498127-.0183468.0168414-.0424957.0182114-.0648842.0232263-.3130875.0701308-.6265717.1384606-.9398918.2075377-.0173206.0038185-.0353413.0120397-.0526581-8621e-7.0-.0799851 19e-7-.1599708 38e-7-.2399554.2015305-.0445085.403038-.0891151.604599-.1334891.1322155-.029108.2642479-.0591502.3969135-.0860615.0422192-.0085645.0613251-.0237608.0579758-.0711117-.0051517-.0727944-.0019875-.1461768-.0023613-.2193103C17.1987629 5.373425 17.1987572 5.276772 17.1987534 5.1801195z"/><path fill="#7436f5" d="M14.92906 7.7798076c329e-6.0699697 5379e-7.1399407.0010624.2099094 1574e-7.0210052-4673e-7.035109-.0292578.0410619-.1896086.0392017-.3786297.0812588-.5677271.1229038-.1405935.0309639-.2809763.0628805-.4215765.0938196-.0128069.0028172-.0265017.0015974-.0397854.0022526 57e-7-.0800009 105e-7-.1600018 153e-7-.2400007.2535944-.0565987.5071764-.1132622.7607946-.1697564.0807867-.0179958.1618776-.0346985.2423649-.0539351C14.893158 7.7817116 14.9108152 7.780076 14.92906 7.7798076z"/><path fill="#a453e5" d="M19.3606834 4.7082977c-.001873.0253611-.0245018.0261617-.0403023.0296879-.3344898.0746408-.6692028.148273-1.0038815.2220607-.0015907 351e-6-.0033073 1168e-7-.0049667 1564e-7-.005434-.0039964-.0109863-.009078-.0113201-.0155249-.0039558-.0765367-.0170116-.1528068-.0073624-.2297602.0138435-.0201149.0366116-.0214348.0573425-.0260429.302393-.0672145.6048927-.1339488.9074726-.2003222.0209465-.0045943.0421162-.0126271.0626621.0015407C19.3450565 4.5607429 19.3571281 4.6337328 19.3606834 4.7082977z"
		/><path fill="#a856e4" d="M19.3203278 4.4900932c-.1886139.0411291-.3770866.082921-.5658855.1231771-.151598.0323238-.3013935.0731177-.454792.0969834-.0102386-.0033512-.0164757-.0110254-.019186-.0207319-.0177116-.0634246-.0438957-.1230578-.0775108-.1796699-.006321-.0106449-.0125179-.024014 9975e-7-.0354428.1217232-.0335269.2459335-.0561256.368988-.0837798.2041912-.0458879.4086323-.0906692.6128426-.1364927.0145741-.0032701.0289497-.0079093.0441456-.0040569C19.2745075 4.3246441 19.3010063 4.4060173 19.3203278 4.4900932z"
		/><path fill="#954aea" d="M14.9289751 6.2099667c3452e-7.0631347-763e-7.1262875.0013685.1893973 7067e-7.030848-.0069218.0448251-.0422468.0524211-.3066139.0659299-.6124687.1353755-.9186935.203124-.032073.0070963-.0639191.0176582-.0976162.015059-29e-7-.0766554-48e-7-.1533113-76e-7-.2299666.0139294-.0163431.0335407-.0201349.0530901-.0244975.3140802-.0700808.6283646-.1392369.942441-.209331C14.8880606 6.2015424 14.909379 6.1933327 14.9289751 6.2099667z"/><path fill="#662dfa" d="M13.8717909 8.8396606c.105916-.0091858.2074194-.0407019.3106937-.062809.2326689-.0498047.4644995-.1035223.6968184-.1549835.0159473-.0035334.0331135-.0015745.0497122-.0021706.0133762.0690737.0045061.1387873.0046778.2081442 82e-6.0327301-.031558.0345411-.0554142.0396986-.117238.0253448-.2339888.0529356-.3513699.0775671-.1954451.0410118-.3885202.0933657-.5863743.1228571-.0704002.0036993-.0706167.0036983-.070343-.0641584C13.8704109 8.94909 13.8712349 8.8943758 13.8717909 8.8396606z"/><path fill="#994de9" d="M14.9289751 6.2099667c-.1148624.0244679-.2298288.0484548-.3445644.0735049-.2376099.0518775-.4750948.10432-.7126312.1565299 19e-7-.0766597 29e-7-.1533198 38e-7-.2299795.2344189-.0510073.4688349-.1020193.7032547-.153019.1179781-.0256672.235961-.0513129.3539324-.0769682C14.9289656 6.0566783 14.9289703 6.1333222 14.9289751 6.2099667z"/><path fill="#8f46ec" d="M16.1416473 6.2200065c.2396393-.0533376.479044-.1077523.7190189-.1595383.1126099-.0243006.2234249-.0575333.3384209-.070365-172e-7.0733209-267e-7.1466413-477e-7.2199621-.1148911.0244198-.2298889.0483236-.3446388.0733676-.2376518.0518699-.475172.1043439-.7127476.156569C16.1416512 6.3666701 16.1416473 6.2933383 16.1416473 6.2200065z"/><path fill="#8641ef" d="M14.929121 6.9099412c-19e-7.0700107-29e-7.1400208-114e-7.2100334-.3021994.0666876-.6043568.1335192-.9066114.1999149-.0500221.0109873-.0990505.0272026-.1507196.0299845 1e-6-.0733223 38e-7-.1466446 57e-7-.2199674.0126238-.012826.0297461-.0136595.0458555-.0172491.3050928-.0679841.6101284-.1362205.9156475-.2022591C14.8644342 6.9036665 14.8971539 6.8861957 14.929121 6.9099412z"/><path fill="#8a43ee" d="M14.929121 6.9099412c-.0815554.0038071-.159297.0286446-.2382126.0456557-.2568941.0553784-.5129175.1148043-.7694159.1720352-.0159445.0035582-.0331106.0016432-.0497084.0022745-1e-6-.0699949-29e-7-.1399889-48e-7-.2099838.1327438-.0199199.2622223-.0553317.3932314-.0834317.2216635-.0475459.4428034-.0975251.664156-.1464806C14.9291477 6.7633209 14.9291344 6.8366313 14.929121 6.9099412z"/><path fill="#ae59e2" d="M19.2299271 4.2500796c-.0519409.0327039-.1131935.0342941-.1702652.0473347-.2685909.0613732-.5381527.1184945-.8074512.1767569-.0176296.0038137-.0359364.0044875-.0539284.0066218-.0486279-.0105467-.0716057-.0597796-.1162777-.0770135-.013916-.0053678-.0322094-.0107203-.0325642-.0319223.0332146-.0482655.0897179-.0382223.1353855-.0490208.2331104-.0551233.467535-.1046948.7015152-.1561379.0709629-.0156021.1419086-.0313044.2130222-.0461979.0150337-.0031486.0288219-.0072527.0398388-.0183077C19.1797981 4.1451364 19.2075653 4.195951 19.2299271 4.2500796z"/><path fill="#622bfb" d="M13.9405346 9.0679646c.0842571-.0364246.1756535-.0453224.2637539-.066246.2027264-.0481443.4068604-.0903654.6104164-.1350222.0016069-3529e-7.0030718-.0013371.0046759-.0017328.1106806-.0273495.1107607-.0273476.1106329-.1404057-381e-7-.0349531-6371e-7-.0699072-9899e-7-.1048603.001687-.0357876.0033817-.0715752.0050659-.1073494.0011129.1761646.0018053.3523216.003767.5284653 35e-5.0314884-.0188942.0289106-.0393658.0288858-.1164312-1411e-7-.2328606 1268e-7-.3492918-1059e-7C14.3463106 9.0691891 14.1434231 9.0685225 13.9405346 9.0679646z"/><path fill="#aa57e3" d="M20.7396851 9.8762722c.0114746-.0264626.0231514-.0527706.0513439-.0662889C20.7782116 9.8354034 20.7663612 9.8615789 20.7396851 9.8762722z"/><path fill="#ab58e3" d="M11.2066231 9.8105354c.0319548.0119352.0425425.0405684.0537262.0687361C11.2358818 9.8614845 11.2227688 9.8348255 11.2066231 9.8105354z"/><path fill="#9b4ee8" d="M21.6196728 8.1992292c.0026398-.029048.0096436-.0565147.0288067-.0795822C21.6430511 8.1476851 21.6392498 8.1763115 21.6196728 8.1992292z"/><path fill="#8440f0" d="M20.6504307 5.9200883c.0030689-62e-7.006134-81e-7.009201-62e-7-2079e-7.0273337-4139e-7.0546675-6237e-7.0820088C20.6450062 5.9759264 20.6562996 5.9471102 20.6504307 5.9200883z"
		/><path fill="#9248eb" d="M10.1470947 7.2205205c.0251064.0184994.0078688.0456176.0138464.0680094C10.1436214 7.2684455 10.1611147 7.2412758 10.1470947 7.2205205z"/><path fill="#9d4fe8" d="M10.4455271 8.4006033c.0225658.0154047.0241842.0386763.0235796.0627947C10.4612455 8.4424744 10.4533873 8.4215393 10.4455271 8.4006033z"/><path fill="#9248eb" d="M10.1696663 7.3500056c.0193863.0167508.0069828.0394502.0110531.0590663C10.1630306 7.3920026 10.176115 7.3691764 10.1696663 7.3500056z"/><path fill="#9248eb" d="M10.1617966 7.2896948c.0154619.0185428.006032.0404305.0081654.0607667C10.1543922 7.331933 10.1661167 7.3097358 10.1617966 7.2896948z"/><path fill="#8440f0" d="M20.6401405 5.8000402c.0174274.0184593.0067768.0410166.0090027.0616994C20.6324749 5.8431711 20.6415272 5.8208447 20.6401405 5.8000402z"/><path fill="#7738f4" d="M10.4691153 4.4266768c.0029583.0205112-.0022497.0383682-.0172358.0530434C10.4512482 4.4599643 10.4588642 4.4428921 10.4691153 4.4266768z"/><path fill="#8440f0" d="M20.629694 5.7400846c.0182133.0173049.0066357.0397453.0102711.0595627C20.6243458 5.7818947 20.6353207 5.7595587 20.629694 5.7400846z"/><path fill="#a252e6" d="M21.2597923 9.0396137c.0026512 76e-7.0053043 95e-7.0079575 86e-7-.0010414.0154419-.0064983.0288277-.0182953.039259C21.2481976 9.0645533 21.2530174 9.0518265 21.2597923 9.0396137z"
		/><path fill="#9047ec" d="M20.6194324 7.0894365c-.002779.0170021.0090637.0377631-.0128231.0498571C20.6157837 7.1239371 20.6036892 7.1031051 20.6194324 7.0894365z"/><path fill="#833ff0" d="M11.4002352 5.5999956c.0024567-.0167603-.0065889-.0357952.0098457-.0497909C11.4058094 5.566606 11.4123888 5.5851526 11.4002352 5.5999956z"/><path fill="#9047ec" d="M20.6284847 7.0385032c-7153e-7.0175371.0082741.0368276-.0092716.0513253C20.6219006 7.0726476 20.6115627 7.053113 20.6284847 7.0385032z"/><path fill="#8f47ec" d="M11.3622303 6.8795362c-.0181503-.0161185-.0163136-.0327816-.0013571-.0498037C11.3613262 6.8463326 11.3617783 6.8629346 11.3622303 6.8795362z"/><path fill="#9248eb" d="M10.1904936 7.4198918c-2813e-7.0139236-5608e-7.0278473-8421e-7.0417738-.01614-.0151448-.0054522-.0347123-.0085707-.0520048C10.1842184 7.4130707 10.187356 7.4164815 10.1904936 7.4198918z"/><path fill="#292929" d="M18.0494404 4.3718572c.0544586.0296941.1054363.0641451.1488438.1089354.0520496.0684214.0800343.1474724.101366.2294617.0039616.0833158.0079212.1666322.0118828.2499485-19e-7.0866532-38e-7.1733069-57e-7.2599602.0245686.0394769.0111027.083293.0136967.1251669.0017242.0277772.0013866.0558109-6523e-7.0836873.0015106.0571613.0016155.1143274 114e-7.1714959.0017624.0799289.0018425.1598525 401e-7.2397809.0019131.10324.0020046.2064738 553e-7.3097143.0026321.0877852 8469e-7.175581 9251e-7.2633686 191e-7.0198874-2937e-7.0400186-.0140839.0566235 76e-7.0833192 114e-7.1666389 172e-7.249958.0265846.0584373.0097389.1200047.0130596.1801233.0017529.0801272.0018272.1602545 381e-7.2403908.0027084.0876231 8602e-7.1752543 9613e-7.262877 21e-6.0198526-3185e-7.0399413-.0140686.0565171.0.1166496.0.2332988.0.3499484-.0024662.1114068-.0254688.2182107-.0716991.3198085-.1297722.1978931-.3294067.2232704-.5403881.2157335-.1323128-.0047264-.2554951-.0402145-.3579922-.1298676-.0904331-.0974941-.1249294-.2168183-.1349773-.3456898 2918e-7-.1479168 8106e-7-.2958336 845e-6-.4437504 1163e-7-.5070434 916e-7-1.0140858-362e-7-1.5211291-57e-7-.021544-.0016003-.0430875-.0024567-.06463 8316e-7-.1575475.0020847-.3150954.0023861-.4726448 3643e-7-.1924105-706e-7-.3848219-1621e-7-.5772295.0073776-.0467253.0147572-.0934548.0221348-.1401849.046032-.1409016.1334667-.2419729.2763309-.2918816.0408916-.0142851.083622-.0182724.1248398-.0297399.0202408-.0080667.042635.0022154.0627003-.0073524.0414066-448e-7.0828133-896e-7.1242199-1345e-7.0198402.0098219.0419788-3595e-7.062088.007134C17.9360523 4.3427901 17.9927483 4.3573241 18.0494404 4.3718572z"/><path fill="#ae59e2" d="M17.8793602 4.3282566c-.0210476 772e-6-.0422153.0025868-.0620708-.0071368C17.8380623 4.3226705 17.8600864 4.3134909 17.8793602 4.3282566z"/><path fill="#ae59e2" d="M17.6930523 4.3212571c-.0199928.0101805-.0414524.0078673-.0627003.0073528C17.6497345 4.3132257 17.6720371 4.3227224 17.6930523 4.3212571z"/><path fill="#7134f6" d="M18.3115273 7.4598665c0-.1066523 19e-7-.213305 38e-7-.3199573.0178108-.0203457.0432091-.0236769.0672894-.0290146.3029194-.0671449.6058655-.1341624.9087334-.2015381.0264015-.0058727.0543938-.0198755.0812569 5846e-7 3319e-7.088099-.0024605.1763682.0023117.2642264.0023842.0439186-.0155296.0569115-.0532265.0649533-.2002544.0427203-.4001598.08707-.6001511.131022C18.5823078 7.399909 18.4469318 7.4299493 18.3115273 7.4598665z"/><path fill="#7737f4" d="M19.3688107 6.9099412c-.103548.0138226-.2041283.041935-.3059235.0640969-.2506104.0545592-.5009251.1104908-.7513561.1658702-38e-7-.079987-38e-7-.1599751-76e-7-.2399631.0384769-.0268841.0850925-.0263996.1281929-.0361195.2754173-.0621076.5510063-.123476.8267479-.1841345.0333061-.0073266.0668907-.0220885.1024227-.0093632C19.3688622 6.7501988 19.3688354 6.8300705 19.3688107 6.9099412z"
		/><path fill="#7a3af3" d="M19.3688869 6.6703281c-.1428814.0326414-.2856045.0659981-.4286842.0977521-.1930676.0428472-.3863831.0845828-.5796833.12638-.0159798.0034547-.0326481.0037317-.048996.0054851 38e-7-.0599961 95e-7-.1199908 134e-7-.179987.0750923-.0032792.1463528-.0273428.2189713-.0427995.2719517-.057888.5430298-.1198754.8144188-.1804023.0080681-.0017991.0159492-.0044341.0239086-.0066776C19.3688469 6.5501633 19.368866 6.6102457 19.3688869 6.6703281z"/><path fill="#8440f0" d="M18.3115196 6.4700003c38e-7-.1066527 76e-7-.2133064 114e-7-.3199592.0166473-.0162563.0390835-.0176868.0598679-.0223231.3115616-.0694847.6231709-.1387706.9347801-.2080379.0203629-.0045257.0418606-.013762.0625877 4001e-7 3395e-7.0932174-2384e-7.1864524.0015392.2796426 5875e-7.0307484-.0109081.0443311-.0407848.0508428-.28759.062674-.5749569.1263657-.8623409.1899776C18.4155827 6.4519649 18.365263 6.4699717 18.3115196 6.4700003z"/><path fill="#8c44ed" d="M19.3687649 5.9200797c-.2535915.0565968-.507164.1132736-.7607841.1697426C18.5271969 6.10781 18.446085 6.1243887 18.3655949 6.1435905c-.0181847.0043383-.0358009.0063071-.0540638.0064507 19e-7-.1033187 19e-7-.2066369 57e-7-.3099556.0178127-.02034.0432072-.0236688.0672874-.0290055.3028965-.0671349.6058197-.1341548.9086666-.2015209.0263996-.0058732.0543842-.0198765.0812588 5369e-7C19.3687553 5.7134242 19.3687592 5.8167524 19.3687649 5.9200797z"/><path fill="#9248eb" d="M19.3687496 5.610096c-.1327705.0196924-.2622089.0552325-.3932095.0832882-.2216415.0474687-.4427013.0976572-.6640034.1467013-38e-7-.079988-76e-7-.1599751-114e-7-.2399631.0126305-.0128322.0297623-.0136476.0458755-.0172501.311655-.0696926.6235561-.1382723.9352264-.2078924.025671-.0057349.052042-.0151815.076149.0051546C19.3687668 5.4567881 19.3687592 5.5334425 19.3687496 5.610096z"/><path fill="#994de9" d="M18.3115368 5.4301362c-38e-7-.0699911-57e-7-.1399817-95e-7-.2099733.218214-.0478497.4363804-.0959139.6546574-.1434708.1341286-.0292225.2684231-.0576682.4026356-.086462-134e-7.0700059-21e-6.1400118-286e-7.2100177-.0129261.017529-.0323753.0217099-.0520401.0261321-.3144207.0706944-.6292839.139389-.9437408.2099175C18.3520279 5.4410038 18.3305054 5.4472618 18.3115368 5.4301362z"
		/><path fill="#964aea" d="M18.3115368 5.4301362c.0750923-.0032649.146347-.0273356.2189636-.0427918.271944-.0578837.5430164-.1198711.8143959-.1803961.0080681-.0017991.0159473-.0044498.0239048-.0067024-95e-7.0599647-76e-7.1199269-172e-7.1798887-.0820255.0012336-.1592693.0285392-.2381611.04561-.2568493.0555768-.5128937.1148753-.7693901.1721053-.0159454.0035572-.0331097.0016413-.0497074.0022726C18.3115292 5.5434604 18.311533 5.4867978 18.3115368 5.4301362z"/></g></svg>