<?xml version="1.0" encoding="utf-8"?>
<!-- Generator: Adobe Illustrator 24.1.1, SVG Export Plug-In . SVG Version: 6.00 Build 0)  -->
<svg version="1.1" id="Слой_1" xmlns="http://www.w3.org/2000/svg" xmlns:xlink="http://www.w3.org/1999/xlink" x="0px" y="0px"
	 viewBox="0 0 32 13" enable-background="new 0 0 32 13" xml:space="preserve" width="32px" height="13px">
<g>
	<path fill="#292929" d="M9.4913816,6.6859636c-0.0000029-0.1606345-0.0000057-0.321269-0.0000086-0.4819031
		c0.0108566-0.0373983-0.0020027-0.0763292,0.0073566-0.1138234c0.0008936-0.0251827,0.0017862-0.050365,0.0026798-0.0755472
		c0.0095816-0.0241055-0.0010843-0.0502205,0.007391-0.0744357c0.0008068-0.0158424,0.0016146-0.0316858,0.0024223-0.0475283
		c0.0099554-0.0199194-0.0008068-0.0423255,0.007493-0.0624433c0.0105972-0.1013179,0.0157509-0.203577,0.0330639-0.3037343
		c0.0262403-0.1518226,0.052597-0.303659,0.0876799-0.454083c0.0433941-0.18606,0.0920677-0.3701544,0.150568-0.5520658
		C9.8453197,4.3484602,9.9058628,4.1782904,9.9773102,4.012908c0.068326-0.1581569,0.1393452-0.3153205,0.2224083-0.4673138
		c0.1216354-0.2225718,0.2472115-0.442404,0.3915453-0.6508322c0.1254711-0.1811886,0.2592258-0.3557844,0.4036055-0.5232811
		c0.1590872-0.1845598,0.3255386-0.3612697,0.5019484-0.5284936c0.1397772-0.132498,0.2844362-0.2601049,0.4406528-0.373668
		c0.0118866-0.0086418,0.0219584-0.0197802,0.0328741-0.0297581c0.0147734-0.0071329,0.0256929-0.0194436,0.0387735-0.0288512
		c0.1555004-0.1191791,0.3156185-0.2323108,0.4828386-0.3338912c0.4818945-0.2927325,0.9901228-0.5290135,1.5293922-0.6963919
		c0.704114-0.2185432,1.4251289-0.3198006,2.1616592-0.2968642c1.2844105,0.0399981,2.4635448,0.4123942,3.5290928,1.135036
		c0.0927811,0.0629227,0.1837101,0.1285757,0.2754974,0.1929607c0.0161915,0.0074172,0.0290775,0.0191346,0.0412807,0.0317376
		c0.0123768,0.0179673,0.0289612,0.030468,0.0493717,0.0379963c0.0152969,0.0086327,0.029213,0.018975,0.0403996,0.0326865
		c0.1038532,0.0950253,0.2144623,0.1821787,0.3183975,0.277313c0.1364403,0.1248848,0.2672501,0.2553222,0.3937092,0.3898044
		c0.1519833,0.1616268,0.2926807,0.3332262,0.4254646,0.5112429c0.2456627,0.3293419,0.459362,0.6780438,0.6366997,1.0486758
		c0.2010117,0.4201074,0.3561592,0.8561544,0.4577827,1.3113232c0.0527401,0.2362137,0.0955219,0.4736376,0.1192493,0.7144942
		c0.0021019,0.0213189,0.007473,0.0423164,0.0113277,0.0634632c0.0083332,0.0200663-0.0025177,0.042448,0.0075207,0.0623088
		c0.0007992,0.0158868,0.0015965,0.0317745,0.0023956,0.0476618c0.0084763,0.0242066-0.0021801,0.0503092,0.0073776,0.0744085
		c0.0008926,0.025187,0.0017834,0.0503745,0.0026779,0.0755615c0.009409,0.0374341-0.0035114,0.0763159,0.0073681,0.1136546
		c0.0000019,0.1607351,0.0000038,0.3214703,0.0000095,0.4822054c-0.0108967,0.0373464,0.0020332,0.0762386-0.0073776,0.1136813
		c-0.0008945,0.025187-0.0017853,0.0503745-0.002676,0.075561c-0.0095634,0.0240965,0.0010891,0.0501962-0.0073719,0.0744019
		c-0.0007992,0.0158839-0.0015984,0.0317678-0.0023975,0.0476518c-0.0100422,0.019865,0.0008049,0.0422511-0.0075264,0.0623221
		c-0.0407448,0.3333044-0.093708,0.6642313-0.1812115,0.9891186c-0.1202984,0.4466381-0.2850895,0.8757277-0.5000343,1.2853413
		c-0.1864185,0.355258-0.4046783,0.6894827-0.6532383,1.0048847c-0.2072792,0.2630215-0.4371586,0.5042686-0.6801758,0.7333403
		c-0.1119328,0.1055126-0.2317333,0.2026796-0.3479671,0.3036308c-0.0111904,0.0137167-0.0251102,0.0240583-0.0404129,0.0326948
		c-0.0990372,0.0714054-0.1977768,0.1432276-0.2971706,0.2141333c-0.2414665,0.1722593-0.49576,0.3231497-0.7594833,0.4588165
		c-0.211977,0.1090441-0.4291306,0.2059164-0.6518955,0.2905197c-0.0106354,0.0040398-0.0199547,0.0115499-0.0298862,0.0174427
		c-0.0159283,0.0120049-0.0354156,0.0135365-0.0538101,0.0182753c-0.0117035-0.0028849-0.0179119,0.0066175-0.0261269,0.01159
		c-0.0328941,0.0289078-0.0782871,0.0204239-0.1148415,0.0383825c-0.029211,0.0075674-0.0587769,0.0141439-0.0849571,0.0302334
		c-0.0550709,0.0131407-0.1053448,0.0420418-0.1621838,0.0493774l0.0011635-0.0007772
		c-0.0218983,0.0127296-0.0473824,0.0134869-0.0707817,0.0212049l0.0010548-0.0006142
		c-0.0225582,0.011097-0.0474148,0.014101-0.071373,0.0202627l0.0011597-0.000761
		c-0.1622124,0.0485363-0.3275146,0.0838022-0.4932213,0.1180105c-0.09729,0.0200853-0.1955471,0.0351181-0.2930107,0.0538216
		c-0.0654297,0.012557-0.1331615,0.0230684-0.2007618,0.0269508c-0.0393066,0.0022564-0.0784111,0.0081482-0.1174946,0.0116978
		c-0.1132126,0.0102825-0.2257118,0.0262461-0.3399029,0.0170603c-0.0195446-0.0015736-0.0399323-0.0037031-0.0592651,0.0038071
		c-0.1702995,0.0000019-0.340601,0.0000057-0.5109015,0.0000086c-0.0478563-0.006506-0.0957632-0.0080967-0.1433859,0.0011883
		c-0.0133543,0.0026035-0.0264053,0.0035715-0.0395622,0.0014515c-0.1204453-0.0194178-0.2431183-0.0179262-0.3634214-0.0363445
		c-0.2104235-0.032217-0.4205198-0.0671473-0.6283312-0.1139088c-0.1103878-0.0248384-0.2209883-0.0492163-0.3289461-0.083765
		l0.0011539,0.0007715c-0.023962-0.0061522-0.0488291-0.0091238-0.071372-0.0202742l0.0010509,0.0006247
		c-0.0234089-0.0076895-0.0488863-0.0084734-0.0707912-0.0211878l0.001153,0.0007763
		c-0.0568371-0.0073309-0.1071014-0.0362453-0.1621714-0.0493813c-0.0299082-0.0096569-0.0598173-0.0193138-0.0897255-0.0289707
		c-0.0333195-0.0225725-0.0793362-0.0098972-0.1100721-0.0396452c-0.0100718-0.0037708-0.0229292,0.0006771-0.0305433-0.0103483
		c-0.0157537-0.0083055-0.0349598-0.0078697-0.0493927-0.0195169c-0.1216354-0.0400953-0.2382736-0.0927057-0.3554325-0.1437626
		c-0.0686264-0.0299091-0.1350327-0.0649109-0.2024374-0.0976219c-0.015624-0.0023317-0.0292168-0.0093737-0.0420599-0.0181484
		c-0.0140438-0.0068474-0.0280867-0.0136948-0.0421305-0.0205412c-0.0216122-0.0053787-0.042635-0.0119123-0.0579576-0.0296021
		c-0.2062654-0.1081953-0.4073544-0.2253828-0.6022673-0.3527927c-0.1513939-0.0989628-0.2998619-0.2023153-0.4393892-0.3178444
		c-0.0126638-0.0098534-0.0238094-0.0216866-0.0382061-0.0292788c-0.238966-0.1884727-0.4610395-0.3957243-0.6688242-0.617487
		c-0.1732693-0.1849279-0.3380518-0.3773031-0.4885063-0.582262c-0.1149454-0.1565847-0.2231159-0.3174191-0.3247986-0.4822693
		c-0.0713367-0.115654-0.1348763-0.2365446-0.1999292-0.356245c-0.0810575-0.149147-0.152564-0.302536-0.2178154-0.4586411
		C9.9152193,8.727109,9.8574333,8.5680799,9.8026342,8.407752c-0.0625553-0.1830177-0.1131039-0.3692913-0.158742-0.5563817
		C9.6131792,7.7254634,9.5917606,7.5962939,9.5704832,7.4676538C9.5523777,7.3581853,9.5440798,7.2473836,9.5220041,7.1384892
		C9.5169888,7.1137519,9.5249224,7.0859237,9.5187168,7.0597305C9.510417,7.0396109,9.5211754,7.0172048,9.5112247,6.997283
		C9.510417,6.981441,9.5096092,6.9655995,9.5088005,6.9497581C9.5003271,6.9255414,9.5109863,6.8994269,9.5014143,6.8753195
		c-0.0008945-0.0251818-0.00179-0.0503631-0.0026846-0.0755453C9.4893761,6.7622833,9.5022202,6.7233586,9.4913816,6.6859636z"/>
	<path fill="#FEFEFE" d="M14.2409048,12.5767899c0.1697979,0.0386448,0.3382826,0.0826645,0.5097179,0.1145773
		c0.3126001,0.0581884,0.6271496,0.0973644,0.9449301,0.1101427c0.0163774,0.0006599,0.03263,0.0043602,0.0489712,0.0066509
		c-0.0543346,0.0060587-0.1095304-0.0087776-0.1629953,0.0255346c-0.025507,0.0163689-0.0719414,0.0190048-0.098691-0.0191317
		c-0.0139275-0.0198565-0.0288877-0.0193548-0.0451527-0.0027514c-0.0034218,0.0034914-0.0078392,0.0060806-0.0120153,0.0087471
		c-0.0401754,0.0256224-0.0675955-0.0273561-0.0879965-0.0223188c-0.0307398,0.0075903-0.0542088,0.0367308-0.0830669-0.0013208
		c-0.0049057-0.0064697-0.0129652-0.0187473-0.0177803-0.013381c-0.0500469,0.0557823-0.0827408-0.027607-0.1269464-0.0151453
		c-0.00313,0.0008821-0.0099726-0.0079603-0.01192-0.0068283c-0.0867586,0.0504351-0.1521187-0.031538-0.231019-0.0394907
		c-0.1960316-0.0197582-0.3869047-0.0749025-0.5782042-0.1232395
		C14.2716904,12.5945282,14.2521448,12.5942698,14.2409048,12.5767899z"/>
	<path fill="#FEFEFE" d="M16.2554531,12.8081598c0.1175041-0.0091248,0.2350807-0.0173998,0.352499-0.0275326
		c0.3765068-0.0324898,0.7470284-0.0991545,1.1121292-0.1964159c0.0127602-0.0033979,0.0260048-0.0049706,0.0390263-0.0073967
		c-0.029808,0.0279312-0.0702076,0.0248928-0.1057796,0.0357103c-0.1500473,0.0456314-0.3052654,0.0699835-0.4574757,0.1068335
		c-0.0598259,0.0144844-0.1239891,0.0178957-0.185461,0.0331755c-0.0155087,0.0038548-0.0204277,0.0130749-0.0303955,0.0196457
		c-0.0107841,0.0071106-0.0240612,0.020793-0.0354176,0.0119505c-0.0477753-0.0372028-0.0829792,0.0006199-0.1261711,0.0102787
		c-0.0385914,0.0086308-0.0857372,0.026001-0.1186905,0.0187941c-0.0343361-0.0075083-0.0543938-0.0140114-0.0777702,0.0130816
		c-0.0024643,0.0028553-0.0106869,0.0040874-0.0141621,0.0022182c-0.0462494-0.0248785-0.0867386-0.0210114-0.1330166,0.0079603
		c-0.0220242,0.0137854-0.0580788,0.0024281-0.0880184-0.0172844
		C16.3482456,12.7938242,16.2993526,12.8146057,16.2554531,12.8081598z"/>
	<path fill="#FEFEFE" d="M13.7401304,12.4195032c0.0387383,0.0075302,0.0766706,0.0172997,0.1100721,0.0396452
		c-0.0255127-0.0001812-0.0492172-0.0116425-0.0769939-0.0018311
		C13.7431345,12.4679413,13.7384424,12.4435701,13.7401304,12.4195032z"/>
	<path fill="#FEFEFE" d="M18.1450272,12.4578857c0.0366306-0.0177317,0.0746555-0.0312881,0.1148415-0.0383825
		c0.003849,0.0334663-0.0118885,0.0491533-0.0426464,0.0362225C18.1909962,12.4446993,18.1690636,12.4643784,18.1450272,12.4578857z
		"/>
	<path fill="#FEFEFE" d="M13.9399281,12.4881191c0.0561399,0.0096121,0.1093817,0.028739,0.1621656,0.049386
		C14.0390701,12.5505028,13.9936142,12.5057945,13.9399281,12.4881191z"/>
	<path fill="#FEFEFE" d="M17.8978863,12.5374966c0.0527973-0.0206099,0.1060352-0.0397711,0.1621838-0.0493774
		C18.0063782,12.5057917,17.9609241,12.5505142,17.8978863,12.5374966z"/>
	<path fill="#FEFEFE" d="M12.9601765,12.0799618c0.0230885,0.00249,0.0426264,0.0119267,0.0579576,0.0296021
		C12.986865,12.1230888,12.9575176,12.1328516,12.9601765,12.0799618z"/>
	<path fill="#FCFCFC" d="M9.4987297,6.0902371C9.4993391,6.1283607,9.5012312,6.1665683,9.491374,6.2040386
		C9.4931965,6.1660786,9.4817238,6.1272378,9.4987297,6.0902371z"/>
	<path fill="#FCFCFC" d="M22.5086212,6.2038918c-0.0097656-0.0374107-0.0080433-0.0755672-0.0073681-0.1136546
		C22.5183239,6.1271744,22.5067558,6.1659689,22.5086212,6.2038918z"/>
	<path fill="#FCFCFC" d="M9.4913816,6.6859636c0.00982,0.0374613,0.0079622,0.075676,0.0073471,0.1138105
		C9.4817295,6.7627764,9.4931879,6.7239423,9.4913816,6.6859636z"/>
	<path fill="#FCFCFC" d="M22.5012531,6.7997785c-0.0006676-0.0380826-0.0024109-0.0762358,0.0073776-0.1136608
		C22.5067425,6.7240281,22.5183315,6.7628331,22.5012531,6.7997785z"/>
	<path fill="#FEFEFE" d="M13.6601944,12.3896379c0.0188065,0.0005789,0.0362062,0.0047188,0.0493927,0.0195169
		C13.6871901,12.4176617,13.6702604,12.4123316,13.6601944,12.3896379z"/>
	<path fill="#FEFEFE" d="M18.2859955,12.4079132c0.0165539-0.0101624,0.0336781-0.0186424,0.0538101-0.0182753
		C18.3288307,12.4162254,18.3084221,12.4150429,18.2859955,12.4079132z"/>
	<path fill="#FEFEFE" d="M14.1009464,12.5367241c0.0247593,0.0031748,0.0488453,0.0085945,0.0707865,0.0211916
		C14.1452961,12.5603495,14.1204033,12.5576172,14.1009464,12.5367241z"/>
	<path fill="#FEFEFE" d="M17.8282681,12.5579243c0.0219479-0.0125589,0.0460129-0.0180531,0.0707817-0.0212021
		C17.8796005,12.55762,17.854702,12.5603333,17.8282681,12.5579243z"/>
	<path fill="#FEFEFE" d="M14.1706867,12.5572872c0.0250082,0.0024605,0.0491419,0.0080042,0.0713654,0.0202789
		C14.2154045,12.5808802,14.1907244,12.5772543,14.1706867,12.5572872z"/>
	<path fill="#FEFEFE" d="M17.7579498,12.5775728c0.0222988-0.0120029,0.04632-0.0179443,0.071373-0.0202599
		C17.8092728,12.5772409,17.7845974,12.580884,17.7579498,12.5775728z"/>
	<path fill="#FCFCFC" d="M9.5088005,5.9402542c0.000864,0.025125,0.002574,0.050334-0.0073853,0.0744104
		C9.5030298,5.9897943,9.4924135,5.9636841,9.5088005,5.9402542z"/>
	<path fill="#FCFCFC" d="M22.4985752,6.0146756c-0.0098877-0.0240669-0.0082226-0.0492787-0.0073776-0.0744095
		C22.5076103,5.9636865,22.496973,5.9897881,22.4985752,6.0146756z"/>
	<path fill="#FCFCFC" d="M9.5014143,6.8753195c0.0099583,0.0240688,0.0082493,0.0492954,0.0073862,0.0744386
		C9.4924126,6.9263268,9.5030289,6.9002166,9.5014143,6.8753195z"/>
	<path fill="#FCFCFC" d="M22.4912052,6.9497414c-0.0008602-0.0251122-0.0025177-0.0503039,0.00737-0.0743771
		C22.4969749,6.9002252,22.5076046,6.9263225,22.4912052,6.9497414z"/>
	<path fill="#FCFCFC" d="M12.0091181,1.4107101c-0.0076427,0.016714-0.0204554,0.0264812-0.0387735,0.0288512
		C11.9794788,1.4248512,11.989747,1.4116646,12.0091181,1.4107101z"/>
	<path fill="#FCFCFC" d="M20.0288792,1.4432975c-0.0137596-0.010579-0.0275211-0.021158-0.0412807-0.0317374
		C20.0098858,1.4110497,20.0221043,1.4236343,20.0288792,1.4432975z"/>
	<path fill="#FCFCFC" d="M20.1186523,1.5139794c-0.0134678-0.0108958-0.0269337-0.0217913-0.0404015-0.0326864
		C20.1002941,1.4815896,20.1127033,1.4937932,20.1186523,1.5139794z"/>
	<path fill="#FCFCFC" d="M9.5187168,5.8302827c0.0013418,0.0212712,0.0012207,0.0423675-0.007494,0.062438
		C9.5125065,5.8717661,9.5033722,5.849556,9.5187168,5.8302827z"/>
	<path fill="#FCFCFC" d="M22.488802,5.8926053c-0.0086689-0.0200257-0.0088501-0.0410771-0.0075207-0.0623088
		C22.4966221,5.8495173,22.4874992,5.8716903,22.488802,5.8926053z"/>
	<path fill="#FCFCFC" d="M9.5112247,6.997283c0.0087252,0.0200682,0.0087996,0.0411749,0.0074921,0.0624475
		C9.5033712,7.0404558,9.5125074,7.0182443,9.5112247,6.997283z"/>
	<path fill="#FCFCFC" d="M11.8803139,11.3800459c0.0186224,0.0020781,0.0304003,0.0130873,0.0382061,0.0292788
		C11.8993292,11.4079876,11.8891287,11.3949203,11.8803139,11.3800459z"/>
	<path fill="#FCFCFC" d="M20.0782413,11.4087257c0.0134697-0.0108995,0.0269413-0.0217972,0.040411-0.0326958
		C20.1127052,11.396225,20.1002865,11.4084253,20.0782413,11.4087257z"/>
	<path fill="#FEFEFE" d="M13.0602646,12.130105c0.0173378-0.0016375,0.0297279,0.0081873,0.0420599,0.0181484
		C13.0799522,12.1615591,13.0699549,12.1461849,13.0602646,12.130105z"/>
	<path fill="#FCFCFC" d="M22.4812813,7.0597153c-0.0013256-0.021234-0.0011501-0.0422864,0.0075264-0.0623174
		C22.4874935,7.0183115,22.4966259,7.0404916,22.4812813,7.0597153z"/>
	<path fill="#818181" d="M10.2603426,7.7925382c-0.0378447-0.1350117-0.0660362-0.2723503-0.0880899-0.4105
		c-0.0312281-0.1956325-0.0501089-0.3927388-0.0638409-0.5906353c-0.0147791-0.2129965-0.0156918-0.4264407-0.0052023-0.6384296
		c0.0211763-0.4279962,0.0874853-0.8503942,0.2088737-1.2626181c0.0712185-0.2418551,0.1548014-0.4796038,0.2551126-0.710886
		c0.118434-0.273068,0.2636089-0.5320127,0.4225893-0.7836394c0.1240635-0.1963623,0.2568855-0.3868303,0.4068918-0.5633543
		c0.1817675-0.2139008,0.3747416-0.417896,0.5833378-0.607151c0.1931896-0.1752775,0.3934145-0.3414301,0.6098194-0.4862208
		c0.2177591-0.1456959,0.4426603-0.2802283,0.6760845-0.4006301c0.3151579-0.1625623,0.6422873-0.295109,0.9803925-0.399856
		c0.2766476-0.0857073,0.559185-0.1505185,0.8455772-0.1927362c0.1434984-0.0211533,0.2882986-0.0380026,0.4339142-0.0466565
		c0.292901-0.0174071,0.5858746-0.008291,0.8786354-0.0057403c0.1362114,0.0011867,0.2725296,0.0275856,0.4086857,0.0418364
		c0.2115669,0.0221434,0.4177799,0.0686163,0.6232662,0.1176724c0.3377495,0.0806304,0.6649933,0.1939386,0.9827328,0.335283
		c0.326786,0.1453691,0.6366615,0.3202339,0.9361744,0.5149956c0.1741467,0.1132398,0.3356323,0.2423273,0.496027,0.373637
		c0.1844749,0.1510236,0.3539715,0.3179154,0.5168037,0.490829c0.2010708,0.2135177,0.3856831,0.4412541,0.5496445,0.6853898
		c0.1566906,0.2333057,0.3010406,0.4741633,0.4230003,0.7267725c0.1311703,0.271683,0.2372799,0.5537522,0.3250198,0.8434603
		c0.0720711,0.2379594,0.1241055,0.4796004,0.1692448,0.7230844c0.0191956,0.1035404,0.021492,0.2100925,0.0362511,0.3146005
		c0.0394611,0.2793512,0.0303917,0.560307,0.0265732,0.8406749c-0.0021763,0.1598806-0.0267048,0.3190241-0.043087,0.4783831
		c-0.0232391,0.2260327-0.070673,0.4468508-0.1266174,0.665771c-0.0854626,0.3344312-0.2016773,0.6582713-0.3455544,0.9727387
		c-0.1171665,0.2560873-0.2566166,0.499465-0.4092083,0.7347412c-0.1268959,0.1956577-0.2661285,0.3831043-0.4195671,0.5603323
		c-0.1537552,0.1775961-0.3169746,0.3454723-0.4853725,0.5083971c-0.0951672,0.0920753-0.1993942,0.1747856-0.2994518,0.261817
		c-0.0287609,0.0250158-0.0471554,0.0224943-0.073288-0.0104799c-0.2429123-0.3064928-0.4878826-0.6113605-0.7335663-0.9156418
		c-0.0192204-0.0238028-0.0147076-0.0345039,0.006115-0.0504751c0.1747665-0.1340494,0.3322849-0.2873363,0.4825687-0.4473257
		c0.2617683-0.2786732,0.4810963-0.5883255,0.6665306-0.9232225c0.1775646-0.3206816,0.3095188-0.6588068,0.4044151-1.0115271
		c0.0676708-0.2515244,0.1100254-0.5075798,0.1321507-0.7680025c0.0173759-0.2045426,0.0207558-0.4089856,0.0124378-0.6127782
		c-0.0093079-0.2280459-0.0391731-0.4548402-0.0850906-0.679503c-0.0797005-0.3899403-0.2084198-0.762816-0.3858185-1.1179948
		c-0.1519547-0.3042297-0.3343277-0.5912116-0.5526333-0.8520308c-0.178194-0.2128923-0.373085-0.41101-0.5846939-0.592437
		c-0.2743683-0.2352304-0.5760651-0.4277937-0.8953648-0.5949087c-0.3946095-0.2065299-0.8112602-0.3494738-1.2476463-0.435853
		c-0.1771278-0.035061-0.3557091-0.058832-0.5360832-0.0717492c-0.2296314-0.0164446-0.4597702-0.0142987-0.6887703-0.005071
		c-0.2848444,0.0114781-0.5658379,0.0621605-0.8429613,0.1319324c-0.3304386,0.0831952-0.6488142,0.2000053-0.9518871,0.354192
		c-0.3116808,0.1585655-0.6089077,0.3416603-0.8786564,0.5666566c-0.213829,0.1783538-0.4100733,0.3740468-0.5930023,0.5837834
		c-0.2064629,0.2367184-0.376749,0.4975243-0.5308218,0.7705293c-0.1777658,0.3149896-0.3047571,0.6498628-0.4017401,0.9966063
		c-0.0571537,0.2043395-0.0943956,0.4132342-0.1207705,0.6239734c-0.0318794,0.254703-0.0386457,0.5108376-0.0273619,0.7663736
		c0.0119829,0.2713518,0.04671,0.5409765,0.1127977,0.8054957c0.0035982,0.0144062,0.0042658,0.0295448,0.0062981,0.0443425
		c-0.05688,0.0415254-0.1264563,0.0491638-0.1910152,0.0683341c-0.3176956,0.0943384-0.6351271,0.1895881-0.9531918,0.2826891
		C10.2990818,7.7953329,10.2801647,7.8048744,10.2603426,7.7925382z"/>
	<path fill="#08D281" d="M16.5299683,6.2629352c0,0.9513364,0.0000706,1.9026732-0.0001431,2.8540101
		c-0.0000172,0.0718489,0.0091381,0.0624418-0.0646305,0.062521c-0.3349113,0.0003548-0.6698332-0.0010099-1.0047283,0.0014162
		c-0.0499678,0.0003614-0.0591373-0.0147047-0.0590954-0.0614185c0.0012779-1.4411645,0.0010853-2.8823295,0.0009279-4.3234954
		c-0.0000086-0.0751271,0.0080109-0.0654478-0.0673189-0.0655632c-0.2516012-0.0003853-0.5032063-0.0008988-0.754797,0.0006833
		c-0.0367622,0.0002313-0.0485439-0.0085502-0.0481358-0.0468354c0.001977-0.1849146,0.0020056-0.3698745-0.0000067-0.5547881
		c-0.0004263-0.039259,0.0104399-0.0499301,0.0499153-0.050631c0.210434-0.003737,0.418417-0.0247717,0.6171036-0.1015639
		c0.2098818-0.0811195,0.3626528-0.225666,0.4684019-0.4218357c0.0323544-0.0600176,0.0620041-0.1215916,0.090373-0.1836045
		c0.0104685-0.0228777,0.0225534-0.0320616,0.0483437-0.0319514c0.2282686,0.0009773,0.4565535,0.0016575,0.6848078-0.0004146
		c0.0421982-0.0003829,0.0392704,0.0212255,0.0392456,0.0494685c-0.0003757,0.4381809-0.0002632,0.8763626-0.0002632,1.3145435
		C16.5299683,5.2232957,16.5299683,5.7431154,16.5299683,6.2629352z"/>
	<path fill="#09D281" d="M10.2603426,7.7925386c0.3798037-0.112473,0.7595968-0.2249775,1.1394348-0.3373351
		c0.0206041-0.0060949,0.0415678-0.0109739,0.0623732-0.016418c0.0329647,0.1093659,0.064106,0.2193179,0.0992393,0.3279796
		c0.0809488,0.2503552,0.1809883,0.4929271,0.3066473,0.7243285c0.1438875,0.2649651,0.3050985,0.5194426,0.4997272,0.7498026
		c0.2050066,0.2426443,0.4260149,0.4707127,0.6769323,0.6675282c0.0189276,0.0148478,0.0248184,0.0233984,0.0066977,0.0458641
		c-0.1453085,0.1801405-0.281929,0.3678493-0.4353104,0.5407295c-0.1124649,0.1267643-0.2129908,0.2622576-0.3209801,0.3920813
		c-0.0185585,0.0223131-0.0296059,0.0211382-0.0519381,0.0050383c-0.0726786-0.0523949-0.1373749-0.1141396-0.2049761-0.172266
		c-0.1211538-0.1041765-0.2326717-0.2188396-0.3442459-0.3330984c-0.2260904-0.2315254-0.4309959-0.4803457-0.6121035-0.7489624
		c-0.1541195-0.2285891-0.2949228-0.4651709-0.415966-0.712347c-0.1480303-0.3022861-0.2682838-0.6161442-0.35707-0.9414654
		C10.2914619,7.9204545,10.2671528,7.8587327,10.2603426,7.7925386z"/>
</g>
</svg>
