<?xml version="1.0" encoding="utf-8"?>
<!-- Generator: Adobe Illustrator 24.1.1, SVG Export Plug-In . SVG Version: 6.00 Build 0)  -->
<svg version="1.1" id="Слой_1" xmlns="http://www.w3.org/2000/svg" xmlns:xlink="http://www.w3.org/1999/xlink" x="0px" y="0px"
	 viewBox="0 0 32 13" enable-background="new 0 0 32 13" xml:space="preserve" width="32px" height="13px">
<g>
	<path fill="#292929" d="M22.4812813,7.0597162c-0.0407448,0.3333049-0.0937061,0.6642327-0.1812134,0.9891195
		c-0.1203003,0.4466381-0.2850933,0.8757286-0.5000362,1.2853432c-0.1864204,0.3552589-0.4046783,0.6894836-0.6532383,1.0048857
		c-0.2072792,0.2630215-0.4371586,0.5042686-0.680172,0.7333403c-0.1119328,0.1055107-0.2317352,0.2026758-0.3479671,0.303627
		c-0.0111923,0.0137138-0.0251102,0.0240602-0.0404129,0.0326948c-0.0990372,0.0714054-0.1977787,0.1432266-0.2971706,0.2141342
		c-0.2414665,0.1722603-0.49576,0.3231525-0.7594852,0.4588165c-0.211977,0.109046-0.4291325,0.2059135-0.6518936,0.2905216
		c-0.0106354,0.0040407-0.0199547,0.0115499-0.0298862,0.0174427c-0.0159283,0.0120068-0.0354156,0.0135326-0.053812,0.0182743
		c-0.0117016-0.0028801-0.01791,0.0066147-0.026125,0.01159c-0.0329018,0.028883-0.0782757,0.0204563-0.1148396,0.0383825
		c-0.029213,0.0075712-0.0587807,0.014142-0.0849609,0.0302334c-0.0550709,0.0131378-0.1053391,0.0420523-0.1621799,0.0493784
		l0.0011635-0.0007782c-0.0219002,0.0127258-0.0473843,0.0134869-0.0707836,0.0212049l0.0010548-0.0006132
		c-0.0225563,0.011096-0.0474129,0.0140982-0.0713711,0.0202608l0.0011578-0.0007591
		c-0.1622124,0.0485315-0.3275127,0.0837994-0.4932194,0.1180096c-0.0972881,0.0200872-0.1955471,0.0351105-0.2930107,0.0538206
		c-0.0654259,0.0125618-0.1331615,0.0230675-0.2007599,0.0269518c-0.0393047,0.0022573-0.0784111,0.0081491-0.1174965,0.0116968
		c-0.1132126,0.0102768-0.2257099,0.0262499-0.339901,0.0170612c-0.0195465-0.0015745-0.0399323-0.0037012-0.0592651,0.0038061
		c-0.1703014,0.0000038-0.3406029,0.0000076-0.5109043,0.0000105c-0.0478554-0.0065098-0.0957632-0.0080957-0.1433859,0.0011845
		c-0.0133524,0.0026035-0.0264053,0.0035744-0.0395622,0.0014524c-0.1204443-0.0194168-0.2431183-0.0179243-0.3634224-0.0363445
		c-0.2104244-0.032218-0.4205208-0.0671473-0.6283331-0.1139088c-0.1103878-0.0248394-0.2209864-0.0492172-0.3289452-0.0837622
		l0.001153,0.0007715c-0.0239611-0.0061579-0.0488272-0.0091257-0.0713701-0.0202742l0.00105,0.0006247
		c-0.0234089-0.0076933-0.0488863-0.0084753-0.0707922-0.0211887l0.0011539,0.0007763
		c-0.056838-0.0073328-0.1071024-0.0362453-0.1621704-0.0493822c-0.0299091-0.0096569-0.0598173-0.0193138-0.0897264-0.0289707
		c-0.0333195-0.0225706-0.0793352-0.0098982-0.1100712-0.0396442c-0.0100708-0.0037737-0.0229321,0.0006819-0.0305443-0.0103483
		c-0.0157528-0.0083055-0.0349588-0.0078716-0.0493917-0.019516c-0.1216354-0.0401011-0.2382774-0.0927019-0.3554335-0.1437654
		c-0.0686283-0.0299101-0.1350336-0.0649099-0.2024393-0.09762c-0.0156231-0.0023327-0.0292139-0.0093765-0.0420589-0.0181484
		c-0.0140419-0.0068474-0.0280848-0.0136938-0.0421286-0.0205412c-0.0216122-0.0053787-0.042634-0.0119123-0.0579576-0.0296021
		c-0.2062654-0.1081944-0.4073544-0.2253809-0.6022663-0.3527927c-0.1513939-0.0989637-0.2998619-0.2023144-0.4393902-0.3178453
		c-0.0126638-0.0098534-0.0238094-0.0216856-0.0382071-0.0292788c-0.2389698-0.1884661-0.4610338-0.3957253-0.6688194-0.6174841
		c-0.1732731-0.184926-0.3380556-0.3773022-0.4885092-0.5822611c-0.1149445-0.1565847-0.2231121-0.31742-0.3247957-0.4822693
		c-0.0713367-0.115653-0.134861-0.2365522-0.199934-0.3562403c-0.0810833-0.1491385-0.1524811-0.3025789-0.2177982-0.4586515
		c-0.0652885-0.156003-0.123024-0.315053-0.1778221-0.4753819c-0.0625534-0.1830206-0.1131058-0.3692942-0.158742-0.5563865
		C9.6131792,7.7254653,9.5917559,7.5962973,9.5704832,7.4676561c-0.0181017-0.1094689-0.0264101-0.2202678-0.048481-0.3291631
		C9.5169878,7.1137538,9.5249214,7.0859261,9.5187159,7.059732C9.5104179,7.0396128,9.5211763,7.0172067,9.5112238,6.9972858
		C9.510416,6.9814434,9.5096083,6.965601,9.5088005,6.9497585C9.5003271,6.9255438,9.5109863,6.8994312,9.5014143,6.8753252
		c-0.0008945-0.0251832-0.00179-0.0503669-0.0026855-0.0755501C9.4893742,6.7622848,9.5022221,6.7233615,9.4913807,6.6859674
		C9.4913788,6.5253315,9.4913759,6.364696,9.4913731,6.2040606C9.5022297,6.1666632,9.4893713,6.1277332,9.4987288,6.090239
		C9.4996223,6.0650568,9.500515,6.0398746,9.5014086,6.0146923c0.0095835-0.0241055-0.0010834-0.0502219,0.0073919-0.0744376
		c0.0008068-0.0158434,0.0016146-0.0316863,0.0024223-0.0475292c0.0099554-0.0199194-0.0008059-0.0423245,0.007493-0.0624423
		c0.0105972-0.1013179,0.0157509-0.2035761,0.0330629-0.3037338c0.0262413-0.1518226,0.0525961-0.3036594,0.087678-0.454083
		c0.043395-0.1860609,0.0920687-0.3701558,0.150569-0.5520678C9.8453188,4.3484588,9.9058628,4.1782889,9.9773102,4.012907
		c0.0683279-0.1581566,0.1393452-0.3153207,0.2224092-0.467314c0.1216354-0.2225718,0.2472134-0.4424033,0.3915462-0.6508317
		c0.1254702-0.1811881,0.2592239-0.3557844,0.4036036-0.5232797c0.1590862-0.1845591,0.3255377-0.3612673,0.5019455-0.5284919
		c0.1397762-0.1324989,0.2844343-0.2601068,0.4406509-0.3736697c0.0118876-0.0086423,0.0219622-0.019781,0.0328789-0.0297594
		c0.0147743-0.007131,0.0256929-0.0194432,0.0387735-0.0288502c0.1554985-0.1191813,0.3156204-0.2323108,0.4828396-0.3338923
		c0.4818935-0.2927373,0.9901257-0.5290133,1.5293951-0.6963923c0.704114-0.2185439,1.4251289-0.3198007,2.1616592-0.2968637
		c1.2844105,0.039999,2.4635468,0.4123944,3.5290928,1.1350378c0.0927792,0.0629228,0.1837082,0.1285763,0.2754955,0.1929606
		c0.0161915,0.0074171,0.0290737,0.0191356,0.0412788,0.0317357c0.0123768,0.0179669,0.0289612,0.0304693,0.0493736,0.0379974
		c0.0152988,0.0086316,0.0292091,0.0189773,0.0403976,0.0326854c0.1038551,0.0950229,0.2144604,0.1821792,0.3183975,0.2773128
		c0.1364384,0.1248847,0.2672462,0.2553248,0.3937092,0.3898039c0.1519852,0.1616218,0.2926731,0.3332276,0.4254627,0.5112407
		c0.2456665,0.3293378,0.4593582,0.6780448,0.6366959,1.0486746c0.2010136,0.4201086,0.3561687,0.8561561,0.4577885,1.3113267
		c0.0527401,0.2362142,0.0955219,0.4736376,0.1192493,0.7144952c0.0021,0.0213199,0.007473,0.0423179,0.0113239,0.0634661
		c0.0083408,0.0200639-0.0025139,0.0424447,0.0075245,0.0623035c0.0007992,0.0158896,0.0015965,0.0317783,0.0023956,0.047668
		c0.0084763,0.0242043-0.0021801,0.0503054,0.0073738,0.0744023c0.0008945,0.0251923,0.0017872,0.050384,0.0026817,0.0755763
		c0.009409,0.0374279-0.0035133,0.076304,0.0073681,0.113637c0.0000019,0.1607375,0.0000038,0.3214746,0.0000095,0.4822121
		c-0.0108967,0.0373416,0.0020332,0.07623-0.0073776,0.113668c-0.0008907,0.0251927-0.0017834,0.0503855-0.0026741,0.0755787
		c-0.0095615,0.0240951,0.0010872,0.0501928-0.0073738,0.0743971c-0.0007992,0.0158868-0.0016003,0.0317736-0.0023975,0.0476599
		C22.4787617,7.0172629,22.4896183,7.0396481,22.4812813,7.0597162z"/>
	<path fill="#FEFEFE" d="M14.2409039,12.5767937c0.1697969,0.0386429,0.3382826,0.0826654,0.5097189,0.1145773
		c0.3126011,0.0581865,0.6271524,0.0973644,0.9449329,0.1101427c0.0163755,0.000659,0.03263,0.0043602,0.0489683,0.0066519
		c-0.0543327,0.0060549-0.1095285-0.0087805-0.1629934,0.0255308c-0.0255108,0.0163717-0.0719433,0.0190048-0.0986919-0.0191288
		c-0.0139303-0.0198565-0.0288868-0.0193548-0.0451527-0.0027552c-0.0034218,0.0034924-0.0078392,0.0060806-0.0120144,0.0087481
		c-0.0401745,0.0256233-0.0676003-0.0273552-0.0879965-0.0223188c-0.0307436,0.0075932-0.0542107,0.0367317-0.0830688-0.0013189
		c-0.0049076-0.0064707-0.0129662-0.0187492-0.0177813-0.013382c-0.0500469,0.0557775-0.0827379-0.0276079-0.1269445-0.0151443
		c-0.00313,0.0008812-0.0099726-0.0079603-0.01192-0.0068302c-0.0867586,0.050437-0.1521187-0.0315361-0.23102-0.0394888
		c-0.1960325-0.0197573-0.3869047-0.0749044-0.5782042-0.1232395
		C14.2716904,12.5945301,14.2521429,12.5942755,14.2409039,12.5767937z"/>
	<path fill="#FEFEFE" d="M16.2554569,12.8081617c0.1175041-0.0091257,0.2350807-0.0173998,0.3524971-0.0275326
		c0.3765087-0.0324888,0.7470284-0.0991516,1.1121292-0.1964159c0.0127583-0.0033989,0.0260029-0.0049686,0.0390244-0.0073938
		c-0.0298061,0.0279331-0.0702076,0.0248899-0.1057796,0.0357075c-0.1500473,0.0456324-0.3052635,0.0699844-0.4574757,0.1068354
		c-0.0598221,0.0144835-0.1239891,0.0178928-0.1854591,0.0331745c-0.0155087,0.0038557-0.0204296,0.013072-0.0303974,0.0196457
		c-0.0107841,0.0071106-0.024065,0.020793-0.0354176,0.0119514c-0.0477753-0.0372019-0.0829792,0.0006161-0.1261692,0.0102777
		c-0.0385895,0.0086327-0.0857334,0.0259914-0.1186924,0.018795c-0.0343285-0.0074968-0.0543938-0.0140228-0.0777702,0.0130787
		c-0.0024605,0.0028563-0.010685,0.0040903-0.0141602,0.0022221c-0.0462475-0.024869-0.0867367-0.0210218-0.1330147,0.0079603
		c-0.0220203,0.0137882-0.0580807,0.0024281-0.0880203-0.0172844
		C16.3482475,12.7938261,16.2993565,12.8146086,16.2554569,12.8081617z"/>
	<path fill="#FEFEFE" d="M18.1450291,12.4578886c0.0366287-0.0177317,0.0746555-0.0312862,0.1148396-0.0383825
		c0.0038452,0.0334635-0.0118866,0.0491562-0.0426464,0.0362196C18.1909962,12.4446974,18.1690636,12.4643831,18.1450291,12.4578886
		z"/>
	<path fill="#FEFEFE" d="M13.7401304,12.4195061c0.0387383,0.0075312,0.0766697,0.0172987,0.1100712,0.0396442
		c-0.0255127-0.0001793-0.0492163-0.0116444-0.0769939-0.0018301C13.7431345,12.4679441,13.7384424,12.443573,13.7401304,12.4195061
		z"/>
	<path fill="#FEFEFE" d="M13.9399281,12.488121c0.056139,0.0096149,0.1093817,0.0287399,0.1621637,0.0493879
		C14.0390682,12.5505047,13.9936142,12.5057955,13.9399281,12.488121z"/>
	<path fill="#FEFEFE" d="M17.8978882,12.5375004c0.0527954-0.0206118,0.1060333-0.0397701,0.1621799-0.0493784
		C18.0063763,12.5057955,17.9609222,12.550518,17.8978882,12.5375004z"/>
	<path fill="#FEFEFE" d="M12.9601765,12.0799646c0.0230865,0.0024929,0.0426264,0.0119286,0.0579576,0.0296021
		C12.986867,12.1230888,12.9575176,12.1328564,12.9601765,12.0799646z"/>
	<path fill="#FCFCFC" d="M22.5012531,6.7997661c-0.0006676-0.0380788-0.0024071-0.0762277,0.0073776-0.1136479
		C22.5067406,6.7240243,22.5183334,6.7628255,22.5012531,6.7997661z"/>
	<path fill="#FCFCFC" d="M9.4913807,6.6859674c0.00982,0.0374599,0.0079613,0.0756741,0.0073481,0.1138077
		C9.4817295,6.7627783,9.4931879,6.7239447,9.4913807,6.6859674z"/>
	<path fill="#FCFCFC" d="M22.5086212,6.203886c-0.0097675-0.037405-0.0080376-0.0755558-0.0073681-0.1136374
		C22.5183277,6.1271806,22.506752,6.1659689,22.5086212,6.203886z"/>
	<path fill="#FCFCFC" d="M9.4987288,6.090239C9.4993391,6.1283627,9.5012293,6.1665688,9.491374,6.2040381
		C9.4931965,6.1660795,9.4817247,6.1272397,9.4987288,6.090239z"/>
	<path fill="#FEFEFE" d="M13.6601944,12.3896418c0.0188055,0.000577,0.0362053,0.0047169,0.0493917,0.019516
		C13.6871862,12.4176731,13.6702633,12.4123297,13.6601944,12.3896418z"/>
	<path fill="#FEFEFE" d="M18.2859936,12.4079161c0.0165558-0.0101604,0.03368-0.0186434,0.053812-0.0182743
		C18.3288288,12.4162273,18.3084221,12.4150467,18.2859936,12.4079161z"/>
	<path fill="#FEFEFE" d="M14.1009445,12.536727c0.0247593,0.0031729,0.0488443,0.0086012,0.0707874,0.0211916
		C14.1452961,12.5603495,14.1204014,12.55762,14.1009445,12.536727z"/>
	<path fill="#FEFEFE" d="M17.8282681,12.5579271c0.0219479-0.0125608,0.0460129-0.0180511,0.0707817-0.0212002
		C17.8796005,12.55762,17.8547039,12.5603409,17.8282681,12.5579271z"/>
	<path fill="#FEFEFE" d="M14.1706867,12.557291c0.0250082,0.0024614,0.0491419,0.0080013,0.0713634,0.0202789
		C14.2154045,12.5808811,14.1907234,12.5772591,14.1706867,12.557291z"/>
	<path fill="#FEFEFE" d="M17.7579517,12.5775747c0.0222988-0.0120039,0.04632-0.0179415,0.0713711-0.020257
		C17.8092728,12.57724,17.7845993,12.5808849,17.7579517,12.5775747z"/>
	<path fill="#FCFCFC" d="M22.4912052,6.9497418c-0.0008602-0.0251107-0.0025158-0.0503011,0.00737-0.0743728
		C22.4969749,6.900228,22.5076027,6.9263244,22.4912052,6.9497418z"/>
	<path fill="#FCFCFC" d="M22.4985752,6.0146728c-0.0098877-0.0240645-0.0082226-0.0492749-0.0073776-0.0744028
		C22.5076065,5.9636879,22.4969749,5.9897866,22.4985752,6.0146728z"/>
	<path fill="#FCFCFC" d="M9.5088005,5.9402547c0.000864,0.0251255,0.0025711,0.0503349-0.0073862,0.0744123
		C9.5030298,5.9897957,9.4924135,5.963685,9.5088005,5.9402547z"/>
	<path fill="#FCFCFC" d="M9.5014143,6.8753252c0.0099573,0.0240674,0.0082493,0.0492921,0.0073862,0.0744333
		C9.4924154,6.9263287,9.503027,6.9002204,9.5014143,6.8753252z"/>
	<path fill="#FCFCFC" d="M22.488802,5.8926024c-0.0086708-0.0200243-0.0088463-0.0410738-0.0075207-0.062305
		C22.496624,5.8495173,22.4874992,5.8716893,22.488802,5.8926024z"/>
	<path fill="#FCFCFC" d="M9.5187159,5.8302832c0.0013418,0.0212712,0.0012197,0.042367-0.0074949,0.0624361
		C9.5125074,5.8717656,9.5033712,5.849556,9.5187159,5.8302832z"/>
	<path fill="#FCFCFC" d="M20.1186504,1.5139791c-0.0134659-0.0108949-0.0269318-0.0217901-0.0403976-0.0326853
		C20.1002979,1.4815872,20.1126995,1.4937977,20.1186504,1.5139791z"/>
	<path fill="#FCFCFC" d="M20.0782413,11.4087267c0.0134716-0.0108986,0.0269413-0.0217972,0.0404129-0.0326958
		C20.1127033,11.396225,20.1002865,11.4084253,20.0782413,11.4087267z"/>
	<path fill="#FEFEFE" d="M13.0602627,12.1301079c0.0173359-0.0016336,0.0297289,0.0081835,0.0420589,0.0181484
		C13.0799484,12.1615639,13.0699577,12.1461792,13.0602627,12.1301079z"/>
	<path fill="#FCFCFC" d="M20.0288792,1.4432961c-0.0137596-0.0105786-0.0275192-0.0211571-0.0412788-0.0317355
		C20.0098858,1.4110519,20.0221043,1.4236349,20.0288792,1.4432961z"/>
	<path fill="#FCFCFC" d="M12.0091181,1.4107105c-0.0076437,0.0167134-0.0204563,0.0264795-0.0387735,0.0288506
		C11.9794798,1.4248525,11.9897451,1.4116632,12.0091181,1.4107105z"/>
	<path fill="#FCFCFC" d="M9.5112238,6.9972858C9.5199499,7.017354,9.5200243,7.0384598,9.5187159,7.059732
		C9.5033712,7.0404577,9.5125065,7.0182467,9.5112238,6.9972858z"/>
	<path fill="#FCFCFC" d="M22.4812813,7.0597162c-0.0013237-0.0212312-0.0011501-0.0422812,0.0075264-0.0623093
		C22.4874916,7.0183177,22.4966297,7.0404949,22.4812813,7.0597162z"/>
	<path fill="#FCFCFC" d="M11.8803129,11.3800478c0.0186234,0.0020781,0.0304003,0.0130892,0.0382071,0.0292788
		C11.899332,11.4079857,11.8891296,11.3949213,11.8803129,11.3800478z"/>
	<path fill="#818181" d="M10.1180162,5.9897885c0.0248089-0.3924332,0.0985374-0.7755785,0.2115231-1.1521249
		c0.0668068-0.2226424,0.1456614-0.4406614,0.2359924-0.6543703c0.0905819-0.2143075,0.2016201-0.4186532,0.3197517-0.6190436
		c0.1137447-0.1929469,0.2392731-0.3780601,0.3734446-0.557265c0.103384-0.1380837,0.219348-0.2655478,0.3339167-0.3943613
		c0.1097383-0.1233823,0.2262049-0.2402484,0.3468571-0.3519342c0.2545023-0.2355909,0.5263662-0.4495107,0.8218565-0.6331978
		c0.1805649-0.1122458,0.363327-0.2208972,0.5533152-0.3150986c0.3259258-0.1616042,0.6628828-0.2961034,1.0140638-0.3959932
		c0.2502327-0.0711764,0.5034246-0.1257991,0.7589664-0.1707006c0.1040144-0.0182763,0.2102833-0.0235297,0.3154163-0.035658
		c0.3168068-0.0365469,0.6347809-0.0154382,0.9521828-0.0175611c0.1535282-0.0010269,0.3058147,0.0275012,0.4586086,0.0432096
		c0.2116089,0.0217547,0.4178371,0.0682834,0.6232929,0.1174262c0.3376999,0.0807744,0.6650181,0.1939636,0.9826736,0.3355027
		c0.3297367,0.1469209,0.6426029,0.3232251,0.9442596,0.5209072c0.1959476,0.1284078,0.3773994,0.2747301,0.5556507,0.4260824
		c0.1576309,0.1338406,0.3042278,0.2791364,0.4454136,0.4291718c0.2021523,0.2148249,0.3881168,0.443531,0.5530338,0.6890485
		c0.1567135,0.2333031,0.3009777,0.4742141,0.4229374,0.726814c0.1311722,0.2716784,0.2371464,0.5538187,0.3249378,0.8434973
		c0.072113,0.2379518,0.1252594,0.4794483,0.1687927,0.723177c0.024025,0.1344957,0.0290298,0.2722888,0.0458431,0.4081945
		c0.0299244,0.2418618,0.0193119,0.4847069,0.0174046,0.7270765c-0.0013142,0.1667361-0.0270138,0.3323288-0.0435619,0.4983439
		c-0.0227089,0.2278037-0.0705051,0.4504118-0.1273518,0.6706481c-0.0858212,0.3324718-0.2012138,0.6550474-0.344923,0.9678516
		c-0.1175575,0.2558851-0.2566929,0.4994354-0.4093685,0.7346621c-0.1269665,0.195612-0.2662868,0.3829851-0.4197006,0.5602303
		c-0.1548328,0.1788816-0.3194599,0.3477087-0.4889603,0.5118837c-0.0939121,0.0909634-0.1969509,0.1725197-0.2961006,0.2580566
		c-0.0255299,0.0220251-0.0430984,0.0263453-0.0699329-0.0075808c-0.2426186-0.3067236-0.4874649-0.6116962-0.7335987-0.9156122
		c-0.0234127-0.0289097-0.0143833-0.0393019,0.0082436-0.0573368c0.1837025-0.1464243,0.3513889-0.3095036,0.5108089-0.4821005
		c0.1561203-0.1690216,0.2980537-0.3484926,0.4249725-0.5399704c0.2515793-0.3795519,0.4452496-0.7858047,0.5750923-1.2233734
		c0.0771599-0.2600398,0.1305122-0.5241747,0.1625347-0.7925162c0.0287991-0.2413568,0.0334492-0.4849935,0.0206432-0.7271943
		c-0.0211697-0.4003687-0.0904617-0.7933125-0.2184315-1.1746616c-0.1040096-0.309948-0.2353573-0.606863-0.4031429-0.88835
		c-0.1203632-0.2019315-0.2499142-0.3975022-0.4002304-0.5772216c-0.1438675-0.1720054-0.2984085-0.335125-0.4652767-0.4864368
		c-0.1505699-0.1365309-0.3058205-0.2664223-0.4736786-0.3808529c-0.188467-0.1284785-0.3834991-0.2468562-0.5874138-0.3486893
		c-0.3811207-0.1903291-0.7810097-0.3285141-1.1995564-0.410295c-0.178791-0.0349344-0.3589878-0.059284-0.5410519-0.072166
		c-0.2313137-0.0163665-0.4631443-0.0145662-0.6937637-0.0048221c-0.2830849,0.0119612-0.5624399,0.0625116-0.8379383,0.1319817
		c-0.3287916,0.0829089-0.645792,0.1987047-0.9473362,0.3521619c-0.3355408,0.1707578-0.6540232,0.3694139-0.9400063,0.6173916
		c-0.2533855,0.2197099-0.4864893,0.4585216-0.6907854,0.7242446c-0.1583452,0.2059555-0.2942476,0.4268596-0.4168568,0.6560748
		c-0.1560965,0.2918186-0.2710037,0.5998249-0.3593092,0.9176641c-0.0576773,0.2075982-0.0966415,0.4195223-0.1224718,0.6337795
		c-0.0063782,0.0529008-0.0065184,0.1059256-0.0121384,0.15868c-0.0414915-0.055079-0.100522-0.0437975-0.1565542-0.0398974
		c-0.1720886,0.0119781-0.3444681,0.0188036-0.516572,0.0296755c-0.0926313,0.0058513-0.1858177,0.0047717-0.2779655,0.0180426
		c-0.0431948-0.0001493-0.0865469-0.0055819-0.12953,0.0036335c-0.0057001,0.0018525-0.0114994,0.0030675-0.0174065,0.0039606
		C10.2120829,6.0013762,10.1630459,6.0176263,10.1180162,5.9897885z"/>
	<path fill="#3DD3EE" d="M12.7222013,10.3603086c-0.0581713,0.0975742-0.1482067,0.1683674-0.2164249,0.2576618
		c-0.0687103,0.0899363-0.141181,0.1769943-0.2106743,0.2663479c-0.016161,0.0207815-0.0253267,0.026453-0.0501146,0.0079145
		c-0.0742111-0.0555038-0.1424026-0.1179581-0.2120333-0.178565c-0.1255159-0.109251-0.2425852-0.2276907-0.3574266-0.3479338
		c-0.1748781-0.1831036-0.3396492-0.374527-0.488163-0.5805387c-0.1882124-0.2610788-0.3549452-0.5347281-0.5001373-0.8212442
		c-0.1459074-0.2879314-0.2587423-0.5891266-0.3534021-0.8980465c-0.0724115-0.2363076-0.1243219-0.4766078-0.1677685-0.7190342
		c-0.0185528-0.1035228-0.0264044-0.2090564-0.0365419-0.3139253c-0.0023584-0.0243955-0.0177984-0.0474415-0.008172-0.073019
		c0.0334511-0.0128217,0.0430183,0.0163112,0.0566959,0.0343146c0.1309195,0.1723299,0.2613344,0.345047,0.39186,0.5176759
		c0.3303318,0.4368834,0.6607895,0.8736711,0.990901,1.3107228c0.3000069,0.397192,0.6004066,0.7940893,0.9009371,1.1908855
		c0.0833902,0.1101017,0.1640873,0.2223396,0.25212,0.328908C12.7181759,10.3476639,12.7209091,10.3536558,12.7222013,10.3603086z"
		/>
	<path fill="#3DD9ED" d="M12.7222013,10.3603086c-0.0721416-0.0559559-0.114768-0.1364155-0.1688156-0.2069473
		c-0.237628-0.3101072-0.4725981-0.6222534-0.7082033-0.9339075c-0.1977005-0.2615156-0.3947515-0.5235224-0.5924463-0.7850418
		c-0.2355986-0.3116598-0.4716024-0.6230149-0.7073832-0.9345345c-0.1279001-0.1689844-0.2558832-0.3379073-0.383255-0.5072889
		c-0.0111876-0.0148773-0.0195799-0.0311575-0.0407553-0.0326624c-0.0332651-0.2641873-0.0202703-0.5296931-0.0185299-0.7946224
		c0.0003786-0.0575109-0.0020943-0.1181741,0.0152206-0.1755209c0.0505667-0.0001569,0.1011505-0.0003185,0.1517344-0.0004807
		c0.0442038,0.049654,0.0808783,0.1050858,0.1208248,0.15799c0.3546352,0.4696856,0.7107801,0.9382305,1.0644932,1.4086142
		c0.0188074,0.0250115,0.0403547,0.0477595,0.0589676,0.0729008c0.0520964,0.1521606,0.0999413,0.3057556,0.1610746,0.4547997
		c0.1573696,0.3836813,0.3667765,0.7370148,0.6184025,1.065876c0.1498938,0.1959038,0.3213482,0.3724127,0.498682,0.5429144
		c0.0787401,0.0757084,0.1600552,0.1495399,0.2480326,0.215229c0.011981,0.0089464,0.0353117,0.0153561,0.0142336,0.0411377
		C12.9428864,10.0852642,12.8328066,10.2230015,12.7222013,10.3603086z"/>
	<path fill="#3DEEEA" d="M16.4815102,4.3198419c-0.0306416-0.0260253-0.0612831-0.0520496-0.0919266-0.0780749
		c-0.1865864-0.1744924-0.3767052-0.3451157-0.5654268-0.5172718c-0.1078711-0.0984018-0.2158146-0.1967704-0.3226366-0.2963343
		c-0.0106745-0.0099497-0.0241194-0.020015-0.0114908-0.0375364c0.1361866-0.0382686,0.2763481-0.0506558,0.4165249-0.0570793
		c0.1219759-0.005589,0.2445707-0.010725,0.3665037,0.0054696c-0.030117,0.0284026-0.0711002,0.0016801-0.1117992,0.0238333
		c0.5186615,0.4763119,1.0366554,0.9474385,1.5536995,1.4193738c0.0225163-0.0091357,0.0074444-0.0368829,0.0265179-0.0452266
		c0.0135078,0.1259255-0.0030785,0.2505732-0.0162697,0.3753233C17.71591,5.200232,17.692131,5.2851076,17.6693363,5.3701491
		c-0.0193329,0.0134292-0.031002-0.0022674-0.042984-0.0123787c-0.105442-0.0889893-0.2047329-0.1848345-0.3071346-0.2772145
		c-0.1443405-0.1302156-0.286953-0.2623487-0.4310684-0.3928394c-0.0849876-0.0769515-0.1701088-0.1538649-0.253624-0.2323809
		C16.5847816,4.4085698,16.5325279,4.3649802,16.4815102,4.3198419z"/>
	<path fill="#3DA4F4" d="M16.0197964,9.2383518c-0.0799189,0.0006075-0.1598387,0.0017099-0.2397575,0.0017405
		c-0.4464455,0.0001659-0.8928947-0.0005503-1.3393345,0.0010872c-0.0421352,0.0001545-0.0519686-0.011219-0.05161-0.0523396
		c0.0021238-0.2431746-0.0014582-0.4864159,0.0021086-0.729557c0.0030479-0.2077732,0.04006-0.4097376,0.1264153-0.6006393
		c0.0279894-0.0089469,0.0434847,0.0116572,0.059639,0.0270972c0.1719866,0.1643825,0.3505497,0.3216214,0.5254288,0.4828525
		c0.1895237,0.1747313,0.3806849,0.3477325,0.5711336,0.5214872c0.103199,0.0941534,0.2063437,0.1884127,0.3099184,0.282176
		C16.0024681,9.1892118,16.0270576,9.2059097,16.0197964,9.2383518z"/>
	<path fill="#3DDFEC" d="M11.5140533,7.6288071c-0.0702705-0.041194-0.1041403-0.114491-0.1507645-0.1755509
		c-0.2443132-0.3199458-0.4856443-0.6421666-0.7282257-0.9634356c-0.1148052-0.1520457-0.2300825-0.3037338-0.3451624-0.4555726
		c-0.0101862-0.0134397-0.0182333-0.027802-0.0201302-0.0449419c-0.0000029-0.0000038,0.0000544,0.0001702,0.0000544,0.0001702
		c0.0429096-0.0100322,0.0872774,0.0022578,0.1301413-0.0084877c0.1638308-0.0101714,0.3276367-0.0207791,0.4915018-0.0303741
		c0.130825-0.0076613,0.2619324-0.0115495,0.3924799-0.0223613c0.0496902-0.0041151,0.0739231,0.0080566,0.0736141,0.0588593
		c-0.0053511,0.0590787-0.0139933,0.1181331-0.0153408,0.1773539c-0.0024967,0.1097445-0.0021715,0.2196088-0.0004425,0.3293824
		c0.0039902,0.2532969,0.032218,0.5041389,0.0818415,0.7524958c0.0129824,0.0649767,0.0125427,0.1324525,0.0366173,0.1953139
		c0.0088758,0.0221381,0.0109444,0.0463052,0.0203533,0.0682845c0.0025749,0.0028334,0.002965,0.0059414,0.0011702,0.0093236
		c0.0038071,0.0132513-0.0013447,0.0287986,0.0102644,0.0400505l-0.0006599-0.0008736
		c0.0042982,0.0173507,0.0122681,0.0335031,0.016592,0.0508456C11.5099897,7.6157951,11.5120201,7.6223011,11.5140533,7.6288071z"/>
	<path fill="#3DF4E9" d="M17.7414761,4.7369952c-0.0059433,0.0220599,0.0098972,0.0567913-0.0095901,0.0647283
		c-0.0247478,0.0100799-0.0379791-0.0248876-0.0555191-0.0406241c-0.1713753-0.1537542-0.3424263-0.3078737-0.5128307-0.4627051
		c-0.0920181-0.0836124-0.1820145-0.1694484-0.2739563-0.253149c-0.1739368-0.1583507-0.3490353-0.315428-0.5227871-0.4739821
		c-0.0698586-0.0637472-0.137579-0.1298442-0.2058659-0.1952968c-0.0076828-0.0073657-0.0217152-0.0145597-0.0145321-0.0281491
		c0.0065708-0.0124323,0.0209141-0.0067556,0.0318985-0.0071294c0.0315666-0.0010741,0.0631676-0.0011804,0.094759-0.0016704
		c0.3119335,0.0149868,0.6097069,0.0823321,0.8782234,0.2483735c0.3285789,0.2031803,0.5037498,0.5073514,0.5678463,0.8816614
		C17.7342834,4.5575876,17.7453308,4.6467409,17.7414761,4.7369952z"/>
	<path fill="#3DA9F3" d="M16.0197964,9.2383518c-0.0176487-0.0413895-0.0528345-0.0682049-0.0843096-0.0971079
		c-0.0914202-0.0839548-0.1852798-0.165246-0.277257-0.2486038c-0.1852903-0.1679268-0.3702517-0.3362188-0.55478-0.504981
		c-0.0953865-0.0872364-0.1894531-0.1759148-0.284296-0.2637463c-0.0875311-0.0810585-0.1750851-0.1620941-0.2632589-0.2424469
		c-0.0107574-0.0098028-0.0254202-0.0153189-0.0382748-0.0228219c0.0307465-0.0930514,0.0784416-0.1774139,0.1325388-0.2584944
		c0.082921,0.0911431,0.178216,0.1692457,0.2684507,0.2525864c0.0964851,0.0891104,0.194006,0.1771722,0.2912369,0.2655053
		c0.0996914,0.0905676,0.1987467,0.1818361,0.2992706,0.2714882c0.0019789,0.0021439,0.0024233,0.0045691,0.0013332,0.0072737
		c0.0490646,0.0172272,0.0997334,0.0038433,0.1495199,0.0076513c0.0179882,0.0013752,0.0361738,0.0002928,0.0541744,0.0001669
		c0.0259104-0.0014982,0.0366592,0.021183,0.0520029,0.034852c0.0981588,0.0874472,0.1941071,0.1773491,0.2916374,0.2654963
		c0.1382465,0.1249437,0.2741356,0.2524786,0.4136429,0.3760395c0.0411053,0.0364056,0.0786095,0.0767097,0.1216297,0.1111946
		c0.0129452,0.0103769,0.0305271,0.0236712,0.0169144,0.0459394C16.4132462,9.2383461,16.2165222,9.238349,16.0197964,9.2383518z"/>
	<path fill="#3DE9EB" d="M16.4815102,4.3198419c0.039938,0.0142097,0.0713558,0.042057,0.1014919,0.0695176
		c0.138382,0.126102,0.2746811,0.2544851,0.4125042,0.3812084c0.1536007,0.141232,0.307848,0.2817626,0.4622021,0.4221721
		c0.0612087,0.0556793,0.1235256,0.1101365,0.1851387,0.1653714c0.0077763,0.0069695,0.015995,0.0116806,0.0264893,0.0120378
		c-0.0327282,0.1333127-0.0789967,0.2613225-0.1488724,0.3800879c-0.0212193,0.0085621-0.0347023-0.0059214-0.0484085-0.0172849
		c-0.0665855-0.0552115-0.1298332-0.1143312-0.193121-0.1731067c-0.2046928-0.1901054-0.4137821-0.3753967-0.6176548-0.5663738
		c-0.0134373-0.0125895-0.0317001-0.0185661-0.0429401-0.0336528c0.001276-0.1131368,0.0031357-0.2260695-0.0145569-0.3386536
		C16.5864201,4.5106702,16.5502758,4.4089298,16.4815102,4.3198419z"/>
	<path fill="#3DD1EE" d="M14.3990002,4.6365495c0.0049973-0.140234,0.0296974-0.2765818,0.0804443-0.4077921
		c0.1354008,0.1318831,0.2772055,0.2569017,0.4168606,0.3841224c0.169158,0.1540952,0.3360605,0.3107319,0.5084238,0.4613085
		c0.0162992,0.0142403,0.0310211,0.0299463,0.0454283,0.0460081c0.0031033,0.080008,0.0054541,0.1600118-0.0012522,0.2399688
		c-0.1177206,0.0109506-0.2357092,0.0019274-0.3535376,0.0047259c-0.0190964,0.0004535-0.0289583-0.0142779-0.0411844-0.0252695
		c-0.1893177-0.1701922-0.3773527-0.3417869-0.5637884-0.515131c-0.0085487-0.0079484-0.016716-0.0167403-0.0268087-0.0223713
		C14.3963041,4.7645807,14.3832254,4.7062793,14.3990002,4.6365495z"/>
	<path fill="#3DE9EB" d="M15.4900293,3.3906245c0.0300407,0.0458052,0.0717545,0.0817995,0.1130819,0.1150367
		c0.055809,0.0448859,0.1048021,0.0966814,0.1583357,0.1436582c0.1408682,0.1236181,0.2757807,0.2540021,0.4137774,0.3809164
		c0.057312,0.0527072,0.1164703,0.1034017,0.1747112,0.1551003c0.0176334,0.0156522,0.0325298,0.0333376,0.0396481,0.0564303
		c-0.2196712-0.1035614-0.4428015-0.0963268-0.6680613-0.0208511c-0.0317144,0.0121903-0.0507259-0.011075-0.0692959-0.0280528
		c-0.1252365-0.1145029-0.2515154-0.2278593-0.375865-0.3433473c-0.0804453-0.0747125-0.164607-0.1454523-0.2419586-0.2234859
		c-0.0138216-0.0139434-0.0375748-0.0259151-0.0242453-0.0532801C15.1592102,3.4833143,15.3188267,3.4217098,15.4900293,3.3906245z"
		/>
	<path fill="#3DE0EC" d="M15.0101576,3.5727491c0.0224457,0.0502815,0.0675936,0.0808518,0.1055269,0.1166017
		c0.1022377,0.0963516,0.2078495,0.1891177,0.3118486,0.2836068c0.0795641,0.0722876,0.1581964,0.1456141,0.2384987,0.2170668
		c0.0154543,0.0137501,0.0325146,0.0287309,0.0554905,0.0308909c-0.1646957,0.0823793-0.2376404,0.2252212-0.2631845,0.3993001
		c-0.0195618,0.0130544-0.0307074-0.0032716-0.0427761-0.0131364c-0.0720654-0.0589099-0.1382408-0.1244264-0.2069664-0.1870418
		c-0.1755257-0.1599174-0.3508492-0.3200641-0.5261326-0.4802489c-0.0163746-0.0149641-0.0344944-0.0276015-0.0239296-0.0538373
		C14.7513151,3.754132,14.8705044,3.6519563,15.0101576,3.5727491z"/>
	<path fill="#3DD8ED" d="M14.6585331,3.885951c0.0010662,0.0180826,0.011961,0.0294003,0.0249052,0.0409648
		c0.0949097,0.0847895,0.1895304,0.1699073,0.2836418,0.2555835c0.1565275,0.1425023,0.3125486,0.285563,0.4691048,0.4280357
		c0.0056448,0.0051379,0.0146914,0.0065384,0.0221529,0.0096803c-0.0112886,0.1665201-0.0015669,0.333384-0.0081806,0.4999809
		c-0.0435658-0.0184793-0.0748844-0.0532098-0.1086159-0.0840774c-0.1358681-0.1243362-0.270134-0.2504258-0.405983-0.374783
		c-0.1406412-0.1287451-0.2825556-0.2560987-0.4235353-0.3844771c-0.0143852-0.0131001-0.0320129-0.0251369-0.0325775-0.0481005
		C14.5169134,4.1028786,14.5762482,3.9884207,14.6585331,3.885951z"/>
	<path fill="#3DB2F2" d="M17.5497265,9.2383575c-0.1732597-0.0000105-0.3465214-0.000021-0.5197811-0.0000324
		c-0.0945835-0.0887728-0.1904392-0.1761551-0.2864838-0.2633438c-0.1416092-0.1285572-0.2822094-0.2582188-0.4239178-0.3866749
		c-0.0492649-0.0446577-0.1004257-0.0875063-0.1463623-0.1355972c-0.0121021-0.0126696-0.0431728-0.0368547,0.0048466-0.0478792
		c0.1571598,0.0000963,0.3141994,0.0000706,0.4711189,0.0000048c0.0160561-0.0014868,0.0280342,0.0051985,0.0394878,0.0166674
		c0.1822948,0.1824932,0.3785114,0.3499174,0.5678635,0.5247736c0.0867748,0.0801344,0.174818,0.1588736,0.2610016,0.239625
		C17.5323906,9.199851,17.5536785,9.2119474,17.5497265,9.2383575z"/>
	<path fill="#3DB1F2" d="M14.7962265,7.388247c0.0869617-0.119976,0.1858797-0.2294245,0.2924738-0.3321147
		c0.1572008,0.1423616,0.3136778,0.2855101,0.4696884,0.4291821c0.07059,0.0650086,0.142951,0.1281157,0.2121515,0.1946654
		c-0.0717144,0.0892725-0.1348848,0.1845393-0.1950788,0.281724c-0.012661,0.020442-0.0179777,0.0454307-0.0266781,0.0683255
		c-0.0262117,0.0348864-0.0478754,0.0076933-0.0661011-0.00776c-0.0378962-0.0321321-0.0740128-0.066555-0.1103401-0.1004152
		c-0.1880283-0.1752663-0.3802366-0.3459444-0.5686064-0.5208144C14.8001099,7.3976746,14.7981148,7.3928785,14.7962265,7.388247z"
		/>
	<path fill="#3DC8EF" d="M16.6920338,6.8006783c-0.1039867,0.1071219-0.214344,0.207181-0.3318863,0.2992764
		c-0.0251598,0.005578-0.0412083-0.0115981-0.0561428-0.0257978c-0.128767-0.1224236-0.2624092-0.2395196-0.392766-0.3602047
		c-0.0559959-0.0518422-0.1115446-0.1042886-0.1698313-0.1537151c-0.0190897-0.0161877-0.0461044-0.0290751-0.0421629-0.0618362
		c0.1070995-0.1052518,0.2142-0.2105026,0.3213015-0.3157544c0.0877552,0.097311,0.1902905,0.1790104,0.2858906,0.2679477
		c0.0944729,0.0878897,0.1901093,0.1747298,0.2860184,0.2611699C16.6255035,6.7415495,16.6584892,6.7714291,16.6920338,6.8006783z"
		/>
	<path fill="#3DE3EB" d="M16.6183395,4.9598188c0.0154896-0.0004597,0.0287666,0.0031953,0.0409184,0.0144124
		c0.0768337,0.0709257,0.1542988,0.1411667,0.2314529,0.2117462c0.1971817,0.1803803,0.3942165,0.3609219,0.5917149,0.5409555
		c0.0107899,0.0098381,0.0252724,0.0156293,0.0380363,0.023304c-0.0448895,0.1121979-0.1103516,0.2123971-0.1806984,0.3097477
		c-0.0290623,0.003859-0.0460777-0.0179892-0.0632248-0.0338664c-0.0854397-0.0791068-0.1717739-0.1572127-0.2578564-0.23561
		C16.8736,5.6583772,16.7302475,5.5243521,16.583498,5.3940377c-0.0135651-0.0120473-0.0366249-0.0188246-0.0336914-0.0441923
		C16.5837879,5.2217932,16.6054649,5.091579,16.6183395,4.9598188z"/>
	<path fill="#3DBFF0" d="M15.6992445,6.4984007c0.0431356,0.0600362,0.1045542,0.1017017,0.1583252,0.1501865
		c0.0527515,0.0475659,0.103487,0.0976787,0.1577196,0.1439805c0.1007996,0.0860591,0.1949959,0.1798296,0.2925949,0.2696819
		c0.0156898,0.0144463,0.0347576,0.0252285,0.0522633,0.0377049c-0.0387344,0.0522079-0.0934238,0.0875907-0.1396904,0.1318774
		c-0.056118,0.0537181-0.1146126,0.1049557-0.1720772,0.1572671c-0.0250473,0.0048599-0.0410252-0.012054-0.0559568-0.0264263
		c-0.1304026-0.1255264-0.2667875-0.2445388-0.4000216-0.3669615c-0.0573835-0.0527282-0.1122704-0.1083674-0.1731052-0.1574903
		c-0.0181732-0.0146737-0.0433388-0.0274487-0.0392742-0.0583029C15.4864292,6.686079,15.5928373,6.5922399,15.6992445,6.4984007z"
		/>
	<path fill="#3DB8F1" d="M15.380022,6.7799187c0.0489693,0.0613303,0.1140757,0.1057916,0.1688042,0.1613655
		c0.0615196,0.0624681,0.128459,0.1198063,0.1951065,0.1769671c0.1031361,0.0884557,0.195982,0.1884313,0.3044472,0.2708478
		c-0.0926132,0.0969601-0.1852264,0.1939206-0.2778397,0.2908807c-0.0393448-0.0096612-0.0629997-0.0425868-0.0903196-0.0670676
		c-0.1395874-0.1250787-0.2736959-0.2563243-0.4145536-0.3799043c-0.0522938-0.0458798-0.0966539-0.1006913-0.155427-0.1392708
		c-0.0130711-0.0085812-0.0207481-0.0214038-0.0215387-0.0375996C15.1803045,6.9582582,15.276701,6.865437,15.380022,6.7799187z"/>
	<path fill="#3DAEF3" d="M16.1600704,8.4113007c0.0026722,0.0263214,0.0247402,0.038763,0.0411587,0.0539494
		c0.1165466,0.1078005,0.2339153,0.2147121,0.3512325,0.3216772c0.1478424,0.1347961,0.296032,0.2692099,0.4435902,0.404315
		c0.0141792,0.0129814,0.0326729,0.0241985,0.0338936,0.0470829c-0.1399899,0.0000067-0.2799816,0.0000124-0.4199734,0.0000181
		c-0.0021-0.0246277-0.0223083-0.0362778-0.0378265-0.0503912c-0.0980549-0.0891743-0.1969337-0.1774378-0.2951775-0.2664032
		c-0.1756496-0.1590614-0.3510208-0.3184338-0.5266075-0.4775658c-0.0100346-0.0090933-0.0199823-0.0178013-0.0202198-0.0327425
		c0.0164547-0.0122852,0.0353842-0.0059109,0.0530233-0.0060196c0.1096306-0.0006742,0.2192698-0.000617,0.3289022-0.0000353
		C16.1280594,8.4052706,16.1453838,8.3993483,16.1600704,8.4113007z"/>
	<path fill="#3DDDEC" d="M16.5498066,5.3498454c0.1226673,0.1110444,0.2438946,0.2237358,0.3683834,0.3327003
		c0.1419525,0.1242518,0.2737904,0.2597508,0.4215736,0.377439c-0.0602531,0.096911-0.1300449,0.1866112-0.2056141,0.2719445
		c-0.0278358,0.009654-0.0435791-0.0107565-0.0596104-0.0260873c-0.1723976-0.1648374-0.3532505-0.3204718-0.526741-0.4841447
		c-0.0396805-0.0374341-0.0814114-0.0729427-0.1204414-0.1112218c-0.0108356-0.0106277-0.0301399-0.0188007-0.0172997-0.0401216
		C16.4634972,5.5665073,16.5105305,5.4598675,16.5498066,5.3498454z"/>
	<path fill="#3DB8F1" d="M17.5497265,9.2383575c-0.0994225-0.1072493-0.2133503-0.1989946-0.320631-0.2977953
		c-0.0413322-0.038064-0.0823078-0.0769129-0.1247177-0.1140623c-0.1334991-0.1169405-0.2620277-0.2395535-0.3925877-0.3598528
		c-0.0173283-0.0159674-0.0321331-0.0336342-0.0417118-0.0553436c0.0147095-0.0120325,0.0320816-0.0060568,0.0480957-0.006115
		c0.14995-0.0005436,0.2999058-0.0002556,0.4497185-0.0003519c0.0174332-0.0014753,0.0325298,0.0042295,0.0449486,0.0164633
		c0.1388798,0.1367865,0.2910461,0.259306,0.4277878,0.3983822c0.0007515,0.1290197,0.0009594,0.2580462,0.0027103,0.3870525
		c0.0003529,0.0260382-0.0082378,0.03619-0.0341759,0.0336599C17.5894718,9.2384739,17.5695477,9.2389488,17.5497265,9.2383575z"/>
	<path fill="#3DD1EE" d="M16.6920338,6.8006783c-0.0205574-0.0024509-0.0374336-0.0120587-0.0523911-0.0260296
		c-0.0990524-0.092515-0.1975212-0.1856713-0.2975616-0.2771077c-0.0913658-0.0835104-0.1850262-0.1645141-0.2763805-0.2480392
		c-0.0196762-0.0179896-0.0485039-0.0322895-0.0451546-0.066855c0.0727921-0.0850377,0.145586-0.1700764,0.2183781-0.2551155
		c0.0547981,0.0328956,0.0952988,0.0826054,0.1413898,0.1250591c0.1758766,0.1619945,0.3550587,0.3203869,0.5290718,0.4844036
		c0.0072956,0.0068765,0.0140953,0.0141115,0.0189915,0.0229483C16.8575172,6.6479635,16.7753201,6.724854,16.6920338,6.8006783z"/>
	<path fill="#3DABF3" d="M14.7962265,7.388247c0.0675125,0.0296283,0.1073666,0.0924039,0.1618385,0.1376958
		c0.1016684,0.0845356,0.1950102,0.1790586,0.2922306,0.2689772c0.0801649,0.0741444,0.160759,0.14783,0.2415771,0.2212629
		c0.0158958,0.0144434,0.0329971,0.0296898,0.0569105,0.0138464c-0.0412884,0.1168051-0.050107,0.2371912-0.0396662,0.3597002
		c-0.0159721,0.001399-0.0282955-0.0046806-0.0401001-0.0156965c-0.0896454-0.0836515-0.1792145-0.1673994-0.2698898-0.2499266
		c-0.1738749-0.1582479-0.348444-0.315732-0.5227957-0.4734573c-0.01511-0.01367-0.0294714-0.0274301-0.0261726-0.0504999
		C14.6907034,7.5239029,14.7407503,7.4542041,14.7962265,7.388247z"/>
	<path fill="#3DD6ED" d="M16.9283772,6.5599422c-0.0528908-0.020762-0.0831566-0.06952-0.1244888-0.1041784
		c-0.0989914-0.0830045-0.190712-0.1746559-0.2857361-0.2624159c-0.0864754-0.0798631-0.1732597-0.1593938-0.2604542-0.2384682
		c-0.0088711-0.0080447-0.0182743-0.0142131-0.018774-0.027348c0.057045-0.0857263,0.11409-0.171452,0.171133-0.2571778
		c0.0315857,0.0331941,0.0614452,0.0682578,0.0950527,0.0992622c0.1546249,0.1426482,0.3078232,0.2870255,0.4669704,0.4244866
		c0.0535049,0.0462122,0.0943909,0.1082397,0.1620674,0.137825C17.070734,6.4126024,17.0053349,6.491487,16.9283772,6.5599422z"/>
	<path fill="#3DC8EF" d="M14.3990002,4.6365495c-0.0128717,0.0749173,0.0261889,0.1184564,0.0820494,0.1635308
		c0.0953159,0.0769091,0.1817055,0.1648645,0.2719746,0.2480402c0.1096563,0.1010389,0.2195864,0.2017803,0.3289919,0.3030896
		c0.0131254,0.0121546,0.0279608,0.0086021,0.0423203,0.0086579c0.1081886,0.0004148,0.2163801,0.0002675,0.3245697,0.0002966
		c-0.0127287,0.0168371-0.0308304,0.0082097-0.0460711,0.0082359c-0.3214493,0.0005431-0.6429033-0.0004029-0.964345,0.0012469
		c-0.0398998,0.000205-0.0496826-0.0109878-0.0492754-0.0498495c0.0020733-0.1981626,0.0008564-0.3963575,0.0016356-0.5945377
		C14.3909655,4.6956515,14.3869715,4.6652398,14.3990002,4.6365495z"/>
	<path fill="#3DBFF0" d="M17.6406288,8.8196821c-0.0526409-0.0151014-0.0805149-0.0628195-0.1169224-0.0964279
		c-0.1118164-0.1032238-0.2314301-0.198391-0.333643-0.3118935c0.0110893-0.0107698,0.0250359-0.006238,0.0377083-0.0062733
		c0.1253834-0.0003405,0.2507648-0.0002632,0.3761463-0.0001125c0.0113525,0.0000143,0.0232239-0.0024023,0.0336971,0.0046034
		C17.6485691,8.5462065,17.6424141,8.6829605,17.6406288,8.8196821z"/>
	<path fill="#3DA4F4" d="M17.6376152,8.4095783c-0.1491852,0.0005856-0.2983704,0.0011711-0.4475536,0.00177
		c-0.1733265-0.0000143-0.3466568-0.000042-0.5199833-0.0000572c-0.170002,0.0000029-0.3400059-0.0000067-0.5100079-0.0000029
		c-0.1433105-0.0000162-0.2866211-0.0000439-0.4299307-0.0000591c-0.0582609-0.0004768-0.1165285-0.0005732-0.1747789-0.0017138
		c-0.0156326-0.0003052-0.034132,0.0065203-0.0449095-0.0125017c0.0205936,0.009654,0.0425587,0.0058928,0.0639553,0.0058966
		c0.6685114,0.0001087,1.3370237-0.0000763,2.0055342,0.0003042C17.5990753,8.4032259,17.6197166,8.3959866,17.6376152,8.4095783z"
		/>
	<path fill="#3DD9ED" d="M11.4805908,7.509943c-0.0169935-0.0197201-0.0207081-0.0433979-0.0203533-0.0682864
		C11.4779072,7.4611759,11.4773722,7.4861188,11.4805908,7.509943z"/>
	<path fill="#3DD9ED" d="M11.5079575,7.6092892c-0.0132036-0.0144401-0.0196476-0.0310874-0.0165977-0.0508394
		C11.5040779,7.5730491,11.5082693,7.5904341,11.5079575,7.6092892z"/>
	<path fill="#3DD9ED" d="M11.4920254,7.5593171c-0.0133696-0.0108004-0.0210953-0.0230479-0.0102644-0.04005
		C11.4922485,7.5308061,11.4916039,7.545198,11.4920254,7.5593171z"/>
	<path fill="#3DD9ED" d="M10.3999662,5.9809885c-0.0424919,0.0164361-0.0865078,0.0095153-0.1301394,0.0084906
		C10.3123732,5.9739032,10.3564892,5.982347,10.3999662,5.9809885z"/>
</g>
</svg>
