<?xml version="1.0" encoding="utf-8"?>
<!-- Generator: Adobe Illustrator 24.1.1, SVG Export Plug-In . SVG Version: 6.00 Build 0)  -->
<svg version="1.1" id="Слой_1" xmlns="http://www.w3.org/2000/svg" xmlns:xlink="http://www.w3.org/1999/xlink" x="0px" y="0px"
	 viewBox="0 0 32 13" enable-background="new 0 0 32 13" xml:space="preserve" width="32px" height="13px">
<g>
	<path fill="#292929" d="M22.4812813,7.0597148c-0.0407448,0.3333044-0.0937042,0.6642318-0.1812134,0.9891181
		c-0.1203003,0.4466381-0.2850876,0.8757296-0.5000343,1.2853451c-0.1864223,0.355258-0.4046841,0.6894817-0.6532383,1.0048857
		c-0.2072773,0.2630215-0.4371605,0.5042667-0.6801739,0.7333393c-0.1119328,0.1055107-0.2317333,0.2026768-0.3479671,0.303627
		c-0.0111923,0.0137138-0.0251102,0.0240612-0.0404129,0.0326967c-0.0990353,0.0714073-0.1977768,0.1432276-0.2971706,0.2141342
		c-0.2414665,0.1722593-0.49576,0.3231487-0.7594833,0.4588156c-0.2119751,0.109046-0.4291344,0.2059116-0.6518955,0.2905197
		c-0.0106354,0.0040417-0.0199547,0.0115499-0.0298862,0.0174427c-0.0159283,0.0120077-0.0354156,0.0135336-0.053812,0.0182753
		c-0.0117016-0.0028801-0.01791,0.0066166-0.026125,0.01159c-0.0329018,0.028883-0.0782757,0.0204601-0.1148415,0.0383835
		c-0.029213,0.0075684-0.0587788,0.0141449-0.084959,0.0302324c-0.0550709,0.0131378-0.1053391,0.0420523-0.1621799,0.0493774
		l0.0011635-0.0007782c-0.0219002,0.0127249-0.0473843,0.0134869-0.0707836,0.0212049l0.0010548-0.0006123
		c-0.0225563,0.011095-0.0474129,0.0140982-0.0713711,0.0202608l0.0011578-0.0007591
		c-0.1622124,0.0485315-0.3275127,0.0837984-0.4932194,0.1180086c-0.0972881,0.0200882-0.1955471,0.0351114-0.2930107,0.0538206
		c-0.0654259,0.0125618-0.1331596,0.0230684-0.2007599,0.0269518c-0.0393047,0.0022583-0.0784111,0.0081491-0.1174965,0.0116978
		c-0.1132126,0.0102768-0.2257099,0.0262499-0.339901,0.0170603c-0.0195465-0.0015745-0.0399323-0.0037003-0.0592651,0.0038071
		c-0.1703014,0.0000038-0.3406038,0.0000076-0.5109053,0.0000095c-0.0478563-0.0065098-0.0957642-0.0080957-0.1433849,0.0011864
		c-0.0133553,0.0026007-0.0264053,0.0035725-0.0395622,0.0014515c-0.1204443-0.0194168-0.2431183-0.0179262-0.3634224-0.0363436
		c-0.2104235-0.032217-0.4205198-0.0671492-0.6283312-0.1139088c-0.1103897-0.0248384-0.2209883-0.0492182-0.3289471-0.0837631
		l0.001153,0.0007706c-0.0239601-0.0061569-0.0488272-0.0091257-0.0713701-0.0202742l0.00105,0.0006256
		c-0.0234089-0.0076933-0.0488863-0.0084753-0.0707922-0.0211887l0.0011539,0.0007763
		c-0.0568352-0.0073404-0.1071024-0.0362434-0.1621704-0.0493803c-0.0299091-0.0096579-0.0598192-0.0193148-0.0897264-0.0289726
		c-0.0333195-0.0225716-0.0793352-0.0098991-0.1100712-0.0396442c-0.0100718-0.0037718-0.0229301,0.000679-0.0305443-0.0103493
		c-0.0157528-0.0083055-0.0349588-0.0078707-0.0493917-0.019516c-0.1216326-0.0401039-0.2382784-0.0926991-0.3554335-0.1437645
		c-0.0686255-0.029912-0.1350336-0.0649099-0.2024393-0.097621c-0.0156231-0.0023317-0.0292139-0.0093756-0.0420589-0.0181475
		c-0.0140419-0.0068474-0.0280848-0.0136948-0.0421286-0.0205421c-0.0216122-0.0053787-0.042634-0.0119123-0.0579576-0.0296011
		c-0.2062654-0.1081963-0.4073553-0.2253828-0.6022673-0.3527937c-0.1513939-0.0989647-0.2998619-0.2023134-0.4393892-0.3178444
		c-0.0126638-0.0098515-0.0238075-0.0216885-0.0382061-0.0292778c-0.2389641-0.1884727-0.4610367-0.3957214-0.6688204-0.6174841
		c-0.1732712-0.1849298-0.3380556-0.3773041-0.4885111-0.5822611c-0.1149473-0.1565857-0.223114-0.3174219-0.3247976-0.4822731
		c-0.0713367-0.1156521-0.1348734-0.2365427-0.1999273-0.3562422c-0.0810595-0.149147-0.1525631-0.302537-0.2178164-0.458642
		C9.9152193,8.7271118,9.8574333,8.5680847,9.8026342,8.4077559c-0.0625534-0.1830196-0.1131058-0.3692913-0.158742-0.5563827
		c-0.0307131-0.1259084-0.0521345-0.2550769-0.0734091-0.383718c-0.0181036-0.1094694-0.0264082-0.2202687-0.048481-0.329164
		c-0.0050144-0.0247388,0.0029192-0.052567-0.0032864-0.0787611C9.5104179,7.0396109,9.5211763,7.0172057,9.5112238,6.9972844
		C9.510416,6.981442,9.5096083,6.9655991,9.5088005,6.9497566C9.5003271,6.9255424,9.5109873,6.8994298,9.5014143,6.8753242
		c-0.0008945-0.0251827-0.00179-0.0503669-0.0026855-0.0755501C9.4893742,6.7622848,9.5022221,6.7233615,9.4913816,6.6859674
		C9.4913788,6.525331,9.4913759,6.3646941,9.4913731,6.2040582c0.0108566-0.0373974-0.0020027-0.0763268,0.0073557-0.1138206
		C9.4996223,6.0650549,9.500515,6.0398731,9.5014086,6.0146904C9.5109921,5.9905849,9.5003252,5.964469,9.5088005,5.9402533
		c0.0008068-0.0158434,0.0016146-0.0316868,0.0024223-0.0475302C9.5211782,5.8728046,9.510416,5.8504,9.5187159,5.8302827
		c0.0105972-0.1013179,0.0157509-0.2035766,0.0330639-0.3037343c0.0262413-0.1518235,0.0525961-0.303659,0.087678-0.4540839
		c0.0433922-0.1860614,0.0920687-0.3701563,0.150568-0.5520682c0.0552921-0.1719389,0.1158352-0.3421102,0.1872845-0.5074911
		c0.0683279-0.1581569,0.1393461-0.315321,0.2224112-0.4673147c0.1216345-0.2225709,0.2472124-0.4424036,0.3915443-0.6508319
		c0.1254702-0.1811891,0.2592249-0.3557856,0.4036064-0.5232811c0.1590872-0.1845577,0.3255358-0.361269,0.5019455-0.5284923
		c0.1397772-0.1324981,0.2844381-0.2601053,0.4406528-0.3736694c0.0118866-0.0086408,0.0219593-0.0197784,0.0328741-0.029755
		c0.0147743-0.0071312,0.0256929-0.0194434,0.0387735-0.0288506c0.1554985-0.1191823,0.3156214-0.2323108,0.4828415-0.3338934
		c0.4818926-0.2927388,0.9901247-0.5290121,1.5293932-0.6963911c0.704114-0.2185445,1.4251289-0.3198004,2.1616592-0.2968636
		c1.2844105,0.0399988,2.4635448,0.4123963,3.5290909,1.1350387c0.0927792,0.062923,0.1837082,0.1285751,0.2754974,0.1929597
		c0.0161915,0.0074182,0.0290756,0.0191346,0.0412807,0.0317372c0.0123768,0.0179663,0.0289593,0.0304682,0.0493717,0.0379957
		c0.0152969,0.0086327,0.0292091,0.0189753,0.0403976,0.0326852c0.1038532,0.0950251,0.2144623,0.1821785,0.3183975,0.2773122
		c0.1364384,0.1248848,0.2672462,0.2553257,0.3937092,0.3898042c0.1519852,0.161622,0.292675,0.3332267,0.4254627,0.5112405
		c0.2456703,0.3293376,0.4593601,0.6780424,0.6366959,1.0486729c0.2010117,0.4201083,0.3561707,0.8561554,0.4577923,1.3113265
		c0.0527363,0.2362142,0.0955181,0.4736376,0.1192455,0.7144947c0.0021,0.0213203,0.007473,0.0423188,0.0113277,0.063467
		c0.008337,0.0200644-0.0025177,0.0424452,0.0075207,0.062304c0.0007992,0.0158892,0.0015965,0.0317793,0.0023956,0.0476689
		c0.0084763,0.0242033-0.0021801,0.0503044,0.0073776,0.0744014c0.0008907,0.0251923,0.0017834,0.0503855,0.0026779,0.0755777
		c0.009409,0.0374274-0.0035133,0.076303,0.0073681,0.1136355c0.0000019,0.160738,0.0000038,0.3214755,0.0000095,0.482214
		c-0.0108967,0.0373406,0.0020332,0.0762286-0.0073776,0.1136661c-0.0008907,0.0251932-0.0017834,0.0503869-0.0026741,0.0755806
		c-0.0095654,0.0240941,0.0010891,0.0501924-0.0073738,0.0743961c-0.0007992,0.0158868-0.0015984,0.0317731-0.0023975,0.0476604
		C22.4787617,7.0172625,22.4896145,7.0396476,22.4812813,7.0597148z"/>
	<path fill="#FEFEFE" d="M14.2409039,12.5767918c0.169796,0.0386467,0.3382826,0.0826626,0.5097179,0.1145754
		c0.3126001,0.0581903,0.6271505,0.0973644,0.944931,0.1101446c0.0163774,0.000658,0.03263,0.0043592,0.0489712,0.0066519
		c-0.0543346,0.0060549-0.1095304-0.0087795-0.1629963,0.0255308c-0.0255079,0.0163689-0.0719404,0.0190058-0.09869-0.0191307
		c-0.0139275-0.0198565-0.0288877-0.0193548-0.0451527-0.0027514c-0.0034218,0.0034914-0.0078392,0.0060806-0.0120153,0.0087471
		c-0.0401754,0.0256224-0.0675983-0.0273571-0.0879965-0.0223188c-0.0307417,0.0075951-0.0542088,0.0367308-0.0830669-0.0013208
		c-0.0049057-0.0064697-0.0129652-0.0187473-0.0177803-0.013381c-0.0500469,0.0557823-0.0827408-0.027607-0.1269464-0.0151453
		c-0.00313,0.0008821-0.0099726-0.0079603-0.01192-0.0068283c-0.0867586,0.0504351-0.1521187-0.0315351-0.231019-0.0394897
		c-0.1960325-0.0197592-0.3869047-0.0749035-0.5782051-0.1232405C14.2716894,12.5945282,14.252142,12.5942726,14.2409039,12.5767918
		z"/>
	<path fill="#FEFEFE" d="M16.2554569,12.8081598c0.1175041-0.0091257,0.2350807-0.0174017,0.3524971-0.0275326
		c0.3765087-0.0324869,0.7470284-0.0991545,1.1121292-0.1964149c0.0127583-0.0033989,0.0260029-0.0049686,0.0390244-0.0073957
		c-0.0298061,0.0279331-0.0702076,0.0248909-0.1057796,0.0357084c-0.1500473,0.0456314-0.3052635,0.0699835-0.4574757,0.1068354
		c-0.0598221,0.0144825-0.1239891,0.0178928-0.1854591,0.0331736c-0.0155087,0.0038557-0.0204296,0.013072-0.0303974,0.0196457
		c-0.0107841,0.0071106-0.024065,0.020793-0.0354176,0.0119514c-0.0477753-0.0372019-0.0829792,0.0006161-0.1261692,0.0102777
		c-0.0385895,0.0086336-0.0857334,0.0259914-0.1186924,0.018795c-0.0343285-0.0074959-0.0543938-0.0140219-0.0777702,0.0130796
		c-0.0024605,0.0028563-0.010685,0.0040903-0.0141602,0.0022211c-0.0462475-0.024868-0.0867367-0.0210209-0.1330147,0.0079603
		c-0.0220203,0.0137882-0.0580807,0.002429-0.0880203-0.0172834C16.3482475,12.7938232,16.2993565,12.8146067,16.2554569,12.8081598
		z"/>
	<path fill="#FEFEFE" d="M13.7401304,12.4195042c0.0387392,0.0075274,0.0766697,0.0173006,0.1100712,0.0396442
		c-0.0255127-0.0001793-0.0492163-0.0116453-0.0769939-0.0018311
		C13.7431345,12.4679422,13.7384424,12.4435701,13.7401304,12.4195042z"/>
	<path fill="#FEFEFE" d="M18.1450272,12.4578876c0.0366287-0.0177345,0.0746574-0.0312862,0.1148415-0.0383835
		c0.0038452,0.0334635-0.0118866,0.0491543-0.0426464,0.0362206C18.1909962,12.4446974,18.1690636,12.4643736,18.1450272,12.4578876
		z"/>
	<path fill="#FEFEFE" d="M13.9399281,12.4881201c0.056139,0.009614,0.1093817,0.028738,0.1621637,0.049386
		C14.0390682,12.5505037,13.9936161,12.5057907,13.9399281,12.4881201z"/>
	<path fill="#FEFEFE" d="M17.8978882,12.5374975c0.0527954-0.0206108,0.1060333-0.0397711,0.1621799-0.0493774
		C18.0063763,12.5057936,17.9609241,12.5505161,17.8978882,12.5374975z"/>
	<path fill="#FEFEFE" d="M12.9601765,12.0799627c0.0230885,0.0024891,0.0426254,0.0119295,0.0579576,0.0296011
		C12.986867,12.1230869,12.9575176,12.1328545,12.9601765,12.0799627z"/>
	<path fill="#FCFCFC" d="M22.5012531,6.7997642c-0.0006676-0.0380783-0.0024071-0.0762267,0.0073776-0.113646
		C22.5067406,6.7240233,22.5183334,6.7628241,22.5012531,6.7997642z"/>
	<path fill="#FCFCFC" d="M9.4913816,6.6859674C9.5011997,6.7234273,9.499342,6.7616405,9.4987288,6.7997742
		C9.4817305,6.7627778,9.493187,6.7239447,9.4913816,6.6859674z"/>
	<path fill="#FCFCFC" d="M22.5086212,6.2038841c-0.0097675-0.037405-0.0080376-0.0755553-0.0073681-0.1136355
		C22.5183296,6.1271791,22.5067501,6.1659675,22.5086212,6.2038841z"/>
	<path fill="#FCFCFC" d="M9.4987288,6.0902376C9.4993382,6.1283607,9.5012283,6.1665664,9.491374,6.2040358
		C9.4931974,6.1660776,9.4817238,6.1272373,9.4987288,6.0902376z"/>
	<path fill="#FEFEFE" d="M13.6601944,12.3896389c0.0188065,0.0005779,0.0362053,0.0047178,0.0493917,0.019516
		C13.6871862,12.4176712,13.6702633,12.4123278,13.6601944,12.3896389z"/>
	<path fill="#FEFEFE" d="M18.2859936,12.4079142c0.0165558-0.0101585,0.03368-0.0186453,0.053812-0.0182753
		C18.3288288,12.4162235,18.3084221,12.4150448,18.2859936,12.4079142z"/>
	<path fill="#FEFEFE" d="M14.1009445,12.536725c0.0247593,0.0031719,0.0488453,0.0085974,0.0707874,0.0211906
		C14.1452961,12.5603476,14.1204014,12.5576181,14.1009445,12.536725z"/>
	<path fill="#FEFEFE" d="M17.8282681,12.5579243c0.0219479-0.0125618,0.0460148-0.0180492,0.0707817-0.0212021
		C17.8796005,12.5576172,17.8547039,12.5603371,17.8282681,12.5579243z"/>
	<path fill="#FEFEFE" d="M14.1706867,12.5572882c0.0250082,0.0024595,0.04914,0.0080042,0.0713634,0.0202799
		C14.2154045,12.5808773,14.1907234,12.5772572,14.1706867,12.5572882z"/>
	<path fill="#FEFEFE" d="M17.7579517,12.5775728c0.0222969-0.0120087,0.04632-0.0179396,0.0713711-0.020257
		C17.8092728,12.5772381,17.7845993,12.5808821,17.7579517,12.5775728z"/>
	<path fill="#FCFCFC" d="M9.5014143,6.8753242c0.0099564,0.0240679,0.0082493,0.0492921,0.0073862,0.0744324
		C9.4924154,6.9263272,9.503027,6.9002194,9.5014143,6.8753242z"/>
	<path fill="#FCFCFC" d="M9.5088005,5.9402533c0.000864,0.025126,0.0025711,0.0503354-0.0073862,0.0744128
		C9.5030298,5.9897947,9.4924135,5.9636831,9.5088005,5.9402533z"/>
	<path fill="#FCFCFC" d="M22.4912052,6.9497409c-0.0008602-0.0251107-0.002512-0.0503006,0.00737-0.0743718
		C22.4969749,6.900228,22.5076008,6.9263239,22.4912052,6.9497409z"/>
	<path fill="#FCFCFC" d="M22.4985752,6.0146708c-0.0098858-0.0240645-0.0082226-0.049274-0.0073776-0.0744023
		C22.5076103,5.9636865,22.496973,5.9897857,22.4985752,6.0146708z"/>
	<path fill="#FCFCFC" d="M22.488802,5.8926005c-0.0086708-0.0200243-0.0088463-0.0410743-0.0075207-0.062304
		C22.4966316,5.8495145,22.4874935,5.8716879,22.488802,5.8926005z"/>
	<path fill="#FCFCFC" d="M9.5187159,5.8302827c0.0013409,0.0212708,0.0012217,0.0423656-0.0074949,0.0624342
		C9.5125065,5.8717642,9.5033731,5.8495545,9.5187159,5.8302827z"/>
	<path fill="#FCFCFC" d="M20.1186504,1.5139785c-0.0134659-0.0108949-0.0269318-0.0217899-0.0403976-0.0326852
		C20.1002979,1.4815879,20.1127014,1.4937946,20.1186504,1.5139785z"/>
	<path fill="#FCFCFC" d="M20.0288811,1.4432974c-0.0137596-0.0105797-0.0275192-0.0211588-0.0412788-0.0317374
		C20.0098877,1.4110497,20.0221043,1.4236383,20.0288811,1.4432974z"/>
	<path fill="#FCFCFC" d="M12.0091181,1.4107101c-0.0076437,0.016713-0.0204563,0.0264794-0.0387735,0.0288506
		C11.9794788,1.4248511,11.9897451,1.4116628,12.0091181,1.4107101z"/>
	<path fill="#FCFCFC" d="M9.5112238,6.9972844C9.519949,7.0173526,9.5200243,7.0384583,9.5187159,7.0597301
		C9.5033731,7.0404558,9.5125055,7.0182452,9.5112238,6.9972844z"/>
	<path fill="#FCFCFC" d="M22.4812813,7.0597148c-0.0013256-0.0212312-0.0011482-0.0422807,0.0075264-0.0623083
		C22.4874916,7.0183163,22.4966316,7.0404944,22.4812813,7.0597148z"/>
	<path fill="#FCFCFC" d="M11.8803139,11.3800468c0.0186224,0.0020771,0.0303993,0.0130873,0.0382061,0.0292778
		C11.8993311,11.4079876,11.8891325,11.3949165,11.8803139,11.3800468z"/>
	<path fill="#FCFCFC" d="M20.0782413,11.4087267c0.0134716-0.0108976,0.0269413-0.0217972,0.0404129-0.0326958
		C20.1127052,11.396224,20.1002865,11.4084244,20.0782413,11.4087267z"/>
	<path fill="#FEFEFE" d="M13.0602627,12.130106c0.0173359-0.0016346,0.0297289,0.0081825,0.0420589,0.0181475
		C13.0799484,12.161561,13.0699577,12.1461763,13.0602627,12.130106z"/>
	<path fill="#818181" d="M10.4180317,4.5777941c0.0365152-0.1420469,0.0970964-0.2752995,0.1549873-0.4090142
		c0.0513582-0.1186275,0.1058874-0.236151,0.1684179-0.3498199c0.1392279-0.2530944,0.2886887-0.4994514,0.4591427-0.7330768
		c0.1213446-0.1663165,0.2553234-0.3215322,0.3932428-0.4740474c0.1408138-0.1557167,0.2893543-0.3036363,0.4460421-0.4426877
		c0.2495527-0.2214639,0.5171824-0.418856,0.8032532-0.5919638c0.1563206-0.0945927,0.3145075-0.1859134,0.4772911-0.2676334
		c0.2357988-0.1183757,0.4795017-0.2195305,0.7293806-0.3062205c0.2854824-0.0990427,0.5778074-0.1707374,0.8732862-0.2297797
		c0.1619501-0.0323607,0.3269873-0.0468556,0.491415-0.0643667c0.3320856-0.0353667,0.665328-0.0239305,0.9971418-0.0140459
		c0.2948742,0.0087842,0.5874405,0.0586324,0.8770485,0.1229216c0.3557987,0.0789829,0.7014179,0.188199,1.0370445,0.3282511
		c0.2312622,0.0965033,0.4547348,0.210164,0.6716881,0.3361382c0.2497902,0.1450409,0.4920712,0.3012733,0.7186852,0.4808646
		c0.2335701,0.1851057,0.4500103,0.3892585,0.6541214,0.6057426c0.2219124,0.235364,0.4227333,0.4886506,0.5990753,0.7600639
		c0.081295,0.125123,0.1551991,0.2551455,0.2300339,0.3845053c0.1335106,0.2307954,0.2426319,0.4726651,0.3361912,0.7210753
		c0.1079311,0.2865696,0.1944542,0.5798874,0.2562656,0.8807793c0.0402737,0.1960382,0.0648727,0.3937421,0.0872498,0.5918326
		c0.0314083,0.2780948,0.0288849,0.5581589,0.0175686,0.8367991c-0.0094185,0.2319694-0.0332699,0.4644008-0.0783596,0.693006
		c-0.0399284,0.2024527-0.0828419,0.4041181-0.1439419,0.6020956c-0.0601921,0.1950483-0.1257286,0.3877401-0.2031784,0.5763865
		c-0.0769634,0.1874609-0.1629677,0.3703947-0.2645626,0.5463371c-0.0664406,0.1150665-0.1319923,0.2304173-0.2035275,0.342494
		c-0.0963154,0.1509008-0.1993046,0.2967491-0.308836,0.4383812c-0.1896343,0.2452154-0.4049339,0.466692-0.6274719,0.6811962
		c-0.0941525,0.0907555-0.1968575,0.172657-0.2960243,0.2581778c-0.0261116,0.022521-0.0449944,0.0293818-0.0736008-0.0068073
		c-0.2425213-0.3068094-0.4875832-0.611619-0.7334995-0.9157219c-0.021101-0.0260925-0.0154457-0.0364952,0.0066395-0.0540771
		c0.2322922-0.1849298,0.4400616-0.3945522,0.6333008-0.6198845c0.2716942-0.3168201,0.4879074-0.6684265,0.6636581-1.0452366
		C20.3642426,8.032402,20.43853,7.8153296,20.502573,7.5945268c0.0690136-0.237947,0.1144943-0.480391,0.143362-0.7256107
		c0.0286102-0.2430258,0.0327644-0.4881897,0.0211124-0.732203c-0.0147972-0.3099041-0.0611153-0.6166792-0.1415386-0.9167123
		c-0.0676403-0.2523355-0.1551819-0.4982786-0.2645378-0.7360396c-0.1641903-0.356976-0.3712139-0.6881883-0.620121-0.991035
		c-0.1433411-0.1744034-0.3027325-0.3355238-0.4693947-0.4894555c-0.2223244-0.2053404-0.4647999-0.3820317-0.7231274-0.537672
		c-0.3651276-0.2199874-0.752079-0.3905468-1.1629963-0.5060762c-0.2368355-0.0665861-0.4774952-0.1149058-0.72118-0.1453433
		c-0.2911835-0.0363706-0.5847816-0.030092-0.8767672-0.0194484c-0.2646904,0.0096489-0.5264978,0.055755-0.7847519,0.1187067
		c-0.3308935,0.080658-0.6497049,0.1934767-0.9555464,0.3436561c-0.3054991,0.1500123-0.5955362,0.3248584-0.8627996,0.5358169
		c-0.2421761,0.191155-0.4600868,0.4077134-0.6624422,0.6405902c-0.2049408,0.235852-0.3741608,0.4952884-0.5283413,0.7662745
		c-0.1023045,0.1798105-0.1802015,0.370029-0.2620401,0.5588813c-0.0194826,0.0068727-0.039113,0.0049305-0.0590305,0.0018835
		c-0.3660183-0.0559773-0.7328262-0.1065092-1.0992384-0.1598654C10.4549475,4.592896,10.4313631,4.5975032,10.4180317,4.5777941z"
		/>
	<path fill="#5371F4" d="M12.5901833,10.5180531c-0.0728636,0.0897207-0.1456633,0.1794949-0.218667,0.2691021
		c-0.0092993,0.0114145-0.01966,0.021965-0.0295296,0.0329151c-0.034955,0.013175-0.0474567-0.0156527-0.0625639-0.0355272
		c-0.0977564-0.1285934-0.1937647-0.2585068-0.2912693-0.387291c-0.4322109-0.5708628-0.8623533-1.1432877-1.2943602-1.7142992
		c-0.0872059-0.1152639-0.1675243-0.2361727-0.2664623-0.3424063c-0.0914192-0.2337618-0.1580324-0.4747291-0.2078581-0.7204442
		c-0.0222015-0.1094832-0.0523891-0.2176504-0.0574675-0.3301396c0.0330763,0.0172825,0.0553017,0.0457778,0.0770035,0.0747452
		c0.2107038,0.2812328,0.4229374,0.561316,0.6346464,0.8417892c0.4284286,0.5675831,0.856657,1.1353159,1.2850428,1.7029314
		c0.1364403,0.1807842,0.2722921,0.3620081,0.408432,0.5430164C12.5813417,10.4713402,12.6040516,10.4886808,12.5901833,10.5180531z
		"/>
	<path fill="#4F7BF4" d="M10.1021252,6.2504954c-0.0029469-0.1253705,0.0091457-0.2497182,0.0261345-0.3736711
		c0.0039606-0.0288944-0.009305-0.0601215,0.0115376-0.0867243c0.0290394-0.0147743,0.0382605,0.011343,0.0502176,0.026485
		c0.1216192,0.154016,0.2365026,0.3131475,0.3550797,0.4694829c0.292429,0.3855467,0.583663,0.771996,0.8742323,1.1589465
		c0.0089788,0.0119562,0.0178823,0.0239987,0.0317869,0.0390019c0.0016365-0.0177751-0.0047989-0.0353131,0.009922-0.0459957
		c0.0206566,0.0697036,0.0410852,0.1394768,0.0620108,0.2090998c0.0911369,0.3032393,0.2090721,0.5947971,0.3603983,0.8738823
		c0.0933094,0.1720877,0.1987514,0.334795,0.3091917,0.496027c0.1704874,0.2488947,0.3756475,0.4659071,0.5899277,0.6751938
		c0.0881729,0.0861177,0.1861429,0.1622076,0.2782316,0.2416286c-0.0466261,0.0579348-0.0939779,0.1167746-0.1413317,0.1756134
		c-0.0315924,0.0148106-0.0409498-0.0135307-0.0539799-0.0299416c-0.1232119-0.1551714-0.2389517-0.3160219-0.3586178-0.473897
		c-0.2986641-0.3940277-0.5955944-0.7893658-0.893446-1.1840067c-0.2797956-0.370717-0.5594349-0.7415524-0.8393345-1.1121893
		c-0.2166901-0.2869358-0.4320765-0.5748692-0.6512852-0.8598948C10.109436,6.4321589,10.105505,6.41535,10.1051311,6.3947101
		C10.1042604,6.3466406,10.1096554,6.2984152,10.1021252,6.2504954z"/>
	<path fill="#5176F4" d="M10.1021252,6.2504954c0.0176001,0.0381932,0.0066996,0.0785289,0.0073185,0.1177058
		c0.0004921,0.0310698,0.0082951,0.0540037,0.0281448,0.0798192c0.1646118,0.2140903,0.3265581,0.4302316,0.4892654,0.6457877
		c0.2335501,0.309413,0.4672823,0.618691,0.7005301,0.9283323c0.2183075,0.2898073,0.4357405,0.5802736,0.654191,0.8699722
		c0.2613468,0.3465872,0.5233431,0.6926851,0.7851171,1.03895c0.0379534,0.0502033,0.0765038,0.0999575,0.1142054,0.1503477
		c0.0101995,0.0136318,0.0194645,0.0272493,0.0385685,0.0280552c-0.0458584,0.0721006-0.1013298,0.1366577-0.1574879,0.2006769
		c-0.0287457,0.0137186-0.0388222-0.0109873-0.0512133-0.02668c-0.1227922-0.1554842-0.2386694-0.3162127-0.3583784-0.474041
		c-0.2977715-0.3925867-0.5936298-0.7866163-0.8905153-1.1798706c-0.2677803-0.354701-0.5343695-0.71031-0.8034582-1.0640087
		c-0.1743555-0.229178-0.3425083-0.463068-0.5223331-0.6880751c-0.0094709-0.0118494-0.014926-0.025898-0.0244074-0.0374994
		c-0.0037699-0.0301132,0.0014467-0.0611811-0.0096235-0.090518c0.005703-0.062995,0.0056143-0.1259918,0.0000725-0.1889906
		C10.1021223,6.4571376,10.1021242,6.353817,10.1021252,6.2504954z"/>
	<path fill="#5175F4" d="M10.1116724,6.8399677c0.0651026,0.0502901,0.1065121,0.1208935,0.1549273,0.1848764
		c0.2479,0.3276091,0.4934759,0.6569748,0.740303,0.9853964c0.1413145,0.1880302,0.2835569,0.3753624,0.4252205,0.5631323
		c0.2783661,0.368969,0.5565748,0.7380571,0.8349352,1.1070318c0.1416664,0.1877861,0.2827845,0.3759966,0.4261665,0.5624628
		c0.0190506,0.0247774,0.0311871,0.0600786,0.0687523,0.0672731c-0.052331,0.0733805-0.1127768,0.1400576-0.1717939,0.2079124
		c-0.0240774-0.0651703-0.0741119-0.1129541-0.1143732-0.1668167c-0.2369032-0.316927-0.4756927-0.6324415-0.7139416-0.9483604
		c-0.2422075-0.3211699-0.4845018-0.6422729-0.7268009-0.9633732c-0.1775064-0.2352362-0.3551846-0.4703398-0.5325756-0.7056613
		c-0.0966482-0.1282105-0.1927881-0.2568035-0.2893324-0.3850927c-0.0156345-0.0207763-0.0421076-0.0322123-0.051156-0.0587873
		c-0.0204315-0.0655637-0.0194397-0.1343489-0.0287905-0.2015085C10.1217642,7.0062189,10.1184845,6.9228468,10.1116724,6.8399677z"
		/>
	<path fill="#4B85F4" d="M10.4180317,4.5777941c0.0175114,0.0050468,0.0376396-0.001617,0.0532579,0.011898
		c0.001359,0.0173783,0.0099974,0.0316405,0.0200834,0.0450029c0.2850151,0.377593,0.5695009,0.7555866,0.8550625,1.1327381
		c0.0207729,0.0015883,0.0101538-0.0340662,0.0338507-0.0273266c-0.0417995,0.2919049-0.0410404,0.5857368-0.039855,0.8795891
		c-0.0226231,0.0142083-0.0271721,0.0141273-0.0492411-0.0130925c-0.034586-0.0426593-0.0679026-0.0864015-0.1007938-0.1303563
		c-0.262331-0.3505621-0.5284004-0.6983047-0.7902899-1.0491977c-0.046793-0.0626969-0.0960951-0.1234913-0.1425877-0.1864262
		c-0.0095959-0.0129895-0.02388-0.0240855-0.0186586-0.0434799c0.0112915-0.1018658,0.0424719-0.1991239,0.0715876-0.296545
		C10.3429165,4.7919545,10.3697815,4.6812477,10.4180317,4.5777941z"/>
	<path fill="#3FA2F4" d="M15.5797119,3.3618972c0.1490288-0.027761,0.299427-0.0347991,0.4506226-0.0297854
		c0.0708447,0.0476928,0.1270847,0.1121094,0.1900082,0.1686792c0.1866894,0.1678424,0.3717766,0.337518,0.5567093,0.5073028
		c0.1384068,0.1270704,0.2771015,0.2538929,0.4153976,0.3810916c0.1517429,0.1395655,0.3054771,0.2770004,0.4566288,0.4172459
		c0.0109673,0.0101752,0.0234566,0.0188355,0.0291634,0.0335078c0.0032082,0.1477046,0.0066166,0.2954216-0.0270119,0.4408698
		c-0.0212078,0.0085793-0.035223-0.0054889-0.048399-0.0172796c-0.1152325-0.1031237-0.2289562-0.2079139-0.3432789-0.3120413
		c-0.140131-0.1276317-0.2801456-0.2553816-0.4205704-0.3826919c-0.086235-0.0781822-0.1716728-0.1572599-0.2577057-0.2356834
		c-0.1450081-0.1321793-0.2902603-0.2641058-0.4347858-0.3967931c-0.1323032-0.121464-0.2654915-0.2419767-0.3973827-0.3639007
		c-0.0561247-0.0518827-0.1115627-0.1046581-0.1700735-0.1540518C15.56007,3.402359,15.5312796,3.3799522,15.5797119,3.3618972z"/>
	<path fill="#3DA8F4" d="M17.6782417,4.8399391c-0.0596066-0.0293827-0.0983276-0.0838652-0.1468754-0.126081
		c-0.1377811-0.1198153-0.2691097-0.2470307-0.4036598-0.3705883c-0.1956387-0.1796536-0.3914547-0.3591177-0.5879879-0.5377893
		c-0.162056-0.147326-0.3253784-0.2932556-0.4876575-0.4403355c-0.0094566-0.008569-0.0145836-0.0219119-0.0217266-0.0330331
		c0.0067101,0.0000365,0.013422,0.0000732,0.0201302,0.0001097c0.0537014,0.0099041,0.1084633-0.0035326,0.162117,0.0073867
		c0.3381233,0.0169787,0.6588192,0.0933216,0.9395828,0.2916481c0.3007965,0.2124758,0.4532604,0.5141599,0.5071068,0.8717029
		c0.0066757,0.0443301,0.0145168,0.0886326,0.0116673,0.1338267c0.0104485,0.0439162-0.0024986,0.0890894,0.0071468,0.133049
		C17.6781387,4.7932029,17.6781902,4.8165708,17.6782417,4.8399391z"/>
	<path fill="#419DF4" d="M15.5797119,3.3618972c-0.026577,0.0170023-0.0138464,0.0313683,0.00282,0.0459113
		c0.1550159,0.1352701,0.3045149,0.2765853,0.4564428,0.4152415c0.1531563,0.1397774,0.3063335,0.2795277,0.4594307,0.4193711
		c0.1530952,0.1398425,0.3072987,0.2784486,0.4591198,0.4197187c0.1481342,0.1378422,0.2987919,0.2729783,0.4485359,0.4090891
		c0.0674877,0.0613432,0.1351681,0.1224794,0.2034416,0.1829424c0.0122013,0.0108061,0.0277328,0.0178542,0.0417271,0.0266371
		c-0.0160503,0.0667696-0.0276947,0.134685-0.0519257,0.1993227c-0.0274811,0.015132-0.0447102-0.0053296-0.0604267-0.020474
		c-0.1318569-0.1270418-0.269249-0.2480822-0.4043827-0.3715086c-0.169508-0.1548243-0.3377552-0.3110857-0.5100193-0.4628987
		c-0.0349541-0.0308037-0.0655785-0.0663519-0.1025791-0.0949955c-0.0130596-0.034132-0.0244255-0.0690308-0.0394745-0.102263
		c-0.0653114-0.1442418-0.182415-0.2195864-0.3340969-0.2478046c-0.0228863-0.0042577-0.0459023-0.007833-0.0688591-0.0117235
		c-0.0030003-0.0015974-0.0062885-0.0034246-0.0093956-0.002871c-0.1026373,0.0182767-0.1697588-0.032402-0.2423677-0.1006336
		c-0.197587-0.185678-0.398571-0.3679907-0.600152-0.5495014c-0.017704-0.0159419-0.0485201-0.0323822-0.0177269-0.0636585
		C15.3290691,3.4051726,15.4526243,3.3762674,15.5797119,3.3618972z"/>
	<path fill="#556CF4" d="M10.427331,8.3405466c0.0548105,0.0142794,0.0724936,0.0663433,0.1015987,0.104578
		c0.1896734,0.2491798,0.3765507,0.5004873,0.5649443,0.7506456c0.2771101,0.3679619,0.5546875,0.7355728,0.8321419,1.1032772
		c0.122756,0.1626854,0.2455988,0.325304,0.3686962,0.487731c0.0119715,0.0157986,0.0244293,0.0322866,0.0472746,0.0332918
		c-0.0657635,0.1012878-0.0692606,0.1016397-0.1640577,0.020752c-0.1667433-0.1422796-0.325325-0.29319-0.478878-0.449563
		c-0.2511883-0.2558002-0.4746122-0.5341368-0.6706238-0.833889c-0.136096-0.2081251-0.2604246-0.4237719-0.3695383-0.647275
		c-0.0834751-0.1709871-0.1565008-0.3469801-0.2209444-0.5262566C10.4329462,8.3699341,10.4308033,8.3550014,10.427331,8.3405466z"
		/>
	<path fill="#488CF4" d="M11.3802862,5.7401066c-0.021162,0.0118346,0.0026932,0.0518312-0.0255299,0.0508704
		c-0.0143433-0.0004878-0.0286427-0.0287437-0.0413904-0.0456333c-0.2732267-0.3620262-0.5462265-0.7242222-0.8192863-1.0863729
		c-0.0109615-0.0145383-0.0218544-0.0291381-0.0331993-0.043375c-0.0120764-0.0151563,0.000165-0.0199924,0.0104027-0.0258985
		c0.1128006,0.0065742,0.2234745,0.0292826,0.3350954,0.0446482c0.2233696,0.0307488,0.4464779,0.0634193,0.6695604,0.096199
		c0.0520992,0.0076551,0.1051426,0.0109067,0.1555185,0.0283289c-0.0652037,0.1953797-0.1341162,0.3896074-0.1780243,0.5914812
		C11.4253178,5.4796042,11.4000921,5.6093302,11.3802862,5.7401066z"/>
	<path fill="#6543F4" d="M14.3299866,7.6898041c-0.0006628-0.1004343-0.0014496-0.2008677-0.0018015-0.3013034
		c-0.0000381-0.0107074-0.0035658-0.0239587,0.0118876-0.028739c0.0601568,0.0342913,0.1024857,0.0894165,0.1527357,0.1347952
		c0.1331577,0.1202512,0.265274,0.2417688,0.3977356,0.3628325c0.1324425,0.1210465,0.2648392,0.242178,0.3980446,0.3624105
		c0.0900307,0.0812616,0.1794205,0.163312,0.2687254,0.2454157c0.1406679,0.1293221,0.2824326,0.2574368,0.4236984,0.3860989
		c0.0896816,0.0816813,0.1797733,0.1629734,0.2680035,0.246212c0.0471573,0.0444889,0.1003017,0.0825672,0.1424694,0.1322651
		c0.0119438,0.0140772,0.0334949,0.0258904,0.0184898,0.0503712c-0.0649529,0.0153465-0.1309185,0.0207939-0.1975021,0.0202217
		c-0.0784855,0.015831-0.1401176-0.003088-0.2003956-0.0632439c-0.1353188-0.1350451-0.2807207-0.2598772-0.4223003-0.3885593
		c-0.0861845-0.0783329-0.1722641-0.1568136-0.258069-0.2355738c-0.1446295-0.1327562-0.2901888-0.2644949-0.4348545-0.3971844
		c-0.094409-0.0865936-0.1901054-0.1718302-0.2831907-0.2599077c-0.0833921-0.0789061-0.1715326-0.1526818-0.253808-0.2328568
		C14.3490858,7.7125645,14.3380795,7.7025747,14.3299866,7.6898041z"/>
	<path fill="#683DF4" d="M15.7700129,9.2990789c-0.3608103-0.0222101-0.6995859-0.1107035-0.9854031-0.3441772
		c-0.2531395-0.2067814-0.3839827-0.4830236-0.4338417-0.8012791c-0.0094919-0.0605888-0.0199194-0.1212912-0.0181875-0.1830888
		c0.0599842,0.0113611,0.0951262,0.0598111,0.1351995,0.0971332c0.2105675,0.196105,0.4252663,0.3876743,0.6368427,0.5826616
		c0.1883125,0.1735487,0.3792181,0.3443184,0.5671282,0.5183496c0.0268154,0.0248346,0.0585709,0.044404,0.0813551,0.0735159
		C15.7658815,9.2585163,15.7842646,9.2742643,15.7700129,9.2990789z"/>
	<path fill="#5371F4" d="M17.6782475,7.7595115c-0.0001507,0.0469832-0.0002995,0.0939655-0.0004501,0.1409488
		c-0.0064049,0.0211806-0.0016117,0.0428891-0.0030231,0.0643086c-0.0021629,0.032824-0.0135422,0.0398583-0.038929,0.0200329
		c-0.0287189-0.0224271-0.0564613-0.0466485-0.0827389-0.071732c-0.1321201-0.1261158-0.2687626-0.2473025-0.4036942-0.3702922
		c-0.1704922-0.1554031-0.3390636-0.3129435-0.5121002-0.4655719c-0.048481-0.0427647-0.0911827-0.0921149-0.1462841-0.1272817
		c-0.0769539-0.1768575-0.2190781-0.2698507-0.4010277-0.3116007c-0.0964947-0.0913014-0.194787-0.1806302-0.2932568-0.2697978
		c-0.1082993-0.0980682-0.2134533-0.1996446-0.325182-0.2938681c-0.0199842-0.0168524-0.0276957-0.0343585-0.0269728-0.0598378
		c0.0007906-0.0279756,0.0044155-0.056365-0.0026131-0.0842156c-0.0005827-0.0247941-0.0015955-0.0495858-0.0016661-0.0743809
		c-0.0002251-0.0787215-0.0000896-0.0787225,0.0797386-0.0744658c0.0853882,0.0790896,0.1721668,0.1566567,0.25807,0.2351704
		c0.1448269,0.1323671,0.289732,0.2646418,0.4347687,0.3967738c0.0884972,0.0806231,0.1768589,0.1614504,0.2650967,0.2423854
		c0.1409092,0.1292443,0.281786,0.2585111,0.4238491,0.3865042c0.0815144,0.073442,0.1628456,0.1472034,0.2431507,0.2219315
		c0.16679,0.1552052,0.336895,0.3067541,0.5040951,0.4614849C17.660059,7.7361703,17.6725254,7.7448502,17.6782475,7.7595115z"/>
	<path fill="#5077F4" d="M17.6782455,7.7595115c-0.0522346-0.0248985-0.0868206-0.0716467-0.1293068-0.1080818
		c-0.0994473-0.0852809-0.192276-0.1782203-0.2892704-0.2664275c-0.1680374-0.1528144-0.3376141-0.303936-0.5057259-0.4566693
		c-0.0945759-0.0859246-0.1868725-0.1743517-0.2813206-0.2604175c-0.1752586-0.1597066-0.3515148-0.3183141-0.5269966-0.4777756
		c-0.0847197-0.0769858-0.1687202-0.1547637-0.2528543-0.2323918c-0.04879-0.0450187-0.0974035-0.0902348-0.1456366-0.135848
		c-0.0118074-0.0111647-0.0265989-0.0210333-0.0270863-0.0401425c0.0999928,0,0.1999874,0.0000005,0.2999802,0.0000014
		c0.1234255,0.1063156,0.2410011,0.2190914,0.3621368,0.3279119c0.1335087,0.1199355,0.2649193,0.2421594,0.3983536,0.3621793
		c0.0889378,0.0799947,0.177002,0.1610684,0.265049,0.2421007c0.1418266,0.1305242,0.2849941,0.2595735,0.427351,0.3895054
		c0.0908241,0.0828977,0.1826267,0.1648068,0.27145,0.2498388c0.0443649,0.0424724,0.0972157,0.075994,0.1338768,0.1265459
		C17.6782455,7.5730643,17.6782455,7.6662884,17.6782455,7.7595115z"/>
	<path fill="#6447F4" d="M16.4099751,9.2801628c-0.0186863-0.0510674-0.064703-0.078639-0.1008396-0.113966
		c-0.0496941-0.0485811-0.1047001-0.0916719-0.1559734-0.1387053c-0.1724386-0.1581879-0.343997-0.3173389-0.5163603-0.4756117
		c-0.1099644-0.100976-0.2205305-0.2013035-0.3312244-0.3014812c-0.1696911-0.1535692-0.3400087-0.3064466-0.5094986-0.4602375
		c-0.0884972-0.0802994-0.176774-0.1608915-0.2633076-0.2432871c-0.0648241-0.0617261-0.1379814-0.114975-0.1926985-0.1871119
		c0.0599957-0.0000014,0.1199903-0.0000024,0.179986-0.0000029c0.0828981,0.0792489,0.1691837,0.1547923,0.2537451,0.2322202
		c0.1422682,0.1302671,0.2842121,0.2608705,0.4277048,0.3898096c0.0803738,0.0722232,0.1567593,0.1488824,0.2406988,0.2171874
		c0.0941038,0.1926222,0.2612114,0.2617178,0.4623318,0.2719603c0.0513334,0.002614,0.1028614,0.0013781,0.1543026,0.0019112
		c-0.0132198,0.0344896-0.0492153,0.006813-0.0739975,0.0303211c0.0475903,0.040803,0.0921783,0.0845299,0.1388779,0.1254807
		c0.0937786,0.0822392,0.1850777,0.1672354,0.2768421,0.2515726c0.1016026,0.0933819,0.2067604,0.1830101,0.304285,0.2808218
		c0.0135193,0.0135612,0.0339546,0.0237465,0.0252476,0.0488701C16.6263924,9.247015,16.519556,9.2698355,16.4099751,9.2801628z"/>
	<path fill="#4D80F4" d="M10.2388601,5.1971431c0.2862749,0.3784761,0.5725107,0.7569823,0.8588533,1.1354065
		c0.0668545,0.0883532,0.1342707,0.17628,0.2009268,0.264781c0.0109158,0.0144916,0.0190592,0.0312395,0.041791,0.0223651
		c0.0162439,0.0623055,0.0117903,0.1267147,0.019228,0.1899352c0.0109539,0.0931001,0.0206556,0.186347,0.0308905,0.279532
		c0.0081453,0.0342574-0.0113707,0.028173-0.0292492,0.0185337c-0.0163879-0.0088353-0.0252829-0.0261898-0.0361757-0.0408082
		c-0.2567282-0.3445053-0.517355-0.6860757-0.775466-1.0295405c-0.1030302-0.1371031-0.2039824-0.2759013-0.3109007-0.4099312
		c-0.0489683-0.0613871-0.0766649-0.1217828-0.0490761-0.1990604C10.2006931,5.350141,10.2146235,5.2725458,10.2388601,5.1971431z"
		/>
	<path fill="#6740F4" d="M15.7700129,9.2990789c-0.0026655-0.0226974-0.0144815-0.0404358-0.0309153-0.0552864
		c-0.1327209-0.1199455-0.2655287-0.2397957-0.3983564-0.3596239c-0.0443163-0.039979-0.086483-0.0821514-0.1311855-0.1218891
		c-0.1362734-0.1211386-0.2680941-0.2472706-0.4026299-0.3703852c-0.1417818-0.1297455-0.2848711-0.2580595-0.4268427-0.3875971
		c-0.0146866-0.0134001-0.0376606-0.0142269-0.0475035-0.0337639c-0.0065966-0.093523-0.0059338-0.1871138-0.002593-0.2807293
		c0.0620079,0.0289369,0.1003313,0.0862575,0.1509609,0.128767c0.1016331,0.0853324,0.1949358,0.1805067,0.2932396,0.2699003
		c0.1669445,0.1518126,0.3355503,0.301795,0.5025663,0.4535294c0.0958824,0.0871096,0.1897306,0.1764526,0.2849865,0.2642584
		c0.1744967,0.1608467,0.3494329,0.3212147,0.5238829,0.48211c0.0111294,0.0102654,0.023428,0.0111418,0.0368443,0.0112295
		c0.0299911,0.0001955,0.0599823,0.0005131,0.0899887,0.000783c-0.0722294,0.0161085-0.1456337,0.0084772-0.2184324,0.0088329
		C15.9193459,9.3095789,15.8440914,9.3148565,15.7700129,9.2990789z"/>
	<path fill="#4D80F4" d="M10.189682,5.4283562c-0.0337238,0.1333799,0.0733156,0.2036014,0.1362085,0.289772
		c0.1950846,0.2672873,0.3965664,0.5299058,0.5956211,0.7942958c0.1443167,0.1916866,0.2885303,0.3834519,0.4336395,0.5745363
		c0.0073881,0.0097299,0.0213594,0.0429769,0.0353966,0.0022044c0.0253372,0.0549936,0.0147018,0.1161027,0.0296144,0.1730614
		c0.0152311,0.0581803,0.0273752,0.1171675,0.0408726,0.1757975c0.0019388,0.020927,0.0038757,0.0418558,0.0059204,0.0639486
		c-0.0366869,0.0003967-0.0448723-0.0330482-0.0600176-0.0531011c-0.2585096-0.3422723-0.5152597-0.6858726-0.7728395-1.0288477
		c-0.1422119-0.1893606-0.2844343-0.3787284-0.428936-0.5663342c-0.0178986-0.0232382-0.0292244-0.0574651-0.0653639-0.0635891
		C10.144311,5.6678486,10.161334,5.5473218,10.189682,5.4283562z"/>
	<path fill="#4D7FF4" d="M16.0495968,5.7718468c0.0632896-0.0144653,0.1265812-0.0289311,0.1898708-0.0433974
		c0.0617561,0.0430584,0.1130886,0.0983005,0.1677608,0.1490574c0.2110023,0.1958818,0.4254951,0.3879352,0.637207,0.5830302
		c0.1835289,0.1691217,0.369009,0.336195,0.5529499,0.5049138c0.0135708,0.0124464,0.0299397,0.0211968,0.0428333,0.034359
		c0.0206184,0.0708513,0.0315552,0.1430693,0.0306377,0.2169614c0.0034008,0.0223517,0.0156498,0.0518169-0.0058384,0.0641661
		c-0.0241356,0.0138741-0.0398598-0.0158558-0.0564766-0.0305996c-0.1754341-0.1556468-0.3472214-0.3153262-0.5206909-0.4731369
		c-0.1316357-0.1197538-0.2623787-0.2405481-0.3939495-0.3603849c-0.1352463-0.1231818-0.2695141-0.2474422-0.4058876-0.3694134
		c-0.0805626-0.0720534-0.1586399-0.146915-0.2395992-0.2186303C16.030611,5.8130016,16.0008183,5.7896004,16.0495968,5.7718468z"/>
	<path fill="#4A86F4" d="M17.6402187,6.9998097c-0.01581,0.0013838-0.0285034-0.0036821-0.040514-0.0147676
		c-0.0767441-0.0708408-0.1539841-0.1411443-0.2311993-0.211472c-0.185051-0.168539-0.3703709-0.3367834-0.555191-0.5055733
		c-0.0893993-0.081645-0.1776066-0.1645927-0.266922-0.2463303c-0.0965843-0.0883923-0.1936874-0.1762209-0.2910213-0.2637868
		c-0.009409-0.0084639-0.0152626-0.0170851-0.0159035-0.029429c0.0667572-0.0383,0.1357918-0.0733495,0.1883678-0.1319008
		c0.0179291,0.0009904,0.0309238,0.0115933,0.0429173,0.023159c0.1302547,0.1256137,0.2687092,0.2423458,0.3987904,0.3681259
		c0.0286942,0.0277452,0.0634766,0.0485969,0.0892506,0.0794182c0.011034,0.0131965,0.0303802,0.0228963,0.0224304,0.0456386
		c-0.0283604,0.0125232-0.0567207,0.0250463-0.0871601,0.0384889c0.010128,0.0247369,0.0331631,0.0234189,0.0497322,0.030004
		c0.3614292,0.1436687,0.5985451,0.3971868,0.6907578,0.779222C17.6376381,6.9733853,17.638382,6.9867296,17.6402187,6.9998097z"/>
	<path fill="#4B85F4" d="M14.4393759,4.1689444c0.0337095-0.0995131,0.0835114-0.1902192,0.1490593-0.2723069
		c0.108758,0.0923359,0.2109547,0.1919112,0.3169355,0.287312c0.1504602,0.135438,0.2986202,0.273407,0.4489155,0.4090347
		c0.0151529,0.0136733,0.0282965,0.0121074,0.0442238,0.007637c-0.0145626,0.1428099-0.0049038,0.2861915-0.0101318,0.4292216
		c-0.0448818,0.0039163-0.0685701-0.0322371-0.0943308-0.0566549c-0.1325903-0.1256733-0.2698154-0.2462506-0.4043579-0.3697276
		c-0.1296082-0.118948-0.2582588-0.2390499-0.3904991-0.3551817C14.4745817,4.2266669,14.4391518,4.2104149,14.4393759,4.1689444z"
		/>
	<path fill="#614DF4" d="M16.7300968,9.2099142c-0.0347633-0.0514355-0.0837135-0.0894709-0.1280975-0.1312532
		c-0.0905037-0.0851974-0.184967-0.1661787-0.2773132-0.2494364c-0.1071701-0.0966234-0.2138348-0.1938086-0.3206558-0.2908201
		c-0.00739-0.006712-0.0146084-0.0136881-0.0212584-0.021121c-0.0074682-0.0083427-0.0217943-0.0153961-0.0173922-0.027812
		c0.0058146-0.0163984,0.0229416-0.0078754,0.0352173-0.0096407c0.019352-0.0027819,0.04006,0.0057449,0.0582466-0.0069847
		c0.1034203-0.0101604,0.2025585-0.0339909,0.2912216-0.0912437c0.0876217,0.0811577,0.1760921,0.1613789,0.2648048,0.2413435
		c0.1577091,0.1421595,0.3094215,0.2909756,0.4733124,0.4262772C16.9780064,9.1232529,16.8582916,9.1760302,16.7300968,9.2099142z"
		/>
	<path fill="#5E56F4" d="M17.0881824,9.0492229c-0.0464973-0.0059824-0.0726662-0.042902-0.1035805-0.070857
		c-0.0969925-0.0877075-0.1915379-0.1781158-0.2879391-0.2664881c-0.104845-0.0961132-0.2108784-0.1909351-0.3159218-0.2868376
		c-0.0130539-0.0119171-0.0297394-0.0224533-0.0306759-0.0434389c0.0980263-0.0741749,0.1464806-0.17875,0.179554-0.2927561
		c0.0514202,0.0703764,0.1216698,0.1219501,0.1850243,0.1797667c0.0918541,0.0838261,0.1831512,0.1683683,0.2760201,0.2511559
		c0.1101646,0.0982065,0.2167301,0.2004538,0.3282318,0.2972336c0.0075951,0.0065928,0.0143871,0.0137587,0.0192604,0.0226164
		C17.2696686,8.9271793,17.1833019,8.9934196,17.0881824,9.0492229z"/>
	<path fill="#4E7CF4" d="M16.0495968,5.7718468c-0.0208912,0.013834-0.0184402,0.0267482-0.0007114,0.0424891
		c0.0892467,0.0792494,0.1775742,0.1595354,0.26688,0.2387171c0.0434532,0.0385299,0.0851326,0.0789866,0.1282578,0.1178751
		c0.1799335,0.1622462,0.3552303,0.3296294,0.5349483,0.4921203c0.1538239,0.1390781,0.308218,0.2774749,0.4592381,0.4196272
		c0.0639706,0.0602145,0.1304359,0.117785,0.196022,0.1762753c0.0080605,0.0071902,0.0143623,0.0213861,0.0283222,0.0147839
		c0.0107994-0.0051074,0.0065365-0.0174932,0.0072422-0.026978c0.0007362-0.009953,0.0007362-0.0199604,0.0010605-0.0299644
		c0.0164909,0.087275,0.0073547,0.1752911,0.0073891,0.2630486c-0.0452518-0.016654-0.0731754-0.0563631-0.1070766-0.0863304
		c-0.1391659-0.1230249-0.2733536-0.2516594-0.4102039-0.3773251c-0.1941948-0.1783237-0.3890247-0.3559542-0.583765-0.5336795
		c-0.1089821-0.0994611-0.2180958-0.1987801-0.3275757-0.2976894c-0.1315842-0.1188779-0.2637806-0.2370782-0.3952389-0.3560939
		c-0.0143251-0.012969-0.0327959-0.0241313-0.0343571-0.0469637C15.8965511,5.7784548,15.9730749,5.7751508,16.0495968,5.7718468z"
		/>
	<path fill="#4E7CF4" d="M14.4393759,4.1689444c0.0482492,0.0667052,0.1162481,0.1135511,0.1760435,0.1678538
		c0.0513067,0.0465932,0.101759,0.0947843,0.1541328,0.1405196c0.1373262,0.1199222,0.2664223,0.2492733,0.4038696,0.3690486
		c0.0709267,0.0618091,0.1302147,0.1378131,0.2149563,0.1834769c0.0048304,0.0901651,0.0048304,0.090313-0.0844221,0.0900755
		c-0.0315018-0.0000834-0.0630007-0.001081-0.0945015-0.0016603c-0.0478783-0.0071812-0.0960588-0.0028958-0.1440392-0.0025702
		c-0.0255404,0.0001736-0.0422173-0.0092039-0.0606232-0.0263104c-0.1361599-0.126543-0.2737141-0.2515845-0.4113531-0.3765297
		c-0.0737505-0.0669484-0.1474276-0.1340165-0.2199507-0.2023277c-0.0163813-0.0154319-0.0228195-0.032023-0.0144262-0.0533977
		C14.3709364,4.3569126,14.3971205,4.2606893,14.4393759,4.1689444z"/>
	<path fill="#5767F4" d="M17.6386223,8.2395096c-0.0089607,0.0809803-0.0405865,0.1551418-0.0692787,0.2301865
		c-0.019352,0.0133896-0.0307426-0.0025387-0.0430927-0.0123672c-0.0638847-0.0508413-0.1226482-0.1076813-0.1822281-0.1631556
		c-0.210741-0.1962185-0.4259872-0.3874946-0.6372948-0.5830889c-0.0449333-0.041594-0.0864563-0.0880313-0.1387177-0.121624
		C16.5588207,7.5835528,16.5541,7.5754619,16.5550594,7.5642776c0.0001431-0.0874386,0.0000095-0.1747789,0.0000572-0.2620683
		c-0.0000172-0.0079274,0.0000038-0.0159059-0.0000153-0.0238042c0.0203362-0.0269113,0.0361862-0.0014148,0.0478153,0.0078354
		c0.0376148,0.0299201,0.0741367,0.0615487,0.1091652,0.0944862c0.2092209,0.1967511,0.4241123,0.3873153,0.6351547,0.5820842
		c0.0877438,0.0809789,0.1736145,0.1643195,0.2661819,0.2400575C17.6254864,8.2127419,17.6315861,8.2263632,17.6386223,8.2395096z"
		/>
	<path fill="#4496F4" d="M15.2098236,3.4517987c-0.0115404,0.0234866,0.0040569,0.0376139,0.0186987,0.0509913
		c0.1074495,0.0981655,0.214819,0.1964254,0.3229551,0.293833c0.1266394,0.1140761,0.2555122,0.2257268,0.3759174,0.3465245
		c0.0161018,0.0161538,0.0344982,0.0161624,0.0546246,0.0175352c0.0324917,0.0022168,0.066143-0.0088067,0.0974483,0.0077806
		c-0.130785-0.001914-0.2615852-0.006381-0.3875999,0.0406756c-0.0245295,0.00916-0.0474901,0.0205088-0.0708714,0.0315518
		c-0.0239906,0.0122929-0.0374231-0.0057664-0.0512543-0.0190983c-0.1701193-0.1639657-0.3499241-0.3173971-0.5216255-0.4796658
		c-0.0362129-0.0342224-0.0760298-0.0647902-0.1097584-0.1017416c-0.0127954-0.0140171-0.0322495-0.0268235-0.0187778-0.0510283
		C15.0107317,3.5315495,15.1059837,3.4826031,15.2098236,3.4517987z"/>
	<path fill="#5961F4" d="M16.5610199,7.5797963c0.0159798-0.0013475,0.0282688,0.0048256,0.0400505,0.01583
		c0.0908051,0.0848093,0.1814785,0.1697745,0.2733727,0.2533946c0.1726265,0.1570826,0.3461246,0.3132057,0.5190773,0.4699287
		c0.0454197,0.0411577,0.0901585,0.0830688,0.1352425,0.1245985c0.012001,0.0110569,0.0214157,0.0261879,0.0405807,0.0261478
		c-0.0229359,0.0721569-0.0564079,0.1389713-0.1014099,0.1999378c-0.0219765,0.013361-0.0342922-0.0051527-0.0472641-0.0159702
		c-0.104866-0.0874481-0.2022762-0.1831903-0.3037834-0.274395c-0.1398888-0.1256876-0.2769966-0.2544422-0.4174671-0.3794975
		c-0.0422611-0.0376215-0.0799961-0.0802736-0.1265163-0.1131988c-0.0096149-0.0068069-0.0178432-0.0160069-0.0174294-0.0288577
		C16.5584393,7.7650957,16.547657,7.6722007,16.5610199,7.5797963z"/>
	<path fill="#4495F4" d="M17.5208893,5.6602902c-0.0350094,0.0719705-0.0815296,0.135469-0.1400013,0.1901674
		c-0.0233517,0.0137691-0.0375099-0.0051827-0.0526104-0.0161891c-0.0552254-0.0402536-0.1016121-0.0907693-0.1515942-0.1368227
		c-0.1722431-0.1587019-0.3486061-0.3129268-0.5178299-0.4749074c-0.0048141-0.0046082,0.0019817-0.0002141-0.0037403-0.0032225
		c-0.0929241-0.0488544-0.1122265-0.1285543-0.1010933-0.2256312c0.0064049-0.0558386,0.0003853-0.1129432,0.0016422-0.1694527
		c0.0248413-0.0178947,0.0404015,0.0025554,0.054615,0.0159154c0.1272068,0.1195698,0.2573261,0.2359753,0.3863277,0.3535528
		c0.131443,0.1198072,0.260376,0.2424517,0.3954639,0.3582282C17.4346638,5.5884366,17.4662266,5.6381407,17.5208893,5.6602902z"/>
	<path fill="#429BF4" d="M17.5208893,5.6602902c-0.0253277,0.0119166-0.0400829-0.0054111-0.0559082-0.0200839
		c-0.1371574-0.1271834-0.2738953-0.2548256-0.4116535-0.3813567c-0.1498661-0.1376505-0.3005753-0.274384-0.451313-0.4110785
		c-0.0120773-0.0109525-0.0272331-0.018507-0.0409603-0.0276408c-0.014967-0.0320339,0.0013752-0.066956-0.0091705-0.0993981
		c-0.0099964-0.0634923-0.0199909-0.1269851-0.0299873-0.1904778c0.0161858-0.0015068,0.0281563,0.005537,0.039835,0.0164709
		c0.0945072,0.0884728,0.1887035,0.1773024,0.2844677,0.2644014c0.1692715,0.1539559,0.3399048,0.3064146,0.5092926,0.4602447
		c0.0614586,0.0558152,0.1212234,0.1135125,0.181242,0.1708922c0.0182419,0.0174417,0.0358067,0.0349679,0.0625706,0.0378675
		C17.5859165,5.5457335,17.5566826,5.6044388,17.5208893,5.6602902z"/>
	<path fill="#5B5CF4" d="M16.5610199,7.5797963c-0.0003471,0.0831556,0.0003281,0.1663361-0.0016689,0.2494521
		c-0.0005989,0.02496,0.0107441,0.038415,0.02775,0.0536327c0.109869,0.0983281,0.2186241,0.1979008,0.3279057,0.2968903
		c0.1767941,0.1601467,0.3536625,0.3202124,0.5308018,0.4799805c0.0057049,0.005146,0.014677,0.006669,0.0221252,0.009882
		c-0.0316963,0.0654888-0.07724,0.1204052-0.1297779,0.1699839c-0.0304718-0.0104609-0.0533409-0.0323029-0.0761356-0.0532904
		c-0.1375923-0.1266899-0.273962-0.254714-0.4119511-0.3809671c-0.0890255-0.0814524-0.1808147-0.1598835-0.2697926-0.2413845
		c-0.0221004-0.0202427-0.0536804-0.0368156-0.0506554-0.0751276c0.0412464-0.2470789,0.0159512-0.4961839,0.022707-0.7443118
		c0.0004959-0.0181885,0.001091-0.0363736,0.0016403-0.0545607c0.0017719-0.0000224,0.0035458-0.0000443,0.0053177-0.0000653
		C16.559864,7.386539,16.560442,7.4831676,16.5610199,7.5797963z"/>
	<path fill="#488CF4" d="M15.39851,4.6006212c-0.0111351,0.0305953-0.0271626,0.0242271-0.0461807,0.006988
		c-0.0661383-0.0599489-0.1330376-0.1190629-0.199008-0.1791945c-0.1833324-0.1671062-0.3662777-0.3346386-0.549674-0.5016735
		c-0.0094471-0.0086052-0.0135002-0.0183671-0.0152111-0.0300984c0.0435438-0.0685179,0.0985565-0.1266572,0.1610622-0.1780174
		c0.1407747,0.1410568,0.2933922,0.2693505,0.4380922,0.4062209c0.0771694,0.0729909,0.1593685,0.1407099,0.234663,0.2158222
		c0.0162334,0.0161929,0.0375481,0.0204186,0.0567207,0.0297832c-0.0248451,0.0554471-0.0496054,0.1107273-0.0690269,0.1686387
		C15.4029007,4.5601006,15.4064817,4.5810747,15.39851,4.6006212z"/>
	<path fill="#4691F4" d="M16.5518837,4.7207322c0.0167847,0.0318694,0.0034637,0.0665092,0.0091591,0.0993991
		c-0.0003357,0.0730691,0.0047226,0.1466894-0.0026417,0.2190452c-0.0065536,0.0643897,0.016386,0.1076818,0.0669403,0.1408443
		C16.685421,5.2194314,16.730938,5.2751851,16.78442,5.3219976c0.1369572,0.1198797,0.2662182,0.2485518,0.4031811,0.3684249
		c0.0547371,0.0479064,0.1015797,0.1046858,0.1626549,0.1455011c0.0097771,0.0065331,0.0181694,0.0143366,0.0306301,0.0145335
		c-0.0515156,0.0606146-0.1123505,0.1099281-0.1812592,0.1494532c-0.0442142-0.0066261-0.0702171-0.0413961-0.0991592-0.0686984
		c-0.172699-0.1629176-0.3532467-0.3172979-0.5235958-0.4826908c-0.016367-0.0158906-0.0481262-0.0180135-0.0477715-0.049922
		C16.5719299,5.1738276,16.5454617,4.9467273,16.5518837,4.7207322z"/>
	<path fill="#4691F4" d="M15.4789743,4.3704519c-0.0265503,0.0167975-0.0437536-0.0015211-0.0606565-0.0171409
		c-0.1376324-0.1271906-0.2747917-0.2548914-0.412488-0.3820119c-0.0755072-0.0697093-0.1519184-0.1384394-0.2275658-0.207998
		c-0.0132256-0.0121613-0.0287399-0.023653-0.0287657-0.0446742C14.79951,3.6666923,14.8578739,3.62573,14.9195805,3.5891576
		c0.0166941,0.0502608,0.0613003,0.0772393,0.0966272,0.1105509c0.097393,0.0918369,0.1987495,0.1794541,0.2976265,0.2697392
		c0.0928669,0.0847955,0.1846189,0.1708107,0.2766991,0.256464c0.0088263,0.0082121,0.018013,0.0145664,0.0304623,0.0147781
		C15.5689096,4.2787514,15.5178967,4.3179851,15.4789743,4.3704519z"/>
	<path fill="#624BF4" d="M15.3883772,7.6798172c0.0008717,0.102304,0.0017424,0.2046089,0.0026121,0.3069129
		c0.0031939,0.0155997,0.0134897,0.0353274-0.006258,0.0437436c-0.0161314,0.006875-0.0314493-0.0072155-0.0435848-0.0186605
		c-0.076148-0.0718198-0.155344-0.1402922-0.2321739-0.2113333c-0.1390324-0.1285577-0.2792625-0.255794-0.4191847-0.3833718
		c-0.016902-0.0154114-0.0380707-0.028769-0.0297289-0.0573359c0.1266651-0.0000033,0.2533312-0.0000062,0.3799963-0.00001
		C15.1557369,7.4669108,15.2742968,7.5709267,15.3883772,7.6798172z"/>
	<path fill="#488BF4" d="M16.5291004,5.3985991c0.10993,0.0847073,0.206089,0.1848822,0.3100128,0.2763615
		c0.1214294,0.1068897,0.240448,0.2165132,0.3605137,0.3249502c-0.066246,0.0503287-0.1410179,0.0841799-0.2184048,0.1129785
		c-0.0526848-0.0734715-0.1305904-0.120914-0.1919956-0.1857338c-0.0451488-0.047657-0.0993042-0.0866618-0.1479492-0.1311584
		c-0.0718422-0.0657167-0.1423569-0.1328878-0.2134418-0.1994433C16.4729614,5.5363827,16.5045776,5.4693046,16.5291004,5.3985991z"
		/>
	<path fill="#556CF4" d="M17.6386223,8.2395096C17.51614,8.13797,17.4023514,8.0268202,17.2847309,7.9198985
		c-0.1690617-0.1536856-0.3399601-0.3053637-0.5082741-0.4598589c-0.0707588-0.064949-0.1371288-0.1346679-0.216156-0.1901512
		c-0.0096664-0.0078826-0.0016937-0.0207429-0.0083218-0.0294828c-0.0069828-0.0534158-0.0139656-0.1068316-0.0209503-0.1602478
		c0.0667267,0.0298624,0.1116028,0.0872912,0.1636639,0.1344752c0.1872845,0.169735,0.3744583,0.3396363,0.5603676,0.5108685
		c0.1356697,0.1249571,0.2760792,0.2448463,0.4063816,0.3756118C17.66576,8.1492109,17.6427746,8.1928082,17.6386223,8.2395096z"/>
	<path fill="#5176F4" d="M14.3590622,4.4571228c0.0012426,0.0148268,0.0022154,0.0283818,0.0152254,0.040216
		c0.1484737,0.1350541,0.2956095,0.271584,0.444622,0.4060364c0.0713692,0.0643959,0.1457701,0.1254745,0.2113791,0.1959901
		c0.0139837,0.015029,0.0305958,0.0091496,0.0464697,0.0108066c0.0441141,0.0046043,0.0893688-0.0094814,0.1326962,0.0080872
		C15.1027918,5.118257,14.99613,5.1182556,14.8894672,5.1182551c-0.0495281-0.0073223-0.0993385-0.0023413-0.1489944-0.002727
		c-0.024929-0.0001936-0.0449104-0.0070086-0.0625668-0.0245814c-0.1117945-0.1112647-0.2312155-0.2142878-0.3475008-0.3207035
		C14.3273115,4.6647124,14.3341579,4.560092,14.3590622,4.4571228z"/>
	<path fill="#546DF4" d="M17.6614418,8.1011133c-0.046875-0.0142851-0.0731106-0.0561552-0.1076717-0.0854654
		c-0.0972576-0.08248-0.1877346-0.1728992-0.2821388-0.2588086c-0.1714973-0.1560602-0.3442497-0.3107429-0.5157681-0.4667797
		c-0.0758362-0.0689893-0.1499443-0.1398768-0.2248344-0.2099023c-0.0133343-0.0434113-0.0266685-0.0868225-0.0400028-0.1302333
		c0.0280056-0.0022764,0.0478382,0.0157509,0.064785,0.0322509c0.0795612,0.0774636,0.1632843,0.1502471,0.2455902,0.2246594
		c0.1891003,0.1709638,0.3771133,0.3431325,0.5652962,0.5151091c0.0867958,0.07932,0.1728306,0.1594729,0.2595673,0.2388587
		c0.0103874,0.0095091,0.0184631,0.029325,0.0347996,0.0228286c0.0168324-0.0066934,0.0066757-0.0265222,0.0086689-0.0404677
		c0.0020561-0.0143809-0.003973-0.0301995,0.0080643-0.0427041c0.0040665,0.0504293-0.0006332,0.1002908-0.0096989,0.1498685
		c-0.0081081,0.015995,0.0016899,0.0346155-0.0074043,0.0504646L17.6614418,8.1011133z"/>
	<path fill="#556BF4" d="M15.4419756,5.930604c-0.0165558,0.1245828,0.0890255,0.1713929,0.1563025,0.2410827
		c0.0457592,0.0473986,0.1002083,0.0862756,0.1488142,0.1310863c0.105998,0.0977206,0.210844,0.1966944,0.3158751,0.2954607
		c0.0118198,0.0111151,0.0265102,0.0210347,0.0270329,0.0400901c-0.0502052-0.0067701-0.1004066-0.0135398-0.15061-0.0203094
		c-0.0495024-0.0072227-0.0992765-0.0015922-0.1489086-0.0029707c-0.0169163-0.0004692-0.0317678-0.001852-0.045661-0.0143905
		c-0.0947495-0.085505-0.1855364-0.175415-0.284071-0.2566895c-0.0151186-0.0124702-0.0153313-0.0276656-0.0157547-0.0445514
		C15.4436722,6.24647,15.4489717,6.193397,15.4419546,6.1405735C15.4419622,6.0705833,15.441968,6.0005941,15.4419756,5.930604z"/>
	<path fill="#6447F4" d="M14.660059,7.3597722c0.0334597,0.0590963,0.0898285,0.0970178,0.1387615,0.1398444
		c0.0535374,0.0468554,0.1038551,0.09724,0.1575527,0.1439581c0.1336679,0.116292,0.2616377,0.2391291,0.3918381,0.3594007
		c0.0097866,0.0090408,0.0201473,0.0222292,0.0333557,0.0182858c0.0162716-0.0048571,0.0051756-0.0229974,0.0094204-0.0345106
		c0.0153513,0.0711441,0.0226412,0.1442528,0.0512171,0.2122269c-0.0214167-0.0000582-0.0377188-0.0108967-0.0526848-0.0247736
		c-0.1373625-0.1273756-0.2741241-0.2554088-0.412323-0.3818703c-0.1368608-0.1252356-0.2751951-0.2488642-0.4128475-0.3732367
		c-0.0186434-0.0168457-0.0352983-0.0352521-0.0442905-0.0593371C14.5667257,7.3597636,14.6133919,7.3597679,14.660059,7.3597722z"
		/>
	<path fill="#5371F4" d="M14.3304043,4.7702432c0.0189428,0.002048,0.0345449,0.0109539,0.0482187,0.023675
		c0.0969725,0.0902209,0.1958103,0.1785636,0.289876,0.2717218c0.0337973,0.0334711,0.0668545,0.0479674,0.1135759,0.0457253
		c0.0354204-0.0016994,0.072649-0.0100899,0.1073933,0.0068903c-0.1763783,0.0005612-0.3527565,0.0008578-0.52913,0.0020103
		c-0.0226898,0.0001483-0.0330591-0.006042-0.0326767-0.0307083C14.3293104,4.9831309,14.3296118,4.8766832,14.3304043,4.7702432z"
		/>
	<path fill="#5F52F4" d="M15.3883772,7.6798172c-0.0263557-0.0037537-0.043437-0.0242724-0.0609207-0.0397153
		c-0.0887127-0.0783572-0.1749907-0.1594758-0.2618494-0.2399211c-0.0118847-0.0110064-0.0258741-0.0213828-0.0255518-0.0404186
		c0.1048832-0.0006623,0.2097836-0.0004382,0.3146372-0.0025544c0.0295753-0.0005965,0.0363178,0.010879,0.0358124,0.037931
		C15.388731,7.4900117,15.3889294,7.5849218,15.3883772,7.6798172z"/>
	<path fill="#5766F3" d="M15.4419546,6.1405735c0.0172777,0.0484591,0.0052986,0.0985379,0.0073738,0.147799
		c0.0010061,0.023869,0.0087023,0.0367761,0.0283298,0.0521331c0.0521345,0.0407925,0.1003399,0.0867028,0.1491632,0.1316051
		c0.0451603,0.0415316,0.0897179,0.0837688,0.1332188,0.127027c0.0145035,0.0144215,0.0306807,0.0091228,0.0465651,0.0107741
		c0.0441446,0.0045905,0.0894279-0.0094433,0.1327848,0.0081029c-0.153017-0.000195-0.3060369-0.0009909-0.4590464-0.0000529
		c-0.0289516,0.0001774-0.0412588-0.0061178-0.0407906-0.0383668C15.4416752,6.4332738,15.4413795,6.2869172,15.4419546,6.1405735z"
		/>
	<path fill="#5175F4" d="M10.1021214,6.5604591c0.0135231,0.0630026,0.01367,0.1259995-0.0000734,0.1889911
		C10.1020737,6.6864524,10.1020975,6.623456,10.1021214,6.5604591z"/>
	<path fill="#3FA2F4" d="M16.2125816,3.3396082c-0.0540447-0.0023131-0.1087379,0.0095658-0.162117-0.0073867
		C16.1046524,3.3314507,16.1590347,3.3263686,16.2125816,3.3396082z"/>
	<path fill="#3FA2F4" d="M17.6780853,4.769835c-0.0172939-0.0435333-0.0047836-0.0886679-0.0071487-0.1330261
		C17.6842442,4.6805487,17.6788826,4.7253146,17.6780853,4.769835z"/>
	<path fill="#5961F4" d="M16.5519791,7.2404056c0.0098991,0.0078182,0.007494,0.0191054,0.0083179,0.0294828
		c-0.0003281,0.0066738-0.0006618,0.0133471-0.0010033,0.0200219c-0.0017815-0.0000076-0.0035534,0.0000138-0.0053253,0.0000644
		C16.5533066,7.2734518,16.5526428,7.2569289,16.5519791,7.2404056z"/>
	<path fill="#556CF4" d="M17.6606941,8.1007919c0.0010166-0.0170345-0.0066261-0.0353403,0.0074043-0.0504646
		C17.6685543,8.0675783,17.6726646,8.0853653,17.6606941,8.1007919z"/>
</g>
</svg>
