<?xml version="1.0" encoding="utf-8"?>
<!-- Generator: Adobe Illustrator 24.1.1, SVG Export Plug-In . SVG Version: 6.00 Build 0)  -->
<svg version="1.1" id="Слой_1" xmlns="http://www.w3.org/2000/svg" xmlns:xlink="http://www.w3.org/1999/xlink" x="0px" y="0px"
	 viewBox="0 0 32 13" enable-background="new 0 0 32 13" xml:space="preserve" width="32px" height="13px">
<g>
	<path fill="#292929" d="M9.5187159,5.8302827c0.0105972-0.1013179,0.0157518-0.2035766,0.0330639-0.3037343
		c0.0262403-0.1518226,0.0525961-0.303659,0.087678-0.4540834c0.0433931-0.1860609,0.0920687-0.3701568,0.150568-0.5520692
		c0.0552921-0.1719398,0.1158361-0.3421106,0.1872854-0.5074916c0.0683279-0.1581564,0.1393452-0.3153203,0.2224092-0.4673138
		c0.1216345-0.2225704,0.2472105-0.4424016,0.3915434-0.6508293c0.1254702-0.1811883,0.2592239-0.3557835,0.4036045-0.523279
		c0.1590872-0.1845579,0.3255348-0.3612685,0.5019445-0.5284917c0.1397772-0.132498,0.2844343-0.2601064,0.4406519-0.3736682
		c0.0118885-0.0086427,0.0219631-0.0197824,0.0328798-0.0297616c0.0147743-0.0071304,0.025692-0.0194442,0.0387735-0.0288506
		c0.1554985-0.1191834,0.3156214-0.2323105,0.4828415-0.3338943c0.4818916-0.2927403,0.9901257-0.5290112,1.5293941-0.6963909
		c0.704113-0.2185442,1.425128-0.3198001,2.1616583-0.2968632c1.2844086,0.0399989,2.4635429,0.4123952,3.5290909,1.1350377
		c0.0927792,0.0629232,0.1837082,0.1285759,0.2754974,0.1929607c0.0161915,0.0074182,0.0290756,0.0191348,0.0412807,0.0317372
		c0.0123768,0.0179662,0.0289593,0.0304682,0.0493717,0.0379958c0.015295,0.0086333,0.0292091,0.018976,0.0403976,0.0326849
		c0.1038551,0.0950238,0.2144585,0.1821818,0.3183975,0.2773143c0.1364403,0.1248842,0.2672539,0.2553177,0.3937092,0.3898048
		c0.1519756,0.1616309,0.2926807,0.3332229,0.4254646,0.51124c0.2456646,0.3293412,0.4593658,0.6780407,0.6367016,1.0486736
		c0.201004,0.4201081,0.356163,0.8561523,0.4577847,1.311322c0.0527325,0.2362156,0.09552,0.4736381,0.1192455,0.7144961
		c0.0021019,0.0213208,0.007473,0.0423203,0.0113239,0.0634689c0.0083408,0.0200629-0.0025139,0.0424433,0.0075245,0.0623012
		c0.0007992,0.0158901,0.0015965,0.0317802,0.0023956,0.0476704c0.0084782,0.0242033-0.0021839,0.0503039,0.0073776,0.0744004
		c0.0008907,0.0251927,0.0017834,0.0503864,0.0026779,0.0755792c0.009409,0.0374274-0.0035114,0.0763021,0.0073681,0.1136346
		c0.0000019,0.160738,0.0000038,0.3214769,0.0000095,0.4822149c-0.0108967,0.0373402,0.0020332,0.0762267-0.0073776,0.1136637
		c-0.0008907,0.0251942-0.0017834,0.0503888-0.0026741,0.075583c-0.0095654,0.0240936,0.0010891,0.0501924-0.0073738,0.0743957
		c-0.0007992,0.0158868-0.0016003,0.031774-0.0023975,0.0476608c-0.0100479,0.0198612,0.0008106,0.0422463-0.0075264,0.0623136
		c-0.0407448,0.3333039-0.0937061,0.6642308-0.1812134,0.9891176c-0.1202984,0.44664-0.2850914,0.8757315-0.5000362,1.285347
		c-0.1864204,0.355257-0.4046783,0.6894808-0.6532364,1.0048828c-0.2072811,0.2630205-0.4371605,0.5042658-0.6801739,0.7333374
		c-0.1119328,0.1055126-0.2317333,0.2026796-0.3479671,0.3036299c-0.0111942,0.0137119-0.0251064,0.0240612-0.040411,0.0326958
		c-0.0990372,0.0714054-0.1977787,0.1432266-0.2971725,0.2141342c-0.2414665,0.1722603-0.49576,0.3231497-0.7594814,0.4588156
		c-0.2119789,0.1090422-0.4291325,0.2059183-0.6518974,0.2905207c-0.0106354,0.0040407-0.0199547,0.0115499-0.0298862,0.0174427
		c-0.0159283,0.0120087-0.0354156,0.0135288-0.0538101,0.0182743c-0.0117016-0.002882-0.01791,0.0066185-0.0261269,0.011591
		c-0.0328979,0.0288916-0.0782795,0.0204411-0.1148396,0.0383816c-0.029213,0.0075703-0.0587807,0.0141439-0.0849609,0.0302343
		c-0.0550709,0.0131388-0.105341,0.0420475-0.1621799,0.0493774l0.0011635-0.0007782
		c-0.0219002,0.0127249-0.0473843,0.0134869-0.0707836,0.0212049l0.0010548-0.0006123
		c-0.0225563,0.011095-0.0474129,0.0140982-0.0713711,0.0202608l0.0011578-0.0007591
		c-0.1622124,0.0485287-0.3275127,0.0837984-0.4932175,0.1180077c-0.09729,0.0200872-0.1955471,0.0351143-0.2930107,0.0538216
		c-0.0654278,0.0125589-0.1331615,0.0230656-0.2007599,0.0269518c-0.0393047,0.0022593-0.0784111,0.0081491-0.1174965,0.0116968
		c-0.1132126,0.010273-0.2257118,0.0262547-0.339901,0.0170603c-0.0195446-0.0015745-0.0399342-0.0037022-0.0592651,0.003808
		c-0.1703033,0.0000019-0.3406067,0.0000057-0.5109091,0.0000086c-0.0478563-0.0065069-0.0957642-0.0080948-0.1433859,0.0011883
		c-0.0133533,0.0026035-0.0264044,0.0035725-0.0395613,0.0014505c-0.1204443-0.0194187-0.2431173-0.0179234-0.3634205-0.0363426
		c-0.2104235-0.0322199-0.4205198-0.0671501-0.6283312-0.1139088c-0.1103878-0.0248384-0.2209883-0.0492182-0.3289471-0.0837641
		l0.001153,0.0007706c-0.0239601-0.0061569-0.0488281-0.0091248-0.0713711-0.0202742l0.0010509,0.0006256
		c-0.0234089-0.0076933-0.0488863-0.0084753-0.0707922-0.0211887l0.0011539,0.0007763
		c-0.0568352-0.0073404-0.1071024-0.0362434-0.1621704-0.0493803c-0.0299091-0.0096579-0.0598192-0.0193148-0.0897264-0.0289726
		c-0.0333195-0.0225716-0.0793352-0.0098991-0.1100712-0.0396442c-0.0100737-0.0037699-0.0229311,0.000679-0.0305462-0.0103493
		c-0.0157518-0.0083055-0.0349588-0.0078707-0.0493898-0.019516c-0.1216354-0.0400982-0.2382774-0.0927-0.3554354-0.1437626
		c-0.0686264-0.0299101-0.1350336-0.0649109-0.2024374-0.0976229c-0.0156231-0.0023317-0.0292139-0.0093756-0.0420589-0.0181475
		c-0.0140429-0.0068474-0.0280876-0.0136957-0.0421305-0.0205441c-0.0216141-0.005373-0.0426311-0.0119152-0.0579557-0.0295992
		c-0.2062664-0.1081934-0.4073572-0.2253819-0.6022701-0.3527927c-0.151392-0.0989628-0.2998619-0.2023134-0.4393864-0.3178453
		c-0.0126638-0.0098515-0.0238075-0.0216885-0.0382061-0.0292778c-0.2389641-0.1884727-0.4610395-0.3957186-0.6688213-0.6174841
		c-0.1732693-0.1849298-0.3380527-0.3773031-0.4885082-0.5822611c-0.1149454-0.1565857-0.2231131-0.3174219-0.3247976-0.4822712
		c-0.0713377-0.115653-0.1348581-0.2365513-0.1999311-0.3562393c-0.0810843-0.1491365-0.1524801-0.302577-0.2177973-0.4586496
		c-0.0652876-0.156002-0.1230259-0.315052-0.1778231-0.4753819C9.7400827,8.2247381,9.6895275,8.0384645,9.6438904,7.8513718
		C9.6131773,7.7254634,9.5917606,7.596293,9.5704823,7.4676533c-0.0181084-0.1094685-0.0264006-0.2202702-0.04848-0.3291645
		C9.5169868,7.1137509,9.5249214,7.0859237,9.5187159,7.0597305C9.5104179,7.0396113,9.5211763,7.0172062,9.5112238,6.9972858
		C9.510416,6.9814434,9.5096083,6.9656005,9.5088005,6.9497581C9.5003281,6.9255424,9.5109863,6.8994288,9.5014143,6.8753228
		c-0.0008955-0.0251827-0.001791-0.0503659-0.0026865-0.0755486C9.4893751,6.7622848,9.5022211,6.7233624,9.4913816,6.6859684
		C9.4913788,6.5253315,9.4913759,6.3646941,9.4913731,6.2040572c0.0108566-0.0373964-0.0020008-0.0763259,0.0073547-0.1138191
		C9.4996214,6.0650549,9.500515,6.0398722,9.5014095,6.0146894c0.0095825-0.0241051-0.0010843-0.0502205,0.007391-0.0744352
		C9.5096073,5.9244103,9.5104151,5.908566,9.5112228,5.8927221C9.5211782,5.8728042,9.510417,5.8504,9.5187159,5.8302827z"/>
	<path fill="#FEFEFE" d="M16.2554588,12.8081598c0.1175041-0.0091257,0.2350807-0.0173998,0.3524971-0.0275326
		c0.3765068-0.0324879,0.7470264-0.0991526,1.1121254-0.1964149c0.0127602-0.0033989,0.0260048-0.0049706,0.0390263-0.0073957
		c-0.0298061,0.0279331-0.0702076,0.0248909-0.1057796,0.0357084c-0.1500473,0.0456314-0.3052635,0.0699835-0.4574757,0.1068354
		c-0.0598221,0.0144825-0.1239891,0.01789-0.1854591,0.0331736c-0.0155067,0.0038557-0.0204296,0.0130711-0.0303974,0.0196447
		c-0.0107822,0.0071135-0.0240612,0.0207939-0.0354156,0.0119524c-0.0477734-0.0371971-0.0829792,0.0006132-0.1261692,0.0102758
		c-0.0385914,0.0086355-0.0857315,0.0259895-0.1186924,0.0187969c-0.0343266-0.0074911-0.0543957-0.0140238-0.0777721,0.0130787
		c-0.0024624,0.0028553-0.0106831,0.0040894-0.0141582,0.0022211c-0.0462494-0.0248661-0.0867405-0.0210247-0.1330166,0.0079594
		c-0.0220184,0.0137892-0.0580807,0.0024328-0.0880184-0.0172815
		C16.3482475,12.7938242,16.2993565,12.8146076,16.2554588,12.8081598z"/>
	<path fill="#FEFEFE" d="M14.2409039,12.5767918c0.1697969,0.0386429,0.3382807,0.0826664,0.5097179,0.1145782
		c0.3125982,0.0581875,0.6271496,0.0973625,0.9449301,0.1101418c0.0163774,0.000659,0.03263,0.0043583,0.0489693,0.006649
		c-0.0543337,0.0060577-0.1095285-0.0087767-0.1629944,0.0255337c-0.0255089,0.0163689-0.0719404,0.0190048-0.098691-0.0191317
		c-0.0139284-0.0198593-0.0288887-0.0193529-0.0451536-0.0027504c-0.0034208,0.0034924-0.0078402,0.0060806-0.0120173,0.0087442
		c-0.0401735,0.0256271-0.0676069-0.0273609-0.0879889-0.022315c-0.0307503,0.0076113-0.0542173,0.0367298-0.0830717-0.0013218
		c-0.0049095-0.0064716-0.0129662-0.0187502-0.0177822-0.013382c-0.0500479,0.0557833-0.0827379-0.0276031-0.1269445-0.0151463
		c-0.0031281,0.0008831-0.0099726-0.0079584-0.011919-0.0068283c-0.0867586,0.050437-0.1521187-0.0315371-0.231019-0.0394897
		c-0.1960325-0.0197573-0.3869057-0.0749025-0.5782042-0.1232386C14.2716904,12.5945292,14.252142,12.5942726,14.2409039,12.5767918
		z"/>
	<path fill="#FEFEFE" d="M18.1450291,12.4578857c0.0366287-0.0177298,0.0746555-0.0312843,0.1148396-0.0383816
		c0.0038452,0.0334644-0.0118885,0.0491543-0.0426464,0.0362206C18.1909943,12.4446955,18.1690636,12.4643745,18.1450291,12.4578857
		z"/>
	<path fill="#FEFEFE" d="M13.7401304,12.4195042c0.0387383,0.0075312,0.0766697,0.0172987,0.1100712,0.0396442
		c-0.0255127-0.0001793-0.0492163-0.0116453-0.0769939-0.0018311
		C13.7431345,12.4679422,13.7384424,12.4435701,13.7401304,12.4195042z"/>
	<path fill="#FEFEFE" d="M17.8978882,12.5374975c0.0527954-0.0206108,0.1060333-0.0397711,0.1621799-0.0493774
		C18.0063763,12.5057898,17.9609241,12.550518,17.8978882,12.5374975z"/>
	<path fill="#FEFEFE" d="M13.9399281,12.4881201c0.056139,0.0096149,0.1093817,0.028738,0.1621637,0.049386
		C14.0390682,12.5505037,13.9936161,12.5057898,13.9399281,12.4881201z"/>
	<path fill="#FEFEFE" d="M12.9601765,12.0799627c0.0230885,0.0024862,0.0426226,0.0119295,0.0579557,0.0295992
		C12.986865,12.1230869,12.9575176,12.1328535,12.9601765,12.0799627z"/>
	<path fill="#FCFCFC" d="M9.4913816,6.6859684c0.0098171,0.0374599,0.0079613,0.0756731,0.0073462,0.1138058
		C9.4817295,6.7627783,9.4931879,6.7239451,9.4913816,6.6859684z"/>
	<path fill="#FCFCFC" d="M22.5012531,6.7997622c-0.0006676-0.0380774-0.0024071-0.0762248,0.0073776-0.1136441
		C22.5067406,6.7240233,22.5183334,6.7628236,22.5012531,6.7997622z"/>
	<path fill="#FCFCFC" d="M9.4987278,6.0902381C9.4993391,6.1283607,9.5012283,6.1665664,9.491374,6.2040348
		C9.4931974,6.1660771,9.4817238,6.1272378,9.4987278,6.0902381z"/>
	<path fill="#FCFCFC" d="M22.5086212,6.2038836c-0.0097675-0.0374045-0.0080376-0.0755539-0.0073681-0.1136351
		C22.5183277,6.1271801,22.506752,6.165967,22.5086212,6.2038836z"/>
	<path fill="#FEFEFE" d="M13.6601944,12.3896389c0.0188084,0.0005722,0.0362024,0.0047216,0.0493898,0.019516
		C13.6871872,12.4176626,13.6702604,12.4123297,13.6601944,12.3896389z"/>
	<path fill="#FEFEFE" d="M18.2859955,12.4079132c0.0165539-0.0101614,0.03368-0.0186405,0.0538101-0.0182743
		C18.3288288,12.4162226,18.308424,12.4150467,18.2859955,12.4079132z"/>
	<path fill="#FEFEFE" d="M14.1009445,12.536725c0.0247593,0.0031719,0.0488453,0.0085983,0.0707874,0.0211906
		C14.1452961,12.5603476,14.1204014,12.5576181,14.1009445,12.536725z"/>
	<path fill="#FEFEFE" d="M14.1706858,12.5572882c0.0250092,0.0024586,0.04914,0.0080061,0.0713644,0.0202799
		C14.2154036,12.5808811,14.1907234,12.5772552,14.1706858,12.5572882z"/>
	<path fill="#FEFEFE" d="M17.7579517,12.5775728c0.0222988-0.012002,0.04632-0.0179424,0.0713711-0.020257
		C17.8092728,12.5772381,17.7845993,12.5808821,17.7579517,12.5775728z"/>
	<path fill="#FEFEFE" d="M17.8282681,12.5579243c0.0219479-0.0125618,0.0460148-0.0180464,0.0707817-0.0212021
		C17.8796005,12.5576172,17.8547039,12.5603371,17.8282681,12.5579243z"/>
	<path fill="#FCFCFC" d="M9.5088005,5.9402542c0.000864,0.025125,0.0025702,0.050333-0.0073862,0.0744104
		C9.5030298,5.9897933,9.4924145,5.9636841,9.5088005,5.9402542z"/>
	<path fill="#FCFCFC" d="M22.4912052,6.9497409c-0.0008602-0.0251107-0.002512-0.0503001,0.00737-0.0743713
		C22.496973,6.900228,22.5076046,6.9263244,22.4912052,6.9497409z"/>
	<path fill="#FCFCFC" d="M9.5014143,6.8753228c0.0099554,0.0240679,0.0082493,0.0492935,0.0073862,0.0744352
		C9.4924135,6.9263272,9.5030279,6.9002185,9.5014143,6.8753228z"/>
	<path fill="#FCFCFC" d="M22.4985752,6.0146699c-0.009882-0.0240645-0.0082226-0.049273-0.0073776-0.0744014
		C22.5076103,5.9636865,22.4969749,5.9897842,22.4985752,6.0146699z"/>
	<path fill="#FCFCFC" d="M9.5187159,5.8302827c0.0013409,0.0212698,0.0012207,0.0423651-0.0074949,0.0624342
		C9.5125065,5.8717632,9.5033731,5.8495545,9.5187159,5.8302827z"/>
	<path fill="#FCFCFC" d="M22.488802,5.8925991c-0.0086708-0.0200233-0.0088463-0.0410719-0.0075207-0.0623026
		C22.496624,5.849515,22.4874992,5.8716865,22.488802,5.8925991z"/>
	<path fill="#FCFCFC" d="M11.8803139,11.3800468c0.0186214,0.00208,0.0303984,0.0130892,0.0382061,0.0292778
		C11.8993311,11.4079876,11.8891325,11.3949165,11.8803139,11.3800468z"/>
	<path fill="#FCFCFC" d="M20.0782433,11.4087257c0.0134716-0.0108986,0.0269413-0.0217962,0.040411-0.0326958
		C20.1127033,11.3962193,20.1002903,11.4084253,20.0782433,11.4087257z"/>
	<path fill="#FCFCFC" d="M22.4812813,7.0597153c-0.0013218-0.0212307-0.0011559-0.0422816,0.0075264-0.0623088
		C22.4874916,7.0183167,22.4966297,7.0404944,22.4812813,7.0597153z"/>
	<path fill="#FEFEFE" d="M13.0602627,12.130106c0.0173359-0.0016336,0.0297289,0.0081825,0.0420589,0.0181475
		C13.0799494,12.1615591,13.0699558,12.1461802,13.0602627,12.130106z"/>
	<path fill="#FCFCFC" d="M9.5112238,6.9972858C9.519949,7.017354,9.5200233,7.0384593,9.5187159,7.0597305
		C9.5033712,7.0404572,9.5125065,7.0182467,9.5112238,6.9972858z"/>
	<path fill="#FCFCFC" d="M12.0091181,1.4107101c-0.0076437,0.0167131-0.0204563,0.0264791-0.0387735,0.0288504
		C11.9794788,1.4248506,11.989748,1.4116651,12.0091181,1.4107101z"/>
	<path fill="#FCFCFC" d="M20.1186504,1.5139781c-0.0134659-0.0108949-0.0269318-0.0217899-0.0403976-0.0326849
		C20.1002979,1.481586,20.1126995,1.4937968,20.1186504,1.5139781z"/>
	<path fill="#FCFCFC" d="M20.0288811,1.4432975c-0.0137615-0.010579-0.0275211-0.021158-0.0412807-0.0317373
		C20.0098877,1.4110514,20.0221043,1.4236362,20.0288811,1.4432975z"/>
	<path fill="#818181" d="M10.8927069,3.5591805c0.0896387-0.1669259,0.1996822-0.3204846,0.3093624-0.4743919
		c0.119503-0.1676927,0.2543163-0.322345,0.3932314-0.4739664c0.2034273-0.2220342,0.4220047-0.4270914,0.6551619-0.618028
		c0.2811241-0.2302167,0.5870619-0.4218285,0.9039955-0.5960993c0.3455162-0.1899866,0.7086468-0.3413587,1.085989-0.4560459
		c0.2913427-0.088549,0.5883522-0.1535822,0.8895674-0.2006574c0.4227495-0.0660688,0.8483009-0.0501752,1.2731285-0.0467453
		c0.1378975,0.0011134,0.2758236,0.0279235,0.4136333,0.0425811c0.2098179,0.0223166,0.4143887,0.068353,0.6183052,0.1169208
		c0.339447,0.080848,0.6682682,0.1946448,0.9873524,0.3369585c0.3281097,0.1463393,0.6393852,0.3221166,0.93997,0.5183345
		c0.1725655,0.1126474,0.3323402,0.2411455,0.4915161,0.3712699c0.1833019,0.1498458,0.3513718,0.3157825,0.5131664,0.487366
		c0.2023602,0.2146029,0.3878098,0.4437513,0.5525494,0.6893783c0.155611,0.2320111,0.299057,0.4714181,0.4204197,0.7224655
		c0.1313133,0.2716308,0.237627,0.5536075,0.3253212,0.8433108c0.0662594,0.2189012,0.1146736,0.4410987,0.1595192,0.6644583
		c0.0246754,0.1228967,0.0303593,0.2488604,0.0469131,0.3730469c0.0368271,0.2762518,0.0296974,0.5536523,0.0263119,0.8307118
		c-0.001997,0.1633258-0.0260658,0.325706-0.0433617,0.4883509C21.82794,7.4306574,21.7748699,7.677268,21.7085304,7.9209199
		c-0.0836754,0.3073049-0.1922626,0.6058898-0.3251228,0.8961234c-0.1172085,0.2560434-0.256464,0.4995031-0.4090252,0.7348089
		c-0.1268711,0.1956854-0.265625,0.3834915-0.4193935,0.5604229c-0.1441841,0.165906-0.2963772,0.3234835-0.4528408,0.4772654
		c-0.1053162,0.103507-0.2189045,0.197958-0.3317909,0.2930479c-0.0267754,0.0225563-0.0454426,0.0279465-0.0735683-0.0076208
		c-0.2425632-0.3067455-0.4875565-0.611578-0.7335033-0.9156218c-0.0215816-0.0266781-0.014101-0.0369005,0.0073395-0.0539932
		c0.2321453-0.1850729,0.4399605-0.3946066,0.6331635-0.6199522c0.2716408-0.3168354,0.4878273-0.6684227,0.663538-1.0452213
		c0.0970192-0.2080479,0.1712971-0.4251089,0.2352982-0.6459107c0.068964-0.2379408,0.1145878-0.4803395,0.1433411-0.7255654
		c0.028492-0.2430191,0.0327663-0.4881601,0.0210781-0.7321587c-0.0148411-0.3098793-0.0611954-0.616621-0.1415939-0.9166408
		c-0.0611229-0.2280893-0.1392746-0.4508629-0.2339039-0.6677217c-0.121542-0.2785358-0.274189-0.5392642-0.446537-0.7888117
		c-0.1068516-0.154712-0.2265854-0.2988997-0.3533478-0.4380414c-0.2112961-0.2319276-0.4402294-0.4439988-0.6930733-0.6293044
		c-0.178545-0.1308553-0.3675766-0.246207-0.5624218-0.3513303c-0.2567635-0.1385298-0.5242367-0.252758-0.8024864-0.3406765
		c-0.269558-0.0851722-0.5449371-0.144454-0.8251038-0.1830682c-0.3061619-0.0421963-0.6141787-0.0362024-0.9208889-0.0258416
		c-0.288126,0.0097334-0.5723391,0.0633986-0.8524981,0.1347604c-0.323657,0.0824425-0.6358967,0.1968338-0.9329967,0.3479054
		c-0.3011742,0.1531432-0.5888634,0.3289979-0.8522654,0.5434656c-0.1734114,0.1411943-0.3352394,0.2940714-0.4887629,0.4556053
		c-0.2066193,0.2173998-0.3878269,0.4551427-0.5445099,0.711231c-0.0050945,0.0083277-0.0120373,0.0155253-0.0181189,0.0232491
		c-0.0229836,0.0121961-0.042037-0.0027218-0.0610704-0.0104828c-0.2531691-0.1032271-0.5051975-0.209235-0.7588015-0.3114097
		c-0.0660906-0.0302322-0.1342421-0.0553706-0.2017679-0.082093C10.946785,3.5954227,10.9134026,3.5880353,10.8927069,3.5591805z"/>
	<path fill="#F1C732" d="M12.7610865,10.3112402c-0.0722017,0.1127872-0.1715488,0.2030344-0.2547674,0.3066826
		c-0.0351038,0.0437231-0.0710735,0.08675-0.1066494,0.1300955c-0.0223951-0.0043879-0.030879-0.0242071-0.0426579-0.0396709
		c-0.2441816-0.3205566-0.4857893-0.6430597-0.7288542-0.9644604c-0.3595686-0.4754515-0.7190123-0.9509974-1.0784016-1.4265823
		c-0.0730047-0.0966091-0.1420307-0.1965704-0.2238455-0.2863874c-0.0494471-0.1323123-0.0752592-0.2707834-0.1068821-0.4077868
		c-0.0413179-0.1790051-0.0683994-0.3605428-0.0877457-0.5427637c-0.0095034-0.0895104-0.0265007-0.1793313-0.0196209-0.2703543
		c0.0326309-0.0119624,0.0391016,0.0187855,0.0514736,0.0345483c0.1131439,0.1441512,0.2213831,0.2920485,0.332056,0.4380951
		c0.3632097,0.4793072,0.724925,0.9597435,1.0874882,1.439538c0.3494968,0.4625025,0.6996574,0.9245033,1.0482159,1.3877134
		c0.0360479,0.047904,0.0746603,0.0939064,0.1087942,0.1432199C12.7515068,10.2702026,12.7694149,10.2862453,12.7610865,10.3112402z
		"/>
	<path fill="#F0BF30" d="M12.7610865,10.3112402c-0.0582199-0.1030483-0.1386375-0.1898594-0.2088175-0.2841148
		c-0.1968908-0.2644329-0.3954563-0.5276203-0.5938635-0.7909203c-0.2283211-0.3030005-0.4569693-0.6057568-0.6858702-0.9083195
		c-0.2329054-0.3078537-0.4663553-0.615294-0.6994448-0.9230084c-0.1420298-0.1875024-0.2836027-0.3753567-0.4262629-0.5623789
		c-0.0092907-0.0121794-0.0147181-0.031301-0.0351658-0.032486c-0.0244074-0.2194762-0.0075464-0.4396696-0.0099173-0.6594968
		c-0.0008993-0.0833097,0.0126925-0.1667752,0.0196791-0.2501702c0.0434494-0.0050044,0.0607891,0.0294623,0.0809107,0.056365
		c0.1506567,0.2014351,0.3034515,0.4012527,0.4551725,0.6018772c0.2783146,0.368022,0.5548468,0.7373924,0.8350906,1.1039529
		c0.0213003,0.0278606,0.0340385,0.0611877,0.0579233,0.087193c0.0573845,0.150321,0.1085091,0.3029361,0.1743011,0.4501557
		c0.1519537,0.340024,0.3435879,0.6559038,0.5700302,0.9511309c0.1501589,0.1957712,0.3214741,0.3723803,0.4988384,0.5428686
		c0.0787477,0.075696,0.1599274,0.1497545,0.2483511,0.2148972c0.0135365,0.0099726,0.0311775,0.0175047,0.0110664,0.0418415
		C12.954587,10.0698557,12.8582172,10.1908627,12.7610865,10.3112402z"/>
	<path fill="#F0B92E" d="M11.5505209,7.7497334c-0.0127144-0.0001521-0.0213575-0.0062323-0.0286865-0.0166812
		c-0.2396622-0.3416667-0.5009489-0.6672072-0.7485695-1.0029721c-0.1926003-0.2611585-0.3909636-0.5180678-0.5868826-0.7767773
		c-0.0172787-0.0228171-0.0379181-0.0419164-0.0649595-0.0529575c0.0101891-0.0814905,0.0218229-0.1628313,0.0302601-0.244503
		c0.0165606-0.1603136,0.0531101-0.3168836,0.0858402-0.4742012c0.0029306-0.0140853,0.0053768-0.0282712,0.0080481-0.0424104
		c0.0210314-0.0382137,0.0324354-0.0396638,0.0630436-0.0003428c0.0736055,0.0945578,0.1440191,0.1915622,0.2164087,0.2870622
		c0.2573652,0.3395348,0.5145617,0.6791954,0.7700605,1.0201383c0.0139933,0.018672,0.0298433,0.0357375,0.0443726,0.0539246
		c0.0121527,0.3520031,0.0602283,0.6987967,0.1515141,1.0392365C11.5098543,7.6096697,11.5306206,7.6795855,11.5505209,7.7497334z"
		/>
	<path fill="#F1CC33" d="M10.3259106,8.0309172c0.0623426,0.0317726,0.0924368,0.093564,0.1318693,0.1455727
		c0.2609863,0.3442068,0.5199699,0.6899309,0.7801037,1.0347853c0.2242537,0.2972908,0.4491882,0.5940676,0.6737795,0.8911028
		c0.1627045,0.2151861,0.3253403,0.4304256,0.4880066,0.6456404c-0.0364933,0.0473137-0.0738325,0.0940075-0.1090794,0.142231
		c-0.0150776,0.020627-0.0247002,0.0166264-0.0433283,0.0032539c-0.0766764-0.0550356-0.1451235-0.1197577-0.2160053-0.1814089
		c-0.1292839-0.1124487-0.2498589-0.2343893-0.3677826-0.3584623c-0.1697531-0.178607-0.3299189-0.3652468-0.4746284-0.5655899
		c-0.1942263-0.2688961-0.3658056-0.551302-0.5138397-0.8473063c-0.1187248-0.2373991-0.2214527-0.4824076-0.295701-0.7382088
		c-0.0097513-0.0275993-0.0151424-0.056776-0.0298958-0.0825644C10.3415756,8.0902805,10.3337431,8.0605993,10.3259106,8.0309172z"
		/>
	<path fill="#EFB22C" d="M11.3394575,6.5000129c-0.0210581-0.0008225-0.0325022-0.0163984-0.043252-0.0306907
		c-0.2259569-0.300427-0.4514151-0.6012297-0.6772385-0.9017587c-0.1054544-0.1403403-0.2112398-0.2804337-0.3174877-0.4201741
		c-0.0146618-0.0192852-0.0317583-0.0436244-0.0558968-0.0081625c0.0555363-0.2201295,0.1204863-0.4373703,0.1999884-0.650136
		c0.0200834-0.0187297,0.0357542-0.009376,0.0496254,0.0082026c0.0236702,0.0299973,0.0460711,0.0609617,0.0690842,0.0914621
		c0.2571173,0.3407907,0.5162439,0.6800709,0.7710552,1.0225935c0.0202265,0.0271902,0.0619478,0.0459094,0.0460567,0.091989
		c0.0007935,0.0943532-0.0174465,0.187139-0.0259657,0.2806344c-0.0126581,0.1389246-0.0134611,0.2775717-0.0140257,0.4165478
		C11.3412666,6.4336872,11.3401327,6.4668489,11.3394575,6.5000129z"/>
	<path fill="#EEA028" d="M15.551156,4.0204215c0.0671005-0.1299658,0.134201-0.2599313,0.2013016-0.3898966
		C15.769598,3.618207,15.7806606,3.6316314,15.7914,3.640909c0.1070232,0.0924537,0.2099028,0.1895158,0.3149576,0.2841642
		c0.1347141,0.121367,0.268549,0.2437105,0.4028854,0.3654957c0.119566,0.1083937,0.2392292,0.2167096,0.358057,0.3259048
		c0.0857735,0.0788174,0.1731815,0.155817,0.2585258,0.2350988c0.0148087,0.0137572,0.031826,0.0250583,0.0289898,0.048923
		c-0.0000572,0.1766939-0.000061,0.3532634,0.0000114,0.5296941c0.0017891,0.0242596-0.0103073,0.0295215-0.0306816,0.0211639
		c-0.0186996-0.0076718-0.0341377-0.0205097-0.0487194-0.0342407c-0.1995468-0.187902-0.4045906-0.3698049-0.6069183-0.5546589
		c-0.2243748-0.2049961-0.4501495-0.4084668-0.6737347-0.6143456C15.7129974,4.1728091,15.6248589,4.1043577,15.551156,4.0204215z"
		/>
	<path fill="#EFA82A" d="M15.551157,4.0204215c0.0601578,0.0305338,0.1006861,0.0846953,0.1498165,0.1279836
		c0.1839981,0.1621222,0.3642654,0.3284883,0.5454826,0.4937539c0.0894375,0.0815649,0.1772633,0.1649008,0.2669373,0.246202
		c0.1669197,0.1513424,0.3345222,0.3019371,0.5021572,0.4524932c0.0427456,0.0383916,0.0748634,0.0898442,0.1330681,0.1094875
		c0.0124798,0.0215898,0.0056114,0.0451412,0.0057697,0.0676231c0.0008602,0.1205373,0.0003433,0.2410841,0.0004368,0.3614774
		c-0.0048809,0.0486894-0.0321293,0.0280352-0.0510406,0.0135884c-0.0303173-0.0231595-0.0580997-0.0499368-0.0859928-0.0759525
		c-0.1253548-0.1169095-0.2532692-0.2309985-0.3800602-0.3463006c-0.1292343-0.1175208-0.2580509-0.235518-0.3882122-0.3520408
		c-0.0842743-0.0754457-0.1678028-0.1518078-0.2510176-0.2284508c-0.1394949-0.1284785-0.2808037-0.2549605-0.4205055-0.3831749
		c-0.0635862-0.0583587-0.1323385-0.1114912-0.1891403-0.1771631C15.442956,4.2267723,15.497056,4.1235967,15.551157,4.0204215z"/>
	<path fill="#EFA82A" d="M10.8927069,3.5591805c0.0950632,0.0421662,0.1955605,0.0713539,0.2877131,0.1204672
		c0.0304861,0.015882,0.0481024,0.0434406,0.0683937,0.0699749c0.1648035,0.2155137,0.3237257,0.435487,0.4917402,0.6485584
		c0.0117579,0.0149117,0.030674,0.0272732,0.0196486,0.0510406c-0.0891638,0.2069473-0.1667452,0.4182959-0.2399197,0.6313186
		c-0.2593412-0.3530922-0.5284796-0.6988177-0.7895889-1.0505724c-0.0217733-0.0293326-0.0418806-0.049531-0.0795755-0.0295372
		c0.049305-0.1153827,0.1150885-0.2220857,0.1752987-0.331701C10.8469486,3.6313534,10.8705235,3.595649,10.8927069,3.5591805z"/>
	<path fill="#EFAD2B" d="M10.6511183,4.0004301c0.0387573-0.0411255,0.0423536-0.0403774,0.0769196,0.005444
		c0.2437906,0.3231831,0.4883089,0.6458187,0.7310877,0.9697595c0.0239792,0.0319943,0.0601254,0.058805,0.0611572,0.1049061
		c-0.050107,0.2003779-0.1024466,0.4002714-0.13027,0.6054573c-0.0008221,0.006052-0.0056591,0.0115595-0.0086222,0.0173316
		c-0.0003805-0.0456867-0.0414152-0.0655532-0.0640526-0.0960708c-0.1932449-0.2605281-0.3889494-0.5192351-0.5842552-0.7782335
		c-0.0806999-0.107017-0.1626081-0.2131262-0.2429562-0.3204045c-0.0122681-0.0163817-0.023181-0.0276909-0.0445433-0.0195298
		c0.0495892-0.1405749,0.1070395-0.277916,0.1701708-0.4129167C10.6275578,4.0509329,10.6393309,4.0256782,10.6511183,4.0004301z"/>
	<path fill="#EFAD2B" d="M15.3888559,4.3299479c0.0518036,0.0162611,0.080514,0.0628257,0.1184282,0.0956922
		c0.1329193,0.1152244,0.2597895,0.2374067,0.3895655,0.3562808c0.1921568,0.1760125,0.3846979,0.3516021,0.5773401,0.5270815
		c0.1042614,0.0949736,0.209095,0.1893196,0.3136272,0.2839961c0.1070004,0.0969148,0.2140903,0.1937313,0.3207245,0.29105
		c0.0118771,0.0108414,0.0239773,0.0174646,0.0400429,0.0161233c0.0130768,0.0350318,0.0052071,0.0713744,0.0057468,0.1070137
		c0.0013733,0.0906248,0.0004158,0.1812825,0.0004826,0.2717805c0.0017757,0.0331392-0.0175304,0.026072-0.034708,0.0164304
		C17.096859,6.2823496,17.0761242,6.264914,17.056921,6.2467594c-0.1257019-0.1188326-0.2553043-0.2333946-0.3831902-0.3498068
		c-0.1278458-0.116375-0.2557163-0.2327604-0.3842583-0.3483901c-0.0889168-0.0799856-0.17733-0.1605997-0.2658253-0.2410989
		c-0.0151634-0.0615602-0.0007286-0.1246548-0.0093765-0.1919036C15.9774036,5.1503882,15.976263,5.20467,15.936861,5.2324486
		c-0.0426149-0.0310397-0.0803785-0.0677814-0.1192532-0.1031227c-0.1746216-0.1587505-0.3479605-0.3189096-0.5243959-0.4756703
		c-0.0166016-0.014751-0.0353889-0.0241213-0.0546122-0.0336709C15.2886858,4.5233059,15.3387709,4.4266267,15.3888559,4.3299479z"
		/>
	<path fill="#EE9A26" d="M17.1487026,4.8803821c-0.0511818-0.023562-0.0842209-0.0696492-0.1257076-0.1047816
		c-0.0961819-0.0814538-0.1853981-0.1710706-0.278883-0.2557874c-0.162199-0.1469932-0.3258018-0.2924404-0.488203-0.4392133
		c-0.0861912-0.0778975-0.1709309-0.1573989-0.2566319-0.2358429c-0.075882-0.0694551-0.1521015-0.1385422-0.2285233-0.2074029
		c-0.0044994-0.0040526-0.012126-0.0046325-0.0182962-0.006829c0.0535727-0.1048992,0.1081667-0.2092955,0.1601181-0.3149912
		c0.0164833-0.0335336,0.0422344-0.0243268,0.0677252-0.023406c0.0820103,0.0725198,0.1621571,0.1470947,0.243412,0.2204518
		c0.1356411,0.1224625,0.2705994,0.2456892,0.4059372,0.3684893c0.1205921,0.1094189,0.241188,0.2188559,0.3611889,0.3289242
		c0.0477772,0.0438237,0.0953865,0.0877023,0.1465683,0.1274619c0.0116005,0.0090132,0.0192337,0.0177941,0.0174141,0.0329623
		c-0.0000973,0.1540875,0.0001812,0.3080282-0.0003204,0.4619675C17.1544476,4.8483739,17.1599941,4.8655567,17.1487026,4.8803821z"
		/>
	<path fill="#F2DC37" d="M16.0316505,8.3897629c-0.0005512-0.0947542-0.0021553-0.1895199-0.0010109-0.2842531
		c0.0003414-0.0282402-0.0076637-0.0370245-0.0362053-0.0363979c-0.0681057,0.0014954-0.1362896-0.0004501-0.2044411-0.0010061
		c-0.0897198-0.0841827-0.1814556-0.166163-0.2725992-0.2487855C15.3855906,7.6998358,15.2540512,7.58005,15.122386,7.4604187
		c-0.0639648-0.0581188-0.1315956-0.1126013-0.1895628-0.1770353c-0.0127125-0.0141296-0.0441751-0.0310345-0.0067043-0.0537529
		c0.0891981-0.0066609,0.1783762-0.0043039,0.2674875-0.0016146c0.0156374,0.0028229,0.0255508,0.0139728,0.0366306,0.0242834
		c0.1571465,0.1462202,0.3173332,0.2891178,0.4757586,0.4339223c0.1277218,0.1167407,0.2553682,0.2336192,0.3835011,0.3498931
		c0.163847,0.1486797,0.3272343,0.2978849,0.4917965,0.4457893c0.1200275,0.1078787,0.2384472,0.2175837,0.358345,0.3256445
		c0.0654697,0.0590076,0.1274376,0.1219311,0.1973038,0.1760054c0.0094261,0.0072918,0.0182457,0.0147724,0.0178871,0.0282516
		c-0.0030365,0.0382299,0.0060234,0.0769224-0.0050392,0.1147289c-0.1000271,0.0059624-0.2000942,0.0033512-0.3001575,0.0014343
		c-0.0669022-0.0445576-0.1207085-0.1043978-0.1793232-0.1581411c-0.1654491-0.1516905-0.3333817-0.3006639-0.4977894-0.4535151
		C16.1263962,8.4734316,16.0805111,8.4298124,16.0316505,8.3897629z"/>
	<path fill="#F0BF30" d="M17.6810989,7.2389536c0.0117779,0.0107412,0.0070362,0.0249496,0.0070553,0.037641
		c0.0003548,0.2516031,0.0004635,0.5032053,0.0000572,0.7548079c-0.0000172,0.0119867,0.0071888,0.0269814-0.008337,0.0358829
		c-0.021843-0.0300007-0.0117512-0.0645294-0.0111523-0.096673c0.0007133-0.0381885-0.0118542-0.0622001-0.0421944-0.0879774
		c-0.0885487-0.0752392-0.1728783-0.1555133-0.2592049-0.2334423c-0.1405716-0.1268983-0.2799873-0.2550774-0.4199924-0.3825984
		c-0.1265049-0.1152277-0.2528553-0.2306643-0.3794765-0.3457661c-0.1290703-0.1173263-0.2586269-0.2341714-0.3871193-0.3520951
		c-0.0546017-0.0501113-0.1176128-0.0919757-0.1618176-0.1533933c-0.0067959-0.1028085-0.0066128-0.2055531-0.0003986-0.3082223
		c0.0135326-0.03617,0.0343952-0.0152359,0.0503826-0.004283c0.0384235,0.0263247,0.0708294,0.0603614,0.1047401,0.0918245
		c0.1277637,0.1185422,0.2574158,0.2350221,0.3864574,0.3521185c0.163435,0.1483078,0.324976,0.298737,0.4910316,0.4441514
		c0.0299282,0.0262084,0.0555305,0.0574098,0.0903778,0.0779767c0.0112839,0.00666,0.0142784,0.0176682,0.0133171,0.0302248
		c-0.0001049,0.031755,0.0021915,0.06358-0.0006294,0.0949535c-0.003109,0.0345616,0.0117207,0.041821,0.0431538,0.0415411
		c0.1464787-0.0013065,0.2929764-0.0006762,0.4394665-0.0004315C17.6515942,7.235219,17.6668262,7.2321329,17.6810989,7.2389536z"/>
	<path fill="#F3E53A" d="M13.9020052,7.1999578c0.05583-0.1151199,0.1137972-0.229126,0.1773853-0.3402014
		c0.0205412-0.0253806,0.0343561-0.003623,0.0495043,0.0072222c0.058382,0.0417924,0.1077023,0.0941644,0.1600981,0.1424785
		c0.1649332,0.1520834,0.3312874,0.3026371,0.4975033,0.4532614c0.2019215,0.1829805,0.401413,0.3686557,0.6053133,0.5494657
		c0.0157528,0.0139685,0.041997,0.0257397,0.0281811,0.0559311c-0.1834087-0.000001-0.3668156-0.000001-0.5502243-0.0000019
		c-0.0701008-0.0483437-0.1269779-0.1118464-0.1897888-0.1683526C14.500864,7.7386236,14.3238478,7.57515,14.1443567,7.4143953
		C14.0639963,7.3424234,13.9890356,7.2643933,13.9020052,7.1999578z"/>
	<path fill="#F3DF38" d="M15.4199905,8.0681152c-0.0015268-0.0228596-0.020092-0.0339231-0.0343494-0.0469933
		c-0.1088171-0.0997376-0.2178669-0.1992254-0.3275156-0.2980466c-0.1613359-0.1454053-0.3236542-0.2897224-0.4847155-0.4354286
		c-0.0910692-0.0823851-0.1801186-0.166997-0.2707291-0.2498956c-0.0636044-0.0581913-0.1285934-0.1148686-0.1922388-0.1730165
		c-0.0105333-0.0096245-0.0195246-0.0106049-0.0310516-0.0049782c0.0350752-0.0791984,0.075285-0.1557364,0.1193371-0.2302837
		c0.0213413-0.0161657,0.0370646-0.0013757,0.0533743,0.0097637c0.0550728,0.0376153,0.0998859,0.0872393,0.1484699,0.1319327
		c0.1292019,0.1188521,0.2613354,0.2344966,0.3890352,0.3550191c0.0384693,0.0363073,0.0798063,0.0697265,0.1173601,0.1072187
		c0.0010796,0.0021334,0.0021114,0.0042973,0.0031443,0.0064616c0.0651894,0.0825167,0.1492386,0.1456947,0.2260618,0.2159181
		c0.044982,0.0411177,0.0897646,0.0830545,0.1357498,0.1233377c0.1344442,0.1177711,0.2633381,0.2418566,0.3953905,0.3623872
		c0.0435781,0.0397758,0.0955687,0.0709958,0.1226797,0.1265941C15.6666594,8.0681086,15.5433245,8.0681124,15.4199905,8.0681152z"
		/>
	<path fill="#F1CB33" d="M15.2104082,7.2413192c-0.1000996-0.0004835-0.2001982-0.000967-0.3002968-0.0014505l-0.0000086-0.0000153
		c-0.0011654-0.0123568,0.0076084-0.0165,0.0167475-0.0203648c0.0259905-0.0075593,0.0527267-0.0053778,0.0792217-0.0053921
		c0.3089695-0.0001745,0.6179399-0.0000062,0.9269094-0.0001674c0.0792618-0.000041,0.0801659-0.0018344,0.0812874-0.0805817
		c0.000967-0.068027-0.0041103-0.1361661,0.0033169-0.2039676c0.0139122-0.040844,0.0357037-0.0231891,0.0562477-0.0067582
		c0.0701523,0.0561061,0.1333656,0.1200151,0.1998749,0.1801786c0.1773682,0.1604395,0.3544865,0.3211727,0.5311413,0.4823904
		c0.1275749,0.1164255,0.2571945,0.2306685,0.3821487,0.3499479c0.0312824,0.0298638,0.0687027,0.0528622,0.0963058,0.0865736
		c0.0107555,0.013135,0.030138,0.0241852,0.0165863,0.0464029c-0.0348358,0.000555-0.0698032,0.0032215-0.1044655,0.0010328
		c-0.0309429-0.0019531-0.0393696,0.0090647-0.0389957,0.0392752c0.0015469,0.124505,0.0006866,0.2490406,0.0007172,0.3735647
		c0.0000458,0.1992388,0.0003033,0.3984785-0.0002594,0.5977154c-0.0000439,0.015523,0.0075817,0.0331726-0.0070992,0.0468321
		c-0.0004463-0.0422726-0.0008945-0.0845451-0.0013428-0.1268167c-0.026701-0.0538559-0.0092239-0.1113338-0.0138321-0.1669827
		c0.0013008-0.0473881-0.0007935-0.0948305,0.0006542-0.1421843c0.0034866-0.1164761,0.0002823-0.2330503,0.0017662-0.3495932
		c0.0003471-0.0272675-0.0097466-0.0459661-0.0305576-0.0640793c-0.1907635-0.1660252-0.3748856-0.3394318-0.5628262-0.5085859
		c-0.163208-0.1468949-0.3283997-0.2919421-0.48633-0.4441504c-0.0629005-0.0606232-0.1237869-0.0758829-0.203023-0.0720911
		c-0.0980558,0.004693-0.1964636-0.0004606-0.2947721,0.0024018c-0.0538721,0.0013232-0.1076803,0.0001812-0.1615162,0.0006175
		C15.3354321,7.2508502,15.2712946,7.2680793,15.2104082,7.2413192z"/>
	<path fill="#F1C431" d="M16.0316696,6.4300365c0.0330887,0.0098715,0.055542,0.0359516,0.0793762,0.0574651
		c0.1329803,0.1200352,0.2634563,0.2428398,0.3955746,0.3638372c0.1467228,0.1343732,0.2943363,0.2677746,0.4414845,0.4016867
		c0.1496048,0.1361513,0.2986717,0.2728958,0.4488297,0.4084325c0.0873146,0.0788116,0.1758194,0.1563315,0.2650337,0.2329831
		c0.0149422,0.0128369,0.0181808,0.025753,0.018013,0.0430079c-0.0004253,0.0432749-0.0001183,0.0865579-0.0001068,0.1298366
		c-0.0433273,0.0002766-0.0866528,0.0005531-0.1299801,0.0008307c-0.1249371-0.1243701-0.2588234-0.2390075-0.3886662-0.3580475
		c-0.0858192-0.0786777-0.1720943-0.1568437-0.2581882-0.2352123c-0.1340446-0.1220207-0.2686405-0.2434421-0.402523-0.3656278
		c-0.1265354-0.1154819-0.2555504-0.2283359-0.3787956-0.3472972c-0.0342369-0.0330491-0.0828037-0.0514669-0.1033726-0.0988498
		c-0.0074234-0.0627041-0.0032139-0.1255088-0.0029907-0.18823C16.0154152,6.4584785,16.0166435,6.4414635,16.0316696,6.4300365z"/>
	<path fill="#F3EB3B" d="M13.9020052,7.1999578c0.0279531-0.001936,0.0469799,0.0166297,0.0646706,0.0326419
		c0.0920925,0.0833516,0.182004,0.1691127,0.2740393,0.2525301c0.1642809,0.1489029,0.3308029,0.295361,0.4935942,0.4458637
		c0.0469637,0.0434198,0.0998306,0.0820899,0.135457,0.1371198C14.6965342,8.0681152,14.523303,8.0681171,14.350071,8.068119
		c-0.0903559-0.0809169-0.1802044-0.1624227-0.2690773-0.244935c-0.0462933-0.0429807-0.0968666-0.0812755-0.1397982-0.1279516
		c-0.0074577-0.00811-0.016263-0.0201435-0.028985-0.0148926c-0.0132666,0.0054765-0.0087566,0.0202699-0.0088129,0.0312157
		c-0.0004988,0.0981541,0.0000372,0.1963129-0.0004807,0.294466c-0.0001125,0.0211716,0.0041828,0.0437756-0.0127764,0.0616779
		c-0.018712-0.0116568-0.0087986-0.029994-0.0088387-0.0447445c-0.0006752-0.2495427-0.0002136-0.4990888-0.0007334-0.7486324
		C13.8805113,7.2468357,13.8830233,7.2213554,13.9020052,7.1999578z"/>
	<path fill="#F1C732" d="M16.0316601,6.679985c0.0282192,0.0077333,0.0487309,0.0281739,0.0689774,0.0466108
		c0.1324215,0.1205812,0.2630882,0.2430878,0.3952427,0.363966c0.1846809,0.1689243,0.3701153,0.3370247,0.5553131,0.5053825
		c0.1447124,0.1315546,0.2895641,0.2629576,0.4343319,0.3944497c0.0251465,0.0228391,0.0610485,0.0367999,0.0643692,0.0777221
		c-0.0833359,0-0.1666698,0-0.2500038-0.000001c-0.0063877-0.0325327-0.0343914-0.0485048-0.055685-0.0680618
		c-0.1844921-0.1694708-0.3700714-0.3377562-0.55546-0.5062485c-0.143631-0.1305404-0.2873688-0.2609653-0.4312153-0.3912649
		c-0.0676117-0.0612426-0.1354752-0.1222091-0.2036476-0.1828241C16.04813,6.9146023,16.0391445,6.913126,16.0316601,6.9099593
		c-0.0102787-0.0074563-0.0154972-0.0185966-0.0150623-0.0302191C16.0190945,6.8129835,15.9972067,6.7443061,16.0316601,6.679985z"
		/>
	<path fill="#F1CA33" d="M14.5657845,5.9187088c0.0552692-0.1060719,0.1105375-0.2121434,0.1658058-0.3182154
		c0.0323992-0.0012798,0.0506067,0.0242457,0.0699148,0.0421901c0.1239233,0.1151752,0.2508726,0.2270079,0.3751221,0.3418078
		c0.0743074,0.068656,0.1500397,0.1357579,0.2248688,0.2038512c0.0135269,0.0123105,0.0285196,0.0235634,0.0281258,0.044631
		c-0.0388603,0.1082716-0.0971203,0.2071848-0.1495705,0.3089013c-0.0031166,0.006042-0.009428,0.0091329-0.0161295,0.0107131
		c-0.1028881-0.0808072-0.1954784-0.173336-0.2923241-0.26091c-0.1289597-0.1166139-0.2587376-0.2324162-0.3855247-0.35145
		C14.5788431,5.9334397,14.5703611,5.9279542,14.5657845,5.9187088z"/>
	<path fill="#F2D235" d="M14.5657845,5.9187088c0.0601978,0.0218225,0.0953207,0.0755596,0.1405706,0.1151776
		c0.1807756,0.1582718,0.3569736,0.3217692,0.5349865,0.4832006c0.0102081,0.0092578,0.0187387,0.0189023,0.0189362,0.0335431
		c0.0107183,0.0125318,0.0048389,0.0253634-0.0008354,0.0369358c-0.0348539,0.0710754-0.0695581,0.1422358-0.1063261,0.2123518
		c-0.0062265,0.0118742-0.0149536,0.0217547-0.0282173,0.0264344c-0.0402002,0.0033607-0.0636806-0.0263066-0.0879717-0.0491581
		c-0.1667347-0.1568413-0.3397923-0.3067646-0.5060863-0.4640641c-0.0382051-0.0361381-0.086792-0.0620866-0.1098614-0.112926
		C14.4692488,6.1063724,14.5175161,6.0125403,14.5657845,5.9187088z"/>
	<path fill="#ED9525" d="M17.1487541,4.3504534c-0.0563602-0.0078554-0.0839291-0.0574217-0.1207314-0.089962
		c-0.171526-0.151659-0.3379745-0.3090491-0.5068893-0.4636779c-0.1455975-0.1332829-0.2916298-0.2660978-0.4384632-0.3980134
		c-0.0369091-0.0331578-0.0805378-0.0592632-0.1023693-0.106673c0.1032276-0.0000031,0.2064533-0.0000064,0.3096809-0.0000093
		c0.1285744,0.1326003,0.270731,0.2505102,0.4061527,0.3757038c0.0855083,0.0790491,0.1718559,0.1571553,0.2583294,0.2351372
		c0.0604801,0.054543,0.1180363,0.1123834,0.1823425,0.1625934c0.0112934,0.0088191,0.0196972,0.0177002,0.0180206,0.033021
		C17.150835,4.1825662,17.1626339,4.2668195,17.1487541,4.3504534z"/>
	<path fill="#F0B42D" d="M15.2386007,4.6199846c0.0164833-0.0092969,0.0290852-0.0066776,0.043889,0.0069203
		c0.0559378,0.0513787,0.1142769,0.1001415,0.1702843,0.1514468c0.131691,0.1206307,0.2626581,0.2420497,0.3936749,0.3634152
		c0.0296125,0.0274305,0.0720053,0.0428777,0.0833302,0.0877171c0.0102386,0.0102363,0.0072737,0.0221043,0.0014601,0.0320983
		c-0.0392227,0.0674319-0.0705881,0.138938-0.1082144,0.2071757c-0.0040588,0.00736-0.0101433,0.0130444-0.0178308,0.0167694
		c-0.0207357,0.0065556-0.0353174-0.0049167-0.0487309-0.0177388c-0.1213474-0.1160135-0.2482815-0.2259197-0.3714266-0.3399792
		c-0.0841103-0.0779033-0.1706104-0.1532307-0.2539864-0.2319674c-0.0083742-0.0079074-0.019186-0.0135646-0.0220728-0.026051
		C15.1521854,4.7865224,15.1953926,4.7032537,15.2386007,4.6199846z"/>
	<path fill="#F0B92E" d="M15.1089773,4.8697906c0.0612221,0.0267363,0.0975437,0.0835195,0.1470022,0.1244621
		c0.0966797,0.0800352,0.1855259,0.1695123,0.2779531,0.254714c0.0790176,0.0728374,0.1585722,0.1450911,0.2377005,0.2178087
		c0.0089579,0.0082321,0.0185699,0.0137229,0.0308313,0.0140886c0.0080395,0.0133128,0.0024424,0.0258412-0.0033178,0.0375667
		C15.7627773,5.592454,15.7259493,5.666254,15.688345,5.7396603c-0.0052586,0.0102649-0.0116043,0.020174-0.0242367,0.0230422
		c-0.0639448-0.0396719-0.1129913-0.0969768-0.1677961-0.1468935c-0.1604776-0.146162-0.3229427-0.2901855-0.4811153-0.4388723
		c-0.0145912-0.0137153-0.03374-0.0212216-0.0463181-0.0371032C15.0155783,5.0498195,15.0622768,4.959805,15.1089773,4.8697906z"/>
	<path fill="#F3E239" d="M16.0316486,8.3897629c0.022522,0.003149,0.0388832,0.0163975,0.0550423,0.0313559
		c0.1274548,0.1179838,0.2546577,0.2362528,0.3832169,0.3530264c0.1186409,0.1077642,0.2390308,0.213603,0.3580971,0.3209066
		c0.0094337,0.0085039,0.0145206,0.0218306,0.0216274,0.032917c-0.1566544-0.0000029-0.3133068-0.0000038-0.4699593-0.0000057
		c-0.0790215-0.0607195-0.1485558-0.1321316-0.2211113-0.1999159c-0.0422001-0.0394239-0.0941887-0.0686045-0.1269035-0.118124
		C16.0316563,8.6698704,16.0316525,8.5298166,16.0316486,8.3897629z"/>
	<path fill="#F0C030" d="M14.9688787,5.1398335c0.0154839-0.000545,0.0286102,0.0033817,0.0406618,0.0145526
		c0.0812511,0.0753098,0.1627731,0.1503339,0.2447329,0.2248697c0.1296043,0.1178637,0.2595091,0.2353973,0.3897057,0.3526058
		c0.009306,0.0083771,0.0158024,0.0165434,0.0163221,0.0290041c0.0080843,0.0085516,0.0067682,0.0187845,0.002594,0.0277166
		c-0.0321007,0.068697-0.0650015,0.1370125-0.1025219,0.2029729c-0.0033522,0.0058932-0.0092726,0.009182-0.0157595,0.0111423
		c-0.0599356-0.0313878-0.101018-0.0854802-0.1497221-0.12959c-0.1290655-0.1168914-0.2592402-0.2326589-0.3863039-0.3518085
		c-0.0530405-0.049736-0.110899-0.0943537-0.1573811-0.150918C14.8904314,5.2935324,14.9296551,5.2166829,14.9688787,5.1398335z"/>
	<path fill="#F1C431" d="M14.8512068,5.3703809c0.0611448,0.0300245,0.1005812,0.0860648,0.1504545,0.1292176
		c0.1354303,0.1171799,0.2634344,0.2428951,0.3967476,0.3625946c0.0489893,0.0439868,0.099823,0.0855694,0.1413603,0.1370468
		c0.0102272,0.0102067,0.0073767,0.0220866,0.0015488,0.0320845c-0.0351105,0.0602107-0.0632524,0.1240387-0.09694,0.1849594
		c-0.0048246,0.0087252-0.011611,0.0162997-0.0230608,0.0165739c-0.0105238-0.0320301-0.0403395-0.0473108-0.0626364-0.0678749
		c-0.1861477-0.1716743-0.3737316-0.341795-0.5612555-0.5119729c-0.0207453-0.0188265-0.0438328-0.0350738-0.065835-0.0525169
		C14.7680597,5.5220208,14.8071632,5.4449172,14.8512068,5.3703809z"/>
	<path fill="#F2D736" d="M14.4209795,6.2002039c0.0872355,0.0791383,0.1743374,0.1584249,0.2617378,0.2373791
		c0.1353979,0.1223092,0.2710524,0.2443323,0.4064054,0.3666902c0.0102587,0.0092735,0.0208483,0.0164423,0.0350046,0.0170088
		c-0.0072031,0.0703244-0.0534191,0.1240807-0.0797205,0.1862984c-0.0087519,0.0207062-0.0153933,0.0447502-0.039464,0.0553231
		c-0.0376759-0.0124936-0.0625248-0.0434375-0.08957-0.068666c-0.1272507-0.1187024-0.2578697-0.2336888-0.3857784-0.3516555
		c-0.0644999-0.0594864-0.1277866-0.1206002-0.1965694-0.1753945c-0.0129271-0.0102973-0.0275221-0.0190864-0.0315666-0.0369368
		C14.3378248,6.3517637,14.3769016,6.2746849,14.4209795,6.2002039z"/>
	<path fill="#ED9224" d="M17.1487541,4.3504534c0.0000343-0.0900531,0.0000687-0.1801062,0.0001049-0.2701592
		c-0.0231762-0.0474153-0.0101299-0.0979421-0.0104408-0.1468115c-0.0002728-0.0425923-0.0118732-0.0708635-0.0456314-0.1013892
		c-0.1266003-0.1144764-0.2540302-0.2281182-0.3791428-0.3442831c-0.0497761-0.0462172-0.1004868-0.0915091-0.1504288-0.1375933
		c-0.0166187-0.0153353-0.0376358-0.0299194-0.0232391-0.0581033c0.1948986-0.0005472,0.3897991-0.0006433,0.5846901-0.0021505
		c0.0277939-0.0002148,0.034914,0.0112977,0.032814,0.0357599c-0.0011368,0.0132294-0.0001926,0.0266376-0.0001907,0.0399649
		c0.0001907,1.2644536,0.0002995,2.5289071,0.0007591,3.7933605c0.0000305,0.0844331-0.0115547,0.0722499,0.0751286,0.0727282
		c0.1316166,0.0007262,0.2632408-0.000031,0.3948593,0.0005627c0.0176945,0.0000801,0.0367279-0.0060353,0.0530624,0.0066185
		c-0.164217,0.0003729-0.3284397,0.0001349-0.4926472,0.0016623c-0.0314941,0.0002933-0.0401955-0.0122337-0.0391655-0.0413136
		c0.0014114-0.0397353-0.00033-0.0795841-0.000721-0.1193833c-0.0134106-0.0166907-0.0144138-0.0366564-0.0144024-0.056653
		c0.0000629-0.097785-0.001461-0.1955748,0.0005703-0.2933578c-0.0018711-0.1196136-0.0008659-0.2392325-0.0006657-0.3588457
		c0.0000401-0.024466-0.0038891-0.0503736,0.0145855-0.0713434c-0.0000134-0.1331844-0.0000286-0.2663684-0.0000553-0.3995519
		c0.0000057-0.1499438,0.0000248-0.2998881,0.0000305-0.4498315c0.0000248-0.1899858,0.000061-0.3799729,0.0000858-0.5699592
		C17.1487198,4.7037392,17.148737,4.5270963,17.1487541,4.3504534z"/>
	<path fill="#EEA228" d="M11.7602024,4.4492216c-0.0372849-0.064332-0.0900631-0.116971-0.1334009-0.1767969
		c-0.1356106-0.187211-0.2823277-0.3661692-0.4142275-0.5561731c-0.0092001-0.0132527-0.0213671-0.0244448-0.032155-0.0365996
		c0.1474562,0.049664,0.2879181,0.1168017,0.4326458,0.1733453c0.1293621,0.0505407,0.2570477,0.1053693,0.3854733,0.1583166
		C11.9190912,4.1572905,11.8396473,4.303256,11.7602024,4.4492216z"/>
	<path fill="#F2DC37" d="M14.3014584,6.4302506c0.0840464,0.0543203,0.1515112,0.1282377,0.2260771,0.1935759
		c0.14571,0.1276779,0.2878075,0.2594852,0.430933,0.3900957c0.0157518,0.0143752,0.0284538,0.032094,0.0425711,0.0482616
		c-0.0047026,0.0664668-0.037672,0.1193733-0.080411,0.167593c-0.0035095,0.0033593-0.0070171,0.0067182-0.0105267,0.010077
		C14.860364,7.223804,14.8331814,7.178545,14.7957802,7.1473846c-0.0940886-0.0783873-0.1808376-0.1655264-0.2715797-0.2480006
		c-0.0930939-0.0846095-0.1876392-0.1676211-0.2809992-0.2519417c-0.0132332-0.011951-0.0267591-0.0190973-0.0444736-0.0179696
		C14.2286196,6.560822,14.2606392,6.4932685,14.3014584,6.4302506z"/>
	<path fill="#ED9525" d="M16.5399761,3.292114c0.022871,0.0625498,0.0831032,0.0914447,0.1253338,0.136292
		c0.0450344,0.0478222,0.099556,0.0865715,0.1482811,0.1310916c0.0940056,0.0858922,0.1817913,0.17962,0.2822533,0.2569909
		c0.0520077,0.0400529,0.0560017,0.081389,0.0542564,0.1344297c-0.0014153,0.0430932-0.0008888,0.0862503-0.0012341,0.1293774
		c-0.0207329-0.0026674-0.0367222-0.0136824-0.0517235-0.0275755c-0.1313114-0.1216199-0.2621155-0.2438023-0.3945465-0.3641932
		c-0.1224899-0.1113544-0.2468624-0.2206399-0.3702412-0.3310175c-0.0199375-0.0178361-0.0386696-0.0368512-0.0423737-0.065392
		C16.3733139,3.2921164,16.456646,3.2921152,16.5399761,3.292114z"/>
	<path fill="#F4EF3C" d="M13.8901405,8.0676994c0.0000095-0.1229615-0.0003262-0.2459254,0.000474-0.3688817
		c0.0000982-0.0151119-0.0098438-0.0371895,0.0106936-0.043879c0.0133028-0.0043325,0.0271883,0.0090346,0.0383997,0.0194564
		c0.0921936,0.0856934,0.1844263,0.1713409,0.2768698,0.2567625c0.0352459,0.032568,0.0713673,0.0641928,0.1064663,0.0969148
		c0.0118532,0.0110502,0.0265656,0.0209694,0.0270271,0.0400467C14.1967611,8.0679789,14.0434504,8.0678387,13.8901405,8.0676994z"
		/>
	<path fill="#F3E63A" d="M16.0316582,8.8099232c0.0369053,0.0136003,0.0611954,0.0448494,0.0896339,0.0688543
		c0.0817051,0.0689659,0.1591797,0.142972,0.2375813,0.2157888c0.0092735,0.0086126,0.013979,0.0221443,0.0207996,0.0333967
		c-0.1063633,0.000555-0.2127342,0.0005198-0.3190804,0.0021152c-0.023859,0.0003586-0.0314579-0.0071306-0.0310497-0.0310249
		C16.0311909,9.0026932,16.0311031,8.9063025,16.0316582,8.8099232z"/>
	<path fill="#F1C732" d="M10.3494091,8.1199627c0.0233641,0.0226688,0.029294,0.05165,0.0298967,0.0825615
		C10.3629189,8.17733,10.3579454,8.1480007,10.3494091,8.1199627z"/>
	<path fill="#292929" d="M14.9206285,7.2297769c0.026803-0.0558653,0.053607-0.1117301,0.080411-0.1675944
		c0.0464144-0.0775476,0.0839376-0.1596389,0.1230841-0.2409019c0.04881-0.0884948,0.0952244-0.178194,0.1361542-0.2706509
		c0.0584097-0.1035285,0.111515-0.2097449,0.1610394-0.3177743c0.0438013-0.0756807,0.0830574-0.1536684,0.1184521-0.2336144
		c0.0447502-0.077147,0.0849247-0.1566076,0.120532-0.2383761c0.0520878-0.0909467,0.0986605-0.1846943,0.1421614-0.2800007
		c0.0462742-0.081852,0.0890121-0.165493,0.1273165-0.251379c0.0232992-0.0437059,0.0465813-0.0874186,0.0699091-0.1311083
		c0.0046492-0.008708,0.0093431-0.0198078,0.0210447-0.0171757c0.0130348,0.0029325,0.0089417,0.0158587,0.009058,0.0249538
		c0.000885,0.0680132,0.0013065,0.1360326,0.0018749,0.2040501c0.0119762,0.0152631,0.01404,0.033319,0.0140343,0.0517373
		c-0.0000362,0.1258698,0.0020695,0.2517457-0.000948,0.3776069c0.0027122,0.0964065,0.0010815,0.192831,0.00103,0.289247
		c-0.0000134,0.0213423,0.001894,0.0436745-0.0141201,0.0615945c0.0000019,0.113215,0.0000038,0.2264309,0.0000076,0.3396459
		c-0.0000038,0.0833163-0.0000057,0.1666322-0.0000095,0.2499485c0,0.0766582,0,0.153316,0,0.2299743
		c-0.0005646,0.0946407-0.0011768,0.189281-0.0016518,0.2839212c-0.0001011,0.0198684,0.0039654,0.0394025-0.0282097,0.0392518
		C15.6414118,7.231442,15.2810192,7.2307429,14.9206285,7.2297769z"/>
	<path fill="#EFB42D" d="M16.0316563,5.7401414c0.0000019-0.143312,0.0000057-0.2866244,0.0000095-0.4299364
		c0.0330925,0.009769,0.0554714,0.0358944,0.0792637,0.0573597c0.1328182,0.119833,0.2630329,0.2425447,0.3950424,0.3632832
		c0.1844769,0.1687279,0.3691902,0.3372135,0.5553188,0.5041103c0.026638,0.0238862,0.0530777,0.05024,0.0873718,0.0647693
		c-0.0000134,0.1433039-0.0000172,0.2866116-0.000021,0.4299202c-0.0466156,0.0033622-0.0708561-0.0343714-0.0980911-0.05972
		c-0.165308-0.1538634-0.3335781-0.3044925-0.5007286-0.4562812c-0.1646538-0.1495237-0.3259869-0.3027849-0.4949131-0.4475942
		C16.0459423,5.7583671,16.0392933,5.7488747,16.0316563,5.7401414z"/>
	<path fill="#F2D736" d="M15.2104082,7.2413192c0.063385-0.0000086,0.12677-0.0000176,0.190155-0.0000272
		c0.0751247,0.0628548,0.1456785,0.1308212,0.2183781,0.1963687c0.1382132,0.1246128,0.2760067,0.2497182,0.4133654,0.3752594
		c0.1263428,0.1154737,0.2528381,0.230804,0.3794746,0.3459487c0.1290684,0.1173534,0.2579479,0.2349386,0.3876514,0.3516073
		c0.087698,0.0788851,0.1762333,0.1570349,0.2608624,0.2391968c0.0285416,0.02771,0.06493,0.0463448,0.0882359,0.0794783
		c-0.000021,0.0568562-0.000042,0.1137133-0.0000744,0.1705685c-0.0249901-0.0063076-0.0441017-0.0223122-0.062315-0.0390882
		c-0.1317501-0.1213427-0.2628155-0.243433-0.3949242-0.3643827c-0.1454887-0.1331968-0.2918777-0.2654057-0.4378395-0.3980827
		c-0.1471939-0.1337938-0.2943478-0.2676344-0.4415178-0.4014535c-0.147171-0.133821-0.2936687-0.2683907-0.4418583-0.4010739
		C15.3147535,7.3461714,15.2555485,7.3011208,15.2104082,7.2413192z"/>
	<path fill="#F0BA2E" d="M16.0316563,5.7401414c0.0282269,0.0076485,0.0487137,0.0280948,0.068903,0.0465245
		c0.1358089,0.1239634,0.2697926,0.2499237,0.4054184,0.3740902c0.1843987,0.1688151,0.3691711,0.3372326,0.5553036,0.504128
		c0.0266361,0.0238838,0.0530624,0.0502563,0.0873699,0.0647678c-0.0000286,0.1167545-0.0000458,0.2335138-0.0000744,0.3502722
		c-0.0651531-0.0202332-0.1025658-0.0769739-0.1501713-0.1187487c-0.1804161-0.1583138-0.356987-0.3210201-0.5344543-0.4826765
		c-0.0906315-0.0825567-0.1791077-0.1675005-0.2705078-0.2491875c-0.0529594-0.0473342-0.1021461-0.0992908-0.1617813-0.1389208
		C16.0316582,5.9736409,16.0316582,5.8568912,16.0316563,5.7401414z"/>
	<path fill="#F2D335" d="M15.5699234,7.2413263c0.1349106-0.000423,0.2698221-0.0009341,0.4047318-0.0011072
		c0.0111094-0.0000138,0.0223894-0.0020328,0.0320473,0.0086007c0.1618557,0.1781898,0.3502293,0.3279166,0.5269394,0.4901772
		c0.0843525,0.0774555,0.1677189,0.1560154,0.2532024,0.2322001c0.1162128,0.1035738,0.2240429,0.2166986,0.3499317,0.3092031
		c0.0139961,0.0102854,0.0128727,0.0219355,0.0128536,0.0346603c-0.0001888,0.1215754-0.0007076,0.2431507-0.0011311,0.3647261
		c-0.0196037,0.0129328-0.0312347-0.0028811-0.0428257-0.0133038c-0.0705147-0.0634174-0.1409607-0.1269274-0.2110615-0.1907921
		c-0.1389694-0.1266031-0.2786903-0.252389-0.4173527-0.379302c-0.1264172-0.115705-0.2532253-0.2310019-0.3799019-0.346417
		c-0.1278877-0.1165209-0.2546215-0.2343507-0.38482-0.3483291c-0.042573-0.0372701-0.0804739-0.0795722-0.1253958-0.1144571
		C15.5740967,7.2770548,15.5565538,7.2636533,15.5699234,7.2413263z"/>
	<path fill="#F2D736" d="M15.5699234,7.2413263c0.0016432,0.0227866,0.0200281,0.0340066,0.0343342,0.0470791
		c0.105319,0.0962343,0.2109699,0.1921115,0.3170013,0.2875605c0.1614742,0.1453567,0.32374,0.289835,0.4848824,0.4355574
		c0.0898781,0.0812788,0.1778107,0.1647053,0.2672443,0.2464819c0.1506157,0.1377268,0.3016701,0.2749758,0.4528637,0.4120674
		c0.0056877,0.0051537,0.0147724,0.0065603,0.0222607,0.0097141c0.0000076,0.0497923,0.0000248,0.0995855,0.0000343,0.1493711
		c-0.0706921-0.0251942-0.1107693-0.0890894-0.1653271-0.1341953c-0.0971165-0.0802879-0.1855793-0.1709557-0.2790928-0.2557001
		c-0.1622581-0.1470413-0.3258762-0.2925816-0.4883919-0.4393406c-0.0837822-0.0756588-0.166048-0.1529927-0.2496443-0.2288589
		c-0.1732426-0.1572251-0.3469057-0.3139873-0.5204315-0.4709001c-0.018672-0.0168843-0.0357523-0.0349102-0.0451002-0.0588818
		C15.457016,7.2413039,15.5134706,7.2413154,15.5699234,7.2413263z"/>
</g>
</svg>
