<?xml version="1.0" encoding="utf-8"?>
<!-- Generator: Adobe Illustrator 24.1.1, SVG Export Plug-In . SVG Version: 6.00 Build 0)  -->
<svg version="1.1" id="Слой_1" xmlns="http://www.w3.org/2000/svg" xmlns:xlink="http://www.w3.org/1999/xlink" x="0px" y="0px"
	 viewBox="0 0 32 13" enable-background="new 0 0 32 13" xml:space="preserve" width="32px" height="13px">
<g>
	<path fill="#292929" d="M20.0782433,11.4087267c-0.0990372,0.0714064-0.1977806,0.1432266-0.2971725,0.2141333
		c-0.2414665,0.1722593-0.4957581,0.3231506-0.7594833,0.4588156c-0.2119751,0.1090441-0.4291306,0.2059174-0.6518936,0.2905207
		c-0.0106373,0.0040407-0.0199566,0.011549-0.0298882,0.0174427c-0.0159283,0.0120068-0.0354137,0.0135326-0.0538082,0.0182743
		c-0.0117016-0.002883-0.0179119,0.0066175-0.0261288,0.011591c-0.0328999,0.0288811-0.07827,0.0204573-0.1148319,0.0383797
		c-0.0292149,0.0075722-0.0587845,0.0141449-0.0849686,0.0302362c-0.0550709,0.0131397-0.105341,0.0420456-0.1621799,0.0493784
		l0.0011635-0.0007782c-0.0219002,0.0127239-0.0473843,0.0134869-0.0707836,0.0212049l0.0010548-0.0006123
		c-0.0225582,0.0110912-0.0474129,0.0140982-0.0713711,0.0202608l0.0011578-0.0007591
		c-0.1622143,0.0485296-0.3275166,0.0837965-0.4932213,0.1180067c-0.09729,0.0200872-0.1955471,0.0351171-0.2930088,0.0538244
		c-0.0654278,0.0125589-0.1331615,0.0230703-0.2007599,0.0269499c-0.0393066,0.0022554-0.0784111,0.0081482-0.1174965,0.0116959
		c-0.1132126,0.0102749-0.2257118,0.026247-0.339901,0.0170603c-0.0195465-0.0015726-0.0399342-0.0037022-0.059267,0.003809
		c-0.1703014,0.0000029-0.3406057,0.0000048-0.5109081,0.0000076c-0.0478563-0.0065069-0.0957623-0.0080957-0.1433849,0.0011873
		c-0.0133543,0.0026045-0.0264053,0.0035715-0.0395622,0.0014515c-0.1204443-0.0194178-0.2431173-0.0179234-0.3634205-0.0363455
		c-0.2104216-0.032218-0.4205179-0.0671473-0.6283283-0.1139069c-0.1103897-0.0248384-0.2209873-0.0492201-0.3289471-0.0837622
		l0.001152,0.0007696c-0.0239611-0.0061569-0.0488272-0.0091257-0.0713701-0.0202742l0.0010509,0.0006256
		c-0.0234089-0.0076914-0.0488844-0.008481-0.0707922-0.0211878l0.0011539,0.0007753
		c-0.056838-0.0073309-0.1071005-0.0362482-0.1621723-0.0493803c-0.0299091-0.0096579-0.0598183-0.0193148-0.0897264-0.0289726
		c-0.0333176-0.0225735-0.0793362-0.0098953-0.1100693-0.0396442c-0.0100737-0.0037689-0.0229311,0.000679-0.0305462-0.0103493
		c-0.0157518-0.0083055-0.0349588-0.0078707-0.0493898-0.019516c-0.1216364-0.0400982-0.2382784-0.0927019-0.3554363-0.1437635
		c-0.0686264-0.0299101-0.1350336-0.0649109-0.2024393-0.0976219c-0.0156212-0.0023346-0.029212-0.0093737-0.0420542-0.0181475
		c-0.0140438-0.0068483-0.0280886-0.0136957-0.0421324-0.0205441c-0.021615-0.0053701-0.0426302-0.0119171-0.0579557-0.0295992
		c-0.2062674-0.1081915-0.4073582-0.2253819-0.6022701-0.3527927c-0.1513939-0.0989628-0.2998629-0.2023125-0.4393873-0.3178453
		c-0.0126638-0.0098534-0.0238066-0.0216885-0.0382051-0.0292778c-0.238965-0.1884708-0.4610348-0.3957195-0.6688194-0.6174812
		c-0.1732712-0.1849289-0.3380527-0.3773041-0.4885092-0.5822611c-0.1149454-0.1565847-0.2231083-0.317421-0.3247948-0.4822693
		c-0.0713387-0.1156521-0.134861-0.2365522-0.199935-0.3562403c-0.0810843-0.1491365-0.1524801-0.302578-0.2177973-0.4586506
		c-0.0652885-0.156002-0.1230278-0.315052-0.1778231-0.4753838c-0.0625515-0.1830215-0.1131077-0.3692932-0.1587448-0.556385
		C9.6131783,7.7254663,9.591754,7.5962987,9.5704832,7.4676571c-0.0181007-0.1094694-0.026412-0.2202692-0.04848-0.3291645
		C9.5169888,7.1137524,9.5249214,7.0859251,9.5187159,7.0597305c-0.0082979-0.0201187,0.0024624-0.0425239-0.007493-0.0624433
		C9.5104141,6.9814439,9.5096073,6.9656005,9.5087996,6.9497571C9.5003281,6.9255419,9.5109873,6.8994288,9.5014133,6.8753228
		c-0.0008945-0.0251832-0.00179-0.0503659-0.0026855-0.0755491C9.4893742,6.7622848,9.502223,6.7233624,9.4913807,6.6859694
		C9.4913778,6.5253325,9.491375,6.3646946,9.4913721,6.2040582c0.0108576-0.0373964-0.0020008-0.0763259,0.0073557-0.1138196
		c0.0008945-0.0251842,0.0017881-0.0503678,0.0026817-0.0755525c0.0095816-0.0241041-0.0010834-0.0502186,0.00739-0.0744328
		c0.0008078-0.0158434,0.0016146-0.0316877,0.0024223-0.0475316c0.0099564-0.0199184-0.0008039-0.0423222,0.007493-0.0624399
		c0.0105972-0.1013184,0.0157509-0.2035775,0.0330629-0.3037353C9.5780201,5.374723,9.6043758,5.222887,9.6394577,5.0724621
		c0.0433931-0.1860633,0.0920706-0.3701587,0.150568-0.5520725c0.0552902-0.1719408,0.115839-0.3421097,0.1872883-0.5074911
		c0.0683279-0.1581569,0.1393471-0.3153195,0.2224102-0.4673131c0.1216316-0.2225709,0.2472105-0.4423995,0.3915415-0.6508269
		c0.1254692-0.1811891,0.2592239-0.3557844,0.4036036-0.5232801c0.1590872-0.1845579,0.3255367-0.3612683,0.5019455-0.528491
		c0.1397762-0.132498,0.2844362-0.2601054,0.4406519-0.3736675c0.0118885-0.0086424,0.0219622-0.0197811,0.0328779-0.0297598
		c0.0147743-0.0071297,0.025692-0.019443,0.0387726-0.02885c0.1554995-0.1191828,0.3156233-0.2323108,0.4828444-0.3338957
		c0.4818897-0.2927428,0.9901257-0.5290106,1.5293932-0.6963903c0.704113-0.2185449,1.425128-0.3197997,2.1616573-0.296863
		c1.2844067,0.0399987,2.463541,0.4123933,3.5290871,1.1350355c0.092783,0.0629231,0.183712,0.1285771,0.2755013,0.1929629
		c0.0161915,0.0074184,0.0290756,0.0191364,0.0412807,0.031737c0.0123749,0.0179681,0.0289612,0.0304664,0.0493717,0.0379961
		c0.015295,0.0086337,0.0292091,0.0189757,0.0403976,0.0326847c0.1038551,0.0950247,0.2144623,0.1821816,0.3183975,0.2773156
		c0.1364403,0.1248844,0.2672482,0.2553251,0.3937111,0.3898041c0.151989,0.161623,0.292675,0.3332298,0.4254627,0.5112448
		c0.2456646,0.3293378,0.4593639,0.6780386,0.6366978,1.0486689c0.2010098,0.4201102,0.3561668,0.8561563,0.4577885,1.3113289
		c0.0527363,0.2362142,0.0955181,0.4736371,0.1192474,0.7144938c0.0021,0.0213203,0.007473,0.0423183,0.0113258,0.0634665
		c0.008337,0.0200648-0.0025196,0.0424476,0.0075226,0.0623064c0.0007973,0.0158877,0.0015945,0.031776,0.0023937,0.0476637
		c0.0084782,0.0242019-0.0021839,0.0503016,0.0073738,0.0743961c0.0008945,0.0251946,0.0017853,0.0503902,0.0026817,0.0755849
		c0.009409,0.0374246-0.0035114,0.0762963,0.0073643,0.1136265c0.0000057,0.1607418,0.0000095,0.3214836,0.0000134,0.4822254
		c-0.0108986,0.0373383,0.0020332,0.0762234-0.0073776,0.113658c-0.0008907,0.0251918-0.0017796,0.0503836-0.0026684,0.0755754
		c-0.0095749,0.0241013,0.0010815,0.0502081-0.0073776,0.07442c-0.0008011,0.0158825-0.0016022,0.0317645-0.0023994,0.0476475
		c-0.0100479,0.0198593,0.0008106,0.042244-0.0075264,0.0623093c-0.0407429,0.3333039-0.093708,0.6642289-0.1812115,0.9891162
		c-0.1202984,0.4466419-0.2850895,0.8757334-0.5000343,1.2853508c-0.1864223,0.3552589-0.4046822,0.6894836-0.6532402,1.0048866
		c-0.2072811,0.2630215-0.4371624,0.5042639-0.6801739,0.7333374c-0.1119328,0.1055126-0.2317333,0.2026777-0.3479671,0.303627
		C20.1074619,11.3897448,20.093544,11.4000902,20.0782433,11.4087267z"/>
	<path fill="#FEFEFE" d="M16.255455,12.8081608c0.1175041-0.0091257,0.2350807-0.0174007,0.352499-0.0275326
		c0.3765068-0.0324888,0.7470264-0.0991535,1.1121273-0.1964159c0.0127602-0.0033989,0.0260048-0.0049686,0.0390263-0.0073957
		c-0.02981,0.0279274-0.0702076,0.0248909-0.1057796,0.0357084c-0.1500473,0.0456276-0.3052635,0.0699835-0.4574757,0.1068335
		c-0.059824,0.0144835-0.1239891,0.0178947-0.1854591,0.0331755c-0.0155087,0.0038557-0.0204296,0.013073-0.0303974,0.0196466
		c-0.0107841,0.0071087-0.0240612,0.020793-0.0354176,0.0119505c-0.0477734-0.0372028-0.0829792,0.0006161-0.1261692,0.0102768
		c-0.0385933,0.0086317-0.0857372,0.0259972-0.1186924,0.0187979c-0.0343342-0.0075026-0.0543938-0.0140171-0.0777702,0.0130777
		c-0.0024624,0.0028563-0.010685,0.0040874-0.0141602,0.0022192c-0.0462494-0.0248737-0.0867386-0.0210171-0.1330166,0.0079603
		c-0.0220222,0.0137892-0.0580788,0.0024309-0.0880184-0.0172815C16.3482475,12.7938261,16.2993546,12.8146057,16.255455,12.8081608
		z"/>
	<path fill="#FEFEFE" d="M14.2409039,12.5767927c0.169796,0.0386457,0.3382807,0.0826635,0.509716,0.1145773
		c0.3125982,0.0581884,0.6271486,0.0973635,0.9449282,0.1101418c0.0163774,0.000658,0.0326309,0.0043583,0.0489712,0.006649
		c-0.0543346,0.0060577-0.1095304-0.0087767-0.1629953,0.0255346c-0.0255051,0.0163689-0.0719414,0.0190048-0.0986891-0.0191345
		c-0.0139275-0.0198603-0.0288916-0.0193481-0.0451536-0.0027485c-0.0034199,0.0034924-0.0078392,0.0060825-0.0120144,0.0087481
		c-0.0401773,0.0256271-0.0675945-0.0273619-0.0879965-0.0223198c-0.0307436,0.0075951-0.0542116,0.036725-0.0830669-0.0013237
		c-0.0049067-0.0064697-0.0129671-0.0187483-0.0177832-0.0133791c-0.0500488,0.0557823-0.082737-0.0275993-0.1269426-0.0151453
		c-0.0031309,0.0008812-0.0099726-0.0079603-0.011919-0.0068302c-0.0867586,0.0504408-0.1521187-0.0315361-0.231019-0.0394878
		c-0.1960316-0.0197582-0.3869038-0.0749035-0.5782032-0.1232395
		C14.2716904,12.5945282,14.2521429,12.5942717,14.2409039,12.5767927z"/>
	<path fill="#FEFEFE" d="M18.1450367,12.4578838c0.0366268-0.0177279,0.0746498-0.0312834,0.1148319-0.0383797
		c0.0038452,0.0334606-0.0118866,0.0491571-0.0426426,0.0362215C18.191,12.4446945,18.1690693,12.4643755,18.1450367,12.4578838z"/>
	<path fill="#FEFEFE" d="M13.7401304,12.4195042c0.0387383,0.0075293,0.0766687,0.0173006,0.1100693,0.0396442
		c-0.0255117-0.0001793-0.0492153-0.0116425-0.076993-0.0018311C13.7431326,12.4679422,13.7384443,12.4435692,13.7401304,12.4195042
		z"/>
	<path fill="#FEFEFE" d="M13.9399261,12.4881201c0.0561399,0.0096159,0.1093826,0.0287399,0.1621656,0.049386
		C14.0390682,12.5505037,13.9936161,12.5057898,13.9399261,12.4881201z"/>
	<path fill="#FEFEFE" d="M17.8978882,12.5374985c0.0527954-0.0206127,0.1060352-0.0397673,0.1621799-0.0493784
		C18.0063763,12.5057898,17.9609241,12.5505142,17.8978882,12.5374985z"/>
	<path fill="#FEFEFE" d="M12.9601765,12.0799627c0.0230846,0.0024958,0.0426254,0.0119247,0.0579557,0.0296001
		C12.986865,12.123085,12.9575176,12.1328516,12.9601765,12.0799627z"/>
	<path fill="#FCFCFC" d="M9.4987278,6.0902386C9.4993382,6.1283612,9.5012274,6.1665668,9.491374,6.2040358
		C9.4931974,6.1660776,9.4817247,6.1272383,9.4987278,6.0902386z"/>
	<path fill="#FCFCFC" d="M22.5086174,6.2038774c-0.0097618-0.0374022-0.0080338-0.0755491-0.0073643-0.1136265
		C22.5183277,6.1271791,22.5067558,6.1659632,22.5086174,6.2038774z"/>
	<path fill="#FCFCFC" d="M9.4913807,6.6859694C9.5011978,6.7234282,9.499342,6.7616415,9.4987278,6.7997737
		C9.4817305,6.7627783,9.4931879,6.7239451,9.4913807,6.6859694z"/>
	<path fill="#FCFCFC" d="M22.5012531,6.7997608c-0.0006638-0.0380754-0.0024071-0.0762205,0.0073776-0.1136379
		C22.5067406,6.7240257,22.5183334,6.7628241,22.5012531,6.7997608z"/>
	<path fill="#FEFEFE" d="M13.6601944,12.3896389c0.0188065,0.0005789,0.0362034,0.0047197,0.0493898,0.019516
		C13.6871872,12.4176636,13.6702623,12.4123287,13.6601944,12.3896389z"/>
	<path fill="#FEFEFE" d="M18.2859974,12.4079132c0.016552-0.0101633,0.03368-0.0186367,0.0538082-0.0182743
		C18.3288269,12.4162159,18.3084278,12.4150543,18.2859974,12.4079132z"/>
	<path fill="#FEFEFE" d="M14.1009445,12.536726c0.0247612,0.003171,0.0488443,0.0085993,0.0707874,0.0211897
		C14.1452961,12.5603485,14.1204033,12.5576153,14.1009445,12.536726z"/>
	<path fill="#FEFEFE" d="M17.8282681,12.5579252c0.0219479-0.0125599,0.0460129-0.0180502,0.0707817-0.0212002
		C17.8796024,12.55762,17.8547039,12.5603361,17.8282681,12.5579252z"/>
	<path fill="#FEFEFE" d="M14.1706858,12.5572882c0.0250082,0.0024624,0.04914,0.0080061,0.0713644,0.0202799
		C14.2154036,12.5808792,14.1907244,12.5772505,14.1706858,12.5572882z"/>
	<path fill="#FEFEFE" d="M17.7579517,12.5775738c0.0222969-0.0120087,0.04632-0.0179386,0.0713711-0.0202579
		C17.8092747,12.5772467,17.7845993,12.5808821,17.7579517,12.5775738z"/>
	<path fill="#FCFCFC" d="M9.5087996,5.9402533c0.0008659,0.0251241,0.0025692,0.0503316-0.0073843,0.0744081
		C9.5030289,5.9897919,9.4924145,5.9636827,9.5087996,5.9402533z"/>
	<path fill="#FCFCFC" d="M22.4985752,6.0146661c-0.0098858-0.0240626-0.0082207-0.0492702-0.0073776-0.0743961
		C22.5076065,5.9636855,22.4969788,5.9897819,22.4985752,6.0146661z"/>
	<path fill="#FCFCFC" d="M22.4912071,6.9497561c-0.000864-0.0251193-0.0025177-0.0503163,0.0073719-0.0743952
		C22.4969749,6.9002271,22.507597,6.9263306,22.4912071,6.9497561z"/>
	<path fill="#FCFCFC" d="M9.5014133,6.8753228c0.0099564,0.0240679,0.0082483,0.0492935,0.0073862,0.0744343
		C9.4924154,6.9263268,9.503027,6.9002185,9.5014133,6.8753228z"/>
	<path fill="#FEFEFE" d="M13.0602646,12.130106c0.0173349-0.0016365,0.0297251,0.0081863,0.0420542,0.0181475
		C13.0799446,12.1615639,13.0699558,12.1461773,13.0602646,12.130106z"/>
	<path fill="#FCFCFC" d="M20.0288811,1.4432964c-0.0137615-0.0105791-0.0275192-0.021158-0.0412807-0.0317369
		C20.0098877,1.4110495,20.0221024,1.4236381,20.0288811,1.4432964z"/>
	<path fill="#FCFCFC" d="M9.5112228,6.9972873c0.0087252,0.0200672,0.0087996,0.0411725,0.007493,0.0624433
		C9.5033712,7.0404572,9.5125074,7.0182471,9.5112228,6.9972873z"/>
	<path fill="#FCFCFC" d="M9.5187159,5.8302817c0.0013428,0.0212708,0.0012169,0.0423646-0.0074949,0.0624337
		C9.5125084,5.8717628,9.5033703,5.8495536,9.5187159,5.8302817z"/>
	<path fill="#FCFCFC" d="M12.0091171,1.4107101c-0.0076437,0.0167118-0.0204554,0.0264788-0.0387726,0.02885
		C11.9794779,1.4248489,11.989747,1.4116652,12.0091171,1.4107101z"/>
	<path fill="#FCFCFC" d="M22.4888039,5.8926063c-0.0086651-0.0200257-0.008852-0.0410757-0.0075226-0.0623074
		C22.4966259,5.8495188,22.4874935,5.8716927,22.4888039,5.8926063z"/>
	<path fill="#FCFCFC" d="M20.1186504,1.5139773c-0.0134659-0.0108949-0.0269318-0.0217898-0.0403976-0.0326847
		C20.1002979,1.4815862,20.1126995,1.493796,20.1186504,1.5139773z"/>
	<path fill="#FCFCFC" d="M20.0782433,11.4087267c0.0134697-0.0108976,0.0269394-0.0217972,0.040411-0.0326958
		C20.1126995,11.3962173,20.1002903,11.4084282,20.0782433,11.4087267z"/>
	<path fill="#FCFCFC" d="M11.8803139,11.3800468c0.0186205,0.00208,0.0303993,0.0130873,0.0382051,0.0292778
		C11.8993282,11.4079876,11.8891325,11.3949156,11.8803139,11.3800468z"/>
	<path fill="#FCFCFC" d="M22.4812813,7.0597129c-0.0013237-0.0212293-0.0011501-0.0422778,0.0075264-0.0623035
		C22.4874916,7.0183172,22.4966297,7.040494,22.4812813,7.0597129z"/>
	<path fill="#818181" d="M12.2110147,2.0277936c0.1388855-0.1181817,0.2845583-0.2268234,0.4372663-0.3269833
		c0.2167044-0.142134,0.4393454-0.2741706,0.6703415-0.390671c0.2386055-0.120337,0.4857254-0.2221236,0.7387342-0.3097076
		c0.2823429-0.0977383,0.5716591-0.1682301,0.8639021-0.2265966c0.1619625-0.0323471,0.3269835-0.0469842,0.4914064-0.0645566
		c0.3320742-0.0354902,0.6649179-0.0158079,0.9972734-0.0155476c0.1343365,0.0001053,0.2691841,0.0274487,0.4036789,0.0416474
		c0.2115288,0.0223314,0.4178104,0.0685672,0.6232853,0.1176856c0.3377304,0.0807328,0.6650162,0.1940072,0.9827328,0.3354343
		c0.3282871,0.1461321,0.6397133,0.321702,0.9402599,0.5179727c0.1975441,0.1290059,0.3802986,0.276433,0.5597534,0.4289831
		c0.1575527,0.1339316,0.3042221,0.2791581,0.445425,0.4291894c0.202179,0.2148187,0.3881226,0.4435549,0.5530701,0.6890595
		c0.156744,0.233295,0.3009815,0.4742258,0.4229736,0.7268262c0.1312084,0.2716782,0.2371521,0.553838,0.3249493,0.8435218
		c0.0721226,0.2379546,0.125309,0.4794488,0.1688213,0.7231898c0.0240097,0.1345057,0.0290375,0.2722988,0.0458565,0.4082108
		c0.0299301,0.2418699,0.0193081,0.4847226,0.0174026,0.7271008c-0.0013103,0.1667418-0.02701,0.3323402-0.0435562,0.4983616
		c-0.0227089,0.2278123-0.070507,0.450429-0.1273556,0.6706734c-0.0858231,0.3324833-0.2012291,0.6550646-0.3449383,0.9678812
		c-0.1175594,0.2558947-0.2567139,0.4994431-0.4093914,0.7346802c-0.1269627,0.1956215-0.2663097,0.3829842-0.4197235,0.5602427
		c-0.1548309,0.1788979-0.3195477,0.3476429-0.4889679,0.5119114c-0.0926781,0.0898571-0.1946163,0.1701508-0.29212,0.2550516
		c-0.0294151,0.0256166-0.0478439,0.0287657-0.07728-0.0085011c-0.2424088-0.3069029-0.4876232-0.6115961-0.7333908-0.9158258
		c-0.0202179-0.0250254-0.0118809-0.0352364,0.0077209-0.0503025c0.1746349-0.1342344,0.3321819-0.2874947,0.4824448-0.4475098
		c0.2617359-0.2787256,0.4808979-0.5885201,0.6663036-0.9234428c0.1775398-0.3207169,0.3093605-0.6589198,0.4042282-1.0116482
		c0.0672169-0.2499132,0.1092987-0.5043817,0.1316071-0.7630911c0.0176373-0.2045331,0.0210609-0.4089932,0.0126381-0.6127934
		c-0.0092239-0.2230134-0.037632-0.4448609-0.0817852-0.6648965c-0.0475521-0.2369642-0.1144981-0.4676442-0.1973324-0.6938496
		c-0.0893784-0.2440667-0.2017441-0.4774799-0.3341732-0.7015729c-0.1203938-0.2037232-0.2511177-0.4003839-0.4024391-0.5818913
		c-0.1458511-0.1749444-0.3023605-0.3403935-0.4712029-0.4943261c-0.1489773-0.1358218-0.3031845-0.2643769-0.4695549-0.3780465
		c-0.1897278-0.1296268-0.3859062-0.2494528-0.591608-0.3514044c-0.4072437-0.2018383-0.8348198-0.3418257-1.2827377-0.4259458
		c-0.3806667-0.0714903-0.7637024-0.0729878-1.1467628-0.0613794c-0.2831602,0.0085813-0.5626307,0.0616711-0.8381367,0.1308659
		c-0.3320704,0.0834016-0.6521406,0.2006718-0.9565916,0.3559016c-0.3115215,0.1588349-0.6097355,0.340661-0.8782673,0.5672381
		c-0.0061283,0.005172-0.0140438,0.0082293-0.0211258,0.0122726c-0.0601768-0.0444746-0.1092205-0.1008632-0.1587076-0.155772
		c-0.0801897-0.0889735-0.1642437-0.1742094-0.2455988-0.2620206c-0.1129913-0.1219568-0.2251911-0.2446938-0.3414898-0.3635752
		C12.2339869,2.064642,12.2187958,2.0486321,12.2110147,2.0277936z"/>
	<path fill="#D600C8" d="M12.1207743,3.8217964c-0.0779877,0.12888-0.1584873,0.2561154-0.232235,0.3877087
		c-0.0763798,0.1362882-0.1413307,0.2774363-0.2034245,0.4202957c-0.0032282,0.0074277-0.0079231,0.0142169-0.0119352,0.0213032
		c-0.0144634,0.0151782-0.0285034,0.0127397-0.0431337-0.0002251c-0.0151024-0.013382-0.0266819-0.029582-0.0385723-0.0455823
		c-0.2211113-0.297524-0.4471903-0.5913076-0.6690102-0.8882992c-0.0159035-0.0212929-0.0318174-0.0425708-0.0494471-0.0625837
		c-0.0104342-0.0118449-0.0250206-0.0239468-0.0123816-0.0430491c0.153656-0.2728686,0.331811-0.5288641,0.5307674-0.7705336
		c0.0316954-0.0031943,0.0413313,0.0237408,0.0556965,0.0424376c0.1629324,0.2120516,0.3227415,0.4264672,0.4834385,0.6402099
		c0.0568867,0.0756636,0.1157856,0.1498063,0.1718826,0.2260809C12.1184282,3.7713273,12.134943,3.792551,12.1207743,3.8217964z"/>
	<path fill="#D600C8" d="M17.6682453,6.0897241c0.0174026,0.081738,0.0237274,0.1645031,0.0230083,0.2479219
		c0.0077934,0.1272416,0.0013962,0.2546139,0.0035381,0.3817592c-0.0026379,0.041328-0.0248852,0.027009-0.0422516,0.0127215
		c-0.0333595-0.0274401-0.0648232-0.0573449-0.0963879-0.0867281c-0.1314754-0.1223836-0.2648926-0.2426453-0.3975716-0.3636808
		c-0.1326542-0.1210098-0.2649269-0.2424641-0.3983345-0.3626709c-0.0889187-0.080121-0.1770515-0.1611962-0.2652836-0.2421207
		c-0.1421204-0.130352-0.2832451-0.2617931-0.4278507-0.3894157c-0.0274849-0.0242562-0.0534458-0.0501537-0.0778322-0.0774641
		c-0.0139236-0.0155954-0.0259447-0.0331545,0.0006056-0.0491714c0.088871-0.0355487,0.1829185-0.0488248,0.2768803-0.0575838
		c0.1074886-0.0100193,0.2157001-0.0150433,0.3236179-0.001328c0.0295391,0.0011787,0.0503025,0.0150089,0.0716171,0.0365367
		c0.1029129,0.1039457,0.2145023,0.198699,0.3224335,0.2973456c0.0846291,0.0773506,0.1696243,0.1543403,0.2538605,0.2320743
		c0.1306763,0.1205907,0.2634926,0.2388353,0.3936214,0.3600206C17.6508808,6.0456009,17.6664696,6.0630131,17.6682453,6.0897241z"
		/>
	<path fill="#9B00AE" d="M10.1402359,7.1098881c-0.0216379-0.0395174-0.014184-0.0846248-0.0179243-0.1259513
		c-0.0136328-0.1506071-0.0304127-0.3015661-0.0203152-0.4534125c0.0263767,0.0055676,0.0219955,0.0287914,0.0195322,0.0438142
		c-0.0162907,0.0993204,0.0302076,0.1709375,0.0879564,0.2470403c0.3654814,0.4816418,0.7297974,0.9641848,1.0933352,1.4473076
		c0.2864161,0.3806334,0.5732746,0.7609425,0.8607264,1.1407938c0.2080431,0.2749166,0.4140997,0.5513401,0.6240358,0.8248253
		c0.0060844,0.0079279,0.0128632,0.0153847,0.0141487,0.0258942c-0.0400839,0.0598736-0.0869884,0.1143608-0.1335669,0.1691065
		c-0.0327787,0.0138063-0.0398703-0.0170164-0.0520144-0.0329638c-0.1058979-0.1390657-0.209837-0.2796183-0.3153324-0.418992
		c-0.4310026-0.569416-0.8603649-1.1400709-1.2906485-1.7100296c-0.2828369-0.3746486-0.5651741-0.7496753-0.8487177-1.1237898
		C10.1533165,7.1327982,10.1488867,7.1200829,10.1402359,7.1098881z"/>
	<path fill="#A200B2" d="M12.8017311,10.2601995c-0.0660868-0.0547724-0.1074219-0.1298265-0.1583223-0.1966639
		c-0.2539968-0.3335218-0.5054817-0.6689539-0.7579517-1.0036402c-0.1776447-0.2354946-0.3555031-0.4708281-0.5331659-0.7063084
		c-0.2524967-0.3346634-0.5048075-0.6694674-0.7573824-1.0040717c-0.1367817-0.1812048-0.2696829-0.3655939-0.4130163-0.5414743
		c-0.0581779-0.0713887-0.0817232-0.142364-0.0720396-0.2298989c0.0017366-0.0157003,0.0055056-0.0335822-0.0078583-0.0476193
		c0-0.126647-0.0000019-0.2532964-0.0000029-0.3799453c0.0392408,0.0254126,0.0163298,0.0648565,0.022254,0.0977573
		c-0.0147676,0.1020417,0.015523,0.1836314,0.0804443,0.2686148c0.388073,0.5079966,0.7721968,1.0190425,1.1566458,1.5298195
		c0.2793236,0.3711061,0.5593357,0.7417021,0.839344,1.1122971c0.2237988,0.2962027,0.4471626,0.5927343,0.6708126,0.8890505
		c0.016037,0.021245,0.0348625,0.0400915,0.0501823,0.0618334C12.8853502,10.1629524,12.8455257,10.2131596,12.8017311,10.2601995z"
		/>
	<path fill="#9000A9" d="M10.446434,8.4006824c-0.078783-0.2130022-0.1494112-0.4284778-0.1973524-0.6508307
		c0.038373,0.0131674,0.0563574,0.0480695,0.0785475,0.0770416c0.1690292,0.2206979,0.3351002,0.4436412,0.5026693,0.6654458
		c0.4304686,0.5697851,0.8604031,1.1399708,1.290699,1.7098846c0.1152925,0.1527004,0.2275505,0.3077641,0.3473129,0.4570875
		c-0.0388517,0.0720205-0.1073866,0.1204987-0.1502171,0.1893635c-0.0344143,0.0004568-0.0467243-0.0281782-0.0629082-0.0498295
		c-0.2481394-0.3319616-0.4986134-0.6621656-0.7484827-0.9928179c-0.3311377-0.4381933-0.6601839-0.8779659-0.9930201-1.3148746
		C10.4909134,8.4612627,10.4623413,8.4356747,10.446434,8.4006824z"/>
	<path fill="#D600C8" d="M15.5009079,4.7328401c0.0018578,0.0025311,0.0017967,0.0050154-0.0001822,0.007453
		c-0.0190239,0.0136375-0.031435-0.000977-0.043148-0.0115814c-0.1133137-0.102572-0.2259769-0.2058597-0.3391104-0.3086348
		c-0.1438599-0.1306887-0.2872267-0.2619357-0.430501-0.3932505c-0.0598478-0.0548527-0.1244478-0.1049783-0.1781607-0.1664929
		c0.0100775-0.1810269,0.0205173-0.3620358,0.0297766-0.5431046c0.0011501-0.0224955,0.0104723-0.028717,0.0306473-0.0273819
		c0.0198927,0.001317,0.0398712,0.0013137,0.0598125,0.0018892c0.1309576,0.1201487,0.2620401,0.2401817,0.3937349,0.3594987
		c0.1329222,0.1204288,0.2632685,0.2436936,0.398386,0.3617294c0.0424013,0.0370412,0.0819387,0.0774312,0.1218386,0.1172924
		c0.0010405,0.007278,0.0011864,0.0144391-0.0027819,0.0210519c-0.0109653,0.1631317-0.0219307,0.3262634-0.032896,0.4893951
		C15.4987249,4.6708422,15.5113258,4.7027674,15.5009079,4.7328401z"/>
	<path fill="#9B0092" d="M15.5412197,4.1513085c-0.0009241-0.0070953-0.0018463-0.0141907-0.0027704-0.021286
		c0.0080585-0.0283723,0.0328493-0.0240116,0.0527325-0.0245576c0.0624361-0.0017157,0.1249352-0.0019846,0.1873837,0.0003104
		c0.0600939-0.0019546,0.1201944-0.001543,0.1802912,0.0000396c0.0502396-0.0026598,0.1004982,0.0000043,0.1507492-0.0005288
		c0.0534153-0.001009,0.1068249-0.0009418,0.1602325,0.0005007c0.059864-0.0022793,0.11973-0.0008998,0.1795979-0.0003829
		c0.0598106-0.0018783,0.1196194-0.0001636,0.1794205-0.0000587c0.0528374-0.0009975,0.1056767-0.0011201,0.1584759,0.0005827
		c0.0557976-0.0011249,0.1116238-0.0014768,0.1673431,0.0004025c0.071146,0.0021362,0.1423721,0.0030932,0.2134476,0.0001564
		c0.0029736-0.0194554-0.0106544-0.0263667-0.0196228-0.0346065c-0.1370869-0.1259475-0.2745304-0.2515061-0.4123592-0.3766456
		c-0.0923061-0.0838087-0.1847401-0.1675162-0.2756119-0.2528508c-0.0364037-0.0341868-0.0779324-0.0626473-0.1108913-0.1003754
		c-0.012228-0.0139956-0.0326767-0.0259328-0.0197048-0.0502765c0.3812447-0.0005417,0.7624893-0.0008574,1.1437321-0.0020926
		c0.0278397-0.0000901,0.0375366,0.0082712,0.0374393,0.0368102c-0.0008659,0.2547147-0.0012054,0.5094378,0.0002537,0.7641475
		c0.0002213,0.0387511-0.0203495,0.0376606-0.0472527,0.0375981c-0.163166-0.0003791-0.3263321-0.0000796-0.4894981,0.0000486
		c-0.4578648,0.0003595-0.9157295,0.0006986-1.3735933,0.001267C15.5788212,4.1295385,15.5530539,4.121933,15.5412197,4.1513085z"/>
	<path fill="#D000C7" d="M10.8606348,3.6113646c0.0506659,0.0687315,0.1007948,0.1378672,0.1520939,0.2061238
		c0.1994696,0.2654126,0.3990755,0.5307238,0.5995007,0.7954133c0.0144777,0.0191212,0.0254259,0.0500112,0.0609465,0.0382018
		c-0.0422115,0.1200676-0.085804,0.239677-0.1259432,0.3604345c-0.0153255,0.0461044-0.0391426,0.0894866-0.0459375,0.1384001
		c-0.0093708,0.0233092-0.0234213,0.030643-0.0438213,0.0118661c-0.0159273-0.0146599-0.0297527-0.0313749-0.0426664-0.048686
		c-0.253418-0.3396835-0.5112381-0.6760559-0.7644587-1.0158868c-0.0089083-0.0119557-0.0188828-0.0233212-0.0232353-0.0380816
		c0.0488844-0.1383357,0.1296549-0.2604773,0.1984129-0.3886762C10.8362503,3.6504767,10.8415852,3.6266172,10.8606348,3.6113646z"
		/>
	<path fill="#CF00C7" d="M15.9898853,5.1608748c-0.0124226,0.0173407-0.0055285,0.0301228,0.0084953,0.0429163
		c0.1091232,0.0995531,0.2175121,0.1999145,0.3270512,0.2990046c0.0430775,0.0389695,0.0851765,0.0790277,0.1283188,0.1179338
		c0.1800137,0.1623454,0.3553772,0.3298435,0.5352249,0.4923816c0.1526985,0.1380019,0.3058014,0.2755051,0.4558678,0.4163923
		c0.0713692,0.0670047,0.1448746,0.1317329,0.2172356,0.1976886c0.0076847,0.0070033,0.0156498,0.0122676,0.0262737,0.0125751
		c0.0140076,0.0584536,0.0036736,0.1177845,0.0060787,0.1766644c0.0016861,0.0412655,0.0002632,0.082653,0.0003662,0.1238475
		c-0.0108662,0.0493221-0.0367088,0.0251093-0.0557022,0.0088658c-0.0391827-0.0335045-0.0761299-0.0696983-0.113903-0.1047831
		c-0.131731-0.122364-0.2651291-0.2429118-0.3979607-0.3640389c-0.1721706-0.1570005-0.3435287-0.3149037-0.5168533-0.4706545
		C16.5224915,6.0306911,16.4361,5.9500184,16.3487015,5.8704686c-0.1439857-0.1310544-0.287323-0.2628183-0.4313755-0.3938031
		c-0.0529213-0.0481195-0.1082077-0.0938697-0.1578741-0.1455159c-0.0132303-0.0137582-0.0327787-0.0248046-0.0289793-0.0490403
		C15.808342,5.2232962,15.8962946,5.1860552,15.9898853,5.1608748z"/>
	<path fill="#8900A6" d="M10.446434,8.4006824c0.1109982,0.1099033,0.1960611,0.2406635,0.2902117,0.3639135
		c0.2471771,0.3235722,0.4917269,0.6491537,0.7368269,0.9743099c0.1225653,0.1625957,0.2438765,0.3261347,0.3660574,0.4890203
		c0.1460009,0.1946421,0.2921619,0.3891659,0.4388409,0.5832968c0.0108185,0.0143175,0.0263758,0.0250549,0.0397263,0.0374546
		c-0.0029869,0.0057755-0.0051928,0.012146-0.0090742,0.0172386c-0.0383663,0.0503397-0.0379963,0.0497208-0.0862961,0.0107956
		c-0.2099638-0.1692085-0.4038153-0.3560696-0.5884867-0.5517321c-0.2035389-0.2156496-0.3894587-0.4461613-0.555028-0.6930647
		C10.9245901,9.4013357,10.7842751,9.162487,10.66119,8.9141684C10.5788364,8.748023,10.5051203,8.5772343,10.446434,8.4006824z"/>
	<path fill="#C900C4" d="M10.6271133,4.0591497c0.0631275,0.054873,0.1039515,0.1276588,0.153594,0.1931806
		c0.2168398,0.2862077,0.4320583,0.5736442,0.6480341,0.860507c0.0099525,0.0132184,0.0221577,0.0247335,0.0322018,0.037889
		c0.0143118,0.0187407,0.0271702,0.0127664,0.040349-0.0007868c-0.0336819,0.1500602-0.0673656,0.3001227-0.1010494,0.4501843
		c-0.0108204,0.0193005,0.0024347,0.0541234-0.0248966,0.0593071c-0.0275984,0.0052347-0.0397873-0.0256691-0.054286-0.0450211
		c-0.2195444-0.2930307-0.4420633-0.5838165-0.6611576-0.8771887c-0.0597191-0.0799646-0.1186008-0.1607661-0.1831217-0.2369175
		c-0.0216408-0.0255427-0.015976-0.0477834-0.0076904-0.0732899C10.5171623,4.3024163,10.5626144,4.176692,10.6271133,4.0591497z"/>
	<path fill="#C800C4" d="M15.7304726,5.2821093c0.0993032,0.1100359,0.2182913,0.1991315,0.3230038,0.3035178
		c0.0445042,0.0443668,0.0953102,0.0823383,0.1416397,0.1249714c0.1783962,0.1641707,0.3546829,0.3306618,0.5345707,0.4931707
		c0.1527367,0.1379795,0.3052406,0.2761497,0.4559746,0.4163275c0.151926,0.1412873,0.3062706,0.2799711,0.459219,0.4201632
		c0.012804,0.0117388,0.0249519,0.0220466,0.0435619,0.0193906c0.0143242,0.0702105,0.0025673,0.1411934,0.0061588,0.2117314
		c0.0010109,0.0198183,0.0000877,0.0397286,0.0002003,0.0594616c0.0014858,0.0254421-0.0122757,0.0279827-0.031559,0.0198765
		c-0.0186253-0.0078297-0.034029-0.0207238-0.0485725-0.0345097c-0.1688538-0.1600537-0.3421955-0.315259-0.5141487-0.4719086
		c-0.1694641-0.1543779-0.3362637-0.3117523-0.5096359-0.4618254c-0.0114117-0.0098767-0.0203323-0.0219116-0.03092-0.0324564
		c-0.0045605-0.0175524-0.0091286-0.0351024-0.0136833-0.0526567c-0.0494728-0.1906462-0.1723633-0.3044672-0.3632793-0.3470912
		c-0.0177975-0.0039735-0.0356083-0.0078692-0.0534153-0.0118012c-0.0273895-0.0016723-0.0473824-0.0143609-0.0683689-0.0331473
		c-0.131279-0.1175094-0.2580252-0.2400041-0.3912745-0.3553195c-0.0365305-0.0316148-0.0682735-0.0682173-0.1043558-0.100327
		c-0.0090847-0.0080833-0.0154486-0.0179987-0.0059032-0.030333C15.6089935,5.3641167,15.6643953,5.3164711,15.7304726,5.2821093z"
		/>
	<path fill="#A400B3" d="M12.9216747,10.1099501c-0.0188656-0.0005074-0.0293388-0.0128727-0.0396652-0.0266514
		c-0.215621-0.2877064-0.431035-0.5755711-0.6472988-0.8627958c-0.2760696-0.3666496-0.5528669-0.7327499-0.8293285-1.0991049
		c-0.2864408-0.3795815-0.5724001-0.7595277-0.8594732-1.1386309c-0.1399841-0.1848598-0.2816906-0.3684206-0.423789-0.5516601
		c-0.0107622-0.0138774-0.0115499-0.0265808-0.0116577-0.0411434c-0.0003204-0.0433087-0.0001183-0.0866203-0.0001202-0.129931
		c0.0324421-0.0150466,0.0406275,0.0150633,0.0527449,0.0312557c0.156559,0.2092228,0.315855,0.4163737,0.4727211,0.6253619
		c0.3457079,0.4605751,0.6946077,0.9187446,1.0398579,1.3796668c0.0847034,0.113081,0.1743059,0.2224655,0.2555227,0.338191
		c0.0048208,0.0068693,0.0112209,0.0122662,0.0204859,0.0123014c0.1126671,0.1802845,0.2264919,0.3598967,0.3598442,0.5258961
		c0.1573591,0.1958799,0.3277779,0.3796682,0.5142899,0.5484419c0.0726376,0.0657272,0.143713,0.1331053,0.2221746,0.1920443
		c0.0125952,0.0094604,0.0223055,0.0177193,0.0070324,0.0354776C13.0095425,10.0015459,12.9659824,10.0560703,12.9216747,10.1099501
		z"/>
	<path fill="#BC00BE" d="M10.2398777,5.1901951c0.0201778-0.1236367,0.0514641-0.2442918,0.0969515-0.3611345
		c0.0356407-0.0141444,0.0469379,0.0162387,0.0616322,0.0359235c0.1335659,0.1789246,0.2704878,0.3553143,0.4038115,0.5344129
		c0.1641693,0.2205329,0.3322983,0.4380765,0.4966488,0.6584692c0.014884,0.0199599,0.0310135,0.0391102,0.0412464,0.0621634
		c-0.0002565,0.1599674-0.0005131,0.3199344-0.0007696,0.4799018c-0.0315647,0.0146937-0.0407696-0.0136776-0.0537405-0.0300336
		c-0.1250572-0.1577163-0.2419014-0.321672-0.3643084-0.4814067C10.6927338,5.7901635,10.4708242,5.4867525,10.2398777,5.1901951z"
		/>
	<path fill="#9300AB" d="M12.4683104,10.6593113c-0.0209312-0.001339-0.0321035-0.0171309-0.0428257-0.0314007
		c-0.2366867-0.3150177-0.472579-0.6306314-0.709487-0.9454813c-0.2767296-0.367775-0.5539436-0.7351847-0.8315954-1.1022625
		c-0.1927624-0.2548466-0.3868237-0.5087137-0.5796556-0.7635083c-0.0175819-0.023232-0.0438585-0.0389714-0.0556602-0.0668044
		c-0.0235767-0.0957127-0.0463181-0.1915941-0.0598402-0.2893825c0.0358629-0.0047402,0.047204,0.025691,0.0634832,0.0464778
		c0.1437359,0.1835403,0.2809458,0.3720269,0.4215822,0.5579214c0.4319468,0.5709524,0.862668,1.1428308,1.2941561,1.7141285
		c0.1826239,0.2417955,0.3628588,0.4854069,0.5479307,0.7253571c0.0130444,0.0169153,0.0290108,0.0324802,0.0333281,0.0548744
		C12.5225878,10.5925903,12.4954481,10.6259518,12.4683104,10.6593113z"/>
	<path fill="#C200C1" d="M11.340168,6.1200294c-0.0639267-0.0545096-0.1049213-0.1277528-0.1549253-0.1932707
		c-0.2463322-0.3227615-0.4900665-0.6475062-0.734623-0.9716225c-0.0239582-0.031754-0.0478802-0.063571-0.0706244-0.0961914
		c-0.0110197-0.0158038-0.0226345-0.0287404-0.0431614-0.0298839c0.0036631-0.0517774,0.0244761-0.0986757,0.041584-0.1466517
		c0.0303411-0.0850835,0.060463-0.1702452,0.0906754-0.2553849c-0.0087767,0.0348077,0.0120535,0.0553784,0.0317726,0.0811362
		c0.1578465,0.206183,0.31318,0.414289,0.4693079,0.6217871c0.1262903,0.1678429,0.2526398,0.3356404,0.3788395,0.503551
		c0.0060167,0.0080051,0.0108318,0.016912,0.014616,0.0228858c0.0334311-0.0125113,0.0182648-0.0435619,0.0366135-0.0562606
		c-0.0160856,0.133419-0.0321722,0.2668386-0.0482597,0.4002576c-0.0175381,0.0365152,0.001565,0.076396-0.0104198,0.1134214
		C11.3426008,6.1162148,11.3421354,6.1182899,11.340168,6.1200294z"/>
	<path fill="#B400BB" d="M10.2398777,5.1901951c0.0236568,0.0009046,0.0319462,0.0196095,0.0440598,0.0356646
		c0.3018551,0.4000549,0.6041765,0.799757,0.9063807,1.1995487c0.0378847,0.0501184,0.0756159,0.1003537,0.1133032,0.1506205
		c0.0091801,0.0122447,0.0187941,0.0235004,0.03578,0.0239024c0.0162897,0.0757279,0.0134211,0.1532612,0.0216446,0.2297492
		c-0.0089188,0.0167651-0.0100937,0.0334315,0.000638,0.0499458l-0.0005674-0.0007234
		c0.0106735,0.0191722-0.0035896,0.0421677,0.0093536,0.0609913l-0.000083-0.0001521
		c0.0124989,0.0185733-0.0037184,0.0421348,0.0104952,0.06041c-0.0006361,0.0131702-0.0167027,0.0261011-0.0006142,0.0395312
		c0.0061188,0.0156975,0.0131226,0.0341244-0.0062208,0.0430198c-0.016016,0.0073647-0.027215-0.0082884-0.0363407-0.0200024
		c-0.0419283-0.0538206-0.0822563-0.1088572-0.1232862-0.1633615c-0.3282175-0.4360218-0.6582136-0.8707047-0.9855652-1.3073807
		c-0.0079813-0.0106483-0.0148525-0.0225372-0.0245695-0.0314093c-0.0257826-0.0235386-0.0385942-0.0485797-0.0207453-0.0834727
		c0.0074244-0.0145149-0.0023966-0.0331492,0.0061092-0.048707C10.200963,5.3478332,10.2159615,5.268074,10.2398777,5.1901951z"/>
	<path fill="#7C009E" d="M15.6400681,8.2893257c0.1985054,0.0821266,0.4008961,0.0894842,0.6063366,0.0303602
		c0.0284634-0.0081902,0.0555897-0.0210133,0.0833359-0.0316916c0.0253506,0.0610228,0.0775414,0.0994434,0.1243668,0.1406431
		c0.0937366,0.0824757,0.184269,0.1684141,0.2771111,0.2518301c0.0928307,0.0834036,0.1847973,0.1678638,0.2764072,0.2526617
		c0.0136318,0.012619,0.0365047,0.0215244,0.022665,0.0475292c-0.1494293,0.0866003-0.3107204,0.1392956-0.4803905,0.1680441
		c-0.1402264-0.1302252-0.2824802-0.2582455-0.4232349-0.3879032c-0.1505251-0.1386595-0.30474-0.2733316-0.4521093-0.4154224
		C15.658946,8.3303261,15.634613,8.3183079,15.6400681,8.2893257z"/>
	<path fill="#AF00B8" d="M10.1896496,5.4283695c-0.0220699,0.0685544,0.0169163,0.1139865,0.055192,0.1644855
		c0.248229,0.3274994,0.4935846,0.6571736,0.7406158,0.9855843c0.1195412,0.1589231,0.2406769,0.3166471,0.3610678,0.4749317
		c0.0066652,0.0087643,0.0095253,0.0254188,0.0237522,0.0210867c0.0170631-0.005198,0.0072918-0.0227842,0.0099907-0.0347729
		c0.0279856,0.0793257,0.0313129,0.1637874,0.0510445,0.244925c0.0187569,0.0771308,0.0333967,0.1552629,0.0498457,0.232955
		c0.0094337,0.0295072-0.0076408,0.0273762-0.0257187,0.0202913c-0.0211563-0.0082898-0.0323095-0.0279312-0.045558-0.0449185
		c-0.1390791-0.1783252-0.27213-0.3612013-0.4088125-0.5413342c-0.2763786-0.3642383-0.5514431-0.7294674-0.8259115-1.0951443
		c-0.013916-0.0185409-0.0300474-0.0357008-0.0387287-0.0577912C10.1482105,5.6743789,10.1581068,5.549819,10.1896496,5.4283695z"/>
	<path fill="#AA00B6" d="M10.1364288,5.7986679c0.0634909,0.0523171,0.1026754,0.1245089,0.1514416,0.1885076
		c0.24368,0.3197875,0.4849443,0.6414165,0.7270708,0.9623852c0.1385069,0.1836066,0.2768393,0.3673444,0.4159355,0.5505028
		c0.011569,0.015234,0.0209665,0.0482526,0.0502768,0.0175157c0.0534859,0.1648245,0.1068335,0.3297062,0.1606655,0.4944296
		c0.0050135,0.0153379,0.0131025,0.0296726,0.019763,0.0444727c0.0022364,0.0045071,0.0024929,0.0091238,0.0007744,0.0138464
		c-0.043582-0.0005465-0.0604534-0.0369778-0.0817995-0.0643654c-0.1023769-0.1313467-0.2019377-0.2648635-0.3021088-0.3979068
		c-0.3375807-0.4483581-0.6763783-0.8958015-1.0135794-1.3444476c-0.0509834-0.0678339-0.1046715-0.1336341-0.1532249-0.2033081
		C10.1125784,5.9723949,10.1232128,5.8854089,10.1364288,5.7986679z"/>
	<path fill="#D300C3" d="M12.1207743,3.8217964c-0.0021267-0.057143-0.0474443-0.0901809-0.0771685-0.1300659
		c-0.2047977-0.2748144-0.4123688-0.5475647-0.6194611-0.8206644c-0.0088358-0.0116541-0.0217361-0.0202277-0.0327425-0.0302353
		c0.0603046-0.0685778,0.1206408-0.1371288,0.180892-0.2057521c0.0159245-0.0181384,0.0315971-0.0364985,0.0473862-0.0547559
		c0.0389786-0.0116696,0.0472956,0.0249317,0.0622301,0.0440454c0.0788593,0.1009259,0.1544886,0.2043641,0.2315617,0.3066878
		c0.1331129,0.1767261,0.2681522,0.3520036,0.3995667,0.5300045c0.0132303,0.0179203,0.0340958,0.0333679,0.027853,0.060653
		C12.26752,3.6217415,12.1941481,3.7217693,12.1207743,3.8217964z"/>
	<path fill="#BF00C0" d="M15.5596848,5.4193439c0.0007677,0.0108447,0.0076962,0.0167518,0.0154428,0.0238819
		c0.1051245,0.0967431,0.2089272,0.1949296,0.3146095,0.2910519c0.0674438,0.0613437,0.1383562,0.1189642,0.2005262,0.1858716
		c0.0116558,0.0125465,0.0299587,0.0046248,0.0393257,0.018322c-0.1029911-0.0118165-0.2058868-0.0098562-0.308712,0.0021234
		c-0.0177374,0.0059028-0.0281296-0.0066719-0.0383329-0.0167031c-0.13274-0.1304984-0.2732239-0.252646-0.4104357-0.3782616
		c-0.1310492-0.1199756-0.2615471-0.2406249-0.3944092-0.3586793c-0.0819082-0.0727792-0.1620169-0.1476903-0.2429533-0.2216172
		c-0.0748053-0.068326-0.1482553-0.1381154-0.2248755-0.2044768c-0.019949-0.0172787-0.0405216-0.0348134-0.0505457-0.0607095
		c0.0008297-0.0201159,0.0016603-0.0402317,0.00249-0.0603476c0.0097103-0.033474-0.003171-0.0685806,0.0073719-0.1019945
		c0.0017548-0.0534906-0.0038004-0.1074171,0.0095568-0.1602159c0.0061979,0.0721602,0.064394,0.1068082,0.1103468,0.1487327
		c0.1375408,0.1254854,0.2746553,0.2514477,0.4127169,0.3763733c0.0924568,0.0836582,0.1840782,0.1683044,0.2758951,0.2527008
		c0.0522423,0.0480194,0.105257,0.0952563,0.1552696,0.1424294c0.0248423-0.0107746,0.006629-0.0447359,0.0352306-0.0472417
		c-0.0044489,0.0771456-0.0091028,0.1542797-0.0131273,0.2314477c-0.0006218,0.0119076-0.0110941,0.0285039,0.0053864,0.0347705
		c0.0154591,0.0058789,0.0208817-0.012394,0.029376-0.0213499C15.5135345,5.4704728,15.5312185,5.4399753,15.5596848,5.4193439z"/>
	<path fill="#7C009E" d="M14.5001059,7.2499852c0.2864227-0.0005178,0.5728483-0.0005217,0.8592634-0.0022378
		c0.0340338-0.0002036,0.0416632,0.0119796,0.0413876,0.0434303c-0.0013552,0.1548557,0.0006027,0.3097425-0.0011177,0.464592
		c-0.0014429,0.1297746,0.0168371,0.2549925,0.0731134,0.3731232c-0.0317745,0.017046-0.050293-0.0086803-0.0681801-0.0248318
		c-0.0813341-0.0734396-0.1621294-0.1474915-0.2431107-0.2213345c-0.144762-0.1320033-0.2893963-0.2641501-0.43402-0.3962994
		c-0.0686159-0.0626974-0.1408157-0.1218381-0.2033892-0.190999C14.5124502,7.2826052,14.4939833,7.2725072,14.5001059,7.2499852z"
		/>
	<path fill="#9700AD" d="M10.1402359,7.1098881c0.0696402,0.056006,0.1123781,0.1342835,0.1652851,0.2036643
		c0.243926,0.3198833,0.4848948,0.6420221,0.7270374,0.9632659c0.2581139,0.3424301,0.5163803,0.6847448,0.7745314,1.0271463
		c0.242177,0.3212137,0.4842787,0.6424875,0.7264538,0.9637032c0.034893,0.0462809,0.070508,0.0920277,0.1046715,0.1388359
		c0.0081758,0.0112038,0.0145512,0.0222311,0.0299568,0.0228033c-0.01898,0.02351-0.0379524,0.0470209-0.0569248,0.0705318
		c-0.0344934,0.0139542-0.0428267-0.0175734-0.0565195-0.0349827c-0.1389999-0.1767035-0.2710333-0.358696-0.4067526-0.537899
		c-0.4322929-0.5707932-0.8627787-1.1429539-1.2940207-1.7145405c-0.223629-0.2964082-0.4465733-0.5933452-0.6719303-0.8884487
		c-0.008214-0.0107565-0.0141191-0.0224853-0.0202513-0.0342684C10.1460686,7.2307835,10.1408787,7.1706085,10.1402359,7.1098881z"
		/>
	<path fill="#D600C8" d="M15.547678,9.1605148c-0.591114-0.0878029-1.0498762-0.4245749-1.1755371-1.0475063
		c-0.0026054-0.0129156-0.0023251-0.026413-0.0033894-0.0396395c-0.0049677-0.0411196,0.0169525-0.0328817,0.0365028-0.017664
		c0.0274458,0.0213623,0.0537663,0.0446243,0.0790205,0.0684099c0.1317167,0.1240578,0.2666063,0.2446566,0.4001637,0.3666725
		c0.1310844,0.1197567,0.2621698,0.2395554,0.3939295,0.3585939c0.0911236,0.0823259,0.1816874,0.16535,0.2720251,0.248579
		c0.008543,0.0078707,0.0167408,0.0162163,0.0236645,0.0255995c0.006937,0.0094023,0.0153189,0.0198402,0.0087214,0.0316334
		C15.5742941,9.1703596,15.5603447,9.1646519,15.547678,9.1605148z"/>
	<path fill="#A700B4" d="M10.1116438,6.0602999c0.0224657,0.0069785,0.0338879,0.0265794,0.046627,0.0434012
		c0.1670465,0.2205915,0.3334913,0.4416375,0.5001316,0.6625381c0.2424479,0.3213949,0.4849148,0.6427751,0.7274036,0.9641404
		c0.0688438,0.0912375,0.1375065,0.1826124,0.2068615,0.2734609c0.0191593,0.0250959,0.0408525,0.0481653,0.0674868,0.0658855
		c0.0083132,0.0088511,0.011797,0.0208912,0.0197725,0.0299664c0.0409002,0.1137819,0.0898151,0.2243004,0.1483984,0.3297691
		c0.0404177,0.0727663,0.0724936,0.1504831,0.1233425,0.2173567c-0.0144987,0.0162601-0.0201759-0.0010147-0.0257292-0.0082397
		c-0.1544495-0.2008705-0.3093119-0.401433-0.4623652-0.6033659c-0.23312-0.3075743-0.4648981-0.6161652-0.697319-0.9242692
		c-0.2075062-0.275075-0.4152088-0.5500026-0.6223564-0.8253465c-0.0092468-0.012291-0.015707-0.0256834-0.033556-0.0255642
		c-0.0044594-0.0363584,0.0096893-0.0741363-0.0083523-0.1094565C10.1052094,6.1204848,10.108427,6.0903926,10.1116438,6.0602999z"
		/>
	<path fill="#8200A1" d="M14.5001059,7.2499852c0.0723782,0.0893102,0.162487,0.1604881,0.2472382,0.2367005
		c0.0478468,0.043026,0.0941954,0.0879192,0.14258,0.1304898c0.1403294,0.1234651,0.2726221,0.2561197,0.4139442,0.3783774
		c0.0537958,0.0465384,0.0939236,0.1129332,0.168869,0.1333418c0.0442924,0.0654612,0.0989342,0.1201191,0.1673307,0.1604319
		c0.0721769,0.0900249,0.1628742,0.1611195,0.2478266,0.2376604c0.0479794,0.0432281,0.0944471,0.0883141,0.1429987,0.1310558
		c0.1407852,0.1239424,0.2762337,0.2539425,0.4139729,0.3813562c0.0371819,0.0343924,0.0856342,0.0578613,0.1050358,0.1093063
		c-0.0592232,0.0134068-0.1181526,0.0286036-0.1794472,0.029335c0.0134792-0.0217209,0.0015087-0.0355234-0.013731-0.0502434
		c-0.0957928-0.0925102-0.1963024-0.1798983-0.2942562-0.2700396c-0.0979156-0.090107-0.1961479-0.1799459-0.2950659-0.2689981
		c-0.1397257-0.1257906-0.2775822-0.2536373-0.417037-0.3797369c-0.0888577-0.0803471-0.1766462-0.1619024-0.2652578-0.2425451
		c-0.1427298-0.1298952-0.2857428-0.2595115-0.4275627-0.3903689c-0.1063309-0.0981131-0.217762-0.1908932-0.3173819-0.2962213
		c-0.0050869-0.025053,0.0071449-0.0323167,0.0302238-0.0316172C14.4136038,7.2495794,14.4568644,7.2494917,14.5001059,7.2499852z"
		/>
	<path fill="#CF00C7" d="M14.5098057,3.8603334c0.0411568,0.0167022,0.070467,0.050086,0.1019583,0.0784349
		c0.1393442,0.1254363,0.2753181,0.2546082,0.4134483,0.3814063c0.1478195,0.1356921,0.2967253,0.2702026,0.4450169,0.4053826
		c0.0088997,0.0081134,0.0178614,0.0149102,0.0304956,0.0147352c0.0014629,0.0671225-0.004137,0.1338115-0.01229,0.2003436
		c-0.0098,0.0301714,0.0028734,0.0621614-0.0074673,0.092289c0.0018396,0.0024734,0.0018005,0.0049162-0.0001183,0.007329
		c-0.0244389,0.0180917-0.0408916,0.0003896-0.0561323-0.0142155c-0.1308823-0.1254196-0.2663698-0.2458863-0.4004087-0.3678117
		c-0.1696815-0.1543465-0.3366508-0.3117332-0.5098-0.4622617c-0.0088997-0.0077362-0.0154114-0.0174313-0.0236425-0.02565
		c0.0003481-0.01015,0.0006971-0.0202999,0.0010452-0.0304499c0.0091715-0.030417-0.0027399-0.0624456,0.0070982-0.0928116
		C14.5001497,3.9846716,14.4970045,3.9220417,14.5098057,3.8603334z"/>
	<path fill="#CD00BD" d="M12.3408918,3.5217135c-0.1654291-0.2206237-0.330636-0.4414146-0.496397-0.6617889
		c-0.0665073-0.0884204-0.1343842-0.1758084-0.2011547-0.2640326c-0.0064793-0.0085607-0.0128241-0.0148196-0.0236597-0.0155687
		c0.0634651-0.063277,0.1269302-0.1265543,0.1903944-0.1898315c0.0320501-0.0043948,0.0416937,0.0228047,0.0557938,0.0414801
		c0.201004,0.2662268,0.4036131,0.5312498,0.6020775,0.7993815c0.0199699,0.0269797,0.0530434,0.0471289,0.0517054,0.0870788
		C12.4627104,3.3885179,12.4039364,3.4569929,12.3408918,3.5217135z"/>
	<path fill="#9600AC" d="M10.1617727,7.2896996c0.0779305,0.070991,0.1311655,0.1618686,0.1943054,0.2445092
		c0.2351761,0.3078132,0.4674482,0.6178441,0.7007008,0.9271255c0.2073593,0.2749481,0.4145155,0.5500517,0.6218681,0.8250046
		c0.2422142,0.3211832,0.4844513,0.6423492,0.726902,0.9633551c0.0568733,0.0753021,0.1150436,0.1496277,0.1716051,0.2251606
		c0.0093832,0.0125313,0.0167179,0.0247383,0.03409,0.0249834c-0.020505,0.0197983-0.0410109,0.0395966-0.0615177,0.0593929
		c-0.071126-0.0743713-0.1280613-0.1600161-0.189827-0.2416677c-0.2669706-0.3529215-0.5321102-0.7072268-0.7982159-1.0608025
		c-0.1305485-0.1734591-0.2617626-0.3464165-0.3926573-0.5196161c-0.2408199-0.3186541-0.4816236-0.6373205-0.722436-0.9559813
		c-0.0699301-0.0925369-0.1396704-0.1852188-0.2099743-0.2774715c-0.0130091-0.0170712-0.0266294-0.0342455-0.0473642-0.04322
		c-0.0000057,0,0.0004826,0.0001979,0.0004826,0.0001979c-0.0074024-0.0367703-0.0101995-0.0743809-0.0201931-0.1106782
		C10.1545706,7.3314891,10.1651993,7.3096886,10.1617727,7.2896996z"/>
	<path fill="#B700BC" d="M14.4593248,4.7001472c0.076828,0.0682707,0.1545467,0.135571,0.2303057,0.205009
		c0.1750174,0.1604185,0.3488016,0.3221822,0.5236444,0.4827933c0.1075315,0.0987778,0.2161379,0.1963873,0.3241768,0.2946138
		c0.0945349,0.0859442,0.1889515,0.1720138,0.2834225,0.2580299c-0.0687876,0.0182056-0.1370277,0.0379453-0.2002659,0.0716629
		c-0.066534-0.0477715-0.1218042-0.1083679-0.1818361-0.1632795c-0.1719332-0.1572695-0.3443375-0.3140559-0.5158157-0.4718385
		c-0.1469507-0.1352172-0.294651-0.2696753-0.4430056-0.4033666c-0.0314636-0.0283561-0.0421934-0.0572181-0.0308752-0.0962667
		C14.4510098,4.8183002,14.4454784,4.7586637,14.4593248,4.7001472z"/>
	<path fill="#C900C4" d="M14.4908657,4.1703153c0.0297823,0.0084176,0.051466,0.0297432,0.0730028,0.0495067
		c0.1382723,0.126884,0.2751532,0.255281,0.4133072,0.3822937c0.1527462,0.1404281,0.3064909,0.2797704,0.4593792,0.4200444
		c0.0131397,0.0120549,0.0262833,0.0199566,0.0442924,0.0180936c0.0018759,0.0704756-0.0055923,0.1403899-0.0126429,0.21033
		c-0.0010834,0.0012674-0.0022144,0.0024953-0.0032387,0.0038071c-0.0146618,0.0187745,0.00984,0.0548463-0.0175638,0.0615659
		c-0.0286198,0.0070171-0.0418873-0.0276871-0.0608778-0.0448418c-0.1809511-0.1634555-0.3615561-0.3272963-0.5417032-0.4916368
		c-0.0919743-0.0839047-0.1828604-0.1690049-0.2741222-0.2536883c-0.0122023-0.0113235-0.021678-0.0281587-0.0359192-0.0342503
		c-0.0526314-0.022511-0.0601282-0.0648203-0.0560293-0.1139402C14.4796705,4.3083158,14.4790831,4.2389536,14.4908657,4.1703153z"
		/>
	<path fill="#C100B2" d="M12.8399715,2.9978473c-0.0564194,0.0547068-0.1128387,0.1094134-0.1692581,0.1641202
		c-0.0597715-0.0650866-0.1078701-0.13919-0.161068-0.2093251c-0.1610708-0.2123563-0.3228159-0.4242144-0.4813499-0.6384788
		c-0.0225935-0.0305369-0.0419798-0.0631282-0.0880795-0.0535691c0.069849-0.06006,0.1336546-0.1271415,0.2094412-0.1803057
		c0.0251703-0.0019505,0.0323772,0.020139,0.0435314,0.0347037c0.2112217,0.2758241,0.4176083,0.5553083,0.6284637,0.8314185
		C12.8325129,2.9606321,12.8539505,2.9736958,12.8399715,2.9978473z"/>
	<path fill="#C800B8" d="M11.9402161,2.2605946c0.0368547-0.0202498,0.0576735-0.0082843,0.0831156,0.0259225
		c0.2060337,0.2770262,0.4151783,0.551739,0.6226187,0.8277245c0.0104589,0.0139165,0.0248899,0.0275426,0.0247631,0.0477235
		c-0.050354,0.0521576-0.1007071,0.1043134-0.1510611,0.1564682c-0.2253876-0.2995439-0.4506912-0.5991476-0.6764631-0.8983979
		c-0.0087385-0.0115831-0.0219736-0.019773-0.0331144-0.0295436C11.8534546,2.3471925,11.8968363,2.3038933,11.9402161,2.2605946z"
		/>
	<path fill="#AE00B8" d="M14.4490757,4.8775048c-0.0110607,0.0728579,0.0518818,0.1002288,0.0920782,0.1351299
		c0.0537138,0.046638,0.104166,0.0968838,0.1576052,0.1437573c0.1406202,0.1233454,0.2749195,0.2538629,0.4130363,0.3801012
		c0.1636486,0.1495738,0.3285751,0.2977533,0.4932966,0.4461489c0.0094414,0.0085063,0.0148344,0.0173731,0.0155153,0.0296102
		c-0.0374498,0.0324244-0.0749025,0.0648456-0.1123543,0.0972667c-0.0249529,0.0043602-0.0409803-0.0123091-0.0561218-0.0266814
		c-0.0832195-0.0789804-0.1690636-0.1550617-0.2537479-0.2324262c-0.1435719-0.1311641-0.2874136-0.2620387-0.4308605-0.3933282
		c-0.1042337-0.0953994-0.2106218-0.1885505-0.3114586-0.2876306c-0.0395947-0.0389056-0.0164804-0.0869746-0.0168085-0.1315193
		C14.441184,4.984375,14.4347095,4.9303021,14.4490757,4.8775048z"/>
	<path fill="#C000C0" d="M16.5599651,6.3500199c0.0334358,0.0059013,0.0534763,0.0333252,0.0760422,0.0531878
		c0.0946083,0.0832753,0.1851864,0.1711011,0.2784233,0.25596c0.1728382,0.1573029,0.3468018,0.3133717,0.5196705,0.4706402
		c0.061388,0.0558472,0.1211567,0.1134815,0.1812515,0.1707349c0.0216808,0.0206575,0.0432434,0.040957,0.0732174,0.0489726
		c0.0136929,0.0671868,0.0024681,0.1351404,0.0062351,0.2025099c0.0005989,0.0268378-0.0147877,0.0271544-0.0322437,0.0170584
		c-0.021574-0.0124774-0.0413017-0.0283537-0.0592709-0.0454903c-0.1323204-0.1261897-0.2688351-0.247848-0.4040184-0.3708715
		c-0.1708012-0.1554375-0.340126-0.3125205-0.5123463-0.4664283c-0.0404778-0.0361743-0.0844898-0.0698586-0.1153088-0.1160598
		C16.5677338,6.4968295,16.5638504,6.4234242,16.5599651,6.3500199z"/>
	<path fill="#9400AA" d="M16.2702465,9.1880245c-0.0563164,0.0075846-0.1126595,0.0146837-0.169693,0.0097075
		c-0.0005608-0.0197992,0.0191822-0.0141087,0.0310688-0.0251846c-0.0471363-0.0439968-0.0949459-0.0872087-0.1424341-0.1302595
		c-0.231432-0.2098103-0.4613428-0.4212713-0.6919479-0.631978c-0.1901207-0.1737156-0.3807821-0.346839-0.5705814-0.5209169
		c-0.118763-0.1089253-0.2399549-0.215199-0.3565807-0.3264785c-0.0108604-0.0103631-0.0220432-0.0201583-0.0299654-0.0330629
		c0-0.0399942,0-0.0799885,0-0.1199827c0.0192242-0.0135221,0.0310965,0.0018086,0.0430975,0.0120597
		c0.0657711,0.0561824,0.1298676,0.1144371,0.1928453,0.1735487c0.1734495,0.1628032,0.3509636,0.3211441,0.5258379,0.4823647
		c0.1907425,0.175848,0.3830442,0.3500528,0.5746765,0.5249624c0.1510973,0.1379108,0.3023729,0.275629,0.4535475,0.413456
		c0.0454998,0.0414839,0.0908623,0.0830679,0.1353264,0.1256409C16.2795982,9.1554537,16.2996101,9.169467,16.2702465,9.1880245z"/>
	<path fill="#8100A2" d="M17.0302906,8.9806585c-0.0168591-0.0418615-0.0558147-0.0648222-0.087677-0.0903511
		c-0.0557632-0.0446777-0.1045761-0.0964622-0.1577778-0.1434889c-0.1487751-0.1315136-0.2920456-0.2692566-0.4373226-0.4047203
		c-0.0155201-0.014473-0.0352669-0.0283899-0.0177727-0.0540943c0.0582504-0.0329504,0.1065292-0.0773411,0.1483383-0.1291599
		c0.0228519-0.0076447,0.0329914,0.0113497,0.0454254,0.0230722c0.0665817,0.0627823,0.1361389,0.1223106,0.203146,0.1845284
		c0.1645908,0.1528263,0.3308887,0.3037491,0.4975147,0.4543247c0.0061798,0.0055828,0.0124836,0.0110493,0.0159035,0.0189419
		C17.1769447,8.8968163,17.1075783,8.9446316,17.0302906,8.9806585z"/>
	<path fill="#D200C2" d="M15.7796936,4.118607c-0.0630884,0.0004196-0.1261826,0.0005174-0.1892624,0.0014658
		c-0.0176859,0.0002656-0.0369682-0.0053253-0.0519714,0.0099535c-0.0637016-0.0323672-0.1051083-0.0910964-0.1574278-0.1366093
		c-0.1414671-0.1230588-0.2760057-0.2540524-0.4142065-0.3809028c-0.1014194-0.0930889-0.2044506-0.1844211-0.3062973-0.2770474
		c-0.013133-0.0119431-0.0297127-0.0226588-0.0304861-0.0437307c0.0900736,0.0000026,0.1801453,0.0000055,0.2702179,0.0000081
		c0.0738144,0.0540414,0.136014,0.1212199,0.2036676,0.182133c0.1847935,0.1663828,0.366025,0.3367164,0.5520382,0.5017917
		c0.0384521,0.0341244,0.0717001,0.0737834,0.1127434,0.1053081C15.7798223,4.0895133,15.7924919,4.1013365,15.7796936,4.118607z"/>
	<path fill="#8700A5" d="M17.2400684,8.8397112c-0.0427895-0.0109158-0.0665264-0.0485439-0.0969391-0.0746584
		c-0.0980644-0.0842009-0.1902027-0.1752663-0.2856712-0.262538c-0.1259346-0.1151237-0.2528648-0.2291603-0.3793736-0.343667
		c0.0399761-0.0650053,0.0612545-0.1372662,0.0814819-0.2099342c0.0811348,0.0478826,0.1421299,0.1196432,0.2110729,0.1815262
		c0.1865711,0.1674747,0.3692055,0.3393288,0.5564709,0.5060959c0.0206833,0.0184202,0.0450573,0.0347967,0.0539207,0.0636892
		C17.342453,8.7552176,17.2938862,8.8001165,17.2400684,8.8397112z"/>
	<path fill="#A000AF" d="M14.3401127,7.5298514c0.0648232,0.0307713,0.1044598,0.0913177,0.1577778,0.1358204
		c0.1017609,0.0849357,0.1948118,0.1802192,0.2929993,0.269537c0.1679745,0.1528001,0.3375139,0.3038783,0.5056143,0.4565396
		c0.093338,0.0847645,0.1845026,0.1719189,0.2776937,0.2568464c0.1764364,0.1607924,0.3535919,0.320797,0.5305672,0.4809971
		c0.0172081,0.0155764,0.0352459,0.0302315,0.05616,0.0480986c-0.0223255,0.0193682-0.0467033,0.0037794-0.0603752,0.0200443
		c-0.0203381,0.0000792-0.0406799,0.0001602-0.0610218,0.0002403C15.969656,9.1628256,15.9191227,9.10326,15.8634548,9.0517168
		c-0.1343079-0.1243582-0.269783-0.2474661-0.4051275-0.3706474c-0.1710157-0.1556435-0.34161-0.3117867-0.5127449-0.4672966
		c-0.0984573-0.089468-0.1978827-0.1780777-0.2943411-0.2698927c-0.0903425-0.0859957-0.1851587-0.167273-0.276372-0.2524433
		c-0.0136499-0.0127459-0.0253305-0.0259275-0.0347729-0.0416026C14.3401022,7.6098399,14.3401079,7.5698457,14.3401127,7.5298514z"
		/>
	<path fill="#8C00A7" d="M15.309885,6.6790724c-0.0965986-0.000001-0.1931982-0.0000024-0.2897968-0.0000033
		c-0.1332684-0.124393-0.26933-0.2457371-0.4032345-0.3694453c-0.0693712-0.0640874-0.1378689-0.1293736-0.2111435-0.1890068
		c-0.0287476-0.0233951-0.037282-0.0485311-0.0263004-0.0822892c0.0009537-0.0662045-0.002492-0.1326556,0.0110846-0.198154
		c0.0424795-0.0043364,0.0664654,0.0280552,0.0913048,0.0517073c0.1335688,0.127182,0.2718496,0.2492127,0.4076691,0.3738847
		c0.1296682,0.1190248,0.2585602,0.239006,0.3908787,0.3551683C15.2974424,6.635942,15.3173265,6.6509528,15.309885,6.6790724z"/>
	<path fill="#D200C2" d="M17.6682453,6.0897241c-0.0283108-0.049861-0.0764542-0.0809913-0.1158352-0.1201162
		c-0.0481033-0.0477905-0.1026134-0.0890536-0.1526241-0.1350198c-0.177227-0.1628966-0.353035-0.327343-0.5308018-0.4896469
		c-0.0796356-0.0727091-0.1658306-0.1384845-0.2360821-0.2209005c-0.0128365-0.0150595-0.0319443-0.0083871-0.0425186-0.022078
		c0.1198978,0.0051608,0.237114,0.0245862,0.3502331,0.0658107c0.206913,0.1939359,0.4147606,0.3868465,0.6294003,0.5722885
		C17.62286,5.8509698,17.6530819,5.9682326,17.6682453,6.0897241z"/>
	<path fill="#AE00B8" d="M16.5716114,7.0901704c0.0000038-0.0567565,0.0000095-0.1135125,0.0000153-0.170269
		c0.0318966-0.012063,0.0499992,0.012393,0.0677395,0.0293212c0.1324615,0.1264119,0.2693863,0.2479916,0.404665,0.3712687
		c0.1697254,0.154665,0.3374577,0.3115721,0.5100174,0.4631295c0.0238094,0.0209117,0.0454006,0.0441136,0.0680313,0.0662398
		c0.0186157,0.0182047,0.0397243,0.0297484,0.0661545,0.0303016c-0.0031967,0.0609746,0.0014954,0.1232662-0.029974,0.1795206
		c-0.029953,0.0131645-0.0477028-0.0102129-0.0638599-0.0258875c-0.0884171-0.0857778-0.1816292-0.1662621-0.2723789-0.2494369
		c-0.1373272-0.1258607-0.2754402-0.2508926-0.4128647-0.3766317c-0.1092262-0.0999403-0.2204342-0.1978045-0.3269405-0.3007216
		C16.5773907,7.1023436,16.5745392,7.0961676,16.5716114,7.0901704z"/>
	<path fill="#9000A9" d="M17.381031,8.7002249c-0.0788898-0.0703592-0.1585712-0.1398535-0.2365036-0.211257
		c-0.1731529-0.1586409-0.3454075-0.318264-0.5180912-0.4774179c-0.022459-0.0206981-0.0559006-0.0296535-0.0668678-0.0626321
		c0.0040035-0.0662608,0.008007-0.1325169,0.0120125-0.1987729c0.0211334-0.0069237,0.0349007,0.0066004,0.0482082,0.0186701
		c0.0774307,0.0702252,0.1544971,0.1408486,0.2318459,0.2111659c0.1436234,0.1305642,0.2870808,0.2613339,0.4299355,0.3927178
		c0.0669842,0.0616064,0.1398277,0.1173029,0.1990623,0.1872244C17.458231,8.6143551,17.4210148,8.6582727,17.381031,8.7002249z"/>
	<path fill="#A20098" d="M16.3299332,3.2917321c0.0004082,0.0190613,0.0148201,0.0292857,0.0268288,0.0401945
		c0.1752052,0.1591735,0.3510876,0.3176048,0.5259457,0.4771564c0.0991421,0.0904617,0.1967945,0.1825554,0.2948475,0.2742043
		c0.0080376,0.007513,0.0213242,0.0149403,0.0168571,0.027874c-0.004879,0.0141249-0.0199432,0.0087476-0.0307388,0.0087762
		c-0.0648212,0.0001721-0.1296463-0.0003796-0.1944695-0.0006895c-0.0823193-0.0725384-0.1619625-0.1480153-0.2433243-0.2216139
		c-0.1431561-0.1294951-0.2852802-0.2601318-0.4278336-0.3902864c-0.0601959-0.0549603-0.123848-0.1064353-0.1792068-0.1665993
		c-0.0128918-0.0140097-0.0330067-0.0246248-0.0286293-0.0490372C16.1701164,3.291718,16.2500248,3.2917249,16.3299332,3.2917321z"
		/>
	<path fill="#B400BB" d="M17.6882343,7.8801622c-0.011364,0.0155983-0.0208054,0.0185351-0.039875,0.005733
		c-0.0515728-0.0346212-0.0906639-0.0826674-0.1372833-0.122551c-0.1033802-0.0884423-0.1994476-0.1853647-0.300127-0.27704
		c-0.1680241-0.1529994-0.3371773-0.3047633-0.5061913-0.4566722c-0.0427818-0.0384502-0.0749149-0.0899687-0.133131-0.1097307
		c-0.0000019-0.0532074-0.0000057-0.1064148-0.0000076-0.1596222c0.0211658-0.0068827,0.0347538,0.0068693,0.0483131,0.0187192
		c0.0688324,0.0601482,0.1364746,0.1216846,0.2036934,0.1835713c0.1870556,0.172224,0.375164,0.3432755,0.5633888,0.5142155
		c0.0836487,0.0759654,0.1656704,0.1537404,0.2503681,0.2285767c0.0106907,0.0094466,0.0187187,0.0227818,0.0349159,0.0266147
		c0.0106544-0.022644,0.0027733-0.0442576,0.004076-0.0653362c0.0011063-0.0328059-0.0084457-0.0669184,0.0123863-0.0971141
		c-0.0000553-0.0733352-0.0001106-0.1466699-0.0001774-0.2200079c-0.0000477-0.0966229-0.000082-0.1932435-0.0001297-0.289866
		c-0.0000324-0.1066284-0.0000534-0.2132554-0.0000877-0.3198833c0.0009499-0.1340365,0.001915-0.2680712,0.0028839-0.4021144
		c0.0117931,0.025425,0.0064831,0.0525436,0.0064983,0.0787687c0.0002651,0.4397554,0.0001869,0.8795118-0.0007153,1.3192663
		C17.6969337,7.7838526,17.6913013,7.832005,17.6882343,7.8801622z"/>
	<path fill="#A700B4" d="M14.4392557,5.0379333c-0.0243225,0.0980673,0.0471745,0.1468582,0.1053829,0.2009149
		c0.1094036,0.1016021,0.2203159,0.2015862,0.3310289,0.3017712c0.1697206,0.1535792,0.3399754,0.3065686,0.5096073,0.4602461
		c0.0405531,0.0367379,0.0746469,0.0807266,0.1229811,0.108654c-0.0106153,0.0418429-0.0580702,0.0634561-0.0603456,0.1098766
		c-0.0210505,0.006537-0.0347271-0.0067706-0.0484314-0.0186739c-0.0676889-0.0587945-0.1338882-0.1193252-0.199831-0.1799893
		c-0.1881514-0.1730962-0.3773212-0.3450594-0.5661983-0.5173521c-0.0514917-0.0469685-0.1020498-0.0953684-0.1548891-0.1405869
		c-0.0510588-0.043695-0.0625896-0.0939736-0.0493622-0.1551051C14.4314337,5.1510372,14.4244385,5.0938396,14.4392557,5.0379333z"
		/>
	<path fill="#9B00AF" d="M15.4107809,6.3400812c-0.0040741,0.0532818-0.0081482,0.106565-0.0122223,0.1598468
		c-0.0249615,0.0180788-0.0407181-0.0012174-0.0555811-0.015543c-0.1303463-0.125627-0.2658014-0.2457523-0.3998442-0.3672867
		c-0.1709204-0.1549726-0.3373842-0.3149357-0.5134087-0.4642215c-0.0401688-0.0340657-0.0223665-0.0750504-0.0204163-0.1148086
		c0.0024281-0.0566587-0.0050716-0.1138959,0.0099001-0.1698236c0.0056953,0.0040331,0.0109653,0.009984,0.0100098,0.0163136
		c-0.0090122,0.0596676,0.0336046,0.0895786,0.0703354,0.1224136c0.1559296,0.1393948,0.3085413,0.2824359,0.4637461,0.4225883
		c0.1330166,0.1201172,0.2628365,0.243783,0.3985987,0.3608646C15.3795261,6.3056278,15.3948965,6.3231244,15.4107809,6.3400812z"/>
	<path fill="#A100B1" d="M16.5715981,7.440134c0.0000038-0.0534239,0.0000095-0.1068482,0.0000153-0.1602721
		c0.0217133-0.0136395,0.0341339,0.0052881,0.0475502,0.0151963c0.0549526,0.0405812,0.1026802,0.0897474,0.1523781,0.136116
		c0.1738091,0.1621604,0.3518467,0.3196721,0.5256042,0.4818954c0.1104164,0.1030855,0.2254257,0.2012768,0.3335724,0.3069048
		c-0.0069523,0.0454254-0.0227432,0.0879822-0.0420189,0.1294069c-0.0212135,0.0074053-0.0352097-0.0061455-0.0482674-0.0183973
		C17.4167347,8.2149105,17.2904205,8.1016855,17.16506,7.987443c-0.1351624-0.1231756-0.2705154-0.2461896-0.4052029-0.3698502
		C16.696434,7.5593657,16.6261597,7.5078893,16.5715981,7.440134z"/>
	<path fill="#BB00AD" d="M12.8399715,2.9978473c-0.0458794-0.0785379-0.1070232-0.1459255-0.1611462-0.2183642
		c-0.1749439-0.2341449-0.3525734-0.4662826-0.5291681-0.6991942c0.015625-0.0231199,0.0368147-0.0397356,0.0613441-0.0524788
		c0.0525999,0.0525711,0.106513,0.1039078,0.1575165,0.1579888c0.135457,0.1436288,0.2709503,0.2872658,0.4038486,0.433248
		c0.0737619,0.0810239,0.1546898,0.1554809,0.2222633,0.2421634C12.9463778,2.9104736,12.8935032,2.9545319,12.8399715,2.9978473z"
		/>
	<path fill="#A100B1" d="M15.4107809,6.3400812c-0.0432158-0.0101042-0.066678-0.0481586-0.0969801-0.074192
		c-0.0991812-0.0852098-0.1922016-0.1775451-0.2889299-0.2656693c-0.1724882-0.1571393-0.3459358-0.3132238-0.5190363-0.4696889
		c-0.0245514-0.0221939-0.0482492-0.0453067-0.0731096-0.0672164c-0.0278711-0.0245624-0.0065355-0.0633483-0.0135117-0.0950603
		c0.0025377-0.053565-0.0048294-0.1077385,0.0099888-0.1605468c-0.0203075,0.0972581,0.0547304,0.1416335,0.1105089,0.1951919
		c0.0488605,0.046917,0.1025248,0.0887885,0.1524353,0.1346631c0.1768732,0.1625729,0.3510342,0.3281674,0.5304556,0.4878607
		c0.0739117,0.065784,0.1407595,0.1403847,0.2253103,0.1939745C15.4405327,6.2611623,15.4142027,6.2970982,15.4107809,6.3400812z"/>
	<path fill="#AB00B5" d="M14.3400965,7.6498342c0.0769758,0.0479231,0.1335211,0.1191549,0.2008648,0.178081
		c0.1847448,0.1616521,0.3659801,0.3274183,0.5455303,0.494854c0.082571,0.0769997,0.1661892,0.15273,0.2497997,0.228549
		c0.1905069,0.1727543,0.3802528,0.3463516,0.5699282,0.5200195c0.0451975,0.0413818,0.088912,0.084383,0.1333084,0.1266384
		c-0.0771055,0.0002947-0.1544342,0.0079813-0.231081-0.0069447c0.0216513-0.0231695,0.0508509-0.0077477,0.0805264-0.0164595
		c-0.0118523-0.0204182-0.0294371-0.034565-0.0455055-0.0488415c-0.2126589-0.1889524-0.42066-0.3830338-0.6312313-0.5742741
		c-0.1354485-0.1230145-0.269722-0.2474499-0.4048681-0.3708143c-0.1301994-0.1188478-0.2583246-0.2400684-0.3918924-0.3552523
		c-0.0288553-0.0248842-0.0578041-0.0504103-0.0753775-0.0855684C14.3400984,7.709826,14.3400974,7.6798301,14.3400965,7.6498342z"
		/>
	<path fill="#9A00AE" d="M16.5715981,7.440134c0.0436134,0.019196,0.0739861,0.0561576,0.1080303,0.0865378
		c0.1396179,0.1245904,0.2750854,0.2538166,0.4128857,0.3804584c0.1523533,0.1400204,0.3054829,0.2792006,0.4586716,0.4183073
		c0.010828,0.0098314,0.0249367,0.0160484,0.0375156,0.0239439c-0.0079517,0.0407763-0.0404892,0.0703344-0.0503159,0.1102552
		c-0.0195255,0.0132513-0.0310841-0.0027351-0.0426044-0.0130548c-0.0765953-0.0686045-0.1520424-0.1384792-0.228159-0.2076187
		c-0.1804428-0.1638966-0.3594303-0.3293824-0.540308-0.4928155c-0.0527592-0.0476713-0.1073532-0.0938129-0.155714-0.1463408
		C16.5716,7.5465827,16.5715981,7.4933581,16.5715981,7.440134z"/>
	<path fill="#CB00BB" d="M15.7796936,4.118607c-0.0375242-0.054769-0.0894938-0.0963211-0.1386499-0.1385143
		c-0.050231-0.0431161-0.0978193-0.0892515-0.1470642-0.1331873c-0.1804047-0.1609461-0.3560028-0.3272722-0.5340061-0.4909232
		C14.938242,3.3360038,14.9099798,3.3226938,14.90026,3.291744c0.0632544,0.0000055,0.1265087,0.0000107,0.1897631,0.0000162
		c0.1299324,0.1189103,0.2598553,0.2378433,0.3902683,0.3562143c0.1328764,0.1206076,0.263279,0.2439542,0.3986931,0.3617587
		c0.0239019,0.0207934,0.0464077,0.0430121,0.0676394,0.0663838c0.0103598,0.0114045,0.0266218,0.0229206,0.0131483,0.0425167
		C15.8997469,4.1186247,15.8397198,4.1186156,15.7796936,4.118607z"/>
	<path fill="#BA00BB" d="M14.3400984,7.7398214c0.0824986,0.074162,0.1653261,0.1479607,0.2474279,0.222558
		c0.1863728,0.1693316,0.3731241,0.3382578,0.5581903,0.5090065c0.0767307,0.0707922,0.1536694,0.1412849,0.2311487,0.2112627
		c0.1697149,0.153285,0.3371239,0.3091269,0.5050316,0.4644022c0.0114756,0.0106125,0.0271568,0.019227,0.030858,0.0439701
		c-0.0358782,0-0.0700855,0-0.1042995,0.0000048c-0.0000086,0.0000057,0.0012789-0.0003767,0.0012789-0.0003767
		c-0.0561113-0.0339499-0.0979624-0.0847225-0.1454086-0.1282234c-0.1348362-0.1236229-0.2698956-0.2470779-0.4051447-0.370223
		c-0.1709194-0.1556187-0.3409691-0.3122139-0.5128889-0.4667587c-0.1248188-0.1122055-0.2463999-0.2280164-0.3721857-0.3382092
		c-0.0194578,0.0060544-0.0099154,0.0295525-0.0256538,0.0356536C14.3341837,7.86239,14.3400412,7.8009729,14.3400984,7.7398214z"/>
	<path fill="#8500A3" d="M14.3794098,6.0383277c-0.012619,0.0536733,0.0345221,0.0706754,0.0625038,0.0973482
		c0.0491247,0.0468273,0.1027718,0.08887,0.1528559,0.1347384c0.133419,0.1221881,0.2660246,0.2452631,0.3987045,0.3682547
		c0.011941,0.0110688,0.0264063,0.0212588,0.0266142,0.0404024c-0.1067295,0.0000091-0.213459,0.0000215-0.3201885,0.0000334
		c-0.0777006-0.0669384-0.1539383-0.1356702-0.2275276-0.2069283c-0.0367355-0.0355721-0.0812902-0.0621295-0.1133261-0.1025176
		C14.3597641,6.258842,14.3652763,6.1483202,14.3794098,6.0383277z"/>
	<path fill="#A8009D" d="M16.09021,3.2917111c0.0705318,0.0822144,0.1544609,0.1502559,0.2353249,0.2214613
		c0.046093,0.0405867,0.0892563,0.0842168,0.1352081,0.1250644c0.1401367,0.1245694,0.2757931,0.2541714,0.4136944,0.3812678
		c0.0338707,0.0312166,0.0770969,0.0532627,0.0947762,0.0997534c-0.0598812-0.000072-0.1197548-0.000134-0.1796284-0.000196
		c-0.1358223-0.1226885-0.2705669-0.2465539-0.4055786-0.3701332c-0.1472759-0.1348047-0.2965527-0.2674334-0.4414902-0.4047799
		c-0.0148067-0.01403-0.0362635-0.0259624-0.0322971-0.0524137C15.9702158,3.2917268,16.0302124,3.291719,16.09021,3.2917111z"/>
	<path fill="#BB00AD" d="M16.4491692,4.1188803c-0.059845-0.0000582-0.1196899-0.0001163-0.179533-0.000174
		c-0.1268921-0.1126585-0.2506332-0.2287886-0.3765831-0.3424561c-0.1309013-0.1181369-0.2599783-0.2382739-0.3912029-0.3560627
		c-0.041913-0.0376203-0.0940809-0.0686991-0.1116247-0.1284401c0.0599146,0.0000041,0.1198282,0.0000079,0.1797428,0.0000119
		c0.1176529,0.0976853,0.2265663,0.2050581,0.3403893,0.306987c0.137332,0.1229827,0.2710886,0.2499027,0.4094648,0.3717287
		c0.0386658,0.0340416,0.0726719,0.0730455,0.1135769,0.1048133C16.446209,4.0852365,16.4565754,4.0998068,16.4491692,4.1188803z"/>
	<path fill="#B400A7" d="M16.4491692,4.1188803c-0.0320473-0.0581946-0.0880871-0.0941381-0.1355991-0.1360068
		c-0.0520725-0.0458899-0.1017628-0.0946343-0.153965-0.1404181c-0.1406689-0.1233728-0.2753534-0.253552-0.4131794-0.3801968
		c-0.0486774-0.0447288-0.0997286-0.0868697-0.1493511-0.1305845c-0.0122681-0.010807-0.0264816-0.0209246-0.0271063-0.0399158
		c0.0599995,0.0000002,0.119998-0.0000002,0.1799974-0.000001c0.131259,0.1203146,0.2625675,0.2405908,0.3944149,0.3602419
		c0.1318512,0.1196513,0.2622414,0.2409172,0.3950367,0.3595564c0.0344467,0.0307746,0.0803356,0.0547047,0.0897636,0.1074495
		C16.5691776,4.1189637,16.5091724,4.1189222,16.4491692,4.1188803z"/>
	<path fill="#9600AC" d="M16.5716,7.5998068c0.0323715,0.0078435,0.053154,0.0340004,0.0755672,0.0541778
		c0.1367607,0.123117,0.2705898,0.2494769,0.4061394,0.3739495c0.1537971,0.1412306,0.3083153,0.2816772,0.4628448,0.4221067
		c0.0056515,0.0051365,0.0147476,0.0064831,0.0222359,0.0095959c-0.0096626,0.0389519-0.0315037,0.0708885-0.0577564,0.1002855
		c-0.0539818-0.0224628-0.0880051-0.0703869-0.1298447-0.1070957c-0.1396523-0.1225195-0.273571-0.2515516-0.4103699-0.377347
		c-0.111084-0.10215-0.2230225-0.203373-0.3350048-0.3045402c-0.0096588-0.0087247-0.0224819-0.013947-0.0338345-0.0207958
		C16.5715866,7.7000322,16.5715942,7.649919,16.5716,7.5998068z"/>
	<path fill="#AD00A2" d="M16.6291809,4.1190052c-0.0625362-0.0780287-0.1421947-0.138473-0.2157211-0.2047515
		c-0.0477543-0.0430481-0.0941143-0.0879366-0.1425076-0.1304517c-0.1403694-0.1233215-0.2754431-0.252677-0.412365-0.3799117
		c-0.0381527-0.0354524-0.0881863-0.0594988-0.1086216-0.1121342c0.0534172-0.0000074,0.1068354-0.000016,0.1602535-0.0000229
		c0.0735836,0.0857317,0.1614857,0.1563385,0.2451611,0.2313571c0.0431004,0.0386386,0.0845909,0.0789585,0.1279678,0.1173861
		c0.1547031,0.1370571,0.3064728,0.277441,0.4584122,0.4175866c0.018734,0.0172787,0.0442257,0.0311236,0.0478306,0.0610108
		C16.7361183,4.1190429,16.6826496,4.1190238,16.6291809,4.1190052z"/>
	<path fill="#C200B3" d="M15.3902254,3.2917473c0.0741529,0.0857608,0.161397,0.1576717,0.2461882,0.232136
		c0.0461788,0.0405543,0.0893497,0.0842581,0.1352997,0.1251817c0.1401224,0.1248002,0.2762604,0.2540767,0.4137096,0.3818684
		c0.0297203,0.0276303,0.0718346,0.0435147,0.0842171,0.0877867c-0.0534687-0.0000124-0.1069317-0.000011-0.1603966-0.0000095
		c-0.0583897-0.030849-0.0987492-0.083436-0.1459618-0.1267393c-0.1344528-0.1233208-0.2698259-0.2456956-0.4041748-0.3691418
		c-0.0927763-0.0852489-0.1844044-0.1718781-0.2796774-0.254503c-0.0224276-0.0194511-0.0606527-0.0334866-0.0494232-0.0765781
		C15.2834129,3.2917478,15.3368187,3.2917476,15.3902254,3.2917473z"/>
	<path fill="#8B00A6" d="M14.3401623,7.2798872c0.0579758,0.0276723,0.0967579,0.0789876,0.1431437,0.120163
		c0.1896029,0.1683102,0.3758698,0.3403835,0.5630426,0.5114264c0.0881224,0.0805278,0.1750679,0.1623435,0.2633238,0.2427239
		c0.1788559,0.1628981,0.35919,0.3241844,0.5369644,0.4882488c0.0767469,0.0708284,0.153348,0.1417131,0.2312593,0.211298
		c0.1026497,0.0916824,0.2018185,0.1872635,0.3023739,0.2812872c0.0083714,0.0078287,0.0159035,0.0165567,0.0235558,0.0245819
		c-0.0070438,0.0167599-0.0269432,0.0047035-0.0333729,0.0184278c-0.0101452,0.0006981-0.0202923,0.0014-0.0304394,0.0021019
		c-0.1350403-0.1304569-0.2756176-0.2549677-0.4143934-0.3813229c-0.1694956-0.1543245-0.3379049-0.3098726-0.5087194-0.4627829
		c-0.089097-0.0797567-0.1763077-0.1617117-0.2647476-0.2422647c-0.1412258-0.128634-0.2819014-0.2578712-0.423522-0.3860822
		c-0.0898991-0.0813866-0.1801987-0.1624579-0.2677612-0.2463408c-0.0396032-0.0379386-0.086585-0.067791-0.1207371-0.1114755
		C14.3401413,7.3265471,14.3401508,7.3032169,14.3401623,7.2798872z"/>
	<path fill="#9400AB" d="M15.309885,6.6790724c-0.0393791-0.0674963-0.1078281-0.1064129-0.1600513-0.1614552
		c-0.0464888-0.0490012-0.102047-0.0892682-0.1519747-0.13516c-0.1769361-0.1626329-0.3528442-0.3263865-0.5300894-0.4886789
		c-0.022912-0.0209785-0.0513821-0.0358863-0.0772762-0.0536051c0.0004387-0.0135427,0.0008764-0.0270848,0.0013132-0.040628
		c0.007556-0.0244746,0.0011978-0.0496583,0.0037889-0.0743637c0.020916-0.0237379,0.0356455-0.003232,0.0490475,0.008647
		c0.0694981,0.0615973,0.1389456,0.1233592,0.2067823,0.1867003c0.209713,0.195817,0.4250927,0.3854322,0.6343851,0.5817051
		c0.0361576,0.0339074,0.075717,0.0643849,0.1126013,0.0977278C15.3999453,6.6911197,15.4167976,6.682035,15.309885,6.6790724z"/>
	<path fill="#BA00BE" d="M17.6887608,7.5695262c0.000042,0.0366101,0.000082,0.0732207,0.000124,0.1098309
		c-0.0460854,0.0029421-0.0709133-0.0327139-0.0986195-0.0585976c-0.1711216-0.1598735-0.3453579-0.3163509-0.5179863-0.4745541
		c-0.1664467-0.1525359-0.3330669-0.3049312-0.5006485-0.4562459c-0.0000038-0.0399089-0.0000095-0.0798168-0.0000134-0.1197257
		c0.0642128,0.0395322,0.1130867,0.0971131,0.1684036,0.1467118c0.1789532,0.1604586,0.3533077,0.3260312,0.5307274,0.4882193
		c0.1271248,0.1162119,0.2563534,0.2301254,0.3845329,0.3451848C17.6651688,7.5592246,17.6736603,7.5699916,17.6887608,7.5695262z"
		/>
	<path fill="#8B00A6" d="M14.3401327,7.3498774c0.0379333,0.0087314,0.0601015,0.0409522,0.0864954,0.0640054
		c0.09869,0.086206,0.1923056,0.1781859,0.2892752,0.2664056c0.1692228,0.1539559,0.3407793,0.3053675,0.5088263,0.4605865
		c0.0816526,0.0754213,0.1635036,0.1505632,0.2459869,0.2250834c0.1895018,0.1712017,0.3778601,0.3436728,0.5662708,0.5160789
		c0.0918102,0.0840092,0.1828365,0.1688757,0.273838,0.2537642c0.0130367,0.0121603,0.0294056,0.0230522,0.0291882,0.044343
		c-0.0223045,0.0110493-0.0460262,0.009552-0.0697689,0.007884c0.0031948-0.0087757,0.0118465-0.0170116,0.0012608-0.0267487
		c-0.0757999-0.0697136-0.1492043-0.1422796-0.2280483-0.2083559c-0.0497122-0.0416594-0.0948486-0.0879745-0.1434031-0.130702
		c-0.1408377-0.1239357-0.2758884-0.2544222-0.4141283-0.38134c-0.1919718-0.1762486-0.3847656-0.3516026-0.5772285-0.5273161
		c-0.1140022-0.1040792-0.22789-0.2082863-0.3421297-0.3121047c-0.0663071-0.0602579-0.1332741-0.1197901-0.1997643-0.1798477
		c-0.0077991-0.0070457-0.0162001-0.0114427-0.0266905-0.0117445C14.3401194,7.3898716,14.340127,7.3698745,14.3401327,7.3498774z"
		/>
	<path fill="#C500C0" d="M14.3484526,7.9228883c0.0005894-0.0099597,0.0009584-0.0199394,0.0018311-0.0298738
		c0.0008326-0.0094776-0.0036001-0.0218663,0.0071487-0.0270143c0.0139494-0.0066805,0.0203533,0.0074573,0.0283079,0.0147271
		c0.1591721,0.1454759,0.3171635,0.2922606,0.4774256,0.4365211c0.157815,0.1420546,0.3148575,0.2848864,0.4701309,0.4297333
		c0.145505,0.1357327,0.2941513,0.268096,0.44102,0.4023743c0.0132828,0.012146,0.0236788,0.0274496,0.0354176,0.0412893
		c-0.0374641-0.0016632-0.0755129,0.0035419-0.11201-0.0095158c-0.0937481-0.0964518-0.197463-0.1822062-0.2960653-0.2734146
		c-0.095046-0.0879183-0.1904383-0.1756287-0.2870007-0.2619877c-0.177001-0.1582966-0.3508759-0.3200521-0.5265083-0.4798594
		c-0.0807495-0.0734749-0.1669416-0.1418991-0.2378073-0.226017C14.3497133,7.9341969,14.349082,7.9285421,14.3484526,7.9228883z"/>
	<path fill="#C700B8" d="M15.2300062,3.2917483c0.0019369,0.0247149,0.0223312,0.0365548,0.0376644,0.0507212
		c0.1182594,0.1092703,0.2371998,0.2178056,0.3560963,0.3263869c0.1507387,0.1376626,0.3017139,0.2750659,0.4523115,0.4128859
		c0.0121593,0.0111289,0.0221691,0.0246077,0.0331726,0.0369811c-0.0498295-0.00003-0.0996532-0.0000467-0.1494761-0.0000768
		c-0.0159321-0.0445962-0.0554485-0.0692945-0.0874605-0.0991035c-0.0894566-0.0832992-0.1822948-0.1629546-0.2729216-0.2450154
		c-0.1495104-0.1353817-0.2988157-0.2710011-0.4469576-0.4078753c-0.023592-0.0217993-0.0540028-0.0397115-0.0624123-0.0748928
		C15.1366844,3.2917562,15.1833458,3.2917521,15.2300062,3.2917483z"/>
	<path fill="#CE00C4" d="M14.3503428,7.9398508c0.0648413,0.0411782,0.1161995,0.0982361,0.1727228,0.1489515
		c0.1885605,0.1691942,0.3750019,0.3407507,0.5622177,0.5114431c0.077095,0.0702925,0.1541662,0.1406126,0.2311182,0.2110615
		c0.1209431,0.1107216,0.2420406,0.2212772,0.3621387,0.3329086c0.0093327,0.0086746,0.0332069,0.0143309,0.019187,0.0369101
		c-0.0127153-0.0010748-0.0254297-0.0021534-0.0381422-0.003232c-0.0161753-0.0083847-0.03514,0.0018797-0.0511427-0.0076532
		C15.5878468,9.1691685,15.5665627,9.17239,15.5476894,9.160512c0.0272493-0.000926,0.0413857-0.0085783,0.0149603-0.033021
		c-0.0999403-0.0924463-0.1987057-0.1862535-0.3010788-0.2759352c-0.0461569-0.0404348-0.0903368-0.0830612-0.1362228-0.1237373
		c-0.140377-0.1244373-0.2757406-0.2545137-0.4139709-0.3813982c-0.1014404-0.0931139-0.2042446-0.1847429-0.3066607-0.2767916
		c-0.0125389-0.0112677-0.0278339-0.0343504-0.0359621,0.0037241C14.355422,8.0298548,14.3491774,7.9853635,14.3503428,7.9398508z"
		/>
	<path fill="#9500AB" d="M15.3984108,6.5999618c-0.0528727-0.0107188-0.0817127-0.0561085-0.1184292-0.0876198
		c-0.0994911-0.0853872-0.1924953-0.1782789-0.2895613-0.2665586c-0.1681614-0.1529408-0.3371639-0.3049641-0.5065498-0.4565496
		c-0.0267277-0.0239191-0.0441542-0.0594206-0.0828085-0.0691247c-0.0052052-0.0033617-0.0058508-0.0074439-0.001936-0.0122476
		c0.0028257-0.0566216-0.0055208-0.113914,0.0101862-0.1697779c-0.0084944,0.0599036,0.017024,0.0968876,0.0652466,0.1355009
		c0.0968904,0.0775852,0.1837015,0.1676707,0.2757235,0.2514424c0.1740913,0.1584849,0.3490715,0.3159938,0.5232973,0.4743328
		c0.0270767,0.0246081,0.0523405,0.0512395,0.0780029,0.0773664c0.0131216,0.0133581,0.0260305,0.0261459,0.046977,0.0232019
		C15.398509,6.5332723,15.3984594,6.5666175,15.3984108,6.5999618z"/>
	<path fill="#A700B4" d="M16.5716114,7.0901704c0.0595913,0.0293961,0.0983791,0.083817,0.1468487,0.1260886
		c0.14011,0.1221905,0.2738285,0.2516866,0.4106998,0.3776164c0.1575871,0.1449862,0.315649,0.2894554,0.4741688,0.4334159
		c0.0155315,0.0141048,0.0325565,0.0285397,0.0549316,0.0323915c0.0114632,0.0315189-0.0109463,0.0595484-0.0092773,0.0900574
		c-0.0193901,0.0133343-0.0312557-0.0021915-0.0427532-0.0126715c-0.1189232-0.1083984-0.237608-0.2170701-0.3567352-0.3252397
		c-0.136301-0.1237645-0.2721558-0.2480316-0.4081726-0.3720999c-0.0904617-0.0825171-0.1832752-0.1626096-0.2697144-0.2495131
		C16.5716095,7.1568675,16.5716095,7.1235189,16.5716114,7.0901704z"/>
	<path fill="#A600B4" d="M16.5716076,7.1902161c0.0367432,0.0197921,0.0680046,0.0465279,0.0986977,0.0746017
		c0.1844635,0.168736,0.369833,0.3364825,0.5542831,0.5052333c0.0965729,0.0883522,0.1901131,0.1801047,0.2885818,0.2662563
		c0.0442562,0.038723,0.0815639,0.086503,0.1358128,0.1134329c-0.0004711,0.0248718-0.0069923,0.048171-0.0182648,0.0702333
		c-0.0470371-0.0137529-0.0733089-0.0555525-0.1075325-0.0848932c-0.1017895-0.0872574-0.1968384-0.1823163-0.2960339-0.2726636
		c-0.1700554-0.1548824-0.3413391-0.3084159-0.5119267-0.4627137c-0.0462914-0.0418696-0.0837612-0.0942411-0.1436138-0.1198411
		C16.5716114,7.24998,16.5716114,7.2200985,16.5716076,7.1902161z"/>
	<path fill="#B800BD" d="M16.5716305,6.6899595c0.0187836,0.0027184,0.0342026,0.0118418,0.0478954,0.0246029
		c0.0970192,0.0904064,0.1932602,0.1816692,0.2913494,0.270896c0.1678143,0.1526446,0.337904,0.3027992,0.5048008,0.4564285
		c0.0780201,0.0718169,0.1536579,0.146215,0.2355003,0.2137866c0.0113544,0.0093756,0.0250912,0.0158687,0.0377159,0.0236897
		c-0.0024929,0.0253119,0.0144367,0.0620317-0.0098648,0.072804c-0.0199852,0.0088577-0.0368214-0.0272565-0.0548553-0.0434618
		c-0.1701221-0.1528835-0.3402977-0.3057175-0.5094337-0.4596915c-0.0993786-0.0904698-0.1949654-0.1851835-0.2958755-0.2738709
		c-0.0819912-0.0720582-0.1559639-0.1534982-0.2472439-0.2148643C16.5716228,6.7368398,16.5716267,6.7133994,16.5716305,6.6899595z"
		/>
	<path fill="#CD00BD" d="M17.5700169,5.7400618c-0.0487232-0.0063701-0.0754929-0.0470629-0.107851-0.0752201
		c-0.1021137-0.0888638-0.1988297-0.1838984-0.2984982-0.275609c-0.0606823-0.0558376-0.1229916-0.1099048-0.1844788-0.1648688
		c-0.0174942-0.0156355-0.032526-0.0330839-0.0385723-0.0565882C17.2399807,5.2600503,17.450531,5.4499879,17.5700169,5.7400618z"/>
	<path fill="#7E00A0" d="M14.359046,6.3696589c0.0344181,0.0165653,0.0648823,0.0382605,0.0917702,0.0657277
		c0.0644493,0.0658364,0.1338568,0.1262956,0.2045403,0.1853204c0.0191631,0.0160017,0.0351067,0.0348129,0.0445442,0.0584002
		c-0.1092129,0.0004745-0.2184248,0.0009027-0.3276358,0.0014777c-0.0177031,0.0000925-0.0333538-0.0006533-0.0326643-0.0252743
		C14.3422775,6.559823,14.3464918,6.4644637,14.359046,6.3696589z"/>
	<path fill="#9300AB" d="M10.1695414,7.3499913c0.0186768,0.0347114,0.0224018,0.0721507,0.020195,0.1106749
		C10.1746292,7.4253044,10.1721935,7.3876281,10.1695414,7.3499913z"/>
	<path fill="#BC00BE" d="M11.3415632,6.1138029c0.0030279-0.0378475-0.0133944-0.0774813,0.0104179-0.113421
		C11.3433027,6.0377102,11.3602839,6.0773964,11.3415632,6.1138029z"/>
	<path fill="#B700BC" d="M14.4691868,4.5378051c-0.0017605,0.034049,0.009202,0.0690174-0.0073719,0.101995
		C14.4614143,4.6055951,14.4567289,4.5710807,14.4691868,4.5378051z"/>
	<path fill="#8C00A7" d="M14.3991261,5.7078614c0.000639,0.0040827,0.0012789,0.0081649,0.0019255,0.0122476
		c-0.0053997,0.0262098,0.0078812,0.0545979-0.0092468,0.0794387C14.3917751,5.7687869,14.3854437,5.7375255,14.3991261,5.7078614z"
		/>
	<path fill="#CF00C7" d="M15.5009079,4.7328401c0.0019255-0.0307565-0.0092554-0.0625677,0.0074158-0.0921369
		C15.508831,4.6716557,15.512722,4.7028794,15.5009079,4.7328401z"/>
	<path fill="#C900C4" d="M14.4990091,4.0470538c-0.0015211,0.031002,0.008997,0.0629244-0.0070982,0.0928121
		C14.4913616,4.1087055,14.4870367,4.0772567,14.4990091,4.0470538z"/>
	<path fill="#C900C4" d="M15.4809675,5.0329251c0.001812-0.030818-0.0093641-0.0626869,0.0074673-0.0922894
		C15.4888315,4.971633,15.4931335,5.0029449,15.4809675,5.0329251z"/>
	<path fill="#AF00B8" d="M11.3808823,7.0001521c-0.0191946-0.0174093-0.0074434-0.040195-0.0104961-0.0604095
		C11.3857536,6.9578171,11.3753033,6.9803767,11.3808823,7.0001521z"/>
	<path fill="#AF00B8" d="M11.37047,6.9398942c-0.0185156-0.0179639-0.0074091-0.0404744-0.0093584-0.060986
		C11.3789473,6.8969774,11.3672562,6.9195786,11.37047,6.9398942z"/>
	<path fill="#A400B3" d="M11.6799269,8.0996923c-0.0131645-0.0056515-0.0196095-0.0157356-0.0197706-0.0299664
		c0.000473-0.004406,0.000946-0.008812,0.0014238-0.0132313C11.6729727,8.0686455,11.6765947,8.0841074,11.6799269,8.0996923z"/>
	<path fill="#AF00B8" d="M11.3616838,6.8796263c-0.0171719-0.0164289-0.016017-0.0330939-0.0006409-0.0499439
		C11.3612595,6.8463292,11.3614712,6.8629775,11.3616838,6.8796263z"/>
	<path fill="#C500C0" d="M15.6084423,9.1702404c0.0172806,0.0009928,0.0358391-0.0065422,0.0511427,0.0076542
		C15.6419697,9.1791315,15.6242924,9.180788,15.6084423,9.1702404z"/>
</g>
</svg>
