<?xml version="1.0" encoding="utf-8"?>
<!-- Generator: Adobe Illustrator 24.1.1, SVG Export Plug-In . SVG Version: 6.00 Build 0)  -->
<svg version="1.1" id="Слой_1" xmlns="http://www.w3.org/2000/svg" xmlns:xlink="http://www.w3.org/1999/xlink" x="0px" y="0px"
	 viewBox="0 0 32 13" enable-background="new 0 0 32 13" xml:space="preserve" width="32px" height="13px">
<g>
	<path fill="#292929" d="M13.7401419,12.4192705c-0.0100737-0.0037689-0.022933,0.0006809-0.0305462-0.0103483
		c-0.0157518-0.0083055-0.0349579-0.0078716-0.0493898-0.019515c-0.1216326-0.0401011-0.2382755-0.0926991-0.3554316-0.1437607
		c-0.0686264-0.0299091-0.1350346-0.064908-0.2024403-0.0976162c-0.0156212-0.0023355-0.029212-0.0093737-0.0420542-0.0181475
		c-0.0140429-0.0068474-0.0280876-0.0136938-0.0421305-0.0205412c-0.0216112-0.0053797-0.0426331-0.0119114-0.0579567-0.0296001
		c-0.2062674-0.1081877-0.4073572-0.2253723-0.6022673-0.3527803c-0.151392-0.098959-0.29986-0.2023048-0.4393816-0.3178329
		c-0.0126648-0.0098534-0.0238075-0.0216885-0.0382061-0.0292778c-0.2389641-0.1884632-0.4610357-0.3957024-0.6688147-0.6174593
		c-0.1732674-0.1849232-0.3380518-0.3772888-0.4885054-0.5822382c-0.1149445-0.15658-0.2231083-0.3174105-0.3247938-0.4822531
		c-0.0713396-0.1156492-0.13486-0.2365446-0.199934-0.3562288c-0.0810833-0.1491318-0.1524782-0.3025675-0.2177954-0.4586344
		C9.9152079,8.7270403,9.8574696,8.567996,9.8026733,8.4076729C9.7401218,8.224658,9.6895676,8.0383921,9.6439314,7.8513064
		C9.6132193,7.7254019,9.5917988,7.5962381,9.5705233,7.4676018c-0.0181055-0.1094651-0.0264044-0.2202621-0.04848-0.3291531
		C9.5170288,7.1137114,9.5249624,7.085885,9.5187569,7.0596924c-0.008297-0.0201187,0.0024614-0.0425229-0.0074911-0.0624428
		C9.510457,6.9814072,9.5096493,6.9655657,9.5088415,6.9497228C9.50037,6.9255085,9.5110283,6.8993969,9.5014553,6.8752918
		c-0.0008945-0.0251822-0.00179-0.0503645-0.0026855-0.0755467C9.4894161,6.7622576,9.502264,6.7233372,9.4914227,6.685946
		C9.4914198,6.5253134,9.4914169,6.3646817,9.4914141,6.2040496c0.0108576-0.037395-0.0020018-0.0763216,0.0073557-0.1138139
		c0.0008945-0.0251832,0.0017881-0.0503669,0.0026817-0.0755501C9.511034,5.990582,9.5003681,5.964469,9.5088415,5.9402561
		c0.0008068-0.0158439,0.0016146-0.0316868,0.0024223-0.0475307c0.0099564-0.019917-0.0008049-0.0423203,0.007493-0.0624371
		c0.0105972-0.1013145,0.015749-0.2035699,0.033062-0.3037243c0.0262432-0.1518173,0.052597-0.3036489,0.0876799-0.4540682
		c0.0433941-0.1860552,0.0920687-0.3701444,0.1505661-0.5520515C9.845356,4.3485107,9.9059019,4.1783476,9.9773493,4.0129719
		c0.068327-0.1581511,0.139348-0.3153071,0.2224102-0.4672959c0.1216326-0.2225642,0.2472115-0.4423854,0.3915405-0.6508069
		c0.1254663-0.1811821,0.2592211-0.3557696,0.4035997-0.5232589c0.1590881-0.18455,0.3255348-0.3612535,0.5019426-0.5284705
		c0.1397734-0.1324931,0.2844305-0.2600964,0.4406462-0.373654c0.0118885-0.0086423,0.0219631-0.0197806,0.0328798-0.029759
		c0.0147743-0.0071293,0.025692-0.0194421,0.0387716-0.0288485c0.1554985-0.1191798,0.3156223-0.232303,0.4828415-0.333884
		c0.4818869-0.2927327,0.990119-0.5289909,1.5293846-0.6963648c0.7041092-0.2185372,1.4251194-0.3197885,2.161644-0.2968517
		c1.2844009,0.0399986,2.4635258,0.4123802,3.5290642,1.1349989c0.0927792,0.0629203,0.1837063,0.1285689,0.2754917,0.1929507
		c0.0161915,0.0074185,0.0290737,0.0191354,0.0412788,0.0317359c0.0123787,0.0179651,0.0289612,0.0304668,0.0493717,0.0379946
		c0.0152969,0.0086339,0.0292091,0.0189754,0.0403976,0.0326834c0.1038532,0.0950216,0.2144604,0.1821716,0.3183956,0.2773023
		c0.1364384,0.1248804,0.267252,0.2553105,0.3937054,0.389791c0.1519775,0.1616223,0.292675,0.333214,0.4254608,0.5112226
		c0.2456646,0.3293271,0.4593639,0.6780183,0.6366978,1.0486374c0.2010059,0.4200943,0.3561649,0.8561242,0.4577789,1.3112805
		c0.0527363,0.2362051,0.0955296,0.4736171,0.1192474,0.7144651c0.0021,0.0213203,0.0074749,0.0423188,0.0113297,0.0634661
		c0.0083332,0.0200648-0.0025196,0.0424452,0.0075188,0.0623035c0.0007992,0.0158877,0.0015965,0.031775,0.0023937,0.0476627
		c0.0084801,0.0242009-0.0021801,0.0502992,0.0073776,0.0743928c0.0008926,0.0251946,0.0017872,0.0503883,0.0026798,0.075583
		c0.009409,0.0374227-0.0035076,0.0762911,0.0073624,0.1136184c0.0000057,0.1607375,0.0000095,0.321475,0.0000153,0.4822125
		c-0.0108986,0.0373363,0.0020332,0.0762191-0.0073776,0.1136518c-0.0008907,0.0251913-0.0017796,0.0503821-0.0026703,0.0755739
		c-0.009573,0.0241003,0.0010834,0.0502062-0.0073757,0.0744171c-0.0007973,0.0158825-0.0015984,0.031765-0.0023994,0.0476475
		c-0.010046,0.0198588,0.0008087,0.0422401-0.0075245,0.0623055c-0.0407448,0.3332901-0.0937042,0.6642041-0.1812115,0.9890771
		c-0.1202965,0.4466248-0.2850876,0.8757-0.5000305,1.2853012c-0.1864204,0.3552475-0.4046783,0.6894608-0.6532364,1.0048523
		c-0.2072773,0.2630119-0.4371548,0.5042505-0.6801701,0.7333126c-0.1119328,0.1055069-0.2317314,0.2026701-0.3479633,0.3036175
		c-0.0111904,0.0137138-0.0251102,0.0240583-0.040411,0.0326948c-0.0990372,0.0714025-0.1977768,0.1432219-0.2971706,0.2141266
		c-0.2414627,0.1722536-0.4957561,0.3231354-0.7594757,0.4587984c-0.2119751,0.1090441-0.4291344,0.2059031-0.6518917,0.2905111
		c-0.0106354,0.0040398-0.0199547,0.011549-0.0298862,0.0174408c-0.0159283,0.0120039-0.0354156,0.0135279-0.0538082,0.0182734
		c-0.0117016-0.0028811-0.0179119,0.0066175-0.0261288,0.01159c-0.0328999,0.0288801-0.0782681,0.0204563-0.11483,0.0383778
		c-0.0292168,0.0075693-0.0587845,0.0141468-0.0849686,0.0302353c-0.0550709,0.0131369-0.1053391,0.0420485-0.1621799,0.0493774
		l0.0011654-0.0007792c-0.0219002,0.0127239-0.0473843,0.0134869-0.0707836,0.0212049l0.0010548-0.0006132
		c-0.0225563,0.0110931-0.0474129,0.0140972-0.0713692,0.0202608l0.0011578-0.0007591
		c-0.1622124,0.0485277-0.3275127,0.0837946-0.4932175,0.1180029c-0.09729,0.0200872-0.1955452,0.0351152-0.2930088,0.0538206
		c-0.0654259,0.012557-0.1331596,0.0230665-0.200758,0.0269489c-0.0393066,0.0022583-0.0784111,0.0081501-0.1174946,0.0116987
		c-0.1132126,0.0102758-0.2257099,0.0262423-0.339901,0.0170574c-0.0195446-0.0015736-0.0399303-0.0037022-0.0592632,0.003809
		c-0.1703014,0.0000029-0.3406048,0.0000048-0.5109072,0.0000076c-0.0478563-0.0065069-0.0957613-0.0080957-0.143384,0.0011883
		c-0.0133543,0.0026035-0.0264053,0.0035715-0.0395622,0.0014505c-0.1204453-0.0194149-0.2431154-0.0179272-0.3634176-0.0363455
		c-0.2104216-0.032217-0.420516-0.0671434-0.6283236-0.113903c-0.1103878-0.0248375-0.2209845-0.0492182-0.3289433-0.0837574
		l0.0011501,0.0007696c-0.0239592-0.0061588-0.0488253-0.0091238-0.0713682-0.0202732l0.0010509,0.0006247
		c-0.0234089-0.0076904-0.0488834-0.0084801-0.0707912-0.0211859l0.0011539,0.0007753
		c-0.0568371-0.0073318-0.1071005-0.0362482-0.1621714-0.0493793c-0.0299091-0.0096579-0.0598173-0.0193138-0.0897255-0.0289717
		C13.8168917,12.4363403,13.770875,12.4490185,13.7401419,12.4192705z"/>
	<path fill="#FEFEFE" d="M14.2409115,12.5765533c0.169796,0.038641,0.3382778,0.0826626,0.5097122,0.1145735
		c0.3125954,0.0581856,0.6271439,0.0973587,0.9449215,0.1101389c0.0163765,0.000658,0.032629,0.0043573,0.0489683,0.0066471
		c-0.0543337,0.0060558-0.1095276-0.0087767-0.1629915,0.0255346c-0.0255089,0.0163679-0.0719423,0.0189981-0.09869-0.0191345
		c-0.0139313-0.0198612-0.0288897-0.0193462-0.0451527-0.0027456c-0.0034208,0.0034914-0.0078392,0.0060816-0.0120163,0.0087452
		c-0.0401764,0.0256243-0.0675592-0.0273418-0.0880003-0.0223227c-0.0307236,0.0075464-0.054204,0.0367432-0.0830593-0.0013218
		c-0.0049057-0.0064697-0.0129652-0.0187454-0.0177832-0.0133772c-0.0500479,0.0557814-0.082737-0.0275965-0.1269426-0.0151472
		c-0.00313,0.0008821-0.0099726-0.0079575-0.011919-0.0068264c-0.0867586,0.0504379-0.1521177-0.0315361-0.2310181-0.0394878
		c-0.1960297-0.0197573-0.3869009-0.0749006-0.5781984-0.1232347
		C14.2716961,12.5942888,14.2521534,12.5940294,14.2409115,12.5765533z"/>
	<path fill="#FEFEFE" d="M16.2554493,12.8079128c0.1175041-0.0091257,0.2350788-0.0174007,0.3524952-0.0275316
		c0.3765049-0.0324869,0.7470226-0.0991507,1.1121216-0.1964092c0.0127583-0.0033989,0.0260048-0.0049667,0.0390244-0.0073938
		c-0.029808,0.0279284-0.0702095,0.0248871-0.1057835,0.0357046c-0.1500454,0.0456285-0.3052597,0.0699825-0.4574699,0.1068316
		c-0.0598221,0.0144815-0.1239872,0.0178928-0.1854572,0.0331745c-0.0155067,0.0038557-0.0204296,0.013072-0.0303955,0.0196457
		c-0.0107841,0.0071115-0.024065,0.0207911-0.0354195,0.0119495c-0.0477734-0.0372009-0.0829773,0.0006151-0.1261673,0.0102777
		c-0.0385914,0.0086308-0.0857334,0.0259924-0.1186905,0.0187941c-0.0343323-0.0074978-0.0543957-0.01402-0.0777721,0.0130787
		c-0.0024643,0.0028563-0.0106831,0.0040913-0.0141602,0.0022221c-0.0462456-0.0248671-0.0867348-0.0210209-0.1330128,0.0079594
		c-0.0220184,0.0137873-0.0580807,0.002429-0.0880184-0.0172834C16.3482399,12.7935762,16.2993488,12.8143568,16.2554493,12.8079128
		z"/>
	<path fill="#FEFEFE" d="M18.1450157,12.4576483c0.0366268-0.0177259,0.0746479-0.0312824,0.11483-0.0383778
		c0.0038471,0.0334597-0.0118866,0.0491552-0.0426426,0.0362206C18.190979,12.4444599,18.1690483,12.4641399,18.1450157,12.4576483z
		"/>
	<path fill="#FEFEFE" d="M13.7401419,12.4192705c0.0387373,0.0075302,0.0766668,0.0172987,0.1100683,0.0396423
		c-0.0255117-0.0001793-0.0492153-0.0116425-0.076993-0.0018311C13.7431431,12.4677067,13.7384548,12.4433346,13.7401419,12.4192705
		z"/>
	<path fill="#FEFEFE" d="M13.9399357,12.4878836c0.056139,0.0096188,0.1093826,0.0287371,0.1621647,0.049386
		C14.0390778,12.5502634,13.9936237,12.5055532,13.9399357,12.4878836z"/>
	<path fill="#FEFEFE" d="M17.8978672,12.537261c0.0527954-0.0206108,0.1060352-0.0397673,0.1621799-0.0493774
		C18.0063572,12.5055532,17.9609032,12.5502758,17.8978672,12.537261z"/>
	<path fill="#FEFEFE" d="M12.9601927,12.0797415c0.0230865,0.002491,0.0426254,0.0119286,0.0579567,0.0296001
		C12.9868813,12.1228657,12.9575338,12.1326284,12.9601927,12.0797415z"/>
	<path fill="#FCFCFC" d="M9.4914227,6.685946C9.5012398,6.723403,9.499383,6.7616138,9.4987698,6.7997451
		C9.4817724,6.7627506,9.4932299,6.7239203,9.4914227,6.685946z"/>
	<path fill="#FCFCFC" d="M22.5011997,6.7997308c-0.0006638-0.0380735-0.0024052-0.0762167,0.0073776-0.1136327
		C22.5066872,6.724,22.5182819,6.7627959,22.5011997,6.7997308z"/>
	<path fill="#FCFCFC" d="M22.5085621,6.2038665c-0.009758-0.0373998-0.0080318-0.0755434-0.0073624-0.1136184
		C22.5182705,6.1271739,22.5067043,6.1659551,22.5085621,6.2038665z"/>
	<path fill="#FCFCFC" d="M9.4987698,6.0902357C9.4993811,6.1283565,9.5012684,6.1665602,9.491416,6.2040277
		C9.4932404,6.1660714,9.4817648,6.1272335,9.4987698,6.0902357z"/>
	<path fill="#FEFEFE" d="M13.6602058,12.3894072c0.0188055,0.000576,0.0362034,0.0047188,0.0493898,0.019515
		C13.6872005,12.4174271,13.6702728,12.4120979,13.6602058,12.3894072z"/>
	<path fill="#FEFEFE" d="M17.828249,12.5576868c0.0219479-0.0125618,0.0460148-0.0180473,0.0707817-0.0212002
		C17.8795834,12.5573816,17.8546848,12.5600967,17.828249,12.5576868z"/>
	<path fill="#FEFEFE" d="M14.1706934,12.5570498c0.0250072,0.0024652,0.04914,0.0080023,0.0713615,0.020278
		C14.2154093,12.5806398,14.190731,12.5770092,14.1706934,12.5570498z"/>
	<path fill="#FEFEFE" d="M17.7579346,12.5773344c0.0222969-0.0120077,0.0463181-0.0179377,0.0713692-0.0202579
		C17.8092537,12.5770006,17.7845802,12.5806398,17.7579346,12.5773344z"/>
	<path fill="#FEFEFE" d="M18.2859745,12.4076805c0.0165539-0.0101595,0.0336781-0.0186415,0.0538082-0.0182734
		C18.328804,12.4159822,18.308403,12.4148169,18.2859745,12.4076805z"/>
	<path fill="#FEFEFE" d="M14.1009531,12.5364885c0.0247593,0.0031719,0.0488434,0.0085993,0.0707865,0.0211887
		C14.1453037,12.560112,14.12041,12.5573807,14.1009531,12.5364885z"/>
	<path fill="#FCFCFC" d="M22.4911537,6.9497218c-0.0008621-0.0251179-0.0025196-0.0503144,0.0073719-0.0743923
		C22.4969234,6.9001946,22.5075455,6.9262972,22.4911537,6.9497218z"/>
	<path fill="#FCFCFC" d="M9.5014553,6.8752918C9.5114098,6.8993592,9.5097046,6.924583,9.5088415,6.9497228
		C9.4924574,6.9262938,9.5030689,6.9001865,9.5014553,6.8752918z"/>
	<path fill="#FCFCFC" d="M22.4985218,6.0146651c-0.009882-0.0240617-0.0082207-0.0492678-0.0073776-0.0743928
		C22.5075569,5.9636869,22.4969234,5.9897828,22.4985218,6.0146651z"/>
	<path fill="#FCFCFC" d="M9.5088415,5.9402561c0.000865,0.0251231,0.0025692,0.0503292-0.0073843,0.0744047
		C9.5030708,5.9897919,9.4924564,5.9636836,9.5088415,5.9402561z"/>
	<path fill="#FCFCFC" d="M20.078207,11.4085302c0.0134716-0.0108986,0.0269413-0.0217972,0.040411-0.0326948
		C20.1126652,11.3960209,20.1002541,11.4082308,20.078207,11.4085302z"/>
	<path fill="#FEFEFE" d="M13.0602798,12.1298828c0.017334-0.0016346,0.029726,0.0081825,0.0420542,0.0181475
		C13.0799599,12.1613388,13.069972,12.1459541,13.0602798,12.1298828z"/>
	<path fill="#FCFCFC" d="M9.5187569,5.8302884c0.0013418,0.0212693,0.0012197,0.0423632-0.007494,0.0624313
		C9.5125494,5.871768,9.5034122,5.8495593,9.5187569,5.8302884z"/>
	<path fill="#FCFCFC" d="M22.4887524,5.8926096c-0.0086727-0.0200238-0.0088482-0.0410738-0.0075226-0.062304
		C22.4965763,5.8495245,22.4874401,5.8716979,22.4887524,5.8926096z"/>
	<path fill="#FCFCFC" d="M12.00914,1.4108781c-0.0076427,0.0167116-0.0204563,0.0264773-0.0387716,0.0288488
		C11.9795027,1.4250184,11.9897699,1.4118321,12.00914,1.4108781z"/>
	<path fill="#FCFCFC" d="M20.1186142,1.5141411c-0.0134659-0.0108945-0.0269318-0.021789-0.0403976-0.0326834
		C20.1002598,1.4817528,20.1126633,1.4939606,20.1186142,1.5141411z"/>
	<path fill="#FCFCFC" d="M20.0288448,1.4434631c-0.0137596-0.0105786-0.0275173-0.0211573-0.0412788-0.0317359
		C20.0098553,1.4112155,20.0220661,1.4238079,20.0288448,1.4434631z"/>
	<path fill="#FCFCFC" d="M22.4812298,7.0596747c-0.0013218-0.0212278-0.0011539-0.0422754,0.0075245-0.0623002
		C22.4874363,7.0182815,22.4965801,7.0404568,22.4812298,7.0596747z"/>
	<path fill="#FCFCFC" d="M9.5112648,6.9972496c0.0087233,0.0200672,0.0088005,0.041172,0.0074921,0.0624428
		C9.5034122,7.0404191,9.5125494,7.0182099,9.5112648,6.9972496z"/>
	<path fill="#FCFCFC" d="M11.8803377,11.3798504c0.0186205,0.00208,0.0303984,0.0130892,0.0382061,0.0292778
		C11.8993568,11.4077864,11.8891544,11.394721,11.8803377,11.3798504z"/>
	<path fill="#818181" d="M15.7888832,0.6927989c0.20825-0.0005369,0.4171772-0.0119638,0.6245937,0.0009137
		c0.3198547,0.0198585,0.6366882,0.0671813,0.9494896,0.1416186c0.3641834,0.0866647,0.7175694,0.203015,1.0597019,0.354857
		c0.3283463,0.1457247,0.6393871,0.321969,0.9399586,0.5181677c0.1725636,0.1126405,0.3322811,0.2411709,0.4914513,0.3712766
		c0.1832962,0.1498284,0.3513508,0.315753,0.5131207,0.4873312c0.2023277,0.2145953,0.3877602,0.4437277,0.5524883,0.6893361
		c0.1555958,0.2319922,0.2990398,0.4713748,0.4203701,0.722405c0.131279,0.2716119,0.2376366,0.5535429,0.3252907,0.8432329
		c0.0662346,0.2188873,0.1146564,0.4410601,0.1595097,0.6643958c0.0246773,0.1228819,0.0303612,0.2488365,0.0469055,0.3730125
		c0.0365829,0.2745638,0.0295467,0.5502553,0.0264263,0.8256369c-0.0018673,0.165031-0.0260983,0.3290062-0.0434875,0.4932961
		c-0.0267029,0.2522545-0.0798798,0.4988184-0.1462021,0.7424541c-0.0836487,0.3072829-0.1922112,0.605844-0.3250561,0.896049
		c-0.117197,0.2560186-0.2564163,0.4994707-0.4089775,0.7347488c-0.1268711,0.1956654-0.2655201,0.3835325-0.4193497,0.5603876
		c-0.1420441,0.1633062-0.2917767,0.3185825-0.4456501,0.4702454c-0.1075668,0.1060228-0.2236385,0.2026119-0.3389072,0.3000174
		c-0.0264702,0.0223675-0.0451717,0.0288391-0.0736046-0.0071239c-0.242506-0.3067465-0.4875202-0.6115179-0.7334061-0.9155703
		c-0.0211372-0.0261374-0.0153351-0.0365286,0.0066948-0.0540667c0.2322521-0.1849117,0.4399967-0.3944969,0.6332188-0.6197863
		c0.2716751-0.3167591,0.4878445-0.6683178,0.6636105-1.0450478c0.0970516-0.2080145,0.1713963-0.425034,0.2353859-0.6458149
		c0.0689545-0.2379093,0.1146164-0.4802823,0.1434231-0.725482c0.0287399-0.2446647,0.0327492-0.491446,0.0207558-0.7370701
		c-0.0117798-0.2412143-0.0433521-0.4810991-0.0952415-0.7177439c-0.0517139-0.2358589-0.1225681-0.4657645-0.2096786-0.6908274
		c-0.0769501-0.1988201-0.1668053-0.39148-0.2741108-0.5758314c-0.1541481-0.2648304-0.3230419-0.5187924-0.5290051-0.747462
		c-0.0958538-0.1064186-0.1934891-0.2107701-0.2958317-0.3107064c-0.2256298-0.2203221-0.4731655-0.412426-0.7413521-0.5788326
		c-0.3422337-0.2123525-0.7029343-0.3842568-1.0868301-0.5062881c-0.2694054-0.0856371-0.5448875-0.1445169-0.824976-0.1834328
		c-0.2528896-0.0351367-0.5069675-0.0287151-0.7609739-0.0290737c-0.0132799-0.0000188-0.0265579-0.0011759-0.0398369-0.0018029
		c-0.0190802-0.0414242-0.0240316-0.0865908-0.0235147-0.1304049c0.003499-0.2970353-0.0088549-0.5938312-0.010828-0.8907622
		C15.7742863,0.7430635,15.7694759,0.7154211,15.7888832,0.6927989z"/>
	<path fill="#00AD12" d="M10.1018152,6.5104551c0.0000286-0.1199489,0.0000572-0.2398987,0.0000858-0.359848
		c0.0279703,0.0309858,0.0448084,0.0693622,0.0699539,0.1026807c0.2837954,0.3760343,0.5681009,0.7516913,0.8524446,1.1273065
		c0.2551966,0.3371096,0.5069456,0.6768503,0.7670135,1.0102634c0.0072517,0.0092974,0.0095348,0.0272694,0.0286932,0.0211906
		c0.0634308,0.1088448,0.12502,0.2188158,0.1906881,0.3262949c0.1257658,0.2058401,0.2659292,0.4012203,0.4250412,0.5831289
		c0.1030588,0.1178246,0.2105551,0.231226,0.3235092,0.3392677c0.0887203,0.0848608,0.1784773,0.1691217,0.2775688,0.2421265
		c0.0283995,0.0209217,0.0288229,0.0340366,0.0058069,0.0611868c-0.0762901,0.0899944-0.1490803,0.1829538-0.2232132,0.2747765
		c-0.0320415,0.0039158-0.0416555-0.0233459-0.0558939-0.0420732c-0.1411543-0.1856556-0.2812538-0.3721123-0.4220343-0.5580482
		c-0.3408871-0.450222-0.6809416-0.9010715-1.0214148-1.3516054c-0.3113432-0.4119878-0.6232109-0.8235769-0.9343166-1.2357459
		c-0.0822906-0.1090217-0.1638165-0.2186646-0.2480364-0.3261786c-0.0244236-0.0311799-0.0342722-0.0620084-0.0328941-0.1005831
		C10.1061716,6.5866795,10.1097069,6.5482941,10.1018152,6.5104551z"/>
	<path fill="#00A412" d="M10.1018152,6.5104551c0.0180578,0.0414824,0.0048332,0.0850568,0.0082846,0.1275325
		c0.0014772,0.0181875,0.0014191,0.0347338,0.0139523,0.0512099c0.1735039,0.2280946,0.3461571,0.4568353,0.5189276,0.6854873
		c0.2177238,0.2881451,0.4353085,0.576395,0.6530542,0.8645244c0.2257309,0.2986965,0.4516201,0.5972738,0.6773682,0.8959579
		c0.2177601,0.2881193,0.4353647,0.576355,0.6531858,0.8644276c0.0519476,0.0686998,0.1041603,0.1372051,0.1570454,0.2051821
		c0.0099993,0.0128517,0.023757,0.0227804,0.035778,0.0340557c-0.0584183,0.0844011-0.1278715,0.1599998-0.1915722,0.2401886
		c-0.031949,0.0140762-0.0404377-0.0149221-0.0531788-0.0312576c-0.1116638-0.1431599-0.2195063-0.2892303-0.3291159-0.4339581
		c-0.3419008-0.4514437-0.6828737-0.9035873-1.0242777-1.3554058c-0.322319-0.4265652-0.6458941-0.8521814-0.966814-1.2798033
		c-0.0220041-0.0293198-0.0429039-0.0599647-0.068574-0.0857487c-0.0211954-0.0212889-0.0304317-0.0454559-0.0356302-0.0730395
		c-0.0165215-0.1569018-0.035821-0.3135819-0.0483961-0.4707994C10.0955324,6.6699953,10.1014376,6.590004,10.1018152,6.5104551z"/>
	<path fill="#009D12" d="M10.1502485,7.2198081c0.0464125,0.0778108,0.1089468,0.1435475,0.1625872,0.2159901
		c0.1784525,0.2410011,0.3598881,0.4797978,0.5405016,0.7191968c0.2175369,0.2883406,0.4353695,0.5764599,0.6531372,0.8646259
		c0.2257538,0.2987366,0.4514341,0.5975285,0.6774406,0.8960743c0.1359949,0.1796446,0.2725801,0.3588419,0.4087944,0.5383215
		c0.0092115,0.0121393,0.0181103,0.0241404,0.03514,0.0250072c-0.0537167,0.0529976-0.1010208,0.1116095-0.1488256,0.1697807
		c-0.0355587,0.013752-0.0462761-0.0171366-0.0608292-0.0363111c-0.1308813-0.1724434-0.2616005-0.3450146-0.3920488-0.517787
		c-0.3411655-0.4518623-0.6826258-0.9035034-1.0242653-1.3550062c-0.2300911-0.3040829-0.4584217-0.6095037-0.6904612-0.9121151
		c-0.0201664-0.026299-0.0469236-0.0472941-0.0619955-0.0776124C10.2094269,7.5745487,10.1655521,7.3998504,10.1502485,7.2198081z"
		/>
	<path fill="#006C12" d="M17.5790787,8.4495583c-0.1071587,0.2161102-0.2674694,0.3819361-0.4752102,0.5031681
		c-0.2292252,0.1337729-0.4792461,0.197566-0.7407799,0.2284365c-0.1607513,0.0189743-0.3217258,0.0244589-0.4823799,0.016428
		c-0.2558498-0.0127907-0.5074701-0.0533829-0.7463989-0.152112c-0.0227718-0.0094109-0.0436935-0.0233011-0.0654745-0.0351114
		c0.0130281-0.0316172,0.0437403-0.0336714,0.0704126-0.039834c0.2270412-0.0524578,0.4546938-0.10221,0.6821737-0.1527243
		c0.5573263-0.1237621,1.1146345-0.2475967,1.6720381-0.3710079C17.5218315,8.4405193,17.5512943,8.4263592,17.5790787,8.4495583z"
		/>
	<path fill="#007312" d="M17.5790787,8.4495583c-0.0835056,0.0024624-0.1623936,0.0294504-0.2429047,0.0470476
		c-0.4440517,0.0970545-0.887804,0.1954775-1.3315582,0.2938948c-0.2565947,0.0569105-0.5131063,0.1142235-0.7694044,0.1724539
		c-0.056181,0.012763-0.1146812,0.0184231-0.1663647,0.0474043c-0.1277094-0.0506325-0.2377615-0.1281719-0.3375502-0.2213583
		c0.0112133-0.0281582,0.0378551-0.0296612,0.0617599-0.0350685c0.4105501-0.0928783,0.8216305-0.1833839,1.2325153-0.2747707
		c0.5294361-0.1177549,1.0589218-0.2352867,1.5884819-0.3524857c0.025301-0.005599,0.0515175-0.0179071,0.0760403,0.0030375
		C17.6732292,8.2433167,17.6309376,8.3480978,17.5790787,8.4495583z"/>
	<path fill="#00CE16" d="M15.4461432,4.722867c0.0007057,0.1395326,0.0018311,0.2790647,0.0020208,0.4185977
		c0.0002928,0.2160492-0.0003901,0.4321008,0.0007429,0.6481438c0.0000658,0.0124264-0.0177479,0.0543456,0.0275984,0.0293546
		c0.0278444-0.0173907,0.0604467-0.0168128,0.0910015-0.0236878c0.4992428-0.1123309,0.9993687-0.2207022,1.4983063-0.3343883
		c0.017849-0.0040674,0.0364189-0.0025339,0.0536289-0.0092597c0.1074829,0.0472074,0.2027054,0.1115441,0.280262,0.2005596
		c0.0063362,0.0392361-0.0277596,0.036056-0.0478611,0.0410423c-0.1001453,0.0248399-0.2011852,0.04599-0.3019295,0.0683532
		c-0.8335743,0.185039-1.6671963,0.3698778-2.5006142,0.5556269c-0.0568609,0.0126724-0.1137257,0.0253363-0.1706533,0.0377035
		c-0.0193586,0.0042057-0.039196,0.0108018-0.0569248-0.004981c-0.0000019-0.0833058-0.0000038-0.1666112-0.0000048-0.2499175
		c0.0219555-0.0208788,0.051199-0.0229883,0.0783978-0.0289888c0.3133039-0.0691204,0.6262712-0.1397538,0.9396887-0.2083573
		c0.0113716-0.0024891,0.0225391-0.0065737,0.0340033-0.0077891c0.0435238-0.0046158,0.0592756-0.0270076,0.0530691-0.0707197
		c-0.0041647-0.0293336-0.0012798-0.0597286-0.0010576-0.0896988c-0.0017986-0.0480142-0.001255-0.0959797-0.0002174-0.1439571
		c-0.0015011-0.039813-0.0012836-0.0796151-0.0000849-0.1194158c-0.0010967-0.0367546-0.0012321-0.0735092,0.0000172-0.1102595
		c-0.0013304-0.0366955-0.0008793-0.0733871,0.0001116-0.1100774c-0.0014486-0.0366726-0.001174-0.0733438-0.0001097-0.110014
		c-0.0011187-0.0366259-0.0012131-0.0732503-0.0000019-0.1098685c-0.0010147-0.0393147-0.0013037-0.0786324,0.0001192-0.1179304
		c-0.0005236-0.0353889-0.0010672-0.0707936,0.0005131-0.1061859C15.4291744,4.750484,15.4230394,4.7299857,15.4461432,4.722867z"/>
	<path fill="#00C813" d="M14.3217211,6.3499317c0.1083527-0.0231795,0.2168226-0.045825,0.325037-0.0696316
		c0.4105825-0.0903244,0.8211966-0.180511,1.2315741-0.2717605c0.2892189-0.0643086,0.5779896-0.1306181,0.8671169-0.1953402
		c0.2002697-0.0448318,0.4008427-0.0883098,0.6011639-0.132916c0.0197697-0.0044017,0.0445499-0.0015774,0.053093-0.0281014
		c0.0683174,0.0614123,0.1215954,0.1339798,0.1609211,0.2168946c-0.0074806,0.0355096-0.0400715,0.0301313-0.0630436,0.0353374
		c-0.1932259,0.043787-0.3866253,0.0868268-0.5800705,0.1296554c-0.1918163,0.042469-0.3834515,0.085772-0.5754948,0.1272106
		c-0.0342903,0.0074-0.0666142,0.0206842-0.1000843,0.0305209c-0.0564728-0.0006433-0.1116238-0.0156999-0.1678677-0.0170999
		c-0.1654577-0.004118-0.324894,0.0157976-0.4603453,0.1239843c-0.0064611,0.0051589-0.0142593,0.0084119-0.0222158,0.0109887
		c-0.2115879,0.0350351-0.4190092,0.0896244-0.6284695,0.1346536c-0.1900606,0.0408578-0.3796492,0.0839367-0.5694408,0.1260595
		c-0.0233574,0.0051837-0.0481091,0.0170889-0.0718842-0.0004921C14.3217134,6.4965744,14.3217173,6.4232531,14.3217211,6.3499317z"
		/>
	<path fill="#00B312" d="M11.8200064,8.4120483c-0.0164614,0.0306845-0.0223818,0.0055485-0.0314913-0.005724
		c-0.1229286-0.1521006-0.2370825-0.310853-0.3549557-0.4667959c-0.2447414-0.3237872-0.4916048-0.6459699-0.736743-0.9694581
		c-0.1851158-0.2442813-0.3683147-0.4900179-0.5541306-0.7337623c-0.0204592-0.0268364-0.0320292-0.0548501-0.0407896-0.0857048
		c0.0091448-0.1077662,0.0185204-0.215517,0.0271282-0.3233299c0.0010834-0.0135736,0.0027094-0.0261617,0.0109377-0.0372505
		c0.0258732-0.0058036,0.0342398,0.015882,0.0455265,0.030633c0.2163239,0.2827067,0.4297571,0.5676041,0.6444407,0.8515539
		c0.1956158,0.2587318,0.3913937,0.5173435,0.5873384,0.7758265c0.0120792,0.0159349,0.0206499,0.048069,0.052804,0.0246215
		c0.0478897,0.1566553,0.09305,0.3141799,0.1495285,0.4680963c0.0141945,0.0386839,0.0278568,0.0775633,0.0417643,0.1163521
		c0.0041142,0.0150957,0.0077457,0.0304022,0.0186462,0.0425224C11.7176094,8.2078295,11.7659445,8.3112211,11.8200064,8.4120483z"
		/>
	<path fill="#01D118" d="M10.4692945,4.4276195c0.0598059-0.1637034,0.128705-0.3234668,0.2075062-0.4789424
		c0.0227346-0.0066864,0.0279245,0.013557,0.0369024,0.0255711c0.2497101,0.3341644,0.5035191,0.6652358,0.7537384,0.9990151
		c0.0199556,0.0266218,0.0414848,0.0518427,0.063158,0.0769992c-0.0269194,0.1051788-0.0564241,0.2097883-0.0797682,0.3157544
		c-0.0135183,0.061367-0.0441313,0.1191158-0.0406151,0.1841722c-0.0121222,0.0148849,0.0017757,0.0349483-0.0099354,0.0499148
		l-0.00002,0.0000339c-0.01367,0.0105257,0.0068483,0.0387988-0.0172625,0.0403433
		c-0.0210094,0.0013466-0.0349998-0.0182619-0.0468197-0.0339031c-0.0882492-0.1167741-0.1780472-0.2323661-0.2660398-0.3493361
		c-0.193985-0.2578664-0.3877754-0.515882-0.5844631-0.7717018C10.4721622,4.4679646,10.4576511,4.4517951,10.4692945,4.4276195z"/>
	<path fill="#00BB12" d="M11.4700718,7.4726577c-0.0012379,0.0110564,0.0050135,0.027874-0.0075397,0.031363
		c-0.0192175,0.0053415-0.0290823-0.0143666-0.0383701-0.0263882c-0.0638056-0.0825853-0.1260672-0.1663618-0.1890917-0.2495522
		c-0.2390327-0.3155198-0.4783087-0.6308551-0.7172041-0.9464793c-0.1159534-0.1531959-0.2314062-0.3067703-0.3465872-0.4605479
		c-0.0091057-0.0121565-0.0170565-0.0245013-0.0313148-0.0310297c0.0088177-0.152916,0.0273628-0.3043528,0.0688095-0.4523053
		c0.0218868,0.0046625,0.0316877,0.0230832,0.0435209,0.0388389c0.2850723,0.3795462,0.5733738,0.7566547,0.8582678,1.1363358
		c0.0689678,0.0919123,0.1395845,0.1825967,0.2082634,0.2747407c0.011981,0.0160756,0.0244064,0.0317011,0.0419846,0.0422058
		C11.3867998,7.0458841,11.4180832,7.2610307,11.4700718,7.4726577z"/>
	<path fill="#007912" d="M17.690094,8.1297131c-0.079855,0.0048532-0.1558094,0.0297222-0.233202,0.0466537
		c-0.4444695,0.0972338-0.8886642,0.1957235-1.3328419,0.2942953c-0.2568378,0.0569963-0.513423,0.1151304-0.7702017,0.1723995
		c-0.1905165,0.04249-0.3810883,0.0847292-0.5718536,0.1260767c-0.0184994,0.0040112-0.0340271,0.0127573-0.0507078,0.0198679
		c-0.0636816-0.050499-0.1121111-0.1145515-0.1595049-0.1795235c0.0187559-0.0226498,0.0467052-0.0240068,0.0721216-0.0295925
		c0.3440142-0.0755959,0.6876059-0.1531,1.0315037-0.229229c0.0299683-0.0066347,0.0633011-0.007472,0.0854101-0.0345936
		c0.0699539-0.0016298,0.1364365,0.0233793,0.2060461,0.0262356c0.1602612,0.0065765,0.3152199-0.0077085,0.4517365-0.1036406
		c0.0301666-0.0211992,0.0563011-0.0463114,0.0771198-0.0769596c0.0111561-0.0164232,0.0221157-0.0335398,0.0432262-0.0392818
		c0.2278843-0.0416031,0.4524727-0.0984287,0.6788654-0.1469078c0.1514931-0.0324392,0.3025093-0.0670829,0.4537621-0.100637
		c0.0193825-0.0042992,0.0392151-0.0107799,0.0570621,0.0047655C17.723938,7.9642549,17.7162533,8.0484076,17.690094,8.1297131z"/>
	<path fill="#07D71E" d="M11.5305996,5.0502625c-0.0211477-0.000205-0.0328617-0.0154943-0.0436287-0.029788
		c-0.1760616-0.2337165-0.3513718-0.4679966-0.5275736-0.7016053c-0.0934782-0.1239319-0.1883402-0.2468209-0.2825851-0.3701863
		c0.0703068-0.1435359,0.1459503-0.2840893,0.2335911-0.4179389c0.2206926,0.2896361,0.4402142,0.5801575,0.6586752,0.8714788
		c0.0319395,0.0425916,0.066637,0.0830479,0.0973759,0.1265101c0.0110464,0.0156202,0.0241356,0.0271502,0.0428104,0.031867
		c-0.0196552,0.0738177-0.0556917,0.1413946-0.081172,0.2129803C11.5953016,4.8657036,11.5630722,4.9580259,11.5305996,5.0502625z"
		/>
	<path fill="#0BDA22" d="M11.7092648,4.5605998c-0.0230989,0.0278721-0.0337973,0.0008445-0.0435858-0.0119944
		c-0.1133566-0.1487007-0.2258186-0.2980809-0.3385305-0.4472728c-0.1326542-0.1755905-0.2651262-0.3513184-0.3983545-0.5264719
		c-0.0104618-0.0137544-0.0206146-0.0258784-0.0183907-0.0441179c0.0666599-0.1235731,0.1420956-0.2414379,0.228961-0.3518665
		c0.0283079,0.0078328,0.0410213,0.0325484,0.0569086,0.0534093c0.2219076,0.2913823,0.4430904,0.5833139,0.6626759,0.8764522
		c0.0151062,0.0201674,0.0306511,0.0392294,0.0528231,0.0518961c-0.0360222,0.0684595-0.0728559,0.136507-0.1078262,0.2054992
		C11.7713547,4.4304328,11.7407465,4.4957376,11.7092648,4.5605998z"/>
	<path fill="#00C212" d="M11.3608103,6.8298392c-0.024353,0.0127516-0.0308552-0.0072546-0.0416842-0.0216784
		c-0.1650057-0.2197695-0.3299751-0.4395685-0.495636-0.6588435c-0.2045698-0.2707782-0.4097729-0.5410771-0.6147089-0.8115907
		c0.0181093-0.1277499,0.0506802-0.2522988,0.0832539-0.3768468c0.0255375,0.0049734,0.0274591,0.0308518,0.0397615,0.0468717
		c0.2450476,0.3190756,0.4859238,0.6413183,0.729166,0.9617624c0.0863991,0.1138215,0.1687975,0.2307811,0.2606955,0.3404055
		c0.0076075,0.0090737,0.0112448,0.0203314,0.01789,0.0298748C11.3378973,6.5035219,11.3464594,6.6668062,11.3608103,6.8298392z"/>
	<path fill="#61FA70" d="M14.6502705,0.834094c0.1421318-0.0335187,0.2842083-0.0673249,0.4297981-0.0829226
		c0.0067225,0.029839,0.0230579,0.054323,0.0412807,0.0783709c0.2068138,0.2729237,0.4123621,0.5468041,0.6197615,0.8192855
		c0.0271711,0.0356958,0.071826,0.0631813,0.0586214,0.119212c-0.0019541,0.0082963-0.0036449,0.0160421-0.0097561,0.0222099
		c-0.1187496,0.0072552-0.2374992,0.0145105-0.3562489,0.0217658c-0.0428085,0.0115893-0.0737953,0.0008452-0.1022959-0.0371075
		c-0.2153063-0.286713-0.4327679-0.5718104-0.6474113-0.8590266C14.6664419,0.8923595,14.6370373,0.871326,14.6502705,0.834094z"/>
	<path fill="#009212" d="M10.6308403,8.8396883c-0.0941715-0.1828814-0.1664791-0.3745527-0.229229-0.5700665
		c0.0334806-0.0125971,0.0427599,0.0167141,0.056675,0.0345716c0.1114731,0.1430616,0.2191172,0.2890396,0.3286047,0.4336157
		c0.3415241,0.4509726,0.682375,0.9024525,1.0235014,1.3537226c0.1715612,0.2269564,0.3419981,0.4547758,0.5152006,0.6804962
		c0.0086107,0.0112209,0.0230494,0.0208311,0.0154619,0.0388021c-0.0075331,0.0322065-0.0373383,0.0487537-0.0533562,0.0753469
		c-0.0117016,0.0194254-0.0332384,0.015357-0.0480518,0.0026159c-0.053504-0.0460224-0.1151304-0.0828114-0.1595297-0.1392307
		c-0.1965532-0.2562819-0.3897276-0.5151205-0.5847273-0.7725763c-0.2202187-0.2907505-0.4401083-0.5817451-0.6597919-0.8728981
		C10.768465,9.0151138,10.7007093,8.9265699,10.6308403,8.8396883z"/>
	<path fill="#13DF29" d="M11.9117718,4.160634c-0.0260706,0.0129447-0.0362558-0.0087767-0.0473976-0.0235929
		c-0.1969786-0.2619321-0.3932571-0.5243895-0.5902777-0.7862899c-0.0437527-0.0581601-0.0897589-0.1146245-0.1347294-0.1718724
		c0.0475245-0.0821896,0.1074009-0.1555126,0.1654778-0.230109c0.0210676-0.0270617,0.0429497-0.0534904,0.0644608-0.0802078
		c0.0288315,0.0095329,0.0444384,0.0338643,0.0612755,0.0561707c0.2081366,0.2757335,0.4160614,0.5516279,0.6252594,0.82656
		c0.0190525,0.0250406,0.0359945,0.0520811,0.0635767,0.069329c-0.0576544,0.0955527-0.1152163,0.1911619-0.1730461,0.2866089
		C11.9353848,4.1253629,11.9233322,4.1428494,11.9117718,4.160634z"/>
	<path fill="#67FC74" d="M15.7899761,1.7902499c0.0028038-0.0417811-0.0077267-0.0732191-0.0370073-0.109838
		c-0.1382647-0.1729169-0.2690334-0.3518252-0.4024906-0.5285865c-0.087636-0.1160721-0.1746731-0.2326044-0.2635679-0.3477048
		c-0.01437-0.0186071-0.0198536-0.0332549-0.0068417-0.0529494c0.0942259-0.0135542,0.1880808-0.0312727,0.2827635-0.039686
		c0.141593-0.0125816,0.2833471-0.0287079,0.426053-0.018687c0.0066423,0.3658072,0.0132875,0.7316136,0.0199223,1.0974202
		C15.8025255,1.7902287,15.7962513,1.7902392,15.7899761,1.7902499z"/>
	<path fill="#52F662" d="M14.379612,4.2395906c0.0026388-0.0463443,0.0207348-0.0880551,0.0389061-0.1297426
		c0.0193405-0.0178699,0.0441666-0.0225377,0.0685081-0.0279274c0.7933283-0.1756608,1.5863686-0.3526165,2.3796692-0.5284071
		c0.0909367-0.0201509,0.1818104-0.0405881,0.2727489-0.0607405c0.0546169,0.0260243,0.0992889,0.0648861,0.1401978,0.1086028
		c-0.0020103,0.0356295-0.0325699,0.0339622-0.0548134,0.0389707c-0.1835747,0.0413306-0.3672981,0.0820074-0.5509624,0.1229479
		c-0.5997448,0.1336887-1.1999378,0.2653697-1.7993488,0.4005611c-0.1413221,0.0318737-0.2825146,0.064435-0.4245291,0.0930367
		C14.4265556,4.261611,14.3942165,4.280231,14.379612,4.2395906z"/>
	<path fill="#5CF96B" d="M14.6502705,0.834094c0.0283279,0.0741943,0.0851564,0.1293167,0.1309462,0.1913734
		c0.1490841,0.2020501,0.3014498,0.4016804,0.4527512,0.6020924c0.0348377,0.0461475,0.0725574,0.0902764,0.1050444,0.1379929
		c0.0239201,0.0351367,0.0524206,0.0527009,0.094698,0.0464613c-0.0867519,0.0250216-0.177721,0.0257229-0.265399,0.0460188
		c-0.0447016,0.0103481-0.0904188,0.0163082-0.1356773,0.0242512c-0.0222511,0.0051056-0.0278168-0.0143039-0.036952-0.0265378
		c-0.2120228-0.2839381-0.4267159-0.5658594-0.6402521-0.8486545c-0.018528-0.0245375-0.0504599-0.0466508-0.035326-0.0862504
		C14.4283514,0.8850449,14.5379791,0.8545038,14.6502705,0.834094z"/>
	<path fill="#00C813" d="M11.3395481,6.3397942c-0.0741129-0.0588784-0.1194735-0.1416345-0.1755676-0.2150331
		C10.9396,5.8311605,10.7182064,5.5352798,10.4954443,5.2404404c-0.0599461-0.0793424-0.1197948-0.158814-0.1822119-0.2361889
		c-0.0113354-0.0140495-0.0078211-0.0322895-0.0212011-0.043375c0.0337944-0.0893869,0.045434-0.1858807,0.0874557-0.2726307
		c0.1091194,0.1610317,0.2299337,0.3134456,0.34692,0.4686351c0.1932888,0.2564101,0.3881016,0.5116739,0.5808449,0.7685027
		C11.31598,5.9370136,11.32269,5.9505191,11.336235,5.959981c0.004775-0.0220561-0.0009041-0.0437012,0.0026026-0.0646162
		c0.0023937-0.0142775-0.0046787-0.0363278,0.0226002-0.0352817C11.3583097,6.0201769,11.3340073,6.1793051,11.3395481,6.3397942z"
		/>
	<path fill="#00CC15" d="M11.3614378,5.8600831c-0.0256643,0.0376506-0.0015678,0.0810833-0.0157032,0.1247921
		c-0.0423632-0.0297909-0.0648508-0.0747175-0.0937786-0.1129403c-0.2808266-0.3710647-0.5601711-0.7432523-0.8409729-1.1143355
		c-0.016407-0.0216842-0.0353365-0.0395994-0.0314932-0.0693464c0.024848-0.0886259,0.0547953-0.175488,0.0898085-0.2606182
		c0.0022326,0.0423846,0.0379515,0.0647755,0.0598497,0.0940533c0.2128048,0.2845325,0.4264221,0.56849,0.6431084,0.8500714
		c0.0681581,0.0885696,0.1293726,0.1832314,0.2071733,0.2638474c0.0164804-0.0101027,0.0061235-0.0292864,0.0208311-0.0354691
		C11.3866863,5.6866913,11.3831472,5.7747436,11.3614378,5.8600831z"/>
	<path fill="#57F766" d="M14.3201036,0.9208414c0.0175943,0.0649762,0.0684481,0.108251,0.1064701,0.1593333
		c0.1981974,0.2662736,0.3985157,0.5309699,0.5981979,0.7961372c0.0019026,0.0025252,0.0052013,0.0039978,0.0078564,0.0059673
		c-0.1071119,0.0263319-0.2142315,0.0526589-0.3213501,0.0789858c-0.0217094,0.0112401-0.029501-0.0062567-0.0391541-0.0192325
		c-0.2106047-0.2831434-0.4245987-0.5637296-0.6373711-0.8452373c-0.0163956-0.0216918-0.0404453-0.0413195-0.0341597-0.0740887
		C14.1064434,0.9867032,14.2100039,0.9435179,14.3201036,0.9208414z"/>
	<path fill="#29E93D" d="M12.9219408,2.9244547c-0.076869,0.0722492-0.1537371,0.1444983-0.2306061,0.2167478
		c-0.0241585,0.0056655-0.031352-0.015132-0.0415859-0.0285063c-0.2120695-0.2771547-0.4221983-0.5557821-0.631485-0.8350396
		c-0.0138998-0.0185449-0.0368814-0.0373595-0.0176897-0.0659633c0.076889-0.0779772,0.1575041-0.1515641,0.2495623-0.2116618
		c0.0357189,0.0820704,0.0974131,0.1463799,0.1504421,0.2162359c0.1700439,0.2240052,0.3374338,0.4500237,0.5094652,0.6725206
		C12.9181499,2.8992734,12.9278631,2.9092693,12.9219408,2.9244547z"/>
	<path fill="#1EE433" d="M11.5705976,2.6412823c0.0618048-0.0812147,0.135397-0.1512291,0.209672-0.2205946
		c0.0256195,0.0116324,0.0388336,0.0358734,0.0544605,0.056612c0.2109165,0.2798915,0.4220514,0.5596161,0.6343946,0.8384266
		c0.0080795,0.0106082,0.0166292,0.0208004,0.0192308,0.0344c-0.0589123,0.0862167-0.137475,0.1560686-0.1995926,0.2396162
		c-0.0301161,0.0034463-0.0382748-0.0228639-0.0512609-0.0401096c-0.159008-0.2111588-0.3197803-0.4209855-0.4779568-0.6327734
		c-0.0556984-0.0745783-0.1141472-0.1470973-0.1688471-0.2224431C11.5792999,2.6787145,11.5628662,2.6644275,11.5705976,2.6412823z"
		/>
	<path fill="#4CF45D" d="M14.379612,4.2395906c0.0334597,0.0278826,0.0683718,0.0047231,0.0994816-0.0020566
		c0.300396-0.0654635,0.5999355-0.1348438,0.9000607-0.2015705c0.4920692-0.1094017,0.9844284-0.2174954,1.4765835-0.3265109
		c0.1274662-0.0282342,0.2546043-0.05794,0.3819542-0.0867047c0.0159969-0.0036132,0.0339432-0.0024705,0.0419502-0.0213733
		c0.0429726,0.0226054,0.0733547,0.0584941,0.101778,0.0964499c-0.0035934,0.0343299-0.0338364,0.0324204-0.0555897,0.0376742
		c-0.174715,0.0421996-0.3505974,0.0793152-0.5260201,0.1184366c-0.3150635,0.0702631-0.6303043,0.139739-0.9454021,0.2098479
		c-0.4823675,0.1073251-0.964736,0.2146358-1.4471321,0.3218288C14.3877897,4.3899422,14.368,4.3956184,14.3502426,4.3803458
		C14.3526278,4.3318825,14.363265,4.285141,14.379612,4.2395906z"/>
	<path fill="#17E12D" d="M11.5705976,2.6412823c0.0618935,0.100148,0.1393375,0.1888363,0.2094097,0.2829354
		c0.160018,0.2148879,0.3220892,0.4282479,0.4836292,0.6419995c0.0068169,0.0090206,0.0166826,0.015738,0.0251284,0.0235264
		c-0.056448,0.0769582-0.112896,0.1539173-0.1693449,0.2308774c-0.0270405,0.013185-0.0353031-0.011076-0.0459957-0.0252309
		c-0.2199669-0.2911723-0.4392872-0.5828331-0.6590118-0.8741889c-0.0138836-0.01841-0.0300159-0.0351257-0.045104-0.0526342
		C11.4324608,2.7893112,11.4997292,2.7137032,11.5705976,2.6412823z"/>
	<path fill="#009812" d="M10.249424,7.7499728c0.083848,0.0631428,0.1353731,0.1538811,0.1973982,0.2350869
		c0.2242308,0.2935762,0.4456406,0.589304,0.6681967,0.8841591c0.1676836,0.2221594,0.3353338,0.4443445,0.5032797,0.6663055
		c0.2358847,0.3117514,0.4720678,0.6232777,0.7080259,0.9349737c0.0349979,0.0462322,0.0695419,0.0928087,0.1041346,0.1393452
		c0.0128422,0.0172787,0.023756,0.0367222,0.0485716,0.0389643c-0.0228987,0.0268192-0.0457907,0.0536404-0.0686827,0.0804615
		c-0.0305128,0.0046921-0.038414-0.0220928-0.0514622-0.0391369c-0.2145872-0.2803221-0.4262438-0.5628633-0.639267-0.8443708
		c-0.3406448-0.4501534-0.6806993-0.9007521-1.0214653-1.3508101c-0.1236153-0.1632595-0.2432623-0.3295689-0.3714294-0.489377
		c-0.00632-0.0078793-0.0100279-0.017252-0.015461-0.0256209C10.282568,7.9054661,10.2626181,7.8286276,10.249424,7.7499728z"/>
	<path fill="#52F662" d="M14.0005932,1.0227065c0.0662346,0.1113048,0.1536303,0.2070733,0.2293663,0.3114421
		c0.1505098,0.2074122,0.3133411,0.4056838,0.4603395,0.6157736c0.0053797,0.0076886,0.0125999,0.0101267,0.0209751,0.0113412
		c-0.0961227,0.0302081-0.1922474,0.0604148-0.2883739,0.0906212c-0.0342007,0.0115936-0.0428352-0.0190227-0.0567846-0.0367835
		c-0.1048193-0.1334503-0.204793-0.2706033-0.3077564-0.4054743c-0.107007-0.1401694-0.2132292-0.2809237-0.3183432-0.422509
		c-0.011694-0.0157518-0.0343285-0.0298734-0.0197582-0.0558356C13.8109064,1.0878692,13.9053898,1.0543596,14.0005932,1.0227065z"
		/>
	<path fill="#22E637" d="M12.4883556,3.3501263c-0.0766277-0.0738535-0.1325264-0.1642685-0.1967506-0.2479248
		c-0.1649523-0.2148626-0.3279123-0.4312551-0.4914055-0.647234c-0.0079203-0.0104611-0.0133448-0.02281-0.0199299-0.0342798
		c0.070899-0.0723383,0.1369581-0.149776,0.2203035-0.2089958c-0.0046206,0.0228677,0.0112066,0.0382214,0.0226164,0.0533743
		c0.218133,0.2896624,0.4369516,0.5788081,0.6558256,0.8679123c0.0028143,0.0037184,0.0081549,0.0055237,0.0123186,0.0082231
		C12.6236744,3.2108436,12.556015,3.2804847,12.4883556,3.3501263z"/>
	<path fill="#009812" d="M10.3112631,7.9799533c0.0739164,0.0589175,0.1193333,0.141499,0.1753149,0.2148528
		c0.2339659,0.3065653,0.4651661,0.615243,0.697298,0.9232092c0.1594057,0.2114792,0.3183661,0.4232931,0.478076,0.6345415
		c0.2415609,0.3195124,0.4835606,0.6386909,0.725667,0.9577885c0.005805,0.0076513,0.0150747,0.0126734,0.0227289,0.0189238
		c-0.0154524,0.033679-0.0349874,0.0638924-0.0692978,0.0815525c-0.168643-0.2234201-0.3372173-0.4469042-0.5059557-0.6702642
		c-0.2167015-0.28685-0.4334974-0.5736265-0.6503191-0.8603849c-0.2158213-0.2854328-0.4316854-0.5708332-0.6476297-0.8561735
		C10.5031595,8.3790913,10.468708,8.3345356,10.43435,8.2899103c-0.0083027-0.0107841-0.0178871-0.0199022-0.0327444-0.0202885
		C10.3611012,8.1763067,10.337204,8.0778112,10.3112631,7.9799533z"/>
	<path fill="#4CF45D" d="M13.7202578,1.1312823c0.0452471,0.0831864,0.1088409,0.1532724,0.164813,0.228695
		c0.1372042,0.1848851,0.2752047,0.3692396,0.4165945,0.5509205c0.0378218,0.0485997,0.0645027,0.1081852,0.1212263,0.1409839
		c-0.074523,0.0353065-0.1523657,0.0621498-0.2298317,0.0899589c-0.0361948,0.0181067-0.059082,0.0053802-0.0829592-0.0261924
		c-0.204771-0.270775-0.4093008-0.5417325-0.6133966-0.8130165c-0.0132904-0.0176665-0.03473-0.0332081-0.0261431-0.0608479
		C13.5501642,1.1967512,13.6345568,1.1625385,13.7202578,1.1312823z"/>
	<path fill="#59F868" d="M17.1394444,3.4927731c-0.0530453,0.0435741-0.1211853,0.0403867-0.1825199,0.0550706
		c-0.2010384,0.0481303-0.4036846,0.0895159-0.6055889,0.1340654c-0.3763218,0.083035-0.7526588,0.1660042-1.1287899,0.2499027
		c-0.2599144,0.057976-0.5194826,0.1174998-0.779253,0.176127c-0.0079937,0.0018039-0.0165024,0.0013247-0.0247736,0.0019097
		c0.0102053-0.0516009,0.0332947-0.0978513,0.0593491-0.1428704c0.2489738-0.0460122,0.494688-0.1070564,0.7418642-0.1613328
		c0.5903807-0.1296394,1.1799412-0.2629764,1.769989-0.3941197C17.0476284,3.4238701,17.0920734,3.461014,17.1394444,3.4927731z"/>
	<path fill="#2FEB42" d="M12.9219408,2.9244547c-0.2161455-0.2851734-0.4324999-0.5701902-0.647975-0.8558683
		c-0.0144987-0.0192213-0.0425062-0.0366106-0.0238295-0.0685525c0.0523787-0.0564183,0.1150904-0.0998857,0.1785212-0.1424533
		c0.0209618,0.0060049,0.0315313,0.0234905,0.0435228,0.039399c0.2115402,0.2806377,0.422616,0.5616267,0.6359463,0.8409107
		c0.0051937,0.0068007,0.0080824,0.0144567,0.0105619,0.0224185C13.0577011,2.8205314,12.9878464,2.8701267,12.9219408,2.9244547z"
		/>
	<path fill="#43F154" d="M13.9524097,2.2516925c-0.0769119,0.0399582-0.1538219,0.079916-0.2307339,0.119874
		c-0.0302782,0.0049424-0.0387592-0.0211768-0.0516748-0.0383763c-0.1498575-0.1995683-0.3025665-0.3969786-0.4514914-0.5972531
		c-0.0526075-0.0707496-0.1091795-0.1385665-0.1593475-0.2110975c-0.0126276-0.018259-0.0379171-0.0384982-0.0090303-0.0641952
		c0.0678415-0.0498927,0.1436939-0.0849782,0.2200928-0.1190557c0.0270472,0.0732502,0.0819836,0.1279868,0.1277428,0.1883135
		c0.1624317,0.2141517,0.3238802,0.4290484,0.4862661,0.6432335C13.9052887,2.2009068,13.926959,2.2278674,13.9524097,2.2516925z"/>
	<path fill="#48F359" d="M13.9524097,2.2516923c-0.0273457,0.0042031-0.0376873-0.0181603-0.0499725-0.0343845
		c-0.1576385-0.2081962-0.3145247-0.4169616-0.4718332-0.6254083c-0.0487738-0.0646296-0.0981922-0.1287727-0.1474285-0.1930517
		c-0.0131731-0.0171951-0.0289984-0.0335606-0.0129509-0.0572598c0.0593805-0.048117,0.1342554-0.0651368,0.2003374-0.0998046
		c0.076272,0.1042792,0.1516008,0.2092644,0.229044,0.3126678c0.109273,0.1459043,0.2201214,0.2906291,0.3302755,0.4358747
		c0.0350323,0.0461929,0.0713844,0.0914752,0.1044254,0.1390533c0.017477,0.0251663,0.0395069,0.0074372,0.0587435,0.0124593
		C14.1128435,2.178458,14.0326262,2.2150753,13.9524097,2.2516923z"/>
	<path fill="#34ED47" d="M13.1186886,2.7603087c-0.0737476-0.0657775-0.1228256-0.1513369-0.1818533-0.2287545
		c-0.1705933-0.223736-0.3389416-0.4491842-0.5081739-0.673967c0.0626812-0.0523363,0.1250563-0.1051174,0.2012711-0.1376694
		c0.0388613,0.0300316,0.063098,0.0723741,0.0920668,0.1105617c0.1898899,0.2503077,0.3782969,0.5017389,0.5690622,0.7513846
		c0.0090618,0.011858,0.01863,0.0235958,0.0202827,0.0393376C13.2471256,2.6675713,13.1829081,2.7139401,13.1186886,2.7603087z"/>
	<path fill="#00C012" d="M16.2391682,6.1803932c0.1284904-0.0507655,0.265686-0.0669937,0.3988438-0.098907
		c0.2011852-0.0482183,0.4040165-0.0895538,0.6060505-0.1342621c0.0985737-0.0218134,0.1969566-0.044508,0.2953186-0.067266
		c0.0075169-0.0017395,0.0141792-0.0071645,0.021244-0.010879c0.0466423,0.0631742,0.0634613,0.1390853,0.0900478,0.2108254
		c-0.0160866,0.0200124-0.0403175,0.0222483-0.0626106,0.0272169c-0.3521233,0.0784645-0.7046051,0.1553102-1.0560951,0.2365932
		c-0.0081139,0.0018778-0.016367,0.0028844-0.0246239,0.0035944c-0.0144253,0.0001912-0.0250874-0.0072842-0.0345802-0.0171976
		c-0.057724-0.0602779-0.1274872-0.1007013-0.2066078-0.1260519C16.2543831,6.2002869,16.2385445,6.199163,16.2391682,6.1803932z"/>
	<path fill="#3EF050" d="M13.0501318,1.4606445c-0.0141153,0.0340726,0.0146418,0.0529343,0.0299673,0.0733712
		c0.203289,0.2710462,0.4079905,0.5410326,0.6126995,0.8110113c0.0077705,0.0102489,0.019165,0.0177519,0.0288734,0.0265372
		c-0.0682821,0.0396469-0.1365681,0.0792913-0.204854,0.1189361c-0.0324593,0.0122218-0.0391083-0.0181267-0.0517206-0.0339665
		c-0.1097183-0.1377916-0.2122421-0.2810771-0.3193235-0.4208922c-0.0990019-0.1292659-0.1971064-0.2592032-0.2940531-0.3900101
		c-0.0122843-0.0165749-0.0316143-0.0313354-0.0225286-0.0567966C12.8997478,1.5407788,12.9715681,1.4949014,13.0501318,1.4606445z"
		/>
	<path fill="#48F358" d="M14.3502426,4.3803458c0.109889-0.0233178,0.2199802-0.0457239,0.3296299-0.0701199
		c0.3695688-0.0822253,0.7389307-0.1653767,1.1084652-0.2477551c0.3291683-0.0733802,0.6584606-0.14621,0.9876995-0.2192726
		c0.1840038-0.0408332,0.3680229-0.0815947,0.552-0.1225522c0.0191135-0.0042553,0.039608-0.0058272,0.0533829-0.0228186
		c0.0412846,0.0382314,0.0745049,0.0827293,0.102169,0.1315398c-0.0118713,0.0194726-0.0325623,0.0214717-0.0518665,0.0258193
		c-0.3298798,0.0743008-0.6599426,0.1477926-0.9903393,0.219753c-0.0363064,0.0079069-0.0713921,0.0307336-0.1111832,0.0153804
		c-0.1646709-0.0425706-0.330265-0.0450168-0.4963045-0.0096459c-0.0658016,0.0140176-0.1274071,0.0389776-0.1811972,0.0807061
		c-0.1234407,0.0351219-0.2497158,0.0580344-0.3747473,0.0862236c-0.2746849,0.0619311-0.5497541,0.1221685-0.8245525,0.1836114
		c-0.0178833,0.0039988-0.0358057,0.0080271-0.0539055,0.0108209c-0.0487156,0.0075183-0.0559378-0.0004764-0.0502005-0.054122
		C14.3479385,4.3851819,14.3482561,4.382659,14.3502426,4.3803458z"/>
	<path fill="#39EE4B" d="M12.8291922,1.5888348c0.0699081,0.1107963,0.1535835,0.2115946,0.2316952,0.3163559
		c0.1405077,0.1884444,0.2846413,0.3741848,0.4267387,0.5614498c0.0082111,0.0108216,0.0136471,0.0229242,0.0291958,0.0238605
		c-0.0655737,0.0481603-0.135004,0.0902517-0.2054806,0.1306994c-0.0896358-0.0955744-0.1604385-0.2058175-0.240036-0.3091896
		c-0.1444235-0.1875637-0.2867908-0.3767101-0.4296741-0.5654544c-0.0056934-0.0075209-0.0078783-0.017697-0.0116978-0.0266373
		C12.6921911,1.6699002,12.7596436,1.6277741,12.8291922,1.5888348z"/>
	<path fill="#008012" d="M17.7286358,7.879642c-0.1146126,0.0243979-0.2293949,0.0480351-0.3438053,0.073349
		c-0.2627792,0.0581431-0.5252972,0.1174645-0.7882195,0.1749482c-0.0181808,0.0039759-0.038662,0.0120802-0.0582409,0.0013657
		c-0.0037899-0.0056982-0.0063725-0.0122929-0.0041294-0.0186577c0.0252171-0.071558,0.0487385-0.1434965,0.0579166-0.2193365
		c0.0009937-0.0082059,0.0085182-0.0137525,0.0176659-0.0149326c0.0232735,0.0050516,0.0459156,0.0017481,0.0689392-0.0033174
		c0.3212433-0.0706725,0.6421165-0.1430101,0.9633121-0.2138915c0.073616-0.0162454,0.0734634-0.0167971,0.0736599-0.0911727
		c0.0001278-0.048173-0.000309-0.0963464-0.0001736-0.1445765c-0.0018711-0.0612206-0.0016575-0.122386-0.0003033-0.1835661
		c-0.001545-0.0533228-0.0015507-0.1066318-0.0000515-0.1599431c-0.0015564-0.063169-0.0016727-0.1263328,0.0000019-0.1894975
		c-0.001606-0.0602732-0.0016403-0.120544-0.0000305-0.1808243c0.0040741-0.0504141-0.0158291-0.1033635,0.0159016-0.1508446
		c0.0134087,0.0178409,0.0079021,0.0385861,0.0079155,0.0580359c0.0002289,0.3646364,0.0004539,0.7292743-0.0005531,1.0939078
		C17.738287,7.767015,17.7320557,7.8233242,17.7286358,7.879642z"/>
	<path fill="#04D41B" d="M17.119442,5.4516273c-0.0583992,0.0397677-0.1286469,0.0411515-0.1938457,0.0563955
		c-0.2334156,0.0545774-0.4680367,0.1039743-0.7020912,0.1558294c-0.2308044,0.0511346-0.4614239,0.1031089-0.6923075,0.1538758
		c-0.0174685,0.0038414-0.0364084,0.0009837-0.0546789,0.0012374c0.0423841-0.0848627,0.1046009-0.1537724,0.1743469-0.2166257
		c0.3766384-0.0828905,0.7536888-0.1639433,1.1291256-0.2522125c0.1009655,0.0117097,0.1983547,0.0357156,0.2894402,0.0824156
		C17.0852146,5.4406343,17.1027279,5.4453516,17.119442,5.4516273z"/>
	<path fill="#00B212" d="M17.7004147,6.2798533c0.0143833,0.0484824,0.021244,0.0979843,0.0201435,0.1485658
		c0.0103645,0.0773058,0.0095844,0.0803843-0.0606651,0.0961037c-0.3315296,0.0741839-0.6632328,0.1475978-0.9948769,0.221271
		c-0.0194702,0.0043254-0.0392933,0.0094805-0.0577011-0.003984c-0.0160179-0.0787129-0.0302582-0.15768-0.0315628-0.2383614
		c0.3516998-0.0647163,0.6984425-0.1525273,1.0481987-0.2263813C17.6495304,6.2716665,17.6756382,6.2597885,17.7004147,6.2798533z"
		/>
	<path fill="#008F12" d="M10.6308403,8.8396883c0.0712662,0.05196,0.1148357,0.1278486,0.1668062,0.1960058
		c0.2367373,0.310462,0.4722281,0.6218786,0.7073231,0.933589c0.1663723,0.2205915,0.3317566,0.4419327,0.496665,0.6636219
		c0.0279169,0.0375309,0.0715637,0.0649033,0.0784836,0.1166544c-0.0571232-0.0296822-0.0970755-0.0805025-0.143115-0.1226072
		c-0.1055269-0.0965071-0.2078457-0.1972485-0.3041325-0.3029499c-0.1180935-0.1296396-0.2353792-0.2602444-0.3418999-0.400197
		c-0.1819592-0.2390652-0.348278-0.4878197-0.4913778-0.7523165C10.7404766,9.0622234,10.6739836,8.9569855,10.6308403,8.8396883z"
		/>
	<path fill="#00A912" d="M16.6114693,6.7398367c0.1083527-0.0231667,0.2168369-0.0457435,0.3250313-0.0696206
		c0.2392044-0.0527897,0.4779587-0.1076627,0.7176228-0.1582594c0.0509377-0.0107536,0.0772228-0.0293369,0.0664291-0.0835247
		c0.0176659,0.0422921,0.0059128,0.086967,0.0105171,0.1303186c-0.0006084,0.050354-0.0012264,0.1007137-0.0018444,0.1510739
		C17.7096767,6.7309461,17.6825199,6.734293,17.656723,6.739995c-0.3234768,0.0714989-0.6468182,0.1436157-0.970295,0.2151079
		c-0.0284348,0.0062838-0.0588169,0.0182939-0.0836411-0.0102458C16.5933113,6.8759751,16.5803757,6.8069634,16.6114693,6.7398367z"
		/>
	<path fill="#00BA12" d="M17.7004147,6.2798533c-0.0796509,0.0047493-0.1553497,0.029789-0.2325478,0.0465627
		c-0.2821102,0.0612965-0.5638275,0.1244106-0.8452854,0.1886282c-0.0213718,0.0048766-0.0304146-0.0030217-0.041729-0.0151296
		c-0.0401249-0.0466471-0.0657597-0.1006026-0.0807076-0.1599493c0.1381798-0.03304,0.2760448-0.0674739,0.4146137-0.0987902
		c0.2030888-0.0458961,0.4066753-0.0895863,0.6100655-0.1341515c0.041914-0.0091853,0.0838947-0.0180864,0.125845-0.0271192
		C17.6830349,6.1426287,17.6847782,6.2129683,17.7004147,6.2798533z"/>
	<path fill="#63FB71" d="M14.6060762,3.7592552c0.0437603-0.067044,0.0979309-0.1241543,0.1630411-0.170825
		c0.0874414-0.0026717,0.170228-0.0303645,0.2544956-0.049042c0.4358406-0.0966012,0.8719654-0.1919291,1.3072472-0.2910366
		c0.0129719-0.0029535,0.0266418-0.0022781,0.0390892-0.0077562c0.0980167,0.0091438,0.1936703,0.0317898,0.2899742,0.0507197
		c0.0103817,0.038429-0.0206127,0.0394135-0.0429249,0.0448105c-0.1116695,0.0270159-0.2241039,0.0507329-0.336235,0.0757437
		c-0.5167809,0.1152637-1.033989,0.2285941-1.5505247,0.3449693C14.6900978,3.7658825,14.6479397,3.7898731,14.6060762,3.7592552z"
		/>
	<path fill="#00C212" d="M14.3217106,6.5698953c0.2177439-0.0476441,0.4355927-0.0948186,0.6532011-0.1430774
		c0.185401-0.0411158,0.370451-0.0838141,0.5558834-0.1247845c0.0190916-0.0042181,0.039731-0.0014215,0.0596533-0.0018802
		c0.0032625,0.008687,0.0008459,0.0168185-0.0045376,0.0232782c-0.0420971,0.0505066-0.0706701,0.1083269-0.0931492,0.1695886
		c-0.0047407,0.0129228-0.0133057,0.0229268-0.0266008,0.0282102c-0.2049761,0.0527496-0.4127188,0.0932231-0.618947,0.1403832
		c-0.1445417,0.0330553-0.2893753,0.0648756-0.4342537,0.0964255c-0.0295897,0.0064445-0.0604935,0.0236287-0.0912609,0.0018163
		C14.321703,6.6965351,14.3217068,6.6332154,14.3217106,6.5698953z"/>
	<path fill="#007E12" d="M15.7599621,8.3204298c0.0134687,0.0314569-0.0119705,0.026639-0.0282955,0.0303707
		c-0.1722088,0.0393438-0.3443155,0.0791435-0.5166483,0.117938c-0.2077227,0.0467625-0.4156332,0.0926971-0.6234932,0.1388512
		c-0.0064154,0.0014238-0.0131741,0.001298-0.0197582,0.001894c-0.0395508-0.0531073-0.0737619-0.1093864-0.1007109-0.1699686
		c0.013133-0.0210867,0.0359335-0.0220213,0.0566664-0.0266752c0.3159933-0.0709171,0.6322851-0.1405001,0.9482908-0.2113609
		c0.0227518-0.0051012,0.0454121-0.0101318,0.0657549-0.0221224c0.0141182-0.0067806,0.0273275-0.0018082,0.036006,0.0082064
		C15.6283712,8.2459612,15.6938162,8.2835913,15.7599621,8.3204298z"/>
	<path fill="#00B012" d="M14.321619,7.2897434c0.0000134-0.0633154,0.0000267-0.1266308,0.0000401-0.1899462
		c0.0139914-0.0162616,0.0335903-0.0201216,0.0531559-0.0244994c0.3256006-0.0728464,0.6514568-0.1445413,0.9771938-0.2167711
		c0.030798-0.0068293,0.0642004-0.0235872,0.0942345,0.0046797c0.0127592,0.0604658,0.0112724,0.1210165,0.0012989,0.1816192
		c-0.0155973,0.0233479-0.0417194,0.0260506-0.0655622,0.0313644c-0.3313017,0.0738449-0.6627445,0.1470556-0.9940166,0.2210307
		C14.365262,7.30229,14.3419447,7.3079915,14.321619,7.2897434z"/>
	<path fill="#00A812" d="M14.321619,7.2897434c0.083416-0.0022721,0.1621008-0.0295935,0.2425318-0.0470104
		c0.2919579-0.0632191,0.5834684-0.1284986,0.8751488-0.1930013c0.0277815,0.0636239,0.013998,0.1290522,0.0085258,0.1941023
		c-0.0118732,0.0198541-0.0332909,0.0200014-0.0522623,0.0241728c-0.3309326,0.0727739-0.6615391,0.1470208-0.9924011,0.220109
		c-0.0264673,0.0058475-0.0540838,0.0202837-0.0815802,0.0015898C14.3215942,7.4230514,14.3216066,7.3563976,14.321619,7.2897434z"
		/>
	<path fill="#5CF96B" d="M16.9897213,3.4115255c-0.0392056,0.0409133-0.0949879,0.0351856-0.1430779,0.046375
		c-0.2754269,0.0640833-0.5519562,0.1234207-0.8280792,0.184515c-0.4052429,0.0896626-0.8104744,0.179394-1.215682,0.2692201
		c-0.0936403,0.0207574-0.1872492,0.0416622-0.2806721,0.063369c-0.0168085,0.0039051-0.0322952,0.0101523-0.0443382-0.0080225
		c0.0124617-0.0350506,0.0284395-0.0682354,0.0517054-0.0975578c0.2934694-0.0603721,0.5853195-0.1281295,0.8777981-0.1930037
		c0.4339018-0.0962436,0.8678455-0.1923039,1.3016815-0.288847c0.0503654-0.0112073,0.0996933-0.0266271,0.1505718-0.0355237
		C16.9029922,3.371875,16.9463558,3.3917003,16.9897213,3.4115255z"/>
	<path fill="#008512" d="M15.5503979,8.1786861c-0.0029135,0.0233898-0.0212288,0.0267496-0.0394506,0.0307961
		c-0.2950153,0.065505-0.5900002,0.1311598-0.8850203,0.1966476c-0.0515585,0.0114441-0.1032534,0.0222731-0.1548786,0.0333862
		c-0.0312958-0.0569277-0.0571203-0.1160221-0.0711069-0.1797962c0.009347-0.0161428,0.0257473-0.0199432,0.0420084-0.0235872
		c0.3338833-0.07479,0.6681499-0.147871,1.0018301-0.2235842c0.006505-0.0014763,0.0131598-0.0016899,0.0198011-0.001298
		c0.0048075,0.0008984,0.0114012,0.0011311,0.0135002,0.0049448C15.5058126,8.0683985,15.5381985,8.1190195,15.5503979,8.1786861z"
		/>
	<path fill="#68FC75" d="M16.3699493,3.2405953c-0.0069084,0.0161836-0.0212345,0.0177717-0.0364418,0.0211375
		c-0.2982445,0.0660043-0.5963774,0.1325178-0.8944731,0.1991947C15.2392063,3.505625,15.0396023,3.5513422,14.83951,3.594815
		c-0.0222588,0.0048356-0.0499706,0.0263116-0.0703926-0.0063841c0.0606289-0.0625575,0.1354885-0.105248,0.2105236-0.1466417
		c0.2068653-0.114116,0.4318237-0.170567,0.6642437-0.1995931c0.2268944-0.0283363,0.4545727-0.0288517,0.6823292-0.0101132
		C16.3409271,3.2332928,16.3553772,3.2376838,16.3699493,3.2405953z"/>
	<path fill="#009112" d="M14.3587503,8.1002512c-0.0190468-0.0587673-0.0263052-0.1193509-0.0278692-0.1808119
		c0.0100746-0.0214596,0.0311098-0.0230322,0.0503578-0.027246c0.3315334-0.0725741,0.6627321-0.1466436,0.9939995-0.2204151
		c0.0222368-0.0049529,0.0450697-0.013844,0.0680122-0.0014763c0.019866,0.0566468,0.0122375,0.1149764,0.0062065,0.1720791
		c-0.0038328,0.0362716-0.0405788,0.0401325-0.0693703,0.0466151c-0.121624,0.0273852-0.2434044,0.0540786-0.3650551,0.0813498
		c-0.1881475,0.0421767-0.3760462,0.0854754-0.5645256,0.1261439C14.420599,8.1029434,14.3900824,8.118762,14.3587503,8.1002512z"/>
	<path fill="#009912" d="M15.4394979,7.6695561c-0.1283102,0.0298362-0.2564173,0.0605884-0.3849792,0.0892973
		c-0.2026825,0.04526-0.4056873,0.0890594-0.60851,0.133687c-0.0384903,0.0084682-0.0767641,0.01791-0.1151333,0.0269008
		c-0.0119009-0.0628171-0.0125704-0.1261864-0.0093584-0.1897473c0.043498-0.0282593,0.0950956-0.0287395,0.1432028-0.0395117
		c0.2957678-0.0662231,0.5915556-0.1323881,0.8875933-0.1973991c0.0305414-0.0067067,0.0634508-0.0265865,0.0944262,0.0014739
		C15.4546013,7.5531316,15.4659472,7.6121335,15.4394979,7.6695561z"/>
	<path fill="#00BC12" d="M14.3216991,6.7598553c0.1327038-0.0196962,0.2620964-0.0551434,0.3930092-0.0832829
		c0.2522306-0.0542154,0.5039473-0.1108241,0.7558765-0.16644c0.0210257,0.0299907,0.0020561,0.0596118-0.0015011,0.0891328
		c-0.002326,0.0192914-0.0049095,0.0387478-0.0095377,0.0577769c-0.0042725,0.0136342-0.0085583,0.027287-0.0194836,0.0374656
		c-0.1043243,0.0351982-0.2131796,0.0517721-0.3201017,0.0761948c-0.2337637,0.0533943-0.4679785,0.1048422-0.7021933,0.1562366
		c-0.0311413,0.0068336-0.0634565,0.0251255-0.0960875,0.0028968C14.3216858,6.8731756,14.3216934,6.8165154,14.3216991,6.7598553z"
		/>
	<path fill="#008B12" d="M15.4397068,6.6899028c0.0007277-0.0107737-0.0010128-0.0222578,0.008769-0.0304213
		c0.024725,0.0244193,0.017314,0.0560179,0.0173578,0.0850196c0.0005684,0.3741646,0.0013132,0.7483349-0.0007496,1.1224885
		c-0.0002832,0.0512061,0.0209312,0.1011386,0.0060787,0.1525083c-0.3265104,0.073328-0.653019,0.1466656-0.9795361,0.2199697
		c-0.0305376,0.006855-0.061121,0.0135059-0.0916843,0.0202513c-0.0209799-0.0512857-0.0378799-0.1036243-0.0411816-0.1594725
		c0.1645899-0.0364695,0.3291988-0.0729094,0.4937897-0.109427c0.1807623-0.0401044,0.3613071-0.0812268,0.5424337-0.1196065
		c0.0349436-0.0074039,0.0472994-0.0222006,0.0455627-0.0569024c-0.0024109-0.0481472-0.0008793-0.0964899-0.0010424-0.1447515
		c-0.0000305-0.0599666-0.0000553-0.1199307-0.0000792-0.1798949c-0.023778-0.0343623-0.0120916-0.0731888-0.013979-0.1103201
		c0.0024881-0.043447-0.0117378-0.0887036,0.0139008-0.1296606c-0.0000114-0.0666494-0.000021-0.1332984-0.0000391-0.1999493
		c-0.000021-0.0633159-0.0000334-0.1266303-0.0000439-0.1899452C15.4160662,6.8030996,15.4156466,6.746469,15.4397068,6.6899028z"/>
	<path fill="#00B612" d="M15.4397068,6.6899028c-0.0001411,0.0566297-0.0002842,0.1132588-0.0004358,0.1698875
		c-0.1073465,0.0098257-0.2103043,0.0415092-0.3150549,0.0639944c-0.2677774,0.0574784-0.5350761,0.1171932-0.8025618,0.1760125
		c0.0000095-0.0566535,0.0000134-0.113307,0.0000219-0.169961c0.1324472-0.0196104,0.2616053-0.0548916,0.39223-0.0830722
		c0.2339678-0.0504756,0.4672852-0.1039586,0.7009335-0.15592C15.4228048,6.6890726,15.4314032,6.6901522,15.4397068,6.6899028z"/>
	<path fill="#3EF050" d="M14.3293114,4.5581408c0.0006456-0.009284,0.0012894-0.0185676,0.001936-0.0278516
		c0.0434303-0.0282097,0.0949364-0.0287771,0.1429749-0.0394349c0.3343554-0.0741758,0.6680889-0.1511312,1.0027113-0.2240925
		c0.025176-0.0054898,0.0515471-0.0180249,0.0754519,0.0043612c-0.0280781,0.0547023-0.0518761,0.1112328-0.0722742,0.1692142
		c-0.0152493,0.0145764-0.0349598,0.018311-0.0545034,0.0226359c-0.3427105,0.075841-0.6852312,0.1525445-1.0280447,0.2279243
		c-0.0129929,0.0028572-0.025878,0.0063167-0.0392046,0.0073524c-0.0223427,0.0017357-0.0349445-0.0063949-0.0332069-0.0310669
		C14.3277035,4.6308928,14.3207932,4.5942254,14.3293114,4.5581408z"/>
	<path fill="#03D41A" d="M15.4392118,5.7000566c0.0002575,0.0183191,0.0007153,0.0366378,0.0007372,0.0549569
		c0.0001144,0.0999427,0.0002184,0.1005683-0.0950851,0.1218657c-0.3326759,0.0743451-0.665451,0.1482491-0.9982424,0.2220845
		c-0.007987,0.0017719-0.016592,0.0007625-0.0249062,0.0010505c0.0000067-0.0533166,0.0000143-0.1066337,0.0000219-0.1599503
		c0.0139627-0.0163579,0.0336123-0.0201516,0.0531912-0.0245352c0.3243093-0.0726156,0.6489305-0.1438365,0.9733391-0.2160115
		C15.3778219,5.6929421,15.4091187,5.6770921,15.4392118,5.7000566z"/>
	<path fill="#3FF051" d="M16.3302002,4.0903201c0.1428375-0.0332499,0.28549-0.067328,0.4285564-0.0995643
		c0.2414646-0.054409,0.4831944-0.1076515,0.7248211-0.1613863c0.0281944,0.0336757,0.0494328,0.0714457,0.0660076,0.1119652
		c0.0130463,0.0218186,0.0017986,0.034039-0.0171986,0.0428827c-0.0167332,0.0077894-0.0347252,0.0116227-0.0526047,0.0155592
		c-0.3041477,0.0669587-0.608242,0.1341512-0.911911,0.2032578c-0.0193958,0.0044146-0.039032,0.010932-0.0576286-0.0027504
		C16.4574585,4.1517949,16.3950138,4.1191158,16.3302002,4.0903201z"/>
	<path fill="#07D71E" d="M15.4392118,5.7000566c-0.1073446,0.0097103-0.2102766,0.0414629-0.3150101,0.0639467
		c-0.2677488,0.0574789-0.5350113,0.1172228-0.8024673,0.1760607c0.0000038-0.0466714,0.0000038-0.0933428,0.0000048-0.1400142
		c0.0126581-0.0180044,0.0323429-0.0217757,0.0519753-0.0261612c0.337513-0.0753765,0.6751251-0.1502976,1.012826-0.2248187
		c0.0173693-0.0038323,0.0353966-0.011867,0.0526676,0.00109C15.439209,5.6001253,15.4392099,5.6500912,15.4392118,5.7000566z"/>
	<path fill="#00A112" d="M15.4393473,7.2496834c0.0000124,0.0433569,0.0000257,0.0867147,0.0000391,0.1300716
		c-0.0236301,0.0214019-0.0544729,0.0236702-0.0832958,0.0300636c-0.321125,0.0712347-0.6421719,0.1428328-0.9633427,0.213871
		c-0.02388,0.0052824-0.0484915,0.0155754-0.0711956-0.0039501c0.0000067-0.043344,0.0000124-0.0866885,0.0000238-0.1300325
		c0.2176456-0.0475807,0.4353476-0.0948806,0.6529036-0.142839c0.1418123-0.0312614,0.2833738-0.0636501,0.4251719-0.0949788
		C15.4124212,7.2490673,15.4260931,7.2503214,15.4393473,7.2496834z"/>
	<path fill="#1DE432" d="M16.8201904,4.8390493c-0.0049267,0.0004921-0.0098457,0.0013099-0.01478,0.0014296
		c-0.1626968,0.0039616-0.1626968,0.0039525-0.1535702-0.1595464c0.026474,0.0279412,0.0568752,0.0140448,0.0861874,0.0075808
		c0.3032761-0.0668845,0.6061935-0.1353874,0.9093189-0.2029586c0.0177288-0.003953,0.0352783-0.0100989,0.0539703-0.0072999
		c0.0142822,0.049993,0.0085621,0.1012702,0.0097675,0.1521029c-0.0183563,0.0165253-0.0419407,0.0188227-0.0645657,0.0238075
		c-0.2708855,0.0596819-0.5410786,0.1225066-0.8127079,0.1787977C16.828968,4.8339663,16.8246231,4.8367701,16.8201904,4.8390493z"
		/>
	<path fill="#0CDB22" d="M15.439208,5.5501604c-0.2693367,0.0600638-0.5386858,0.120069-0.8080025,0.1802216
		c-0.1031942,0.0230489-0.206315,0.0464354-0.3094673,0.0696678c0.0000029-0.0433106,0.0000038-0.0866213,0.0000048-0.1299319
		c0.0192709-0.0215979,0.0466185-0.024435,0.0723133-0.0301213c0.3230467-0.0714984,0.6460104-0.1433682,0.9690247-0.2150121
		c0.0256882-0.0056973,0.0520334-0.0150938,0.0761347,0.0051851C15.4392128,5.4701662,15.4392099,5.5101633,15.439208,5.5501604z"/>
	<path fill="#29E93D" d="M15.4397411,4.760406c-0.0000877,0.0366516-0.0001764,0.0733027-0.0002651,0.1099539
		c-0.0131483,0.0141292-0.0304537,0.0192518-0.048584,0.0232983c-0.3342838,0.0746036-0.6684179,0.149869-1.0028324,0.2238779
		c-0.0226707,0.0050173-0.045969,0.0109-0.0663118-0.0073357c0.0000019-0.0366573,0.0000029-0.0733142,0.0000048-0.1099715
		c0.0139647-0.0163774,0.0336294-0.0201559,0.0532169-0.0245419c0.3244715-0.0726547,0.6492424-0.14397,0.9738302-0.2160954
		C15.3783722,4.7530198,15.4097185,4.7371855,15.4397411,4.760406z"/>
	<path fill="#38EE4A" d="M14.3293114,4.5581408c0.0001879,0.0033216,0.0004892,0.0066414,0.0005465,0.0099654
		c0.0022097,0.1261339,0.0017128,0.1239505,0.1237001,0.0963254c0.3336267-0.0755534,0.6677046-0.1491227,1.0016575-0.2232318
		c0.0079689-0.0017686,0.0165834-0.0006394,0.0248957-0.0008626c-0.0072327,0.0367823-0.0144644,0.0735641-0.021697,0.1103458
		c-0.007514,0.018292-0.0243196,0.0206156-0.0407391,0.0242138c-0.3464947,0.0759444-0.6926908,0.1532359-1.0389481,0.2302451
		c-0.0193338,0.0042996-0.0392017,0.0108867-0.0569677-0.0048857C14.3214712,4.7194638,14.3134804,4.6384311,14.3293114,4.5581408z"
		/>
	<path fill="#1EE433" d="M15.4393911,4.9903121c-0.00002,0.0366573-0.0000391,0.0733147-0.0000591,0.109972
		c-0.0137072,0.0136113-0.0316296,0.0174241-0.0495138,0.0215006c-0.3335743,0.0760274-0.6679621,0.1484094-1.0017576,0.2234426
		c-0.0224075,0.0050368-0.0454969,0.0133195-0.0663099-0.005065c0.000001-0.0366569,0.000001-0.0733142,0.000001-0.1099706
		c0.0192738-0.021605,0.046628-0.024436,0.0723257-0.0301237c0.3230982-0.0715075,0.6461086-0.1434088,0.9691801-0.2150383
		C15.3889637,4.9793301,15.4153128,4.9699998,15.4393911,4.9903121z"/>
	<path fill="#23E738" d="M15.4393902,4.9903121c-0.0834522,0.0019989-0.1621466,0.0293927-0.2425728,0.046783
		c-0.2919559,0.0631289-0.5834188,0.1285439-0.8750658,0.1930966c-0.0000019-0.0399971-0.0000038-0.0799942-0.0000048-0.1199913
		c0.0834007-0.0024309,0.1620903-0.0297103,0.2425356-0.047112c0.2919693-0.0631585,0.5835037-0.1283226,0.8751993-0.192729
		C15.4394474,4.9103441,15.4394188,4.9503279,15.4393902,4.9903121z"/>
	<path fill="#19E22E" d="M14.3217506,5.3401623c0.0794954-0.0057845,0.1553326-0.0300546,0.2325287-0.0470376
		c0.2869244-0.063127,0.5734673-0.1279855,0.8602095-0.1919394c0.0079565-0.0017743,0.0165567-0.0006666,0.0248499-0.0009022
		c-0.0000248,0.0366697-0.000042,0.0733385-0.0000591,0.1100073c-0.0130558,0.0173798-0.0324669,0.0216475-0.0521727,0.0260267
		c-0.3375416,0.0750279-0.6749754,0.1505408-1.0127163,0.2246699c-0.0173149,0.0038018-0.0353346,0.0120749-0.0526409-0.0008817
		C14.3217506,5.4201241,14.3217506,5.3801432,14.3217506,5.3401623z"/>
	<path fill="#2FEB42" d="M17.631218,4.1375499c0.0155735,0.0321641,0.0265617,0.0656438,0.0291557,0.1015339
		c0.0148163,0.0430942-0.0162544,0.0519824-0.0460205,0.0593901c-0.0967903,0.0240879-0.1945782,0.0438619-0.2918892,0.0657067
		c-0.2059803,0.0462399-0.412014,0.0922599-0.6183758,0.1367626c-0.0210457,0.0045385-0.0457287,0.0187216-0.0621376-0.0102286
		c-0.0071316-0.0335054-0.0142612-0.0670104-0.0213928-0.1005158c0.0149879-0.0301991,0.0459156-0.0309334,0.0725117-0.0369034
		c0.279171-0.0626707,0.5585594-0.1243916,0.8379459-0.1861038C17.5652561,4.1596289,17.5984421,4.1495385,17.631218,4.1375499z"/>
	<path fill="#009F12" d="M14.3215523,7.6197395c0.0795469-0.0055995,0.1553764-0.0300183,0.2325888-0.0469933
		c0.2869978-0.0630941,0.573596-0.128005,0.8604002-0.1919847c0.0079632-0.0017767,0.0165596-0.0007329,0.0248518-0.0010056
		c0.0000114,0.0366364,0.0000286,0.0732741,0.0000391,0.1099095c-0.1870909,0.0407028-0.3742723,0.0809569-0.5612278,0.1222415
		c-0.1724424,0.0380807-0.3446083,0.0774102-0.5170107,0.1156735c-0.0127583,0.002831-0.0264378,0.0015059-0.0396824,0.0021138
		C14.3215284,7.6930428,14.3215408,7.6563907,14.3215523,7.6197395z"/>
	<path fill="#10DD26" d="M15.4392157,5.4301696c-0.0834064,0.0022335-0.1621122,0.0294805-0.2425308,0.0468788
		c-0.2919073,0.0631595-0.5833349,0.1285315-0.8749428,0.1930685c0.0000019-0.0366588,0.0000019-0.0733185,0.0000019-0.1099782
		c0.0139561-0.0163698,0.0336075-0.0201569,0.0531874-0.0245419c0.3243227-0.0726204,0.6489544-0.1438456,0.9733763-0.2160177
		c0.0295496-0.0065732,0.0608559-0.022459,0.0909224,0.0006127C15.4392252,5.3568511,15.4392204,5.3935108,15.4392157,5.4301696z"/>
	<path fill="#08D81F" d="M16.7799911,5.3501272c-0.0225048,0.03368-0.0614567,0.0307388-0.0936413,0.0380516
		c-0.2322311,0.0527668-0.4651222,0.1026101-0.6976671,0.1539984c-0.0952549,0.02105-0.1900988,0.0439548-0.285306,0.0652256
		C15.685936,5.6113,15.667222,5.6155496,15.6508627,5.6023364c0.1443081-0.1406727,0.3225899-0.212822,0.5162725-0.2501087
		c0.1954346-0.0376248,0.3924522-0.0343351,0.5893593-0.0098634C16.7645245,5.3433623,16.7721672,5.3474693,16.7799911,5.3501272z"
		/>
	<path fill="#28E83C" d="M16.6419506,4.4907146c0.0357761,0.0167007,0.0683479-0.0052347,0.1004639-0.0122137
		c0.2925148-0.0635576,0.5842266-0.130795,0.8764744-0.1956038c0.0267372-0.0059295,0.0437984-0.0137968,0.0414829-0.043807
		c0.0253963,0.0473685,0.0161514,0.1015821,0.0298748,0.1512613c-0.0137615,0.0143209-0.0327797,0.0155015-0.0504017,0.0195065
		c-0.3005142,0.0682802-0.6016598,0.1337299-0.9022465,0.2016878c-0.0282154,0.0063791-0.0616379,0.0257134-0.0859337-0.0108814
		C16.6484261,4.5640144,16.6451893,4.5273643,16.6419506,4.4907146z"/>
	<path fill="#2FEB42" d="M15.4397411,4.760406c-0.1075096,0.0090008-0.2103939,0.0412583-0.3151693,0.0636878
		c-0.2678995,0.0573492-0.5352497,0.1172528-0.8028202,0.1761346c0.000001-0.0366583,0.000001-0.0733166,0.000001-0.1099749
		c0.0181618-0.0172362,0.042428-0.0184011,0.0647936-0.0233936c0.3376999-0.0753775,0.6755123-0.1502533,1.0132055-0.2256637
		c0.0160894-0.0035925,0.0324116-0.0087042,0.0487547-0.0005798c-0.000782,0.0273976-0.0015659,0.0547953-0.0023556,0.082222
		C15.4366913,4.7341323,15.4422865,4.7479634,15.4397411,4.760406z"/>
	<path fill="#47F358" d="M15.5523853,4.2711229c-0.078661,0.001008-0.1527319,0.0273738-0.2283106,0.0437894
		c-0.3165178,0.0687451-0.6322403,0.1411581-0.9483433,0.2118187c-0.0143757,0.0032134-0.0296373,0.0024629-0.044486,0.0035582
		c0.0001783-0.0034833,0.0003538-0.0069666,0.0005312-0.0104499c0.0089121-0.0197077-0.0022583-0.0418944,0.0075922-0.0614867
		c0.0013952-0.0237398-0.0028477-0.0482745,0.0099258-0.0704241c-0.0057907,0.0491352,0.0200844,0.0478959,0.0570812,0.0395417
		c0.3937178-0.0889072,0.7876358-0.176919,1.1816931-0.2643113c0.0206547-0.004581,0.0430393-0.0013661,0.0646238-0.0017796
		C15.6192608,4.1979613,15.5858231,4.2345424,15.5523853,4.2711229z"/>
	<path fill="#38EE4B" d="M16.5102425,4.200284c0.1839771-0.0406451,0.3679771-0.0811853,0.5519238-0.1219687
		c0.1468258-0.0325532,0.2936878-0.0649567,0.4402542-0.0986345c0.0203075-0.0046663,0.0501823-0.0027649,0.0471649-0.0383482
		c0.0226994,0.0337427,0.0391808,0.0703285,0.0500946,0.109462c-0.0035,0.0414391-0.0390625,0.0409064-0.0660877,0.0471797
		c-0.1249447,0.029007-0.2502708,0.0564046-0.3755341,0.0840354c-0.1708107,0.0376782-0.3414516,0.076118-0.5122833,0.1136913
		c-0.0209885,0.0046158-0.0418053,0.0126915-0.0636635,0.0040755C16.5581551,4.2666121,16.5342007,4.233448,16.5102425,4.200284z"/>
	<path fill="#14E02A" d="M15.43923,5.3201919c-0.1073828,0.0094862-0.2102757,0.041441-0.3150101,0.0638981
		C14.8564558,5.441504,14.5892,5.501297,14.321743,5.5601387c0.000001-0.0333443,0.0000029-0.0666885,0.0000048-0.1000328
		c0.2531786-0.0566831,0.5063457-0.1134028,0.7595339-0.1700306c0.119318-0.0266867,0.2386742-0.0531979,0.3580046-0.0797868
		C15.4392624,5.2469244,15.4392462,5.2835579,15.43923,5.3201919z"/>
	<path fill="#5FFA6E" d="M14.6060762,3.7592552c0.0695095,0.0064824,0.1341829-0.0188897,0.199955-0.0332549
		c0.4313574-0.0942097,0.8621531-0.1909869,1.2931223-0.2869716c0.1775322-0.0395393,0.3549938-0.0793846,0.5326195-0.1184909
		c0.017231-0.003794,0.026804-0.0117204,0.0281506-0.029223c0.0383301,0.0040193,0.0749264,0.0143387,0.1099911,0.0302355
		c0.0073013,0.0394073-0.026804,0.0369391-0.0471077,0.0419481c-0.101881,0.0251341-0.2046528,0.0465815-0.3070774,0.0694723
		c-0.5722771,0.1278956-1.1446257,0.2554686-1.7170973,0.382493c-0.0276537,0.0061362-0.05515,0.0140777-0.0833673,0.0158329
		c-0.0177174,0.0011024-0.0414791,0.0082173-0.0457048-0.0217786C14.5766668,3.7890842,14.5891924,3.7725875,14.6060762,3.7592552z"
		/>
	<path fill="#5FFA6E" d="M14.5695601,3.8095181c0.0373611,0.0274746,0.0742912,0.0029254,0.1090202-0.0046663
		c0.3183413-0.069587,0.6360216-0.1421778,0.9540844-0.2130549c0.3632488-0.0809469,0.7267275-0.1608672,1.0899305-0.2420197
		c0.0176144-0.0039358,0.0417862-0.0018995,0.0473194-0.0282273c0.0316048,0.0051653,0.0613384,0.015836,0.0897141,0.0304997
		c-0.01227,0.0220695-0.0359077,0.0231707-0.0560532,0.027663c-0.4230499,0.0943358-0.8463078,0.1877358-1.2694225,0.2817814
		c-0.2568026,0.0570793-0.5134497,0.1148496-0.7701216,0.1725094C14.699481,3.8485041,14.63517,3.8640785,14.5705938,3.8784621
		c-0.0143995,0.0032074-0.0300245,0.006005-0.0410166-0.0090375C14.540369,3.8477635,14.5520468,3.8266935,14.5695601,3.8095181z"/>
	<path fill="#23E738" d="M16.6516647,4.6006641c0.0291996,0.0219221,0.0591221,0.0031037,0.0860691-0.0027909
		c0.2708397-0.0592422,0.5409565-0.1218019,0.8116722-0.1816249c0.0464725-0.0102692,0.0919323-0.0281591,0.1408386-0.025897
		c0.0131664,0.0281134,0.0096302,0.0583267,0.0110664,0.0879097c-0.0711231,0.0383039-0.1517773,0.0421119-0.2280979,0.0603137
		c-0.2153702,0.0513644-0.432106,0.0970073-0.6483307,0.1447821c-0.0419025,0.0092592-0.084444,0.0160995-0.125721,0.0275536
		c-0.0298557,0.0082841-0.0401421-0.0064917-0.0473232-0.0299792C16.6517811,4.6541767,16.651722,4.6274204,16.6516647,4.6006641z"
		/>
	<path fill="#16E12C" d="M16.8201904,4.8390493c0.0218391-0.0311379,0.0586739-0.0291681,0.0892181-0.036067
		c0.2522621-0.0569811,0.5050812-0.111496,0.757782-0.166513c0.014389-0.0031328,0.0292454-0.0041237,0.0438881-0.0061116
		c0.0119076,0.0541725,0.0028629,0.1092515,0.0071621,0.1636395c0.002943,0.0372267-0.0094986,0.0478072-0.0470829,0.0475564
		c-0.2455254-0.0016389-0.4910641-0.0007176-0.736599-0.0008383C16.8964348,4.8406963,16.8583126,4.8396306,16.8201904,4.8390493z"
		/>
	<path fill="#33ED46" d="M15.4485064,4.6406164c-0.1522617,0.0450015-0.3088398,0.071631-0.4631271,0.1080308
		c-0.2025757,0.0477924-0.4065609,0.0895982-0.6096706,0.1351719c-0.0181513,0.0040727-0.0357294,0.0062871-0.053957,0.0064344
		c0.0000038-0.0299993,0.0000048-0.059998,0.0000076-0.0899973c0.1146374-0.0244198,0.2294607-0.0480032,0.3438749-0.0734334
		c0.2450838-0.0544739,0.4899387-0.1099849,0.7349529-0.1647739c0.019146-0.0042815,0.0402689,0.0012865,0.0578289-0.0113664
		C15.4551115,4.5806608,15.4518099,4.6106386,15.4485064,4.6406164z"/>
	<path fill="#34ED46" d="M16.5821114,4.2997766c0.1561203-0.0444031,0.3158817-0.0730567,0.4739113-0.1091857
		c0.1661892-0.0379944,0.3328762-0.0738077,0.4992619-0.1109524c0.0179176-0.0040007,0.0353947-0.0103331,0.0443974-0.0288444
		c0.0163803,0.0267925,0.0262985,0.0559316,0.0315304,0.0867653c-0.0061874,0.0307641-0.03339,0.0282083-0.0546303,0.0329685
		c-0.2982006,0.0668311-0.5965462,0.1330061-0.8947487,0.1998234c-0.0208607,0.004674-0.0408726,0.0131435-0.0612774,0.0198479
		C16.6077423,4.3600583,16.5949268,4.3299174,16.5821114,4.2997766z"/>
	<path fill="#3EF050" d="M14.3393688,4.4583526c-0.0015545,0.020617,0.0077744,0.0425777-0.0075932,0.0614877
		C14.3310795,4.4989452,14.3274202,4.4776855,14.3393688,4.4583526z"/>
	<path fill="#00CC15" d="M11.400281,5.6001039c0.0022964-0.0168409-0.0066986-0.0359278,0.0099354-0.0499153
		C11.406498,5.5667467,11.4136105,5.5854592,11.400281,5.6001039z"/>
	<path fill="#00AD12" d="M11.6800108,8.0996284c-0.0191584-0.0084829-0.0210648-0.024538-0.018652-0.0425053
		C11.6727676,8.069005,11.6774817,8.0838375,11.6800108,8.0996284z"/>
	<path fill="#292929" d="M15.4711628,8.0194979c-0.0138092-0.044364-0.021699-0.0891714-0.0216103-0.136241
		c0.0007401-0.3896375,0.0002871-0.7792759,0.0001135-1.1689143c-0.0000086-0.0182872-0.0007677-0.0365739-0.0011835-0.0548611
		c0.0073624-0.0497832,0.0147314-0.0995665,0.0221004-0.1493492c0.0287971-0.0763612,0.0632286-0.1495061,0.1198635-0.2099791
		c0.1546812-0.1317816,0.3382769-0.150527,0.5303307-0.1348448c0.0396137,0.0032344,0.0789394,0.0099626,0.1183949,0.0150833
		c0.1002998,0.031424,0.191515,0.0777097,0.260973,0.1595736c0.0337009,0.0498862,0.0586643,0.1041794,0.0807037,0.1599493
		c0.0159817,0.0792375,0.0305862,0.1586509,0.0306168,0.239923c-0.0000057,0.0699892-0.0000172,0.1399798-0.0000286,0.2099695
		c0.0268669,0.0581427,0.0098743,0.1194954,0.0132122,0.1793599c0.0014973,0.0632448,0.0016899,0.1264949-0.000021,0.1897416
		c0.0014534,0.0536222,0.0015564,0.107245,0.0000076,0.1608686c0.0016079,0.0634227,0.0016727,0.1268411,0.000042,0.1902676
		c0.0023003,0.0511627,0.0011215,0.1023388,0.0006561,0.1534972c-0.0001793,0.0195956,0.0006313,0.0401015-0.0158195,0.0553265
		c-0.0150509,0.0859375-0.0330677,0.1710324-0.0711308,0.2504382c-0.0872707,0.1348705-0.2172127,0.1976662-0.3712387,0.2198277
		c-0.1378059,0.0198278-0.2733097,0.0071392-0.4071827-0.0287113c-0.0657578-0.0132589-0.1176863-0.0493307-0.1626835-0.0974731
		c-0.0146446-0.0156689-0.0312014-0.0295496-0.0468826-0.0442562C15.5166502,8.1292744,15.493926,8.0743771,15.4711628,8.0194979z"
		/>
	<path fill="#008712" d="M16.6095123,7.8788686c0.0005741-0.0697355,0.0011482-0.1394711,0.0017242-0.2092061
		c0.0205536-0.0196748,0.047924-0.0221953,0.0735435-0.027874c0.3260498-0.0722771,0.6520672-0.1447067,0.9780674-0.2172208
		c0.0225716-0.0050211,0.0455818-0.0126405,0.0665455,0.0050364c0.0001335,0.0648479-0.0000629,0.1296983,0.0005856,0.1945415
		c0.0002079,0.0206771-0.0041103,0.0312443-0.028574,0.0366297c-0.351675,0.0774221-0.7029991,0.1564445-1.0543594,0.2352958
		C16.6294498,7.9000182,16.6133995,7.9034829,16.6095123,7.8788686z"/>
	<path fill="#009012" d="M17.729393,7.4296041c-0.0779686,0.0051322-0.1523762,0.0288777-0.2280025,0.0454125
		c-0.2887516,0.063127-0.5768871,0.1290722-0.8653107,0.1937122c-0.0079556,0.0017829-0.0165577,0.0006876-0.0248508,0.0009341
		c0.0000248-0.0633049,0.000042-0.1266088,0.000061-0.1899128c0.0113811-0.0113239,0.0264988-0.012958,0.0411263-0.0161843
		c0.3383293-0.0746112,0.6762829-0.1509075,1.0146885-0.2251625c0.0206089-0.0045218,0.0418453-0.0145211,0.062233,0.0013466
		C17.7293568,7.3030343,17.7293739,7.3663197,17.729393,7.4296041z"/>
	<path fill="#009C12" d="M16.6113453,7.3197317c0.0000153-0.063313,0.0000324-0.126626,0.0000477-0.189939
		c0.0113525-0.0113788,0.0264931-0.0129547,0.0411129-0.0161781c0.3382721-0.0745926,0.6761646-0.1508899,1.0145168-0.2251277
		c0.0205994-0.0045199,0.0418301-0.0145421,0.0622253,0.0013075c0.0000134,0.0633082,0.0000267,0.1266165,0.0000381,0.1899247
		c-0.0167809,0.0158968-0.0390511,0.0176091-0.0598564,0.0222397c-0.3337688,0.074296-0.6674728,0.1488857-1.0013103,0.2228751
		C16.6488018,7.3291159,16.6290035,7.3354225,16.6113453,7.3197317z"/>
	<path fill="#00A212" d="M17.729248,6.8897948c-0.2014923,0.0444093-0.4030628,0.0884795-0.6044559,0.1333361
		c-0.1546726,0.034451-0.3090649,0.0701571-0.4637623,0.1045008c-0.0159245,0.0035353-0.0330696,0.0015731-0.0496426,0.0021615
		c0.0000172-0.0599952,0.0000286-0.1199908,0.0000439-0.179986c0.0834293-0.0022764,0.1621227-0.0295949,0.2425613-0.0470095
		c0.2919903-0.0632095,0.5835342-0.1284785,0.8752384-0.1929722C17.7292347,6.7698145,17.7292404,6.8298044,17.729248,6.8897948z"/>
	<path fill="#009412" d="M16.6113453,7.3197317c0.112999-0.0238628,0.2262192-0.0467148,0.3389473-0.0717931
		c0.2465439-0.0548515,0.492815-0.1109352,0.7392979-0.1660671c0.0127602-0.0028529,0.0264511-0.0015283,0.0397015-0.0021505
		c0.0000153,0.0533423,0.0000381,0.1066861,0.0000515,0.1600294c-0.2015343,0.044404-0.4031391,0.0884681-0.6045666,0.1333246
		c-0.1546993,0.0344505-0.3091202,0.0701637-0.4638424,0.1045103c-0.0159283,0.0035367-0.0330753,0.0015755-0.0496521,0.0021648
		C16.6113071,7.4264107,16.6113281,7.3730712,16.6113453,7.3197317z"/>
</g>
</svg>
