<?xml version="1.0" encoding="utf-8"?>
<!-- Generator: Adobe Illustrator 24.1.1, SVG Export Plug-In . SVG Version: 6.00 Build 0)  -->
<svg version="1.1" id="Слой_1" xmlns="http://www.w3.org/2000/svg" xmlns:xlink="http://www.w3.org/1999/xlink" x="0px" y="0px"
	 viewBox="0 0 32 13" enable-background="new 0 0 32 13" xml:space="preserve" width="32px" height="13px">
<g>
	<path fill="#292929" d="M9.4913816,6.685967C9.4913788,6.525331,9.4913759,6.3646955,9.4913731,6.2040596
		c0.0108566-0.0373974-0.0020027-0.0763283,0.0073557-0.1138225c0.0008936-0.0251822,0.0017872-0.050365,0.0026808-0.0755467
		c0.0095825-0.0241055-0.0010843-0.0502214,0.007391-0.0744371C9.5096083,5.9244118,9.510416,5.9085698,9.5112228,5.8927279
		C9.5211782,5.872807,9.510416,5.8504,9.5187168,5.8302808c0.0105963-0.1013179,0.0157499-0.2035766,0.033061-0.3037338
		c0.0262432-0.1518221,0.052598-0.303658,0.0876808-0.4540815C9.6828527,4.8864059,9.7315264,4.702311,9.7900257,4.5203996
		C9.8453178,4.3484597,9.9058609,4.1782894,9.9773092,4.012908c0.0683279-0.1581569,0.1393442-0.315321,0.2224092-0.4673138
		c0.1216364-0.2225707,0.2472124-0.4424038,0.3915453-0.6508319c0.1254711-0.1811891,0.2592258-0.3557842,0.4036055-0.5232811
		c0.1590862-0.1845591,0.3255377-0.3612678,0.5019455-0.5284923c0.1397753-0.1324981,0.2844362-0.2601054,0.4406509-0.3736668
		c0.0118895-0.0086423,0.0219622-0.0197821,0.0328789-0.029761c0.0147734-0.0071322,0.0256929-0.0194439,0.0387735-0.028851
		c0.1554985-0.1191809,0.3156185-0.2323105,0.4828396-0.3338913c0.4818935-0.2927336,0.9901218-0.5290137,1.5293894-0.6963921
		c0.7041149-0.2185432,1.4251299-0.3198005,2.1616592-0.2968642c1.2844105,0.0399979,2.4635448,0.4123947,3.5290928,1.1350365
		c0.0927811,0.0629231,0.183712,0.1285756,0.2755013,0.192961c0.0161896,0.0074182,0.0290756,0.0191334,0.0412788,0.0317369
		c0.0123768,0.0179667,0.0289612,0.0304699,0.0493736,0.037997c0.0152988,0.0086316,0.0292091,0.0189764,0.0403976,0.0326856
		c0.1038532,0.0950248,0.2144623,0.18218,0.3183975,0.2773141c0.1364403,0.1248845,0.2672539,0.255319,0.3937092,0.3898031
		c0.1519794,0.1616278,0.2926807,0.3332264,0.4254646,0.5112431c0.2456627,0.3293419,0.459362,0.6780457,0.6366997,1.048677
		c0.2010078,0.4201071,0.3561592,0.8561528,0.4577808,1.3113201c0.052742,0.2362146,0.0955219,0.4736376,0.1192513,0.7144942
		c0.0021,0.0213203,0.007473,0.0423183,0.0113239,0.0634656c0.008337,0.0200658-0.0025139,0.0424471,0.0075245,0.0623069
		c0.0007992,0.0158887,0.0015965,0.0317769,0.0023956,0.0476661c0.0084763,0.0242047-0.0021801,0.0503068,0.0073776,0.0744047
		c0.0008907,0.0251904,0.0017834,0.0503802,0.0026779,0.0755706c0.009409,0.0374308-0.0035114,0.0763092,0.0073681,0.1136446
		c0.0000019,0.1607351,0.0000038,0.3214698,0.0000095,0.4822049c-0.0108967,0.0373459,0.0020332,0.0762377-0.0073776,0.1136799
		c-0.0008907,0.0251889-0.0017834,0.0503774-0.0026741,0.0755663c-0.0095654,0.0240955,0.0010872,0.0501952-0.0073738,0.0744004
		c-0.0007992,0.0158849-0.0016003,0.0317702-0.0023975,0.0476556c-0.0100441,0.0198631,0.0008068,0.0422497-0.0075264,0.0623188
		c-0.0407448,0.3333025-0.0937061,0.6642284-0.1812134,0.9891138c-0.1203003,0.4466391-0.2850876,0.8757324-0.5000324,1.2853479
		c-0.1864223,0.3552589-0.4046822,0.6894817-0.6532402,1.0048866c-0.2072773,0.2630243-0.4371624,0.5042667-0.6801758,0.7333403
		c-0.1119328,0.1055098-0.2317333,0.2026749-0.3479652,0.3036251c-0.0111923,0.0137148-0.0251102,0.0240602-0.0404129,0.0326958
		c-0.0990372,0.0714054-0.1977768,0.1432285-0.2971706,0.2141352c-0.2414665,0.1722593-0.49576,0.3231525-0.7594833,0.4588156
		c-0.211977,0.1090431-0.4291325,0.2059164-0.6518955,0.2905197c-0.0106354,0.0040417-0.0199547,0.0115499-0.0298862,0.0174427
		c-0.0159283,0.0120049-0.0354156,0.0135365-0.0538101,0.0182753c-0.0117035-0.0028849-0.0179119,0.0066175-0.0261269,0.01159
		c-0.032896,0.0289068-0.078289,0.0204229-0.1148415,0.0383844c-0.0292149,0.0075655-0.0587788,0.0141449-0.084959,0.0302315
		c-0.0550709,0.0131426-0.1053429,0.0420427-0.1621799,0.0493774l0.0011616-0.0007772
		c-0.0218983,0.0127296-0.0473824,0.0134869-0.0707817,0.0212049l0.0010548-0.0006142
		c-0.0225563,0.0110989-0.0474148,0.0140991-0.071373,0.0202627l0.0011578-0.0007591
		c-0.1622124,0.0485325-0.3275146,0.0837975-0.4932194,0.1180077c-0.0972881,0.0200891-0.1955452,0.0351143-0.2930088,0.0538244
		c-0.0654278,0.0125589-0.1331615,0.0230675-0.2007618,0.0269489c-0.0393047,0.0022564-0.0784111,0.0081511-0.1174946,0.0116978
		c-0.1132126,0.0102768-0.2257137,0.0262451-0.3399029,0.0170593c-0.0195446-0.0015736-0.0399323-0.0037041-0.0592651,0.003808
		c-0.1703014,0.0000019-0.3406048,0.0000048-0.5109072,0.0000076c-0.0478563-0.0065031-0.0957632-0.0080948-0.1433849,0.0011911
		c-0.0133553,0.0026026-0.0264063,0.0035677-0.0395632,0.0014467c-0.1204443-0.0194149-0.2431173-0.0179243-0.3634205-0.0363436
		c-0.2104235-0.032217-0.4205179-0.0671482-0.6283283-0.1139069c-0.1103878-0.0248384-0.2209883-0.0492163-0.3289461-0.0837631
		l0.001152,0.0007696c-0.0239601-0.006156-0.0488281-0.0091219-0.0713701-0.0202742l0.00105,0.0006247
		c-0.0234089-0.0076904-0.0488844-0.0084772-0.0707903-0.0211868l0.001153,0.0007763
		c-0.0568371-0.0073328-0.1071033-0.0362463-0.1621733-0.0493822c-0.0299072-0.0096569-0.0598154-0.0193138-0.0897236-0.0289707
		c-0.0333195-0.0225725-0.0793362-0.0098972-0.1100721-0.0396452c-0.0100718-0.0037708-0.0229301,0.0006771-0.0305443-0.0103483
		c-0.0157528-0.0083065-0.0349607-0.0078688-0.0493917-0.0195169c-0.1216354-0.0400991-0.2382765-0.0927019-0.3554325-0.1437635
		c-0.0686264-0.0299101-0.1350336-0.0649099-0.2024384-0.097621c-0.015624-0.0023317-0.0292158-0.0093746-0.0420609-0.0181475
		c-0.0140419-0.0068474-0.0280848-0.0136948-0.0421286-0.0205421c-0.0216122-0.0053787-0.042635-0.0119123-0.0579576-0.0296021
		c-0.2062654-0.1081953-0.4073544-0.2253819-0.6022663-0.3527927c-0.1513939-0.0989647-0.299861-0.2023163-0.4393902-0.3178444
		c-0.0126638-0.0098534-0.0238094-0.0216866-0.0382061-0.0292788c-0.2389641-0.1884747-0.4610395-0.3957186-0.6688213-0.6174841
		c-0.1732702-0.1849308-0.3380566-0.3773022-0.4885101-0.582263c-0.1149435-0.1565857-0.223115-0.31742-0.3247976-0.4822712
		c-0.0713358-0.115653-0.1348724-0.2365427-0.1999273-0.3562412c-0.0810585-0.149147-0.1525631-0.302537-0.2178154-0.458642
		C9.9152203,8.7271128,9.8574324,8.5680857,9.8026342,8.4077568c-0.0625525-0.1830196-0.1131039-0.3692923-0.158742-0.5563836
		C9.6131792,7.7254658,9.5917568,7.5962973,9.5704851,7.4676557C9.5523825,7.3581872,9.5440741,7.2473874,9.5220032,7.1384926
		C9.5169897,7.1137528,9.5249233,7.0859256,9.5187168,7.059731C9.510416,7.0396118,9.5211763,7.0172062,9.5112247,6.9972854
		C9.510417,6.9814429,9.5096092,6.965601,9.5088005,6.9497585C9.5003281,6.9255424,9.5109854,6.8994279,9.5014143,6.8753209
		c-0.0008945-0.0251822-0.00179-0.0503645-0.0026855-0.0755467C9.4893751,6.7622838,9.5022211,6.7233615,9.4913816,6.685967z"/>
	<path fill="#FEFEFE" d="M16.255455,12.8081598c0.1175041-0.0091257,0.2350807-0.0174026,0.352499-0.0275345
		c0.3765068-0.032486,0.7470264-0.0991507,1.1121254-0.196413c0.0127602-0.0033989,0.0260067-0.0049706,0.0390263-0.0073957
		c-0.029808,0.0279312-0.0702057,0.0248909-0.1057777,0.0357084c-0.1500473,0.0456305-0.3052635,0.0699844-0.4574757,0.1068354
		c-0.059824,0.0144825-0.1239891,0.0178928-0.1854591,0.0331745c-0.0155067,0.0038557-0.0204296,0.013072-0.0303974,0.0196457
		c-0.0107822,0.0071125-0.024065,0.020792-0.0354176,0.0119505c-0.0477753-0.0372019-0.0829792,0.0006161-0.1261692,0.0102768
		c-0.0385933,0.0086317-0.0857391,0.0259991-0.1186924,0.0187979c-0.0343342-0.0075054-0.0543938-0.0140171-0.0777702,0.0130777
		c-0.0024624,0.0028563-0.010685,0.0040884-0.0141602,0.0022192c-0.0462475-0.0248737-0.0867367-0.0210152-0.1330166,0.0079613
		c-0.0220184,0.0137882-0.0580788,0.00243-0.0880184-0.0172825C16.3482475,12.7938232,16.2993546,12.8146067,16.255455,12.8081598z"
		/>
	<path fill="#FEFEFE" d="M14.2409048,12.5767918c0.1697979,0.0386429,0.3382816,0.0826635,0.509717,0.1145754
		c0.3125982,0.0581875,0.6271496,0.0973644,0.9449291,0.1101427c0.0163774,0.0006599,0.03263,0.0043592,0.0489693,0.0066509
		c-0.0543346,0.0060596-0.1095285-0.0087767-0.1629944,0.0255346c-0.025507,0.0163708-0.0719433,0.0190039-0.098691-0.0191326
		c-0.0139303-0.0198603-0.0288897-0.0193481-0.0451536-0.0027504c-0.0034218,0.0034924-0.0078373,0.0060835-0.0120134,0.0087481
		c-0.0401764,0.0256262-0.0675726-0.0273447-0.0880013-0.0223198c-0.0307283,0.0075588-0.0542059,0.0367355-0.0830631-0.0013218
		c-0.0049057-0.0064707-0.0129642-0.0187502-0.0177822-0.013381c-0.0500479,0.0557823-0.082737-0.0275993-0.1269436-0.0151453
		c-0.0031309,0.0008812-0.0099726-0.0079603-0.011919-0.0068302c-0.0867586,0.0504408-0.1521187-0.0315351-0.2310209-0.0394869
		c-0.1960306-0.0197573-0.3869038-0.0749025-0.5782032-0.1232386
		C14.2716894,12.5945301,14.2521448,12.5942698,14.2409048,12.5767918z"/>
	<path fill="#FEFEFE" d="M18.1450272,12.4578876c0.0366287-0.0177355,0.0746574-0.0312853,0.1148415-0.0383844
		c0.003849,0.0334654-0.0118847,0.0491543-0.0426464,0.0362225C18.1909962,12.4447021,18.1690636,12.4643717,18.1450272,12.4578876z
		"/>
	<path fill="#FEFEFE" d="M13.7401304,12.4195032c0.0387392,0.0075293,0.0766706,0.0173006,0.1100721,0.0396452
		c-0.0255127-0.0001812-0.0492172-0.0116425-0.0769939-0.0018311
		C13.7431345,12.4679413,13.7384424,12.4435701,13.7401304,12.4195032z"/>
	<path fill="#FEFEFE" d="M17.8978882,12.5374966c0.0527954-0.0206108,0.1060333-0.0397682,0.1621799-0.0493774
		C18.0063801,12.5057955,17.9609241,12.5505133,17.8978882,12.5374966z"/>
	<path fill="#FEFEFE" d="M13.9399261,12.4881191c0.0561409,0.0096149,0.1093836,0.028738,0.1621675,0.049387
		C14.0390682,12.5505028,13.9936142,12.5057917,13.9399261,12.4881191z"/>
	<path fill="#FEFEFE" d="M12.9601765,12.0799618c0.0230865,0.002492,0.0426264,0.0119276,0.0579576,0.0296021
		C12.986865,12.1230888,12.9575176,12.1328516,12.9601765,12.0799618z"/>
	<path fill="#FCFCFC" d="M9.4987288,6.0902371c0.0006113,0.0381236,0.0025015,0.0763307-0.0073547,0.1138
		C9.4931965,6.1660781,9.4817247,6.1272378,9.4987288,6.0902371z"/>
	<path fill="#FCFCFC" d="M22.5012531,6.7997742c-0.0006695-0.0380826-0.0024071-0.0762353,0.0073776-0.1136599
		C22.5067406,6.7240248,22.5183334,6.7628298,22.5012531,6.7997742z"/>
	<path fill="#FCFCFC" d="M9.4913816,6.685967c0.009819,0.0374603,0.0079613,0.0756736,0.0073471,0.1138072
		C9.4817286,6.7627778,9.4931879,6.7239442,9.4913816,6.685967z"/>
	<path fill="#FCFCFC" d="M22.5086212,6.2038894c-0.0097675-0.0374079-0.0080395-0.0755606-0.0073681-0.1136446
		C22.5183277,6.1271787,22.506752,6.1659703,22.5086212,6.2038894z"/>
	<path fill="#FEFEFE" d="M14.1009464,12.536725c0.0247593,0.0031738,0.0488434,0.0085983,0.0707855,0.0211906
		C14.1452951,12.5603523,14.1204033,12.5576191,14.1009464,12.536725z"/>
	<path fill="#FEFEFE" d="M14.1706867,12.5572872c0.0250082,0.0024633,0.04914,0.0080032,0.0713634,0.0202789
		C14.2154026,12.5808849,14.1907244,12.5772524,14.1706867,12.5572872z"/>
	<path fill="#FEFEFE" d="M17.7579498,12.5775728c0.0222988-0.0120077,0.0463219-0.0179386,0.071373-0.0202599
		C17.8092728,12.5772419,17.7845993,12.580884,17.7579498,12.5775728z"/>
	<path fill="#FEFEFE" d="M17.8282681,12.5579243c0.0219479-0.0125599,0.0460129-0.0180511,0.0707817-0.0212021
		C17.8796005,12.55762,17.854702,12.5603333,17.8282681,12.5579243z"/>
	<path fill="#FEFEFE" d="M13.6601944,12.3896379c0.0188074,0.000576,0.0362053,0.0047188,0.0493917,0.0195169
		C13.6871881,12.4176617,13.6702585,12.4123383,13.6601944,12.3896379z"/>
	<path fill="#FEFEFE" d="M18.2859955,12.4079132c0.0165539-0.0101614,0.0336781-0.0186443,0.0538101-0.0182753
		C18.3288288,12.4162235,18.3084221,12.4150419,18.2859955,12.4079132z"/>
	<path fill="#FCFCFC" d="M9.5014143,6.8753209c0.0099573,0.0240688,0.0082493,0.0492954,0.0073862,0.0744376
		C9.4924135,6.9263272,9.5030289,6.900218,9.5014143,6.8753209z"/>
	<path fill="#FCFCFC" d="M22.4912052,6.9497409c-0.0008583-0.0251117-0.0025177-0.0503035,0.00737-0.0743761
		C22.4969788,6.9002252,22.5076008,6.926322,22.4912052,6.9497409z"/>
	<path fill="#FCFCFC" d="M22.4985752,6.0146742c-0.0098877-0.024066-0.0082226-0.0492759-0.0073776-0.0744057
		C22.5076103,5.9636874,22.4969749,5.9897876,22.4985752,6.0146742z"/>
	<path fill="#FCFCFC" d="M9.5088005,5.9402533c0.000865,0.025126,0.0025721,0.0503354-0.0073862,0.0744128
		C9.5030308,5.9897947,9.4924135,5.9636831,9.5088005,5.9402533z"/>
	<path fill="#FCFCFC" d="M20.1186504,1.5139796c-0.0134659-0.010895-0.0269318-0.0217903-0.0403976-0.0326856
		C20.1002979,1.4815881,20.1126995,1.4937962,20.1186504,1.5139796z"/>
	<path fill="#FCFCFC" d="M12.0091181,1.4107101c-0.0076427,0.016714-0.0204554,0.0264807-0.0387735,0.028851
		C11.9794788,1.4248511,11.989747,1.4116646,12.0091181,1.4107101z"/>
	<path fill="#FCFCFC" d="M9.5187168,5.8302808c0.0013418,0.0212727,0.0012197,0.0423698-0.0074959,0.0624409
		C9.5125065,5.8717666,9.5033731,5.8495555,9.5187168,5.8302808z"/>
	<path fill="#FCFCFC" d="M11.8803139,11.3800459c0.0186214,0.002079,0.0304003,0.0130863,0.0382061,0.0292788
		C11.8993282,11.4079885,11.8891296,11.3949194,11.8803139,11.3800459z"/>
	<path fill="#FCFCFC" d="M20.0782433,11.4087257c0.0134697-0.0108986,0.0269413-0.0217972,0.040411-0.0326967
		C20.1127052,11.3962221,20.1002884,11.4084225,20.0782433,11.4087257z"/>
	<path fill="#FCFCFC" d="M9.5112247,6.9972854C9.5199499,7.0173531,9.5200253,7.0384593,9.5187168,7.059731
		C9.5033693,7.0404572,9.5125093,7.0182462,9.5112247,6.9972854z"/>
	<path fill="#FEFEFE" d="M13.0602627,12.130106c0.0173388-0.0016394,0.0297289,0.0081863,0.0420609,0.0181475
		C13.0799503,12.161561,13.0699577,12.1461773,13.0602627,12.130106z"/>
	<path fill="#FCFCFC" d="M22.488802,5.8926034c-0.0086708-0.0200253-0.0088463-0.0410757-0.0075207-0.0623069
		C22.4966297,5.8495154,22.4874954,5.8716898,22.488802,5.8926034z"/>
	<path fill="#FCFCFC" d="M20.0288792,1.4432968c-0.0137596-0.010579-0.0275192-0.0211577-0.0412788-0.0317367
		C20.0098858,1.4110509,20.0221043,1.4236346,20.0288792,1.4432968z"/>
	<path fill="#FCFCFC" d="M22.4812813,7.0597153c-0.0013256-0.0212331-0.0011501-0.0422845,0.0075264-0.0623136
		C22.4874916,7.0183129,22.4966297,7.0404925,22.4812813,7.0597153z"/>
	<path fill="#818181" d="M17.5018597,0.8707723c0.1675758,0.0402563,0.3321171,0.0906411,0.4941998,0.1490307
		c0.2031002,0.0731664,0.401968,0.1557193,0.5967941,0.2495401c0.2666702,0.1284176,0.5206146,0.2776563,0.7685604,0.4383917
		c0.1979771,0.1283451,0.3801975,0.2764781,0.5596352,0.4290216c0.1575508,0.133935,0.3041973,0.2791626,0.4453259,0.4292314
		c0.2020721,0.2148769,0.3879852,0.4436169,0.5527439,0.6892405c0.1556206,0.2320039,0.2990761,0.4713981,0.4204807,0.722436
		c0.1313591,0.27162,0.2380543,0.5534756,0.3254662,0.843262c0.0655708,0.2173648,0.1141224,0.437789,0.1581669,0.6597409
		c0.0250797,0.1263847,0.031311,0.2553334,0.0485821,0.382709c0.0336151,0.2479553,0.0275116,0.4968748,0.0276775,0.7457595
		c0.0001278,0.1906028-0.025774,0.379066-0.0445919,0.5683174c-0.0226498,0.2277799-0.0705471,0.450273-0.1270924,0.6706924
		c-0.0853424,0.3326693-0.2009144,0.6550646-0.3440094,0.9680462c-0.1170864,0.2560959-0.2564526,0.4994993-0.4089127,0.7348709
		c-0.1267948,0.1957502-0.2656193,0.3835163-0.4192791,0.5605192c-0.1419086,0.1634665-0.2918549,0.3185606-0.4456596,0.4703169
		c-0.1075249,0.1060925-0.2236843,0.2026005-0.3389225,0.3000574c-0.0260181,0.0220022-0.0446987,0.0304184-0.0736809-0.0062571
		c-0.2424622-0.3068295-0.4875584-0.6115847-0.7334023-0.9157171c-0.0205898-0.0254688-0.0168438-0.0360594,0.0058956-0.0541563
		c0.2323132-0.184865,0.4399338-0.3945932,0.6334629-0.6196518c0.2412243-0.2805262,0.4368668-0.5903044,0.6032429-0.9191093
		c0.1256771-0.2483778,0.2196426-0.5092635,0.2968788-0.7768164c0.0691853-0.2396703,0.1150208-0.4836321,0.1432724-0.7306232
		c0.024374-0.2131033,0.0285263-0.4278498,0.0217037-0.6422911c-0.0078068-0.245398-0.035881-0.488503-0.082922-0.7299047
		c-0.0465279-0.2387733-0.114666-0.4709649-0.1984043-0.698616c-0.089716-0.2439051-0.2019215-0.4773445-0.3342705-0.7014809
		c-0.1160812-0.1965902-0.2419758-0.3865459-0.3866405-0.5625763c-0.1520138-0.1849737-0.318222-0.3571668-0.4941978-0.5204887
		c-0.2230568-0.2070174-0.4673309-0.3840394-0.7270947-0.5405498c-0.3200531-0.1928365-0.657835-0.347409-1.014164-0.4607942
		c0.0209694-0.2246383,0.0277176-0.4500844,0.0397015-0.6752536c0.0078316-0.1471362,0.0172424-0.2942141,0.0243549-0.4414175
		C17.4948406,0.8800432,17.4972267,0.8748878,17.5018597,0.8707723z"/>
	<path fill="#006C6B" d="M16.6985035,7.120204c-0.0761871,0.2320113-0.1523991,0.4640145-0.2285576,0.6960359
		c-0.1368103,0.4167914-0.2743244,0.8333535-0.4093437,1.2507243c-0.0150471,0.0465136-0.0340023,0.0644817-0.0857182,0.0640621
		c-0.3363962-0.0027313-0.6728287-0.0020704-1.0092411-0.0005732c-0.0427561,0.0001898-0.0532751-0.0047979-0.0379524-0.0505724
		c0.1334639-0.3986788,0.2643223-0.7982302,0.3957691-1.1975818c0.0524664-0.159399,0.1043577-0.3189859,0.1568499-0.478375
		c0.0051146-0.0155263,0.0126286-0.0302606,0.0190296-0.0453629c0.0282192,0.0057878,0.0556469,0.0028853,0.0837831-0.0034328
		c0.3504171-0.0786867,0.7015095-0.1543355,1.051918-0.2330709C16.6558628,7.1173797,16.6770611,7.1104417,16.6985035,7.120204z"/>
	<path fill="#00C4B8" d="M10.1020002,6.3503981C10.1014547,6.2843938,10.101285,6.2183828,10.1000919,6.15239
		c-0.0002832-0.0156846,0.0045004-0.0289884,0.0117569-0.0420761c0.0315943-0.0026088,0.0414009,0.0241642,0.0555735,0.0430837
		c0.189642,0.2531586,0.3810301,0.505003,0.5717478,0.7573457c0.2991199,0.395771,0.5969381,0.7925282,0.8976517,1.1870952
		c0.016819,0.0220671,0.0310097,0.0484209,0.0635128,0.0516882c0.0899696,0.2017336,0.1916275,0.397315,0.3078728,0.5852318
		c0.1311445,0.2119989,0.274704,0.4145594,0.4409399,0.6011591c0.1836529,0.2061501,0.3776617,0.4009743,0.5936003,0.5734901
		c0.009264,0.0074015,0.0325632,0.0139771,0.0157795,0.0337114c-0.077363,0.0909691-0.1434011,0.1912689-0.2278318,0.2763939
		c-0.0362158,0.0142231-0.0459328-0.0178995-0.060298-0.0369892c-0.1682434-0.2235689-0.3376713-0.4462414-0.5061417-0.6696377
		c-0.3900824-0.5172577-0.7805681-1.034214-1.1710854-1.5511441c-0.303174-0.4013138-0.603591-0.8047585-0.9116964-1.2022648
		c-0.0570631-0.0736203-0.0849485-0.1439028-0.0772934-0.2349834C10.1090078,6.4670382,10.1099672,6.4083304,10.1020002,6.3503981z"
		/>
	<path fill="#00BEB2" d="M10.1020002,6.3503981c0.0175629,0.0415883,0.0119123,0.0861497,0.0068588,0.1274805
		c-0.014185,0.1160164,0.026783,0.2050161,0.0980244,0.2968321c0.2904844,0.3743777,0.5727978,0.7550926,0.8582649,1.1333656
		c0.246541,0.3266907,0.4932709,0.6532383,0.7399178,0.9798489c0.2466469,0.3266125,0.4932165,0.6532831,0.7399855,0.9798012
		c0.0819187,0.1083927,0.1644564,0.2163162,0.2464161,0.3246775c0.010314,0.0136347,0.0200949,0.0268002,0.0392265,0.0271091
		c-0.0508356,0.0833902-0.1175394,0.1544552-0.1785955,0.2299099c-0.0050564,0.0062475-0.0098162,0.0127382-0.0147152,0.0191154
		c-0.0345631,0.0056067-0.0449696-0.024003-0.0602989-0.0436468c-0.128005-0.164031-0.2508698-0.3319645-0.3764505-0.497839
		c-0.3807573-0.5029268-0.7606421-1.0065117-1.1405878-1.5100527c-0.2265654-0.3002672-0.4541521-0.5997624-0.6801558-0.900456
		c-0.0769558-0.102387-0.1570206-0.2024369-0.2309065-0.3071351c-0.0385733-0.2684312-0.0553036-0.538178-0.0486917-0.8093257
		C10.1006956,6.3835173,10.1014233,6.3669596,10.1020002,6.3503981z"/>
	<path fill="#00B9AE" d="M10.148984,7.2094088c0.0719099,0.058423,0.1163149,0.1393681,0.1711445,0.211493
		c0.2405214,0.3163872,0.4790096,0.6343207,0.7185526,0.9514527c0.1197796,0.1585751,0.2406178,0.3163538,0.360321,0.474987
		c0.2503595,0.3317785,0.5001307,0.6639996,0.7504549,0.9958048c0.1196814,0.1586409,0.2386684,0.3178415,0.3609333,0.4744768
		c0.0403347,0.0516729,0.0709381,0.1122637,0.126997,0.150918c-0.0614405,0.0586338-0.1119385,0.1268597-0.1672926,0.1908274
		c-0.0397072,0.0131779-0.0522499-0.0211382-0.0687065-0.0426512c-0.099185-0.1296644-0.1958895-0.261219-0.2944679-0.3913536
		c-0.3822117-0.5045643-0.7632322-1.0100279-1.144393-1.5153866c-0.20963-0.2779388-0.4201717-0.5551901-0.6295662-0.8333092
		c-0.022974-0.0305138-0.0451841-0.0617394-0.0755796-0.0857286c-0.0243025-0.0925298-0.0450583-0.185781-0.0571556-0.2807946
		c-0.012454-0.0146055,0.0044336-0.0361638-0.0118189-0.0498691C10.1679258,7.3778067,10.1562176,7.2939591,10.148984,7.2094088z"/>
	<path fill="#01D1C5" d="M10.2212458,5.2803035c0.0114603-0.1064262,0.0402594-0.2092066,0.0698166-0.3113747
		c0.0382099-0.1320748,0.0706291-0.2662382,0.1274328-0.3923488c0.0219316,0.0133886,0.0350876,0.035049,0.0499239,0.0547071
		c0.2773085,0.3674173,0.5558853,0.7338762,0.8321676,1.1020689c0.0134306,0.0178995,0.0233335,0.0399222,0.0437593,0.0497122
		c0.0222692-0.0084753,0.0060129-0.0439911,0.0359993-0.0429797c-0.0417757,0.2918577-0.0410872,0.5856423-0.0399122,0.8794484
		c0.0099096,0.0274091,0.0037613,0.0557637,0.0042105,0.0836225c0.000432,0.0269508-0.0164089,0.0249987-0.0335541,0.0151868
		c-0.0177965-0.0101843-0.0282173-0.0279036-0.0401287-0.0438352c-0.1881971-0.2516999-0.3778057-0.5023522-0.5681448-0.7524176
		c-0.1560783-0.2050571-0.3060856-0.4147415-0.4678049-0.6155014C10.2285805,5.2986083,10.2244177,5.2898068,10.2212458,5.2803035z"
		/>
	<path fill="#00B4AA" d="M10.2573814,7.7909393c0.0301256-0.0012569,0.0438404,0.0226536,0.0581427,0.0416365
		c0.2073507,0.2752342,0.4134111,0.5514412,0.620719,0.8267069c0.2451811,0.3255568,0.4913378,0.6503792,0.7369423,0.9756165
		c0.2476091,0.3278885,0.4949064,0.6560106,0.7429962,0.9835348c0.0135069,0.0178299,0.027174,0.0389347,0.0539131,0.0409346
		c-0.0606699,0.0766077-0.1213388,0.1532154-0.1820087,0.2298241c-0.0344181,0.0120783-0.0418568-0.01968-0.0549889-0.0368748
		c-0.1364555-0.1786461-0.2715998-0.3582935-0.4070492-0.5377073c-0.3912992-0.5183048-0.7834578-1.0359583-1.1738977-1.5549116
		c-0.0430231-0.0571823-0.0878267-0.1130438-0.1313086-0.1699028C10.4098253,8.3311596,10.3258476,8.0636063,10.2573814,7.7909393z"
		/>
	<path fill="#07D7CB" d="M11.3803453,5.7400885c-0.0012589,0.0010877-0.0028009,0.0019755-0.0037327,0.0032935
		c-0.0132093,0.0186691,0.0015707,0.0548224-0.0247355,0.0601463c-0.0291891,0.0059075-0.0361109-0.0302787-0.0498648-0.0484347
		C11.0832043,5.4662519,10.8662682,5.1759925,10.6481829,4.8866c-0.0706949-0.0938096-0.1433201-0.1861677-0.2154989-0.2788506
		c-0.0074711-0.0095925-0.0125847-0.0193434-0.0141859-0.0311651c0.0260744-0.120039,0.0830917-0.2287946,0.1265001-0.3424234
		c0.0303907-0.0795588,0.0701437-0.1555433,0.1057167-0.2331238c0.0322571-0.0002403,0.0444174,0.0260687,0.0598774,0.0467296
		c0.2060223,0.2753296,0.4150496,0.5483894,0.6211309,0.8236761c0.0596437,0.0796742,0.1217556,0.1575055,0.1792669,0.2387929
		c-0.0145121,0.0610309-0.0285931,0.1221671-0.0436192,0.1830707C11.4309816,5.4408073,11.4032316,5.5899696,11.3803453,5.7400885z"
		/>
	<path fill="#5DF9F6" d="M16.869873,1.8600655c-0.1374836-0.0181367-0.2743816-0.039798-0.4124737-0.0545397
		c-0.1093216-0.0116702-0.2183762-0.0087658-0.3274059-0.0150499c-0.0592651-0.063176-0.1075897-0.1350925-0.1594601-0.2039376
		c-0.1980219-0.2628291-0.398098-0.5241133-0.5944195-0.7882174c-0.0169649-0.0228203-0.0437794-0.0427305-0.036108-0.0776862
		c0.0391378-0.0222936,0.0837002-0.012289,0.1252651-0.0183099c0.1082296-0.0156774,0.2181425-0.0117907,0.3275423-0.0115068
		c0.1996212,0.0005181,0.3992434-0.0000914,0.5988646,0.0004724c0.0173931,0.0000491,0.0367203-0.0072554,0.0522213,0.0077315
		c-0.0165081,0.0200613-0.0397053,0.0140364-0.0604801,0.01419c-0.1015873,0.000751-0.2031803,0.0001706-0.3047714,0.0005227
		c-0.0128632,0.0000445-0.0293941-0.0052846-0.0374413,0.0068905c-0.0092239,0.0139601,0.0058022,0.024438,0.0133286,0.0343042
		C16.3120804,1.0925452,16.566,1.4328997,16.822298,1.7714552C16.8423634,1.7979612,16.8758736,1.8189261,16.869873,1.8600655z"/>
	<path fill="#63FBF8" d="M16.869873,1.8600656c-0.0720119-0.0968527-0.1435566-0.1940571-0.2161255-0.2904892
		c-0.187048-0.2485483-0.3744984-0.4967921-0.5619373-0.7450445c-0.0209217-0.0277095-0.0432262-0.0543783-0.0640259-0.0821751
		c-0.0075989-0.0101555-0.0192947-0.0219043-0.010704-0.0353492c0.0069523-0.0108792,0.0214214-0.0059414,0.0326099-0.0060137
		c0.1314011-0.0008496,0.262804-0.0013666,0.394207-0.0019715c0.0486851,0.0043707,0.0986004-0.0053449,0.1460838,0.0127606
		c0.0236092,0.0192621,0.0383358,0.0457709,0.0563011,0.0695679c0.2404842,0.3185382,0.4816666,0.6365497,0.7222252,0.9550301
		c0.013382,0.0177145,0.0243683,0.0498265,0.0481358,0.043561c0.0204487-0.0053905,0.012167-0.0381777,0.0139294-0.0582966
		c0.0113106-0.1290926,0.0190449-0.2585074,0.025629-0.3878958c0.0068359-0.1343503,0.0147552-0.2686414,0.0216064-0.4029891
		c0.0010185-0.0199679,0.0035477-0.0401669,0.023201-0.0522934c0.0159225,0.024606,0.0074902,0.0518249,0.006218,0.0773818
		c-0.0082321,0.1654455-0.0181236,0.3308082-0.0274353,0.4962001c-0.009779,0.1736861-0.0196209,0.3473686-0.0290871,0.5210719
		c-0.0007992,0.0146799-0.0040569,0.0260979-0.0200214,0.0297964C17.246767,1.9435045,17.0582466,1.9020728,16.869873,1.8600656z"/>
	<path fill="#00C8BC" d="M11.7003345,8.1495266c-0.0093012,0.0343456-0.0230417,0.0112839-0.0332422,0.0016136
		c-0.0472231-0.0447741-0.0812731-0.1003408-0.1201706-0.1517105c-0.2517481-0.3324709-0.5016432-0.6663427-0.7527113-0.999331
		c-0.2151995-0.2854161-0.4310741-0.5703254-0.6470318-0.8551688c-0.0098534-0.0129967-0.0234671-0.0231428-0.0353298-0.034616
		c-0.002903-0.1381197,0.0154114-0.2743087,0.0373411-0.4101686c0.0289831-0.0151711,0.0383949,0.0108194,0.0504875,0.0260262
		c0.1119843,0.1408272,0.2166529,0.2872152,0.3257599,0.4302397c0.2879238,0.377429,0.5712366,0.7583442,0.8592911,1.1356721
		c0.0150003,0.0196495,0.0279255,0.0420732,0.0551081,0.047874c0.0503359,0.2048249,0.1084719,0.4073405,0.1813841,0.6053729
		C11.6464376,8.0138206,11.6738987,8.0814848,11.7003345,8.1495266z"/>
	<path fill="#56F7F3" d="M15.3400059,0.7206346c0.0656252,0.1098596,0.1489191,0.2069457,0.2249203,0.3092374
		c0.1363087,0.1834563,0.2752914,0.3649268,0.4132318,0.5471697c0.0389643,0.0514786,0.0783815,0.1026148,0.117198,0.1542046
		c0.0137939,0.0183322,0.0307121,0.0350438,0.0346375,0.0592295c-0.0941582,0.0007708-0.1883574,0.0036724-0.2824583,0.0017179
		c-0.0957727-0.0019892-0.1910067,0.0065169-0.2865229,0.0088365c-0.0177107,0.0089298-0.030467,0.004483-0.0422649-0.0118549
		c-0.2257376-0.3125783-0.4643202-0.6155288-0.6937418-0.9253468c-0.0132332-0.0178713-0.0323105-0.0350242-0.0247669-0.061914
		c0.0353928-0.0127037,0.0725164-0.0164897,0.1094532-0.021239c0.0183744-0.0127607,0.042181,0.0043304,0.0601006-0.0109359
		C15.0919189,0.7437338,15.2149239,0.7243576,15.3400059,0.7206346z"/>
	<path fill="#00CDC1" d="M11.4398365,7.3399572c-0.0203571,0.0140247-0.0332479,0.0036049-0.0455647-0.0128269
		c-0.145092-0.1935906-0.2901173-0.3872333-0.4357147-0.5804429c-0.2483416-0.3295522-0.4965715-0.6591935-0.7468052-0.9873047
		c-0.0165319-0.0216761-0.0267315-0.0557089-0.0625601-0.0592375c0.0008764-0.0103354-0.012763-0.0196452-0.0021687-0.0306673
		c0.0203648-0.0194578-0.001749-0.0476174,0.0139399-0.0680332l0.0008268-0.0011368
		c0.0096111-0.0193391-0.0026016-0.0415978,0.0081329-0.0607872l-0.0003023,0.0004859
		c0.009655-0.0364428,0.0131855-0.0739813,0.0198545-0.1109576l-0.0005255,0.0008111
		c0.0151138-0.0141411-0.0008802-0.035265,0.0112438-0.0500774c0.0000124-0.0346413,0.0074148-0.0677195,0.0210524-0.0994792
		c0.0716114,0.0608621,0.1195059,0.1414042,0.1754551,0.2148781c0.2337027,0.3069005,0.465167,0.6155052,0.6973448,0.9235663
		c0.065774,0.0872722,0.1312122,0.1747961,0.1967297,0.2622609c0.0107813,0.0143943,0.0215063,0.0380154,0.0392513,0.0324969
		c0.0205812-0.0064011,0.0076361-0.0320354,0.0098181-0.0490689c0.0018883-0.0147495,0.0005169-0.0299158,0.0005884-0.0448985
		c0.0167332,0.0738878,0.0129824,0.1498227,0.0224228,0.2244377c0.0145988,0.1153984,0.0301981,0.2306657,0.0461082,0.3458743
		C11.4160433,7.2411184,11.4316454,7.289556,11.4398365,7.3399572z"/>
	<path fill="#10DDD2" d="M11.9118643,4.1606646c-0.066925,0.1309509-0.1342211,0.2617135-0.2004423,0.3930187
		c-0.0123453,0.0244789-0.0203781,0.0511332-0.0304041,0.0767827c-0.0402594,0.0008283-0.0546303-0.033041-0.0735016-0.0579486
		c-0.1624575-0.2144227-0.3247929-0.4289417-0.4867153-0.6437709c-0.0828896-0.1099739-0.1646566-0.2208707-0.2507734-0.328408
		c0.0684261-0.1356215,0.1540976-0.2605431,0.2395163-0.3856077c0.0129013-0.0188882,0.0268478-0.037061,0.0403118-0.0555644
		c0.2345715,0.3217731,0.4783049,0.6366549,0.7178574,0.9546819C11.880765,4.131176,11.8945513,4.1475034,11.9118643,4.1606646z"/>
	<path fill="#16E1D6" d="M11.9118643,4.1606646c-0.0176249,0.0088305-0.0244045-0.0010653-0.0347652-0.0148597
		c-0.1309462-0.1743617-0.2631683-0.3477657-0.3948145-0.5216026c-0.0997095-0.1316643-0.1992159-0.263483-0.2984123-0.3955345
		c-0.0156221-0.0207951-0.0359249-0.0398788-0.0340166-0.0695007c0.0948305-0.1308682,0.1836462-0.2664726,0.2997236-0.3806121
		c0.020339,0.0126352,0.0332031,0.0324311,0.0471468,0.050818c0.2171516,0.2863479,0.4324741,0.5740788,0.6502237,0.8599763
		c0.0120831,0.0158651,0.024559,0.0315437,0.0313969,0.0506842C12.0848637,3.8772948,11.9981737,4.0188594,11.9118643,4.1606646z"/>
	<path fill="#3BEFE8" d="M14.0805445,2.1908286c-0.1583586,0.0773983-0.315527,0.1570964-0.4694624,0.2430375
		c-0.0585394-0.0660033-0.1074905-0.1393797-0.1606083-0.209532c-0.1617661-0.2136369-0.3246899-0.4264071-0.4837179-0.6420997
		c-0.0154076-0.0208973-0.0443926-0.0435719-0.0066881-0.0708221c0.1338835-0.0845543,0.272851-0.1597707,0.4165564-0.2262181
		c0.0070286-0.0032493,0.0156488-0.0030596,0.0235262-0.0044714c0.0214491,0.0142132,0.0343246,0.0360144,0.0491934,0.0559713
		c0.1950321,0.2617991,0.3947067,0.5201012,0.5892973,0.7822284C14.0550795,2.1410675,14.0790787,2.1596396,14.0805445,2.1908286z"
		/>
	<path fill="#0BDACE" d="M10.8700275,3.6003385c0.0190897,0.0004554,0.0287952,0.0136662,0.0390615,0.0273123
		c0.2389221,0.3175719,0.4778957,0.6351047,0.7174797,0.9521775c0.0148287,0.0196266,0.031908,0.0384941,0.0544481,0.0506368
		c-0.0421104,0.1111588-0.0783987,0.2244272-0.1251011,0.3339829c-0.0198326,0.0465255-0.0302372,0.0970693-0.0449257,0.1457877
		c-0.0498104-0.0277262-0.0725088-0.0796714-0.1047153-0.1220021c-0.2411289-0.3169289-0.4797668-0.6357541-0.7196264-0.9536524
		c-0.0097208-0.0128837-0.0238562-0.0224385-0.0359335-0.0335441c0,0.0000005,0.0003586-0.0004849,0.0003586-0.0004849
		c0.0103493-0.0176656,0.0219526-0.0346949,0.0277824-0.0546575C10.735507,3.826797,10.7972717,3.7105286,10.8700275,3.6003385z"/>
	<path fill="#32ECE4" d="M12.9600677,1.5114121c-0.0110369,0.0174463-0.0094566,0.031311,0.0040779,0.0491747
		c0.2040834,0.2693539,0.4071674,0.5394629,0.6104078,0.8094543c0.0148306,0.0197005,0.0329409,0.0376375,0.0365276,0.0638227
		c-0.1340418,0.0854664-0.2680845,0.1709301-0.4021282,0.2563937c-0.0297546,0.0016053-0.0373755-0.0249803-0.0503054-0.0421996
		c-0.1779375-0.2369576-0.3587933-0.4717162-0.5352488-0.709787c-0.0257816-0.0347856-0.0548096-0.0670792-0.0793161-0.1027658
		c-0.0106297-0.0154793-0.0286827-0.0303971-0.0132933-0.0529457C12.6695423,1.685308,12.8101578,1.5910045,12.9600677,1.5114121z"
		/>
	<path fill="#1DE4DA" d="M12.1783466,3.7400334c-0.0741253-0.0758061-0.1324816-0.1642337-0.19664-0.2478924
		c-0.1748371-0.2279758-0.3475714-0.4575663-0.5207968-0.6867754c-0.0056705-0.0075047-0.007637-0.0178094-0.0113297-0.0268095
		c0.0879993-0.1075344,0.1770039-0.2141488,0.2810555-0.3069897c0.0222979,0.0044947,0.0307255,0.0242805,0.0424414,0.0397339
		c0.2037544,0.2687473,0.4059772,0.5386498,0.6102562,0.8070011c0.0210905,0.0277042,0.0438747,0.0539913,0.0649157,0.0816925
		c-0.0849085,0.1049819-0.1698809,0.2099128-0.2545929,0.3150537C12.1875782,3.7225914,12.1834049,3.7316687,12.1783466,3.7400334z"
		/>
	<path fill="#67FCFA" d="M17.501009,0.878467c-0.0227509,0.0570779-0.0146255,0.1186749-0.018013,0.1769928
		c-0.0084953,0.146278-0.0154877,0.2928061-0.023365,0.4392087c-0.0052204,0.097003-0.0131474,0.1938605-0.0198784,0.290782
		c-0.0005684,0.0081824,0.0000553,0.0172079-0.0091114,0.0214245C17.417202,1.8130563,17.407629,1.8045983,17.400528,1.7957305
		c-0.0392971-0.0490766-0.0786686-0.0981312-0.1165524-0.1482961c-0.2223759-0.2944599-0.4442387-0.5893048-0.6667347-0.8836727
		c-0.0121994-0.0161421-0.0246735-0.0312149-0.0272598-0.0519787c0.0644894-0.0067992,0.1268311,0.0114182,0.1899738,0.0182349
		c0.1576748,0.0170228,0.3140049,0.0442532,0.468668,0.0797189c0.08461,0.0194018,0.1706257,0.0331643,0.2532234,0.0610288
		C17.5014782,0.8733262,17.5011921,0.8758911,17.501009,0.878467z"/>
	<path fill="#42F1EB" d="M14.0805445,2.190829c-0.1001539-0.131846-0.2004766-0.2635643-0.3004179-0.3955704
		c-0.1239882-0.1637648-0.2477245-0.3277212-0.3712358-0.4918449c-0.0046892-0.0062287-0.0059061-0.0150684-0.0087404-0.0226911
		c0.086216-0.062355,0.1879377-0.0929142,0.2828436-0.1374056c0.0280581-0.0131532,0.0580215-0.0222368,0.0871134-0.0331855
		c0.2038488,0.2837704,0.4189377,0.559114,0.6284761,0.8386177c0.021636,0.0288584,0.0498714,0.054546,0.0544386,0.093603
		C14.3288622,2.0918446,14.2047033,2.1413367,14.0805445,2.190829z"/>
	<path fill="#51F6F1" d="M14.8002386,0.8019146c0.0748577,0.1211244,0.1671753,0.2295576,0.2511902,0.3440019
		c0.1074791,0.1464081,0.2188549,0.2899565,0.3285789,0.4347167c0.051775,0.0683109,0.1096716,0.1322148,0.1511393,0.2079344
		c0.0073729,0.0134624,0.018816,0.0110366,0.0298643,0.0124625c-0.1000261,0.0137869-0.2000704,0.0274467-0.3000708,0.0414199
		c-0.0436773,0.0061033-0.087266,0.0128475-0.1308956,0.0193005c-0.1413145-0.1791739-0.2755575-0.3637112-0.4137754-0.545231
		c-0.0918427-0.1206148-0.1838837-0.2410818-0.2737141-0.3631935c-0.0129519-0.0176046-0.0410099-0.0361559-0.0128183-0.0637134
		C14.5508213,0.8501728,14.675313,0.8251307,14.8002386,0.8019146z"/>
	<path fill="#22E6DC" d="M12.4482489,3.3999939c-0.0228882-0.0018208-0.0337505-0.0195975-0.0456305-0.0353014
		c-0.2137899-0.2825944-0.4274435-0.5652933-0.6409845-0.8480763c-0.0109749-0.0145321-0.0206938-0.0300119-0.0309982-0.0450499
		c0.0898609-0.0935357,0.1772251-0.1896574,0.2798347-0.2699811c0.0047998,0.0374515,0.0249386,0.0668314,0.0473413,0.0960701
		c0.2014246,0.2629018,0.3989487,0.5287585,0.5994072,0.7923977c0.0119553,0.0157247,0.0270338,0.0297797,0.0317421,0.0502081
		c-0.0610771,0.066375-0.1220846,0.1328151-0.1832762,0.1990857C12.4867983,3.3598011,12.4674082,3.379791,12.4482489,3.3999939z"/>
	<path fill="#00AFA5" d="M10.5208416,8.5897961c0.0720224,0.0510778,0.1143064,0.1280956,0.1659985,0.1959515
		c0.2287188,0.300231,0.4535322,0.6034317,0.6806431,0.904892c0.2440443,0.3239365,0.4890471,0.6471491,0.7336979,0.9706278
		c0.053916,0.0712891,0.1081963,0.1423006,0.162034,0.2136488c0.0065298,0.0086527,0.0142832,0.0135298,0.0248766,0.0142775
		c-0.0111752,0.0287733-0.0245657,0.0157156-0.0410748,0.0039377c-0.0769854-0.0549212-0.1457825-0.1196375-0.2168293-0.1814795
		c-0.1306581-0.1137295-0.2526407-0.2368994-0.3716402-0.3624716c-0.1675091-0.1767607-0.3257561-0.3614855-0.4686613-0.5594873
		c-0.1965961-0.2723904-0.3688898-0.5592365-0.5200882-0.8585768C10.6139393,8.8205271,10.5590658,8.7085361,10.5208416,8.5897961z"
		/>
	<path fill="#2CEAE1" d="M12.5307894,1.7825594c0.0224295,0.0681957,0.0774736,0.1142197,0.1182537,0.1694317
		c0.1806717,0.2446077,0.3650055,0.4865119,0.5481739,0.7292728c0.002861,0.0037913,0.0077782,0.0060306,0.0117359,0.0089934
		c-0.088068,0.0784454-0.1819553,0.1496851-0.2749577,0.2220221c-0.023262,0.0067294-0.0332394-0.0110779-0.0437822-0.0252118
		c-0.2079487-0.27878-0.4199085-0.5545406-0.6275539-0.8335438c-0.0113783-0.0152876-0.0270987-0.0313601-0.0126886-0.0535748
		C12.3344679,1.9157209,12.4320393,1.8483783,12.5307894,1.7825594z"/>
	<path fill="#48F3ED" d="M14.453022,2.0423515c-0.1708117-0.2268975-0.341527-0.4538687-0.5124989-0.6806462
		c-0.0487309-0.0646375-0.0979223-0.1289341-0.1475344-0.1928978c-0.01367-0.017624-0.0241899-0.0356199-0.0228815-0.058676
		c0.1078234-0.0455906,0.2160616-0.0900315,0.3299379-0.1188189c0.2210197,0.3034171,0.4529514,0.598654,0.6752338,0.9011163
		c0.0124378,0.0169232,0.0313864,0.024001,0.0450182,0.0383044C14.6978722,1.9679393,14.5754471,2.0051455,14.453022,2.0423515z"/>
	<path fill="#4CF4EF" d="M14.8202972,1.9307333c-0.0217476,0.0027324-0.0362158-0.0054426-0.0499258-0.0237925
		c-0.2198553-0.2942609-0.4404821-0.5879463-0.6613512-0.8814483c-0.0082703-0.0109906-0.0186434-0.0193803-0.008975-0.0341799
		c0.1061974-0.0458935,0.2181187-0.0732308,0.3296919-0.1017c-0.0124426,0.0236927,0.0074062,0.0380552,0.0181494,0.0523005
		C14.667161,1.232672,14.887249,1.5228174,15.107399,1.8129169c0.01126,0.0148396,0.021245,0.0296946,0.022646,0.0488331
		C15.0267954,1.8847446,14.9235468,1.907739,14.8202972,1.9307333z"/>
	<path fill="#66FCFA" d="M14.3217592,3.8203526c-0.000001-0.059989-0.0000029-0.1199777-0.0000048-0.1799667
		c0.0477104-0.02652,0.1021748-0.0280647,0.153616-0.0394883c0.4552126-0.1010883,0.9103603-0.2024837,1.3659725-0.3017716
		c0.0065832-0.0014343,0.0125198-0.0044355,0.0184755-0.0074122c0.2666216-0.000001,0.5332422-0.0000019,0.7998648-0.0000026
		c-0.0107975,0.0383835-0.0460796,0.0396669-0.0751514,0.0462058c-0.1869125,0.0420442-0.3737984,0.084233-0.5609322,0.1252916
		c-0.5337362,0.1171067-1.0673618,0.2347231-1.6008377,0.3530154C14.3900652,3.8234742,14.3563061,3.8428659,14.3217592,3.8203526z"
		/>
	<path fill="#61FAF8" d="M14.3217592,3.8203526c0.1325731-0.0197473,0.2619038-0.0549262,0.3926535-0.0832453
		c0.3601685-0.0780094,0.7199316-0.1578894,1.0797787-0.2373779c0.2437096-0.0538344,0.4874001-0.10776,0.7308273-0.1628549
		c0.0461235-0.0104392,0.0962238-0.0110354,0.1346645-0.0451634c0.1966724-0.0000026,0.3933449-0.000005,0.5900173-0.0000074
		c-0.003809,0.0374057-0.0366058,0.0346675-0.0601368,0.0401742c-0.167057,0.0390921-0.3346767,0.0757425-0.5022449,0.1125889
		c-0.7581205,0.1667027-1.5160618,0.3342168-2.2739887,0.5017929c-0.0297785,0.0065842-0.060216,0.0228512-0.0915737,0.0040808
		C14.3217573,3.907011,14.3217583,3.863682,14.3217592,3.8203526z"/>
	<path fill="#6CFEFC" d="M15.8598185,3.2917135c-0.0210123,0.0281706-0.0548773,0.030458-0.084239,0.0370402
		c-0.2467327,0.0553114-0.4940071,0.1082015-0.7409678,0.1625035C14.813489,3.5398779,14.592597,3.5895448,14.371459,3.6380937
		c-0.0159664,0.0035057-0.0331087,0.0016537-0.0497046,0.0022922c-0.0005522-0.1032548,0.0001211-0.2065396-0.0023851-0.309747
		c-0.0007849-0.0323696,0.0080013-0.0418496,0.0410662-0.0415752c0.1915932,0.00159,0.3832054,0.0005553,0.5748119,0.0008266
		C15.2434368,3.2903268,15.5516281,3.2910888,15.8598185,3.2917135z"/>
	<path fill="#08D8CC" d="M16.0897083,5.5596566c0.0182343-0.0715365,0.0407791-0.141655,0.0690517-0.2098894
		c0.0199566-0.0171089,0.0452595-0.0203843,0.0694027-0.0257978c0.3619022-0.0811353,0.7242756-0.1601391,1.086504-0.2397966
		c0.0175381-0.0038571,0.0351124-0.0117955,0.0536194-0.0037513c-0.0227051,0.0811424-0.0485802,0.1612368-0.0793266,0.2397184
		c-0.0237064,0.021452-0.0546169,0.0238233-0.0835438,0.0300875c-0.3435268,0.0743995-0.6864529,0.1514969-1.0295467,0.2278457
		c-0.0178986,0.003983-0.0358295,0.008563-0.0541916,0.008656C16.1041336,5.5868182,16.0873127,5.5840364,16.0897083,5.5596566z"/>
	<path fill="#5AF8F5" d="M14.3234663,4.1202569c-0.0059605-0.0199142-0.0035572-0.0400658-0.0017071-0.0602007
		c0.0094957-0.0222635,0.0309944-0.0231242,0.0500898-0.0273499c0.736558-0.1629841,1.473218-0.3255062,2.2098351-0.4882174
		c0.3317242-0.0732741,0.6635609-0.1460383,0.995203-0.2196772c0.0373516-0.0082932,0.0759182-0.0303264,0.1153641-0.0046597
		c0.0045033,0.022747,0.0027599,0.0455928,0.0011387,0.0684304c-0.0141392,0.0197668-0.0366631,0.0213776-0.0575333,0.026
		c-1.0165138,0.2251351-2.0331526,0.4497137-3.0498114,0.6741951c-0.047039,0.0103865-0.0950899,0.0174093-0.140131,0.035944
		C14.4050961,4.1227694,14.3639345,4.13097,14.3234663,4.1202569z"/>
	<path fill="#17E1D6" d="M16.227438,5.1395874c0.0193558-0.0747142,0.043745-0.1477633,0.0725765-0.2193427
		C16.34828,4.89568,16.4024773,4.8948607,16.4538136,4.8831758c0.320612-0.0729775,0.6419601-0.1426873,0.9631386-0.2131405
		c0.0276394-0.006063,0.0573578-0.0223913,0.0854778,0.000989c-0.0201187,0.0744109-0.0435104,0.1477404-0.0724335,0.2192426
		c-0.0443993,0.0257421-0.095644,0.0261021-0.1437531,0.0369406c-0.3209572,0.0723085-0.6425953,0.1415777-0.9636726,0.2133822
		C16.2917366,5.1474853,16.2587814,5.164825,16.227438,5.1395874z"/>
	<path fill="#02D2C6" d="M16.0897083,5.5596566c0.0088043,0.0207658,0.0230026,0.0163484,0.0410557,0.0123143
		c0.174284-0.0389366,0.3489571-0.076128,0.523325-0.1146889c0.2034111-0.0449848,0.4066181-0.0908914,0.6099739-0.1361265
		c0.0079803-0.0017753,0.0165844-0.0007415,0.0248966-0.0010161c-0.0184765,0.0715423-0.0421162,0.1413803-0.0692997,0.2100496
		c-0.0093689,0.017067-0.0269184,0.017601-0.0429211,0.0211473c-0.3616638,0.080143-0.7233906,0.160008-1.0853863,0.2386222
		c-0.0226879,0.0049276-0.0563679,0.0318623-0.0731335-0.0129294C16.0373917,5.7030406,16.0603619,5.6302996,16.0897083,5.5596566z"
		/>
	<path fill="#20E5DC" d="M17.50243,4.6710243c-0.1040306,0.0099964-0.2040081,0.0403252-0.305584,0.0622225
		c-0.2793541,0.0602212-0.5580311,0.1235828-0.8371563,0.1848755c-0.019125,0.0042-0.0397472,0.001574-0.0596752,0.0021224
		c0.0179882-0.0720267,0.0412846-0.1423092,0.0693798-0.2110138c0.1889477-0.0451102,0.3790264-0.0851946,0.5686417-0.1273136
		c0.1880398-0.0417695,0.376173-0.0831542,0.5644627-0.1237984c0.0227642-0.0049148,0.0491047-0.0192137,0.0661755,0.0119348
		C17.5506802,4.5383911,17.5288029,4.6054487,17.50243,4.6710243z"/>
	<path fill="#0FDDD1" d="M16.227438,5.1395874c0.0981483-0.005024,0.1913147-0.0358768,0.2863617-0.0564284
		c0.289072-0.0625048,0.5776024-0.1275101,0.866478-0.190927c0.0159473-0.0035005,0.0331192-0.0014381,0.0497189-0.001965
		c-0.0152836,0.0651002-0.0377312,0.1278749-0.0617104,0.1901541c-0.1048889,0.0369358-0.2149925,0.0527587-0.3227024,0.077909
		c-0.220541,0.0514975-0.4421692,0.0984073-0.663681,0.1456537C16.307663,5.319819,16.2347794,5.342556,16.1587601,5.3497672
		C16.1769905,5.2781844,16.2001362,5.2082076,16.227438,5.1395874z"/>
	<path fill="#28E8DF" d="M12.2499704,1.999949c0.0205936,0.0653355,0.0712461,0.1110535,0.11026,0.1636751
		c0.1786432,0.2409527,0.3604603,0.479553,0.5408669,0.7191997c0.0091991,0.0122199,0.0183392,0.0236263,0.032896,0.0294547
		c-0.0435543,0.0473952-0.0907583,0.0907412-0.1428223,0.128695c-0.0322113,0.0049262-0.0420799-0.0223038-0.0560932-0.0410411
		c-0.1802406-0.2409847-0.3651896-0.47842-0.5436068-0.7207761c-0.0207033-0.0281222-0.042984-0.0550499-0.0639906-0.0828946
		c-0.0166178-0.0220265-0.0371609-0.0440989-0.0275316-0.0762274C12.1488686,2.0786459,12.1908779,2.0286286,12.2499704,1.999949z"
		/>
	<path fill="#29E9E0" d="M17.5686741,4.4700537c-0.0407562-0.021327-0.0779724,0.0049524-0.1146183,0.0127306
		c-0.2744675,0.0582528-0.5480709,0.1205816-0.8219414,0.1816487c-0.078886,0.0175896-0.1577816,0.0351353-0.236618,0.0529461
		c-0.0106735,0.0024114-0.0196896,0.0019259-0.0261021-0.0081482c0.0183773-0.072011,0.0412464-0.1425452,0.0695095-0.2113051
		c0.0267277,0.0051546,0.0528488,0.0010905,0.0790253-0.0045505c0.3443832-0.0742145,0.6875381-0.1540174,1.0320892-0.2274675
		c0.0289879-0.0061793,0.0579185-0.016293,0.088028-0.0053554C17.6184978,4.3315697,17.5958977,4.401577,17.5686741,4.4700537z"/>
	<path fill="#33ECE4" d="M17.6380463,4.2605524c-0.1354866,0.0298548-0.2709599,0.0597639-0.4064617,0.0895529
		c-0.2503872,0.0550466-0.5008221,0.1098742-0.7511196,0.1653171c-0.019392,0.0042949-0.0367184,0.0099244-0.0415611-0.0174956
		c0.013031-0.0624576,0.0359039-0.1216865,0.059267-0.1807556c0.0974312-0.0019031,0.1895771-0.032814,0.2834511-0.0532374
		c0.2743282-0.0596852,0.5487404-0.1190434,0.8224659-0.1814728c0.071991-0.0164189,0.0719891-0.0165672,0.0717335-0.0923038
		c-0.0000496-0.0149508-0.0001163-0.0299001-0.000082-0.0448985c-0.0015755-0.0387061-0.0011997-0.0773661-0.0003471-0.1160469
		c-0.0016956-0.0463374-0.001112-0.0926514-0.0000057-0.138973c-0.001749-0.0532196-0.0015068-0.1064312-0.0001354-0.1596513
		c0.0025291-0.0469062-0.0117455-0.095377,0.0129871-0.1402128c-0.0000057-0.0233245-0.0000095-0.0466483-0.0000172-0.0699728
		c-0.006134-0.0095387-0.0068893-0.0186846,0.0019798-0.0271292c0.0147057,0.0155818,0.0067863,0.0347188,0.0068302,0.051903
		c0.0005341,0.2089643-0.0035419,0.4180226,0.0016232,0.6268578C17.7011948,4.0748301,17.6746426,4.1678543,17.6380463,4.2605524z"
		/>
	<path fill="#5DF9F6" d="M14.3217564,3.9503405c0.2341661-0.0509093,0.4684086-0.1014693,0.7024794-0.1528094
		c0.3600245-0.0789652,0.7199707-0.1582892,1.0798731-0.2377987c0.2437496-0.0538483,0.4874153-0.108072,0.7310276-0.1625311
		c0.1258163-0.0281253,0.2513752-0.0573969,0.3772202-0.0853825c0.0149879-0.0033329,0.0297794-0.0042303,0.037344-0.0201151
		c0.0999966,0.0000031,0.1999931,0.000006,0.2999916,0.0000088c-0.0075817,0.0420833-0.0452137,0.0394061-0.0734806,0.045815
		c-0.1461105,0.0331287-0.2926483,0.0643845-0.4388981,0.0969369c-0.7101154,0.1580591-1.4208632,0.3132615-2.1310062,0.4711964
		c-0.1738758,0.0386698-0.3479052,0.0766771-0.5218782,0.1149194c-0.0203943,0.0044832-0.0418835,0.0138087-0.0626698-0.0002465
		C14.3217583,3.9970026,14.3217573,3.9736714,14.3217564,3.9503405z"/>
	<path fill="#007270" d="M16.6985035,7.120204c-0.1577892,0.0362964-0.315382,0.0734687-0.4734154,0.1086793
		c-0.2210674,0.0492549-0.4424086,0.0972767-0.6637897,0.1451058c-0.0219555,0.0047431-0.0494967,0.0222049-0.0619535-0.0154171
		c0.0074778-0.0414586,0.0204191-0.0811234,0.038888-0.1189814c0.0104494-0.0140748,0.0246677-0.0204382,0.0417719-0.0241017
		c0.3605928-0.07723,0.7201548-0.1591582,1.0806704-0.2367339c0.0262299-0.0056429,0.054409-0.0205541,0.0808029,0.0016708
		C16.7271538,7.0270185,16.7128277,7.0736108,16.6985035,7.120204z"/>
	<path fill="#28E8DF" d="M12.0999489,2.1200342c0.03971,0.0945845,0.1136236,0.1655478,0.1728745,0.2463148
		c0.1572056,0.2142944,0.319066,0.425173,0.4789734,0.6374869c0.0110626,0.014689,0.0224981,0.0287311,0.0393744,0.0371375
		c-0.02493,0.0425024-0.0730619,0.061125-0.10221,0.0992875c-0.0604868-0.0527194-0.099781-0.1226087-0.1477413-0.1852252
		c-0.1736002-0.2266533-0.3438139-0.4559007-0.5172024-0.6827183c-0.0185318-0.024241-0.0257807-0.0438688-0.0135469-0.0707324
		C12.0324001,2.1657386,12.0718155,2.149075,12.0999489,2.1200342z"/>
	<path fill="#40F1EA" d="M17.6883488,3.8301864c0.0000324,0.0400062,0.0000629,0.0800128,0.0000935,0.120019
		c-0.0151577,0.0151682-0.0356808,0.0170536-0.0549107,0.021419c-0.3355312,0.0761623-0.6719036,0.1485205-1.0078983,0.2225852
		c-0.0281391,0.0062027-0.0581627,0.0194659-0.0856476-0.0038781c0.002737-0.0112095,0.0048618-0.022613,0.0083408-0.0335875
		c0.0067959-0.0214343,0.0004654-0.0316496-0.0229626-0.0301833c-0.0132771,0.0008311-0.0266495,0.0000806-0.039978,0.000083
		c-0.7014551,0.0001135-1.4029102,0.0003099-2.1043644-0.0000601c-0.0190687-0.00001-0.0397444,0.0076246-0.0575562-0.0063291
		c0.0424242-0.0005889,0.0848465-0.0011797,0.1272697-0.001771c0.0297651-0.012022,0.0611944-0.0135603,0.0926161-0.01371
		c0.1753826-0.0008354,0.3507662-0.00143,0.5261478,0.0000911c0.2474327-0.0005889,0.4948664-0.0013113,0.7422447-0.0003891
		c0.1944704,0.0027537,0.3894224,0.0082779,0.5833521-0.0025654c0.094347-0.0052748,0.1871662-0.0428505,0.2811775-0.0638595
		c0.3180599-0.0710762,0.6366253-0.1398387,0.9547844-0.2104514C17.6501751,3.8233564,17.6698914,3.8155262,17.6883488,3.8301864z"
		/>
	<path fill="#3BEFE8" d="M16.5399857,4.1903315c0.1049061-0.0047116,0.2043037-0.0380244,0.3057785-0.0600219
		c0.2679214-0.0580769,0.5352993-0.1186457,0.8029861-0.1778023c0.0127831-0.002825,0.0264549-0.0016248,0.0397015-0.0023007
		c0.0052586,0.1235697,0.005764,0.125807-0.1134834,0.1527216c-0.338419,0.0763841-0.6772003,0.1511889-1.0162411,0.2247601
		c-0.0180378,0.0039139-0.046011,0.0231647-0.0605564-0.0105157C16.5077877,4.2734671,16.5212822,4.231041,16.5399857,4.1903315z"/>
	<path fill="#007876" d="M16.741478,6.9804258c-0.1183224,0.0131412-0.2326965,0.0459948-0.3485508,0.0711064
		c-0.2642345,0.0572739-0.5278053,0.1176033-0.7917452,0.1762452c-0.0207806,0.0046163-0.0432749,0.0006361-0.0629358,0.0118146
		c0.0067091-0.045558,0.0228386-0.0880847,0.0417776-0.129705c0.1497164-0.038765,0.3012762-0.0694737,0.4523058-0.1023798
		c0.2258511-0.0492077,0.4511261-0.1010275,0.6773338-0.1485634c0.0232773-0.0048928,0.0481529-0.017549,0.0715828,0.0013804
		C16.7733402,6.9021292,16.7602024,6.9422021,16.741478,6.9804258z"/>
	<path fill="#009790" d="M15.7089949,6.7186384c0.0069714-0.0423012,0.0216722-0.0820718,0.0395393-0.1208072
		c0.0825033-0.0018983,0.1604204-0.0285988,0.2400045-0.0455804c0.2964458-0.0632582,0.5920906-0.130209,0.8880291-0.195797
		c0.0238361-0.0052819,0.0484886-0.0162077,0.071373,0.0034075c-0.0088215,0.0414524-0.0232143,0.0810652-0.0396328,0.1200094
		c-0.009922,0.0100698-0.0229549,0.0126524-0.036068,0.0155578c-0.3643303,0.0807309-0.7289581,0.1601071-1.0932741,0.2409062
		C15.7554674,6.7415466,15.7232571,6.7594242,15.7089949,6.7186384z"/>
	<path fill="#00BCB1" d="M17.1184025,5.8400087c-0.0089207,0.0414233-0.0230217,0.08113-0.0397415,0.1199698
		c-0.0087719,0.0084772-0.0197849,0.0114112-0.0314083,0.0137858c-0.3569031,0.0729113-0.7114258,0.1566987-1.0674744,0.2335186
		c-0.021142,0.0045614-0.0421638,0.0107107-0.0637188,0.0116739c-0.0148077,0.0006614-0.0354977,0.0072317-0.0365849-0.0196762
		c0.006011-0.0425787,0.0221643-0.0818353,0.0395422-0.1206908c0.241786-0.0397019,0.478919-0.1013484,0.7182436-0.1526327
		c0.1400604-0.0300121,0.2796459-0.0622573,0.4197636-0.0920248C17.0778542,5.8295083,17.0995445,5.8219995,17.1184025,5.8400087z"
		/>
	<path fill="#5CF9F5" d="M14.3217592,4.0203338c0.2388124-0.0531828,0.4775763-0.1065803,0.7164497-0.1594858
		c0.2211304-0.0489759,0.4423485-0.0975602,0.6635799-0.1460741c0.3584967-0.0786142,0.7171068-0.156708,1.075532-0.2356436
		c0.2373447-0.0522692,0.4744835-0.1054635,0.7115955-0.1587656c0.0219688-0.0049386,0.046936-0.0055819,0.0607758-0.0286522
		c0.0468616-0.0021429,0.0937271-0.0048189,0.1405029,0.0015571c-0.0006447,0.0090466-0.001297,0.01809-0.0019608,0.027133
		c-0.1009941,0.0088842-0.1977844,0.0387051-0.2961788,0.0601926c-0.382885,0.0836143-0.7653866,0.1689668-1.1481304,0.2532265
		c-0.4359808,0.0959783-0.872159,0.1910615-1.3080654,0.2873716c-0.2049236,0.0452762-0.4094133,0.0925138-0.6141005,0.1388628
		C14.3217592,4.0468149,14.3217592,4.0335746,14.3217592,4.0203338z"/>
	<path fill="#00CCC0" d="M16.018219,5.777029c0.0222187,0.0273471,0.0482903,0.0047956,0.0685959,0.0004334
		c0.2748222-0.0590501,0.5489178-0.1214623,0.8233776-0.1822171c0.1029129-0.0227814,0.2062988-0.0434337,0.3094673-0.0650563
		c-0.0059261,0.0349264-0.0179462,0.0679202-0.0318317,0.1003208c-0.0117989,0.0236306-0.0340786,0.0294747-0.0572853,0.0347486
		c-0.3634644,0.0826101-0.7280521,0.1601415-1.091732,0.2417779c-0.0208321,0.0046763-0.0426807,0.0110064-0.0610533-0.0074716
		C15.985075,5.8566828,16.0003414,5.8164248,16.018219,5.777029z"/>
	<path fill="#00908A" d="M15.7089949,6.7186384c0.0502958,0.0314541,0.0972967-0.0029373,0.142622-0.0125928
		c0.3346739-0.071301,0.6682405-0.1478109,1.0022764-0.2221322c0.0175705-0.0039091,0.0362568-0.00281,0.0544186-0.0040426
		c-0.0027752,0.0402751-0.033432,0.0707226-0.0388031,0.1100817c-0.0468388,0.0285392-0.1011734,0.031158-0.1526508,0.0422807
		c-0.3266697,0.0705757-0.6518841,0.1477695-0.9793167,0.2147617c-0.0214214,0.0043826-0.0493879,0.0261898-0.0681753-0.0078769
		C15.6759377,6.7967749,15.6907406,6.7571387,15.7089949,6.7186384z"/>
	<path fill="#00A098" d="M16.9479408,6.3598614c-0.0764542,0.0046082-0.1493053,0.0282922-0.2233963,0.0443778
		c-0.3052464,0.0662766-0.6096821,0.1362767-0.9148521,0.202909c-0.0181046,0.003952-0.0456505,0.0232754-0.0611506-0.0093083
		c0.0051441-0.0310054,0.0149336-0.0604987,0.0287533-0.0886846c0.0176592-0.0169001,0.0401077-0.0218883,0.0630913-0.0268784
		c0.3475084-0.0754519,0.6941977-0.1546268,1.0419188-0.2290835c0.0323563-0.0069284,0.0662518-0.0274196,0.1001244-0.0024128
		C16.9709339,6.2871404,16.9594364,6.3235016,16.9479408,6.3598614z"/>
	<path fill="#00B3A9" d="M15.8794746,6.1992807c0.0268393,0.0261755,0.0554037,0.0028696,0.0794296-0.0023379
		c0.3359375-0.072824,0.6711349-0.1490374,1.0067177-0.2235069c0.0369434-0.0081983,0.0743237-0.0178323,0.113039-0.0134573
		c-0.0054302,0.0315671-0.0160332,0.0614333-0.0296974,0.0902929c-0.0193539,0.0313692-0.0539055,0.0307918-0.0836639,0.0374198
		c-0.2986412,0.0665131-0.5975609,0.1317863-0.8962364,0.1981587c-0.0551796,0.0122619-0.109868,0.0275378-0.1658535,0.0349765
		c-0.0218229,0.0029001-0.0563669,0.0137835-0.0534639-0.031395C15.8548794,6.2578063,15.8637247,6.2274055,15.8794746,6.1992807z"
		/>
	<path fill="#00C7BB" d="M15.9777575,5.8995647c0.0786924-0.0016184,0.1528521-0.0278983,0.2286444-0.0440965
		c0.3123074-0.0667486,0.62393-0.1366925,0.9356747-0.2060461c0.0158691-0.00353,0.030529-0.0124841,0.0457516-0.0189128
		c-0.0092621,0.0376911-0.0196266,0.075006-0.0375214,0.1097455c-0.0160332,0.0165663-0.0373325,0.0205016-0.0586147,0.0251021
		c-0.3530369,0.0763159-0.7052937,0.1561971-1.0581551,0.233314c-0.0195065,0.0042624-0.03899,0.0098605-0.0590258,0.0094194
		c-0.0121679-0.0002675-0.0288639,0.0016737-0.0256996-0.0199332C15.9539928,5.9571667,15.9635735,5.9276142,15.9777575,5.8995647z"
		/>
	<path fill="#00C2B6" d="M15.9488115,5.9881573c0.0229073,0.0252352,0.0484352,0.0035887,0.0690565-0.0008726
		c0.3050652-0.0659981,0.6094589-0.1350837,0.9141693-0.2027335c0.0724621-0.0160885,0.1454983-0.0296001,0.2182693-0.0442967
		c-0.0049248,0.0350776-0.017807,0.0676103-0.0319023,0.0997543c-0.1069813,0.0126071-0.210722,0.0412803-0.3155823,0.0642228
		c-0.2777576,0.0607686-0.5552273,0.1228523-0.8329535,0.1837645c-0.0170889,0.0037475-0.0366278,0.0081997-0.0508509-0.0094047
		C15.9211893,6.0458894,15.9340343,6.0167055,15.9488115,5.9881573z"/>
	<path fill="#00A69D" d="M16.9824295,6.2507806c-0.0926533,0.0072784-0.181242,0.0353007-0.2714539,0.0545554
		c-0.3115311,0.066494-0.6224861,0.1356692-0.933671,0.2038212c0.00774-0.0340929,0.0170164-0.0676799,0.0327568-0.0991302
		c0.0138731-0.0133762,0.0317135-0.0174761,0.0496883-0.0213346c0.3723021-0.0799003,0.7432814-0.1658006,1.1156893-0.245213
		c0.0143948-0.0030694,0.0286217-0.0098929,0.0437965-0.0033407C17.0111294,6.1784039,16.9989262,6.2153063,16.9824295,6.2507806z"
		/>
	<path fill="#008883" d="M15.6693659,6.839118c0.0865393,0.0015965,0.1679087-0.0270314,0.2507954-0.0450211
		c0.3035288-0.0658755,0.6063967-0.1347909,0.9096079-0.202136c0.0127678-0.0028358,0.026474-0.0014353,0.0397415-0.0020084
		c-0.0063972,0.0359488-0.010807,0.0726604-0.0385609,0.1004086c-0.0762959,0.0301528-0.1578007,0.0392823-0.2369785,0.0573955
		c-0.2890129,0.0661101-0.5789757,0.1280231-0.8683443,0.192574c-0.0178709,0.0039873-0.035799,0.0089755-0.0541296,0.0089593
		c-0.0137939-0.0000124-0.0315781,0.0030293-0.0319233-0.0199313C15.6441145,6.8974991,15.6534767,6.8672318,15.6693659,6.839118z"
		/>
	<path fill="#00AEA4" d="M17.0192356,6.1401386c-0.0857582,0.0374503-0.1790752,0.045517-0.2688007,0.0668492
		c-0.2235756,0.0531564-0.448431,0.1010761-0.6733322,0.1484303c-0.0888796,0.018714-0.1762781,0.0450511-0.2670412,0.0546088
		c0.0082455-0.0418367,0.020628-0.0823131,0.0396852-0.1205935c0.012002,0.0371141,0.0424547,0.0217428,0.0627642,0.0172815
		c0.3341856-0.0734143,0.6679258-0.1488566,1.0019636-0.2229538c0.0451736-0.0100198,0.0907726-0.0178323,0.1344891-0.0334911
		C17.0432835,6.0816259,17.0329399,6.1114383,17.0192356,6.1401386z"/>
	<path fill="#007E7A" d="M16.7812462,6.8603244c-0.1451931,0.030807-0.290556,0.0608387-0.4355412,0.0925941
		c-0.2465343,0.0539966-0.492837,0.1090379-0.7391949,0.163835c-0.0104828,0.0023313-0.019619,0.0030479-0.0264864-0.0068665
		c0.0013657-0.0329084,0.0136662-0.0622077,0.0297966-0.090241c0.1460028-0.0395637,0.2944756-0.0684419,0.4420366-0.1011386
		c0.2206402-0.0488911,0.441391-0.0972886,0.6621017-0.1458607c0.0311184-0.0068479,0.063448-0.0248022,0.095993-0.002687
		C16.8076935,6.8024035,16.796133,6.831892,16.7812462,6.8603244z"/>
	<path fill="#00837F" d="M16.8099518,6.7699599c-0.1017532,0.0123072-0.2002888,0.0404563-0.3000603,0.0621943
		c-0.2915401,0.063518-0.5825405,0.1295118-0.8737125,0.1947117c-0.0105371,0.0023599-0.019619,0.0027146-0.0263567-0.0072188
		c0.0016108-0.0328336,0.0139561-0.0621281,0.0297537-0.0902863c0.0268517,0.0258389,0.0552921,0.0026879,0.0793076-0.002511
		c0.3351688-0.0725489,0.6696072-0.1484728,1.004425-0.2226563c0.0351925-0.0077982,0.0705528-0.0187798,0.1076374-0.013834
		C16.8320179,6.7190218,16.8135223,6.7425232,16.8099518,6.7699599z"/>
	<path fill="#00C8BC" d="M10.1894751,5.429049c0.0029602,0.0386982-0.0013552,0.0760942-0.0198517,0.1109562
		C10.1725292,5.502357,10.1747904,5.4645915,10.1894751,5.429049z"/>
	<path fill="#00C8BC" d="M10.1609631,5.6014447c-0.0058508,0.0224295,0.0115166,0.0496082-0.0139294,0.0680318
		C10.1610174,5.6487155,10.1434793,5.6214929,10.1609631,5.6014447z"/>
	<path fill="#07D7CB" d="M10.6788559,3.9458947c0.0005341,0.0231974-0.0078249,0.0418749-0.0277834,0.0546575
		C10.6550455,3.9796448,10.6647635,3.9616582,10.6788559,3.9458947z"/>
	<path fill="#51F6F1" d="M14.9697924,0.7697397c-0.0170269,0.02017-0.0400171,0.0075645-0.0601006,0.010936
		C14.9271345,0.762796,14.950161,0.7755951,14.9697924,0.7697397z"/>
	<path fill="#00C8BC" d="M10.1699228,5.5395207c-0.0019503,0.0203648,0.0075407,0.0422602-0.0081348,0.0607877
		C10.165947,5.5802388,10.1542273,5.5580459,10.1699228,5.5395207z"/>
	<path fill="#00C8BC" d="M10.2001934,5.3797827c-0.0025921,0.0169482,0.0078316,0.0368161-0.0112371,0.0500741
		C10.1937943,5.413414,10.1832047,5.3935027,10.2001934,5.3797827z"/>
	<path fill="#00B4AA" d="M10.1884069,7.4602757c0.0199842,0.0128207,0.0090294,0.0329728,0.0118189,0.0498686
		C10.1832933,7.4966006,10.1940136,7.4765038,10.1884069,7.4602757z"/>
	<path fill="#56F7F3" d="M15.0705395,4.1185827c-0.2066078-0.0000248-0.4132147-0.0000501-0.619813-0.0000873
		c0.039856-0.0396209,0.0952787-0.0346427,0.1435013-0.0457129c0.2786903-0.0639806,0.5584955-0.1230936,0.83778-0.1845067
		c0.4213104-0.0926437,0.842536-0.1856842,1.2637377-0.2788255c0.2727757-0.0603194,0.5454292-0.1211939,0.8181763-0.1816466
		c0.0580273-0.012861,0.1162243-0.0249722,0.1743298-0.0374289c-0.0000038,0.046623,0.0000038,0.0932467,0.0000114,0.1398699
		c-0.0529728,0.0312948-0.1140289,0.0345731-0.1718903,0.0473149c-0.7895679,0.1738746-1.5789232,0.3487062-2.3683233,0.5233319
		C15.1221876,4.1066122,15.0950489,4.106936,15.0705395,4.1185827z"/>
	<path fill="#4EF5F0" d="M15.0705395,4.1185827c0.024189-0.0309806,0.0622549-0.0292983,0.0947495-0.0366163
		c0.2498903-0.0562763,0.5003281-0.1101177,0.7505274-0.16503c0.3599405-0.0789981,0.719861-0.1580954,1.0797167-0.2374773
		c0.2130451-0.0469961,0.4260311-0.094274,0.6387787-0.1425848c0.0181484-0.0041211,0.0357685-0.0061548,0.0539646-0.0066283
		c0.0000076,0.0533566,0.0000305,0.1067142,0.0000515,0.1600721c-0.0137901,0.0197988-0.0357037,0.0226183-0.0567913,0.0272779
		c-0.4756317,0.1050985-0.9511681,0.2106192-1.4269123,0.3152075c-0.1281528,0.028173-0.2565079,0.0554538-0.3841572,0.0858822
		C15.5704908,4.1186514,15.3205147,4.1186171,15.0705395,4.1185827z"/>
	<path fill="#46F3ED" d="M15.820467,4.1186857c0.0223274-0.0306606,0.0591002-0.0288939,0.0898523-0.0358176
		c0.2759027-0.062119,0.5523252-0.1219149,0.828599-0.1823795c0.3069592-0.0671804,0.6139259-0.134326,0.9208622-0.2016158
		c0.0096817-0.0021231,0.0190544-0.0056722,0.0285587-0.0085554c0.0000038,0.0466247,0.0000172,0.0932484,0.000021,0.1398709
		c-0.2178059,0.047744-0.4356995,0.0950441-0.6533642,0.1433718c-0.1854248,0.0411699-0.3714943,0.080014-0.5553341,0.127423
		c-0.0573978,0.014802-0.1129227,0.019197-0.1703415,0.0191255C16.1463699,4.119905,15.9834185,4.1191959,15.820467,4.1186857z"/>
</g>
</svg>
