<?xml version="1.0" encoding="utf-8"?>
<!-- Generator: Adobe Illustrator 24.1.1, SVG Export Plug-In . SVG Version: 6.00 Build 0)  -->
<svg version="1.1" id="Слой_1" xmlns="http://www.w3.org/2000/svg" xmlns:xlink="http://www.w3.org/1999/xlink" x="0px" y="0px"
	 viewBox="0 0 32 13" enable-background="new 0 0 32 13" xml:space="preserve" width="32px" height="13px">
<g>
	<path fill="#292929" d="M16.2554073,12.8082161c-0.1703014,0.000001-0.3406019,0.0000038-0.5109034,0.0000067
		c-0.0478544-0.0065031-0.0957603-0.0080976-0.1433821,0.0011911c-0.0133524,0.0026045-0.0264034,0.0035696-0.0395594,0.0014486
		c-0.1204433-0.0194178-0.2431116-0.0179262-0.3634119-0.0363455c-0.2104187-0.032218-0.4205084-0.0671492-0.6283131-0.1139088
		c-0.1103859-0.0248375-0.2209826-0.0492163-0.3289394-0.0837603l0.0011511,0.0007706
		c-0.0239592-0.0061588-0.0488253-0.0091248-0.0713673-0.0202742l0.0010509,0.0006256
		c-0.0234079-0.0076942-0.0488844-0.0084782-0.0707903-0.0211878l0.001153,0.0007763
		c-0.0568361-0.0073328-0.1070976-0.0362501-0.1621685-0.0493813c-0.0299082-0.0096579-0.0598164-0.0193148-0.0897236-0.0289736
		c-0.0333176-0.0225735-0.0793343-0.0098944-0.1100674-0.0396433c-0.0100737-0.0037689-0.0229321,0.0006809-0.0305452-0.0103493
		c-0.0157518-0.0083055-0.0349569-0.0078707-0.0493898-0.019515c-0.1216307-0.0401011-0.2382717-0.092701-0.3554239-0.1437645
		c-0.0686274-0.0299101-0.1350327-0.0649109-0.2024384-0.097621c-0.0156231-0.0023317-0.029212-0.0093775-0.0420561-0.0181475
		c-0.0140429-0.0068483-0.0280848-0.0136948-0.0421276-0.0205421c-0.0216112-0.0053806-0.0426321-0.0119123-0.0579557-0.0296011
		c-0.2062626-0.1081924-0.4073505-0.225379-0.6022577-0.3527927c-0.1513882-0.0989647-0.2998552-0.2023115-0.4393768-0.3178444
		c-0.0126629-0.0098534-0.0238066-0.0216885-0.0382042-0.0292778c-0.2389555-0.1884737-0.461031-0.3957109-0.6688051-0.6174793
		c-0.1732626-0.1849318-0.3380442-0.3773022-0.4884987-0.5822573c-0.1149445-0.1565838-0.2231007-0.3174248-0.3247871-0.4822721
		C10.326932,9.5824461,10.2634125,9.461545,10.1983395,9.341857c-0.0810823-0.1491365-0.1524763-0.302577-0.2177925-0.4586496
		C9.9152603,8.7272062,9.8575211,8.5681572,9.8027277,8.4078274c-0.0625496-0.1830206-0.1131048-0.3692932-0.15874-0.556386
		C9.6132765,7.7255321,9.5918503,7.5963645,9.5705805,7.4677229c-0.0181007-0.1094699-0.0264111-0.2202682-0.04848-0.3291645
		C9.517087,7.1138196,9.5250196,7.0859914,9.518815,7.0597973C9.5105181,7.0396781,9.5212765,7.0172729,9.511323,6.9973526
		C9.5105152,6.9815097,9.5097075,6.9656672,9.5088997,6.9498243C9.5004282,6.9256096,9.5110865,6.8994966,9.5015135,6.875391
		c-0.0008955-0.0251832-0.00179-0.0503669-0.0026855-0.0755501C9.4894753,6.7623525,9.5023222,6.7234311,9.4914808,6.6860385
		C9.491478,6.5254006,9.4914751,6.3647628,9.4914722,6.2041249c0.0108576-0.037396-0.0020018-0.076324,0.0073557-0.1138177
		C9.4997215,6.0651231,9.5006151,6.039938,9.5015097,6.0147538c0.0095816-0.0241041-0.0010843-0.0502176,0.00739-0.0744314
		c0.0008068-0.0158443,0.0016146-0.0316882,0.0024214-0.0475321c0.0099573-0.019918-0.0008039-0.0423222,0.007494-0.0624394
		C9.5294113,5.7290325,9.5345659,5.6267743,9.551878,5.5266161c0.0262413-0.151823,0.0525951-0.3036594,0.087677-0.4540839
		c0.0433931-0.1860609,0.0920668-0.3701563,0.1505642-0.5520687c0.0552902-0.1719398,0.1158342-0.3421087,0.1872816-0.5074906
		c0.068325-0.1581566,0.1393442-0.3153193,0.2224054-0.4673123c0.1216316-0.2225709,0.2472057-0.4424019,0.3915358-0.6508293
		c0.1254654-0.1811883,0.2592173-0.3557842,0.403595-0.5232787c0.1590862-0.1845555,0.325531-0.3612673,0.501935-0.5284903
		c0.1397734-0.1324974,0.2844286-0.2601035,0.4406424-0.3736652c0.0118876-0.008642,0.0219593-0.0197811,0.0328751-0.029759
		c0.0147743-0.0071299,0.025692-0.0194432,0.0387716-0.0288498c0.1554966-0.1191828,0.3156166-0.2323102,0.4828339-0.3338947
		c0.4818783-0.2927452,0.9901056-0.5290104,1.5293617-0.6963905c0.7040977-0.218545,1.4250965-0.3197985,2.1616096-0.2968613
		c1.28438,0.0399994,2.4634895,0.4123949,3.5290127,1.1350365c0.0927773,0.0629227,0.1837044,0.1285757,0.2754898,0.1929601
		c0.0161896,0.0074188,0.0290718,0.0191356,0.0412769,0.0317359c0.0123768,0.0179666,0.0289612,0.0304685,0.0493736,0.0379968
		c0.0152931,0.0086342,0.0292053,0.018976,0.0403957,0.0326838c0.1038494,0.0950264,0.2144547,0.1821796,0.3183899,0.2773128
		c0.1364384,0.124885,0.2672424,0.2553245,0.3936996,0.3898047c0.1519814,0.1616235,0.2926712,0.3332269,0.425457,0.5112417
		c0.2456589,0.3293381,0.4593525,0.6780405,0.6366844,1.0486708c0.201004,0.4201078,0.3561573,0.8561525,0.4577732,1.3113222
		c0.0527325,0.2362146,0.0955219,0.4736366,0.1192474,0.7144933c0.0021,0.0213208,0.007473,0.0423203,0.0113277,0.063468
		c0.0083313,0.0200658-0.0025215,0.0424471,0.0075207,0.0623059c0.0007973,0.0158892,0.0015945,0.0317774,0.0023937,0.0476661
		c0.0084743,0.0242014-0.0021858,0.0502996,0.0073757,0.0743937c0.0008926,0.0251951,0.0017853,0.0503902,0.0026798,0.0755858
		c0.009407,0.0374236-0.0035095,0.0762939,0.0073624,0.1136222c0.0000038,0.1607428,0.0000095,0.3214865,0.0000134,0.4822292
		c-0.0108967,0.0373378,0.0020351,0.0762224-0.0073757,0.1136565c-0.0008926,0.0251918-0.0017815,0.050384-0.0026722,0.0755754
		c-0.0095711,0.0241013,0.0010853,0.0502086-0.0073738,0.07442c-0.0008011,0.0158834-0.0016003,0.0317669-0.0023994,0.0476499
		c-0.0100441,0.0198646,0.0008049,0.0422516-0.0075245,0.062324c-0.0407467,0.3333011-0.0937042,0.6642275-0.1812096,0.9891105
		c-0.1203003,0.4466372-0.2850914,0.8757267-0.5000305,1.2853403c-0.1864166,0.3552551-0.4046669,0.6894798-0.6532211,1.0048809
		c-0.2072754,0.2630186-0.4371471,0.5042648-0.6801567,0.7333355c-0.1119308,0.1055098-0.2317295,0.2026749-0.3479576,0.3036251
		c-0.0111923,0.0137138-0.0251102,0.0240593-0.040411,0.0326958c-0.0990353,0.0714054-0.197773,0.1432276-0.2971649,0.2141342
		c-0.2414627,0.1722565-0.4957485,0.3231497-0.7594662,0.4588156c-0.2119713,0.1090441-0.4291248,0.2059145-0.6518822,0.2905188
		c-0.0106354,0.0040417-0.0199547,0.011549-0.0298862,0.0174427c-0.0159283,0.0120039-0.0354137,0.0135288-0.0538063,0.0182743
		c-0.0117016-0.002882-0.0179119,0.0066175-0.0261288,0.01159c-0.032896,0.0288906-0.0782757,0.020442-0.1148338,0.0383816
		c-0.029213,0.0075703-0.0587807,0.0141449-0.0849628,0.0302353c-0.0550709,0.013134-0.1053371,0.0420513-0.1621761,0.0493774
		l0.0011654-0.0007792c-0.0219002,0.0127239-0.0473843,0.0134869-0.0707817,0.0212059l0.0010529-0.0006132
		c-0.0225563,0.0110941-0.047411,0.0140972-0.0713673,0.0202608l0.0011559-0.0007591
		c-0.1622086,0.0485296-0.327507,0.0837984-0.4932098,0.1180086c-0.0972881,0.0200872-0.1955395,0.0351152-0.2930031,0.0538216
		c-0.0654259,0.012558-0.1331577,0.0230675-0.2007561,0.0269499c-0.0393047,0.0022583-0.0784092,0.0081511-0.1174927,0.0116987
		c-0.1132088,0.0102768-0.2257061,0.0262442-0.3398952,0.0170584C16.295126,12.8028336,16.2747383,12.800705,16.2554073,12.8082161z
		"/>
	<path fill="#FEFEFE" d="M16.2554073,12.8082161c0.1175003-0.0091257,0.235075-0.0174007,0.3524895-0.0275326
		c0.3764992-0.0324869,0.7470112-0.0991554,1.1121044-0.196413c0.0127583-0.0033979,0.0260029-0.0049706,0.0390244-0.0073967
		c-0.029808,0.0279293-0.0702095,0.024888-0.1057816,0.0357056c-0.1500435,0.0456305-0.3052559,0.0699844-0.4574642,0.1068354
		c-0.0598221,0.0144825-0.1239853,0.0178938-0.1854553,0.0331764c-0.0155048,0.0038548-0.0204277,0.0130711-0.0303955,0.0196447
		c-0.0107822,0.0071125-0.0240631,0.020792-0.0354176,0.0119505c-0.0477734-0.0372019-0.0829754,0.0006151-0.1261654,0.0102777
		c-0.0385914,0.0086317-0.0857334,0.0259943-0.1186886,0.018795c-0.0343304-0.0074978-0.0543938-0.01402-0.0777702,0.0130796
		c-0.0024643,0.0028563-0.0106831,0.0040913-0.0141602,0.0022221c-0.0462456-0.024868-0.0867329-0.0210218-0.1330109,0.0079594
		c-0.0220184,0.0137882-0.0580788,0.002429-0.0880184-0.0172834C16.3481941,12.7938786,16.299305,12.814661,16.2554073,12.8082161z"
		/>
	<path fill="#FEFEFE" d="M14.2408981,12.576848c0.1697922,0.0386438,0.3382711,0.0826664,0.5097027,0.1145773
		c0.3125906,0.0581875,0.6271343,0.0973616,0.9449072,0.1101418c0.0163765,0.000659,0.032629,0.0043583,0.0489683,0.006649
		c-0.0543327,0.0060577-0.1095247-0.0087757-0.1629896,0.0255356c-0.0255041,0.0163689-0.0719404,0.0190048-0.0986872-0.0191374
		c-0.0139275-0.0198622-0.0288925-0.0193453-0.0451527-0.0027428c-0.0034208,0.0034904-0.0078392,0.0060797-0.0120144,0.0087452
		c-0.0401764,0.0256233-0.0675726-0.0273504-0.0879984-0.0223207c-0.0307302,0.0075655-0.0542059,0.0367289-0.0830603-0.0013256
		c-0.0049057-0.0064697-0.0129623-0.0187473-0.0177832-0.0133762c-0.0500479,0.0557814-0.0827351-0.0275955-0.1269398-0.0151501
		c-0.0031309,0.0008821-0.0099726-0.0079565-0.011919-0.0068264c-0.0867577,0.0504398-0.1521149-0.0315371-0.2310143-0.0394888
		c-0.1960268-0.0197554-0.3868942-0.0749016-0.5781889-0.1232376C14.2716827,12.5945854,14.25214,12.5943251,14.2408981,12.576848z"
		/>
	<path fill="#FEFEFE" d="M18.1449394,12.457942c0.0366268-0.0177317,0.0746536-0.0312834,0.1148338-0.0383816
		c0.0038452,0.0334616-0.0118866,0.0491552-0.0426445,0.0362206C18.1909046,12.4447498,18.1689739,12.4644327,18.1449394,12.457942z
		"/>
	<path fill="#FEFEFE" d="M13.7401361,12.4195604c0.0387363,0.0075331,0.0766678,0.0172987,0.1100674,0.0396433
		c-0.0255117-0.0001793-0.0492153-0.0116425-0.076992-0.0018301C13.7431383,12.4679985,13.7384491,12.4436255,13.7401361,12.4195604
		z"/>
	<path fill="#FEFEFE" d="M13.9399271,12.4881754c0.056138,0.0096169,0.1093798,0.0287399,0.1621628,0.0493879
		C14.0390673,12.5505581,13.9936142,12.505847,13.9399271,12.4881754z"/>
	<path fill="#FEFEFE" d="M17.8978004,12.5375547c0.0527954-0.0206108,0.1060314-0.0397682,0.1621761-0.0493774
		C18.0062866,12.5058451,17.9608345,12.5505714,17.8978004,12.5375547z"/>
	<path fill="#FEFEFE" d="M12.9601994,12.08002c0.0230865,0.002491,0.0426235,0.0119314,0.0579557,0.0296011
		C12.9868879,12.1231461,12.9575405,12.1329088,12.9601994,12.08002z"/>
	<path fill="#FCFCFC" d="M22.5084267,6.2039418c-0.009758-0.0374012-0.0080318-0.0755463-0.0073624-0.1136222
		C22.5181351,6.1272464,22.5065689,6.1660295,22.5084267,6.2039418z"/>
	<path fill="#FCFCFC" d="M9.4988279,6.0903072C9.4994383,6.1284294,9.5013256,6.1666341,9.4914742,6.204103
		C9.4932985,6.1661453,9.481823,6.1273065,9.4988279,6.0903072z"/>
	<path fill="#FCFCFC" d="M9.4914808,6.6860385C9.501298,6.7234969,9.4994411,6.7617092,9.4988279,6.7998409
		C9.4818316,6.762846,9.4932871,6.7240138,9.4914808,6.6860385z"/>
	<path fill="#FCFCFC" d="M22.5010643,6.7998276c-0.0006657-0.038075-0.0024052-0.07622,0.0073757-0.113637
		C22.5065517,6.7240934,22.5181446,6.7628908,22.5010643,6.7998276z"/>
	<path fill="#FEFEFE" d="M18.285902,12.4079704c0.0165539-0.0101595,0.0336781-0.0186424,0.0538063-0.0182743
		C18.3287296,12.4162722,18.3083305,12.4151068,18.285902,12.4079704z"/>
	<path fill="#FEFEFE" d="M13.6602011,12.3896961c0.0188065,0.0005779,0.0362034,0.0047169,0.0493898,0.019515
		C13.6871967,12.417717,13.670269,12.4123869,13.6602011,12.3896961z"/>
	<path fill="#FEFEFE" d="M17.8281841,12.5579815c0.021946-0.012557,0.046011-0.0180531,0.0707798-0.0212002
		C17.8795166,12.5576763,17.8546181,12.5603924,17.8281841,12.5579815z"/>
	<path fill="#FEFEFE" d="M14.170682,12.5573444c0.0250063,0.0024633,0.0491381,0.0080042,0.0713596,0.0202789
		C14.2153969,12.5809355,14.1907187,12.5773048,14.170682,12.5573444z"/>
	<path fill="#FEFEFE" d="M17.7578697,12.5776291c0.0222969-0.0120039,0.0463181-0.0179386,0.0713673-0.0202579
		C17.8091888,12.5772963,17.7845154,12.5809355,17.7578697,12.5776291z"/>
	<path fill="#FEFEFE" d="M14.1009426,12.5367823c0.0247583,0.0031719,0.0488434,0.0085974,0.0707855,0.0211916
		C14.1452923,12.5604067,14.1204004,12.5576735,14.1009426,12.5367823z"/>
	<path fill="#FCFCFC" d="M22.4910183,6.9498229c-0.0008621-0.0251184-0.0025196-0.0503163,0.0073719-0.0743947
		C22.4967861,6.9002938,22.5074081,6.9263973,22.4910183,6.9498229z"/>
	<path fill="#FCFCFC" d="M9.5088997,5.9403224c0.000864,0.0251241,0.0025692,0.0503306-0.0073843,0.0744061
		C9.50313,5.9898601,9.4925146,5.9637508,9.5088997,5.9403224z"/>
	<path fill="#FCFCFC" d="M22.4983845,6.0147338c-0.009882-0.0240622-0.0082188-0.0492687-0.0073757-0.0743937
		C22.5074177,5.9637547,22.4967861,5.9898505,22.4983845,6.0147338z"/>
	<path fill="#FCFCFC" d="M9.5015135,6.875391c0.0099554,0.0240674,0.0082483,0.0492921,0.0073862,0.0744333
		C9.4925146,6.9263945,9.5031281,6.9002862,9.5015135,6.875391z"/>
	<path fill="#FCFCFC" d="M22.4810944,7.0597968c-0.0013275-0.021235-0.001152-0.0422873,0.0075245-0.0623183
		C22.4873047,7.0183916,22.4964333,7.0405707,22.4810944,7.0597968z"/>
	<path fill="#FCFCFC" d="M11.8803606,11.380105c0.0186186,0.0020819,0.0303993,0.0130863,0.0382042,0.0292778
		C11.8993759,11.4080439,11.8891783,11.3949747,11.8803606,11.380105z"/>
	<path fill="#FCFCFC" d="M20.0781078,11.4087849c0.0134697-0.0108976,0.0269394-0.0217972,0.040411-0.0326958
		C20.1125641,11.3962755,20.1001549,11.4084854,20.0781078,11.4087849z"/>
	<path fill="#FEFEFE" d="M13.0602827,12.1301632c0.0173359-0.0016384,0.029727,0.0081844,0.0420561,0.0181475
		C13.0799646,12.1616211,13.0699778,12.1462307,13.0602827,12.1301632z"/>
	<path fill="#FCFCFC" d="M22.488615,5.892674c-0.0086708-0.0200243-0.0088463-0.0410748-0.0075207-0.0623059
		C22.496439,5.849587,22.4873047,5.8717608,22.488615,5.892674z"/>
	<path fill="#FCFCFC" d="M9.518815,5.8303509c0.0013409,0.0212703,0.0012188,0.0423646-0.007494,0.0624337
		C9.5126076,5.8718319,9.5034704,5.8496227,9.518815,5.8303509z"/>
	<path fill="#FCFCFC" d="M20.118515,1.5140547c-0.0134659-0.0108945-0.0269318-0.0217892-0.0403957-0.0326838
		C20.1001606,1.481665,20.1125622,1.493875,20.118515,1.5140547z"/>
	<path fill="#FCFCFC" d="M20.0287457,1.4433743c-0.0137577-0.0105786-0.0275173-0.0211574-0.0412769-0.0317361
		C20.0097561,1.4111264,20.0219688,1.423717,20.0287457,1.4433743z"/>
	<path fill="#FCFCFC" d="M9.511323,6.9973526C9.5200462,7.0174208,9.5201225,7.0385261,9.518815,7.0597973
		C9.5034704,7.0405235,9.5126066,7.0183134,9.511323,6.9973526z"/>
	<path fill="#FCFCFC" d="M12.009161,1.4107881c-0.0076437,0.0167122-0.0204563,0.0264779-0.0387716,0.0288497
		C11.9795237,1.4249289,11.9897909,1.4117422,12.009161,1.4107881z"/>
	<path fill="#818181" d="M21.820776,5.4808111c0.0243931,0.0875368,0.0275917,0.178278,0.0398865,0.2676067
		c0.0424576,0.3084111,0.044014,0.6187639,0.0379448,0.9290838c-0.0032978,0.1685019-0.0273743,0.3356366-0.0442448,0.5032835
		c-0.0227528,0.2260761-0.0704842,0.4468327-0.1264687,0.665699c-0.0855236,0.3343611-0.2017174,0.658185-0.3456287,0.9725962
		c-0.1171932,0.2560349-0.2566357,0.4993811-0.4092178,0.7346182c-0.1268883,0.1956244-0.2661114,0.3830376-0.4195518,0.5602207
		c-0.1537571,0.1775494-0.3169041,0.3454571-0.4852982,0.5083408c-0.0951672,0.0920534-0.1993923,0.1747332-0.2994156,0.261776
		c-0.0289249,0.0251722-0.0472527,0.0221472-0.0732536-0.0106573c-0.2428989-0.3064404-0.4878235-0.6112795-0.733469-0.9155264
		c-0.0191994-0.023778-0.0147629-0.0344868,0.0060844-0.0504742c0.1747494-0.1340237,0.3323212-0.2872314,0.4823818-0.4473801
		c0.1911125-0.2039614,0.3611317-0.4246387,0.511385-0.6613369c0.2144012-0.3377552,0.3834095-0.6955557,0.5026951-1.0771427
		c0.0778141-0.2489171,0.1325245-0.5024376,0.1679115-0.7611761c0.0368652-0.269526,0.0418816-0.5398345,0.0341206-0.8103366
		c-0.0034027-0.1184902-0.011385-0.2381506-0.0328121-0.3557968c-0.002636-0.0144744-0.0010586-0.0297155-0.0014343-0.0446019
		c0.0292816-0.033608,0.0727482-0.0298514,0.1100426-0.0380254c0.3495121-0.0766039,0.6997032-0.1500988,1.0488682-0.2283282
		C21.8011684,5.4810424,21.8107548,5.4793191,21.820776,5.4808111z"/>
	<path fill="#3FCFE6" d="M17.8798046,0.9915715c0.0984154,0.0124509,0.1830578,0.0645618,0.2750645,0.0954341
		c0.1714191,0.057518,0.3377113,0.1280755,0.4984112,0.2099645c0.1763172,0.0898458,0.3527451,0.1803889,0.5171909,0.2916796
		c0.1097984,0.1528163,0.2240124,0.3023555,0.3376198,0.4523139c0.2454548,0.3239911,0.489851,0.648777,0.7347755,0.973166
		c0.4015198,0.5317936,0.8036003,1.0631666,1.2044296,1.5954819c0.066124,0.0878177,0.132391,0.1755619,0.1992836,0.2628098
		c0.0128822,0.0168014,0.0223675,0.0373559,0.0435009,0.0466957c0.041441,0.0967278,0.0570755,0.2004924,0.0805588,0.3019419
		c0.0190773,0.082418,0.0317516,0.1663156,0.0472679,0.2495575c-0.029871,0.0188851-0.0649586,0.0201993-0.0978069,0.0290637
		c-0.0205517,0.0039063-0.0419884,0.0027609-0.0617886,0.0109639c-0.0956249,0.0237026-0.1922989,0.0423384-0.2891006,0.0601511
		c-0.0501957,0.0046873-0.0793324-0.0260382-0.1061897-0.0621185c-0.2208366-0.296658-0.4449329-0.5908699-0.6676083-0.8861461
		c-0.397192-0.5266953-0.7950001-1.0529277-1.1922665-1.5795686c-0.2427673-0.3218257-0.4856472-0.6435683-0.7286835-0.965193
		c-0.2560863-0.3389024-0.5126152-0.677472-0.7672195-1.0174916C17.8924828,1.0405632,17.8664188,1.0233569,17.8798046,0.9915715z"
		/>
	<path fill="#81A7EF" d="M10.2861166,7.9009628c-0.0618877-0.2351723-0.1131248-0.4722967-0.1401167-0.7144599
		c-0.0147896-0.1326857-0.0346413-0.26477-0.0363989-0.3986311c-0.0001678-0.012795-0.0048637-0.0255303-0.0074577-0.0382934
		c0.0076447-0.0311847,0.0012465-0.0628877,0.0035448-0.0942578c0.0006742-0.0092068-0.0042553-0.0215602,0.0083294-0.0257583
		c0.0104618-0.0034914,0.0189743,0.0041819,0.0267458,0.0103736c0.0184183,0.0146747,0.0324335,0.0333309,0.0463991,0.052053
		c0.2399588,0.3217111,0.4824429,0.6415277,0.7243509,0.9617667c0.3994884,0.5288415,0.7985773,1.057982,1.1978102,1.5870156
		c0.230711,0.3057194,0.462781,0.6104155,0.6918869,0.9173431c0.0142307,0.0190659,0.0370617,0.0353518,0.0305252,0.0647326
		c-0.0727854,0.0930195-0.1385651,0.1928759-0.2205782,0.2768869c-0.0650902,0.066678-0.1150198,0.1448488-0.1808872,0.2097988
		c-0.0239439-0.0049477-0.0338964-0.0255537-0.046731-0.0425043c-0.2855282-0.3770905-0.5701265-0.7548828-0.8550596-1.1324215
		c-0.3952942-0.5237684-0.7915249-1.0468302-1.1857519-1.5714025C10.3257866,7.9406629,10.3074741,7.9194493,10.2861166,7.9009628z"
		/>
	<path fill="#7DA9EE" d="M12.8317356,10.222847c-0.1312752-0.1850853-0.2710028-0.3638382-0.4077291-0.5448465
		c-0.228569-0.3026018-0.4559727-0.6060848-0.6841259-0.9090023c-0.2590294-0.3439121-0.5181713-0.6877403-0.7776031-1.0313501
		c-0.1297264-0.1718187-0.2605581-0.3428011-0.3902388-0.5146523c-0.1366415-0.181078-0.27244-0.362792-0.408823-0.5440655
		c-0.0125818-0.0167212-0.0267239-0.0322685-0.0447168-0.0538492c-0.0164928,0.0498281,0.0031013,0.0894513-0.0163555,0.1244974
		c-0.000536-0.1994848-0.0031471-0.3989949-0.0006199-0.5984406c0.0010614-0.0837288,0.0129976-0.1673183,0.01999-0.2509713
		c0.0343437-0.0125699,0.0423031,0.0189099,0.0554094,0.0362244c0.1778288,0.2349205,0.3554554,0.4699965,0.5329113,0.7051973
		c0.2556543,0.3388448,0.5119619,0.6771975,0.766715,1.0167212c0.0201712,0.0268836,0.0444441,0.0493722,0.0690908,0.0717168
		c0.052742,0.1711879,0.1180687,0.3377171,0.1924906,0.5003881c0.1644859,0.359539,0.3689299,0.6953316,0.620595,1.0003147
		c0.2042656,0.2475443,0.4291391,0.47575,0.6808033,0.6763573c0.0114536,0.0091305,0.0368271,0.0151567,0.0154352,0.0410233
		C12.9797707,10.0390406,12.9060287,10.1311722,12.8317356,10.222847z"/>
	<path fill="#43CDE6" d="M17.8798046,0.9915716c0.0395298,0.0811053,0.1015129,0.1464806,0.1546135,0.2178727
		c0.1878319,0.2525337,0.3777714,0.5035018,0.5672131,0.7548355c0.2582474,0.34262,0.5166759,0.6851047,0.775219,1.0275024
		c0.1307678,0.1731801,0.2621975,0.3458622,0.39291,0.5190854c0.2594204,0.3437963,0.5183811,0.687942,0.7778759,1.0316825
		c0.129755,0.1718831,0.2605572,0.3429756,0.390358,0.5148253c0.1168022,0.1546412,0.2326775,0.3099794,0.3494911,0.4646106
		c0.0175781,0.0232701,0.0405865,0.0395188,0.0720387,0.0382161c0.0010281,0.0023704,0.0020542,0.0047407,0.0030861,0.0071025
		c-0.0022507,0.0048485-0.0058365,0.0083385-0.0107212,0.0104918c-0.1040077,0.0207105-0.2078724,0.042491-0.3108025,0.0679069
		c-0.0578728,0.0142889-0.0978985-0.0010586-0.1331978-0.0486774c-0.1215611-0.1639752-0.2434597-0.3277202-0.3683281-0.4892249
		c-0.0249119-0.0322213-0.0534115-0.0616679-0.0749702-0.0964823c-0.0420513-0.1036124-0.0726948-0.2112637-0.1147308-0.315062
		c-0.0863056-0.2131085-0.1878643-0.4178925-0.3041267-0.6164308c-0.118782-0.2028348-0.2492809-0.3976116-0.3994141-0.5773697
		c-0.1443939-0.1728857-0.2991028-0.3370795-0.4669209-0.4889939c-0.151226-0.1368892-0.3078098-0.2659588-0.4751492-0.382257
		c-0.0282764-0.0196514-0.0566235-0.0392015-0.084938-0.0587986c-0.0953636-0.1423185-0.2008286-0.2772565-0.3042355-0.4136231
		c-0.3177166-0.4189851-0.6331596-0.8396844-0.9504719-1.2589726c-0.0149326-0.0197317-0.0404587-0.0377482-0.0247555-0.0693032
		c0.1366806,0.0361067,0.2737522,0.070828,0.4098225,0.1091073C17.7943821,0.9521936,17.8365002,0.9739904,17.8798046,0.9915716z"/>
	<path fill="#85A4EF" d="M10.2861166,7.9009628c0.0202188,0.0044303,0.037096,0.0141063,0.0496559,0.030941
		c0.1218443,0.1633253,0.2430935,0.3270998,0.3657522,0.4898129c0.2413263,0.3201351,0.4836092,0.6395512,0.7251759,0.959507
		c0.1487236,0.1969862,0.296525,0.3946686,0.4453363,0.591589c0.1857576,0.2458143,0.3721275,0.4911671,0.5582333,0.7367201
		c-0.0429983,0.0553246-0.0862103,0.1104832-0.1288977,0.1660471c-0.0198364,0.0258198-0.0385609,0.0371637-0.0686426,0.0106325
		c-0.0642786-0.0566921-0.1336355-0.1078234-0.195961-0.1664944c-0.1279669-0.1204643-0.2574005-0.239954-0.3775873-0.3679581
		c-0.1672382-0.1781139-0.3275862-0.3625145-0.4694204-0.5625572c-0.1429863-0.2016668-0.2745104-0.40975-0.3959656-0.6252689
		c-0.1760063-0.3123226-0.3141832-0.6397991-0.4228115-0.9805832c-0.0004826-0.0015163-0.0000944-0.0033092-0.0001135-0.0049734
		c-0.0093374-0.0186443-0.007473-0.0413933-0.0213842-0.058362C10.3283634,8.046998,10.3072395,7.9739799,10.2861166,7.9009628z"/>
	<path fill="#3CD1E5" d="M21.6900806,4.919117c-0.0193653,0.0200291-0.0238819-0.0008554-0.0320091-0.0116448
		c-0.193367-0.2567325-0.3865089-0.5136342-0.5801392-0.7701712c-0.2405396-0.3186917-0.4816036-0.636986-0.7221947-0.9556403
		c-0.1497364-0.1983187-0.2987118-0.3972116-0.4485664-0.5954416c-0.2317886-0.3066151-0.4642029-0.6127574-0.6957512-0.919553
		c-0.0176353-0.0233641-0.039875-0.0454587-0.0409489-0.0780152c0.0900135,0.0588734,0.1786308,0.120031,0.2703972,0.1760341
		c0.1097984,0.0670066,0.2026157,0.1552284,0.3038883,0.232811c0.2146072,0.1644063,0.4062805,0.3538904,0.5957699,0.5447969
		c0.1699181,0.1711881,0.3258553,0.3559678,0.4662037,0.553205c0.1438522,0.2021677,0.2764034,0.4110351,0.3973179,0.6278908
		c0.0793591,0.1423235,0.1478443,0.2894444,0.2153416,0.4372168c0.0399361,0.0874357,0.0743904,0.1773748,0.1113091,0.2661891
		c0.0037632,0.0183339,0.0114059,0.0354099,0.0172157,0.0530806c0.0304928,0.0680985,0.0486469,0.1403823,0.0715885,0.211041
		c0.0069408,0.0158181,0.0134277,0.0317945,0.0171185,0.0487528C21.6557732,4.7990885,21.679884,4.8570304,21.6900806,4.919117z"/>
	<path fill="#A591F4" d="M14.8298607,8.9103527c-0.1220522-0.0732555-0.2255917-0.1668024-0.3092766-0.282114
		c-0.0080156-0.0403156,0.0268764-0.0357113,0.0467367-0.0404139c0.121273-0.0287161,0.2430906-0.0551414,0.3648863-0.0816002
		c0.2370958-0.051506,0.4737711-0.1049128,0.7107353-0.1570129c0.0290403-0.0063858,0.0587482-0.0114813,0.0853767-0.0261555
		c0.0183573-0.0057116,0.0361404-0.0009851,0.0539846,0.0030231c0.1314259,0.0295305,0.2641497,0.0284929,0.3960981,0.0088968
		c0.1230698-0.0182791,0.2325706-0.0673208,0.3137074-0.166996c0.0095749-0.0117636,0.0207005-0.0215921,0.0359898-0.025445
		c0.2272301-0.040719,0.4507275-0.0987406,0.6765289-0.1460676c0.1641045-0.0343947,0.3271427-0.0737185,0.4915066-0.1068306
		c0.0588226-0.0118504,0.0620365-0.0072536,0.0547199,0.053627c-0.0128345,0.111207-0.0261669,0.2223053-0.0711098,0.3265209
		c-0.0722122,0.0260696-0.1481266,0.037096-0.2225895,0.0536451c-0.8500748,0.1889181-1.7006845,0.3754139-2.5508108,0.5641012
		C14.8802299,8.8933268,14.8548975,8.9012146,14.8298607,8.9103527z"/>
	<path fill="#79ABEE" d="M10.162199,5.6000719c0.0047636-0.1139779,0.0353031-0.2236433,0.0578384-0.3344755
		c0.0270987-0.133265,0.0559282-0.2663665,0.1010828-0.3951392c0.0317993-0.0034757,0.0414534,0.0235167,0.0557184,0.0422478
		c0.1620531,0.2127981,0.3213654,0.42769,0.4840136,0.6400127c0.1545572,0.2017608,0.3021965,0.408751,0.460885,0.6073499
		c0.0073786,0.009234,0.0112438,0.0203152,0.0177879,0.0299115c0.0006609,0.0997634,0.0007353,0.1995344,0.0021038,0.2992878
		c0.0029955,0.2184939,0.0253916,0.4351673,0.062438,0.6504259c0.0022345,0.0129867,0.0024939,0.0263133,0.0036726,0.0394816
		c-0.064703-0.0410476-0.1037188-0.105885-0.1479836-0.1647625c-0.2329578-0.3098636-0.4676247-0.6184373-0.7006044-0.9282846
		c-0.1149807-0.1529188-0.230504-0.3054466-0.3454571-0.458396C10.2006807,5.610415,10.1892805,5.590857,10.162199,5.6000719z"/>
	<path fill="#65B8EB" d="M11.6507244,2.5519269c0.1342478-0.1401145,0.2692156-0.2793207,0.4181347-0.4044697
		c0.0630846-0.053014,0.1207523-0.1124692,0.1907873-0.1570423c0.024087-0.0054122,0.0312328,0.0153341,0.0415192,0.0286863
		c0.2098055,0.2723498,0.4142952,0.5487266,0.622386,0.8223794c0.0174198,0.0229089,0.0352325,0.0459869,0.0077667,0.0737221
		c-0.1187744,0.1099801-0.23594,0.2216809-0.3474627,0.3390136c-0.0765219,0.080508-0.1500998,0.1638126-0.2249947,0.245867
		c-0.0244827-0.0000482-0.0322819-0.0213363-0.0434656-0.0363481c-0.2124777-0.2851801-0.4297619-0.5667369-0.641614-0.8523762
		C11.6614532,2.5947366,11.6351709,2.5805504,11.6507244,2.5519269z"/>
	<path fill="#74AEED" d="M11.3395252,6.1899791c-0.0739565-0.0588989-0.1193266-0.1415339-0.1753473-0.2148762
		c-0.2351255-0.3078222-0.4669695-0.6181479-0.7012005-0.9266577c-0.0458393-0.0603752-0.0832109-0.1277485-0.1418571-0.1779881
		c0.0658655-0.2362452,0.1493349-0.4661489,0.2486877-0.6903319c0.0369244-0.0074005,0.0478363,0.0243654,0.0637693,0.0450215
		c0.138052,0.1789818,0.2715778,0.361424,0.4093409,0.5406008c0.133708,0.173903,0.2605705,0.3529882,0.3982487,0.5238461
		c0.0074224,0.009212,0.0121346,0.0197701,0.0171204,0.0302629c-0.0305471,0.158329-0.0651617,0.3158274-0.0840836,0.4763479
		C11.3587627,5.9271979,11.3509941,6.0587187,11.3395252,6.1899791z"/>
	<path fill="#49C9E7" d="M15.5565186,0.6989247c0.0122547-0.0128108,0.0281401-0.0076111,0.0424318-0.0076285
		c0.2674923-0.0003248,0.5349855-0.0003285,0.8024778-0.0000188c0.0142803,0.0000165,0.0302086-0.005169,0.0423126,0.0079252
		c-0.0106316,0.0188907-0.0352669,0.0067268-0.0487347,0.0221843c0.0044689,0.0238504,0.0229836,0.0395222,0.0365982,0.0576085
		c0.2771988,0.3682714,0.5564175,0.7350211,0.8322754,1.1042997c0.0170422,0.0228134,0.0437737,0.0428909,0.035902,0.0779042
		c-0.1288757-0.029763-0.2573681-0.0613234-0.3867245-0.0888164c-0.148653-0.0315939-0.2986736-0.0552649-0.4507046-0.0640224
		c-0.0043068-0.000248-0.0083847-0.0044816-0.0125675-0.0068564c-0.0776844,0.0102869-0.1102638-0.0461745-0.1483364-0.0975721
		c-0.2366562-0.3194652-0.4798088-0.6340525-0.7166195-0.9534056C15.573081,0.7346833,15.5578165,0.7205801,15.5565186,0.6989247z"
		/>
	<path fill="#2BDCE3" d="M17.149828,3.4923823c0.0850601,0.0453568,0.161726,0.1011004,0.224535,0.1753387
		c0.0245018,0.0289617,0.0532646,0.0543184,0.0800858,0.0813174c-0.0185833,0.0228894-0.0466518,0.0241606-0.0719624,0.0296693
		c-0.3731365,0.0812097-0.745533,0.165776-1.1187897,0.2464283c-0.0453377,0.0097957-0.0915527,0.0173321-0.1321259,0.0422716
		c-0.0491314,0.0132504-0.0993557,0.0070601-0.148983,0.0065241c-0.1558018-0.0016813-0.3009224,0.029037-0.4244776,0.1309648
		c-0.0077486,0.006393-0.0168095,0.0107284-0.0268507,0.01264c-0.0284405-0.0010939-0.0563765,0.002749-0.084034,0.0090189
		c-0.3601713,0.0816565-0.7213345,0.1588321-1.0818529,0.2389264c-0.0342531,0.0076103-0.0693913,0.0277729-0.1056414,0.0048771
		c0.000617-0.0067949,0.0012341-0.0135903,0.0018511-0.0203853c0.0089178-0.016058-0.0018616-0.0351925,0.0079832-0.0511065
		c0.0094032-0.0931292,0.0321741-0.1828885,0.0679216-0.2693758c0.060997-0.028687,0.1278582-0.0355697,0.1924505-0.0499597
		c0.6577215-0.1465352,1.3159533-0.2907636,1.9738522-0.436506c0.1786842-0.0395837,0.3574028-0.0790575,0.5362453-0.1179404
		C17.0774727,3.5169458,17.1146965,3.5082092,17.149828,3.4923823z"/>
	<path fill="#6DB3EC" d="M10.8689384,3.6000016c0.0705738-0.1340954,0.1534405-0.2606039,0.2404184-0.3843489
		c0.0584288-0.0831273,0.1134939-0.1688929,0.1813898-0.2450695c0.0384893-0.0140584,0.0487289,0.0202167,0.0641298,0.0403588
		c0.1627636,0.2128708,0.3237152,0.4271181,0.4847374,0.6413119c0.0699615,0.0930631,0.1414766,0.1849656,0.2110949,0.2783003
		c-0.1377373,0.2237151-0.2644262,0.4532087-0.3644638,0.696645c-0.0036383,0.0088549-0.0042057,0.0198455-0.0159426,0.023128
		c-0.1232872-0.1505222-0.2350531-0.3098154-0.3533335-0.4641519c-0.1345263-0.1755371-0.2673464-0.3523695-0.3994255-0.5297494
		C10.9025679,3.6363132,10.8825979,3.6209617,10.8689384,3.6000016z"/>
	<path fill="#AC8CF5" d="M14.8298607,8.9103527c0.0030079-0.0235014,0.0215187-0.0264664,0.03971-0.0304718
		c0.3099632-0.0682383,0.6198511-0.1368256,0.929862-0.2048492c0.4052582-0.0889254,0.8106728-0.1771355,1.2158928-0.2662268
		c0.1953983-0.0429602,0.390667-0.0865374,0.5855598-0.1317167c0.0266228-0.0061712,0.0524673-0.006218,0.0788593-0.0073032
		c-0.044487,0.1448278-0.1170692,0.2743568-0.2132282,0.3909931c-0.0051613,0.0062609-0.011631,0.0114403-0.0174942,0.0171223
		c-0.6642494,0.1429071-1.3269196,0.2929955-1.990737,0.4378824c-0.0202408,0.0044184-0.0441818,0.0016909-0.0585451,0.0224352
		C15.1955166,9.0979328,15.0030537,9.0282373,14.8298607,8.9103527z"/>
	<path fill="#5EBCEA" d="M12.9313183,2.9152024c0.0098038-0.0222504,0.0034008-0.0406287-0.0108204-0.0593765
		c-0.1876125-0.2473335-0.3746014-0.4951398-0.5622196-0.74247c-0.0317392-0.0418422-0.0656986-0.0820026-0.0986319-0.1229407
		c0.0616055-0.0645177,0.1369247-0.1120051,0.2074804-0.1651833c0.1380033-0.104015,0.2878761-0.190266,0.4331455-0.2833923
		c0.0022421-0.0014374,0.0064268,0.0001544,0.0097046,0.0003325c0.0280962,0.0652406,0.076375,0.1168329,0.1187038,0.1720793
		c0.1742115,0.2273672,0.3432226,0.4586533,0.5180998,0.6855084c0.0121584,0.0157719,0.0238638,0.0321016,0.0314751,0.0508213
		C13.5013437,2.5014465,13.4252853,2.5536625,13.347331,2.60288c-0.1374922,0.0868063-0.26371,0.1881554-0.3868723,0.2937007
		C12.9517918,2.9040084,12.9410791,2.9090507,12.9313183,2.9152024z"/>
	<path fill="#50C5E8" d="M14.2394342,0.943827c0.2194405-0.0732507,0.4452877-0.1206595,0.6713085-0.1676311
		c0.0198593-0.0041273,0.0394135-0.0026926,0.0588446-0.0061123c0.039959,0.0733589,0.0953426,0.135767,0.1446209,0.2024425
		c0.1877604,0.254047,0.3818846,0.5033184,0.5697117,0.7573193c0.0131187,0.0177397,0.0348196,0.0330623,0.0260286,0.0607152
		c-0.2487574,0.0224234-0.4969702,0.048508-0.7402401,0.1084915c-0.00945,0.0023307-0.0197544,0.0012015-0.0296612,0.0016844
		c-0.0198917,0.0120108-0.0261211-0.0051033-0.0344782-0.0165637c-0.2127771-0.2917943-0.4359159-0.5758147-0.6496563-0.8668658
		C14.2415962,0.9978119,14.2025452,0.9774218,14.2394342,0.943827z"/>
	<path fill="#46CBE7" d="M17.2997818,1.9611992c-0.0648823-0.1100302-0.1483841-0.206632-0.2241364-0.3087462
		c-0.1575336-0.2123501-0.3176899-0.4227526-0.476902-0.6338551c-0.0656738-0.0870822-0.131588-0.1739863-0.1976509-0.2607754
		c-0.0117149-0.015391-0.0346489-0.0298871-0.023592-0.0498365c0.0089951-0.0162287,0.0338345-0.0043815,0.0513496-0.0074259
		c0.0048923-0.0008504,0.0099201-0.0009248,0.0148869-0.0013564c0.2145138,0.0067863,0.4256382,0.0425366,0.6371727,0.0746999
		c0.0023518,0.0003574,0.0041122,0.0045984,0.0061474,0.0070266c-0.039444,0.014779-0.0298748,0.0338159-0.0094929,0.0609452
		c0.341053,0.4539707,0.6853771,0.9054732,1.0253315,1.3602656c0.0172482,0.0230732,0.0496445,0.0445006,0.0258865,0.081867
		c-0.151247-0.0639408-0.2980595-0.1379442-0.4522991-0.1952553C17.5520954,2.0425334,17.4255371,2.0031466,17.2997818,1.9611992z"
		/>
	<path fill="#71B0ED" d="M10.8689384,3.6000013c0.0569925,0.0173893,0.0750179,0.072942,0.1059542,0.1136229
		c0.2187004,0.2875869,0.4343901,0.577462,0.6515331,0.866236c0.0168104,0.0223556,0.0413895,0.0393648,0.0438766,0.070467
		c-0.0549755,0.1583405-0.1105471,0.3164544-0.159729,0.4767704c-0.0195627,0.0637641-0.0458975,0.1254859-0.0522852,0.1927595
		c-0.083889-0.0744176-0.1398029-0.1713967-0.2068939-0.25914C11.038558,4.7823577,10.8284855,4.501884,10.6170034,4.222486
		c-0.0127783-0.016881-0.0245094-0.0360246-0.0471954-0.0423608c0.0638275-0.1528463,0.1325245-0.3032606,0.2197208-0.4445918
		c0.01721-0.0278964,0.0323238-0.0570853,0.0484056-0.0856781c0.0149231-0.0090592,0.0150509-0.0264096,0.022294-0.0397735
		C10.8631315,3.6067216,10.8660355,3.6033614,10.8689384,3.6000013z"/>
	<path fill="#25DFE2" d="M17.149828,3.4923823c-0.001936,0.0245287-0.020422,0.0256813-0.0390167,0.0298278
		c-0.2487431,0.0554712-0.4972134,0.1121774-0.746027,0.1673222c-0.2181072,0.0483387-0.4366446,0.0947392-0.6548529,0.1426349
		c-0.3620405,0.0794666-0.7239857,0.1593685-1.0859318,0.2392716c-0.0759811,0.0167737-0.1520386,0.033339-0.2275047,0.0522256
		c-0.019928,0.0049868-0.0390387,0.0068736-0.0590067,0.005827c0.0450706-0.1382878,0.1144505-0.2627671,0.2111864-0.3717043
		c0.1308002-0.015125,0.2576151-0.0501673,0.3856955-0.0784693c0.5341368-0.1180291,1.0685234-0.2349305,1.6024189-0.354039
		c0.0383301-0.0085506,0.07934-0.0097449,0.1132145-0.0338228C16.8283939,3.3291249,16.9972229,3.390578,17.149828,3.4923823z"/>
	<path fill="#4EC6E8" d="M15.7099485,1.7905606c-0.071804-0.1110798-0.1558456-0.2131956-0.2348394-0.3189696
		c-0.1640139-0.2196232-0.3301029-0.4376993-0.4954662-0.6563128c-0.0104246-0.0137811-0.0190344-0.0273739-0.0100546-0.0451932
		c-0.000001-0.0000014-0.0003061,0.000319-0.0003061,0.000319c0.0157833-0.0100925,0.0351181,0.0013116,0.0509624-0.0084162
		l0.0008793-0.000585c0.0178795-0.0134777,0.0409527,0.0025729,0.0589285-0.0103621
		c0.100584-0.0214607,0.203146-0.0284141,0.3049555-0.0405591c0.0568218-0.0067784,0.1143198-0.0078896,0.1715126-0.0115556
		c0.1133318,0.1486031,0.2271662,0.2968279,0.3398743,0.4459043c0.1497097,0.1980162,0.3013248,0.3947062,0.4455204,0.5966793
		c0.0308723,0.0432441,0.0695534,0.0447859,0.1078701,0.059994C16.2033768,1.7840241,15.9564991,1.7983679,15.7099485,1.7905606z"/>
	<path fill="#56C1E9" d="M14.2394342,0.943827c-0.0190716,0.028267,0.0083094,0.0438123,0.0201283,0.0595948
		c0.2148323,0.286883,0.4307823,0.5729339,0.6476202,0.858305c0.0100298,0.0131996,0.0075388,0.0385276,0.0328646,0.0390098
		c-0.1468744,0.0432675-0.2962799,0.0778334-0.4409494,0.1287041c-0.0419331,0.0147448-0.0843353,0.0281508-0.126523,0.0421705
		c-0.0241528,0.0108755-0.031908-0.0085349-0.0425329-0.0229042c-0.1915207-0.2590369-0.3891497-0.5134795-0.5809937-0.7722758
		c-0.0187721-0.025321-0.0402384-0.0486391-0.0581837-0.0746052c-0.0101223-0.0146466-0.0244694-0.0279484-0.0202866-0.0487168
		C13.8563786,1.0729713,14.0442848,0.9985539,14.2394342,0.943827z"/>
	<path fill="#69B6EC" d="M12.0507088,3.9305542c-0.0454149-0.0149922-0.0597506-0.0599737-0.0847521-0.0927699
		c-0.211895-0.2779462-0.4212837-0.5578022-0.6317883-0.8368104c-0.0107803-0.0142887-0.0222874-0.0298276-0.0434217-0.0303907
		c0.1061926-0.1514165,0.2352428-0.2831821,0.3599777-0.4186566c0.0431652,0.0803144,0.1042948,0.1479483,0.1582699,0.2204058
		c0.1816292,0.2438202,0.3663378,0.4853475,0.5498667,0.7277515C12.2531042,3.6413982,12.1479759,3.7831621,12.0507088,3.9305542z"
		/>
	<path fill="#5BBEEA" d="M13.5782557,2.4505811c-0.0525827-0.0414977-0.0830679-0.1011424-0.1228266-0.152822
		c-0.1763258-0.2291873-0.3500309-0.4603959-0.5236692-0.6916355c-0.0132484-0.0176417-0.0407372-0.0339122-0.0217829-0.0639516
		c0.1031046-0.0718994,0.2164278-0.1259183,0.3261251-0.1862768c0.0215721-0.0118698,0.0434704-0.0231491,0.065218-0.0347011
		c0.03234-0.0141761,0.0400705,0.0158789,0.0523376,0.0319165c0.0908461,0.1187738,0.1792383,0.2394204,0.27001,0.3582492
		c0.1159878,0.1518368,0.2308073,0.3045459,0.3449697,0.4577479c0.0133047,0.0178542,0.0340633,0.0329738,0.0310812,0.0597522
		C13.8541451,2.2931001,13.7170324,2.3734226,13.5782557,2.4505811z"/>
	<path fill="#6EB3EC" d="M14.2911177,6.8600392c0.0123739-0.0734453,0.0342817-0.1438003,0.0681696-0.2102718
		c0.0350962-0.0217581,0.076128-0.0229025,0.1146889-0.0314302c0.8226223-0.1819277,1.6454029-0.3631325,2.4680176-0.545084
		c0.0409946-0.009068,0.0820446-0.02983,0.1262226-0.0131083c0.0700455,0.0357184,0.1417198,0.0686684,0.2029514,0.1193681
		c-0.0097656,0.0237126-0.0322056,0.0275297-0.0530205,0.0320745c-0.4148617,0.0905986-0.8291702,0.1837254-1.2442217,0.2734551
		c-0.0173473,0.0037508-0.0348387,0.0072746-0.0418425,0.0074039c0.0333261-0.007679,0.0779228-0.0082717,0.1224136-0.0056992
		c0.0180302,0.0010409,0.0419502-0.0042419,0.0463409,0.0245628c-0.0103378,0.0100226-0.0236912,0.012917-0.0369186,0.012116
		c-0.1537437-0.0093231-0.3009958,0.0162711-0.4412022,0.0807142c-0.0175285-0.006988-0.0347004-0.0059662-0.0532856-0.0019011
		c-0.3961048,0.0866365-0.7916794,0.1756687-1.1879168,0.261692C14.3514042,6.8704681,14.3202505,6.8838096,14.2911177,6.8600392z"
		/>
	<path fill="#7CAAEE" d="M10.162199,5.6000719c0.0110493-0.0163174,0.0142908-0.0425835,0.0408335-0.0070505
		c0.2306309,0.308753,0.4634018,0.6159077,0.6955509,0.9235263c0.149415,0.1979866,0.2988653,0.3959446,0.4482641,0.5939431
		c0.0184927,0.0245099,0.0537443,0.034142,0.0608931,0.0686851c0.0389652,0.1853685,0.0823374,0.3696351,0.1379004,0.5508504
		c-0.0337944,0.0006218-0.0500565-0.0265446-0.0660582-0.0476727C11.252739,7.3828311,11.0273962,7.08217,10.8013163,6.7820663
		c-0.2170868-0.2881694-0.43466-0.5759745-0.6517353-0.8641529c-0.0075321-0.0100012-0.015233-0.0172992-0.0280676-0.0177469
		c0.0079269-0.0710092,0.017025-0.1419253,0.0226917-0.2131143c0.0010128-0.0127277,0.0024042-0.0214114,0.0114746-0.0291739
		c0.0025978-0.0186729-0.006134-0.0384283,0.005373-0.0562506L10.162199,5.6000719z"/>
	<path fill="#64B9EB" d="M17.5804024,5.6103535c-0.0450916,0.0794911-0.100132,0.1508985-0.1705322,0.2098231
		c-0.0977211,0.0342345-0.2002392,0.0485625-0.3007164,0.0709343c-0.8464451,0.1884708-1.6935339,0.3740325-2.5401888,0.5615706
		c-0.0210934,0.0046716-0.0421476,0.0122485-0.0639086,0.0083032c-0.0152597-0.0027661-0.0368433-0.0036297-0.0247326-0.030211
		c0.0516729-0.0778408,0.1138239-0.1457734,0.189786-0.2006431c0.3660154-0.0798669,0.7317429-0.1610441,1.0975208-0.241982
		c0.5805273-0.1284552,1.1614714-0.2550278,1.7417746-0.3844976C17.5333843,5.5983009,17.558466,5.5900636,17.5804024,5.6103535z"/>
	<path fill="#5EBDEA" d="M17.5804024,5.6103535c-0.0821514,0.0002832-0.1594067,0.0278902-0.2382927,0.0448918
		c-0.4201126,0.0905404-0.8397236,0.1834297-1.2593594,0.2761788c-0.2743979,0.0606484-0.5484619,0.1228113-0.822835,0.1835828
		c-0.1823378,0.0403881-0.3650446,0.0791044-0.5472851,0.1199164c-0.0163116,0.0036535-0.0289574,0.0023494-0.0425205-0.0047927
		c0.071991-0.0640392,0.1548128-0.111125,0.2400875-0.154633c0.0129175-0.0065908,0.0422792-0.008379,0.0198641-0.0361342
		c-0.0081778-0.0427804,0.0279579-0.0386858,0.0502558-0.0440869c0.1309738-0.0317249,0.2630701-0.058557,0.3946218-0.08778
		c0.7146034-0.1587462,1.4298859-0.314425,2.1442547-0.4742241c0.0357265-0.0079913,0.0714607-0.0163145,0.1077328-0.0210528
		c0.0161591-0.002111,0.0374012-0.0095668,0.0426922,0.0176287C17.6500187,5.4950266,17.6201649,5.5551381,17.5804024,5.6103535z"/>
	<path fill="#1FE3E1" d="M16.6500034,3.291456c0.0116806,0.0257697-0.0062351,0.0256352-0.0237675,0.0294313
		c-0.1824055,0.0394926-0.3646622,0.0796812-0.5469532,0.119698c-0.4727154,0.10377-0.9453716,0.2078121-1.4182549,0.3108153
		c-0.0365305,0.0079575-0.0731878,0.0365031-0.1123533,0.006387c0.1261425-0.1612957,0.2904396-0.2724001,0.4744558-0.3559244
		c0.234726-0.1065423,0.4834909-0.1549413,0.7393494-0.1728947c0.2871838-0.0201519,0.5722961-0.0091751,0.8544025,0.0521502
		C16.6281414,3.2835662,16.6389732,3.2879658,16.6500034,3.291456z"/>
	<path fill="#43CDE6" d="M18.1287823,2.284008c0.006424-0.0266604-0.0117645-0.0446556-0.0250759-0.0623991
		c-0.2143345-0.2856845-0.4294167-0.5708079-0.6443825-0.8560171c-0.1323547-0.1756006-0.2647476-0.3511711-0.3973007-0.5266218
		c-0.011734-0.0155327-0.0346279-0.0300632-0.0255108-0.0498099c0.0082264-0.0178126,0.0332317-0.0053352,0.0505447-0.0082297
		c0.0842628,0.016526,0.1685276,0.0330519,0.2527905,0.0495777c0.0188541,0.0643197,0.068882,0.1085369,0.1069679,0.1595425
		c0.2644272,0.3541195,0.5313625,0.7063653,0.7979031,1.0589042c0.10882,0.1439307,0.2187271,0.2870395,0.3279572,0.4306602
		c0.0212593,0.0279524,0.0372486,0.0587652,0.0466347,0.0927906c-0.1511993-0.0946252-0.3027649-0.1886044-0.4628048-0.2679951
		C18.1463814,2.2993886,18.1379833,2.2908895,18.1287823,2.284008z"/>
	<path fill="#58C0E9" d="M13.9997187,2.2288599c-0.0994215-0.1318307-0.1989021-0.2636182-0.2982531-0.3955028
		c-0.1241636-0.1648203-0.2483044-0.329659-0.3721199-0.4947405c-0.0074921-0.0099897-0.0150614-0.017405-0.0280256-0.0174226
		c0.122467-0.0573884,0.2400236-0.1255622,0.3692579-0.168085c0.2177916,0.2888012,0.4352283,0.577872,0.6542101,0.8657684
		c0.0139589,0.018352,0.0160894,0.0498037,0.0477781,0.0527313C14.2482891,2.1240275,14.1240044,2.1764438,13.9997187,2.2288599z"/>
	<path fill="#B289F6" d="M15.3997402,9.1382179c-0.0267687-0.0254164,0.0038614-0.0248203,0.0144358-0.0273867
		c0.0594749-0.014432,0.119422-0.0269194,0.1792088-0.0400734c0.2343588-0.0515661,0.4686842-0.1032915,0.7030859-0.1546621
		c0.3458843-0.0758038,0.6917553-0.1516647,1.0378361-0.2265615c0.0374489-0.0081034,0.0739384-0.0336342,0.1147156-0.0116339
		c-0.1433716,0.1742325-0.3280563,0.2896328-0.535162,0.3713703c-0.295557,0.1166477-0.6049118,0.1525431-0.9201002,0.1506414
		c-0.0848637-0.0005121-0.1699543,0.0019732-0.254221-0.0119743c-0.0205479-0.0082655-0.0431032,0.0013781-0.0636244-0.0071287
		c-0.0121202-0.0009384-0.0242414-0.0018768-0.0363617-0.0028152c-0.0165148-0.0082493-0.0356121,0.0014544-0.0520287-0.0074806
		C15.5229502,9.1712627,15.461133,9.1559725,15.3997402,9.1382179z"/>
	<path fill="#32D7E4" d="M14.2597313,4.4703588c0.1018867-0.0121379,0.2004795-0.0405078,0.3003731-0.06217
		c0.3080215-0.0667949,0.6155615-0.1358004,0.9231405-0.2046146c0.0178833-0.0040011,0.0325546-0.0004954,0.0476494,0.0071106
		c0.0043077,0.0169477-0.0065336,0.0285907-0.0154867,0.0399227c-0.0599623,0.0758948-0.092639,0.1633091-0.110755,0.2571883
		c-0.0043383,0.0224853-0.0066786,0.0464983-0.0296059,0.0601649c-0.3576374,0.0788031-0.7150955,0.1583152-1.0728731,0.2363682
		c-0.0513725,0.0112076-0.057538,0.0056181-0.0566349-0.0482688c0.0006666-0.0397658-0.0048323-0.0797687,0.0035133-0.1193118
		C14.2467546,4.5809093,14.246088,4.5251751,14.2597313,4.4703588z"/>
	<path fill="#31D8E4" d="M16.12994,4.0593967c0.0112095-0.0189962,0.0299339-0.0247726,0.0498791-0.0291467
		c0.3344688-0.0733469,0.6689262-0.1467454,1.0033379-0.2203481c0.0905075-0.0199201,0.1808567-0.040555,0.2712841-0.0608623
		c0.0755997,0.0832047,0.1351357,0.1765406,0.1772423,0.2808728c-0.0174351,0.021297-0.0435448,0.0231009-0.0673714,0.0284081
		c-0.3211498,0.0715308-0.6427288,0.1411247-0.9637375,0.2132993c-0.0209694,0.0047145-0.0419979,0.0105681-0.0639267,0.0089073
		c-0.0177193-0.0023141-0.0295467-0.0136867-0.0400143-0.0268025c-0.0797443-0.0999298-0.1886654-0.1463361-0.3103561-0.1693635
		C16.1655369,4.0804362,16.142622,4.0814786,16.12994,4.0593967z"/>
	<path fill="#5ABFE9" d="M17.6696186,5.4298482c-0.0488319-0.019752-0.0935497,0.0064402-0.1382599,0.0160933
		c-0.4336109,0.0936151-0.8667049,0.1896358-1.2997799,0.2857165c-0.3054237,0.0677605-0.6105194,0.1369891-0.915905,0.204915
		c-0.114687,0.0255094-0.2297583,0.0492897-0.3447075,0.0736074c-0.0181608,0.0038414-0.0369062,0.0059214-0.040905,0.0291834
		c-0.0580139-0.0208297-0.1116095-0.0499496-0.1614637-0.086082c0.0012121-0.0426984,0.0378313-0.04143,0.0640812-0.0475359
		c0.1362028-0.0316787,0.2730312-0.0606632,0.409441-0.0914569c0.2224083-0.0502086,0.4466658-0.0923805,0.6666775-0.1529951
		c0.0719938-0.0117273,0.1449175-0.0029716,0.2175703-0.0126185c0.1121006-0.0148835,0.2168884-0.0440478,0.307972-0.1135416
		c0.0131474-0.0100317,0.0273094-0.0188208,0.0444241-0.0209112c0.1041927-0.0016026,0.2022324-0.0364013,0.3027611-0.0571985
		c0.287878-0.0595584,0.5739384-0.1275325,0.8615017-0.1885839c0.0248833-0.0052838,0.0513916-0.0184617,0.0762844,0.0017953
		C17.7110043,5.3260098,17.6945953,5.3792629,17.6696186,5.4298482z"/>
	<path fill="#9D95F3" d="M17.7508545,7.943264c0.0060596-0.0399914-0.010994-0.0509424-0.0489731-0.0424466
		c-0.2595139,0.0580516-0.5192184,0.1152444-0.7788372,0.1728263c-0.1128616,0.025033-0.2255039,0.0511036-0.3386555,0.0747366
		c-0.0182743,0.0038176-0.0388641,0.0118771-0.0581779,0.0001068c-0.0063114-0.0137939-0.0011063-0.0262718,0.0054302-0.0379229
		c0.0403595-0.0719185,0.0659561-0.1487207,0.0779629-0.2302485c0.0024242-0.0164733,0.0072021-0.032515,0.0176144-0.0462236
		c0.0145092-0.015635,0.034399-0.019465,0.0537605-0.0237789c0.3402863-0.0758119,0.680872-0.1502676,1.0213394-0.2252531
		c0.0211754-0.0046639,0.0458527-0.0164061,0.06213,0.011343c-0.0016766,0.065619,0.0046082,0.1313272-0.0035686,0.1967726
		C17.7625484,7.8435392,17.7642059,7.8939028,17.7508545,7.943264z"/>
	<path fill="#39D3E5" d="M14.249052,4.6367483c0.0003729,0.0431986,0.0012312,0.086401,0.0009375,0.1295953
		c-0.0001726,0.0252137,0.0048676,0.0348945,0.0349302,0.0280194c0.1754131-0.0401173,0.3515024-0.0772648,0.527195-0.1161795
		c0.1724176-0.0381899,0.3445816-0.0775228,0.5170221-0.1156058c0.0159369-0.0035191,0.0330706-0.0016246,0.0496473-0.002244
		c0.0085487,0.0063362,0.0140591,0.0159383,0.0127392,0.0254054c-0.0119925,0.0860677,0.0029354,0.1735554-0.0139589,0.2592764
		c-0.015439,0.0235872-0.041646,0.0262041-0.0655012,0.0315824c-0.3267107,0.0736561-0.6541195,0.1441569-0.9810734,0.2167249
		c-0.0237751,0.0052776-0.0487385,0.0152121-0.0721302-0.0026073c-0.0144348-0.0832572-0.0166578-0.1674085-0.0154018-0.2514973
		C14.2444658,4.7717366,14.2357826,4.703898,14.249052,4.6367483z"/>
	<path fill="#9E95F3" d="M15.7299767,8.3300409c-0.0253401,0.0323105-0.065362,0.0293636-0.0989389,0.0368509
		c-0.3557491,0.0793467-0.7120762,0.1560984-1.0680275,0.2345467c-0.015625,0.0034437-0.0386105,0.0018196-0.0424261,0.0268002
		c-0.0647182-0.0773382-0.1157417-0.1627169-0.1511011-0.2572937c-0.0002823-0.0374393,0.0314398-0.0337515,0.053257-0.0387869
		c0.2041197-0.0471106,0.4087381-0.092042,0.6134357-0.1365643c0.1186008-0.0257931,0.2369194-0.0528383,0.3555622-0.0784225
		c0.019453-0.0041943,0.0385923-0.0105734,0.0589132-0.0081053c0.0180302,0.0024977,0.0290222,0.0148172,0.0388308,0.0285435
		c0.0534983,0.0748472,0.1225414,0.129878,0.2080793,0.1641846C15.7113686,8.307332,15.7254848,8.3134022,15.7299767,8.3300409z"/>
	<path fill="#39D3E5" d="M16.5279808,4.2710466c0.1888275-0.0411854,0.3776646-0.0823202,0.5664768-0.12357
		c0.1790905-0.0391254,0.3581524-0.078371,0.5372257-0.1175642c0.0441132,0.0846777,0.0732365,0.1743479,0.0893955,0.2683377
		c0.0035667,0.0233274-0.015955,0.0224147-0.0288296,0.025166c-0.3399773,0.0726547-0.6784821,0.1520119-1.0186958,0.2235732
		c-0.0130234,0.0027394-0.026165,0.0051279-0.0395546,0.0024066c-0.0168152-0.0042243-0.0234413-0.0170808-0.0258923-0.0324254
		c-0.0117912-0.0738688-0.0380726-0.142539-0.0732403-0.2081904C16.5286922,4.297255,16.5236759,4.2848177,16.5279808,4.2710466z"/>
	<path fill="#929DF1" d="M17.7608795,7.7931757c-0.0007858-0.0677319-0.0015697-0.1354647-0.0023556-0.2031965
		c-0.02351-0.0403399-0.0090008-0.084578-0.0128193-0.1269293c-0.0011883-0.0131917,0.0000038-0.0265846-0.0002327-0.0398798
		c-0.0009766-0.0542989-0.0041771-0.0569048-0.0583305-0.0453868c-0.3268242,0.0695157-0.6523647,0.144886-0.9790993,0.2148118
		c-0.0250397,0.0053592-0.0517368,0.018384-0.0746136-0.0065823c-0.0157814-0.0864782-0.0128784-0.1730471-0.0016975-0.2596531
		c0.0107765-0.0198245,0.0310249-0.0243659,0.0501938-0.0286746c0.337368-0.07583,0.6751823-0.1496663,1.0129395-0.2237349
		c0.0513287-0.0112562,0.0551701-0.0064492,0.0632153,0.0456448c0.0171738,0.2197027,0.0065613,0.4397211,0.0072823,0.6596079
		C17.765377,7.7838564,17.7624397,7.788518,17.7608795,7.7931757z"/>
	<path fill="#89A2F0" d="M17.7580795,7.1195951c-0.0090885-0.0298033-0.0202103-0.0415821-0.0587311-0.0327425
		c-0.3133774,0.0719128-0.6276646,0.1398535-0.9417057,0.2088704c-0.0386047,0.0084848-0.077383,0.0161777-0.1160812,0.0242367
		c-0.0189705-0.015923-0.0167904-0.0383439-0.0169811-0.0592961c-0.0005493-0.0607762-0.0014687-0.1215701,0.000452-0.1822996
		c0.0011196-0.0424681,0.0305309-0.0542274,0.0654964-0.0620856c0.2567348-0.0577025,0.514082-0.1126122,0.7708683-0.1700702
		c0.0633774-0.0141821,0.126545-0.0294008,0.1903534-0.0415435c0.0208473-0.0039668,0.0436611-0.0107212,0.0571117,0.0151849
		C17.7377319,6.9177189,17.7556114,7.0173917,17.7580795,7.1195951z"/>
	<path fill="#41CEE6" d="M14.2588596,5.0907154c0.1342325-0.0201077,0.2651567-0.0558848,0.3976135-0.0843668
		c0.2374926-0.0510674,0.474596-0.1039386,0.7118635-0.1560559c0.0103426,0.0073557,0.0147877,0.018424,0.0150213,0.0300736
		c0.0016174,0.0808678,0.0092974,0.1618886-0.0046692,0.2424231c-0.0127411,0.0235467-0.0371075,0.0269957-0.0593796,0.0318971
		c-0.3171721,0.0697947-0.6341867,0.1402912-0.9513121,0.2102938C14.3467197,5.369678,14.3246279,5.37532,14.3106565,5.3503485
		C14.2795801,5.2665591,14.2639799,5.1796827,14.2588596,5.0907154z"/>
	<path fill="#919DF1" d="M14.2519426,7.8802724c-0.0004091-0.0101738-0.0008173-0.0203466-0.0012255-0.0305204
		c0.0100498-0.0214195,0.0309935-0.0231786,0.0502777-0.0274248c0.3363733-0.0740819,0.6728363-0.1477594,1.0091677-0.2220306
		c0.0215712-0.0047636,0.0448561-0.0176334,0.0657759,0.0032697c0.0101767,0.0183988,0.0109453,0.0388527,0.0089569,0.0584841
		c-0.0072126,0.0712481,0.0157213,0.1421046,0.0020056,0.213285c-0.0114536,0.0174475-0.0308418,0.0182052-0.0483799,0.0220714
		c-0.3221149,0.071003-0.6441212,0.1424913-0.9662809,0.2132912c-0.0274305,0.0060282-0.0546818,0.0157385-0.0836601,0.0116158
		c-0.0178537-0.0584221-0.0292568-0.1179066-0.0294924-0.1792274C14.2501469,7.9228945,14.260191,7.9005427,14.2519426,7.8802724z"
		/>
	<path fill="#7BABEE" d="M14.2487087,7.7924733c-0.0088348-0.0207419-0.0058584-0.042727-0.0054922-0.0640845
		c0.0034809-0.2029357-0.0091553-0.4061055,0.0086632-0.6088305c0.0046139-0.0326362,0.0284805-0.0405746,0.0562363-0.0465708
		c0.2681961-0.0579367,0.5355816-0.1195612,0.8038979-0.1769652c0.0796795-0.0170479,0.1589489-0.0360346,0.2387171-0.0526276
		c0.0265417-0.0055208,0.0580912-0.0159001,0.0680027,0.0259724c-0.0143862,0.0810647-0.0153313,0.1646972-0.0458231,0.242763
		c-0.0953875,0.0350981-0.1959734,0.0492787-0.2944965,0.0714779c-0.2511024,0.0565777-0.5029373,0.109889-0.7538767,0.1672273
		c-0.0574913,0.0131373-0.0596342,0.0159035-0.0600567,0.0772605c-0.0003901,0.0564604,0.000124,0.1129241,0.0001497,0.1694522
		c0.0025597,0.0465951,0.0014162,0.0931573,0.0008068,0.1396928C14.2651796,7.7569127,14.2662277,7.7777061,14.2487087,7.7924733z"
		/>
	<path fill="#9899F2" d="M14.2885799,8.1223135c0.0756741-0.0347424,0.1585836-0.042284,0.2382803-0.0608759
		c0.2188892-0.0510654,0.43888-0.0974536,0.6586924-0.1444931c0.0644855-0.0138006,0.1275625-0.0355802,0.1944275-0.0370779
		c0.0394115,0.0757384,0.0634108,0.1566229,0.0801191,0.2399406c-0.1130171,0.0238142-0.2262011,0.0468693-0.3390179,0.071599
		c-0.2386475,0.0523138-0.4770555,0.105732-0.7157555,0.1578112c-0.0156345,0.0034113-0.0289927,0.0059509-0.0358429,0.0217266
		C14.3293858,8.2923393,14.3031874,8.2092123,14.2885799,8.1223135z"/>
	<path fill="#73B0ED" d="M16.0999489,6.5080247c-0.0617466-0.0183649-0.1252499-0.0013542-0.1940241-0.0106077
		c0.0658283-0.0348887,0.1345778-0.0408664,0.199851-0.0557652c0.2497444-0.0570064,0.500288-0.1105046,0.7505684-0.1651502
		c0.1178398-0.0257292,0.2358322-0.0507636,0.3535728-0.0769243c0.0208721-0.0046377,0.0408573-0.0132742,0.0612507-0.0200644
		c0.0799217,0.0518603,0.1526661,0.1115108,0.2072659,0.1908655c-0.0132732,0.0316014-0.0440941,0.032908-0.0707264,0.038693
		c-0.293499,0.0637684-0.5864735,0.1298976-0.8797874,0.1945004c-0.0293484,0.0064645-0.0581055,0.0136781-0.0842896,0.0289078
		c-0.0177956,0.0050278-0.0326691-0.0028801-0.0462208-0.0123043c-0.0737362-0.0512753-0.1573925-0.0747261-0.2445068-0.0894394
		C16.1338615,6.5275202,16.1129684,6.5263052,16.0999489,6.5080247z"/>
	<path fill="#89A2F0" d="M14.2487087,7.7924733c0.0008688-0.0675139,0.0017385-0.1350288,0.0026073-0.2025428
		c0.0152645-0.0149436,0.0357294-0.0168676,0.0549526-0.0212202c0.3319435-0.0751648,0.6648378-0.1460433,0.996933-0.2205377
		c0.0243893-0.0054703,0.0517588-0.0187459,0.0740967,0.0073276c0.0159311,0.0728745,0.0083971,0.146306,0.0051756,0.2195826
		c-0.0004282,0.0097642-0.0054169,0.0188289-0.0141287,0.0248342c-0.2387857,0.0532498-0.4775867,0.1064348-0.7163525,0.1597733
		c-0.1337891,0.0298886-0.26752,0.0600328-0.4012775,0.0900617C14.2500467,7.8306594,14.2493782,7.8115659,14.2487087,7.7924733z"/>
	<path fill="#74AFED" d="M15.4100304,6.8701425c-0.0051136-0.0282488-0.0262403-0.0212016-0.042985-0.0175047
		c-0.2707262,0.0597854-0.5413179,0.1201944-0.8119526,0.1804018c-0.0853491,0.0189886-0.1704016,0.0396399-0.2563381,0.0554671
		c-0.0229607,0.0042281-0.0347824,0.0154138-0.046875,0.0310526c0.0037975-0.0879107,0.0131464-0.1749811,0.039238-0.2595201
		c0.0873365,0.0010624,0.1690655-0.0289831,0.2527313-0.0471368c0.3470621-0.0753064,0.6936235-0.1529245,1.0403681-0.2296963
		c0.0149431-0.0033083,0.0303268-0.0077825,0.0357313,0.0137272c-0.0032454,0.0143147-0.0147009,0.0222039-0.0253983,0.0295792
		c-0.0757179,0.0522032-0.1191158,0.1280475-0.1555624,0.2093816C15.4328499,6.8495903,15.4340181,6.8709621,15.4100304,6.8701425z"
		/>
	<path fill="#48CAE7" d="M14.3106565,5.3503485c0.0407982,0.0212092,0.0781736-0.0047441,0.1149311-0.0125256
		c0.2734947-0.057899,0.5461283-0.1198664,0.8190546-0.1804533c0.0419264-0.0093069,0.0839701-0.0180826,0.1259604-0.0271039
		c0.0081291,0.0032649,0.0161095,0.0090208,0.0167866,0.0170856c0.0061407,0.0731039,0.0350475,0.1415381,0.0433874,0.21416
		c-0.0067358,0.0324917-0.0335417,0.037961-0.0597115,0.0438757c-0.2103968,0.0475469-0.4210024,0.0941629-0.6317596,0.1400762
		c-0.0875483,0.0190711-0.1748934,0.0390568-0.2625322,0.0576949c-0.0192108,0.0040851-0.0388136,0.0117507-0.0572176-0.0027695
		C14.3684416,5.5234928,14.3326178,5.4399395,14.3106565,5.3503485z"/>
	<path fill="#7CAAEE" d="M16.4396229,6.6310105c0.003767-0.0260286,0.0247307-0.0272722,0.0443439-0.031599
		c0.2856483-0.0630126,0.5713501-0.125783,0.8567486-0.1899095c0.0464535-0.010438,0.0956841-0.0125942,0.1377182-0.039124
		c0.0630226,0.0681372,0.116209,0.1427126,0.1504173,0.2297134c-0.0115471,0.0189338-0.0312157,0.0246539-0.0506268,0.0288758
		c-0.3271008,0.0711665-0.6534786,0.1456022-0.9806881,0.2161069c-0.017664,0.0011659-0.0275669-0.009841-0.0334301-0.0240283
		c-0.0249329-0.0603266-0.063921-0.1104145-0.1101894-0.1556082C16.4447269,6.6564603,16.4353447,6.6462116,16.4396229,6.6310105z"
		/>
	<path fill="#68B6EB" d="M17.0682163,6.0601449c-0.2388649,0.0531869-0.477663,0.1066675-0.71661,0.1594753
		c-0.2195911,0.0485296-0.4393291,0.0963917-0.6590233,0.1444449c-0.345665,0.0756073-0.691371,0.1510348-1.0370111,0.226759
		c-0.0743303,0.0162835-0.1487341,0.0323815-0.2225122,0.0509233c-0.024682,0.0062022-0.0487823,0.008986-0.0737724,0.0080199
		c0.0096464-0.0365529,0.0271482-0.069396,0.0476227-0.1008358c0.0141659-0.0093637,0.0301275-0.0135331,0.0465183-0.0171471
		c0.8943052-0.1972079,1.7887287-0.3938813,2.6828632-0.5918694c0.0391273-0.0086646,0.0801926-0.0278192,0.1200867,0.000206
		c-0.0448265,0.0397401-0.0996666,0.0626817-0.1515446,0.0906396C17.0909977,6.0382161,17.0719032,6.0397987,17.0682163,6.0601449z"
		/>
	<path fill="#50C5E8" d="M14.4195557,5.6003881c0.1869612-0.0406251,0.3739605-0.0810819,0.560873-0.1219339
		c0.1337233-0.0292263,0.2673254-0.0590196,0.4010029-0.0884628c0.0182781-0.0040259,0.036334-0.0079207,0.0391483-0.0311742
		c0.012084-0.0015874,0.0191879,0.0064473,0.0231619,0.0152354c0.031414,0.0694594,0.0828657,0.123281,0.1356602,0.1761847
		c0.0081902,0.0082088,0.0163555,0.0169263,0.0124083,0.0303974c-0.0200615,0.030591-0.0545559,0.0299416-0.0843086,0.0365601
		c-0.2679968,0.0596142-0.5361738,0.118432-0.8044033,0.1769891c-0.0380516,0.0083084-0.0748091,0.0311356-0.116415,0.01724
		C14.5186214,5.7508602,14.4613895,5.6817207,14.4195557,5.6003881z"/>
	<path fill="#68B6EB" d="M17.2563782,5.9401212c-0.1124229-0.0003095-0.2179432,0.0375152-0.3259201,0.0606403
		c-0.3829823,0.0820189-0.7654896,0.1662755-1.1479483,0.2507148c-0.305028,0.0673442-0.609705,0.1362748-0.9145746,0.2043338
		c-0.1387072,0.0309653-0.2774496,0.0617757-0.4163437,0.0918884c-0.0143089,0.0031018-0.0297585,0.0009489-0.0446796,0.0012341
		c0.0183344-0.0431991,0.0438557-0.0819321,0.0734119-0.1181593c0.0073195,0.0306158,0.0319452,0.020772,0.0487585,0.017118
		c0.2118597-0.0460439,0.4233618-0.0937309,0.6350708-0.1404791c0.3603325-0.079566,0.7207918-0.1585646,1.0811129-0.2381835
		c0.2731171-0.0603499,0.5458927-0.1222506,0.8192425-0.1815176c0.1146088-0.0248499,0.2271862-0.0607452,0.3453617-0.0675344
		C17.3636093,5.8664317,17.3077507,5.9004064,17.2563782,5.9401212z"/>
	<path fill="#3FCFE6" d="M16.6289139,4.5405974c0.1745758-0.0374856,0.3491554-0.0749493,0.5237255-0.1124625
		c0.1842194-0.0395865,0.3684425-0.0791535,0.5525742-0.1191406c0.0057907-0.0012574,0.0105972-0.0070577,0.0158634-0.0107422
		c0.0181885,0.058301,0.0293465,0.1177702,0.0296936,0.1790314c0.0122948,0.0349803-0.0009403,0.0510192-0.0367565,0.0588446
		c-0.3347301,0.0731349-0.6694527,0.1463194-1.0038357,0.2210469c-0.0256672,0.0057364-0.0524864,0.0133433-0.075531-0.0085368
		C16.6262226,4.6794658,16.6036854,4.610682,16.6289139,4.5405974z"/>
	<path fill="#82A6EF" d="M16.5894852,6.8410978c0.0885201-0.0378432,0.1842728-0.04775,0.2767849-0.0694017
		c0.2183914-0.0511136,0.438158-0.0963459,0.6572609-0.1444454c0.0353889-0.0077686,0.0702286-0.018044,0.10532-0.0271597
		c0.0378456,0.0691848,0.06427,0.1425276,0.0800114,0.2197585c-0.0296497-0.018671-0.0584965-0.00106-0.0859451,0.0048747
		c-0.3131313,0.0677032-0.6259079,0.1370392-0.9386749,0.2064152c-0.0218983,0.004858-0.048111,0.0078664-0.0453949,0.0411816
		c-0.009306-0.0010042-0.0161304-0.0068097-0.0173206-0.0151033c-0.009367-0.0653195-0.0248089-0.1293478-0.0395584-0.1935472
		C16.5801125,6.8555965,16.5832825,6.8474002,16.5894852,6.8410978z"/>
	<path fill="#4FC5E8" d="M17.7612057,4.6275253c0.0105686,0.1514502,0.010231,0.3026786-0.0092258,0.4535184
		c-0.0264206,0.0197206-0.0585289,0.0231242-0.0891342,0.0297995c-0.3135948,0.0683985-0.6269684,0.1377907-0.9401531,0.2080312
		c-0.0243244,0.005455-0.0486012,0.0118284-0.0736141,0.0129595c-0.0229034,0.0010357-0.0438061-0.0027413-0.0497894-0.030303
		c0.009779-0.062005,0.0056973-0.1268649,0.0374565-0.1844492c0.0710144-0.0298443,0.1474876-0.0385938,0.2217484-0.0554194
		c0.2690849-0.0609665,0.53862-0.1199408,0.8082867-0.1782999c0.0787697-0.0170465,0.0787601-0.0171518,0.0788155-0.0979314
		c0.0000191-0.0299172-0.0001011-0.059834-0.0000534-0.0897985C17.745718,4.6717463,17.7407837,4.646699,17.7612057,4.6275253z"/>
	<path fill="#55C2E9" d="M16.6093731,5.2989426c0.0076866,0.0333061,0.0338707,0.0226221,0.0524464,0.0186
		c0.1809864-0.0391917,0.3616695-0.0797982,0.5424042-0.1201425c0.1726437-0.038537,0.3452282-0.0773339,0.5179272-0.1156178
		c0.0095291-0.0021124,0.019865-0.000577,0.0298271-0.0007391c-0.0023918,0.0645313-0.0126457,0.1277051-0.0326672,0.1891923
		c-0.119688,0.0156302-0.2360249,0.0476513-0.3536434,0.0731993c-0.278944,0.0605907-0.5573902,0.1234689-0.8361874,0.1847363
		c-0.0169239,0.0037198-0.0366364,0.0085073-0.0502892-0.0100737c-0.0029221-0.0171275,0.0095253-0.0271125,0.0182095-0.0387239
		c0.0346661-0.0463495,0.0663586-0.0942564,0.0853462-0.1496739C16.5871868,5.3167372,16.5892048,5.2993178,16.6093731,5.2989426z"
		/>
	<path fill="#45CCE7" d="M17.7612057,4.6275253c-0.000864,0.0242858-0.00173,0.0485711-0.002594,0.0728569
		c-0.0128651,0.017694-0.0324097,0.0217543-0.0520916,0.0261803c-0.3360424,0.0755572-0.6729488,0.147213-1.0089397,0.2230191
		c-0.0211124,0.0047636-0.045248,0.0168486-0.0649948-0.0058866c-0.008522-0.0650144-0.0224152-0.1302619,0.0089874-0.1933823
		c0.082058-0.0015669,0.1593285-0.0289364,0.2383938-0.045764c0.281559-0.059926,0.5623837-0.1233063,0.8439064-0.183404
		c0.0307026-0.0065546,0.024231-0.0255079,0.0268955-0.0438457C17.7644444,4.5266562,17.7618217,4.5771604,17.7612057,4.6275253z"/>
	<path fill="#56C1E9" d="M14.5866833,5.8114238c0.2651739-0.0695004,0.5341797-0.1220694,0.8016415-0.1814675
		c0.0596266-0.0132413,0.1191444-0.0269599,0.1787281-0.0403891c0.0104618-0.002358,0.0175581-0.0088339,0.022912-0.0176859
		c0.0172567-0.0097818,0.0322495-0.000258,0.0463228,0.0070791c0.0740519,0.0386066,0.1534595,0.0578847,0.2356625,0.0682378
		c0.0150423,0.001895,0.034729-0.0015001,0.0383234,0.021771c-0.0794582,0.0450749-0.1705313,0.048933-0.2564936,0.0692811
		c-0.2185297,0.0517282-0.4386177,0.0968723-0.658061,0.1447511c-0.0564556,0.0123181-0.113061,0.0240774-0.1691284,0.037991
		c-0.0215311,0.0053434-0.047473,0.0058699-0.057992,0.0322881C14.7005939,5.9154396,14.6393414,5.8689423,14.5866833,5.8114238z"/>
	<path fill="#43CDE6" d="M20.4645901,5.0113187c0.0988655,0.0826874,0.1621723,0.1947637,0.2410851,0.2938104
		c0.076334,0.0958071,0.1469727,0.1961613,0.2196159,0.2948847c0.0268536,0.0364962,0.0593758,0.0456991,0.1043282,0.0361147
		c0.1097355-0.0233955,0.2172089-0.0587211,0.3302193-0.0656385c-0.0197296,0.0301247-0.0548859,0.0256004-0.0824051,0.0312071
		c-0.1961212,0.0399532-0.3908253,0.0863333-0.5867443,0.1270947c-0.003252,0.0006762-0.0067616,0.0006204-0.0097866,0.0017557
		c-0.0380745,0.0142922-0.0608082,0.0054793-0.0599976-0.0393639c-0.0331783-0.220736-0.0816574-0.4379787-0.1484985-0.6510401
		C20.4694252,5.030653,20.4671783,5.0209327,20.4645901,5.0113187z"/>
	<path fill="#68A0AB" d="M20.6209049,5.6911836c0.0100765,0.0340185,0.0273151,0.0393353,0.0641212,0.0309701
		c0.1930161-0.0438647,0.3872147-0.0825067,0.5807972-0.1239204c0.0318546-0.006815,0.0627003-0.0183792,0.0940132-0.0277457
		c0.0000019,0.0000024-0.0000629,0.0001302-0.0000629,0.0001302c0.1097202-0.0268846,0.2207184-0.0478525,0.3311043-0.0715666
		c0.0096684-0.0039244,0.0209808-0.0018792,0.0300293-0.0081706c0.0309372-0.0134397,0.0630322-0.0213561,0.0970039-0.0202761
		c0.000948,0.0034022,0.0018978,0.006793,0.0028572,0.0101953c-0.0103931,0.0120478-0.0245686,0.0161986-0.0394154,0.0193586
		c-0.1747417,0.0372-0.3490143,0.076436-0.5242195,0.1116691c-0.2090359,0.0420356-0.4165745,0.0915217-0.624752,0.1377797
		C20.6176643,5.7322736,20.6231556,5.7109675,20.6209049,5.6911836z"/>
	<path fill="#81A7EF" d="M10.3494864,8.1200151c0.0206537,0.0144997,0.0211372,0.0363894,0.0213842,0.0583639
		C10.3577127,8.1611319,10.3557339,8.1397915,10.3494864,8.1200151z"/>
	<path fill="#50C5E8" d="M15.0800524,0.7510406c-0.0171051,0.0178907-0.0393772,0.0063927-0.0589304,0.010362
		C15.0385132,0.745137,15.0608435,0.756965,15.0800524,0.7510406z"/>
	<path fill="#AC8CF5" d="M15.6759148,9.180809c0.0213413,0.0011921,0.0438719-0.0082378,0.0636244,0.0071287
		C15.7179632,9.1888409,15.6961393,9.1919699,15.6759148,9.180809z"/>
	<path fill="#79ABEE" d="M10.1610527,5.6016278c-0.0028915,0.0186572,0.003952,0.038249-0.0053911,0.0562677
		C10.1552782,5.6389189,10.1466827,5.6191769,10.1610527,5.6016278z"/>
	<path fill="#3FCFE6" d="M21.6366215,4.7396688c-0.0119553-0.0140572-0.0183601-0.0300632-0.0171185-0.0487533
		C21.6322975,4.7046785,21.6393089,4.7204719,21.6366215,4.7396688z"/>
	<path fill="#3FCFE6" d="M21.5479145,4.4798751c-0.0148602-0.014729-0.0201588-0.0325599-0.0172176-0.0530725
		C21.5409908,4.4430108,21.5482559,4.4602094,21.5479145,4.4798751z"/>
	<path fill="#89A2F0" d="M14.2519426,7.8802724c0.0150852,0.0194802,0.0058699,0.0417275,0.0071459,0.0627966
		C14.2484102,7.9230924,14.250802,7.9016109,14.2519426,7.8802724z"/>
	<path fill="#50C5E8" d="M15.0202446,0.7619877c-0.0149927,0.0148717-0.0337448,0.0069923-0.0509615,0.0084175
		C14.9841232,0.7546043,15.0033665,0.7654504,15.0202446,0.7619877z"/>
	<path fill="#32D7E4" d="M14.2695656,4.3988671c-0.0014019,0.0172324,0.0065956,0.0359325-0.0079832,0.0511069
		C14.2604704,4.4323487,14.2593985,4.4147305,14.2695656,4.3988671z"/>
	<path fill="#6DB3EC" d="M10.8602285,3.6100824c0.0007935,0.0178654-0.0011635,0.0341899-0.0222921,0.039773
		C10.8453655,3.6365976,10.8527975,3.6233399,10.8602285,3.6100824z"/>
	<path fill="#AC8CF5" d="M15.5875244,9.1705132c0.0175591,0.0009918,0.0363894-0.0068607,0.0520287,0.0074806
		C15.6216927,9.1791,15.6037378,9.1808586,15.5875244,9.1705132z"/>
	<path fill="#43CDE6" d="M21.6997681,5.5003095c-0.1127205,0.0263977-0.2246494,0.0566144-0.3400002,0.0703039
		c-0.0000801-0.0034676-0.0001621-0.0069394-0.0002441-0.0104113c0.0999928-0.0200143,0.1999836-0.0400286,0.2999763-0.0600424
		C21.6729488,5.4930029,21.6863728,5.4929037,21.6997681,5.5003095z"/>
	<path fill="#43CDE6" d="M21.6997681,5.5003095c-0.013422-0.0000496-0.0268459-0.0000992-0.0402679-0.0001497
		c0.0181961-0.0180407,0.0407829-0.0071034,0.0613918-0.0092845C21.7158794,5.4985504,21.7083416,5.5005918,21.6997681,5.5003095z"
		/>
	<path fill="#292929" d="M16.5894852,6.8410978c0.0237598,0.0755105,0.0370693,0.1532512,0.0493641,0.231216
		c0.0009022,0.0825534,0.0018082,0.1651001,0.0027122,0.2476459c0,0.0899854,0,0.1799703,0,0.2699556
		c0.025032,0.0843215,0.0207348,0.1674991-0.0097332,0.2496567c-0.0172501,0.1091099-0.0460796,0.2142611-0.1056175,0.3089151
		c-0.1335182,0.1786747-0.3240108,0.215807-0.5306149,0.2152081c-0.0901766-0.0002604-0.1783133-0.0127144-0.2656193-0.0336542
		c-0.1121788-0.0415592-0.204443-0.1086769-0.2698774-0.2102337c-0.039094-0.0758438-0.061759-0.1571736-0.0801191-0.2399406
		C15.3761024,7.78655,15.3722248,7.693234,15.3683453,7.5999174c0.000001-0.0833197,0.0000029-0.1666389,0.0000038-0.249959
		c-0.0225019-0.0800843-0.0237875-0.1600828,0.0009689-0.2399764c0.0110321-0.0803776,0.0172558-0.161572,0.0407124-0.23984
		c0.0342817-0.0762486,0.068306-0.1527567,0.1284294-0.2133217c0.0239267-0.0241017,0.0514355-0.0438552,0.0814886-0.059886
		c0.1322308-0.0756102,0.2761879-0.0951209,0.4255342-0.0891576c0.0181293,0.0007243,0.0363083,0.000196,0.0544662,0.000248
		c0.1223717,0.0157366,0.2389812,0.0473814,0.339674,0.1229858C16.5047932,6.6901875,16.5530701,6.7614117,16.5894852,6.8410978z"/>
	<path fill="#292929" d="M15.9102736,5.6689692c-0.1123095-0.0140872-0.2205706-0.0415311-0.3203087-0.0970879
		c-0.0744629-0.0567117-0.128562-0.1296105-0.169385-0.2130628c-0.0249281-0.0743771-0.0386209-0.1512098-0.0499773-0.2285528
		c-0.0007563-0.0933247-0.0015097-0.1866488-0.002264-0.2799735c0.0034819-0.096653,0.0069647-0.1933055,0.0104456-0.2899585
		c0.0226612-0.1287475,0.0619164-0.250277,0.1521101-0.349649c0.1376848-0.1264787,0.3059521-0.156477,0.4846334-0.1535416
		c0.0381393,0.0006266,0.0762749,0.0014958,0.1144123,0.0022535c0.0497189,0.0112896,0.1002522,0.0198593,0.1489887,0.0344338
		c0.1026058,0.030683,0.1846905,0.0919228,0.249052,0.1772156c0.0535431,0.0824008,0.0800972,0.1749058,0.1009331,0.2695513
		c0.004221,0.0699053,0.00844,0.1398101,0.0126591,0.2097154c-0.0000019,0.0665617-0.0000057,0.1331234-0.0000095,0.1996851
		c0.0216122,0.0569816,0.0233994,0.1137609-0.00173,0.1702681c-0.0101528,0.0595598-0.0203075,0.1191201-0.0304604,0.178678
		c-0.0304489,0.0807385-0.0697784,0.1562042-0.1301823,0.2191548c-0.1422443,0.124331-0.314045,0.1525555-0.4946575,0.152
		C15.9597788,5.6700225,15.9350271,5.6693606,15.9102736,5.6689692z"/>
	<path fill="#9799F2" d="M16.6318283,7.839572c0.0032444-0.0832191,0.0064888-0.1664376,0.0097332-0.2496562
		c0.1293011-0.0271792,0.2588062-0.0534353,0.3878632-0.0817389c0.230814-0.0506229,0.4614506-0.1020598,0.6918983-0.1543174
		c0.0305443-0.0069265,0.0391197,0.0030837,0.0386505,0.0315342c-0.0011253,0.0681844-0.00103,0.1363883-0.0014381,0.2045856
		c-0.1098061,0.023334-0.2197266,0.0460868-0.3293686,0.0701165c-0.2565422,0.0562239-0.5129604,0.1130238-0.7693806,0.1697984
		C16.6502228,7.8320107,16.6411381,7.8362975,16.6318283,7.839572z"/>
	<path fill="#83A6EF" d="M15.369318,7.109982c-0.0003233,0.0799923-0.0006466,0.1599846-0.0009689,0.2399764
		c-0.2336893,0.0507302-0.4674797,0.1010103-0.7010298,0.1523705c-0.1256418,0.0276303-0.2508297,0.0573111-0.376358,0.0854602
		c-0.0127411,0.0028572-0.0264215,0.0015287-0.0396547,0.0021415c-0.0003872-0.0649552,0.0015316-0.1300387-0.0020618-0.1948166
		c-0.0021067-0.0379505,0.0170174-0.0482445,0.0478621-0.0549574c0.2797194-0.060864,0.559166-0.1229815,0.839015-0.1832352
		C15.2136059,7.1402378,15.2895517,7.1154408,15.369318,7.109982z"/>
	<path fill="#4AC9E7" d="M16.6398335,5.120266c0.000576-0.056756,0.001152-0.113512,0.00173-0.1702681
		c0.1465054-0.033277,0.2929039-0.0670228,0.439537-0.0997214C17.30686,4.799933,17.5327797,4.750308,17.7586212,4.7003803
		c0.000391,0.031641,0.0010719,0.0632801,0.0011368,0.0949197c0.0001659,0.0796981,0.0004139,0.0812969-0.0772057,0.0986395
		c-0.3391247,0.0757723-0.6784687,0.1505685-1.0177879,0.2254729C16.6567802,5.1211753,16.648159,5.1200461,16.6398335,5.120266z"/>
</g>
</svg>
