<?xml version="1.0" encoding="utf-8"?>
<!-- Generator: Adobe Illustrator 24.1.1, SVG Export Plug-In . SVG Version: 6.00 Build 0)  -->
<svg version="1.1" id="Слой_1" xmlns="http://www.w3.org/2000/svg" xmlns:xlink="http://www.w3.org/1999/xlink" x="0px" y="0px"
	 viewBox="0 0 32 13" enable-background="new 0 0 32 13" xml:space="preserve" width="32px" height="13px">
<g>
	<path fill="#292929" d="M16.2554569,12.8081608c-0.1703033,0.0000029-0.3406076,0.0000048-0.510911,0.0000076
		c-0.0478563-0.0065069-0.0957623-0.0080957-0.1433859,0.0011883c-0.0133533,0.0026035-0.0264044,0.0035715-0.0395613,0.0014505
		c-0.1204462-0.0194149-0.2431173-0.0179272-0.3634205-0.0363464c-0.2104235-0.032218-0.4205198-0.0671463-0.6283283-0.1139069
		c-0.1103888-0.0248394-0.2209864-0.0492201-0.3289461-0.0837612l0.0011511,0.0007696
		c-0.0239601-0.0061588-0.0488262-0.0091248-0.0713692-0.0202742l0.0010509,0.0006256
		c-0.0234089-0.0076914-0.0488844-0.008481-0.0707922-0.0211878l0.0011539,0.0007763
		c-0.056838-0.0073328-0.1071005-0.0362492-0.1621723-0.0493813c-0.0299091-0.0096579-0.0598183-0.0193148-0.0897264-0.0289726
		c-0.0333176-0.0225735-0.0793362-0.0098953-0.1100693-0.0396442c-0.0100737-0.0037689-0.022933,0.0006809-0.0305462-0.0103493
		c-0.0157518-0.0083055-0.0349569-0.0078707-0.0493898-0.019515c-0.1216335-0.0401039-0.2382784-0.0926991-0.3554354-0.1437654
		c-0.0686235-0.0299139-0.1350346-0.0649099-0.2024403-0.097621c-0.0156212-0.0023346-0.029212-0.0093737-0.0420542-0.0181475
		c-0.0140438-0.0068474-0.0280886-0.0136948-0.0421314-0.0205421c-0.0216112-0.0053797-0.0426331-0.0119123-0.0579567-0.0296011
		c-0.2062693-0.1081915-0.4073572-0.2253819-0.6022701-0.3527927c-0.1513939-0.0989628-0.2998629-0.2023125-0.4393873-0.3178453
		c-0.0126638-0.0098534-0.0238066-0.0216885-0.0382051-0.0292778c-0.238965-0.1884718-0.4610367-0.3957195-0.6688213-0.6174831
		c-0.1732712-0.1849279-0.3380556-0.3773031-0.4885101-0.5822601c-0.1149464-0.1565847-0.2231112-0.3174219-0.3247938-0.4822731
		c-0.0713387-0.1156521-0.134861-0.2365503-0.199934-0.3562374c-0.0810862-0.1491365-0.1524801-0.3025789-0.2177973-0.4586506
		c-0.0652876-0.156002-0.1230268-0.315052-0.1778231-0.4753819C9.7400827,8.2247391,9.6895275,8.0384674,9.6438904,7.8513741
		C9.6131773,7.7254648,9.5917568,7.5962973,9.5704832,7.4676557c-0.0181036-0.1094689-0.0264091-0.2202692-0.048481-0.329165
		C9.5169878,7.1137519,9.5249214,7.0859241,9.5187159,7.0597305C9.5104179,7.0396113,9.5211763,7.0172062,9.5112238,6.9972858
		C9.510416,6.9814429,9.5096073,6.9656005,9.5087996,6.9497571C9.5003281,6.9255419,9.5109873,6.8994293,9.5014133,6.8753233
		c-0.0008945-0.0251832-0.00179-0.0503664-0.0026855-0.0755496C9.4893742,6.7622852,9.5022221,6.7233629,9.4913807,6.6859703
		C9.4913778,6.5253325,9.491375,6.3646946,9.4913721,6.2040567c0.0108576-0.0373964-0.0020018-0.0763245,0.0073557-0.1138182
		c0.0008945-0.0251842,0.0017881-0.0503688,0.0026817-0.0755529c0.0095825-0.0241041-0.0010834-0.0502181,0.00739-0.0744324
		c0.0008078-0.0158443,0.0016146-0.0316877,0.0024223-0.0475321c0.0099564-0.019918-0.0008039-0.0423217,0.007494-0.0624394
		c0.0105963-0.1013184,0.015749-0.203578,0.033062-0.3037357c0.0262432-0.151823,0.052597-0.3036604,0.0876808-0.4540849
		c0.0433941-0.1860609,0.0920687-0.3701568,0.1505671-0.5520697c0.0552902-0.1719403,0.1158361-0.3421097,0.1872845-0.5074916
		c0.0683279-0.1581557,0.139348-0.3153181,0.2224121-0.4673109c0.1216354-0.2225716,0.2472124-0.4424033,0.3915434-0.6508322
		c0.1254692-0.1811883,0.2592239-0.3557835,0.4036036-0.5232794c0.1590891-0.184557,0.3255367-0.3612666,0.5019455-0.5284898
		c0.1397762-0.1324984,0.2844362-0.2601061,0.4406509-0.3736683c0.0118895-0.0086428,0.0219622-0.019781,0.0328789-0.0297594
		c0.0147743-0.0071295,0.025692-0.0194429,0.0387726-0.0288497c0.1554995-0.1191831,0.3156233-0.2323116,0.4828444-0.3338956
		c0.4818907-0.2927415,0.9901257-0.5290118,1.5293941-0.6963915c0.7041149-0.2185445,1.4251299-0.3197993,2.1616602-0.296862
		c1.2844086,0.0399994,2.4635429,0.4123962,3.529089,1.135039c0.0927811,0.062923,0.1837082,0.1285753,0.2754955,0.1929595
		c0.0161915,0.0074185,0.0290756,0.0191358,0.0412807,0.0317369c0.0123768,0.0179665,0.0289593,0.0304675,0.0493717,0.0379959
		c0.015295,0.0086342,0.0292091,0.0189761,0.0403976,0.0326846c0.1038532,0.0950266,0.2144623,0.1821792,0.3183975,0.2773131
		c0.1364384,0.1248865,0.2672482,0.2553217,0.3937054,0.3898051c0.1519833,0.1616256,0.2926788,0.3332274,0.4254665,0.5112419
		c0.2456665,0.3293393,0.4593658,0.6780434,0.6367016,1.048677c0.2010078,0.4201097,0.3561649,0.8561554,0.4577827,1.3113279
		c0.0527363,0.2362137,0.0955276,0.4736347,0.1192493,0.7144918c0.0021,0.0213203,0.0074749,0.0423183,0.0113297,0.0634661
		c0.0083313,0.0200653-0.0025196,0.0424461,0.0075188,0.0623055c0.0007992,0.0158882,0.0015965,0.0317764,0.0023918,0.0476646
		c0.008482,0.0242019-0.0021801,0.0503011,0.0073776,0.0743957c0.0008945,0.0251951,0.0017872,0.0503898,0.0026817,0.0755854
		c0.009409,0.0374236-0.0035095,0.0762939,0.0073624,0.1136231c0.0000057,0.1607432,0.0000095,0.3214865,0.0000153,0.4822292
		c-0.0108986,0.0373378,0.0020332,0.0762219-0.0073776,0.1136565c-0.0008907,0.0251923-0.0017796,0.050384-0.0026703,0.0755763
		c-0.009573,0.0241013,0.0010834,0.0502081-0.0073757,0.07442c-0.0007992,0.0158834-0.0016003,0.0317659-0.0023994,0.0476494
		c-0.010046,0.0198593,0.0008068,0.0422411-0.0075245,0.0623074c-0.0407448,0.3333025-0.093708,0.6642284-0.1812134,0.9891143
		c-0.1202984,0.446641-0.2850933,0.8757315-0.5000362,1.2853479c-0.1864204,0.3552599-0.4046783,0.6894846-0.6532383,1.0048885
		c-0.2072773,0.2630243-0.4371643,0.5042639-0.6801758,0.7333393c-0.1119328,0.1055117-0.2317333,0.2026787-0.3479652,0.303628
		c-0.0111923,0.0137138-0.0251102,0.0240593-0.040411,0.0326958c-0.0990372,0.0714064-0.1977787,0.1432276-0.2971725,0.2141342
		c-0.2414665,0.1722584-0.4957581,0.3231554-0.7594833,0.4588175c-0.211977,0.1090422-0.4291306,0.2059174-0.6518955,0.2905197
		c-0.0106354,0.0040407-0.0199547,0.0115499-0.0298862,0.0174417c-0.0159283,0.0120039-0.0354156,0.0135288-0.0538082,0.0182743
		c-0.0117016-0.002882-0.0179119,0.0066175-0.0261288,0.01159c-0.0328999,0.0288811-0.07827,0.0204573-0.1148319,0.0383797
		c-0.0292168,0.0075693-0.0587845,0.0141468-0.0849686,0.0302362c-0.0550709,0.0131378-0.105341,0.0420494-0.1621799,0.0493784
		l0.0011635-0.0007782c-0.0219002,0.0127239-0.0473843,0.0134869-0.0707836,0.0212049l0.0010548-0.0006123
		c-0.0225563,0.0110931-0.0474129,0.0140972-0.0713692,0.0202608l0.0011559-0.0007591
		c-0.1622124,0.0485296-0.3275146,0.0837975-0.4932213,0.1180077c-0.09729,0.0200882-0.1955452,0.0351162-0.2930088,0.0538216
		c-0.0654278,0.012558-0.1331615,0.0230684-0.2007599,0.0269508c-0.0393066,0.0022583-0.0784111,0.0081511-0.1174965,0.0116987
		c-0.1132126,0.0102768-0.2257118,0.0262442-0.339901,0.0170584C16.2951756,12.8027782,16.2747898,12.8006496,16.2554569,12.8081608
		z"/>
	<path fill="#FEFEFE" d="M14.2409039,12.5767927c0.169796,0.0386457,0.3382807,0.0826635,0.5097151,0.1145773
		c0.3125992,0.0581894,0.6271496,0.0973625,0.9449291,0.1101437c0.0163774,0.000658,0.03263,0.0043573,0.0489693,0.0066471
		c-0.0543337,0.0060568-0.1095285-0.0087767-0.1629934,0.0255356c-0.0255089,0.0163689-0.0719423,0.0189991-0.09869-0.0191355
		c-0.0139313-0.0198612-0.0288906-0.0193462-0.0451527-0.0027456c-0.0034218,0.0034914-0.0078402,0.0060816-0.0120173,0.0087461
		c-0.0401754,0.0256252-0.0675592-0.0273438-0.0880003-0.0223236c-0.0307245,0.0075464-0.0542049,0.0367441-0.0830603-0.0013218
		c-0.0049057-0.0064697-0.0129652-0.0187464-0.0177832-0.0133781c-0.0500488,0.0557833-0.082737-0.0275974-0.1269436-0.0151482
		c-0.00313,0.0008831-0.0099726-0.0079575-0.011919-0.0068264c-0.0867596,0.0504398-0.1521196-0.0315371-0.23102-0.0394888
		c-0.1960306-0.0197582-0.3869038-0.0749035-0.5782022-0.1232395
		C14.2716894,12.5945292,14.2521458,12.5942698,14.2409039,12.5767927z"/>
	<path fill="#FEFEFE" d="M16.2554569,12.8081608c0.1175041-0.0091257,0.2350807-0.0174007,0.3524971-0.0275326
		c0.3765087-0.0324879,0.7470284-0.0991545,1.1121292-0.1964159c0.0127602-0.0033979,0.0260048-0.0049677,0.0390263-0.0073938
		c-0.02981,0.0279293-0.0702114,0.0248871-0.1057835,0.0357046c-0.1500473,0.0456314-0.3052635,0.0699854-0.4574738,0.1068354
		c-0.059824,0.0144835-0.1239891,0.0178947-0.1854591,0.0331764c-0.0155067,0.0038557-0.0204296,0.013072-0.0303974,0.0196457
		c-0.0107822,0.0071125-0.024065,0.020792-0.0354176,0.0119505c-0.0477753-0.0372019-0.0829792,0.0006151-0.1261692,0.0102777
		c-0.0385914,0.0086317-0.0857353,0.0259943-0.1186924,0.018795c-0.0343304-0.0074978-0.0543938-0.01402-0.0777702,0.0130796
		c-0.0024643,0.0028563-0.010685,0.0040913-0.0141602,0.0022221c-0.0462475-0.024868-0.0867367-0.0210218-0.1330147,0.0079594
		c-0.0220203,0.0137882-0.0580807,0.002429-0.0880203-0.0172834C16.3482475,12.7938232,16.2993565,12.8146057,16.2554569,12.8081608
		z"/>
	<path fill="#FEFEFE" d="M13.7401304,12.4195042c0.0387383,0.0075312,0.0766687,0.0172997,0.1100693,0.0396442
		c-0.0255117-0.0001793-0.0492153-0.0116425-0.076993-0.0018311C13.7431326,12.4679422,13.7384443,12.4435692,13.7401304,12.4195042
		z"/>
	<path fill="#FEFEFE" d="M18.1450367,12.4578838c0.0366287-0.0177269,0.0746498-0.0312834,0.1148319-0.0383797
		c0.0038452,0.0334606-0.0118866,0.0491571-0.0426426,0.0362215C18.191,12.4446945,18.1690693,12.4643755,18.1450367,12.4578838z"/>
	<path fill="#FEFEFE" d="M13.9399261,12.4881201c0.0561399,0.0096159,0.1093836,0.028738,0.1621656,0.049387
		C14.0390682,12.5505028,13.9936142,12.5057907,13.9399261,12.4881201z"/>
	<path fill="#FEFEFE" d="M17.8978882,12.5374985c0.0527954-0.0206108,0.1060333-0.0397682,0.1621799-0.0493784
		C18.0063763,12.5057907,17.9609241,12.5505142,17.8978882,12.5374985z"/>
	<path fill="#FEFEFE" d="M12.9601765,12.0799627c0.0230865,0.002491,0.0426254,0.0119295,0.0579567,0.0296011
		C12.986867,12.1230869,12.9575176,12.1328516,12.9601765,12.0799627z"/>
	<path fill="#FCFCFC" d="M22.5086155,6.2038741c-0.009758-0.0374012-0.0080318-0.0755467-0.0073624-0.1136231
		C22.5183239,6.1271782,22.5067577,6.1659608,22.5086155,6.2038741z"/>
	<path fill="#FCFCFC" d="M9.4987278,6.0902386C9.4993391,6.1283607,9.5012264,6.1665659,9.491374,6.2040348
		C9.4931984,6.1660771,9.4817228,6.1272378,9.4987278,6.0902386z"/>
	<path fill="#FCFCFC" d="M9.4913807,6.6859703C9.5011978,6.7234292,9.499342,6.7616415,9.4987278,6.7997737
		C9.4817305,6.7627783,9.4931879,6.7239466,9.4913807,6.6859703z"/>
	<path fill="#FCFCFC" d="M22.5012531,6.7997599c-0.0006638-0.038075-0.0024052-0.0762196,0.0073776-0.113637
		C22.5067406,6.7240257,22.5183334,6.7628236,22.5012531,6.7997599z"/>
	<path fill="#FEFEFE" d="M13.6601944,12.3896399c0.0188065,0.000577,0.0362034,0.0047188,0.0493898,0.019515
		C13.6871901,12.4176617,13.6702623,12.4123316,13.6601944,12.3896399z"/>
	<path fill="#FEFEFE" d="M18.2859974,12.4079142c0.0165539-0.0101595,0.0336781-0.0186424,0.0538082-0.0182743
		C18.3288269,12.4162159,18.3084259,12.4150505,18.2859974,12.4079142z"/>
	<path fill="#FEFEFE" d="M14.1009445,12.536726c0.0247593,0.0031729,0.0488443,0.0086002,0.0707874,0.0211897
		C14.1452951,12.5603504,14.1204014,12.5576191,14.1009445,12.536726z"/>
	<path fill="#FEFEFE" d="M17.8282681,12.5579252c0.0219479-0.0125608,0.0460148-0.0180473,0.0707817-0.0212002
		C17.8796024,12.55762,17.8547039,12.5603361,17.8282681,12.5579252z"/>
	<path fill="#FEFEFE" d="M14.1706858,12.5572882c0.0250072,0.0024633,0.049139,0.0080042,0.0713615,0.0202799
		C14.2154026,12.5808802,14.1907234,12.5772486,14.1706858,12.5572882z"/>
	<path fill="#FEFEFE" d="M17.7579536,12.5775738c0.0222969-0.0120039,0.0463181-0.0179396,0.0713692-0.0202579
		C17.8092728,12.5772409,17.7845993,12.5808802,17.7579536,12.5775738z"/>
	<path fill="#FCFCFC" d="M9.5014133,6.8753233c0.0099554,0.0240674,0.0082483,0.049293,0.0073862,0.0744338
		C9.4924154,6.9263272,9.503027,6.900219,9.5014133,6.8753233z"/>
	<path fill="#FCFCFC" d="M22.4912071,6.9497561C22.490345,6.9246373,22.4886875,6.8994398,22.498579,6.875361
		C22.4969749,6.9002271,22.507597,6.9263306,22.4912071,6.9497561z"/>
	<path fill="#FCFCFC" d="M22.4985752,6.0146656c-0.009882-0.0240631-0.0082207-0.0492697-0.0073776-0.0743957
		C22.5076103,5.963685,22.4969749,5.9897819,22.4985752,6.0146656z"/>
	<path fill="#FCFCFC" d="M9.5087996,5.9402533c0.0008659,0.0251241,0.0025692,0.0503311-0.0073843,0.0744081
		C9.5030289,5.9897909,9.4924145,5.9636822,9.5087996,5.9402533z"/>
	<path fill="#FCFCFC" d="M22.4812832,7.0597129c-0.0013313-0.0212293-0.0011501-0.0422759,0.0075245-0.0623026
		C22.4874897,7.0183182,22.4966316,7.040494,22.4812832,7.0597129z"/>
	<path fill="#FCFCFC" d="M22.4888039,5.8926053c-0.0086708-0.0200248-0.0088463-0.0410752-0.0075207-0.0623064
		C22.4966297,5.8495188,22.4874935,5.8716927,22.4888039,5.8926053z"/>
	<path fill="#FCFCFC" d="M9.5187159,5.8302817C9.5200567,5.851552,9.5199347,5.8726463,9.5112209,5.8927155
		C9.5125074,5.8717628,9.5033712,5.8495536,9.5187159,5.8302817z"/>
	<path fill="#FCFCFC" d="M12.0091171,1.4107101c-0.0076437,0.0167123-0.0204563,0.0264783-0.0387726,0.0288498
		C11.9794788,1.4248511,11.989747,1.4116642,12.0091171,1.4107101z"/>
	<path fill="#FCFCFC" d="M11.8803139,11.3800468c0.0186205,0.0020809,0.0303984,0.0130892,0.0382051,0.0292778
		C11.899332,11.4079838,11.8891296,11.3949175,11.8803139,11.3800468z"/>
	<path fill="#FCFCFC" d="M20.0782433,11.4087267c0.0134697-0.0108976,0.0269394-0.0217972,0.040411-0.0326958
		C20.1126995,11.3962173,20.1002903,11.4084282,20.0782433,11.4087267z"/>
	<path fill="#FCFCFC" d="M20.0288811,1.4432964c-0.0137615-0.0105791-0.0275192-0.021158-0.0412807-0.0317371
		C20.0098896,1.4110476,20.0221004,1.4236404,20.0288811,1.4432964z"/>
	<path fill="#FEFEFE" d="M13.0602646,12.130106c0.017334-0.0016346,0.029726,0.0081835,0.0420542,0.0181475
		C13.0799446,12.1615639,13.0699558,12.1461773,13.0602646,12.130106z"/>
	<path fill="#FCFCFC" d="M20.1186504,1.5139769c-0.0134659-0.0108949-0.0269318-0.0217898-0.0403976-0.0326846
		C20.100296,1.4815875,20.1126995,1.4937959,20.1186504,1.5139769z"/>
	<path fill="#FCFCFC" d="M9.5112228,6.9972858c0.0087233,0.0200682,0.0088005,0.0411735,0.007493,0.0624447
		C9.5033712,7.0404568,9.5125074,7.0182467,9.5112228,6.9972858z"/>
	<path fill="#F9B879" d="M17.3799191,0.8403335c0.2277355,0.0499538,0.4499664,0.1185166,0.6687584,0.1985206
		c0.1803932,0.0659633,0.3567524,0.1410549,0.5304337,0.2235292c0.313097,0.1486771,0.6090698,0.3261297,0.8949928,0.5207587
		c0.1325493,0.0902259,0.2558689,0.1928552,0.3791256,0.2956271c0.1597538,0.1332002,0.3088722,0.2773182,0.4528255,0.4267349
		c0.1815186,0.18841,0.353672,0.384758,0.505928,0.5985813c0.1422272,0.199743,0.2710438,0.4070861,0.3925133,0.6199629
		c0.1887589,0.3308032,0.3287067,0.6816204,0.4455223,1.042659c0.0831318,0.2569304,0.1422291,0.5199704,0.1855125,0.7860246
		c0.0221748,0.1362939,0.0324326,0.2747974,0.0468674,0.412436c0.0269661,0.257143,0.0124073,0.5144587,0.0165863,0.7716556
		c0.0005054,0.0309772-0.0069141,0.0620823-0.0106602,0.0931277c-0.0357285,0.0196257-0.0471745-0.012289-0.0616817-0.0314064
		c-0.1186714-0.156405-0.2373219-0.3128328-0.3557549-0.4694214c-0.3171616-0.4193435-0.6323776-0.8401556-0.9508705-1.2584934
		c-0.0132236-0.0173693-0.0255871-0.0350547-0.0483093-0.0408759c-0.0539742-0.1518512-0.105154-0.3046827-0.1692028-0.4528399
		c-0.1298428-0.3003473-0.2942009-0.5808668-0.481741-0.8484385c-0.1735344-0.2475889-0.3784752-0.4677544-0.5959225-0.6761463
		c-0.1691799-0.1621325-0.3512383-0.309602-0.5452976-0.4416375c-0.1322975-0.1774764-0.2648678-0.3547566-0.3985767-0.5311661
		c-0.2384205-0.3145605-0.4765301-0.6293519-0.7134933-0.9450119c-0.0579777-0.0772324-0.1201096-0.1513799-0.1736965-0.231846
		C17.3816776,0.8844977,17.3608418,0.8662823,17.3799191,0.8403335z"/>
	<path fill="#818181" d="M21.6616993,8.0616264c-0.004694,0.0793962-0.0423832,0.1491652-0.066082,0.2228889
		C21.528511,8.4932537,21.444149,8.69557,21.3497086,8.8929892c-0.0938568,0.1962013-0.2028522,0.3847713-0.3181629,0.5693779
		c-0.1299515,0.2080498-0.2710686,0.4086838-0.4287109,0.5962877c-0.130209,0.1549568-0.2683849,0.3033304-0.4131241,0.4455395
		c-0.1327438,0.1304207-0.2714558,0.253746-0.4135666,0.3735666c-0.0290337,0.0244827-0.048233,0.0371056-0.0810719-0.0045252
		c-0.2420845-0.3069096-0.4874973-0.6111946-0.732708-0.9156256c-0.0155392-0.0192919-0.0198803-0.0303555,0.0020123-0.0471487
		c0.1706657-0.1309137,0.324688-0.280324,0.4721889-0.436039c0.1945724-0.2054005,0.3682404-0.4274254,0.5201187-0.6668081
		c0.1724205-0.2717581,0.3176727-0.5566015,0.4312534-0.857657c0.0537891,0.0213304,0.1115341,0.0182872,0.1670494,0.021163
		c0.1772137,0.0091796,0.3541927,0.0217886,0.5311508,0.0341439c0.1752872,0.0122375,0.3508797,0.0207195,0.5257568,0.0385504
		C21.6297264,8.0456314,21.6489811,8.0448923,21.6616993,8.0616264z"/>
	<path fill="#FA9795" d="M11.6702986,8.0796556c0.0618334,0.1303177,0.1164103,0.2639198,0.1857853,0.3908529
		c0.1676769,0.3067942,0.3560972,0.5988655,0.5891333,0.8609838c0.1856947,0.2088728,0.3816986,0.4067583,0.6013937,0.580163
		c0.0193548,0.0152769,0.0179234,0.0247345,0.0032139,0.043045c-0.1448565,0.1803083-0.285697,0.3639536-0.4346037,0.540822
		c-0.0408306,0.0484972-0.0839701,0.0966387-0.1279984,0.143157c-0.0321198,0.0000315-0.0442963-0.0263367-0.0596752-0.0468531
		c-0.191885-0.2559814-0.3859091-0.5103483-0.578228-0.7660036c-0.0991564-0.1318102-0.1987152-0.2633324-0.2983303-0.394804
		c-0.0113144-0.0149317-0.0188684-0.0379705-0.0459318-0.0287437c-0.0048618-0.0008154-0.0084696-0.0033693-0.0109262-0.0076132
		c0.002984-0.04175-0.0218019-0.0701799-0.045188-0.1008291c-0.2482042-0.3252831-0.4930515-0.6531191-0.7406969-0.9788189
		c-0.1529999-0.2012262-0.3013935-0.4059429-0.4580116-0.6044188c-0.0030956-0.003922-0.0066538-0.0074286-0.0103693-0.0107679
		c-0.031147-0.1019225-0.0506649-0.2067666-0.0667248-0.3115191c-0.0303936-0.1982641-0.0523787-0.3975177-0.0650177-0.5981607
		c-0.0133829-0.2124805-0.0026588-0.4246664-0.0070782-0.6369224c-0.0006437-0.0308881,0.0068836-0.0619464,0.0106297-0.0929255
		c0.0393963,0.0018072,0.0543985,0.0347185,0.0734997,0.0602522c0.2106028,0.2815437,0.4233761,0.5614514,0.6351757,0.8420901
		c0.2700157,0.3577785,0.5406332,0.7151017,0.8102102,1.0732126C11.6423435,8.0515089,11.6508951,8.0706835,11.6702986,8.0796556z"
		/>
	<path fill="#FA9B92" d="M11.6702986,8.0796556c-0.0292892,0.0013714-0.0408058-0.0238628-0.0538492-0.0411444
		c-0.2371845-0.3142514-0.4727707-0.6297092-0.7095051-0.9443026c-0.2466822-0.3278136-0.4940615-0.6551032-0.7418013-0.9821181
		c-0.0148077-0.0195475-0.0355091-0.0346313-0.0534687-0.0517912c-0.0016346-0.1073065,0.0160027-0.2131767,0.0275078-0.3192186
		c0.0244408-0.2253098,0.0687532-0.4475722,0.1237793-0.6673112c0.0716696-0.286202,0.1679354-0.5644917,0.2801847-0.8372717
		c0.0011215-0.0027275,0.0046091-0.0044818,0.0069923-0.006691c0.0393934,0.0384703,0.0695887,0.0845037,0.102354,0.1281223
		c0.2397985,0.3192377,0.4822979,0.6364393,0.7211208,0.9564099c0.0189619,0.0254049,0.0376701,0.0509663,0.0670052,0.0657544
		c-0.0036469,0.089674-0.0324736,0.1750317-0.0450134,0.2633185c-0.0204792,0.1441855-0.0353813,0.288691-0.0471525,0.4338608
		C11.337121,6.217,11.3411245,6.3565345,11.3423758,6.4960194c0.0022726,0.2536392,0.0331268,0.5045776,0.0814753,0.7536316
		c0.0206232,0.1062403,0.0387573,0.2130423,0.0689993,0.3169498C11.5434628,7.7404914,11.6017971,7.9118724,11.6702986,8.0796556z"
		/>
	<path fill="#FAB57C" d="M21.6616993,8.0616264c-0.1636639-0.0106888-0.3274841-0.0194559-0.4909554-0.0325489
		c-0.2048168-0.0164051-0.4096832-0.0310044-0.6149235-0.0412273c-0.0428066-0.0021319-0.0857258-0.0085793-0.1288719-0.0087566
		c-0.0208664-0.0000863-0.035759-0.0063763-0.0390053-0.0291514c0.1018791-0.2808614,0.1814213-0.5678034,0.2279263-0.8631282
		c0.0223427-0.1418943,0.0350628-0.2849951,0.0458241-0.4284387c0.0108414-0.1445446,0.0087376-0.2889514,0.0057011-0.4331346
		c-0.008007-0.3804345-0.0669842-0.7535763-0.1753559-1.1186476c-0.0075359-0.0253873-0.013588-0.0512152-0.0203304-0.0768385
		c0.0198326-0.0271435,0.0308876-0.00318,0.0400314,0.0088511c0.1253185,0.1648908,0.2499504,0.3303051,0.3746624,0.4956584
		c0.2324505,0.308198,0.4647007,0.6165495,0.6973362,0.9246078c0.0868683,0.1150346,0.1750431,0.2290878,0.2614021,0.344501
		c0.0118713,0.0158672,0.0216846,0.0290976,0.0431843,0.0265784c-0.0087624,0.1067219-0.0143337,0.2138219-0.0269585,0.3200846
		c-0.0250187,0.2105551-0.0644646,0.4187584-0.1149044,0.6247005C21.7227364,7.8716016,21.7041893,7.9702153,21.6616993,8.0616264z"
		/>
	<path fill="#FAB57C" d="M17.3799191,0.8403335c0.0066853,0.0546489,0.0472736,0.0903102,0.0772877,0.130392
		c0.2650795,0.3539948,0.531683,0.7068504,0.798624,1.059448c0.1319695,0.1743157,0.2661209,0.346983,0.3975811,0.5216794
		c0.0121059,0.016089,0.0360374,0.0312316,0.0261326,0.0588388c-0.0811253-0.0500584-0.1617374-0.1009712-0.2434635-0.1500285
		c-0.3594341-0.2157569-0.7393665-0.3847907-1.1432133-0.4987909c-0.2502899-0.0706531-0.5047398-0.1204287-0.7631035-0.1502091
		c-0.0208111-0.0083982-0.0404263-0.014942-0.0559387-0.0356572c-0.2490273-0.3325422-0.5001621-0.6635022-0.7497683-0.9956138
		c-0.0165186-0.0219793-0.048317-0.0454403-0.0356236-0.0720822c0.0134764-0.0282855,0.0510588-0.0106122,0.0776005-0.0116262
		c0.10112-0.0038633,0.2024403,0.0035924,0.3035688-0.0039782c0.2023411-0.0049263,0.4037342,0.0012648,0.6054306,0.0246156
		C16.9126873,0.7448349,17.1476307,0.7839784,17.3799191,0.8403335z"/>
	<path fill="#FAA08D" d="M11.4406185,5.3800936c-0.0191441,0.0135574-0.0283861,0.0015841-0.0394621-0.0130506
		c-0.0890121-0.1176152-0.1790762-0.2344351-0.2681389-0.3520136c-0.1830997-0.2417288-0.3658304-0.4837389-0.5485191-0.7257781
		c-0.0138206-0.018312-0.0307417-0.0351162-0.0343599-0.0594444c0.0625839-0.1640735,0.1404171-0.3210392,0.2260132-0.4739885
		c0.0726738-0.1298611,0.1466017-0.2591436,0.2283115-0.3837023c0.058672-0.0894372,0.114109-0.1811638,0.1848879-0.2620628
		c0.0307379-0.00559,0.0383854,0.0215583,0.0513582,0.0384219c0.1408863,0.183151,0.2783041,0.3689463,0.4185867,0.5525446
		c0.0948477,0.1241326,0.185668,0.2513647,0.2846479,0.3723359c0.0042906,0.0052428,0.0070553,0.0111985,0.0083818,0.0178323
		c-0.1118355,0.2018886-0.2176962,0.4064326-0.3003263,0.6226521c-0.0741806,0.1941056-0.1384115,0.3910313-0.1888046,0.5925651
		C11.4569721,5.3312936,11.4482059,5.355546,11.4406185,5.3800936z"/>
	<path fill="#FB7DAC" d="M15.680172,8.3296747c0.1396284,0.0375013,0.2810383,0.0416956,0.4238777,0.0239067
		c0.1525574-0.0190001,0.2772236-0.0846167,0.3643723-0.214385c0.0488396-0.0233603,0.1029835-0.0252304,0.1546097-0.0365105
		c0.3303204-0.0721703,0.6599445-0.1474862,0.9905224-0.2184715c0.0146637-0.003149,0.0293331-0.0071468,0.0444431-0.0047688
		c0.0189991,0.0029898,0.0321007,0.0107555,0.022953,0.0334163c-0.0153179,0.2156086-0.0685196,0.420042-0.1792393,0.6075077
		c-0.1147118,0.0354252-0.2329617,0.0559559-0.3498478,0.0820198c-0.6454315,0.1439266-1.2915707,0.2846546-1.9370356,0.4284325
		c-0.029213,0.0065069-0.058835,0.0122299-0.0847559,0.0286665c-0.2504902-0.0927286-0.4568262-0.2423153-0.6035728-0.4686375
		c0.0157032-0.0236788,0.0421591-0.0252352,0.0659752-0.0305901c0.3429375-0.0770912,0.6864967-0.1513834,1.0295105-0.2281389
		C15.6410608,8.3278532,15.6604481,8.3224201,15.680172,8.3296747z"/>
	<path fill="#F9C56D" d="M14.2888689,4.476244c0.0164766-0.2104063,0.0755396-0.4072137,0.1875229-0.5871212
		c0.0325079-0.018836,0.0695829-0.0224049,0.1051331-0.0302432c0.7336912-0.1617665,1.4676905-0.3221388,2.2007799-0.4866319
		c0.0159187-0.0035722,0.0337715-0.000489,0.0477085-0.0120666c0.1645985,0.0508862,0.3069592,0.1406782,0.4357548,0.2527432
		c0.0702457,0.0611198,0.1345177,0.1284027,0.1835194,0.2086475c-0.0070133,0.0326116-0.0368938,0.0297894-0.0589161,0.0350897
		c-0.174509,0.0419972-0.3502445,0.0786264-0.5253811,0.1179082c-0.2010021,0.045084-0.4033031,0.0844698-0.602541,0.1373386
		c-0.068037-0.0049891-0.133688-0.0242543-0.2018909-0.0313282c-0.0963602-0.0099945-0.1893206,0.0018167-0.2823668,0.0200167
		c-0.0957317,0.0187244-0.1781187,0.063921-0.245615,0.1350417c-0.0092802,0.009779-0.0187426,0.0190206-0.0326891,0.0216966
		c-0.077507,0.0014138-0.1506481,0.0266309-0.2254028,0.0424056c-0.3081055,0.0650182-0.6146402,0.1372533-0.922761,0.202251
		c-0.0130348,0.0027494-0.0259495,0.0069499-0.0393658,0.0063329C14.291831,4.5073819,14.2806101,4.4987059,14.2888689,4.476244z"/>
	<path fill="#FA9597" d="M11.5003748,9.3997068c0.0130749-0.029973,0.0265598-0.0234938,0.042717-0.0017233
		c0.0819073,0.110363,0.1639967,0.2205954,0.246664,0.3303909c0.2190905,0.2909832,0.4384089,0.5817957,0.6581001,0.872324
		c0.0108652,0.0143671,0.026144,0.0253973,0.0393667,0.037981c-0.0656528,0.0837278-0.1318636,0.1670303-0.1965494,0.2514992
		c-0.015377,0.0200806-0.0245428,0.0169067-0.0433197,0.0034084c-0.0766287-0.0550861-0.1451263-0.1197376-0.2160006-0.1813898
		c-0.1305351-0.113554-0.2523479-0.2366333-0.3712702-0.3620358c-0.1681223-0.1772823-0.327424-0.3620358-0.4706163-0.5609484
		c-0.1898365-0.2637062-0.3587141-0.5399027-0.5047493-0.829505c-0.1444883-0.2865362-0.2599926-0.5850849-0.3502293-0.8935719
		c-0.0332184-0.1135612-0.0668974-0.2267976-0.0931988-0.3421493c-0.0017691-0.0077577-0.0010071-0.0160933-0.0014238-0.0241599
		c0.056448,0.0179782,0.0746222,0.0731096,0.1055431,0.1138358c0.2283239,0.3007207,0.4536228,0.6037354,0.6806965,0.9054074
		c0.1453972,0.193161,0.2910261,0.3861771,0.439496,0.5769663c0.0255747,0.0328646,0.0491352,0.0600758,0.0345573,0.1034822
		c-0.0073566,0.0221653-0.0129871,0.0447969-0.0182486,0.067502c-0.0099525,0.0176544-0.0086756,0.038147-0.0144472,0.0482998
		c0.0000029-0.0105362,0.0090771-0.027544,0.0128622-0.0458202C11.4892225,9.4468441,11.4918518,9.4224291,11.5003748,9.3997068z"/>
	<path fill="#FAA38B" d="M11.9523258,4.091188c-0.0721598-0.057991-0.1163607-0.1389873-0.1712942-0.2108493
		c-0.1908121-0.2496176-0.3791437-0.501132-0.5687504-0.7516739c-0.0057688-0.0076225-0.0152044-0.0124698-0.0229301-0.0186112
		c0.0329342-0.0746744,0.090168-0.1327732,0.139986-0.194706c0.1902151-0.236479,0.4016628-0.4537497,0.6195087-0.6647813
		c0.005599-0.0054238,0.0139713-0.0079827,0.0210514-0.0118775c0.0040216,0.0062408,0.0046101,0.0142381-0.0002174,0.0184639
		c-0.0430679,0.0377011-0.0226955,0.0677159,0.0052919,0.104908c0.1939697,0.2577639,0.3897371,0.5141714,0.5829496,0.7725012
		c0.0199099,0.0266187,0.0421162,0.0511427,0.0636311,0.0763266c-0.1042719,0.1177738-0.2146254,0.2302995-0.3107729,0.355087
		c-0.1245623,0.1616642-0.2425146,0.3279214-0.3428612,0.5060589C11.9639368,4.0791035,11.9575768,4.0848341,11.9523258,4.091188z"
		/>
	<path fill="#FAB17F" d="M16.069603,0.6927059c-0.0415649,0.0170835-0.0849838,0.0063584-0.1274605,0.0075907
		c-0.0680809,0.0019751-0.1362658,0.0001171-0.2043953,0.0008697c-0.0140467,0.0001552-0.033247-0.0079386-0.041132,0.0076593
		c-0.0076752,0.0151822,0.0095758,0.027229,0.0176516,0.0380226c0.0861406,0.1151374,0.1739597,0.2290168,0.2605133,0.3438478
		c0.171113,0.2270166,0.3419161,0.4542677,0.5121145,0.68197c0.0121784,0.0162941,0.0280075,0.0266618,0.0428696,0.0389971
		c-0.2812576-0.0322151-0.5636358-0.0174389-0.8455143-0.0173564c-0.1034727,0.0000303-0.2069426,0.0178552-0.3104124,0.027563
		c-0.0246286,0.0097029-0.0403767-0.0011415-0.0548811-0.0208182c-0.2223177-0.3016142-0.4523716-0.5974184-0.6749868-0.8988066
		c-0.0130997-0.0177364-0.0329876-0.0347705-0.0239849-0.0619065c0.1384869-0.0356637,0.2787371-0.0633553,0.4196739-0.0865991
		c0.3344364-0.0551563,0.6714811-0.0723824,1.0100698-0.0626841C16.0563641,0.6912451,16.0629787,0.6921399,16.069603,0.6927059z"/>
	<path fill="#FA9993" d="M16.5716267,6.7199469C16.571064,6.685307,16.5707569,6.6506591,16.569767,6.6160316
		c-0.0002575-0.0090508,0.0041847-0.0215731-0.0085773-0.0251641c-0.011591-0.0032616-0.0169544,0.0071392-0.0224209,0.0153174
		c-0.0265274,0.0396619-0.0498447,0.081686-0.0848045,0.1151366c-0.0474186,0.0220766-0.0996342,0.0251122-0.1496258,0.0364141
		c-0.3827085,0.086513-0.7663298,0.1689243-1.1493225,0.2541728c-0.0320463,0.007134-0.0626373,0.0229416-0.0969114,0.0189724
		c-0.1922626-0.0512848-0.3561659-0.148303-0.4855261-0.3010268c0.0148954-0.0241656,0.0407734-0.0270948,0.064805-0.032464
		c0.5782537-0.1291866,1.1570539-0.2559061,1.7356272-0.3836503c0.4144325-0.0915031,0.8286591-0.1839523,1.243475-0.2736983
		c0.0441914-0.0095606,0.0608616-0.0282645,0.0599155-0.0735469c-0.0025368-0.1214457-0.0003796-0.2429743-0.0012722-0.3645353
		c-0.0016842-0.133637-0.0021877-0.2672062,0.0001354-0.4007792c-0.0025921-0.1296606-0.0010204-0.2593265-0.0006771-0.3889842
		c0.0000553-0.0209365-0.0027676-0.0441303,0.0189953-0.0586271c0.0011368,0.0131397,0.0032616,0.0262794,0.0032673,0.0394201
		c0.0001488,0.4284439,0.0001316,0.8568878-0.0000725,1.2853322c-0.0000057,0.0148163-0.0021763,0.0296326-0.003336,0.0444484
		c0.0030327,0.1064773-0.0010967,0.2130251,0.0021553,0.319438c0.0011234,0.0367742-0.0145016,0.0495377-0.0468464,0.0561447
		c-0.1157703,0.0236487-0.2307148,0.0511866-0.3462505,0.0759478c-0.2196865,0.0470843-0.4386787,0.0973258-0.658392,0.1442561
		C16.6205273,6.7235932,16.5960312,6.7350135,16.5716267,6.7199469z"/>
	<path fill="#FAAE82" d="M14.6199846,0.8403382c0.0652399,0.1098716,0.1486053,0.2066554,0.2243729,0.3088593
		c0.1595182,0.2151756,0.3215942,0.4284551,0.4824257,0.6426585c0.0121355,0.0161629,0.0229673,0.0331172,0.0470438,0.0300127
		c-0.1296587,0.0243037-0.2597332,0.0466499-0.3889103,0.0733349c-0.236412,0.0488377-0.4652014,0.1238581-0.691411,0.2071334
		C14.2716246,2.107219,14.2653189,2.0886426,14.256114,2.07623c-0.2055998-0.2772309-0.4169178-0.5501595-0.6222658-0.8275729
		c-0.0149984-0.0202594-0.0394096-0.0386083-0.0251904-0.0700072L13.608386,1.1793164
		c0.0148706-0.0028701,0.0285492-0.0087115,0.0414009-0.0166111c0.1277552-0.0643864,0.2628012-0.1104723,0.3973732-0.1576091
		C14.234952,0.9393185,14.4254484,0.8827633,14.6199846,0.8403382z"/>
	<path fill="#FAA18D" d="M17.6886349,5.6101899c0.0004177,0.1298389-0.0001869,0.2596946,0.002018,0.3895035
		c0.0005074,0.0299664-0.0122223,0.0422955-0.0377522,0.0479255c-0.2599964,0.0573497-0.5199566,0.1148653-0.7800293,0.171874
		c-0.2180634,0.0477986-0.4363136,0.0947433-0.6543865,0.142499c-0.3779535,0.0827656-0.7559748,0.1652336-1.1336823,0.2491117
		c-0.1710939,0.0379958-0.3415041,0.0790715-0.5122242,0.1187506c-0.1004438-0.1099977-0.1681967-0.2381358-0.2109642-0.3801374
		c0.0169668-0.0316157,0.0505152-0.0295429,0.0782747-0.0358801c0.2368889-0.0540824,0.4748125-0.1035295,0.7117138-0.157589
		c0.1184244-0.0270238,0.2376518-0.0505185,0.3553085-0.0808711c0.024456-0.0003743,0.0389376,0.0168467,0.053895,0.0320053
		c0.0628538,0.063695,0.1398783,0.09903,0.2263269,0.1178741c0.1404696,0.0306215,0.2804251,0.0295968,0.4194269-0.0061727
		c0.1650333-0.0424671,0.2708302-0.1474667,0.3202057-0.310266c0.0069637-0.0229621,0.0053082-0.050806,0.0319138-0.0643191
		c0.3479843-0.0750027,0.6955299-0.1519718,1.043066-0.2289901C17.6300297,5.6092386,17.6586285,5.5940337,17.6886349,5.6101899z"/>
	<path fill="#FAAA84" d="M13.6086578,1.1786498c0.0208349,0.0651662,0.0712767,0.1110007,0.1102619,0.163637
		c0.1851892,0.2500401,0.3733797,0.4978588,0.560627,0.7463741c0.0038729,0.0051408,0.009264,0.0091386,0.0139532,0.0136733
		c-0.1331587,0.0593991-0.2687588,0.1139524-0.3988762,0.1794064c-0.1658497,0.0834291-0.3275957,0.1750951-0.4823923,0.2782564
		c-0.0067015,0.0044653-0.014617,0.0071106-0.0219669,0.0106037c-0.0336151,0.0135672-0.0433006-0.0157392-0.0574846-0.0337405
		c-0.1225882-0.1555946-0.2383709-0.3163614-0.3588371-0.4735668c-0.0911083-0.1188948-0.1803246-0.2392138-0.2716103-0.3579649
		c-0.0061054-0.007943-0.0126925-0.0154639-0.0146303-0.0257112c0.1210566-0.0875655,0.2512655-0.1600821,0.3810568-0.233482
		c0.1377611-0.0779074,0.2788372-0.1492215,0.4214678-0.2175429C13.5288239,1.2101052,13.5691338,1.1951991,13.6086578,1.1786498z"
		/>
	<path fill="#FAA887" d="M12.6877022,1.6796174c0.0670366,0.0535719,0.1071882,0.1292826,0.1582489,0.1956383
		c0.1712809,0.2225894,0.3390408,0.4478878,0.508112,0.6721774c0.0092468,0.0122647,0.0192871,0.0230124,0.0362015,0.0231676
		c-0.0887041,0.0634954-0.1803808,0.122704-0.2660875,0.1905529c-0.1650333,0.130646-0.323,0.2689595-0.4691629,0.4205732
		c-0.0102301,0.0106113-0.0222664,0.0194812-0.0334635,0.0291612c-0.0228996-0.0008254-0.0351572-0.017498-0.0469952-0.0332563
		c-0.2063818-0.2747173-0.4086723-0.5526526-0.6215105-0.8222668c-0.0492344-0.0623677-0.0048599-0.0806179,0.0168524-0.1166747
		C12.1918459,2.0300989,12.4254322,1.8364475,12.6877022,1.6796174z"/>
	<path fill="#FB77B1" d="M15.1300716,9.0594883c-0.0105925-0.0319834,0.0166836-0.0263433,0.0314817-0.0297585
		c0.1740112-0.0401535,0.3480349-0.0802917,0.5223904-0.1189156c0.2162895-0.0479155,0.433013-0.0938845,0.6493406-0.1416311
		c0.3713264-0.0819578,0.7424641-0.1647768,1.1138191-0.2466021c0.0175152-0.0038586,0.0363731-0.0016136,0.0546074-0.0022116
		c-0.0250015,0.0403194-0.047348,0.0825987-0.0754337,0.1206408c-0.1874695,0.2539129-0.4470825,0.3971033-0.7455673,0.4767418
		c-0.305233,0.08144-0.6165962,0.0950384-0.9303904,0.0743456c-0.2033195-0.0134096-0.402113-0.0489435-0.5937643-0.1198921
		C15.1474113,9.06882,15.1388855,9.0637655,15.1300716,9.0594883z"/>
	<path fill="#F9CB69" d="M16.8300133,3.3601809c-0.0223064,0.0340285-0.0613918,0.0309446-0.0935555,0.0382359
		c-0.2517624,0.0570743-0.5041008,0.1116152-0.7562656,0.1669171c-0.358839,0.0786963-0.717701,0.1572833-1.0765104,0.2361133
		c-0.1228619,0.026993-0.2457485,0.0539222-0.3682356,0.0825429c-0.0199928,0.0046716-0.0391006,0.0064261-0.0590515,0.0051329
		c0.0731354-0.1377089,0.1811132-0.2448516,0.3033085-0.3378613c0.2227364-0.1695361,0.4800406-0.2564602,0.7530136-0.2976401
		c0.3653708-0.0551176,0.7300091-0.0494533,1.0906563,0.0383155C16.6936283,3.3090353,16.7612019,3.3371487,16.8300133,3.3601809z"
		/>
	<path fill="#F9BE74" d="M14.2888689,4.476244c0.0025988,0.0238996,0.0151339,0.022645,0.0351343,0.0181737
		c0.2857342-0.06387,0.571723-0.126595,0.8576212-0.189733c0.0904465-0.0199747,0.1809301-0.0398107,0.2710915-0.0610147
		c0.0178957-0.0042086,0.0326204-0.0010514,0.0477352,0.006783c0.0054998,0.0138984,0.0000839,0.0261979-0.006382,0.0378618
		c-0.0631371,0.1138973-0.0794058,0.2377915-0.0802107,0.3655229c-0.000247,0.0392337,0.008872,0.0798345-0.0104256,0.1175909
		c-0.0662575,0.0286555-0.1379719,0.0360026-0.2074747,0.051425c-0.2828579,0.0627632-0.5655241,0.1264243-0.8488684,0.1869569
		c-0.0231647,0.0049491-0.0510187,0.0229588-0.0717649-0.0077171c0.0020962-0.1250253-0.0046453-0.2500677,0.0036411-0.3749638
		C14.2777843,4.57654,14.275733,4.5258942,14.2888689,4.476244z"/>
	<path fill="#FB84A5" d="M17.6809502,7.9128618c-0.004982-0.0304904-0.0265808-0.0241346-0.0459671-0.0198393
		c-0.3190155,0.0706677-0.6377811,0.142498-0.9571037,0.2117395c-0.0689983,0.0149603-0.1368313,0.0403175-0.2094574,0.0344343
		c0.0861912-0.1592917,0.0983505-0.333581,0.1032028-0.5093513c0.0140114-0.0140743,0.0330791-0.0141735,0.0506744-0.0181479
		c0.330286-0.0745883,0.6613846-0.1455159,0.9917927-0.219552c0.0251961-0.0056453,0.0509949-0.0174503,0.077446-0.0034065
		c0.0057125,0.0140729,0.002243,0.0288138,0.0032063,0.0432391c-0.0008278,0.0684543,0.0016956,0.1369195-0.0013008,0.2053499
		C17.6999493,7.7296562,17.6942387,7.8214312,17.6809502,7.9128618z"/>
	<path fill="#F9BD74" d="M16.2594261,4.1005621c0.1981277-0.0587649,0.4017944-0.0937161,0.6028652-0.1397936
		c0.1835403-0.0420601,0.3675747-0.081965,0.5512619-0.1233914c0.0124664-0.0028112,0.0238476-0.0104251,0.0357342-0.0158052
		c0.0947418,0.128176,0.1574421,0.2707481,0.1915016,0.4261866c0.0052433,0.0500302,0.0024853,0.0539398-0.05443,0.0666771
		c-0.2275314,0.0509162-0.4550724,0.1017833-0.6830006,0.1508985c-0.0927963,0.0199957-0.1852112,0.0417347-0.2780895,0.0613647
		c-0.0294304,0.0062203-0.0570984,0.0079556-0.0713749-0.0264683c-0.0162373-0.0330644-0.0198231-0.0698819-0.0299911-0.1048002
		c-0.0355892-0.1222272-0.1125278-0.2075863-0.2259636-0.2625856C16.283083,4.1256428,16.260294,4.1254144,16.2594261,4.1005621z"/>
	<path fill="#FAAF81" d="M14.278966,4.6271296c0.0008087,0.1276517,0.0016184,0.2553034,0.0024271,0.3829546
		c0.0159683,0.0200801,0.0130205,0.0440354,0.0130949,0.0670767c0.0003519,0.1098037-0.0000725,0.2196097,0.0002422,0.3294134
		c0.0001745,0.0606389,0.0047321,0.0643444,0.0627623,0.0513988c0.3198891-0.0713563,0.6403189-0.1402578,0.9601164-0.2120337
		c0.0299044-0.0067129,0.0617018-0.0201211,0.0890226,0.0082207c0.0065393,0.0119672,0.0085268,0.0250564,0.0086489,0.0382886
		c0.0011511,0.12534,0.0013132,0.2506819-0.0000744,0.3760214c-0.0001287,0.0115743-0.0019617,0.0230036-0.0063963,0.0337906
		c-0.0104418,0.0206418-0.0314274,0.0233297-0.0504398,0.0276642c-0.3371859,0.0768723-0.675231,0.1498637-1.0129576,0.2242918
		c-0.0296535,0.0065346-0.0620832,0.0143909-0.0636292-0.0337949c-0.0028982-0.0565171-0.0081749-0.1130295-0.0083065-0.1695528
		c-0.0008097-0.3482199-0.000576-0.6964421-0.0002565-1.0446634C14.2732449,4.679832,14.2690115,4.6528859,14.278966,4.6271296z"/>
	<path fill="#FA9299" d="M17.6918716,7.4298644c-0.0010738-0.0133219-0.0021458-0.0266442-0.0032158-0.0399661
		c-0.0160351-0.0200315-0.0129948-0.0439758-0.0130844-0.0669785c-0.0003872-0.0997024,0.0000458-0.1994081-0.0002384-0.2991114
		c-0.0001888-0.0660963-0.0039349-0.0693808-0.0684338-0.0549846c-0.3211193,0.071671-0.6427498,0.1410294-0.9638634,0.2127199
		c-0.0236225,0.0052738-0.0480556,0.0173526-0.0714016-0.0016437c-0.0000019-0.1533179-0.0000038-0.3066354-0.0000076-0.4599538
		c0.2272396-0.0499525,0.4544735-0.0999293,0.6817207-0.1498489c0.1370182-0.0300999,0.2738457-0.0611329,0.4112453-0.0893807
		c0.0307026-0.0063133,0.0248623-0.025774,0.0251369-0.0444598c0.0015316-0.1044974,0.0025406-0.209002,0.0037193-0.3134961
		c0.0011559,0.0131655,0.003334,0.0263209,0.0033398,0.0394783c0.0001869,0.4093184,0.0001965,0.8186359,0.0000172,1.2279544
		c-0.0000076,0.0131588-0.0022888,0.0263162-0.0035095,0.039474L17.6918716,7.4298644z"/>
	<path fill="#FAAF80" d="M17.6935806,4.7535686c-0.0012093,0.1290417-0.0023899,0.2580843-0.0036621,0.3871255
		c-0.0001945,0.0198703-0.0008259,0.0397363-0.0012531,0.0596037c-0.0152416,0.0206923-0.0386906,0.0247555-0.0614128,0.0298014
		c-0.3334465,0.0740457-0.667017,0.1475229-1.0007286,0.2203579c-0.0213203,0.0046525-0.0453339,0.0180259-0.0643082-0.0069485
		c-0.0092068-0.0204248-0.0080166-0.0421872-0.0080624-0.0636606c-0.0002403-0.111074-0.0002575-0.2221484,0.0000057-0.3332224
		c0.0000458-0.0198569-0.000452-0.0398784,0.0070534-0.0588298c0.0166168-0.0280094,0.0468502-0.0296335,0.0736446-0.0354528
		c0.3132858-0.0680437,0.6258278-0.1394901,0.9393387-0.2065058c0.0081215-0.0017362,0.0162716-0.0033402,0.0243778-0.0051532
		c0.0680637-0.0152211,0.0680771-0.0152164,0.0784626-0.0830226c0.0017738-0.0115876,0.0036182-0.0230994,0.0143356-0.0304594
		C17.7007999,4.6691723,17.6981049,4.7113543,17.6935806,4.7535686z"/>
	<path fill="#FB84A6" d="M15.680172,8.3296747c-0.2616472,0.0695143-0.5282869,0.1170321-0.7915287,0.1795664
		c-0.1203814,0.0285969-0.2414055,0.0544891-0.3621416,0.0816088c-0.0975018-0.1393118-0.1578608-0.2938776-0.1891193-0.4603958
		c0.022212-0.021142,0.0522461-0.0201788,0.0791559-0.0263062c0.2920942-0.066514,0.5850306-0.1292439,0.877636-0.1934566
		c0.0246048-0.0054002,0.0600863-0.0292091,0.0738125,0.0186887c0.012455,0.0530186,0.0237417,0.1062541,0.0453615,0.1567559
		C15.4654846,8.2079182,15.5606575,8.2819929,15.680172,8.3296747z"/>
	<path fill="#F9B879" d="M17.6913719,4.627202c-0.0053024,0.1119418-0.0058956,0.1091413-0.1240139,0.1341352
		c-0.2146969,0.0454297-0.4285774,0.0947237-0.6428719,0.1420622c-0.1175423,0.0259647-0.235239,0.0512276-0.3528652,0.076807
		C16.5512295,4.96245,16.554842,4.9379582,16.5542393,4.9151607c-0.003376-0.1279588,0.0057564-0.2561021-0.0057373-0.3839622
		c-0.001358-0.0151033-0.000288-0.0301485,0.0130329-0.0409203c0.0104828,0.0238214,0.0231304,0.0312929,0.0530319,0.0245848
		c0.3267269-0.073297,0.6540089-0.1441207,0.9812088-0.2153068c0.0286789-0.0062394,0.0505142-0.0166764,0.0450115-0.0517917
		C17.6782722,4.371491,17.6927776,4.4982858,17.6913719,4.627202z"/>
	<path fill="#FB8AA0" d="M16.5716343,7.1799002c0.108202-0.0231895,0.2164726-0.046061,0.3245888-0.069633
		c0.2503071-0.0545692,0.5007229-0.1086636,0.7505989-0.1651406c0.0369473-0.0083508,0.0436802,0.0031118,0.0433998,0.0354815
		c-0.0011864,0.1364241-0.0011425,0.2728577-0.0015564,0.4092889c-0.2415867,0.0533381-0.4831657,0.1066732-0.7247429,0.1600127
		c-0.1079407,0.0238328-0.216095,0.0467577-0.3236427,0.0722408c-0.0230694,0.005466-0.0454865,0.0076637-0.068655,0.0076947
		C16.5716286,7.4798636,16.5716324,7.3298817,16.5716343,7.1799002z"/>
	<path fill="#FB8BA0" d="M15.3679867,7.9293799c-0.0105743-0.0174551-0.0243979-0.0147548-0.0421352-0.0108242
		c-0.1597013,0.0353942-0.3198481,0.0687695-0.4795752,0.1040454c-0.1548948,0.0342093-0.3094091,0.0701418-0.464222,0.1047297
		c-0.0144024,0.0032177-0.0297546,0.0021839-0.0446682,0.0031233c-0.0438156-0.1726356-0.042861-0.3490267-0.0443954-0.5252447
		c-0.0001698-0.0195193,0.0080032-0.0273585,0.0268707-0.0259404c0.0066223,0.0004983,0.0133152,0.0000348,0.0199757,0.0000348
		c0.3247185-0.0000033,0.6494408,0.0006585,0.9741516-0.000905c0.0375023-0.0001812,0.0476217,0.0094457,0.0467739,0.0468636
		C15.3584709,7.7266393,15.3565741,7.8282337,15.3679867,7.9293799z"/>
	<path fill="#FAA887" d="M14.2817831,5.9204216c0.009635,0.0213137,0.0192318,0.0292397,0.0481806,0.0226417
		c0.2510109-0.0572124,0.5027819-0.1110907,0.7543831-0.1657071c0.1047354-0.0227346,0.2096033-0.0448532,0.3144121-0.0672517
		c0.02139,0.0224376,0.0197449,0.0523653,0.0224447,0.0793653c0.0087147,0.0871086,0.0318613,0.168963,0.0772543,0.2442245
		c0.0083981,0.0139236,0.0187922,0.0279751,0.0116472,0.0461082c-0.0484695,0.0368838-0.1090736,0.0350523-0.1641703,0.0479603
		c-0.2215786,0.051909-0.4444065,0.0984654-0.6666164,0.1477075c-0.1061754,0.0235295-0.2135954,0.0418406-0.3177042,0.0742464
		C14.3111734,6.2110491,14.2879629,6.0673184,14.2817831,5.9204216z"/>
	<path fill="#FA9498" d="M15.0581045,7.0308809c0.0807333-0.042161,0.1713705-0.0488567,0.2578077-0.0691223
		c0.2186203-0.0512562,0.4386768-0.096365,0.6580124-0.1446004c0.1419048-0.0312071,0.2834663-0.063972,0.4254246-0.0949349
		c0.0174389-0.0038033,0.0363693-0.0007687,0.0546112-0.0009017c-0.1224766,0.1589913-0.285593,0.2588706-0.475421,0.3130794
		c-0.2979193,0.0850763-0.5980949,0.0814738-0.8978806,0.0058494C15.0728502,7.0382805,15.0656109,7.0340543,15.0581045,7.0308809z"
		/>
	<path fill="#FB8AA0" d="M17.6918716,7.4298644c0,0,0.0014324-0.000195,0.0014286-0.0001965
		c0.0060406,0.0692201,0.0057735,0.1384459,0.0001507,0.2076674C17.6865482,7.5682211,17.6897087,7.4990392,17.6918716,7.4298644z"
		/>
	<path fill="#FAAA84" d="M13.6497869,1.1627053c-0.0091219,0.0171713-0.0241261,0.0197047-0.0413933,0.0166179
		C13.6194038,1.1668476,13.6345644,1.164698,13.6497869,1.1627053z"/>
	<path fill="#292929" d="M15.5101051,6.0798025c-0.0794487-0.1104846-0.1026373-0.2379117-0.1113462-0.369698
		c-0.0001268-0.1533108-0.0002537-0.306622-0.0003796-0.4599328c-0.0137863-0.0165362-0.0141592-0.0366068-0.0142422-0.0564666
		c-0.0005093-0.1223354-0.0005083-0.2446718-0.0000019-0.3670077c0.000083-0.0198617,0.000474-0.039927,0.0142345-0.0564728
		c0.0045052-0.089663-0.001709-0.1796341,0.010766-0.2691407c0.012598-0.0903788,0.0427494-0.1736898,0.0913153-0.2506309
		c0.1408768-0.1681585,0.3325624-0.1902452,0.5335569-0.1855268c0.0767269,0.0018015,0.151289,0.0173717,0.2254181,0.0356359
		c0.1798458,0.0685644,0.27104,0.2058396,0.3021088,0.3897157c0.0160179,0.1630497,0.0039024,0.3266778,0.0100861,0.4899292
		c0.0000038,0.1566381,0.0000076,0.3132768,0.0000095,0.4699144c0.009985,0.012074,0.0132198,0.0265145,0.0132084,0.0415511
		c-0.0000687,0.0888786,0.0044212,0.1778097-0.0025349,0.2665925c-0.0049057,0.0195627-0.0100193,0.0391436-0.0094109,0.0596509
		c-0.0015602,0.0114627-0.0038795,0.0225987-0.014534,0.0296035c-0.0021057,0.0044394-0.0051174,0.0086718-0.0061836,0.0133486
		c-0.0521603,0.2288766-0.1835041,0.3523493-0.4158993,0.3877783c-0.1293278,0.0197163-0.2580404,0.0154305-0.3851852-0.0181832
		C15.655117,6.2050905,15.5763512,6.1525435,15.5101051,6.0798025z"/>
	<path fill="#FA9795" d="M11.4801388,9.4694977c-0.000453-0.0253649,0.0034018-0.0494976,0.0200205-0.0699787
		c-0.000001,0,0.0002127,0.000185,0.0002136,0.0001869c0.0004883,0.0253744-0.0034771,0.0494785-0.0199642,0.0700121
		L11.4801388,9.4694977z"/>
	<path fill="#FA9795" d="M11.4804087,9.469718c0.0015297,0.0216894-0.0035372,0.041791-0.016284,0.0644903
		c-0.0068188-0.0273876,0.0031271-0.0463963,0.0160151-0.0647106C11.4801388,9.4694977,11.4804087,9.469718,11.4804087,9.469718z"/>
	<path fill="#FAA887" d="M16.569088,5.7673674c0.0008488-0.1057487,0.0016956-0.2114978,0.0025425-0.317246
		c0.240242-0.0534086,0.4805202-0.1066589,0.7207108-0.1602893c0.1321888-0.0295157,0.2642326-0.0596719,0.3963318-0.0895367
		c-0.0000114,0.136632-0.0000153,0.273262-0.0000286,0.4098935c-0.256773,0.0566983-0.5135231,0.1134548-0.7703056,0.1700664
		c-0.1114368,0.0245695-0.2229843,0.0486364-0.3343353,0.0735793c-0.0106812,0.0023913-0.0192528,0.0047989-0.0256424-0.0063138
		c0.0011864-0.0093126,0.0023746-0.0186243,0.0035629-0.0279355C16.5695457,5.802897,16.5604534,5.7839165,16.569088,5.7673674z"/>
	<path fill="#F9B779" d="M15.3983698,4.7702246c0.0000019,0.1599822,0.0000057,0.3199649,0.0000095,0.4799471
		c-0.0819378,0.0013356-0.1590853,0.028676-0.2379255,0.0456939c-0.2744131,0.0592308-0.5480795,0.1219068-0.8221397,0.1827869
		c-0.0578842,0.0128584-0.0582771,0.01191-0.0581446-0.0496702c0.0002966-0.1396308,0.0007906-0.2792625,0.001214-0.4188957
		c0.2577133-0.0566068,0.5154181-0.1132107,0.7731218-0.1698155c0.0982618-0.0215836,0.1964741-0.0434031,0.294836-0.0645189
		C15.3653412,4.7723169,15.3820105,4.7719884,15.3983698,4.7702246z"/>
	<path fill="#FAA18D" d="M16.5690861,5.7673674c-0.0009518,0.0176029,0.006794,0.0363994-0.0071621,0.052218
		C16.560976,5.8017216,16.5600891,5.7838669,16.5690861,5.7673674z"/>
</g>
</svg>
