<?xml version="1.0" encoding="utf-8"?>
<!-- Generator: Adobe Illustrator 24.1.1, SVG Export Plug-In . SVG Version: 6.00 Build 0)  -->
<svg version="1.1" id="Слой_1" xmlns="http://www.w3.org/2000/svg" xmlns:xlink="http://www.w3.org/1999/xlink" x="0px" y="0px"
	 viewBox="0 0 32 13" enable-background="new 0 0 32 13" xml:space="preserve" width="32px" height="13px">
<g>
	<path fill="#292929" d="M18.1450405,12.4578848c-0.0292149,0.007575-0.0587883,0.0141439-0.0849705,0.0302391
		c-0.0550728,0.0131359-0.105341,0.0420494-0.1621819,0.0493774l0.0011635-0.0007772
		c-0.0219002,0.0127239-0.0473843,0.013483-0.0707836,0.0212049l0.0010548-0.0006123
		c-0.0225582,0.0110893-0.047411,0.0140953-0.0713692,0.0202589l0.0011559-0.0007591
		c-0.1622124,0.0485296-0.3275127,0.0837984-0.4932194,0.1180086c-0.0972881,0.0200872-0.1955452,0.0351152-0.2930088,0.0538216
		c-0.0654278,0.012557-0.1331615,0.0230713-0.2007618,0.0269518c-0.0393047,0.0022554-0.0784111,0.0081501-0.1174946,0.0116978
		c-0.1132126,0.010273-0.2257118,0.026247-0.339901,0.0170574c-0.0195446-0.0015745-0.0399342-0.003705-0.0592651,0.0038099
		c-0.1703053,0.0000019-0.3406096,0.0000048-0.5109148,0.0000067c-0.0478554-0.0065079-0.0957623-0.0080938-0.143384,0.0011883
		c-0.0133533,0.0026026-0.0264044,0.0035696-0.0395603,0.0014486c-0.1204462-0.0194139-0.2431192-0.0179224-0.3634224-0.0363426
		c-0.2104225-0.032218-0.4205189-0.0671463-0.6283293-0.1139069c-0.1103878-0.0248394-0.2209854-0.0492191-0.3289442-0.0837631
		l0.001152,0.0007715c-0.0239601-0.0061598-0.0488262-0.0091267-0.0713701-0.0202742l0.0010509,0.0006247
		c-0.0234079-0.0076942-0.0488844-0.0084791-0.0707922-0.0211868l0.001153,0.0007753
		c-0.0568371-0.0073347-0.1070995-0.0362501-0.1621714-0.0493813c-0.0299091-0.0096588-0.0598183-0.0193157-0.0897274-0.0289736
		c-0.0333185-0.0225725-0.0793333-0.0098982-0.1100683-0.0396423c-0.0100746-0.003768-0.022933,0.0006781-0.0305471-0.0103502
		c-0.0157518-0.0083046-0.034956-0.0078726-0.0493889-0.019515c-0.1216364-0.0400953-0.2382765-0.0927019-0.3554335-0.1437616
		c-0.0686264-0.029911-0.1350336-0.0649137-0.2024393-0.0976238c-0.0156231-0.0023336-0.0292139-0.0093756-0.0420589-0.0181465
		c-0.0140438-0.0068483-0.0280876-0.0136957-0.0421305-0.0205441c-0.0216103-0.0053806-0.0426331-0.0119114-0.0579557-0.0296001
		c-0.2062674-0.1081915-0.4073582-0.2253819-0.6022701-0.3527946c-0.151392-0.0989628-0.2998638-0.2023096-0.4393873-0.3178453
		c-0.0126629-0.0098534-0.0238075-0.0216875-0.0382061-0.0292768c-0.2389631-0.1884699-0.4610338-0.3957186-0.6688166-0.6174803
		c-0.1732712-0.1849279-0.3380527-0.3773031-0.488512-0.5822563c-0.1149483-0.1565838-0.2231035-0.3174267-0.3247919-0.4822731
		c-0.0713406-0.1156511-0.1348619-0.2365522-0.199935-0.3562393c-0.0810852-0.1491375-0.1524792-0.3025789-0.2177973-0.4586506
		C9.9151716,8.7271471,9.8574276,8.568099,9.8026342,8.4077682C9.7400856,8.2247467,9.6895275,8.0384741,9.6438904,7.8513813
		C9.6131773,7.725472,9.5917511,7.5963039,9.5704823,7.4676609c-0.0180988-0.1094694-0.0264158-0.2202682-0.0484819-0.329164
		C9.5169878,7.1137557,9.5249195,7.0859275,9.5187159,7.0597324c-0.0082979-0.0201187,0.0024605-0.0425239-0.007493-0.0624433
		C9.5104151,6.9814458,9.5096073,6.9656029,9.5087996,6.94976C9.5003281,6.9255452,9.5109873,6.8994327,9.5014143,6.8753271
		c-0.0008955-0.0251837-0.001791-0.0503678-0.0026865-0.0755515C9.4893751,6.7622867,9.502223,6.7233644,9.4913797,6.6859717
		C9.4913778,6.5253334,9.491374,6.3646955,9.4913712,6.2040572c0.0108595-0.037396-0.0019999-0.0763245,0.0073566-0.1138182
		c0.0008945-0.0251846,0.0017881-0.0503693,0.0026817-0.0755544c0.0095835-0.0241036-0.0010843-0.0502167,0.00739-0.07443
		c0.0008078-0.0158453,0.0016146-0.0316906,0.0024223-0.0475354c0.0099564-0.0199175-0.0008049-0.0423207,0.007494-0.0624371
		c0.0105963-0.1013184,0.0157499-0.2035775,0.033062-0.3037353c0.0262432-0.1518235,0.052597-0.3036609,0.0876799-0.4540854
		c0.043395-0.1860619,0.0920706-0.3701582,0.150568-0.552072c0.0552902-0.1719403,0.1158381-0.3421092,0.1872864-0.5074911
		c0.0683279-0.1581566,0.139349-0.3153191,0.2224121-0.4673131c0.1216316-0.2225723,0.2472115-0.4424021,0.3915405-0.650831
		c0.1254673-0.1811898,0.2592258-0.3557835,0.4036055-0.5232787c0.1590881-0.1845574,0.3255367-0.3612671,0.5019445-0.5284904
		c0.1397762-0.1324977,0.2844343-0.2601042,0.44065-0.3736656c0.0118885-0.0086427,0.0219631-0.0197812,0.0328798-0.0297598
		c0.0147762-0.0071292,0.025692-0.0194429,0.0387726-0.0288495c0.1554985-0.1191846,0.3155642-0.2324184,0.4828548-0.3338773
		c0.4849405-0.2941092,0.9961653-0.5313181,1.5390148-0.6990496c0.702939-0.2171962,1.4222927-0.3173429,2.1570282-0.294036
		c1.2825909,0.0406857,2.4600582,0.4131892,3.5240974,1.1348555c0.0927753,0.0629246,0.1837025,0.1285738,0.2754898,0.1929569
		c0.0161896,0.007419,0.0290737,0.0191358,0.0412788,0.0317359c0.0123768,0.0179669,0.0289612,0.0304685,0.0493736,0.037997
		c0.0152931,0.0086344,0.0292072,0.0189769,0.0403957,0.0326836c0.1038513,0.0950267,0.2144623,0.182178,0.3183975,0.2773117
		c0.1364384,0.1248851,0.2672462,0.255326,0.3937054,0.3898051c0.151989,0.1616232,0.2926788,0.3332269,0.4254665,0.511241
		c0.2456665,0.3293362,0.4593601,0.6780427,0.6366959,1.0486722c0.2010136,0.420105,0.3561707,0.8561478,0.4577866,1.311317
		c0.0527363,0.2362137,0.0955315,0.4736362,0.1192513,0.7144947c0.0020962,0.0213208,0.0074749,0.0423188,0.0113297,0.063467
		c0.0083313,0.0200701-0.0025196,0.0424552,0.0075245,0.0623188c0.0007954,0.0158896,0.0015926,0.0317788,0.0023918,0.0476685
		c0.0084763,0.0242-0.0021877,0.0502977,0.0073757,0.0743904c0.0008926,0.0251966,0.0017834,0.0503936,0.0026779,0.0755901
		c0.0094109,0.0374279-0.0035152,0.0763049,0.00737,0.1136379c0.0000019,0.1607394,0.0000038,0.3214779,0.0000076,0.4822173
		c-0.0108986,0.0373383,0.0020332,0.0762229-0.0073776,0.113657c-0.0008888,0.0251923-0.0017796,0.050385-0.0026722,0.0755773
		c-0.0095692,0.0240993,0.0010853,0.0502019-0.0073738,0.0744114c-0.0008011,0.0158801-0.0016003,0.0317612-0.0023975,0.0476413
		c-0.0100479,0.0198684,0.0008049,0.0422597-0.0075264,0.062335c-0.0407467,0.3333025-0.0937061,0.6642303-0.1812134,0.9891152
		c-0.1203022,0.4466352-0.2850933,0.8757248-0.5000362,1.2853365c-0.1864204,0.355258-0.4046803,0.6894827-0.6532383,1.0048866
		c-0.2072811,0.2630224-0.4371624,0.5042639-0.6801758,0.7333374c-0.1119308,0.1055117-0.2317314,0.2026787-0.3479652,0.3036289
		c-0.0111923,0.0137129-0.0251102,0.0240574-0.040411,0.0326939c-0.0990353,0.0714073-0.1977749,0.1432314-0.2971687,0.2141371
		c-0.2414703,0.1722584-0.4957638,0.3231497-0.7594872,0.4588146c-0.2119789,0.1090431-0.4291344,0.2059164-0.6518936,0.2905235
		c-0.0106373,0.0040388-0.0199566,0.0115461-0.0298882,0.0174389c-0.0159283,0.0120039-0.0354137,0.0135317-0.0538082,0.0182734
		c-0.0117016-0.0028811-0.0179119,0.0066185-0.0261288,0.0115919
		C18.2269707,12.4483891,18.1816006,12.4399614,18.1450405,12.4578848z"/>
	<path fill="#FEFEFE" d="M14.2409039,12.5767946c0.169796,0.0386438,0.3382797,0.0826683,0.5097151,0.1145782
		c0.3125992,0.0581875,0.6271486,0.0973606,0.9449272,0.1101437c0.0163765,0.000659,0.0326309,0.0043573,0.0489702,0.0066471
		c-0.0543337,0.0060558-0.1095276-0.0087748-0.1629934,0.0255356c-0.0255079,0.0163689-0.0719414,0.019002-0.0986891-0.0191383
		c-0.0139294-0.0198584-0.0288906-0.0193453-0.0451536-0.0027437c-0.0034189,0.0034924-0.0078392,0.0060835-0.0120163,0.0087481
		c-0.0401745,0.0256252-0.0675745-0.0273523-0.0880003-0.0223227c-0.0307302,0.0075665-0.0542068,0.0367298-0.0830603-0.0013256
		c-0.0049067-0.0064697-0.0129642-0.0187473-0.0177841-0.0133753c-0.0500498,0.0557804-0.082737-0.0275965-0.1269436-0.0151501
		c-0.0031309,0.0008821-0.0099726-0.0079575-0.01192-0.0068264c-0.0867586,0.0504389-0.1521187-0.0315342-0.23102-0.0394869
		c-0.1960297-0.0197601-0.3869038-0.0749016-0.5782022-0.1232405C14.2716894,12.5945301,14.252141,12.5942793,14.2409039,12.5767946
		z"/>
	<path fill="#FEFEFE" d="M16.2554588,12.8081636c0.1175041-0.0091248,0.2350807-0.0173988,0.352499-0.0275316
		c0.3765068-0.0324879,0.7470245-0.0991564,1.1121254-0.1964159c0.0127583-0.0033998,0.0260048-0.0049706,0.0390263-0.0073967
		c-0.0298119,0.0279284-0.0702095,0.0248928-0.1057835,0.0357103c-0.1500454,0.0456295-0.3052616,0.0699816-0.4574738,0.1068316
		c-0.0598221,0.0144825-0.1239891,0.0178919-0.1854591,0.0331755c-0.0155067,0.0038557-0.0204296,0.013072-0.0303936,0.0196457
		c-0.0107841,0.0071115-0.024065,0.020793-0.0354195,0.0119514c-0.0477734-0.0371971-0.0829792,0.0006123-0.1261692,0.0102749
		c-0.0385914,0.0086355-0.0857296,0.0259905-0.1186943,0.0187988c-0.0343246-0.0074902-0.0543919-0.0140276-0.0777683,0.0130768
		c-0.0024624,0.0028553-0.010685,0.0040913-0.0141621,0.0022211c-0.0462475-0.0248594-0.0867348-0.0210266-0.1330147,0.0079594
		c-0.0220165,0.0137911-0.0580807,0.0024347-0.0880184-0.0172806
		C16.3482475,12.7938271,16.2993565,12.8146086,16.2554588,12.8081636z"/>
	<path fill="#FEFEFE" d="M18.1450405,12.4578848c0.0366249-0.0177269,0.0746479-0.0312805,0.1148281-0.0383768
		c0.0038528,0.0334682-0.0118942,0.0491476-0.0426426,0.0362225C18.1910019,12.4447031,18.1690712,12.4643784,18.1450405,12.4578848
		z"/>
	<path fill="#FEFEFE" d="M13.7401304,12.419508c0.0387363,0.0075331,0.0766687,0.0172968,0.1100683,0.0396423
		c-0.0255108-0.0001831-0.0492153-0.0116434-0.0769939-0.0018301C13.7431316,12.4679441,13.7384453,12.443572,13.7401304,12.419508z
		"/>
	<path fill="#FEFEFE" d="M13.9399261,12.4881239c0.0561399,0.0096159,0.1093826,0.0287371,0.1621647,0.049386
		C14.0390673,12.5505075,13.9936161,12.5057907,13.9399261,12.4881239z"/>
	<path fill="#FEFEFE" d="M17.8978882,12.5375013c0.0527954-0.0206108,0.1060352-0.0397701,0.1621819-0.0493774
		C18.0063763,12.5057907,17.9609241,12.5505142,17.8978882,12.5375013z"/>
	<path fill="#FEFEFE" d="M12.9601765,12.0799665c0.0230856,0.002492,0.0426245,0.0119267,0.0579557,0.0296001
		C12.9868641,12.1230927,12.9575176,12.1328545,12.9601765,12.0799665z"/>
	<path fill="#FCFCFC" d="M9.4913797,6.6859717C9.5011969,6.7234311,9.499342,6.7616434,9.4987278,6.7997756
		C9.4817314,6.7627802,9.493187,6.723948,9.4913797,6.6859717z"/>
	<path fill="#FCFCFC" d="M22.5012531,6.7997651c-0.0006618-0.038075-0.0024052-0.07622,0.0073776-0.1136374
		C22.5067406,6.724031,22.5183334,6.7628284,22.5012531,6.7997651z"/>
	<path fill="#FCFCFC" d="M22.5086231,6.2038908c-0.0097694-0.0374055-0.0080338-0.0755568-0.00737-0.1136389
		C22.5183296,6.1271839,22.5067501,6.1659737,22.5086231,6.2038908z"/>
	<path fill="#FCFCFC" d="M9.4987278,6.090239c0.0006104,0.0381222,0.0024986,0.0763273-0.0073547,0.1137958
		C9.4931974,6.1660776,9.4817257,6.1272383,9.4987278,6.090239z"/>
	<path fill="#FEFEFE" d="M18.2859974,12.4079161c0.0165558-0.0101595,0.03368-0.0186396,0.0538082-0.0182734
		C18.3288307,12.4162292,18.3084259,12.4150467,18.2859974,12.4079161z"/>
	<path fill="#FEFEFE" d="M13.6601944,12.3896427c0.0188046,0.0005798,0.0362034,0.0047159,0.0493889,0.019515
		C13.6871862,12.4176693,13.6702623,12.4123297,13.6601944,12.3896427z"/>
	<path fill="#FEFEFE" d="M17.7579536,12.5775757c0.0222969-0.0120058,0.0463181-0.0179386,0.0713692-0.020257
		C17.8092728,12.5772419,17.7845993,12.5808821,17.7579536,12.5775757z"/>
	<path fill="#FEFEFE" d="M14.1706858,12.557292c0.0250082,0.0024605,0.04914,0.0080051,0.0713644,0.0202789
		C14.2154045,12.5808773,14.1907234,12.5772562,14.1706858,12.557292z"/>
	<path fill="#FEFEFE" d="M17.8282681,12.557929c0.0219479-0.0125618,0.0460129-0.0180511,0.0707817-0.0212021
		C17.8796024,12.5576239,17.854702,12.5603371,17.8282681,12.557929z"/>
	<path fill="#FEFEFE" d="M14.1009445,12.5367298c0.0247612,0.003171,0.0488443,0.0085983,0.0707874,0.0211906
		C14.1452961,12.5603533,14.1204033,12.55762,14.1009445,12.5367298z"/>
	<path fill="#FCFCFC" d="M22.4985752,6.0146627c-0.009882-0.0240607-0.0082188-0.0492663-0.0073776-0.0743904
		C22.5076065,5.9636855,22.4969749,5.9897804,22.4985752,6.0146627z"/>
	<path fill="#FCFCFC" d="M9.5087996,5.9402547c0.000864,0.0251231,0.0025692,0.0503297-0.0073843,0.0744052
		C9.5030289,5.9897909,9.4924154,5.9636827,9.5087996,5.9402547z"/>
	<path fill="#FCFCFC" d="M22.4912071,6.9497538c-0.000864-0.025116-0.0025139-0.0503101,0.00737-0.0743871
		C22.4969749,6.9002309,22.507597,6.9263306,22.4912071,6.9497538z"/>
	<path fill="#FCFCFC" d="M9.5014143,6.8753271C9.5113668,6.8993945,9.5096626,6.9246192,9.5087996,6.94976
		C9.4924154,6.9263301,9.503027,6.9002223,9.5014143,6.8753271z"/>
	<path fill="#FCFCFC" d="M9.5187159,5.8302822C9.5200567,5.851552,9.5199356,5.8726459,9.5112209,5.8927131
		C9.5125065,5.8717613,9.5033751,5.8495536,9.5187159,5.8302822z"/>
	<path fill="#FEFEFE" d="M13.0602627,12.1301088c0.0173359-0.0016346,0.0297279,0.0081863,0.0420589,0.0181484
		C13.0799475,12.1615677,13.0699577,12.1461802,13.0602627,12.1301088z"/>
	<path fill="#FCFCFC" d="M12.0091171,1.4107105c-0.0076437,0.0167118-0.0204563,0.026477-0.0387726,0.0288495
		C11.9794779,1.4248492,11.989749,1.4116685,12.0091171,1.4107105z"/>
	<path fill="#FCFCFC" d="M11.8803129,11.3800497c0.0186224,0.002079,0.0303993,0.0130882,0.0382061,0.0292768
		C11.8993292,11.4079895,11.8891325,11.3949184,11.8803129,11.3800497z"/>
	<path fill="#FCFCFC" d="M20.0782433,11.4087286c0.0134697-0.0108976,0.0269413-0.0217962,0.040411-0.0326939
		C20.1126995,11.3962212,20.1002884,11.4084272,20.0782433,11.4087286z"/>
	<path fill="#FCFCFC" d="M9.5112228,6.9972892c0.0087252,0.0200672,0.0087996,0.0411725,0.007493,0.0624433
		C9.5033712,7.0404592,9.5125074,7.018249,9.5112228,6.9972892z"/>
	<path fill="#FCFCFC" d="M20.0288811,1.4432961c-0.0137615-0.0105783-0.0275192-0.0211569-0.0412788-0.0317359
		C20.0098896,1.4110488,20.0221004,1.4236393,20.0288811,1.4432961z"/>
	<path fill="#FCFCFC" d="M20.1186504,1.5139765c-0.0134659-0.0108945-0.0269299-0.0217891-0.0403957-0.0326836
		C20.1002979,1.4815856,20.1126957,1.4937991,20.1186504,1.5139765z"/>
	<path fill="#FCFCFC" d="M22.4888039,5.8926039c-0.0086689-0.0200295-0.0088482-0.0410838-0.0075207-0.0623198
		C22.4966145,5.8495102,22.4875011,5.871686,22.4888039,5.8926039z"/>
	<path fill="#FCFCFC" d="M22.4812832,7.0597301c-0.0013256-0.0212383-0.001152-0.042295,0.0075283-0.0623293
		C22.4874916,7.0183177,22.496624,7.0405011,22.4812832,7.0597301z"/>
	<path fill="#622BFB" d="M13.0493803,1.4591597c0.2047205-0.1185313,0.4181585-0.2184572,0.6352463-0.3126749
		c0.3109531-0.1349571,0.6318426-0.2360531,0.9610739-0.3129899c0.2233477-0.0521936,0.4493275-0.0873828,0.6770773-0.116177
		c0.3149996-0.0398248,0.6304989-0.0205851,0.9457827-0.0260621c0.1824245-0.003169,0.3624611,0.0228428,0.5432396,0.044062
		c0.2483349,0.0291489,0.4909153,0.0837942,0.7324562,0.1449255c0.2281799,0.0577496,0.4514103,0.1321591,0.669199,0.2205672
		c0.1562366,0.0634227,0.3084297,0.1373816,0.4598503,0.2118737c0.0937729,0.0461309,0.1890221,0.0905284,0.2760448,0.1495471
		c-0.0038357,0.0258262-0.0249805,0.0286462-0.0444584,0.0322137c-0.0213642,0.0039128-0.0432014,0.0026106-0.0648556,0.002611
		c-1.8931885,0.0000437-3.786375,0.0000407-5.6795616-0.0000068c-0.0233164-0.0000006-0.0468922,0.0016679-0.0697889-0.0032611
		C13.071497,1.4896574,13.0499706,1.4863342,13.0493803,1.4591597z"/>
	<path fill="#642CFA" d="M13.0493803,1.4591597c0.0204887,0.0271841,0.0502787,0.0214428,0.0780411,0.0214471
		c0.8529062,0.0001321,1.7058125,0.000108,2.5587196,0.000108c1.0611353,0,2.1222715,0.000018,3.1834078-0.0000993
		c0.0278454-0.0000032,0.0573101,0.0055138,0.0798016-0.0183853c0.0839729,0.0327073,0.1555252,0.0872442,0.2305202,0.1349983
		c0.0478897,0.0304939,0.1036053,0.0491695,0.1438198,0.0916133c-0.0095863,0.0219758-0.0297718,0.0247447-0.0498543,0.0268352
		c-0.0215664,0.0022444-0.0432796,0.0013976-0.0649338,0.001398c-2.1392746,0.0000235-4.2785463,0.0000236-6.41782-0.0000004
		c-0.0216541-0.0000001-0.0433683,0.0008457-0.0649328-0.0014045c-0.0201063-0.0020977-0.0402603-0.0049617-0.0496349-0.0270963
		C12.794611,1.6020393,12.9194193,1.526413,13.0493803,1.4591597z"/>
	<path fill="#612AFB" d="M19.3679485,7.8998075c-0.0089169,0.1487269-0.0356712,0.2934136-0.0974293,0.4301753
		c-0.0913944,0.0382624-0.1895847,0.0500641-0.2851162,0.0714903c-0.6953907,0.1559639-1.3915462,0.3084764-2.0872364,0.4631042
		c-0.0503979,0.0112009-0.100502,0.0231934-0.1497746,0.0385981c-0.1942539-0.1068344-0.3466358-0.2550488-0.448204-0.4534769
		c0.1363335-0.0354319,0.274683-0.062005,0.4118862-0.0936184C16.9205437,8.3080454,17.1306,8.2669764,17.33778,8.2133245
		c0.0223694-0.0038633,0.0372066,0.0103664,0.0532379,0.0220518c0.0759315,0.0553455,0.1628666,0.0789623,0.2546139,0.0913687
		c0.1288891,0.0174294,0.2544575,0.0063868,0.3770828-0.0367355c0.0740795-0.0260525,0.1346836-0.0705671,0.1808357-0.1344547
		c0.0096416-0.0133457,0.0187416-0.0277996,0.0370388-0.0311213c0.1134357-0.0070705,0.2215176-0.0418453,0.331604-0.0655193
		c0.2450447-0.0526981,0.4894161-0.1085577,0.7341461-0.1627574C19.3270092,7.8915792,19.3483658,7.8827891,19.3679485,7.8998075z"
		/>
	<path fill="#652DFA" d="M12.6765146,1.6885738c0.0192642,0.012359,0.0407696,0.0122375,0.0626202,0.0122362
		c2.1739311-0.0001355,4.3478613-0.0001364,6.5217924,0.0000125c0.0218716,0.0000015,0.0433178-0.0001467,0.0627537-0.0119771
		c0.0398846,0.0365295,0.0901337,0.0563972,0.135416,0.0842452c-0.0015144,0.0242625-0.0200729,0.0282198-0.0384388,0.0313915
		c-0.0214291,0.0037003-0.0431976,0.002453-0.0648346,0.0024544c-0.8911495,0.0000552-1.7823029,0.0004225-2.6734524-0.0006301
		c-0.0777149-0.0000918-0.1556473-0.0006506-0.2333698-0.0052937c-0.1857681-0.0129083-0.3718338-0.0061644-0.5577593-0.0088419
		c-0.3348751-0.0048223-0.6627579,0.0453311-0.9875269,0.1214769c-0.0645084,0.0151249-0.1287241,0.031504-0.1930742,0.0473046
		c-0.7528906-0.0090506-1.5058126-0.001618-2.2587156-0.0041773c-0.0249557-0.0000849-0.0501709,0.0020945-0.0747423-0.0032271
		c-0.0180855-0.0039175-0.0381451-0.0083355-0.027977-0.0354602C12.450573,1.8305535,12.5577126,1.7512488,12.6765146,1.6885738z"/>
	<path fill="#5C27FD" d="M16.7483921,8.9031754C16.7603073,8.8753109,16.7876434,8.87498,16.81106,8.869771
		c0.3758392-0.0836258,0.7518616-0.1664295,1.1277084-0.2500248c0.4291039-0.0954418,0.8580589-0.1915493,1.2871685-0.2869606
		c0.0143585-0.0031929,0.0296993-0.0019684,0.0445824-0.0028028c-0.0953312,0.2544241-0.2694836,0.4404879-0.5019913,0.5746222
		c-0.2006531,0.115756-0.4199886,0.1751232-0.6479759,0.2037983c-0.2640591,0.0332127-0.5282822,0.0316401-0.7915325-0.0096197
		c-0.1947117-0.0305176-0.3822079-0.0848541-0.5569477-0.178277C16.7635326,8.9159393,16.7562561,8.9090061,16.7483921,8.9031754z"
		/>
	<path fill="#6B30F8" d="M13.6298666,2.4196103c-0.2198057,0.1322296-0.4309359,0.2768986-0.6297798,0.4391818
		c-0.0224848-0.0118344-0.0457525-0.0014963-0.0684748-0.0015345c-0.4785814-0.0008049-0.9571648-0.0003393-1.4357481-0.000972
		c-0.0338268-0.0000443-0.0711145,0.0073884-0.0965691-0.0260427c0.1330185-0.1504498,0.2633543-0.3033955,0.4103794-0.4408076
		c0.0197306-0.0028286,0.0393705-0.005348,0.0594788-0.0053332c0.5540638,0.0004091,1.1081257,0.0001752,1.6621885,0.0003033
		c0.0182991,0.0000043,0.0367804-0.0009573,0.0547647,0.0026069C13.6054602,2.390847,13.6267242,2.3934493,13.6298666,2.4196103z"/>
	<path fill="#AE59E2" d="M19.1994209,10.2503719c-0.0801125-0.099371-0.1597919-0.1990957-0.2407589-0.2977667
		c-0.0136242-0.0166054-0.0142422-0.0255861,0.0029373-0.0393486c0.0631638-0.050601,0.1252632-0.1025286,0.1877632-0.1539555
		c0.017664-0.0055218,0.0357742-0.0064135,0.054184-0.0063839c0.5035534,0.0007896,1.0071087,0.0001812,1.5106621,0.0004101
		c0.0149555,0.0000067,0.0299644-0.0004902,0.044838,0.0011339c0.0449581,0.0049076,0.0497265,0.0136223,0.0314655,0.056221
		l0.0005245-0.0006981c-0.0205421,0.0194426-0.0308475,0.0468159-0.0513515,0.066288
		c-0.0696735,0.0926962-0.1422863,0.1830368-0.2200718,0.2690496c-0.0307026,0.0339489-0.0481911,0.0793915-0.0901642,0.103426
		c-0.3818283-0.0075016-0.7636967-0.0013399-1.1455421-0.0033989C19.2556,10.2451944,19.2276287,10.2494955,19.1994209,10.2503719z"
		/>
	<path fill="#7738F4" d="M12.0899858,3.8669205c-0.1039925,0.1504097-0.1860609,0.3134432-0.2729321,0.4737163
		c-0.0078278,0.0144434-0.016819,0.0282574-0.0252695,0.0423636c-0.0579271-0.0076122-0.116168-0.006546-0.1743917-0.0065327
		c-0.3445768,0.0000792-0.6891527,0.0002441-1.0337296-0.0003009c-0.0291405-0.0000463-0.060585,0.0069666-0.085598-0.0165234
		c0.0644274-0.1756415,0.1370239-0.3475628,0.2319317-0.5093269c0.0112772-0.0182006,0.028739-0.0197194,0.0480003-0.0193717
		c0.4046555,0.0072978,0.80935,0.0012987,1.2140226,0.0032961c0.0232983,0.0001149,0.0469036-0.0020425,0.0697355,0.0030158
		C12.0765057,3.8405247,12.09764,3.8409617,12.0899858,3.8669205z"/>
	<path fill="#B35DE0" d="M18.759779,3.7625353c0.0911407,0.0463874,0.1710396,0.1082575,0.2453346,0.1778939
		c0.0087051,0.0081604,0.016449,0.0164738,0.0167503,0.0292573c-0.0130711,0.0211318-0.0358238,0.0223835-0.0566101,0.0269423
		c-0.6093445,0.1336527-1.2180367,0.2702379-1.8270168,0.4055309c-0.2923145,0.0649414-0.5846157,0.1299467-0.8770313,0.1944294
		c-0.0297089,0.0065508-0.0601654,0.0229869-0.0913811,0.0036697c0.0116425-0.094398,0.0379524-0.184536,0.0785866-0.2705126
		c0.0573044-0.0293274,0.1212425-0.0345221,0.1825256-0.0482774c0.7648277-0.1716628,1.5306816-0.3387117,2.2955761-0.5100913
		C18.7376976,3.7688711,18.7500477,3.770561,18.759779,3.7625353z"/>
	<path fill="#7134F6" d="M19.7295895,3.6010041c-0.1300621-0.1589553-0.2677002-0.3111315-0.4105148-0.4586761
		c-0.0101509-0.0276501,0.0108814-0.0308797,0.0285702-0.0349429c0.0212326-0.0048769,0.0431385-0.0030973,0.0647793-0.0031562
		c0.4532871-0.0012352,0.9065819,0.0023429,1.3598633-0.0019562c0.0134735-0.000128,0.0267277-0.0002699,0.0384121,0.0078514
		c0.0601749,0.0640054,0.1044216,0.1397285,0.1524391,0.2122893c0.0554733,0.0838308,0.1123371,0.1671906,0.1565628,0.2580028
		c-0.025425,0.0226128-0.056776,0.0158274-0.0860004,0.0158641c-0.3964558,0.0004964-0.7929115,0.0003552-1.1893673,0.0002692
		C19.8060131,3.5965412,19.7677498,3.597209,19.7295895,3.6010041z"/>
	<path fill="#AA57E3" d="M20.7905121,9.8106823c0.0174923-0.0478964-0.0160809-0.0411854-0.0438232-0.0411825
		c-0.5097561,0.0000458-1.0195103,0.0000458-1.5292645-0.0000067c-0.0231533-0.0000029-0.0468712,0.003171-0.0680618-0.0101919
		c0.0707378-0.0699148,0.1419106-0.1393976,0.2120781-0.2098818c0.0560055-0.0562553,0.1107883-0.1137295,0.1661129-0.1706638
		c0.0137997-0.0064592,0.0281334-0.0086536,0.0435123-0.0084372c0.4637012,0.006568,0.9274311,0.0011854,1.3911476,0.0030041
		c0.023243,0.0000906,0.0467777-0.0019932,0.069582,0.0032225c0.0173168,0.0039606,0.0390301,0.0066156,0.0285053,0.0345497
		C20.9791679,9.5502291,20.8901482,9.6840382,20.7905121,9.8106823z"/>
	<path fill="#682EF9" d="M19.6605492,1.9283968c0.1290512,0.0892774,0.2489376,0.1893922,0.3578243,0.3025163
		c-0.0368233,0.0211604-0.0775566,0.0154302-0.116909,0.0154626c-0.5772457,0.0004771-1.1544914,0.0002155-1.7317371,0.0005429
		c-0.0398083,0.0000224-0.0797234-0.0027988-0.1194725,0.0019875c-0.2042351-0.0962441-0.4132156-0.1805005-0.6285133-0.2488093
		c-0.0408745-0.0129683-0.0816879-0.0261277-0.12253-0.0391986c0.0352936-0.0285625,0.0778828-0.0260118,0.1190434-0.0261449
		c0.2330875-0.0007535,0.466177-0.0003407,0.6992664-0.0003505c0.4778309-0.0000199,0.9556637-0.0000131,1.4334965,0.0000087
		C19.5876446,1.9344132,19.6242523,1.9343131,19.6605492,1.9283968z"/>
	<path fill="#B65FDF" d="M18.759779,3.7625353c-0.0068207,0.025322-0.0305157,0.0233207-0.0483189,0.0272624
		c-0.3958473,0.0876479-0.7919521,0.1741343-1.1878223,0.2616873c-0.2569523,0.0568299-0.5136242,0.1149287-0.7703915,0.1725998
		c-0.1550102,0.0348163-0.3099174,0.070085-0.4650097,0.1045294c-0.0127316,0.0028272-0.0265236,0.0008683-0.0398235,0.0011325
		c0.0459118-0.1262889,0.1167622-0.2368469,0.2101898-0.3331633c0.0250702,0.0080767,0.0495586,0.001292,0.0736599-0.0041347
		c0.5594959-0.1259689,1.1199951-0.2474022,1.6796017-0.3728578c0.0266838-0.0059819,0.0565796-0.0058243,0.0782928-0.027297
		C18.4560452,3.6232636,18.613575,3.6772749,18.759779,3.7625353z"/>
	<path fill="#6D31F7" d="M20.8106995,3.1101241c-0.0271282,0.0085194-0.0547905,0.0106876-0.0832729,0.0106604
		c-0.4503098-0.0004315-0.9006214-0.0004933-1.3509312,0.0003233c-0.0200424,0.0000365-0.0490608-0.0143986-0.0574188,0.0212183
		c-0.136692-0.1343248-0.2829075-0.2578886-0.4299927-0.38047c0.000885-0.0270095,0.0223236-0.0301766,0.0415077-0.0344431
		c0.0195484-0.004348,0.0397472-0.003139,0.0597057-0.0031421c0.480875-0.000073,0.96175-0.0000482,1.442625-0.0000377
		c0.0299664,0.000001,0.0602188-0.001606,0.0868149,0.0163021c0.1038971,0.1076064,0.1931553,0.2270308,0.2805271,0.3479502
		C20.804884,3.0948753,20.807272,3.1028743,20.8106995,3.1101241z"/>
	<path fill="#6E32F7" d="M11.3992949,2.8302429c0.0271826,0.0084054,0.0548763,0.0106075,0.0833874,0.0105827
		c0.4874554-0.0004239,0.9749088-0.0004702,1.4623613,0.000325c0.0187283,0.0000305,0.0450697-0.0136623,0.0550451,0.017643
		c-0.0782394,0.0687099-0.1595898,0.1338439-0.2321987,0.2089586c-0.0539398,0.0558007-0.1105633,0.1090057-0.1659927,0.163367
		c-0.0122423,0.0061574-0.0253325,0.0075521-0.0388365,0.0074279c-0.4547358-0.0041795-0.9094839-0.0004566-1.3642216-0.0022824
		c-0.0287895-0.0001156-0.061595,0.0064609-0.080287-0.0265663c0.0626955-0.1084776,0.1432371-0.2041192,0.218647-0.3034317
		C11.3569736,2.8802245,11.3785477,2.8555472,11.3992949,2.8302429z"/>
	<path fill="#7C3BF2" d="M10.498065,4.3596435c0.4094791,0.0002203,0.8189573,0.0003495,1.2284365,0.0008945
		c0.0237532,0.0000315,0.0516281-0.0084333,0.0652809,0.022459c-0.0638657,0.1515036-0.1277361,0.3030033-0.1916056,0.4545031
		c-0.0315857-0.0136943-0.0651398-0.0109787-0.0981579-0.0110006c-0.3588152-0.0002413-0.7176285-0.0000238-1.0764427-0.0003533
		c-0.0294504-0.0000272-0.0603714,0.0050316-0.0861921-0.0159078c0.0286121-0.1131988,0.069191-0.2223253,0.1125011-0.3305221
		c0.0058975-0.0176301,0.0135164-0.0347009,0.01723-0.0530396C10.4769354,4.4035425,10.4807606,4.3786826,10.498065,4.3596435z"/>
	<path fill="#AE5AE2" d="M16.1698246,4.6002588c0.1889305-0.0412273,0.3779297-0.0821495,0.5667782-0.1237473
		c0.3729191-0.0821419,0.7458115-0.1643991,1.1186047-0.2471094c0.2566433-0.0569406,0.5130711-0.1148534,0.7696533-0.1720772
		c0.1322689-0.0295,0.2646637-0.0584433,0.3970013-0.0876379c0.0485172,0.0358424,0.079916,0.0868425,0.1173382,0.1325068
		c-0.0062523,0.0337052-0.0361919,0.0298328-0.0585804,0.0349145c-0.3173637,0.0720282-0.6352901,0.1415534-0.9529076,0.2124639
		c-0.0261536,0.0058389-0.0513325,0.013392-0.0747147,0.0265512c-0.0607548,0.0018206-0.1154327-0.0260601-0.1739044-0.0356355
		c-0.0208111-0.0085168-0.0425625-0.006597-0.06423-0.0056515c-0.0394039,0.0001307-0.0787868,0.0003161-0.1181355,0.0000896
		c-0.0210419-0.0008788-0.0421638-0.0028725-0.062788,0.0036445c-0.0826855,0.0127769-0.1606007,0.0391469-0.2302017,0.0861206
		c-0.0646763,0.0436502-0.1110153,0.1028891-0.1402702,0.1754489c-0.0086212,0.0213823-0.0157242,0.0436273-0.0303326,0.0622363
		c-0.0169296,0.0210466-0.0412731,0.0267138-0.0658264,0.0321655c-0.3118629,0.0692368-0.6242065,0.1363053-0.9357338,0.2070613
		c-0.0113583,0.0025802-0.022789,0.0049691-0.0343399,0.0064335c-0.0452385,0.0057349-0.0524654,0.0000525-0.0517845-0.0463371
		c0.0005112-0.0347066-0.0048218-0.0697041,0.0036812-0.1041417C16.1487637,4.7041693,16.154459,4.6515779,16.1698246,4.6002588z"/>
	<path fill="#6B30F8" d="M20.5197372,2.7405353c-0.5191803,0-1.0383606-0.0000098-1.5575409,0.0000269
		c-0.0263805,0.0000017-0.0540009-0.0038457-0.0731125,0.0212932c-0.1623917-0.1253815-0.3383484-0.2304204-0.5108433-0.3406537
		c0.0266838-0.0243371,0.0598164-0.0164535,0.0905075-0.0164835c0.5320797-0.0005212,1.0641613-0.0006552,1.596241,0.0001576
		c0.0448418,0.0000684,0.0893612-0.0089478,0.1342316-0.0030575C20.3158512,2.5054603,20.4191017,2.6217601,20.5197372,2.7405353z"
		/>
	<path fill="#672EF9" d="M12.349206,1.9180877c0.006218,0.0333213,0.0329409,0.0220934,0.0521488,0.0221341
		c0.2915106,0.0006151,0.5830221,0.0004275,0.8745327,0.0004275c0.4444799,0,0.8889599,0.0002145,1.3334398-0.0004051
		c0.0357561-0.0000497,0.069396,0.0046831,0.1013126,0.0207076c-0.1496763,0.0483789-0.2999411,0.0950739-0.4456139,0.1549621
		c-0.0750303,0.0308459-0.1500235,0.0617781-0.2250338,0.0926709c-0.0363979-0.0054681-0.0729761-0.0014758-0.1094303-0.0014997
		c-0.5959339-0.0003884-1.1918688-0.0000868-1.7878017-0.0006545c-0.0389471-0.0000372-0.0809975,0.0079463-0.1127386-0.0258753
		C12.1332273,2.0891881,12.2352562,1.9963909,12.349206,1.9180877z"/>
	<path fill="#A755E4" d="M21.0603008,9.4110947c-0.0069275-0.0332127-0.0337811-0.0209818-0.0526829-0.0210114
		c-0.4123478-0.0006504-0.8246994-0.0000086-1.2370472-0.0009108c-0.0810337-0.0001774-0.1627083,0.0088959-0.2430153-0.010417
		c0.0958595-0.1148233,0.1928768-0.2287178,0.2814827-0.3493853c0.023756-0.0146914,0.0501423-0.0160532,0.0770893-0.0160494
		c0.4329453,0.0000629,0.8658924-0.0000401,1.2988396,0.0002499c0.0247154,0.0000162,0.0503235-0.002697,0.0723858,0.012969
		c0.0147209,0.0200291-0.0037498,0.0351067-0.0078983,0.0523405C21.1926003,9.1931467,21.1305809,9.3044701,21.0603008,9.4110947z"
		/>
	<path fill="#954AEA" d="M21.8694191,7.0099268c-0.0061226,0.1523452-0.0258675,0.3029103-0.0590496,0.4517193
		c-0.0281715-0.0262351-0.0630569-0.0258317-0.0983582-0.0258117c-0.3582649,0.0002079-0.7165337,0.000308-1.0747986-0.000165
		c-0.029314-0.0000381-0.0605946,0.0064044-0.0861797-0.0157895c0.0185223-0.0935283,0.0370464-0.187057,0.0555687-0.2805853
		c0.0184383-0.0129757,0.0003815-0.0353422,0.0128307-0.0498581L20.6192112,7.089829
		c0.0127239-0.0153685-0.0000019-0.0353351,0.0092735-0.0513258L20.627697,7.0394568
		c0.0094547-0.0450478,0.0439892-0.0457764,0.0796757-0.0457873c0.2441807-0.0000744,0.4883595,0.0000329,0.7325401-0.0000043
		c0.1195984-0.0000181,0.2392006-0.0003905,0.3587933,0.0003009C21.8231087,6.9941072,21.8491573,6.990088,21.8694191,7.0099268z"/>
	<path fill="#7536F5" d="M19.7295895,3.6010041c0.0075817-0.0331101,0.0345287-0.0199957,0.053215-0.0200262
		c0.4456329-0.0007231,0.891264-0.000562,1.3368969-0.0005617c0.0757351,0.1186821,0.1423321,0.2424273,0.2042961,0.3687384
		c-0.0245857,0.0242257-0.0560741,0.0170605-0.0850887,0.017103c-0.3770237,0.0005534-0.7540455,0.0004354-1.1310692,0.0002306
		c-0.0399227-0.0000215-0.0796909,0.0010347-0.1192627,0.0065489c-0.0461254-0.0660975-0.0923004-0.132158-0.1383533-0.1983049
		C19.8099384,3.7168734,19.7697945,3.6589177,19.7295895,3.6010041z"/>
	<path fill="#7335F5" d="M12.0899858,3.8669207c-0.0117531-0.0294521-0.0374374-0.0158517-0.0563488-0.015892
		c-0.4022999-0.0008593-0.8046017-0.0012529-1.2068949,0.0004871c-0.0322895,0.00014-0.0644855-0.0211513-0.0967436-0.0011992
		c0.0590563-0.1205647,0.1226559-0.2385807,0.1968365-0.3506575c0.0197582-0.0215485,0.0454473-0.0254793,0.0729427-0.0254915
		c0.4346781-0.0001888,0.8693571-0.0003479,1.3040352,0.0003164c0.0213203,0.0000327,0.0439034-0.0014033,0.060317,0.0171955
		c-0.0738249,0.1013844-0.1476126,0.2027957-0.2215014,0.3041344C12.1252537,3.8196423,12.107543,3.8432252,12.0899858,3.8669207z"
		/>
	<path fill="#9047EC" d="M21.8694191,7.0099268c-0.392067,0-0.7841358,0.0002718-1.1762009-0.0005698
		c-0.028265-0.0000606-0.0517445,0.0023336-0.0655098,0.030097c0.0093365-0.1011329,0.0158329-0.2026529,0.0293884-0.3032227
		c0.0056705-0.0420713-0.0089378-0.0863056,0.0135937-0.126245c0.0205994-0.0189762,0.0464573-0.0159822,0.0710773-0.0160079
		c0.3577156-0.0003691,0.7154293-0.0003967,1.0731449-0.0000739c0.0782967,0.0000706,0.0787048,0.0011992,0.0796337,0.0811238
		c0.0001373,0.0115609-0.0015717,0.0233531,0.0033302,0.0344753C21.888588,6.8096633,21.8934746,6.9111652,21.8694191,7.0099268z"/>
	<path fill="#833FF0" d="M10.1695013,5.5400615c0.0154018-0.1358585,0.0504179-0.267952,0.0771189-0.4016414
		c0.034194-0.0117288,0.0693235-0.0041437,0.103919-0.0041957c0.3555031-0.000536,0.7110062-0.0005302,1.0665092-0.0000005
		c0.0291052,0.0000429,0.060461-0.0067968,0.0854626,0.0165129c-0.0304623,0.1265655-0.0609245,0.2531304-0.0913868,0.3796959
		c-0.0194559,0.0164266-0.0431204,0.0157294-0.0663538,0.0157747c-0.3788729,0.0007434-0.7577477-0.0007172-1.1366205,0.0007763
		C10.1948776,5.5470362,10.1814384,5.5476384,10.1695013,5.5400615z"/>
	<path fill="#BB61DE" d="M13.0495195,4.7802472c0.0000019-0.0833216,0.0000048-0.1666431,0.0000067-0.2499652
		c0.0455809-0.0274291,0.0985203-0.0290065,0.1483202-0.0402207c0.5506153-0.1239967,1.1021566-0.2438383,1.6531038-0.3663621
		c0.0268164-0.0059633,0.0565262-0.0257974,0.08358,0.0020409c0.0007401,0.0792761,0.0004101,0.1585135,0.0001726,0.2377095
		c-0.0150194,0.0306339-0.0465975,0.029603-0.0728645,0.0353122c-0.2895842,0.0629463-0.5786705,0.12813-0.8680134,0.1921515
		c-0.2893429,0.0640206-0.5785418,0.128685-0.8679419,0.1924438C13.1003399,4.7889843,13.0741806,4.8003645,13.0495195,4.7802472z"
		/>
	<path fill="#8C44ED" d="M11.3420839,6.113327c-0.0008774,0.1188927-0.0017548,0.2377863-0.002634,0.3566794
		c-0.0256157,0.0218463-0.0567665,0.0157237-0.086072,0.0157619c-0.3425121,0.0004392-0.6850281,0.0006065-1.0275402-0.0001292
		c-0.0450859-0.0000973-0.0886984-0.0003037-0.1237011,0.0338788c-0.0005684-0.1222782-0.0015926-0.2445583-0.001195-0.3668332
		c0.0000572-0.0175519,0.0069733-0.0350814,0.0107155-0.0526209c0.0188322-0.0180774,0.0428925-0.0160785,0.0658712-0.0161037
		c0.3653994-0.0004039,0.7308006-0.0007515,1.0961943,0.000701C11.2979469,6.0847569,11.3328819,6.0720296,11.3420839,6.113327z"/>
	<path fill="#9B4EE8" d="M21.739666,7.7887926c-0.0172691,0.098959-0.0478191,0.1943979-0.0771141,0.2901583
		c-0.0023155,0.0075645-0.0063572,0.0145998-0.0095978,0.0218801c-0.0196476,0.0161047-0.0433617,0.0151043-0.0665169,0.0151224
		c-0.3968239,0.0002985-0.7936478,0.0003633-1.1904716-0.0001202c-0.0228367-0.0000277-0.0470753,0.0026293-0.065691-0.0160465
		c0.0422821-0.1169729,0.0845642-0.2339454,0.1268463-0.3509183c0.0199776-0.0149384,0.0433521-0.0152683,0.0667019-0.0152798
		c0.3836536-0.0001869,0.7673073-0.0005054,1.150959,0.0002446C21.7382202,7.7339573,21.7450314,7.7410879,21.739666,7.7887926z"/>
	<path fill="#BD63DD" d="M14.9290009,4.1203437c-0.2532787,0.0565763-0.5064831,0.1134953-0.75986,0.1696234
		c-0.2178869,0.0482664-0.4360275,0.0953889-0.6539526,0.1434789c-0.1420317,0.0313425-0.2838411,0.0636911-0.4258804,0.0950022
		c-0.0127745,0.0028162-0.0264969,0.0013251-0.0397816,0.0018339c-0.0007696-0.0665345,0.0001516-0.1331496-0.0030136-0.1995697
		c-0.0016174-0.0339432,0.0113163-0.0412664,0.0426559-0.0416274c0.1315775-0.0015154,0.2624245-0.0123296,0.3917017-0.0384955
		c0.1569996-0.0317769,0.3016911-0.0912809,0.4295139-0.1891818c0.0271254,0.0045123,0.0525208-0.0051651,0.0780525-0.010869
		c0.2834616-0.0633256,0.5671158-0.1257951,0.8507767-0.1881995c0.0304708-0.0067039,0.0659447-0.0320935,0.0955811,0.0053384
		C14.9313145,3.9519086,14.9425488,4.0364103,14.9290009,4.1203437z"/>
	<path fill="#B15BE1" d="M19.1994209,10.2503719c0.0102158-0.023654,0.0312061-0.0209122,0.0511189-0.0209112
		c0.3756027,0.0000095,0.7512054-0.0000105,1.1268063,0.0000572c0.0196018,0.0000038,0.0409565-0.0040073,0.052103,0.0192299
		c-0.1545639,0.1781912-0.3232498,0.3419847-0.5012798,0.4966288c-0.0585957,0.0508995-0.1158619,0.1030855-0.1778526,0.150012
		c-0.0175667,0.013298-0.0260887,0.0134153-0.0397377-0.0036736c-0.1675854-0.2098227-0.3357658-0.4191675-0.503706-0.6287041
		C19.203846,10.2592344,19.2018814,10.2546053,19.1994209,10.2503719z"/>
	<path fill="#A453E5" d="M21.2597923,9.0396137C21.243269,9.0224524,21.2220039,9.0300026,21.20294,9.0299816
		C20.738306,9.0294542,20.2736721,9.02946,19.8090382,9.0293703c0.0667095-0.0999374,0.1334209-0.1998768,0.2001286-0.2998152
		c0.0162354-0.0240917,0.0413876-0.025733,0.0667019-0.0257664c0.426199-0.0005589,0.8523998-0.0006742,1.2785969,0.0002317
		c0.024353,0.0000525,0.05126-0.0020351,0.0654831,0.0257607c-0.0503616,0.1034622-0.0924053,0.21101-0.1521988,0.3098412
		C21.2650909,9.0444126,21.2624397,9.0444117,21.2597923,9.0396137z"/>
	<path fill="#9F50E7" d="M20.3302746,8.0997877c0.4408913,0.0003462,0.8817825,0.0006943,1.3226776,0.0010424
		c0.0007725,0.0068111,0.0062523,0.0147419-0.0044746,0.0188169c-0.0107117,0.0261259-0.0168514,0.0539055-0.0288048,0.0795822
		c-0.0238895,0.0745592-0.0475922,0.1491804-0.0718422,0.2236233c-0.0044689,0.0137281-0.0111427,0.0267401-0.0167999,0.0400829
		c-0.0322227-0.0160131-0.0667019-0.0172319-0.1018486-0.0172062c-0.3886108,0.0002909-0.7772217,0.0003729-1.1658325-0.0001478
		c-0.0290813-0.0000391-0.0604362,0.0068979-0.0854454-0.016407C20.2286949,8.3193789,20.2794857,8.2095823,20.3302746,8.0997877z"
		/>
	<path fill="#B65FDF" d="M13.0495195,4.7802472c0.0782204-0.0041051,0.1526394-0.0284162,0.2283325-0.0449295
		c0.4473934-0.0976038,0.8942986-0.1974382,1.3413715-0.2965059c0.1032448-0.0228782,0.2065048-0.0456896,0.3097582-0.068532
		c0.0136185,0.0835595,0.0022163,0.1677032,0.0058699,0.2514329c-0.0079527,0.0261621-0.0320797,0.0265784-0.0523291,0.0311031
		c-0.3446674,0.0770116-0.6894569,0.1534762-1.0342054,0.2301202c-0.0258989,0.0057583-0.0533638,0.0035172-0.0779257,0.0156417
		c-0.228838,0.0005517-0.4576788,0.0007272-0.6865101,0.0021496c-0.0274649,0.0001702-0.0394621-0.0073233-0.0369644-0.0361238
		C13.0493422,4.8366199,13.0487738,4.8083768,13.0495195,4.7802472z"/>
	<path fill="#B15BE1" d="M12.800889,10.2612448c-0.075407,0.098464-0.1518755,0.1954508-0.2364264,0.287035
		c-0.0957651,0.1037321-0.1791887,0.2190599-0.2650852,0.3315544c-0.0219135,0.0286989-0.0375338,0.0290766-0.0620337,0.0081949
		c-0.0666924-0.0568447-0.1345091-0.1123867-0.2007322-0.1697655c-0.1246176-0.1079788-0.2390032-0.2266626-0.3559132-0.3426971
		c-0.036375-0.0361013-0.073143-0.0717449-0.1006756-0.1155005c-0.0097036-0.0241556,0.0084743-0.0286598,0.024456-0.0330629
		c0.0177574-0.0048933,0.0363321-0.0038366,0.0546303-0.0038424c0.3544989-0.0001068,0.7089977-0.0001202,1.0634966,0.0000067
		c0.0182972,0.0000067,0.0368567-0.0009537,0.0546055,0.0040703C12.7936478,10.2318907,12.81075,10.2376032,12.800889,10.2612448z"
		/>
	<path fill="#AE5AE2" d="M12.800889,10.2612448c-0.0029144-0.0239363-0.0209522-0.0217571-0.0376654-0.0217571
		c-0.381608-0.0000134-0.7632141-0.0000391-1.1448212,0.0000715c-0.0161066,0.0000057-0.0350657-0.0040216-0.0383797,0.020505
		c-0.0914068-0.0958185-0.1836071-0.1909542-0.2590017-0.3005705c0.036911-0.0295162,0.0812292-0.0258188,0.1239204-0.0259151
		c0.282712-0.0006399,0.5654287-0.0003414,0.8481436-0.0003128c0.2178555,0.000021,0.4357195-0.0008726,0.6535625,0.000885
		c0.031558,0.0002546,0.0733442-0.011673,0.0848789,0.0379515c-0.0700684,0.0829563-0.1381178,0.1674805-0.2009087,0.2561636
		C12.8221264,10.2402611,12.8108673,10.2503004,12.800889,10.2612448z"/>
	<path fill="#652DFA" d="M19.6605492,1.9283968c-0.0018272,0.0129697-0.007885,0.0217264-0.0222301,0.0219176
		c-0.0149689,0.0001998-0.0299377,0.0003201-0.0449085,0.0003206c-0.6487331,0.000015-1.2974663-0.0003157-1.9461994,0.0003176
		c-0.1160336,0.0001134-0.2324066-0.0073544-0.3479977,0.009945c-0.1303692-0.0308437-0.25984-0.0654131-0.3916378-0.0902681
		c-0.1461163-0.027555-0.2923203-0.0537091-0.4411182-0.0619963c-0.0059395-0.0003307-0.0116405-0.0049825-0.0174541-0.0076208
		c0.980505-0.0236557,1.9611645-0.0037239,2.9417286-0.0107147c0.0235119-0.0001677,0.0511417,0.0102719,0.0683651-0.0172091
		C19.5289555,1.8213471,19.6002102,1.8677937,19.6605492,1.9283968z"/>
	<path fill="#8A43EE" d="M20.6705627,6.2600365c-0.0038528-0.0859799-0.0077038-0.1719594-0.0115566-0.2579389
		c-0.0080585-0.0285134-0.0032883-0.0574613-0.002924-0.0862799c0.0213718-0.0300899,0.0538082-0.0214124,0.0822945-0.0214729
		c0.3473244-0.0007348,0.6946468-0.0007286,1.0419712,0.0000129c0.0326462,0.0000696,0.0663509-0.010056,0.0982189,0.0057554
		c0.0120411,0.1628966,0.0285282,0.3256183,0.0193081,0.4893541c-0.0262337-0.0074086-0.0215988-0.0303845-0.0234585-0.0489287
		c-0.0063992-0.0637164-0.0059566-0.0642648-0.0719261-0.0643487c-0.2224808-0.0002804-0.4449596-0.0000858-0.6674404-0.0001125
		c-0.1311607-0.0000162-0.2623253,0.0002732-0.3934879-0.0002265C20.7169781,6.2757573,20.6912098,6.2787819,20.6705627,6.2600365z"
		/>
	<path fill="#7F3DF1" d="M11.502511,5.1507368c-0.3944016-0.0001817-0.7888012-0.0003729-1.1832018-0.0005221
		c-0.024888-0.00001-0.0501232,0.0024481-0.0726843-0.0117922c0.0270081-0.1105013,0.0553675-0.2206197,0.092761-0.3281841
		c0.4031382,0.000001,0.8062792-0.0001669,1.2094183,0.0005045c0.0198631,0.0000329,0.0508127-0.0135312,0.0513725,0.0267596
		C11.5676212,4.9419127,11.5350657,5.0463247,11.502511,5.1507368z"/>
	<path fill="#8E46ED" d="M20.6705627,6.2600365c0.3855572-0.000001,0.7711143,0.0009694,1.1566601-0.0011892
		c0.0501747-0.0002804,0.0698071,0.0117102,0.0634079,0.0632086c-0.0027027,0.0217376-0.008461,0.0464787,0.0072441,0.0674119
		c0,0.1066785,0.0000019,0.2133579,0.0000019,0.3200364c-0.0081539-0.0076108-0.0078049-0.0176296-0.0082779-0.0276494
		c-0.0033951-0.0718694-0.0034599-0.0718703-0.0772629-0.0718703c-0.3805504-0.0000005-0.761097,0.000001-1.1416454,0.0000019
		C20.6706467,6.4933362,20.6706047,6.3766866,20.6705627,6.2600365z"/>
	<path fill="#984CE9" d="M21.739666,7.7887926c0.0058613-0.0419731-0.0220585-0.0391955-0.0500832-0.0391736
		c-0.3892021,0.000299-0.7784081,0.0002179-1.1676121,0.0001616c-0.021616-0.0000029-0.0432301-0.0005937-0.0648479-0.0009117
		c0.0313015-0.1096635,0.0626049-0.219326,0.0939102-0.328989c0.4021072-0.0000033,0.8042145,0.0001526,1.2063198-0.0003285
		c0.0305786-0.0000362,0.0584221-0.0011163,0.0530167,0.0420933C21.7927418,7.571979,21.7723694,7.6817179,21.739666,7.7887926z"/>
	<path fill="#A956E4" d="M11.0068159,9.5207815c-0.0512667-0.0788145-0.1045914-0.1563759-0.1466675-0.2407866
		c-0.0110264-0.0301085,0.0141993-0.0332012,0.0314484-0.0395565c0.0237303-0.0087423,0.0492964-0.0069342,0.0742741-0.0069485
		c0.4465351-0.000246,0.8930702,0.0001926,1.3396063-0.0003119c0.0184174-0.000021,0.036664,0.000289,0.0542326,0.00667
		c0.084218,0.0864105,0.1634703,0.1772585,0.240941,0.2696962c-0.0209904,0.0286512-0.0525074,0.0258112-0.0820665,0.0259819
		c-0.1466255,0.0008516-0.2932568,0.0003538-0.4398851,0.0003691c-0.328249,0.0000315-0.6564989,0.000083-0.9847479-0.0000925
		C11.0641584,9.5357876,11.033556,9.5391092,11.0068159,9.5207815z"/>
	<path fill="#7D3BF2" d="M20.42136,4.890224c-0.0372066-0.0999689-0.0744114-0.1999373-0.1116199-0.2999063
		c-0.012434-0.0258861,0.0014248-0.0373402,0.0242882-0.0425758c0.0229149-0.0052481,0.0464249-0.003644,0.0697193-0.0036845
		c0.3748169-0.0006466,0.7496338,0.0011363,1.1244488-0.0010242c0.0151119-0.0000873,0.0299835-0.0000129,0.0441723,0.0059781
		c0.0436039,0.1078634,0.083559,0.2168984,0.1064873,0.3314042c-0.0205231,0.0344839-0.0552101,0.0254817-0.0852261,0.025579
		c-0.2689781,0.0008702-0.5379601,0.0004821-0.8069401,0.0004849c-0.0979633,0.000001-0.1959248,0.0000916-0.2938881-0.0000587
		C20.4677582,4.9063821,20.442749,4.906323,20.42136,4.890224z"/>
	<path fill="#682FF9" d="M12.0300217,2.1805553c0.0488377,0.0122919,0.0986328,0.0101154,0.1483297,0.0101089
		c0.602128-0.0000782,1.2042551-0.0001862,1.8063822,0.000582c0.0187426,0.0000238,0.0449839-0.0136862,0.0552588,0.0173392
		c-0.1367083,0.0703416-0.2734165,0.1406841-0.4101257,0.2110257c-0.0205812-0.023005-0.0481129-0.0189965-0.0745106-0.0189981
		c-0.5614662-0.0000386-1.1229334,0.0000727-1.6843996-0.0004377c-0.0205193-0.0000188-0.0437336,0.0087962-0.0612822-0.01074
		C11.8768139,2.3131535,11.9514627,2.2447925,12.0300217,2.1805553z"/>
	<path fill="#8F47EC" d="M10.1021376,6.5195179c0.006259-0.040813,0.0283689-0.0510025,0.0702181-0.0507736
		c0.3890228,0.00213,0.7780619,0.0012612,1.1670942,0.0012622c-0.0000477,0.1170554,0.0130548,0.2333298,0.0207863,0.3499231
		c-0.3908195-0.0086098-0.7816906-0.0014138-1.1725283-0.004065c-0.0261412-0.0001774-0.053854,0.0043502-0.0760517-0.0159044
		C10.0911484,6.7070675,10.1024408,6.6130958,10.1021376,6.5195179z"/>
	<path fill="#A252E6" d="M20.1779041,8.4291725c0.4337101,0.000185,0.8674221,0.000351,1.3011322,0.000598
		c0.0241623,0.0000134,0.053154-0.0068712,0.0519924,0.0331583c-0.0359993,0.0893822-0.0649624,0.1816874-0.1110802,0.2668524
		c-0.0180225-0.0111208-0.0380516-0.0101767-0.0581074-0.0101719c-0.4314842,0.0000963-0.8629665,0.000103-1.2944527-0.00002
		c-0.0200882-0.0000057-0.0400391-0.0005522-0.0582218,0.0099659C20.0654106,8.629427,20.1216564,8.5293007,20.1779041,8.4291725z"
		/>
	<path fill="#7A39F3" d="M21.5723686,4.5490112c-0.0209942,0.0131321-0.044426,0.0113158-0.0676689,0.0113115
		c-0.3804188-0.0000663-0.7608376-0.0002322-1.1412544,0.0004435c-0.021368,0.0000377-0.054512-0.0138993-0.0537052,0.029551
		c-0.0504208-0.1058445-0.1008415-0.2116899-0.1512623-0.3175359c-0.0019321-0.0277448,0.0187054-0.0322118,0.0385303-0.0361047
		c0.0196266-0.0038543,0.0397511-0.0026393,0.0596867-0.0026422c0.3722878-0.0000563,0.7445793-0.0001554,1.116869,0.0001864
		c0.0294304,0.0000267,0.0604267-0.0052285,0.086134,0.0160847C21.4994755,4.3490367,21.5479946,4.4444704,21.5723686,4.5490112z"/>
	<path fill="#692FF9" d="M17.3414516,8.2154818c-0.0474072,0.0430918-0.1107426,0.0386629-0.1669064,0.0520544
		c-0.2023544,0.0482531-0.4061127,0.0906105-0.6093464,0.1351748c-0.077383,0.0169687-0.1549168,0.0332909-0.2320271,0.0514126
		c-0.0129147,0.0030346-0.0224628,0.0005112-0.0329838-0.004425c-0.0643654-0.1086063-0.1032085-0.2264042-0.1260681-0.3499594
		c0.0103378-0.0180168,0.0286312-0.0212622,0.0466118-0.0252686c0.3071671-0.0684662,0.6147938-0.1348553,0.9217606-0.2042189
		c0.0210133-0.0047469,0.0425072-0.0086808,0.0643044-0.0041485c0.0147438,0.0092597,0.0143547,0.0249434,0.0163689,0.0394583
		c0.0138092,0.0995493,0.0389671,0.1945868,0.1063595,0.273366C17.3381844,8.1890488,17.343914,8.2012033,17.3414516,8.2154818z"/>
	<path fill="#7838F4" d="M21.4596977,4.2503057c-0.4120064,0.0000048-0.8240128-0.0000892-1.2360172,0.0002713
		c-0.0236244,0.00002-0.0515461-0.0087428-0.0652008,0.022202c-0.0579014-0.099196-0.1190414-0.1965594-0.1699009-0.2997453
		c0.0062637-0.0330877,0.032814-0.0222344,0.0521221-0.022269c0.316246-0.0005662,0.632494-0.000299,0.9487419-0.000457
		c0.1115112-0.0000556,0.2230167-0.0007493,0.3345394-0.0011525C21.373354,4.0476804,21.4195423,4.147634,21.4596977,4.2503057z"/>
	<path fill="#7134F6" d="M12.36413,3.4916797c-0.4628954-0.0004134-0.9257889-0.000921-1.3886843-0.0008507
		c-0.0161972,0.0000026-0.0323925,0.0057566-0.0486002,0.0088301c0.0597124-0.0994189,0.1162949-0.2009134,0.1917095-0.2899597
		c0.0210934,0.0131783,0.0446501,0.0107787,0.067852,0.0107782c0.4440584-0.0000143,0.8881187,0.0001266,1.3321772-0.0003304
		c0.0285444-0.0000296,0.0561771,0.0024321,0.083312,0.0109713C12.5214195,3.3168578,12.4502087,3.4110501,12.36413,3.4916797z"/>
	<path fill="#8641EF" d="M10.1695013,5.5400615c0.0181818-0.010385,0.0380745-0.0100389,0.0581684-0.0100274
		c0.3944845,0.0002375,0.788969,0.0003004,1.1834536,0.0003986c-0.0003481,0.0065908-0.0006962,0.0131807-0.0010424,0.0197721
		c-0.0119743,0.0148778,0.0019541,0.0348778-0.0098457,0.0497909c-0.0131702,0.1034207-0.0263424,0.2068424-0.0395145,0.3102632
		c-0.0405197-0.0555902-0.10009-0.0440369-0.1562033-0.0440564c-0.3291988-0.0001116-0.6583986,0.0001101-0.9875975-0.0003147
		c-0.0293446-0.0000386-0.0604506,0.0058513-0.0861187-0.0157952C10.1376886,5.7459984,10.1490536,5.6424632,10.1695013,5.5400615z"
		/>
	<path fill="#AB58E3" d="M11.0068159,9.5207815c0.5035028-0.0004044,1.0070066-0.0009212,1.5105104-0.0009155
		c0.0284529,0.000001,0.0561476-0.0020103,0.0833244-0.0103216c0.0458536,0.0306702,0.0794334,0.0744247,0.1189184,0.1118717
		c0.0443163,0.0420303,0.0875044,0.0852499,0.1311836,0.1279507c-0.0207567,0.0291376-0.0524473,0.0257292-0.0818739,0.025938
		c-0.1316023,0.0009394-0.2632113,0.0003853-0.3948183,0.0003977c-0.3581705,0.0000334-0.716342,0.0000381-1.0745115-0.0000277
		c-0.0366592-0.0000067-0.073266,0.0005589-0.1096973,0.0051479C11.1218081,9.6990919,11.0617247,9.6117573,11.0068159,9.5207815z"
		/>
	<path fill="#A453E5" d="M10.7176895,9.0208569c-0.0502768-0.0867672-0.0954304-0.1759377-0.1272764-0.271349
		c0.0026741-0.0230026,0.021821-0.022028,0.0373621-0.0243196c0.0214252-0.0031595,0.0432262-0.0017071,0.0648718-0.0017233
		c0.4197159-0.0003185,0.8394327,0.000555,1.2591476-0.0004778c0.0166292-0.000041,0.0334139-0.0015917,0.0489597,0.0064487
		c0.0594912,0.0901451,0.1189823,0.1802902,0.1784744,0.2704353c-0.0172443,0.03158-0.048296,0.0253706-0.075387,0.0254993
		C11.9009542,9.02633,11.698061,9.0256128,11.4951696,9.0259104c-0.244463,0.0003586-0.4889288-0.0012102-0.7333899,0.0009136
		C10.7466965,9.0269547,10.7318411,9.0269032,10.7176895,9.0208569z"/>
	<path fill="#954AEA" d="M10.1470947,7.2205205c0.0028067-0.0371866-0.0155764-0.0730543-0.0068874-0.1106076
		c0.0176249-0.0158048,0.0395145-0.015974,0.06112-0.015996c0.3769064-0.0003829,0.7538118-0.0004821,1.1307173-0.0000339
		c0.0332489,0.0000391,0.0638618,0.0037117,0.0689774,0.0458827c0.0193148,0.0933714,0.0386276,0.1867428,0.0579405,0.2801142
		c-0.018899,0.0180416-0.0429859,0.0159106-0.0659771,0.0159316c-0.3806362,0.0003586-0.7612734,0.0004177-1.1419106,0.0000534
		c-0.0166073-0.0000162-0.0332947-0.0001478-0.0493231-0.0057068c-0.0100193-0.0036678-0.0163031-0.0111227-0.0206709-0.0204973
		l-0.0003605-0.0005903c-0.0136299-0.0178275,0.0035639-0.0414228-0.011054-0.0590649l0.0002947,0.0004578
		c-0.0108156-0.0191693,0.0014553-0.0414391-0.0081644-0.0607686l-0.0008545-0.0011663
		C10.1453371,7.2680964,10.1672955,7.2400174,10.1470947,7.2205205z"/>
	<path fill="#9248EB" d="M11.401022,7.1397657c-0.012023-0.0308399-0.037384-0.0302539-0.0648985-0.0302172
		c-0.3986387,0.0005312-0.7972775,0.0003643-1.1959162,0.0003643c-0.0227413-0.0371804-0.01332-0.080585-0.0171146-0.1198616
		c-0.0060635-0.0627694-0.0217085-0.1260414-0.0114365-0.1900911c0.39534-0.000001,0.790679,0.0000234,1.1860189-0.0000696
		c0.0231447-0.0000057,0.0469971-0.0031815,0.062561,0.0200391c0.0002127,0.0032673,0.0004263,0.0065341,0.000638,0.0098014
		c-0.0084524,0.0168438-0.0103893,0.0335112,0.0013561,0.0498052C11.3751621,6.966279,11.388092,7.0530229,11.401022,7.1397657z"/>
	<path fill="#6B30F8" d="M19.3737659,6.2531481C19.3749275,6.266335,19.3771,6.27952,19.3771057,6.2927074
		c0.0001736,0.4614577,0.0001717,0.9229155-0.0000095,1.3843732c-0.0000038,0.0131798-0.0022316,0.0263581-0.0034237,0.0395374
		c-0.0256367-0.017622-0.0162964-0.0447521-0.0175724-0.0683475c-0.0027523-0.0509119-0.0060081-0.0554228-0.0561924-0.0445857
		c-0.1654644,0.0357294-0.3305569,0.0731783-0.4958344,0.1097651c-0.145834,0.0322833-0.2914562,0.0655427-0.4375591,0.0965834
		c-0.0212975,0.0045247-0.0450974,0.0179691-0.0642166-0.0065441c-0.0133419-0.1126437-0.0131092-0.2252593-0.0002842-0.3378668
		c0.0207119-0.0290556,0.0543747-0.0298152,0.0843964-0.0364728c0.3017673-0.0669222,0.6034718-0.1341372,0.9051399-0.2014985
		c0.0616341-0.0137634,0.0634384-0.0158448,0.0637569-0.0792832c0.0004101-0.0814257-0.000267-0.1628528,0.0000954-0.2443285
		c-0.0023689-0.0777931-0.0013123-0.1555405-0.0005169-0.233294C19.353653,6.6110368,19.3535595,6.5513382,19.35532,6.4916477
		c-0.0020313-0.0599728-0.0011177-0.119966-0.0004005-0.1799345C19.3551693,6.2908502,19.3513336,6.267415,19.3737659,6.2531481z"/>
	<path fill="#9F51E7" d="M10.4455271,8.4006033c-0.019928-0.0560522-0.0446892-0.1105165-0.055707-0.1694975
		c-0.0108662-0.0245333-0.0005322-0.0380812,0.0233727-0.0436411c0.0228624-0.0053158,0.0462694-0.0038691,0.0694904-0.0038748
		c0.3454456-0.0000877,0.6908903,0.0000286,1.036335-0.0001497c0.0497999-0.0000257,0.0996714,0.0021362,0.1493778-0.0027361
		c0.0208445-0.0020428,0.0399389,0.0000849,0.0534601,0.0186386c0.0428553,0.0901098,0.0857086,0.1802206,0.1285629,0.2703314
		c-0.0191107,0.0327311-0.0519133,0.0256519-0.0806904,0.0257711c-0.2099333,0.0008678-0.4198713,0.000391-0.6298084,0.0004587
		c-0.2016058,0.0000658-0.4032106-0.0001564-0.6048164,0.0000687c-0.0181732,0.00002-0.0367975,0.002799-0.0539207-0.0064259
		c-0.0064383-0.0075979-0.012743-0.0152569-0.0120783-0.0261364C10.4615145,8.4423733,10.4601431,8.4190025,10.4455271,8.4006033z"
		/>
	<path fill="#9B4EE8" d="M11.5313015,7.6896238c0.0305624,0.089963,0.0611248,0.1799259,0.0916872,0.2698894
		c-0.0132847,0.0094171-0.0285177,0.0072231-0.0433426,0.0071526c-0.3802538-0.0018148-0.7605085-0.000174-1.1407642-0.0008788
		c-0.043211-0.0000801-0.0863228,0.0006065-0.1292715,0.0057316c-0.0390501-0.1006608-0.0653076-0.2045512-0.0787125-0.311687
		c0.0154829-0.0164123,0.0361986-0.01578,0.0559549-0.0158153c0.3915749-0.0007043,0.7831488-0.0005832,1.1747236-0.0002379
		C11.4949827,7.6438084,11.5255527,7.6477346,11.5313015,7.6896238z"/>
	<path fill="#8741EF" d="M21.8785667,5.9001131C21.8530579,5.9084644,21.826973,5.910399,21.8001213,5.910368
		c-0.361227-0.0004239-0.7224503-0.0004077-1.0836773,0.0000601c-0.0190506,0.0000248-0.0403156-0.0075417-0.0568123,0.009654
		c-0.0030651,0.0045357-0.0061302,0.0045342-0.009201,0.0000062c-0.0004272-0.0194473-0.0008583-0.0388951-0.0012875-0.0583425
		c-0.0109024-0.0194163,0.0027618-0.0424151-0.0090027-0.0617056l-0.0001755-0.0003943
		c-0.0130024-0.0182023,0.0029297-0.0413928-0.0102711-0.0595613c-0.0003395-0.0122809-0.000679-0.0245624-0.0010185-0.0368433
		c-0.0072041-0.015852-0.0017662-0.0329857-0.0050354-0.0492644c-0.0122185-0.0608377-0.0067482-0.0694523,0.0554714-0.0696206
		c0.3660927-0.0009942,0.7321873-0.00068,1.09828-0.0001864c0.0214882,0.0000286,0.0437317-0.0007229,0.0608788,0.0163779
		c0.0189762,0.0793624,0.0229626,0.1607819,0.0323792,0.2414231C21.8729191,5.8614335,21.871397,5.881309,21.8785667,5.9001131z"/>
	<path fill="#692FF9" d="M20.1992207,2.4018183c-0.0256557,0.018945-0.0553017,0.0188878-0.0853405,0.0188894
		c-0.5785446,0.000035-1.1570892,0.0002861-1.7356377,0.0004935c-0.0771179-0.0406733-0.1542072-0.0813992-0.2313652-0.1219957
		c-0.0321331-0.0169072-0.0644112-0.0335395-0.0966225-0.0502982c0.0150394-0.0264215,0.0407639-0.0180135,0.0628662-0.0180261
		c0.6055183-0.0003419,1.2110386-0.0004513,1.8165569,0.0002644c0.0295563,0.000035,0.059164-0.00951,0.0886974-0.0002327
		C20.0907326,2.2751045,20.1411915,2.3424659,20.1992207,2.4018183z"/>
	<path fill="#A252E6" d="M10.4811831,8.4895468c0.0211706-0.0136871,0.0449829-0.0097284,0.0680246-0.0097361
		c0.4110575-0.0001287,0.822114-0.0000753,1.2331724-0.0001411c0.023118-0.0000029,0.0468206,0.0032558,0.0680389-0.0099955
		c0.0562925,0.0830107,0.1013584,0.1725168,0.1503353,0.2597618c-0.0211325,0.013279-0.0447693,0.0102072-0.0678663,0.01021
		c-0.4285774,0.0000477-0.8571529-0.0000696-1.2857304,0.0003815c-0.0190125,0.00002-0.0402126-0.0075474-0.0567446,0.0094805
		C10.5427561,8.6675797,10.5104923,8.5791836,10.4811831,8.4895468z"/>
	<path fill="#A655E5" d="M10.7176895,9.0208569c0.0226145-0.0141897,0.0478973-0.011198,0.0726824-0.011199
		c0.4403114-0.0000219,0.880621,0.0000181,1.3209324-0.0001125c0.0230007-0.0000076,0.0467806,0.0039921,0.0679245-0.0096741
		c0.0601606,0.0799923,0.1203203,0.1599846,0.180481,0.2399769c-0.0212154,0.0132856-0.0449247,0.0096836-0.0679655,0.0096884
		c-0.4502125,0.0000973-0.900425,0.0000219-1.3506374,0.0001812c-0.0304699,0.0000105-0.0633173-0.0047464-0.0809584,0.0302763
		C10.8132229,9.1933069,10.7564421,9.1120367,10.7176895,9.0208569z"/>
	<path fill="#662DFA" d="M18.3115273,7.8098149c0.2371979-0.0532923,0.4743614-0.1067414,0.7116127-0.159802
		c0.0984478-0.0220184,0.1975441-0.0413365,0.2954159-0.0656338c0.0429382-0.0106597,0.0535583,0.0030828,0.0519104,0.0430527
		c-0.0012207,0.0295725-0.0052338,0.0597825,0.0032196,0.0892024c0.009306,0.061398-0.0022907,0.1221585-0.0057373,0.1831732
		c-0.1144314,0.0243745-0.2290497,0.0478978-0.3432522,0.0732985c-0.2446232,0.0544076-0.4889927,0.1099648-0.7336178,0.1643806
		c-0.0170307,0.003787-0.036335,0.0085564-0.0512505-0.007864c-0.010252-0.012414-0.0061054-0.0257092-0.0003147-0.0375643
		c0.0373173-0.0763893,0.0471859-0.1590281,0.056406-0.2418957C18.2975578,7.8354387,18.2974243,7.8198128,18.3115273,7.8098149z"/>
	<path fill="#813EF1" d="M13.871788,7.6798182c-0.0000019-0.1099815-0.0000057-0.2199626-0.0000095-0.3299441
		c0.0147648-0.0155096,0.0348015-0.0185571,0.0542727-0.0227304c0.3106117-0.0665693,0.6203833-0.1369319,0.9306326-0.2051268
		c0.02491-0.0054755,0.0536013-0.0247951,0.0779629,0.0041285c0.000556,0.1050549,0.0002041,0.2100635,0.0001831,0.3150225
		c-0.0043468,0.0250974-0.0247631,0.0285063-0.0444975,0.0328336C14.5746784,7.5432091,14.2591,7.6127548,13.9435501,7.6824422
		C13.9200401,7.6876349,13.89499,7.6988206,13.871788,7.6798182z"/>
	<path fill="#7839F4" d="M13.871788,7.6798182c0.1322041-0.0196919,0.261013-0.0555038,0.3916216-0.0827851
		c0.2160816-0.0451345,0.431694-0.0925031,0.6474562-0.1391573c0.0063276-0.0013685,0.012105-0.005281,0.0181398-0.008008
		c0.0130711,0.0654035,0.0032406,0.1314874,0.005621,0.197217c0.0014982,0.0413551,0.0003538,0.0828109,0.000227,0.124157
		c-0.0062771,0.0229816-0.0274153,0.0218511-0.0442657,0.0256739c-0.3200512,0.0726094-0.6406317,0.1428523-0.9609737,0.2141643
		c-0.0188313,0.0041933-0.0388918,0.012146-0.0578232-0.0013266C13.8717899,7.899775,13.871788,7.7897964,13.871788,7.6798182z"/>
	<path fill="#BB61DE" d="M18.2901573,3.592294c0.0081425,0.0350385-0.0235577,0.0272875-0.0378323,0.0308194
		c-0.1091747,0.0270145-0.2188053,0.0522761-0.3286343,0.0765393c-0.2196541,0.0485244-0.4395676,0.0958822-0.6592999,0.1440589
		c-0.25527,0.0559683-0.5105076,0.1120856-0.7655888,0.1689012c-0.0190372,0.0042396-0.0362778,0.0134802-0.0401974-0.0160241
		c0.1329212-0.1539507,0.301981-0.2544725,0.489336-0.3259089c0.2943974-0.1122484,0.6017513-0.13921,0.9134731-0.1291234
		c0.1308823,0.0042355,0.2624359,0.0082741,0.3894138,0.0476606C18.2630768,3.5930169,18.2770081,3.5913975,18.2901573,3.592294z"/>
	<path fill="#AE59E2" d="M13.8717823,5.4301257c0-0.1066465-0.000001-0.2132931-0.000001-0.3199391
		c0.0137978-0.0139971,0.0324326-0.0160141,0.0501747-0.0199161c0.3004494-0.0660753,0.6005764-0.1336088,0.9011431-0.1991348
		c0.0359583-0.0078397,0.0760403-0.0329127,0.1114836,0.0047345c0.0006475,0.1023741,0.0003347,0.2047024,0.000164,0.3069825
		c-0.0041504,0.0162196-0.0182047,0.0175691-0.031086,0.0202208c-0.3243828,0.0667901-0.6467285,0.1428366-0.9702921,0.2133532
		C13.9123049,5.4410176,13.8907642,5.447258,13.8717823,5.4301257z"/>
	<path fill="#9D4FE8" d="M10.3096104,7.9715185c0.0029459-0.0238576,0.020936-0.0217042,0.0376205-0.0217047
		c0.4107952-0.0000072,0.8215914-0.0001025,1.2323866,0.0004072c0.0144567,0.0000176,0.028904,0.0060568,0.0433636,0.0092912
		c0.0329618,0.0799441,0.0659161,0.1598878,0.0988731,0.2398314c-0.0324097-0.0186768-0.0645952,0.0016193-0.0969973,0.0014839
		c-0.3940039-0.0016489-0.7880192-0.0011902-1.1820307-0.0007563c-0.022398,0.0000257-0.054163-0.0112467-0.0530062,0.0310326
		C10.3512535,8.1482315,10.3301926,8.0599489,10.3096104,7.9715185z"/>
	<path fill="#7838F4" d="M16.1416416,7.5598388c0-0.1033163,0-0.2066326,0.0000019-0.3099489
		c0.0192184-0.0215926,0.0465221-0.0244346,0.072176-0.0301404c0.3062916-0.0681238,0.6130238-0.1342607,0.9192619-0.2026353
		c0.024931-0.0055661,0.0517292-0.0181618,0.0739517,0.0077338c0.0120831,0.0994353,0.0098858,0.1989045,0.0012321,0.2983809
		c-0.0145435,0.0245252-0.0408306,0.0272293-0.0646095,0.0324922c-0.3118057,0.0689998-0.623394,0.1389666-0.9352436,0.2077613
		C16.1863766,7.5683427,16.1629372,7.5778441,16.1416416,7.5598388z"/>
	<path fill="#6F33F7" d="M14.92906,7.7798076c-0.0000114-0.1099801-0.0000238-0.2199602-0.0000448-0.3299398
		c0.0000229-0.1099639,0.0000544-0.2199278,0.0000858-0.3298917c-0.0233345-0.0325642-0.0131025-0.0699859-0.0144367-0.105463
		c-0.0012951-0.0344892-0.0015478-0.0691214,0.0006695-0.1036501c-0.0014963-0.0728955-0.0018454-0.1457973,0.0001049-0.2186909
		c-0.0016565-0.0605001-0.001112-0.1210217-0.0002451-0.1815176c0.0002937-0.0204711-0.0033798-0.0435219,0.0189428-0.0572524
		c0.0011244,0.014823,0.0032244,0.0296464,0.0032282,0.0444689c0.0001602,0.5583606,0.0001593,1.1167202-0.0000238,1.6750808
		c-0.0000057,0.0165024-0.002183,0.0330029-0.0033474,0.0495043c-0.0016451,0.1155176,0.0275974,0.1009989-0.1029558,0.1302567
		c-0.2891359,0.0647984-0.5783596,0.1292048-0.8677368,0.1929188c-0.0297766,0.0065565-0.0601873,0.0228195-0.0915251,0.0040703
		c0-0.0999823,0-0.1999645,0-0.2999468c0.0181437-0.0173426,0.0423269-0.0179977,0.0647736-0.0230007
		c0.3034191-0.0676413,0.6071463-0.1339016,0.9106522-0.2011528c0.0685587-0.0151911,0.06637-0.0158806,0.0692263-0.0890431
		C14.9184694,7.8842769,14.902833,7.8301969,14.92906,7.7798076z"/>
	<path fill="#AC58E3" d="M11.1898518,9.7808228c0.0070543-0.033371,0.0340595-0.02073,0.0528936-0.0207624
		c0.4015293-0.0006933,0.8030615-0.0005255,1.2045918-0.0005255c0.1066313,0,0.2132654-0.0004673,0.31989,0.0003119
		c0.0285444,0.0002089,0.0563107-0.0019512,0.0835257-0.0104799c0.0642576,0.0533819,0.127614,0.1079025,0.1931047,0.1597252
		c0.0404253,0.0319881,0.0018911,0.0441046-0.012332,0.0630083c-0.0154991-0.0222569-0.0387039-0.0226765-0.06248-0.0226717
		c-0.5197964,0.0001059-1.0395937-0.0000801-1.5593901,0.0005112c-0.0295486,0.0000334-0.0590897,0.0062275-0.0886345,0.0095549
		c-0.0243187-0.0236444-0.0431299-0.0514545-0.0606718-0.080224c-0.0193577-0.0217791-0.0295773-0.0507002-0.0537262-0.0687351
		C11.2010326,9.8006306,11.1954422,9.7907267,11.1898518,9.7808228z"/>
	<path fill="#692FF9" d="M13.8717756,8.5497017c0.2181864-0.047843,0.4364042-0.0955276,0.654541-0.1435928
		c0.1131134-0.0249233,0.2256174-0.052927,0.3393259-0.0746851c0.0488806-0.0093527,0.0751572-0.0264502,0.0648575-0.0797434
		c-0.0017757-0.0091801,0.0021992-0.0194721,0.0035067-0.0292368c0.0058441,0.0966454,0.0055599,0.1932802,0.0000696,0.289917
		C14.933692,8.5488558,14.9389858,8.5855055,14.9311314,8.62181c-0.0884705,0.0294638-0.1804638,0.0444708-0.2711678,0.0643358
		c-0.2341194,0.0512772-0.4679232,0.1039619-0.7020683,0.1551027c-0.0280781,0.0061321-0.0578871,0.0209284-0.0861034-0.0015879
		C13.8717861,8.7430077,13.8717813,8.6463556,13.8717756,8.5497017z"/>
	<path fill="#984CE9" d="M11.5312996,7.6896238c-0.0124187-0.0301127-0.0373163-0.0302429-0.0650101-0.0302024
		c-0.4117975,0.000597-0.823595,0.000411-1.2353916,0.0004101c-0.019331-0.0648932-0.0336704-0.1308246-0.0412474-0.1981635
		c-0.0057573-0.0140471-0.0070105-0.0280037,0.000843-0.0417762c0.422823-0.0000038,0.8456478-0.0000076,1.2684689-0.0000119
		C11.4830742,7.5097947,11.5071869,7.599709,11.5312996,7.6896238z"/>
	<path fill="#8943EE" d="M10.1308012,5.8500924c0.3779535,0,0.7559118,0.0008688,1.1338558-0.0010543
		c0.0495892-0.0002518,0.0898714-0.0000668,0.0960627,0.0612202c-0.0062141,0.0676861-0.0124302,0.1353712-0.0186405,0.203063
		c-0.0161476-0.0218363-0.0397034-0.0128436-0.06001-0.0128713c-0.3901367-0.0005288-0.7802744-0.0003886-1.1704121-0.0003862
		C10.1047134,6.0157199,10.1210909,5.9331613,10.1308012,5.8500924z"/>
	<path fill="#6E32F7" d="M17.1989365,7.3298798c0.0000038-0.1033182,0.0000076-0.2066364,0.0000114-0.3099542
		c-0.0141087-0.0163288-0.0146217-0.0363765-0.0146217-0.0562158c-0.0000019-0.0709887-0.0017242-0.1419868,0.0008221-0.2129593
		c-0.0017071-0.0867605-0.0019131-0.1735258,0.0000038-0.2602882c-0.0017357-0.0930829-0.0019855-0.1861653,0.0000229-0.2792439
		c-0.0015945-0.0735555-0.0018044-0.1471119,0.0000248-0.2206798c-0.0018616-0.0360317-0.0030193-0.0722175,0.000618-0.107996
		c0.0016365-0.016099-0.0050564-0.0426893,0.0270996-0.0402384c0.0154114,0.0202184,0.0131836,0.0441303,0.013195,0.067184
		c0.0002861,0.6288424,0.0003281,1.2576852-0.0001507,1.8865275c-0.000021,0.0257382,0.0052567,0.0540571-0.0194931,0.0737839
		c-0.1332626,0.0299625-0.2664738,0.0601726-0.3998051,0.0898328c-0.2108059,0.0468955-0.4216919,0.0934234-0.6325436,0.1401067
		c-0.0208073-0.095314-0.0348148-0.1913786-0.031971-0.2893062c0.1344433-0.0132084,0.2636223-0.0525737,0.3950081-0.0806861
		c0.1917706-0.0410328,0.3833599-0.0830159,0.5747795-0.1257133c0.0713425-0.0159144,0.0736465-0.0182543,0.0738258-0.0924983
		c0.0000992-0.041553-0.0002327-0.0831065,0.0001545-0.1246576C17.1861019,7.3670092,17.1848907,7.3466558,17.1989365,7.3298798z"/>
	<path fill="#9F50E7" d="M16.1416512,5.7000766c0-0.0966444,0-0.1932888,0-0.2899327
		c0.0178127-0.0203476,0.0431786-0.0238638,0.0673027-0.0290432c0.3099861-0.0665493,0.6191864-0.1366487,0.9288082-0.2048349
		c0.0235233-0.0051808,0.0488358-0.0159745,0.0691795,0.0086832c0.0121613,0.0928926,0.0100956,0.1858163,0.0010548,0.2787447
		c-0.0103016,0.0186439-0.0298023,0.0196662-0.0472908,0.0236244c-0.3201637,0.0724511-0.6408062,0.1427665-0.9612198,0.2140918
		C16.1806488,5.7056031,16.1605854,5.713562,16.1416512,5.7000766z"/>
	<path fill="#803DF1" d="M20.42136,4.890224c0.3981304,0.0000014,0.7962608,0.0000153,1.1943893-0.0000257
		c0.0215073-0.0000024,0.0435333,0.0028872,0.0631065-0.0097828c0.0352211,0.0834498,0.0539608,0.1714835,0.0722198,0.2596502
		c-0.0412636,0.0056486-0.0827808,0.0060763-0.1243248,0.0060749c-0.3346367-0.0000167-0.6692734,0.0000939-1.0039101-0.0001535
		c-0.0383663-0.0000277-0.0765381,0.0011549-0.1144714,0.0071468C20.4793682,5.0654974,20.4503632,4.9778609,20.42136,4.890224z"/>
	<path fill="#8440F0" d="M21.8382702,5.6005478c-0.3895416-0.0001407-0.7790852-0.0000801-1.1686268-0.0007563
		c-0.0355453-0.0000615-0.061161,0.0016775-0.0428715,0.0490332c0.006176,0.0159912,0.0015812,0.0361423,0.0019073,0.0544043
		c-0.0190754-0.0904613-0.0384274-0.1808763-0.057024-0.2714467c-0.0048504-0.0236297-0.0073376-0.0477438-0.0109119-0.0716348
		c0.0170746-0.0175581,0.0395603-0.015748,0.0608673-0.0158329c0.3809376-0.0015221,0.761879,0.0015111,1.1428146-0.0017314
		c0.0118504-0.0001011,0.0232563,0.0009694,0.0334816,0.0076237C21.8133354,5.4333353,21.835701,5.5153461,21.8382702,5.6005478z"/>
	<path fill="#994DE9" d="M16.1416512,5.7000766c0.2535591-0.0565944,0.5071049-0.113256,0.7606907-0.1697421
		c0.0807762-0.0179925,0.1618595-0.0346646,0.2423344-0.0538988c0.018198-0.0043497,0.0358543-0.0060158,0.0540924-0.0063581
		c0.0166893,0.013442,0.0144348,0.0326476,0.0146236,0.0506291c0.0006084,0.0582399-0.0015106,0.1165581,0.0007668,0.1747079
		c0.0017414,0.0445166-0.0166149,0.0669641-0.0597324,0.0765491c-0.1478233,0.0328617-0.2957325,0.0653362-0.4436588,0.0977283
		c-0.1690617,0.0370197-0.3379555,0.0747938-0.5070019,0.1118755c-0.020565,0.0045114-0.0418148,0.0144715-0.0621147-0.0015168
		C16.1416512,5.8867259,16.1416512,5.7934012,16.1416512,5.7000766z"/>
	<path fill="#8943EE" d="M17.1990318,6.2100654c-0.0000134,0.0933208-0.0000267,0.1866417-0.0000401,0.2799625
		c-0.0139771,0.0136032-0.0325413,0.0159016-0.0502396,0.0198727c-0.3127594,0.0701766-0.6257229,0.1394572-0.9386272,0.2089863
		c-0.0224209,0.0049829-0.045557,0.0106988-0.0684738,0.0007463c0-0.0932097,0-0.1864204,0.0000019-0.2796307
		c0.0192204-0.021574,0.0464916-0.0245423,0.0721607-0.0300546c0.308239-0.0661993,0.6157513-0.1356945,0.9235611-0.2038302
		C17.1581554,6.2015181,17.1794777,6.1933551,17.1990318,6.2100654z"/>
	<path fill="#C065DC" d="M14.9290352,3.8603764c-0.1031895,0.0133743-0.2032404,0.0418952-0.3046627,0.0636981
		c-0.2255516,0.0484872-0.4507313,0.0987184-0.676013,0.1484606c-0.0151892,0.0033536-0.0325165,0.017344-0.0379753-0.0111279
		c0.1330223-0.1162443,0.2195663-0.2643516,0.2898531-0.4234858c0.009676-0.0219078,0.0177288-0.0386102,0.0486898-0.0383785
		c0.2208576,0.0016532,0.4417343,0.0008965,0.6626043,0.0010991c0.0064888,0.0000057,0.0129766,0.002142,0.0194645,0.0032849
		C14.9362068,3.689455,14.9400187,3.7749722,14.9290352,3.8603764z"/>
	<path fill="#8F46EC" d="M14.9290352,3.8603764c0.0006428-0.08549,0.0012865-0.17098,0.0019445-0.2564595
		c0.0125322,0.0126004,0.0064182,0.0284522,0.006422,0.0426328c0.000247,0.9207182,0.000144,1.8414364-0.0000954,2.7621551
		c-0.0000038,0.0148835-0.0020542,0.0297666-0.0031605,0.0446744c-0.0016689,0.0788927-0.0033274,0.1577625-0.0049858,0.2366319
		c-0.0195045,0.0210619-0.0466299,0.0242438-0.0723219,0.029933c-0.2996902,0.0663548-0.5993929,0.1326509-0.8990049,0.1993532
		c-0.0278816,0.0062075-0.0573015,0.0217857-0.0860538,0.0006256c0.0000029-0.0833182,0.0000048-0.1666365,0.0000076-0.2499547
		c0.0181913-0.0173407,0.0424252-0.017909,0.0648928-0.0229645c0.3004694-0.0676117,0.6016531-0.1319847,0.9021883-0.1992931
		c0.0768404-0.0172105,0.076663-0.0179,0.0769148-0.0944157c0.0001631-0.0499406-0.0003452-0.0998816-0.0001173-0.1498804
		c-0.0020542-0.0746632-0.0018101-0.1492701-0.0003099-0.2238922c-0.0018225-0.0830431-0.001893-0.1660695-0.0000601-0.2490993
		c-0.001749-0.0867405-0.001894-0.1734781-0.000021-0.2602205c-0.0025005-0.0678716-0.0008917-0.1357565-0.0008593-0.2036319
		c0.0000105-0.0198922,0.0004826-0.0399961,0.0145445-0.0564203c0.0000019-0.1066465,0.0000048-0.2132936,0.0000086-0.3199406
		c-0.0127964-0.0147557-0.0156317-0.0329833-0.0142221-0.0510306c0.0054331-0.0695953-0.0159378-0.1410508,0.014267-0.2089114
		c-0.0000048-0.0866623-0.0000095-0.1733251-0.0000229-0.2599874c0.0000029-0.0833125,0.0000153-0.1666245,0.0000191-0.2499366
		C14.9290133,4.0336876,14.9290237,3.947032,14.9290352,3.8603764z"/>
	<path fill="#7E3CF2" d="M17.1989689,6.7499638c0,0.0899873-0.0000038,0.1799746-0.0000134,0.2699618
		c-0.1148834,0.0244355-0.2298698,0.0483651-0.3446102,0.0734105c-0.2376366,0.0518708-0.4751434,0.1043344-0.7127018,0.1565537
		c0-0.0933199,0-0.1866393,0-0.2799592c0.0233059-0.0199413,0.0534954-0.0160027,0.0804958-0.022162
		c0.298069-0.0679941,0.5971355-0.1315112,0.8954487-0.1984363C17.1440315,6.7434001,17.1720753,6.729516,17.1989689,6.7499638z"/>
	<path fill="#823EF1" d="M21.7979069,5.3502069c-0.02388,0.0077429-0.0481853,0.0102906-0.0734425,0.010262
		c-0.387907-0.0004458-0.7758141-0.0003166-1.1637211-0.0003214c-0.0174561-0.0690103-0.0349083-0.13802-0.0523682-0.2070212
		c0.0076828-0.0355468,0.0364799-0.0223589,0.0568447-0.0223994c0.370409-0.0007291,0.7408199-0.0008664,1.1112251,0.0002236
		c0.0245514,0.000072,0.0525017-0.014967,0.0746288,0.0091147C21.7666855,5.2101126,21.7822971,5.28016,21.7979069,5.3502069z"/>
	<path fill="#7235F6" d="M17.1989365,7.3298802c0.00033,0.073266-0.0018158,0.1466622,0.0020008,0.2197471
		c0.0020123,0.0385637-0.0134716,0.0528283-0.047863,0.0602565c-0.1972599,0.0426049-0.3942833,0.0863066-0.5913582,0.129766
		c-0.1260128,0.0277891-0.2522163,0.0548091-0.3777294,0.0847082c-0.0206051,0.004909-0.0310574,0.000309-0.0418396-0.0139256
		c-0.0001678-0.0835304-0.0003376-0.1670623-0.0005054-0.2505937c0.1327343-0.0199122,0.2622013-0.0553279,0.393198-0.0834284
		C16.7564831,7.428863,16.9775982,7.3788538,17.1989365,7.3298802z"/>
	<path fill="#A856E4" d="M14.9289598,5.2101502c-0.0000029,0.0866542-0.0000057,0.1733074-0.0000076,0.2599611
		c-0.0191116,0.0186839-0.0447054,0.0215092-0.0687933,0.0268312c-0.3055296,0.067502-0.6109114,0.1356573-0.916357,0.2035255
		c-0.0233917,0.0051975-0.0481739,0.0171461-0.0720272-0.0003757c0.0000029-0.0899892,0.0000048-0.1799774,0.0000076-0.2699666
		c0.0795689-0.0059896,0.1555319-0.0301652,0.2328405-0.0471544c0.2550602-0.0560474,0.509676-0.1141133,0.7646542-0.1705446
		C14.888402,5.2081938,14.90903,5.2107496,14.9289598,5.2101502z"/>
	<path fill="#7E3CF2" d="M19.3737659,6.2531481c-0.001646,0.0789776-0.0032921,0.1579556-0.0049381,0.2369328
		c-0.0129642,0.0174837-0.0323887,0.0217514-0.0520782,0.0261779c-0.3146439,0.0707507-0.629694,0.1396799-0.944458,0.2098842
		c-0.0238552,0.005321-0.0493183,0.013484-0.0692635-0.0106454c-0.0140495-0.0802679-0.0139179-0.1605258-0.0002098-0.2407804
		c0.0155525-0.0215006,0.0406284-0.0206423,0.0627728-0.0255008c0.3104248-0.0681152,0.6202354-0.1390061,0.9309559-0.2057524
		c0.044117-0.0094767,0.0605927-0.0310936,0.0594387-0.0754776c-0.002203-0.0847969-0.0006561-0.1696959-0.0007706-0.2546072
		c-0.0019073-0.1009111-0.0019646-0.201766-0.0001545-0.3026261c-0.0016499-0.0764799-0.0018711-0.1529536,0.0000248-0.2294221
		c-0.0016575-0.0603242-0.0015106-0.1206474,0.0001221-0.1809716c-0.0019474-0.0701079-0.0017452-0.1402135-0.0001488-0.2103314
		c0.0033741-0.0442429-0.0146904-0.0911651,0.0164318-0.1319337c0.0084343,0.0155277,0.0056,0.0325298,0.0056076,0.0488925
		c0.0002041,0.4355354,0.0001717,0.8710718-0.000021,1.3066072C19.3770695,6.2267795,19.374918,6.2399635,19.3737659,6.2531481z"/>
	<path fill="#9E50E7" d="M19.3714905,4.8580942c-0.0008926,0.0440454-0.0017853,0.0880909-0.0026779,0.1321359
		c-0.0206356,0.0196362-0.0480347,0.0222292-0.0737171,0.0279565c-0.308794,0.0688596-0.6180077,0.1358237-0.9268627,0.2044139
		c-0.021822,0.0048456-0.0454941,0.015995-0.0650101-0.0068288c-0.0149879-0.0828795-0.0129013-0.1658487-0.001667-0.2488561
		c0.0201149-0.0298438,0.0539818-0.0301661,0.0838623-0.0367827c0.2980824-0.0660057,0.5960426-0.1325393,0.8940659-0.1987958
		c0.0276279-0.0061421,0.0541267-0.0154014,0.0811996-0.0230393C19.3750763,4.7574511,19.3707943,4.8079524,19.3714905,4.8580942z"
		/>
	<path fill="#833FF0" d="M17.1989689,6.7499638c-0.1003113,0.0123491-0.1974487,0.040225-0.2958794,0.0615425
		c-0.2342033,0.0507226-0.4677601,0.1044393-0.7017727,0.1560655c-0.0191326,0.0042205-0.0397491,0.0017304-0.0596733,0.0023589
		c0.0000019-0.0834322,0.0000038-0.1668649,0.0000076-0.2502975c0.1316853-0.0297184,0.2632771-0.0598536,0.3950768-0.0890598
		c0.2027702-0.0449324,0.4057617-0.088871,0.6083946-0.1343994c0.0181408-0.0040746,0.035717-0.0059099,0.0538769-0.0061464
		C17.1989841,6.576673,17.1989765,6.6633186,17.1989689,6.7499638z"/>
	<path fill="#A956E4" d="M16.1491318,4.7575579c0.0002899,0.0349288,0.0015278,0.0698824,0.0005856,0.1047778
		c-0.0008278,0.0306416,0.0076485,0.0409322,0.041214,0.0333018c0.2062626-0.0468917,0.4129829-0.0917826,0.6196041-0.1370835
		c0.1210155-0.0265317,0.2421436-0.0525479,0.3631992-0.0789013c0.021162-0.0046072,0.0417271-0.0106483,0.0554466-0.0294218
		c0.0206776,0.0281916,0.0021858,0.0561814-0.0010872,0.0840092c-0.0022659,0.0192647-0.0042992,0.0386925-0.0082588,0.057785
		c-0.0153847,0.0445032,0.0046787,0.0928764-0.0148029,0.1369247c-0.0248489,0.0227523-0.0576572,0.0241036-0.0878868,0.030807
		c-0.2980232,0.0660911-0.5958939,0.1328654-0.8939781,0.1986775c-0.0264416,0.0058374-0.0540047,0.0202632-0.0815105,0.0017371
		C16.1424732,5.0259361,16.1310043,4.8914723,16.1491318,4.7575579z"/>
	<path fill="#B35DE0" d="M14.9290133,4.6302681c-0.0000095,0.086647-0.00002,0.1732945-0.0000362,0.2599421
		c-0.1082144,0.0054107-0.2109261,0.0396314-0.3157873,0.061872c-0.2343712,0.0497088-0.4677811,0.1039429-0.7016821,0.1558843
		c-0.0127773,0.0028372-0.0264635,0.0015745-0.0397263,0.0022202c-0.000555-0.054616-0.0035477-0.109355-0.0008087-0.1638055
		c0.0018387-0.036551-0.0078535-0.0520797-0.0461082-0.0466533c-0.017745,0.0025177-0.0362902-0.0005913-0.0544729-0.0011497
		c0.0283842-0.0306072,0.0692902-0.0285125,0.1048489-0.0366049c0.2638617-0.0600495,0.5282745-0.1176777,0.7925835-0.1757612
		C14.7547846,4.6671019,14.8419447,4.648891,14.9290133,4.6302681z"/>
	<path fill="#A453E5" d="M13.8717747,5.7000923c0.2181931-0.0478401,0.4363403-0.0958819,0.6545944-0.1434426
		c0.1341171-0.0292263,0.2683954-0.0577178,0.4025917-0.0865383c-0.0000114,0.086648-0.0000143,0.1732965-0.0000181,0.2599444
		c-0.0434256,0.0282946-0.0949411,0.029119-0.1430349,0.0394945c-0.2796955,0.0603404-0.5585995,0.1242204-0.8380537,0.1856174
		c-0.0256195,0.0056281-0.0520039,0.0155358-0.0760679-0.0051122C13.8717823,5.866734,13.8717785,5.7834134,13.8717747,5.7000923z"
		/>
	<path fill="#9E50E7" d="M13.8717861,5.9500556c0.0819693-0.0014629,0.1591644-0.0287704,0.2380953-0.0456901
		c0.2601252-0.0557599,0.5195494-0.1147928,0.7793388-0.1721349c0.012784-0.0028224,0.026473-0.0015435,0.039731-0.0021749
		c-0.0000029,0.0833259,0.0000029,0.1666522,0.0000095,0.2499781c-0.0141802,0.0160737-0.0337467,0.0200992-0.0534039,0.0245018
		c-0.3103714,0.0695086-0.62148,0.1356812-0.9317102,0.205842c-0.0233736,0.0052857-0.0481939,0.0171633-0.0720634-0.0003557
		C13.8717842,6.1233664,13.8717842,6.0367112,13.8717861,5.9500556z"/>
	<path fill="#A554E5" d="M16.1416569,5.1601715c0.2181702-0.0478334,0.4362965-0.0958662,0.6545258-0.1434283
		c0.1341019-0.0292263,0.2683582-0.0577326,0.4025459-0.0865622c0.0117836,0.0089974,0.0141525,0.0221372,0.0144691,0.035521
		c0.0014191,0.0596223,0.0014172,0.1192598,0.0000038,0.1788821c-0.0003166,0.0133839-0.0026817,0.0265241-0.0144482,0.0355353
		c-0.1148491,0.0244727-0.2298012,0.0484695-0.3445244,0.0735173c-0.2375908,0.0518737-0.4750595,0.1043053-0.7125778,0.156507
		C16.1416531,5.3268194,16.141655,5.2434959,16.1416569,5.1601715z"/>
	<path fill="#9349EB" d="M17.1987534,5.1801195c-0.0000019-0.0833125-0.0000019-0.1666255-0.0000153-0.249938
		c0.006525-0.0463638-0.008028-0.0939813,0.0083065-0.1397614c0.0217896,0.0168214,0.0188179,0.0415306,0.0188637,0.0642333
		c0.0006294,0.3077731,0.0007458,0.6155472-0.0001431,0.9233189c-0.0000629,0.0222149,0.0043678,0.0477729-0.0209427,0.0623193
		c-0.0105133,0.0496078-0.0009899,0.0999837-0.0057411,0.1498127c-0.0183468,0.0168414-0.0424957,0.0182114-0.0648842,0.0232263
		c-0.3130875,0.0701308-0.6265717,0.1384606-0.9398918,0.2075377c-0.0173206,0.0038185-0.0353413,0.0120397-0.0526581-0.0008621
		c0-0.0799851,0.0000019-0.1599708,0.0000038-0.2399554c0.2015305-0.0445085,0.403038-0.0891151,0.604599-0.1334891
		c0.1322155-0.029108,0.2642479-0.0591502,0.3969135-0.0860615c0.0422192-0.0085645,0.0613251-0.0237608,0.0579758-0.0711117
		c-0.0051517-0.0727944-0.0019875-0.1461768-0.0023613-0.2193103C17.1987629,5.373425,17.1987572,5.276772,17.1987534,5.1801195z"/>
	<path fill="#7436F5" d="M14.92906,7.7798076c0.000329,0.0699697,0.0005379,0.1399407,0.0010624,0.2099094
		c0.0001574,0.0210052-0.0004673,0.035109-0.0292578,0.0410619c-0.1896086,0.0392017-0.3786297,0.0812588-0.5677271,0.1229038
		c-0.1405935,0.0309639-0.2809763,0.0628805-0.4215765,0.0938196c-0.0128069,0.0028172-0.0265017,0.0015974-0.0397854,0.0022526
		c0.0000057-0.0800009,0.0000105-0.1600018,0.0000153-0.2400007c0.2535944-0.0565987,0.5071764-0.1132622,0.7607946-0.1697564
		c0.0807867-0.0179958,0.1618776-0.0346985,0.2423649-0.0539351C14.893158,7.7817116,14.9108152,7.780076,14.92906,7.7798076z"/>
	<path fill="#A453E5" d="M19.3606834,4.7082977c-0.001873,0.0253611-0.0245018,0.0261617-0.0403023,0.0296879
		c-0.3344898,0.0746408-0.6692028,0.148273-1.0038815,0.2220607c-0.0015907,0.000351-0.0033073,0.0001168-0.0049667,0.0001564
		c-0.005434-0.0039964-0.0109863-0.009078-0.0113201-0.0155249c-0.0039558-0.0765367-0.0170116-0.1528068-0.0073624-0.2297602
		c0.0138435-0.0201149,0.0366116-0.0214348,0.0573425-0.0260429c0.302393-0.0672145,0.6048927-0.1339488,0.9074726-0.2003222
		c0.0209465-0.0045943,0.0421162-0.0126271,0.0626621,0.0015407C19.3450565,4.5607429,19.3571281,4.6337328,19.3606834,4.7082977z"
		/>
	<path fill="#A856E4" d="M19.3203278,4.4900932c-0.1886139,0.0411291-0.3770866,0.082921-0.5658855,0.1231771
		c-0.151598,0.0323238-0.3013935,0.0731177-0.454792,0.0969834c-0.0102386-0.0033512-0.0164757-0.0110254-0.019186-0.0207319
		c-0.0177116-0.0634246-0.0438957-0.1230578-0.0775108-0.1796699c-0.006321-0.0106449-0.0125179-0.024014,0.0009975-0.0354428
		c0.1217232-0.0335269,0.2459335-0.0561256,0.368988-0.0837798c0.2041912-0.0458879,0.4086323-0.0906692,0.6128426-0.1364927
		c0.0145741-0.0032701,0.0289497-0.0079093,0.0441456-0.0040569C19.2745075,4.3246441,19.3010063,4.4060173,19.3203278,4.4900932z"
		/>
	<path fill="#954AEA" d="M14.9289751,6.2099667c0.0003452,0.0631347-0.0000763,0.1262875,0.0013685,0.1893973
		c0.0007067,0.030848-0.0069218,0.0448251-0.0422468,0.0524211c-0.3066139,0.0659299-0.6124687,0.1353755-0.9186935,0.203124
		c-0.032073,0.0070963-0.0639191,0.0176582-0.0976162,0.015059c-0.0000029-0.0766554-0.0000048-0.1533113-0.0000076-0.2299666
		c0.0139294-0.0163431,0.0335407-0.0201349,0.0530901-0.0244975c0.3140802-0.0700808,0.6283646-0.1392369,0.942441-0.209331
		C14.8880606,6.2015424,14.909379,6.1933327,14.9289751,6.2099667z"/>
	<path fill="#662DFA" d="M13.8717909,8.8396606c0.105916-0.0091858,0.2074194-0.0407019,0.3106937-0.062809
		c0.2326689-0.0498047,0.4644995-0.1035223,0.6968184-0.1549835c0.0159473-0.0035334,0.0331135-0.0015745,0.0497122-0.0021706
		c0.0133762,0.0690737,0.0045061,0.1387873,0.0046778,0.2081442c0.000082,0.0327301-0.031558,0.0345411-0.0554142,0.0396986
		c-0.117238,0.0253448-0.2339888,0.0529356-0.3513699,0.0775671c-0.1954451,0.0410118-0.3885202,0.0933657-0.5863743,0.1228571
		c-0.0704002,0.0036993-0.0706167,0.0036983-0.070343-0.0641584C13.8704109,8.94909,13.8712349,8.8943758,13.8717909,8.8396606z"/>
	<path fill="#994DE9" d="M14.9289751,6.2099667c-0.1148624,0.0244679-0.2298288,0.0484548-0.3445644,0.0735049
		c-0.2376099,0.0518775-0.4750948,0.10432-0.7126312,0.1565299c0.0000019-0.0766597,0.0000029-0.1533198,0.0000038-0.2299795
		c0.2344189-0.0510073,0.4688349-0.1020193,0.7032547-0.153019c0.1179781-0.0256672,0.235961-0.0513129,0.3539324-0.0769682
		C14.9289656,6.0566783,14.9289703,6.1333222,14.9289751,6.2099667z"/>
	<path fill="#8F46EC" d="M16.1416473,6.2200065c0.2396393-0.0533376,0.479044-0.1077523,0.7190189-0.1595383
		c0.1126099-0.0243006,0.2234249-0.0575333,0.3384209-0.070365c-0.0000172,0.0733209-0.0000267,0.1466413-0.0000477,0.2199621
		c-0.1148911,0.0244198-0.2298889,0.0483236-0.3446388,0.0733676c-0.2376518,0.0518699-0.475172,0.1043439-0.7127476,0.156569
		C16.1416512,6.3666701,16.1416473,6.2933383,16.1416473,6.2200065z"/>
	<path fill="#8641EF" d="M14.929121,6.9099412c-0.0000019,0.0700107-0.0000029,0.1400208-0.0000114,0.2100334
		c-0.3021994,0.0666876-0.6043568,0.1335192-0.9066114,0.1999149c-0.0500221,0.0109873-0.0990505,0.0272026-0.1507196,0.0299845
		c0.000001-0.0733223,0.0000038-0.1466446,0.0000057-0.2199674c0.0126238-0.012826,0.0297461-0.0136595,0.0458555-0.0172491
		c0.3050928-0.0679841,0.6101284-0.1362205,0.9156475-0.2022591C14.8644342,6.9036665,14.8971539,6.8861957,14.929121,6.9099412z"/>
	<path fill="#8A43EE" d="M14.929121,6.9099412c-0.0815554,0.0038071-0.159297,0.0286446-0.2382126,0.0456557
		c-0.2568941,0.0553784-0.5129175,0.1148043-0.7694159,0.1720352c-0.0159445,0.0035582-0.0331106,0.0016432-0.0497084,0.0022745
		c-0.000001-0.0699949-0.0000029-0.1399889-0.0000048-0.2099838c0.1327438-0.0199199,0.2622223-0.0553317,0.3932314-0.0834317
		c0.2216635-0.0475459,0.4428034-0.0975251,0.664156-0.1464806C14.9291477,6.7633209,14.9291344,6.8366313,14.929121,6.9099412z"/>
	<path fill="#AE59E2" d="M19.2299271,4.2500796c-0.0519409,0.0327039-0.1131935,0.0342941-0.1702652,0.0473347
		c-0.2685909,0.0613732-0.5381527,0.1184945-0.8074512,0.1767569c-0.0176296,0.0038137-0.0359364,0.0044875-0.0539284,0.0066218
		c-0.0486279-0.0105467-0.0716057-0.0597796-0.1162777-0.0770135c-0.013916-0.0053678-0.0322094-0.0107203-0.0325642-0.0319223
		c0.0332146-0.0482655,0.0897179-0.0382223,0.1353855-0.0490208c0.2331104-0.0551233,0.467535-0.1046948,0.7015152-0.1561379
		c0.0709629-0.0156021,0.1419086-0.0313044,0.2130222-0.0461979c0.0150337-0.0031486,0.0288219-0.0072527,0.0398388-0.0183077
		C19.1797981,4.1451364,19.2075653,4.195951,19.2299271,4.2500796z"/>
	<path fill="#622BFB" d="M13.9405346,9.0679646c0.0842571-0.0364246,0.1756535-0.0453224,0.2637539-0.066246
		c0.2027264-0.0481443,0.4068604-0.0903654,0.6104164-0.1350222c0.0016069-0.0003529,0.0030718-0.0013371,0.0046759-0.0017328
		c0.1106806-0.0273495,0.1107607-0.0273476,0.1106329-0.1404057c-0.0000381-0.0349531-0.0006371-0.0699072-0.0009899-0.1048603
		c0.001687-0.0357876,0.0033817-0.0715752,0.0050659-0.1073494c0.0011129,0.1761646,0.0018053,0.3523216,0.003767,0.5284653
		c0.00035,0.0314884-0.0188942,0.0289106-0.0393658,0.0288858c-0.1164312-0.0001411-0.2328606,0.0001268-0.3492918-0.0001059
		C14.3463106,9.0691891,14.1434231,9.0685225,13.9405346,9.0679646z"/>
	<path fill="#AA57E3" d="M20.7396851,9.8762722c0.0114746-0.0264626,0.0231514-0.0527706,0.0513439-0.0662889
		C20.7782116,9.8354034,20.7663612,9.8615789,20.7396851,9.8762722z"/>
	<path fill="#AB58E3" d="M11.2066231,9.8105354c0.0319548,0.0119352,0.0425425,0.0405684,0.0537262,0.0687361
		C11.2358818,9.8614845,11.2227688,9.8348255,11.2066231,9.8105354z"/>
	<path fill="#9B4EE8" d="M21.6196728,8.1992292c0.0026398-0.029048,0.0096436-0.0565147,0.0288067-0.0795822
		C21.6430511,8.1476851,21.6392498,8.1763115,21.6196728,8.1992292z"/>
	<path fill="#8440F0" d="M20.6504307,5.9200883c0.0030689-0.0000062,0.006134-0.0000081,0.009201-0.0000062
		c-0.0002079,0.0273337-0.0004139,0.0546675-0.0006237,0.0820088C20.6450062,5.9759264,20.6562996,5.9471102,20.6504307,5.9200883z"
		/>
	<path fill="#9248EB" d="M10.1470947,7.2205205c0.0251064,0.0184994,0.0078688,0.0456176,0.0138464,0.0680094
		C10.1436214,7.2684455,10.1611147,7.2412758,10.1470947,7.2205205z"/>
	<path fill="#9D4FE8" d="M10.4455271,8.4006033c0.0225658,0.0154047,0.0241842,0.0386763,0.0235796,0.0627947
		C10.4612455,8.4424744,10.4533873,8.4215393,10.4455271,8.4006033z"/>
	<path fill="#9248EB" d="M10.1696663,7.3500056c0.0193863,0.0167508,0.0069828,0.0394502,0.0110531,0.0590663
		C10.1630306,7.3920026,10.176115,7.3691764,10.1696663,7.3500056z"/>
	<path fill="#9248EB" d="M10.1617966,7.2896948c0.0154619,0.0185428,0.006032,0.0404305,0.0081654,0.0607667
		C10.1543922,7.331933,10.1661167,7.3097358,10.1617966,7.2896948z"/>
	<path fill="#8440F0" d="M20.6401405,5.8000402c0.0174274,0.0184593,0.0067768,0.0410166,0.0090027,0.0616994
		C20.6324749,5.8431711,20.6415272,5.8208447,20.6401405,5.8000402z"/>
	<path fill="#7738F4" d="M10.4691153,4.4266768c0.0029583,0.0205112-0.0022497,0.0383682-0.0172358,0.0530434
		C10.4512482,4.4599643,10.4588642,4.4428921,10.4691153,4.4266768z"/>
	<path fill="#8440F0" d="M20.629694,5.7400846c0.0182133,0.0173049,0.0066357,0.0397453,0.0102711,0.0595627
		C20.6243458,5.7818947,20.6353207,5.7595587,20.629694,5.7400846z"/>
	<path fill="#A252E6" d="M21.2597923,9.0396137c0.0026512,0.0000076,0.0053043,0.0000095,0.0079575,0.0000086
		c-0.0010414,0.0154419-0.0064983,0.0288277-0.0182953,0.039259C21.2481976,9.0645533,21.2530174,9.0518265,21.2597923,9.0396137z"
		/>
	<path fill="#9047EC" d="M20.6194324,7.0894365c-0.002779,0.0170021,0.0090637,0.0377631-0.0128231,0.0498571
		C20.6157837,7.1239371,20.6036892,7.1031051,20.6194324,7.0894365z"/>
	<path fill="#833FF0" d="M11.4002352,5.5999956c0.0024567-0.0167603-0.0065889-0.0357952,0.0098457-0.0497909
		C11.4058094,5.566606,11.4123888,5.5851526,11.4002352,5.5999956z"/>
	<path fill="#9047EC" d="M20.6284847,7.0385032c-0.0007153,0.0175371,0.0082741,0.0368276-0.0092716,0.0513253
		C20.6219006,7.0726476,20.6115627,7.053113,20.6284847,7.0385032z"/>
	<path fill="#8F47EC" d="M11.3622303,6.8795362c-0.0181503-0.0161185-0.0163136-0.0327816-0.0013571-0.0498037
		C11.3613262,6.8463326,11.3617783,6.8629346,11.3622303,6.8795362z"/>
	<path fill="#9248EB" d="M10.1904936,7.4198918c-0.0002813,0.0139236-0.0005608,0.0278473-0.0008421,0.0417738
		c-0.01614-0.0151448-0.0054522-0.0347123-0.0085707-0.0520048C10.1842184,7.4130707,10.187356,7.4164815,10.1904936,7.4198918z"/>
	<path fill="#292929" d="M18.0494404,4.3718572c0.0544586,0.0296941,0.1054363,0.0641451,0.1488438,0.1089354
		c0.0520496,0.0684214,0.0800343,0.1474724,0.101366,0.2294617c0.0039616,0.0833158,0.0079212,0.1666322,0.0118828,0.2499485
		c-0.0000019,0.0866532-0.0000038,0.1733069-0.0000057,0.2599602c0.0245686,0.0394769,0.0111027,0.083293,0.0136967,0.1251669
		c0.0017242,0.0277772,0.0013866,0.0558109-0.0006523,0.0836873c0.0015106,0.0571613,0.0016155,0.1143274,0.0000114,0.1714959
		c0.0017624,0.0799289,0.0018425,0.1598525,0.0000401,0.2397809c0.0019131,0.10324,0.0020046,0.2064738,0.0000553,0.3097143
		c0.0026321,0.0877852,0.0008469,0.175581,0.0009251,0.2633686c0.0000191,0.0198874-0.0002937,0.0400186-0.0140839,0.0566235
		c0.0000076,0.0833192,0.0000114,0.1666389,0.0000172,0.249958c0.0265846,0.0584373,0.0097389,0.1200047,0.0130596,0.1801233
		c0.0017529,0.0801272,0.0018272,0.1602545,0.0000381,0.2403908c0.0027084,0.0876231,0.0008602,0.1752543,0.0009613,0.262877
		c0.000021,0.0198526-0.0003185,0.0399413-0.0140686,0.0565171c0,0.1166496,0,0.2332988,0,0.3499484
		c-0.0024662,0.1114068-0.0254688,0.2182107-0.0716991,0.3198085c-0.1297722,0.1978931-0.3294067,0.2232704-0.5403881,0.2157335
		c-0.1323128-0.0047264-0.2554951-0.0402145-0.3579922-0.1298676c-0.0904331-0.0974941-0.1249294-0.2168183-0.1349773-0.3456898
		c0.0002918-0.1479168,0.0008106-0.2958336,0.000845-0.4437504c0.0001163-0.5070434,0.0000916-1.0140858-0.0000362-1.5211291
		c-0.0000057-0.021544-0.0016003-0.0430875-0.0024567-0.06463c0.0008316-0.1575475,0.0020847-0.3150954,0.0023861-0.4726448
		c0.0003643-0.1924105-0.0000706-0.3848219-0.0001621-0.5772295c0.0073776-0.0467253,0.0147572-0.0934548,0.0221348-0.1401849
		c0.046032-0.1409016,0.1334667-0.2419729,0.2763309-0.2918816c0.0408916-0.0142851,0.083622-0.0182724,0.1248398-0.0297399
		c0.0202408-0.0080667,0.042635,0.0022154,0.0627003-0.0073524c0.0414066-0.0000448,0.0828133-0.0000896,0.1242199-0.0001345
		c0.0198402,0.0098219,0.0419788-0.0003595,0.062088,0.007134C17.9360523,4.3427901,17.9927483,4.3573241,18.0494404,4.3718572z"/>
	<path fill="#AE59E2" d="M17.8793602,4.3282566c-0.0210476,0.000772-0.0422153,0.0025868-0.0620708-0.0071368
		C17.8380623,4.3226705,17.8600864,4.3134909,17.8793602,4.3282566z"/>
	<path fill="#AE59E2" d="M17.6930523,4.3212571c-0.0199928,0.0101805-0.0414524,0.0078673-0.0627003,0.0073528
		C17.6497345,4.3132257,17.6720371,4.3227224,17.6930523,4.3212571z"/>
	<path fill="#7134F6" d="M18.3115273,7.4598665c0-0.1066523,0.0000019-0.213305,0.0000038-0.3199573
		c0.0178108-0.0203457,0.0432091-0.0236769,0.0672894-0.0290146c0.3029194-0.0671449,0.6058655-0.1341624,0.9087334-0.2015381
		c0.0264015-0.0058727,0.0543938-0.0198755,0.0812569,0.0005846c0.0003319,0.088099-0.0024605,0.1763682,0.0023117,0.2642264
		c0.0023842,0.0439186-0.0155296,0.0569115-0.0532265,0.0649533c-0.2002544,0.0427203-0.4001598,0.08707-0.6001511,0.131022
		C18.5823078,7.399909,18.4469318,7.4299493,18.3115273,7.4598665z"/>
	<path fill="#7737F4" d="M19.3688107,6.9099412c-0.103548,0.0138226-0.2041283,0.041935-0.3059235,0.0640969
		c-0.2506104,0.0545592-0.5009251,0.1104908-0.7513561,0.1658702c-0.0000038-0.079987-0.0000038-0.1599751-0.0000076-0.2399631
		c0.0384769-0.0268841,0.0850925-0.0263996,0.1281929-0.0361195c0.2754173-0.0621076,0.5510063-0.123476,0.8267479-0.1841345
		c0.0333061-0.0073266,0.0668907-0.0220885,0.1024227-0.0093632C19.3688622,6.7501988,19.3688354,6.8300705,19.3688107,6.9099412z"
		/>
	<path fill="#7A3AF3" d="M19.3688869,6.6703281c-0.1428814,0.0326414-0.2856045,0.0659981-0.4286842,0.0977521
		c-0.1930676,0.0428472-0.3863831,0.0845828-0.5796833,0.12638c-0.0159798,0.0034547-0.0326481,0.0037317-0.048996,0.0054851
		c0.0000038-0.0599961,0.0000095-0.1199908,0.0000134-0.179987c0.0750923-0.0032792,0.1463528-0.0273428,0.2189713-0.0427995
		c0.2719517-0.057888,0.5430298-0.1198754,0.8144188-0.1804023c0.0080681-0.0017991,0.0159492-0.0044341,0.0239086-0.0066776
		C19.3688469,6.5501633,19.368866,6.6102457,19.3688869,6.6703281z"/>
	<path fill="#8440F0" d="M18.3115196,6.4700003c0.0000038-0.1066527,0.0000076-0.2133064,0.0000114-0.3199592
		c0.0166473-0.0162563,0.0390835-0.0176868,0.0598679-0.0223231c0.3115616-0.0694847,0.6231709-0.1387706,0.9347801-0.2080379
		c0.0203629-0.0045257,0.0418606-0.013762,0.0625877,0.0004001c0.0003395,0.0932174-0.0002384,0.1864524,0.0015392,0.2796426
		c0.0005875,0.0307484-0.0109081,0.0443311-0.0407848,0.0508428c-0.28759,0.062674-0.5749569,0.1263657-0.8623409,0.1899776
		C18.4155827,6.4519649,18.365263,6.4699717,18.3115196,6.4700003z"/>
	<path fill="#8C44ED" d="M19.3687649,5.9200797c-0.2535915,0.0565968-0.507164,0.1132736-0.7607841,0.1697426
		C18.5271969,6.10781,18.446085,6.1243887,18.3655949,6.1435905c-0.0181847,0.0043383-0.0358009,0.0063071-0.0540638,0.0064507
		c0.0000019-0.1033187,0.0000019-0.2066369,0.0000057-0.3099556c0.0178127-0.02034,0.0432072-0.0236688,0.0672874-0.0290055
		c0.3028965-0.0671349,0.6058197-0.1341548,0.9086666-0.2015209c0.0263996-0.0058732,0.0543842-0.0198765,0.0812588,0.0005369
		C19.3687553,5.7134242,19.3687592,5.8167524,19.3687649,5.9200797z"/>
	<path fill="#9248EB" d="M19.3687496,5.610096c-0.1327705,0.0196924-0.2622089,0.0552325-0.3932095,0.0832882
		c-0.2216415,0.0474687-0.4427013,0.0976572-0.6640034,0.1467013c-0.0000038-0.079988-0.0000076-0.1599751-0.0000114-0.2399631
		c0.0126305-0.0128322,0.0297623-0.0136476,0.0458755-0.0172501c0.311655-0.0696926,0.6235561-0.1382723,0.9352264-0.2078924
		c0.025671-0.0057349,0.052042-0.0151815,0.076149,0.0051546C19.3687668,5.4567881,19.3687592,5.5334425,19.3687496,5.610096z"/>
	<path fill="#994DE9" d="M18.3115368,5.4301362c-0.0000038-0.0699911-0.0000057-0.1399817-0.0000095-0.2099733
		c0.218214-0.0478497,0.4363804-0.0959139,0.6546574-0.1434708c0.1341286-0.0292225,0.2684231-0.0576682,0.4026356-0.086462
		c-0.0000134,0.0700059-0.000021,0.1400118-0.0000286,0.2100177c-0.0129261,0.017529-0.0323753,0.0217099-0.0520401,0.0261321
		c-0.3144207,0.0706944-0.6292839,0.139389-0.9437408,0.2099175C18.3520279,5.4410038,18.3305054,5.4472618,18.3115368,5.4301362z"
		/>
	<path fill="#964AEA" d="M18.3115368,5.4301362c0.0750923-0.0032649,0.146347-0.0273356,0.2189636-0.0427918
		c0.271944-0.0578837,0.5430164-0.1198711,0.8143959-0.1803961c0.0080681-0.0017991,0.0159473-0.0044498,0.0239048-0.0067024
		c-0.0000095,0.0599647-0.0000076,0.1199269-0.0000172,0.1798887c-0.0820255,0.0012336-0.1592693,0.0285392-0.2381611,0.04561
		c-0.2568493,0.0555768-0.5128937,0.1148753-0.7693901,0.1721053c-0.0159454,0.0035572-0.0331097,0.0016413-0.0497074,0.0022726
		C18.3115292,5.5434604,18.311533,5.4867978,18.3115368,5.4301362z"/>
</g>
</svg>
