<svg width="65" height="34" viewBox="0 0 65 34" fill="none" xmlns="http://www.w3.org/2000/svg">
<path d="M45.934 11.1908V21.0556C45.9348 21.0917 45.9285 21.1276 45.9155 21.1612C45.9026 21.1947 45.8832 21.2251 45.8586 21.2507C45.8339 21.2762 45.8046 21.2963 45.7722 21.3097C45.7399 21.3232 45.7053 21.3297 45.6704 21.3288H43.7298C43.695 21.3297 43.6604 21.3232 43.628 21.3097C43.5957 21.2963 43.5663 21.2762 43.5417 21.2507C43.5171 21.2251 43.4977 21.1947 43.4847 21.1612C43.4718 21.1276 43.4655 21.0917 43.4663 21.0556V11.1908C43.4655 11.1547 43.4718 11.1188 43.4847 11.0852C43.4977 11.0517 43.5171 11.0213 43.5417 10.9957C43.5663 10.9702 43.5957 10.9501 43.628 10.9367C43.6604 10.9232 43.695 10.9167 43.7298 10.9176H45.6704C45.7053 10.9167 45.7399 10.9232 45.7722 10.9367C45.8046 10.9501 45.8339 10.9702 45.8586 10.9957C45.8832 11.0213 45.9026 11.0517 45.9155 11.0852C45.9285 11.1188 45.9348 11.1547 45.934 11.1908ZM61.0819 10.9176C61.1574 10.9176 61.2517 10.9564 61.3454 11.0347C61.4022 11.093 61.4022 11.1908 61.3835 11.2691L58.1803 21.1534C58.1609 21.2045 58.1272 21.2486 58.0837 21.2799C58.0401 21.3112 57.9886 21.3285 57.9355 21.3294H56.2022C56.0892 21.3294 55.9949 21.2706 55.9574 21.1534L54.0912 15.391L52.2261 21.1528C52.2066 21.2039 52.173 21.2479 52.1294 21.2793C52.0859 21.3106 52.0343 21.3279 51.9813 21.3288H50.248C50.135 21.3288 50.0407 21.2706 50.0032 21.1528L46.8 11.2685C46.7813 11.1908 46.7813 11.1124 46.8375 11.0347C46.8756 10.9564 46.9699 10.9176 47.0448 10.9176H49.2115C49.3245 10.9176 49.4188 10.9953 49.4568 11.1124L51.1709 16.9532L53.0553 11.1124C53.0747 11.0613 53.1083 11.0173 53.1519 10.9859C53.1955 10.9546 53.247 10.9373 53.3 10.9364H54.8261C54.9391 10.9364 55.0334 10.9953 55.0709 11.1124L56.9553 16.9532L58.6699 11.1124C58.6852 11.0571 58.7173 11.0083 58.7613 10.9733C58.8054 10.9382 58.8591 10.9187 58.9146 10.9176H61.0819ZM64.36 10.9176C64.4918 10.9176 64.6048 11.0347 64.6235 11.1908V21.0556C64.6243 21.0917 64.618 21.1276 64.6051 21.1612C64.5921 21.1947 64.5727 21.2251 64.5481 21.2507C64.5235 21.2762 64.4941 21.2963 64.4618 21.3097C64.4294 21.3232 64.3948 21.3297 64.36 21.3288H62.4194C62.3845 21.3297 62.3499 21.3232 62.3176 21.3097C62.2853 21.2963 62.2559 21.2762 62.2313 21.2507C62.2066 21.2251 62.1872 21.1947 62.1743 21.1612C62.1613 21.1276 62.1551 21.0917 62.1559 21.0556V11.1908C62.1551 11.1547 62.1613 11.1188 62.1743 11.0852C62.1872 11.0517 62.2066 11.0213 62.2313 10.9957C62.2559 10.9702 62.2853 10.9501 62.3176 10.9367C62.3499 10.9232 62.3845 10.9167 62.4194 10.9176H64.36ZM42.3355 20.9779C42.4486 21.1145 42.3543 21.3094 42.1845 21.3094H39.8105C39.7638 21.3107 39.7173 21.3008 39.6749 21.2805C39.6324 21.2602 39.5951 21.23 39.5657 21.1922L39.1704 20.6847C38.3413 21.2311 37.361 21.5638 36.3251 21.5638C33.4241 21.5638 31.0689 19.1219 31.0689 16.1135C31.0689 13.1051 33.4241 10.6632 36.3251 10.6632C39.2267 10.6632 41.5819 13.1051 41.5819 16.1135C41.5819 17.1881 41.2803 18.2039 40.7527 19.063L42.3355 20.9779ZM22.4959 22.7277C22.986 22.9232 23.1746 23.6846 23.2121 24.0167C23.2876 24.6226 23.1184 24.8569 22.9298 24.8569C22.7413 24.8569 22.4772 24.6226 22.1949 24.1539C21.9121 23.6846 21.7991 23.1576 21.9501 22.8837C22.0438 22.7077 22.2505 22.6299 22.4959 22.7277ZM19.6324 24.9353C19.934 24.9353 20.273 25.0719 20.5746 25.3451C21.1584 25.8533 21.3282 26.4392 21.0267 26.869C20.8568 27.0839 20.5746 27.2206 20.2543 27.2206C19.934 27.2206 19.5949 27.1034 19.3689 26.8884C18.8413 26.4197 18.6908 25.6377 19.0292 25.2085C19.1616 25.0324 19.3689 24.9353 19.6324 24.9353ZM13.0387 30.5805C5.87874 30.5805 0.0761719 24.5637 0.0761719 17.1408C0.0761719 9.71784 5.87932 3.70166 13.0381 3.70166C20.1975 3.70166 26.0006 9.71845 26.0006 17.1408C26.0006 19.6604 25.3225 22.0246 24.1736 24.0367C24.1355 24.095 24.0413 24.0756 24.0225 23.9972C23.5704 20.6962 21.6298 18.879 18.8038 18.3326C18.5584 18.2931 18.5209 18.1371 18.8413 18.0982C19.7079 18.0199 20.9324 18.0393 21.573 18.1565C21.6105 17.8244 21.6298 17.4729 21.6298 17.1213C21.6298 12.2181 17.786 8.23277 13.0568 8.23277C8.32824 8.23277 4.48446 12.2181 4.48446 17.1213C4.48446 22.0246 8.32824 26.0099 13.0574 26.0099H13.4527C13.3184 25.2168 13.2615 24.4117 13.2829 23.6068C13.3022 23.0598 13.4152 22.9815 13.6413 23.4113C14.8282 25.5406 16.5241 27.4549 19.8397 28.2169C22.5527 28.8422 25.2657 29.5647 28.186 33.4128C28.4495 33.7449 28.0543 34.0964 27.7527 33.8232C24.7762 31.0881 22.0632 30.1895 19.5949 30.1895C16.8251 30.2095 14.9418 30.5805 13.0387 30.5805ZM37.6251 18.7898L36.5886 17.4808C36.4762 17.3442 36.5704 17.1292 36.7397 17.1292H38.9251C39.0381 16.8166 39.0949 16.465 39.0949 16.1135C39.0949 14.4924 37.9267 13.0857 36.3251 13.0857C34.7241 13.0857 33.5553 14.4924 33.5553 16.1135C33.5553 17.7346 34.7241 19.1219 36.3251 19.1219C36.7772 19.1413 37.2298 19.0047 37.6251 18.7898Z" fill="#FF8C00"/>
</svg>
